<svg width="893" height="217" viewBox="0 0 893 217" fill="none" xmlns="http://www.w3.org/2000/svg">
<g filter="url(#filter0_d_51_3902)">
<rect width="870" height="194" rx="22" fill="#32594A"/>
</g>
<g filter="url(#filter1_d_51_3902)">
<path d="M42.0603 23.4305L41.8709 31.6433C45.5954 32.0035 47.9311 31.4992 48.878 30.1304C49.9512 28.6176 50.1406 27.2127 49.4462 25.916C48.6255 24.3311 46.9211 23.5026 44.3328 23.4305C43.5753 23.4305 42.8178 23.4305 42.0603 23.4305V23.4305ZM40.3558 20.2967C40.6083 20.2967 40.8608 20.2967 41.1133 20.2967C41.6815 20.2247 43.0072 20.2967 45.0904 20.5129C49.1937 20.8731 51.7819 22.458 52.8551 25.2676C53.7389 27.717 53.1392 30.0584 51.0559 32.2917C50.8034 32.5798 50.5194 32.832 50.2037 33.0481C50.9613 33.2643 51.4978 33.4804 51.8135 33.6965C54.7173 35.7857 55.6011 38.3432 54.4648 41.3689C53.7073 43.17 51.8766 44.3947 48.9727 45.043C45.9426 45.7635 42.9756 46.0156 40.0717 45.7995C39.9455 45.7995 39.8192 45.7995 39.693 45.7995C38.7461 45.7275 38.2726 45.1511 38.2726 44.0705L38.8407 21.8096C38.8407 20.801 39.3458 20.2967 40.3558 20.2967V20.2967ZM41.7762 34.7771L41.5868 42.7738C42.7231 42.8458 43.8278 42.8098 44.901 42.6657C46.1004 42.5216 47.3945 42.1974 48.7833 41.6931C50.3615 41.1888 51.2453 40.3964 51.4347 39.3157C51.6872 37.947 51.1822 36.8663 49.9196 36.0739C48.9096 35.4255 47.5208 34.9932 45.7532 34.7771C44.1119 34.7051 42.7862 34.7051 41.7762 34.7771V34.7771ZM64.8809 45.5834C59.8938 45.5834 57.4003 43.0259 57.4003 37.9109C57.3371 34.597 58.4734 32.0395 60.8092 30.2385C63.4605 28.0772 66.2381 27.4649 69.142 28.4014C69.4577 28.1133 69.9627 28.0412 70.6571 28.1853C71.9828 28.4735 72.5193 29.302 72.2668 30.6707C72.0143 31.9675 71.8565 34.2368 71.7934 37.4787C71.7934 40.0722 72.109 41.8732 72.7403 42.8818C73.6872 44.4667 73.5294 45.3672 72.2668 45.5834C70.9412 45.8715 70.1521 45.3312 69.8995 43.9624C67.627 45.043 65.9541 45.5834 64.8809 45.5834V45.5834ZM66.8694 42.4496C67.2482 42.3055 67.9426 41.8372 68.9526 41.0448C68.5107 36.4341 68.5423 33.2642 69.0473 31.5352C67.9742 30.8869 66.8694 30.7068 65.7331 30.9949C64.9125 31.211 64.2496 31.4632 63.7446 31.7514C61.7876 33.1922 60.746 35.1373 60.6198 37.5867C60.6829 40.9007 61.8508 42.6297 64.1234 42.7738C65.0703 42.8458 65.9856 42.7377 66.8694 42.4496V42.4496ZM80.505 42.4496C82.967 42.5936 84.482 42.2695 85.0502 41.477C85.4921 40.8286 85.2396 40.0002 84.2926 38.9916C83.6614 38.4152 82.2726 37.983 80.1262 37.6948C77.8536 37.3346 76.5279 36.4701 76.1492 35.1013C75.8967 34.0207 75.9914 32.9401 76.4333 31.8594C76.8751 30.6347 77.5696 29.6982 78.5165 29.0498C79.6528 28.2573 80.9469 27.8251 82.3988 27.753C83.977 27.609 85.3974 27.8251 86.6599 28.4014C88.2381 29.1218 89.0903 29.9863 89.2166 30.9949C89.3429 31.5713 89.1535 32.0756 88.6485 32.5078C88.0172 33.0121 87.0387 32.6519 85.713 31.4272C85.0817 30.8509 84.1348 30.5987 82.8723 30.6707C81.5466 30.6707 80.5681 31.031 79.9368 31.7514C79.3687 32.3997 79.2109 33.0481 79.4634 33.6965C79.6528 34.2728 80.4103 34.633 81.736 34.7771C82.8092 34.9212 83.7876 35.1733 84.6714 35.5336C85.8708 36.1099 86.7231 36.6502 87.2281 37.1545C88.3644 38.4512 88.8378 39.784 88.6485 41.1528C88.4591 42.5216 87.67 43.6743 86.2812 44.6108C85.208 45.2592 83.7561 45.6194 81.9254 45.6914C80.3472 45.6914 79.0531 45.5474 78.043 45.2592C77.4749 45.1151 76.7489 44.7909 75.8651 44.2866C75.1076 43.8544 74.6972 43.3141 74.6341 42.6657C74.6341 42.0173 74.8866 41.513 75.3916 41.1528C76.0229 40.7926 76.7173 40.8646 77.4749 41.3689C78.4849 42.0173 79.4949 42.3775 80.505 42.4496V42.4496ZM106.072 36.29L94.8981 37.8029C94.9612 39.0276 95.5294 40.0722 96.6025 40.9367C97.802 42.0173 99.1908 42.5576 100.769 42.5576C103.042 42.4856 104.557 42.0533 105.314 41.2609C106.072 40.4684 106.671 40.0001 107.113 39.8561C107.681 39.784 108.06 39.9641 108.25 40.3964C108.818 41.405 108.597 42.3415 107.587 43.206C105.819 44.7189 103.483 45.4393 100.58 45.3673C98.4332 45.3673 96.571 44.7549 94.9928 43.5302C93.0358 41.9453 92.0573 39.82 92.0573 37.1545C92.0573 34.9212 92.6886 32.9761 93.9512 31.3191C95.4662 29.1579 97.4548 28.0052 99.9167 27.8611C102.505 27.717 104.525 28.3294 105.977 29.6982C107.303 30.9229 107.934 32.3637 107.871 34.0207C107.871 35.3174 107.271 36.0739 106.072 36.29V36.29ZM95.2769 35.1013L105.03 33.8046C104.841 32.868 104.336 32.1476 103.515 31.6433C102.505 30.9949 101.463 30.6707 100.39 30.6707C98.8751 30.6707 97.5495 31.3551 96.4132 32.7239C95.9081 33.3003 95.5294 34.0927 95.2769 35.1013ZM125.957 19C127.093 19 127.63 19.5043 127.567 20.5129L127.093 43.7463C127.093 44.899 126.493 45.4393 125.294 45.3673C124.41 45.3673 123.937 44.935 123.874 44.0705C122.232 45.0791 120.465 45.5474 118.571 45.4753C116.677 45.4753 114.973 44.7909 113.458 43.4221C111.816 41.8372 110.964 40.0002 110.901 37.9109C110.775 35.0293 111.532 32.6519 113.174 30.7788C114.752 28.9057 116.772 27.9692 119.234 27.9692C120.559 27.9692 121.727 28.2573 122.737 28.8337C123.242 29.1218 123.716 29.41 124.158 29.6982L124.347 20.4048C124.41 19.4683 124.947 19 125.957 19V19ZM123.874 40.3964C124 38.1631 124.063 35.8217 124.063 33.3723C122.106 31.4272 120.181 30.6707 118.287 31.103C116.898 31.4632 115.888 32.0035 115.257 32.7239C114.373 33.7325 113.9 35.2094 113.836 37.1545C113.836 38.3792 114.31 39.5679 115.257 40.7205C116.014 41.6571 117.119 42.2334 118.571 42.4496C120.149 42.5936 121.917 41.9092 123.874 40.3964V40.3964ZM167.526 31.2111C166.075 31.2111 165.001 31.6793 164.307 32.6159C163.171 34.0567 162.602 35.6776 162.602 37.4787C162.602 39.1356 163.013 40.3604 163.833 41.1528C164.654 42.0173 165.601 42.4496 166.674 42.4496C167.874 42.4496 168.884 42.0173 169.704 41.1528C170.588 40.2883 171.03 38.8475 171.03 36.8303C171.03 33.0121 169.862 31.139 167.526 31.2111ZM167.432 27.9692C171.914 27.9692 174.155 31.031 174.155 37.1545C174.155 39.748 173.555 41.7291 172.356 43.0979C171.03 44.7549 168.978 45.5474 166.201 45.4753C164.244 45.4753 162.571 44.6829 161.182 43.0979C159.983 41.7291 159.383 39.748 159.383 37.1545C159.383 34.7051 160.109 32.5438 161.561 30.6707C163.013 28.7977 164.97 27.8971 167.432 27.9692V27.9692ZM180.026 27.2127C181.225 27.2127 181.793 27.753 181.73 28.8337C181.73 29.1218 181.73 29.41 181.73 29.6982C182.93 28.6896 184.476 28.1853 186.37 28.1853C190.6 28.1853 192.651 30.5987 192.525 35.4255L192.43 43.4221C192.43 44.7189 191.894 45.4033 190.821 45.4753C189.621 45.6194 189.021 45.0431 189.021 43.7463L189.305 36.1819C189.369 33.2282 188.485 31.6793 186.654 31.5352C185.076 31.4632 183.403 32.2557 181.635 33.9126L181.446 43.6382C181.383 44.7909 180.752 45.3673 179.552 45.3673C178.542 45.2952 178.069 44.6828 178.132 43.5302L178.511 28.7256C178.511 27.717 179.016 27.2127 180.026 27.2127V27.2127ZM237.977 36.29L226.803 37.8029C226.866 39.0276 227.435 40.0722 228.508 40.9367C229.707 42.0173 231.096 42.5576 232.674 42.5576C234.947 42.4856 236.462 42.0533 237.219 41.2609C237.977 40.4684 238.608 40.0001 239.113 39.8561C239.618 39.784 239.965 39.9641 240.155 40.3964C240.723 41.405 240.502 42.3415 239.492 43.206C237.724 44.7189 235.389 45.4393 232.485 45.3673C230.338 45.3673 228.476 44.7549 226.898 43.5302C224.941 41.9453 223.963 39.82 223.963 37.1545C223.963 34.9212 224.594 32.9761 225.856 31.3191C227.371 29.1579 229.36 28.0052 231.822 27.8611C234.41 27.717 236.43 28.3294 237.882 29.6982C239.208 30.9229 239.839 32.3637 239.776 34.0207C239.776 35.3174 239.176 36.0739 237.977 36.29V36.29ZM227.182 35.1013L236.935 33.8046C236.746 32.868 236.241 32.1476 235.42 31.6433C234.473 30.9949 233.432 30.6707 232.295 30.6707C230.78 30.6707 229.455 31.3551 228.318 32.7239C227.876 33.3003 227.498 34.0927 227.182 35.1013V35.1013ZM244.227 34.7771H252.181C253.254 34.7771 253.79 35.1733 253.79 35.9658C253.79 36.8303 253.285 37.2626 252.275 37.2626H244.132C243.374 37.2626 242.996 36.8663 242.996 36.0739C242.996 35.2094 243.406 34.7771 244.227 34.7771V34.7771ZM268.941 30.1304L270.93 41.1528L274.622 30.1304C275.128 28.6176 275.79 27.8971 276.611 27.9692C277.747 28.1853 278.063 28.9417 277.558 30.2385L272.823 43.5302C272.318 44.8269 271.592 45.4753 270.645 45.4753C269.509 45.4753 268.815 44.8269 268.562 43.5302L266.858 34.7771L263.638 43.5302C263.133 44.8269 262.439 45.4753 261.555 45.4753C260.356 45.4753 259.63 44.8269 259.377 43.5302L256.821 30.2385C256.505 28.8697 256.884 28.1133 257.957 27.9692C258.904 27.8251 259.503 28.5455 259.756 30.1304L261.744 41.1528L265.437 30.1304C265.879 28.6896 266.479 27.9692 267.237 27.9692C268.12 27.9692 268.688 28.6896 268.941 30.1304ZM287.027 45.5834C282.04 45.5834 279.546 43.0259 279.546 37.9109C279.483 34.597 280.62 32.0395 282.955 30.2385C285.607 28.0772 288.384 27.4649 291.288 28.4014C291.604 28.1133 292.109 28.0412 292.803 28.1853C294.129 28.4735 294.666 29.302 294.413 30.6707C294.16 31.9675 294.003 34.2368 293.94 37.4787C293.94 40.0722 294.255 41.8732 294.886 42.8818C295.833 44.4667 295.707 45.3672 294.508 45.5834C293.119 45.8715 292.298 45.3312 292.046 43.9624C289.773 45.043 288.1 45.5834 287.027 45.5834V45.5834ZM289.016 42.4496C289.394 42.3055 290.089 41.8372 291.099 41.0448C290.657 36.4341 290.688 33.2642 291.194 31.5352C290.12 30.8869 289.016 30.7068 287.879 30.9949C287.059 31.211 286.396 31.4632 285.891 31.7514C283.934 33.1922 282.892 35.1373 282.766 37.5867C282.829 40.9007 283.997 42.6297 286.27 42.7738C287.216 42.8458 288.132 42.7377 289.016 42.4496V42.4496ZM302.651 42.4496C305.113 42.5936 306.628 42.2695 307.196 41.477C307.638 40.8286 307.386 40.0002 306.439 38.9916C305.808 38.4152 304.419 37.983 302.272 37.6948C300 37.3346 298.674 36.4701 298.295 35.1013C298.043 34.0207 298.138 32.9401 298.579 31.8594C299.084 30.6347 299.779 29.6982 300.663 29.0498C301.799 28.2573 303.093 27.8251 304.545 27.753C306.123 27.609 307.544 27.8251 308.806 28.4014C310.384 29.1218 311.237 29.9863 311.363 30.9949C311.489 31.5713 311.3 32.0756 310.795 32.5078C310.163 33.0121 309.185 32.6519 307.859 31.4272C307.228 30.8509 306.281 30.5987 305.018 30.6707C303.693 30.6707 302.714 31.031 302.083 31.7514C301.515 32.3997 301.357 33.0481 301.61 33.6965C301.799 34.2728 302.556 34.633 303.882 34.7771C304.955 34.9212 305.934 35.1733 306.818 35.5336C308.017 36.1099 308.869 36.6502 309.374 37.1545C310.511 38.4512 310.984 39.784 310.795 41.1528C310.605 42.5216 309.816 43.6743 308.427 44.6108C307.354 45.2592 305.902 45.6194 304.072 45.6914C302.493 45.6914 301.231 45.5474 300.284 45.2592C299.653 45.1151 298.895 44.7909 298.011 44.2866C297.254 43.8544 296.843 43.3141 296.78 42.6657C296.78 42.0173 297.033 41.513 297.538 41.1528C298.169 40.7926 298.864 40.8646 299.621 41.3689C300.631 42.0173 301.641 42.3775 302.651 42.4496V42.4496ZM320.927 19C322.063 19 322.631 19.5043 322.631 20.5129C322.568 23.2505 322.505 25.7359 322.442 27.9692H325.851C327.176 27.9692 327.839 28.5095 327.839 29.5901C327.839 30.6707 327.208 31.2111 325.945 31.2111C324.746 31.2111 323.546 31.2111 322.347 31.2111L322.063 43.7463C322.063 44.899 321.463 45.4393 320.264 45.3673C319.254 45.3673 318.78 44.7909 318.843 43.6382L319.127 31.2111C317.802 31.2111 316.476 31.2111 315.15 31.2111C314.204 31.2111 313.73 30.7068 313.73 29.6982C313.73 28.6176 314.267 28.0772 315.34 28.0772C316.602 28.0772 317.897 28.0412 319.222 27.9692L319.412 20.4048C319.412 19.4683 319.917 19 320.927 19V19ZM344.315 36.29L333.047 37.8029C333.11 39.0276 333.678 40.0722 334.752 40.9367C336.014 42.0173 337.435 42.5576 339.013 42.5576C341.285 42.4856 342.8 42.0533 343.558 41.2609C344.315 40.4684 344.915 40.0001 345.357 39.8561C345.925 39.784 346.304 39.9641 346.493 40.3964C346.998 41.405 346.746 42.3415 345.736 43.206C343.968 44.7189 341.664 45.4393 338.823 45.3673C336.677 45.3673 334.815 44.7549 333.237 43.5302C331.28 41.9453 330.301 39.82 330.301 37.1545C330.301 34.9212 330.901 32.9761 332.1 31.3191C333.678 29.1579 335.698 28.0052 338.16 27.8611C340.686 27.717 342.674 28.3294 344.126 29.6982C345.515 30.9229 346.178 32.3637 346.115 34.0207C346.051 35.3174 345.452 36.0739 344.315 36.29V36.29ZM333.426 35.1013L343.274 33.8046C343.084 32.868 342.579 32.1476 341.759 31.6433C340.749 30.9949 339.707 30.6707 338.634 30.6707C337.119 30.6707 335.793 31.3551 334.657 32.7239C334.152 33.3003 333.742 34.0927 333.426 35.1013V35.1013ZM392.892 19C394.028 19 394.597 19.5043 394.597 20.5129L394.028 43.7463C394.028 44.899 393.429 45.4393 392.229 45.3673C391.346 45.3673 390.872 44.935 390.809 44.0705C389.168 45.0791 387.4 45.5474 385.506 45.4753C383.612 45.4753 381.908 44.7909 380.393 43.4221C378.752 41.8372 377.899 40.0002 377.836 37.9109C377.71 35.0293 378.467 32.6519 380.109 30.7788C381.687 28.9057 383.707 27.9692 386.169 27.9692C387.495 27.9692 388.663 28.2573 389.673 28.8337C390.178 29.1218 390.651 29.41 391.093 29.6982L391.282 20.4048C391.346 19.4683 391.882 19 392.892 19V19ZM390.809 40.3964C390.935 38.1631 390.998 35.8217 390.998 33.3723C389.041 31.4272 387.116 30.6707 385.222 31.103C383.833 31.4632 382.823 32.0035 382.192 32.7239C381.308 33.7325 380.835 35.2094 380.772 37.1545C380.772 38.3792 381.245 39.5679 382.192 40.7205C382.95 41.6571 384.054 42.2334 385.506 42.4496C387.084 42.5936 388.852 41.9092 390.809 40.3964V40.3964ZM401.414 20.729C401.793 20.729 402.172 20.801 402.551 20.9451C402.866 21.1612 403.119 21.4494 403.308 21.8096C403.434 22.0978 403.498 22.386 403.498 22.6741C403.498 22.7462 403.498 22.8182 403.498 22.8902C403.498 23.2504 403.371 23.5746 403.119 23.8628C402.866 24.151 402.614 24.3671 402.361 24.5112C402.109 24.6552 401.793 24.7273 401.414 24.7273C401.414 24.7273 401.383 24.7273 401.32 24.7273C401.004 24.6553 400.688 24.5472 400.373 24.4031C400.057 24.259 399.805 24.0429 399.615 23.7547C399.426 23.3945 399.331 23.0343 399.331 22.6741C399.331 22.3139 399.426 21.9897 399.615 21.7016C399.805 21.4134 400.057 21.1612 400.373 20.9451C400.688 20.801 401.036 20.729 401.414 20.729ZM401.32 27.9692C402.33 27.9692 402.835 28.6536 402.835 30.0224L402.551 43.3141C402.551 44.7549 402.046 45.4753 401.036 45.4753C399.836 45.4753 399.236 44.8269 399.236 43.5302L399.521 30.0224C399.584 28.6536 400.183 27.9692 401.32 27.9692ZM412.304 42.4496C414.766 42.5936 416.281 42.2695 416.849 41.477C417.291 40.8286 417.038 40.0002 416.092 38.9916C415.46 38.4152 414.071 37.983 411.925 37.6948C409.589 37.3346 408.264 36.4701 407.948 35.1013C407.696 34.0207 407.79 32.9401 408.232 31.8594C408.674 30.6347 409.368 29.6982 410.315 29.0498C411.452 28.2573 412.714 27.8251 414.103 27.753C415.744 27.609 417.165 27.8251 418.364 28.4014C420.005 29.1218 420.889 29.9863 421.016 30.9949C421.142 31.5713 420.952 32.0756 420.447 32.5078C419.753 33.0121 418.774 32.6519 417.512 31.4272C416.881 30.8509 415.934 30.5987 414.671 30.6707C413.345 30.6707 412.367 31.031 411.736 31.7514C411.168 32.3997 410.978 33.0481 411.168 33.6965C411.42 34.2728 412.209 34.633 413.535 34.7771C414.608 34.9212 415.587 35.1733 416.47 35.5336C417.67 36.1099 418.522 36.6502 419.027 37.1545C420.163 38.4512 420.637 39.784 420.447 41.1528C420.258 42.5216 419.469 43.6743 418.08 44.6108C417.007 45.2592 415.523 45.6194 413.63 45.6914C412.114 45.6914 410.852 45.5474 409.842 45.2592C409.274 45.1151 408.548 44.7909 407.664 44.2866C406.906 43.8544 406.496 43.3141 406.433 42.6657C406.37 42.0173 406.622 41.513 407.191 41.1528C407.759 40.7926 408.453 40.8646 409.274 41.3689C410.284 42.0173 411.294 42.3775 412.304 42.4496V42.4496ZM426.129 53.9042C424.993 53.9042 424.424 53.3639 424.424 52.2833L424.993 29.0498C424.993 27.8971 425.592 27.3568 426.792 27.4289C427.36 27.4289 427.77 27.717 428.023 28.2934C428.591 27.8611 429.885 27.681 431.905 27.753C433.925 27.753 435.661 28.5095 437.113 30.0224C438.565 31.4632 439.291 33.1922 439.291 35.2094C439.291 38.0911 438.628 40.3243 437.302 41.9092C435.85 43.6382 434.051 44.5748 431.905 44.7189C430.011 44.863 428.686 44.5748 427.928 43.8544C427.928 43.8544 427.896 43.8544 427.833 43.8544L427.644 52.3913C427.644 53.3999 427.139 53.9042 426.129 53.9042ZM428.117 31.7514L427.928 40.0722C429.001 41.2249 430.169 41.7652 431.432 41.6931C433.073 41.5491 434.304 40.9007 435.125 39.748C435.882 38.7394 436.261 37.4787 436.261 35.9658C436.324 34.597 435.914 33.4083 435.03 32.3998C434.272 31.5352 433.199 30.9949 431.81 30.7788C430.295 30.6347 429.064 30.9589 428.117 31.7514V31.7514ZM450.086 31.2111C448.634 31.2111 447.561 31.6793 446.866 32.6159C445.73 34.0567 445.162 35.6776 445.162 37.4787C445.162 39.1356 445.572 40.3604 446.393 41.1528C447.213 42.0173 448.16 42.4496 449.234 42.4496C450.433 42.4496 451.443 42.0173 452.264 41.1528C453.147 40.2883 453.589 38.8475 453.589 36.8303C453.652 33.0121 452.485 31.139 450.086 31.2111ZM449.991 27.9692C454.473 27.9692 456.714 31.031 456.714 37.1545C456.714 39.748 456.114 41.7291 454.915 43.0979C453.589 44.7549 451.569 45.5474 448.855 45.4753C446.835 45.4753 445.162 44.6829 443.836 43.0979C442.574 41.7291 441.942 39.748 441.942 37.1545C441.942 34.7051 442.7 32.5438 444.215 30.6707C445.667 28.7977 447.592 27.8971 449.991 27.9692V27.9692ZM465.047 42.4496C467.509 42.5936 469.024 42.2695 469.592 41.477C470.034 40.8286 469.782 40.0002 468.835 38.9916C468.203 38.4152 466.815 37.983 464.668 37.6948C462.396 37.3346 461.07 36.4701 460.691 35.1013C460.439 34.0207 460.533 32.9401 460.975 31.8594C461.417 30.6347 462.112 29.6982 463.059 29.0498C464.195 28.2573 465.489 27.8251 466.941 27.753C468.519 27.609 469.939 27.8251 471.202 28.4014C472.78 29.1218 473.632 29.9863 473.759 30.9949C473.885 31.5713 473.696 32.0756 473.191 32.5078C472.559 33.0121 471.581 32.6519 470.255 31.4272C469.624 30.8509 468.677 30.5987 467.414 30.6707C466.089 30.6707 465.11 31.031 464.479 31.7514C463.911 32.3997 463.753 33.0481 464.005 33.6965C464.195 34.2728 464.952 34.633 466.278 34.7771C467.351 34.9212 468.33 35.1733 469.213 35.5336C470.413 36.1099 471.265 36.6502 471.77 37.1545C472.906 38.4512 473.38 39.784 473.191 41.1528C473.001 42.5216 472.212 43.6743 470.823 44.6108C469.75 45.2592 468.298 45.6194 466.467 45.6914C464.889 45.6914 463.627 45.5474 462.68 45.2592C462.048 45.1151 461.291 44.7909 460.407 44.2866C459.65 43.8544 459.239 43.3141 459.176 42.6657C459.176 42.0173 459.429 41.513 459.934 41.1528C460.565 40.7926 461.259 40.8646 462.017 41.3689C463.027 42.0173 464.037 42.3775 465.047 42.4496V42.4496ZM483.512 45.5834C478.525 45.5834 476 43.0259 475.937 37.9109C475.937 34.597 477.104 32.0395 479.44 30.2385C482.091 28.0772 484.869 27.4649 487.773 28.4014C488.089 28.1133 488.594 28.0412 489.288 28.1853C490.614 28.4735 491.15 29.302 490.898 30.6707C490.645 31.9675 490.488 34.2368 490.424 37.4787C490.361 40.0722 490.645 41.8732 491.277 42.8818C492.223 44.4667 492.097 45.3672 490.898 45.5834C489.509 45.8715 488.72 45.3312 488.531 43.9624C486.195 45.043 484.522 45.5834 483.512 45.5834V45.5834ZM485.406 42.4496C485.784 42.3055 486.479 41.8372 487.489 41.0448C487.11 36.4341 487.173 33.2642 487.678 31.5352C486.605 30.8869 485.469 30.7068 484.269 30.9949C483.449 31.211 482.786 31.4632 482.281 31.7514C480.324 33.1922 479.314 35.1373 479.251 37.5867C479.251 40.9007 480.419 42.6297 482.754 42.7738C483.701 42.8458 484.585 42.7377 485.406 42.4496V42.4496ZM497.526 19C498.663 19 499.231 19.5043 499.231 20.5129L498.757 43.7463C498.694 44.899 498.063 45.4393 496.863 45.3673C495.916 45.3673 495.443 44.7909 495.443 43.6382L496.011 20.4048C496.011 19.4683 496.516 19 497.526 19V19ZM534.74 27.2127C535.876 27.2127 536.444 27.753 536.444 28.8337C536.444 28.9777 536.444 29.1579 536.444 29.374C537.707 28.5095 538.938 28.0412 540.137 27.9692C541.589 27.9692 542.82 28.1853 543.83 28.6176C545.472 29.4821 546.166 30.3466 545.914 31.2111C545.409 32.5798 544.525 32.832 543.262 31.9675C542.252 31.3191 541.084 31.103 539.759 31.3191C538.496 31.6073 537.36 32.2196 536.35 33.1562L536.066 43.7463C536.002 44.899 535.403 45.4393 534.267 45.3673C533.256 45.3673 532.783 44.7909 532.846 43.6382L533.225 28.7256C533.225 27.717 533.73 27.2127 534.74 27.2127V27.2127ZM555.383 45.5834C550.396 45.5834 547.871 43.0259 547.807 37.9109C547.807 34.597 548.975 32.0395 551.311 30.2385C553.962 28.0772 556.74 27.4649 559.644 28.4014C559.959 28.1133 560.464 28.0412 561.159 28.1853C562.485 28.4735 563.021 29.302 562.769 30.6707C562.516 31.9675 562.358 34.2368 562.295 37.4787C562.232 40.0722 562.516 41.8732 563.147 42.8818C564.094 44.4667 563.968 45.3672 562.769 45.5834C561.38 45.8715 560.591 45.3312 560.401 43.9624C558.066 45.043 556.393 45.5834 555.383 45.5834V45.5834ZM557.277 42.4496C557.718 42.3055 558.413 41.8372 559.36 41.0448C558.981 36.4341 559.044 33.2642 559.549 31.5352C558.476 30.8869 557.34 30.7068 556.14 30.9949C555.32 31.211 554.688 31.4632 554.246 31.7514C552.226 33.1922 551.185 35.1373 551.122 37.5867C551.122 40.9007 552.289 42.6297 554.625 42.7738C555.572 42.8458 556.456 42.7377 557.277 42.4496V42.4496ZM572.617 19C573.753 19 574.321 19.5043 574.321 20.5129C574.321 23.2505 574.258 25.7359 574.132 27.9692H577.541C578.929 27.9692 579.624 28.5095 579.624 29.5901C579.624 30.6707 578.961 31.2111 577.635 31.2111C576.436 31.2111 575.236 31.2111 574.037 31.2111L573.848 43.7463C573.784 44.899 573.153 45.4393 571.954 45.3673C571.007 45.3673 570.533 44.7909 570.533 43.6382L570.817 31.2111C569.492 31.2111 568.198 31.2111 566.935 31.2111C565.988 31.2111 565.515 30.7068 565.515 29.6982C565.515 28.6176 566.02 28.0772 567.03 28.0772C568.355 28.0772 569.65 28.0412 570.912 27.9692L571.101 20.4048C571.101 19.4683 571.607 19 572.617 19V19ZM596.005 36.29L584.832 37.8029C584.895 39.0276 585.463 40.0722 586.536 40.9367C587.736 42.0173 589.124 42.5576 590.703 42.5576C592.975 42.4856 594.49 42.0533 595.248 41.2609C596.005 40.4684 596.605 40.0001 597.047 39.8561C597.615 39.784 597.994 39.9641 598.183 40.3964C598.751 41.405 598.53 42.3415 597.52 43.206C595.753 44.7189 593.417 45.4393 590.513 45.3673C588.367 45.3673 586.505 44.7549 584.926 43.5302C582.969 41.9453 581.991 39.82 581.991 37.1545C581.991 34.9212 582.622 32.9761 583.885 31.3191C585.4 29.1579 587.388 28.0052 589.85 27.8611C592.439 27.717 594.459 28.3294 595.911 29.6982C597.236 30.9229 597.868 32.3637 597.804 34.0207C597.804 35.3174 597.205 36.0739 596.005 36.29V36.29ZM585.211 35.1013L594.964 33.8046C594.774 32.868 594.269 32.1476 593.449 31.6433C592.439 30.9949 591.397 30.6707 590.324 30.6707C588.809 30.6707 587.483 31.3551 586.347 32.7239C585.842 33.3003 585.463 34.0927 585.211 35.1013V35.1013ZM605.664 42.4496C608.189 42.5936 609.704 42.2695 610.209 41.477C610.714 40.8286 610.493 40.0002 609.546 38.9916C608.915 38.4152 607.495 37.983 605.285 37.6948C603.013 37.3346 601.718 36.4701 601.403 35.1013C601.087 34.0207 601.15 32.9401 601.592 31.8594C602.097 30.6347 602.823 29.6982 603.77 29.0498C604.843 28.2573 606.106 27.8251 607.558 27.753C609.199 27.609 610.619 27.8251 611.819 28.4014C613.397 29.1218 614.281 29.9863 614.47 30.9949C614.533 31.5713 614.312 32.0756 613.807 32.5078C613.176 33.0121 612.229 32.6519 610.967 31.4272C610.335 30.8509 609.388 30.5987 608.126 30.6707C606.737 30.6707 605.727 31.031 605.096 31.7514C604.591 32.3997 604.433 33.0481 604.622 33.6965C604.812 34.2728 605.601 34.633 606.99 34.7771C608 34.9212 608.947 35.1733 609.83 35.5336C611.093 36.1099 611.945 36.6502 612.387 37.1545C613.523 38.4512 613.997 39.784 613.807 41.1528C613.681 42.5216 612.924 43.6743 611.535 44.6108C610.398 45.2592 608.915 45.6194 607.084 45.6914C605.506 45.6914 604.243 45.5474 603.297 45.2592C602.728 45.1151 602.002 44.7909 601.119 44.2866C600.361 43.8544 599.951 43.3141 599.888 42.6657C599.825 42.0173 600.046 41.513 600.551 41.1528C601.182 40.7926 601.908 40.8646 602.728 41.3689C603.675 42.0173 604.654 42.3775 605.664 42.4496V42.4496ZM623.371 42.6657C624.192 43.0259 624.381 43.6382 623.939 44.5027L621.761 48.9333C621.319 50.0139 620.72 50.4102 619.962 50.122C619.205 49.7618 619.015 49.1134 619.394 48.1769L621.383 43.5302C621.761 42.5216 622.424 42.2334 623.371 42.6657V42.6657ZM668.728 22.8902L676.114 42.7738C676.682 44.2146 676.398 45.1151 675.262 45.4753C674.252 45.7635 673.463 45.1511 672.895 43.6382L670.243 36.7223H662.289L659.638 43.6382C659.133 45.1511 658.344 45.7635 657.271 45.4753C656.198 45.1151 655.913 44.2146 656.419 42.7738L663.899 22.8902C664.53 21.1612 665.319 20.2967 666.266 20.2967C667.213 20.2967 668.034 21.1612 668.728 22.8902V22.8902ZM669.012 33.3723L666.266 26.0241L663.52 33.4804L669.012 33.3723ZM682.648 27.1047C683.847 27.1047 684.416 27.645 684.352 28.7256V29.374C685.363 28.5095 686.562 28.0772 687.951 28.0772C690.286 28.0772 691.865 28.8697 692.685 30.4546C693.758 28.8697 695.463 28.0772 697.799 28.0772C701.965 28.0772 704.017 30.5267 703.954 35.4255L703.859 43.3141C703.796 44.6108 703.259 45.2952 702.249 45.3673C701.05 45.5113 700.45 44.935 700.45 43.6382L700.545 36.29C700.608 33.1202 699.756 31.4992 697.988 31.4272C695.968 31.3552 694.579 32.2557 693.822 34.1288C693.822 34.1288 693.79 34.4529 693.727 35.1013L693.538 43.0979C693.538 44.3947 693.033 45.0791 692.022 45.1511C690.823 45.2952 690.255 44.7189 690.318 43.4221L690.507 36.0739C690.571 33.0481 689.75 31.4992 688.045 31.4272C686.088 31.3552 684.826 32.4358 684.258 34.6691L683.974 43.5302C683.911 44.6828 683.311 45.2232 682.175 45.1511C681.165 45.1511 680.691 44.5748 680.754 43.4221L681.133 28.6176C681.133 27.609 681.638 27.1047 682.648 27.1047V27.1047ZM720.809 36.1819L709.635 37.6948C709.698 38.9195 710.266 39.9641 711.34 40.8286C712.539 41.9092 713.928 42.4496 715.506 42.4496C717.779 42.4496 719.294 42.0173 720.051 41.1528C720.809 40.3604 721.408 39.9281 721.85 39.8561C722.418 39.712 722.797 39.8561 722.987 40.2883C723.555 41.2969 723.334 42.2334 722.324 43.0979C720.556 44.6108 718.22 45.3673 715.317 45.3673C713.17 45.2952 711.308 44.6468 709.73 43.4221C707.773 41.8372 706.794 39.712 706.794 37.0464C706.794 34.8852 707.394 32.9401 708.593 31.2111C710.172 29.0498 712.192 27.8971 714.654 27.753C717.242 27.609 719.262 28.2213 720.714 29.5901C722.04 30.8869 722.671 32.3277 722.608 33.9126C722.608 35.2814 722.008 36.0379 720.809 36.1819V36.1819ZM710.014 35.1013L719.767 33.6965C719.578 32.7599 719.073 32.0395 718.252 31.5352C717.242 30.9589 716.2 30.6707 715.127 30.6707C713.612 30.6707 712.286 31.3191 711.15 32.6159C710.645 33.1922 710.266 34.0207 710.014 35.1013V35.1013ZM728.1 27.1047C729.236 27.1047 729.804 27.645 729.804 28.7256C729.804 28.9418 729.804 29.1219 729.804 29.2659C731.067 28.4014 732.298 27.9692 733.497 27.9692C734.949 27.8971 736.18 28.1133 737.19 28.6176C738.832 29.41 739.526 30.2385 739.274 31.103C738.769 32.4718 737.885 32.7239 736.622 31.8594C735.612 31.2111 734.444 31.031 733.119 31.3191C731.919 31.5352 730.783 32.1476 729.71 33.1562L729.426 43.6382C729.426 44.7909 728.826 45.3673 727.627 45.3673C726.616 45.2952 726.143 44.7189 726.206 43.6382L726.585 28.6176C726.585 27.609 727.09 27.1047 728.1 27.1047V27.1047ZM745.523 20.6209C745.586 20.6209 745.618 20.6209 745.618 20.6209C745.997 20.6209 746.344 20.729 746.659 20.9451C746.975 21.0892 747.228 21.3414 747.417 21.7016C747.606 21.9897 747.701 22.3139 747.701 22.6741C747.701 22.6741 747.701 22.7101 747.701 22.7822C747.638 23.1424 747.48 23.5026 747.228 23.8628C747.038 24.0789 746.817 24.259 746.565 24.4031C746.249 24.5472 745.934 24.6192 745.618 24.6192C745.555 24.6192 745.523 24.6192 745.523 24.6192C745.144 24.6192 744.829 24.5112 744.576 24.2951C744.261 24.151 744.008 23.9348 743.819 23.6467C743.629 23.3585 743.535 23.0343 743.535 22.6741C743.535 22.3139 743.629 21.9897 743.819 21.7016C744.008 21.3414 744.229 21.0892 744.482 20.9451C744.797 20.729 745.144 20.6209 745.523 20.6209ZM745.428 27.8611C746.502 27.9332 747.007 28.6536 746.944 30.0224L746.754 43.3141C746.754 44.7549 746.218 45.4753 745.144 45.4753C743.945 45.4753 743.377 44.7909 743.44 43.4221L743.724 30.0224C743.724 28.5815 744.292 27.8611 745.428 27.8611V27.8611ZM763.42 41.2609C764.367 40.6125 765.156 40.7926 765.787 41.8012C766.166 42.4495 765.882 43.17 764.935 43.9624C763.735 44.971 761.81 45.4393 759.159 45.3673C757.076 45.3673 755.371 44.7549 754.045 43.5302C752.341 41.9453 751.489 39.9641 751.489 37.5867C751.489 34.9212 752.088 32.7599 753.288 31.103C754.74 29.0858 756.602 28.0052 758.875 27.8611C760.2 27.717 761.4 27.8251 762.473 28.1853C763.862 28.6176 764.777 29.1579 765.219 29.8063C765.85 30.8148 765.787 31.6073 765.03 32.1836C764.525 32.5438 763.736 32.3277 762.662 31.5352C761.4 30.5987 759.948 30.3826 758.307 30.8869C757.36 31.175 756.507 31.8234 755.75 32.832C754.929 33.9847 754.487 35.3174 754.424 36.8303C754.424 38.2712 754.866 39.6039 755.75 40.8286C756.57 41.8372 757.707 42.3775 759.159 42.4496C760.674 42.5216 762.094 42.1254 763.42 41.2609V41.2609ZM775.824 45.5834C770.837 45.5834 768.312 43.0259 768.249 37.9109C768.249 34.525 769.417 31.9315 771.753 30.1304C774.404 28.0412 777.182 27.4289 780.086 28.2934C780.401 28.0052 780.906 27.9332 781.601 28.0772C782.926 28.3654 783.463 29.1939 783.21 30.5627C782.958 31.9315 782.8 34.2008 782.737 37.3706C782.674 39.9641 782.958 41.8012 783.589 42.8818C784.536 44.3947 784.41 45.2952 783.21 45.5834C781.822 45.7995 781.032 45.2232 780.843 43.8544C778.507 44.935 776.834 45.5113 775.824 45.5834V45.5834ZM777.718 42.3415C778.16 42.1974 778.855 41.7291 779.801 40.9367C779.423 36.326 779.486 33.1562 779.991 31.4272C778.918 30.7788 777.781 30.5987 776.582 30.8869C775.761 31.103 775.13 31.3912 774.688 31.7514C772.668 33.1202 771.626 35.0653 771.563 37.5867C771.563 40.8286 772.731 42.5216 775.067 42.6657C776.014 42.7377 776.898 42.6297 777.718 42.3415V42.3415ZM788.987 27.1047C790.186 27.1047 790.754 27.645 790.691 28.7256C790.691 29.0138 790.691 29.338 790.691 29.6982C791.89 28.6176 793.437 28.0772 795.331 28.0772C799.497 28.0772 801.549 30.5267 801.486 35.4255L801.391 43.4221C801.328 44.7189 800.791 45.4033 799.781 45.4753C798.582 45.5474 797.982 44.935 797.982 43.6382L798.172 36.0739C798.298 33.1202 797.446 31.5713 795.615 31.4272C794.037 31.3552 792.364 32.1476 790.596 33.8046L790.312 43.5302C790.312 44.6828 789.713 45.2592 788.513 45.2592C787.503 45.2592 787.03 44.6828 787.093 43.5302L787.471 28.6176C787.471 27.609 787.977 27.1047 788.987 27.1047V27.1047ZM809.25 42.3415C811.712 42.4856 813.228 42.1614 813.796 41.3689C814.238 40.7206 813.985 39.9281 813.038 38.9916C812.407 38.3432 811.018 37.8749 808.872 37.5867C806.599 37.2265 805.273 36.362 804.895 34.9932C804.642 33.9847 804.737 32.904 805.179 31.7514C805.621 30.5267 806.315 29.5901 807.262 28.9417C808.398 28.2213 809.661 27.7891 811.05 27.645C812.691 27.5009 814.111 27.717 815.311 28.2934C816.952 29.0138 817.836 29.8783 817.962 30.8869C818.088 31.5353 817.899 32.0395 817.394 32.3998C816.763 32.904 815.784 32.5799 814.459 31.4272C813.827 30.7788 812.88 30.4906 811.618 30.5627C810.292 30.6347 809.314 31.031 808.682 31.7514C808.114 32.3277 807.956 32.9401 808.209 33.5884C808.398 34.1648 809.156 34.525 810.482 34.6691C811.555 34.8132 812.533 35.0653 813.417 35.4255C814.616 36.0018 815.469 36.5782 815.974 37.1545C817.11 38.4512 817.583 39.748 817.394 41.0448C817.205 42.4856 816.416 43.6382 815.027 44.5027C813.954 45.2232 812.502 45.5834 810.671 45.5834C809.093 45.5834 807.799 45.4393 806.789 45.1511C806.22 45.007 805.494 44.6829 804.611 44.1786C803.853 43.8184 803.443 43.3141 803.38 42.6657C803.38 41.9453 803.632 41.405 804.137 41.0448C804.768 40.6845 805.463 40.7566 806.22 41.2609C807.23 41.9092 808.24 42.2694 809.25 42.3415V42.3415ZM43.1966 79.407C44.3328 79.407 44.901 79.9473 44.901 81.0279C44.8379 83.6934 44.7747 86.1789 44.7116 88.4842L48.1205 88.3761C49.4462 88.3761 50.109 88.9165 50.109 89.9971C50.109 91.0777 49.4778 91.618 48.2152 91.618C47.0158 91.618 45.8163 91.618 44.6169 91.618L44.3328 104.153C44.3328 105.306 43.7331 105.882 42.5337 105.882C41.5237 105.81 41.0502 105.234 41.1133 104.153L41.3974 91.618C40.0717 91.618 38.7461 91.618 37.4204 91.618C36.4735 91.618 36 91.1137 36 90.1051C36 89.0245 36.5366 88.4842 37.6098 88.4842C38.8723 88.4842 40.1664 88.4842 41.4921 88.4842L41.5868 80.9198C41.6499 79.9112 42.1865 79.407 43.1966 79.407V79.407ZM55.6011 79.407C56.7374 79.407 57.3056 79.9473 57.3056 81.0279L57.1162 90.4293C58.505 89.2046 60.3673 88.5923 62.703 88.5923C66.8694 88.5923 68.9211 91.0417 68.8579 95.9405L68.7632 104.045C68.7632 105.342 68.2267 106.026 67.1535 106.098C66.0172 106.17 65.449 105.558 65.449 104.261V96.5889C65.5122 93.7793 64.6284 92.3024 62.7977 92.1583C60.7776 92.0142 58.8838 92.9148 57.1162 94.8599L56.7374 104.153C56.7374 105.306 56.1377 105.882 54.9383 105.882C53.9283 105.81 53.4548 105.234 53.5179 104.153L53.9914 80.9198C54.0545 79.9112 54.5911 79.407 55.6011 79.407ZM74.9182 87.6197C76.0545 87.6197 76.6226 88.16 76.6226 89.2407C76.6226 89.4568 76.6226 89.6369 76.6226 89.781C77.8221 88.9165 79.0531 88.4842 80.3156 88.4842C81.7675 88.4122 82.967 88.6283 83.9139 89.1326C85.6183 89.925 86.3127 90.7535 85.9971 91.618C85.4921 92.9868 84.6083 93.239 83.3457 92.3745C82.3357 91.7261 81.1994 91.546 79.9368 91.8342C78.6743 92.0503 77.5064 92.6626 76.4333 93.6712L76.1492 104.153C76.1492 105.306 75.5495 105.882 74.35 105.882C73.4031 105.81 72.9297 105.234 72.9297 104.153L73.3084 89.1326C73.3716 88.124 73.9081 87.6197 74.9182 87.6197V87.6197ZM96.6972 91.618C95.2453 91.6901 94.1406 92.1943 93.383 93.1309C92.3099 94.5717 91.7733 96.1567 91.7733 97.8857C91.7733 99.5426 92.152 100.803 92.9096 101.668C93.7302 102.532 94.6771 102.965 95.7503 102.965C96.9497 102.965 97.9913 102.532 98.8751 101.668C99.6958 100.731 100.138 99.2544 100.201 97.2373C100.201 93.4911 99.033 91.618 96.6972 91.618V91.618ZM96.5078 88.3761C100.99 88.3761 103.231 91.4379 103.231 97.5615C103.231 100.155 102.631 102.136 101.432 103.505C100.106 105.162 98.086 105.99 95.3715 105.99C93.4146 105.918 91.7417 105.126 90.3529 103.613C89.0904 102.172 88.4591 100.155 88.4591 97.5615C88.4591 95.112 89.2166 92.9508 90.7317 91.0777C92.1836 89.2767 94.109 88.3761 96.5078 88.3761V88.3761ZM118.666 90.5374L120.559 101.668L124.252 90.5374C124.757 89.0245 125.42 88.3401 126.241 88.4842C127.44 88.6283 127.788 89.3487 127.283 90.6455L122.453 104.045C122.011 105.342 121.317 105.99 120.37 105.99C119.234 105.99 118.539 105.342 118.287 104.045L116.488 95.1841L113.268 104.045C112.826 105.342 112.132 105.99 111.185 105.99C110.049 105.99 109.354 105.342 109.102 104.045L106.45 90.6455C106.198 89.3487 106.577 88.6283 107.587 88.4842C108.597 88.2681 109.228 88.9525 109.481 90.5374L111.374 101.668L115.067 90.5374C115.572 89.0966 116.204 88.3761 116.961 88.3761C117.845 88.3761 118.413 89.0966 118.666 90.5374V90.5374ZM153.417 91.618C151.965 91.6901 150.861 92.1943 150.103 93.1309C149.03 94.5717 148.493 96.1567 148.493 97.8857C148.493 99.5426 148.872 100.803 149.63 101.668C150.45 102.532 151.397 102.965 152.471 102.965C153.67 102.965 154.712 102.532 155.595 101.668C156.416 100.731 156.858 99.2544 156.921 97.2373C156.921 93.4911 155.753 91.618 153.417 91.618V91.618ZM153.228 88.3761C157.71 88.3761 159.951 91.4379 159.951 97.5615C159.951 100.155 159.351 102.136 158.152 103.505C156.826 105.162 154.806 105.99 152.092 105.99C150.135 105.918 148.462 105.126 147.073 103.613C145.811 102.172 145.179 100.155 145.179 97.5615C145.179 95.112 145.937 92.9508 147.452 91.0777C148.904 89.2767 150.829 88.3761 153.228 88.3761V88.3761ZM176.049 106.423C174.912 106.423 174.344 105.882 174.344 104.802L174.439 103.829C173.176 104.91 171.598 105.45 169.704 105.45C165.538 105.45 163.486 103.001 163.549 98.1018L163.644 90.3213C163.644 89.0245 164.181 88.3041 165.254 88.16C166.39 88.088 166.958 88.7003 166.958 89.9971V97.0211C166.895 99.5426 167.306 101.092 168.189 101.668C169.326 102.46 170.683 102.46 172.261 101.668C173.713 100.947 174.47 99.7227 174.534 97.9937L174.723 89.889C174.786 88.7363 175.386 88.16 176.522 88.16C177.532 88.16 178.037 88.7363 178.037 89.889L177.564 104.91C177.564 105.918 177.059 106.423 176.049 106.423ZM187.696 79.407C188.832 79.407 189.4 79.9473 189.4 81.0279C189.337 83.6934 189.274 86.1789 189.211 88.4842L192.62 88.3761C193.945 88.3761 194.608 88.9165 194.608 89.9971C194.608 91.0777 193.977 91.618 192.714 91.618C191.515 91.618 190.316 91.618 189.116 91.618L188.832 104.153C188.832 105.306 188.232 105.882 187.033 105.882C186.023 105.81 185.549 105.234 185.613 104.153L185.897 91.618C184.571 91.618 183.277 91.618 182.014 91.618C181.004 91.618 180.499 91.1137 180.499 90.1051C180.499 89.0245 181.036 88.4842 182.109 88.4842C183.371 88.4842 184.666 88.4842 185.991 88.4842L186.181 80.9198C186.181 79.9112 186.686 79.407 187.696 79.407V79.407ZM214.777 114.311C213.641 114.311 213.073 113.771 213.073 112.69L213.641 89.5648C213.641 88.4122 214.241 87.8358 215.44 87.8358C216.008 87.8358 216.419 88.16 216.671 88.8084C217.239 88.3761 218.565 88.16 220.648 88.16C222.605 88.16 224.31 88.9164 225.762 90.4293C227.214 91.9422 227.94 93.6712 227.94 95.6163C227.94 98.498 227.277 100.731 225.951 102.316C224.499 104.045 222.7 104.982 220.554 105.126C218.66 105.27 217.334 104.982 216.577 104.261L216.293 112.798C216.293 113.807 215.788 114.311 214.777 114.311V114.311ZM216.861 92.2664L216.671 100.479C217.744 101.632 218.881 102.172 220.08 102.1C221.722 102.028 222.984 101.38 223.868 100.155C224.562 99.1464 224.941 97.8856 225.004 96.3728C225.004 95.004 224.562 93.8153 223.678 92.8067C222.984 91.9422 221.911 91.4019 220.459 91.1858C218.944 91.0417 217.744 91.4019 216.861 92.2664V92.2664ZM233.81 79.407C234.947 79.407 235.515 79.9473 235.515 81.0279L235.326 90.4293C236.714 89.2046 238.577 88.5923 240.912 88.5923C245.079 88.5923 247.13 91.0417 247.067 95.9405L246.973 104.045C246.973 105.342 246.436 106.026 245.363 106.098C244.227 106.17 243.658 105.558 243.658 104.261V96.5889C243.722 93.7793 242.838 92.3024 241.007 92.1583C238.987 92.0142 237.093 92.9148 235.326 94.8599L234.947 104.153C234.947 105.306 234.347 105.882 233.148 105.882C232.138 105.81 231.664 105.234 231.727 104.153L232.295 80.9198C232.295 79.9112 232.8 79.407 233.81 79.407V79.407ZM258.525 91.618C257.073 91.6901 255.968 92.1943 255.211 93.1309C254.138 94.5717 253.601 96.1567 253.601 97.8857C253.601 99.5426 253.98 100.803 254.737 101.668C255.558 102.532 256.505 102.965 257.578 102.965C258.777 102.965 259.819 102.532 260.703 101.668C261.523 100.731 261.965 99.2544 262.029 97.2373C262.029 93.4911 260.861 91.618 258.525 91.618V91.618ZM258.336 88.3761C262.881 88.3761 265.122 91.4379 265.059 97.5615C265.059 100.155 264.459 102.136 263.26 103.505C261.934 105.162 259.914 105.99 257.199 105.99C255.242 105.918 253.569 105.126 252.181 103.613C250.918 102.172 250.287 100.155 250.287 97.5615C250.287 95.112 251.044 92.9508 252.559 91.0777C254.011 89.2767 255.937 88.3761 258.336 88.3761V88.3761ZM271.024 87.6197C272.224 87.6197 272.792 88.16 272.729 89.2407C272.729 89.5288 272.729 89.853 272.729 90.2132C273.928 89.1326 275.475 88.5923 277.369 88.5923C281.535 88.5923 283.587 91.0417 283.523 95.9405L283.429 103.937C283.366 105.234 282.829 105.918 281.819 105.99C280.62 106.062 280.02 105.45 280.02 104.153L280.209 96.5889C280.272 93.6352 279.389 92.0863 277.558 91.9422C276.043 91.8702 274.402 92.6626 272.634 94.3196L272.35 104.045C272.35 105.198 271.75 105.774 270.551 105.774C269.541 105.774 269.067 105.198 269.13 104.045L269.509 89.1326C269.509 88.124 270.014 87.6197 271.024 87.6197V87.6197ZM300.189 96.697L289.016 98.2098C289.079 99.4345 289.647 100.479 290.72 101.344C291.983 102.424 293.371 102.965 294.886 102.965C297.159 102.965 298.706 102.532 299.526 101.668C300.221 100.875 300.82 100.443 301.326 100.371C301.831 100.227 302.209 100.371 302.462 100.803C302.967 101.812 302.714 102.748 301.704 103.613C299.937 105.126 297.601 105.882 294.697 105.882C292.614 105.81 290.783 105.162 289.205 103.937C287.185 102.352 286.175 100.227 286.175 97.5615C286.175 95.4002 286.806 93.4551 288.069 91.7261C289.647 89.5648 291.667 88.4122 294.129 88.2681C296.654 88.124 298.643 88.7364 300.094 90.1051C301.483 91.4019 302.146 92.8427 302.083 94.4276C302.02 95.7964 301.389 96.5529 300.189 96.697V96.697ZM289.394 95.6163L299.148 94.2115C299.021 93.275 298.516 92.5546 297.633 92.0503C296.686 91.4739 295.676 91.1858 294.602 91.1858C293.024 91.1858 291.699 91.8341 290.625 93.1309C290.12 93.7072 289.71 94.5357 289.394 95.6163ZM309.942 102.857C312.404 103.001 313.919 102.676 314.488 101.884C314.93 101.236 314.677 100.443 313.73 99.5066C313.099 98.8582 311.71 98.3899 309.564 98.1018C307.291 97.7416 305.965 96.8771 305.587 95.5083C305.334 94.4997 305.429 93.4191 305.871 92.2664C306.313 91.0417 307.007 90.1051 307.954 89.4568C309.09 88.7363 310.353 88.3041 311.742 88.16C313.383 88.016 314.803 88.232 316.003 88.8084C317.644 89.5288 318.528 90.3933 318.654 91.4019C318.78 92.0503 318.591 92.5546 318.086 92.9148C317.455 93.4191 316.476 93.0949 315.15 91.9422C314.519 91.2938 313.572 91.0057 312.31 91.0777C310.984 91.1497 310.006 91.546 309.374 92.2664C308.806 92.8427 308.648 93.4551 308.901 94.1035C309.09 94.6798 309.848 95.04 311.173 95.1841C312.247 95.3282 313.225 95.5803 314.109 95.9405C315.308 96.5169 316.16 97.0932 316.666 97.6695C317.802 98.9663 318.275 100.263 318.086 101.56C317.896 103.001 317.107 104.153 315.719 105.018C314.645 105.738 313.193 106.098 311.363 106.098C309.785 106.098 308.49 105.954 307.48 105.666C306.912 105.522 306.186 105.198 305.303 104.694C304.545 104.333 304.135 103.829 304.072 103.181C304.072 102.46 304.324 101.92 304.829 101.56C305.397 101.2 306.092 101.272 306.912 101.776C307.922 102.424 308.932 102.784 309.942 102.857V102.857ZM348.955 101.776C349.965 101.128 350.754 101.308 351.323 102.316C351.701 102.965 351.417 103.685 350.47 104.477C349.271 105.486 347.346 105.954 344.694 105.882C342.674 105.882 340.97 105.27 339.581 104.045C337.876 102.46 337.024 100.479 337.024 98.1018C337.024 95.4362 337.624 93.275 338.823 91.618C340.338 89.6008 342.201 88.5202 344.41 88.3761C345.736 88.2321 346.967 88.3401 348.103 88.7003C349.429 89.1326 350.313 89.6729 350.754 90.3213C351.449 91.3299 351.417 92.1223 350.66 92.6986C350.092 93.0589 349.271 92.8427 348.198 92.0503C346.935 91.1137 345.483 90.8976 343.842 91.4019C342.895 91.6901 342.043 92.3384 341.285 93.347C340.465 94.4997 340.054 95.8325 340.054 97.3454C339.991 98.7862 340.401 100.119 341.285 101.344C342.106 102.352 343.242 102.893 344.694 102.965C346.209 103.037 347.63 102.64 348.955 101.776V101.776ZM362.496 91.618C361.044 91.6901 359.971 92.1943 359.277 93.1309C358.14 94.5717 357.572 96.1567 357.572 97.8857C357.572 99.5426 357.983 100.803 358.803 101.668C359.624 102.532 360.571 102.965 361.644 102.965C362.843 102.965 363.853 102.532 364.674 101.668C365.558 100.731 366 99.2544 366 97.2373C366 93.4911 364.832 91.618 362.496 91.618V91.618ZM362.401 88.3761C366.884 88.3761 369.125 91.4379 369.125 97.5615C369.125 100.155 368.525 102.136 367.325 103.505C366 105.162 363.98 105.99 361.265 105.99C359.245 105.918 357.572 105.126 356.247 103.613C354.984 102.172 354.353 100.155 354.353 97.5615C354.353 95.112 355.079 92.9508 356.531 91.0777C358.046 89.2767 360.003 88.3761 362.401 88.3761V88.3761ZM375.09 87.6197C376.226 87.6197 376.795 88.16 376.795 89.2407C376.731 89.5288 376.7 89.853 376.7 90.2132C377.899 89.1326 379.446 88.5923 381.34 88.5923C385.569 88.5923 387.653 91.0417 387.589 95.9405L387.4 103.937C387.4 105.234 386.863 105.918 385.79 105.99C384.591 106.062 384.023 105.45 384.086 104.153L384.275 96.5889C384.338 93.6352 383.455 92.0863 381.624 91.9422C380.109 91.8702 378.467 92.6626 376.7 94.3196L376.416 104.045C376.353 105.198 375.721 105.774 374.522 105.774C373.575 105.774 373.102 105.198 373.102 104.045L373.48 89.1326C373.544 88.124 374.08 87.6197 375.09 87.6197V87.6197ZM396.964 79.407C398.1 79.407 398.668 79.9473 398.668 81.0279C398.605 83.6934 398.542 86.1789 398.479 88.4842L401.888 88.3761C403.214 88.3761 403.876 88.9165 403.876 89.9971C403.876 91.0777 403.245 91.618 401.983 91.618C400.783 91.618 399.584 91.618 398.384 91.618L398.1 104.153C398.1 105.306 397.5 105.882 396.301 105.882C395.291 105.81 394.818 105.234 394.881 104.153L395.165 91.618C393.839 91.618 392.513 91.618 391.188 91.618C390.241 91.618 389.767 91.1137 389.767 90.1051C389.767 89.0245 390.304 88.4842 391.377 88.4842C392.64 88.4842 393.934 88.4842 395.259 88.4842L395.449 80.9198C395.449 79.9112 395.954 79.407 396.964 79.407V79.407ZM413.156 106.098C408.232 106.098 405.739 103.541 405.675 98.426C405.612 95.04 406.749 92.4465 409.084 90.6455C411.736 88.5563 414.513 87.9439 417.417 88.8084C417.796 88.5202 418.301 88.4482 418.932 88.5923C420.258 88.8804 420.795 89.7089 420.542 91.0777C420.29 92.4465 420.132 94.7158 420.069 97.8857C420.069 100.479 420.384 102.316 421.016 103.397C421.962 104.91 421.836 105.81 420.637 106.098C419.248 106.315 418.427 105.738 418.175 104.369C415.902 105.45 414.229 106.026 413.156 106.098V106.098ZM415.145 102.857C415.523 102.712 416.218 102.244 417.228 101.452C416.849 96.841 416.912 93.6712 417.417 91.9422C416.344 91.2938 415.208 91.1137 414.008 91.4019C413.188 91.618 412.525 91.9062 412.02 92.2664C410.063 93.6352 409.021 95.5803 408.895 98.1018C408.958 101.344 410.126 103.037 412.399 103.181C413.409 103.253 414.324 103.145 415.145 102.857V102.857ZM427.455 81.136C427.455 81.136 427.486 81.136 427.549 81.136C427.928 81.136 428.275 81.244 428.591 81.4601C428.906 81.6042 429.159 81.8564 429.348 82.2166C429.475 82.5048 429.538 82.8289 429.538 83.1892C429.538 83.1892 429.538 83.2252 429.538 83.2972C429.538 83.6574 429.411 84.0176 429.159 84.3778C428.97 84.594 428.717 84.7741 428.401 84.9182C428.149 85.0622 427.833 85.1343 427.455 85.1343C427.455 85.1343 427.423 85.1343 427.36 85.1343C427.044 85.1343 426.729 85.0262 426.413 84.8101C426.16 84.666 425.939 84.4499 425.75 84.1617C425.561 83.8735 425.466 83.5494 425.466 83.1892C425.466 82.8289 425.561 82.5048 425.75 82.2166C425.876 81.8564 426.097 81.6042 426.413 81.4601C426.729 81.244 427.076 81.136 427.455 81.136V81.136ZM427.36 88.3761C428.37 88.4482 428.875 89.1686 428.875 90.5374L428.686 103.829C428.622 105.27 428.086 105.99 427.076 105.99C425.876 105.99 425.277 105.306 425.277 103.937L425.561 90.5374C425.624 89.0966 426.224 88.3761 427.36 88.3761V88.3761ZM435.977 87.6197C437.113 87.6197 437.681 88.16 437.681 89.2407C437.681 89.5288 437.681 89.853 437.681 90.2132C438.881 89.1326 440.427 88.5923 442.321 88.5923C446.488 88.5923 448.539 91.0417 448.476 95.9405L448.287 103.937C448.287 105.234 447.782 105.918 446.772 105.99C445.509 106.062 444.909 105.45 444.972 104.153L445.162 96.5889C445.225 93.6352 444.341 92.0863 442.51 91.9422C440.995 91.8702 439.354 92.6626 437.587 94.3196L437.302 104.045C437.302 105.198 436.703 105.774 435.503 105.774C434.493 105.774 433.988 105.198 433.988 104.045L434.367 89.1326C434.43 88.124 434.967 87.6197 435.977 87.6197V87.6197ZM454.82 81.136C454.883 81.136 454.915 81.136 454.915 81.136C455.294 81.136 455.641 81.244 455.957 81.4601C456.335 81.6042 456.588 81.8564 456.714 82.2166C456.904 82.5048 456.998 82.8289 456.998 83.1892C456.998 83.1892 456.998 83.2252 456.998 83.2972C456.935 83.6574 456.777 84.0176 456.525 84.3778C456.335 84.594 456.114 84.7741 455.862 84.9182C455.546 85.0622 455.231 85.1343 454.915 85.1343C454.852 85.1343 454.82 85.1343 454.82 85.1343C454.442 85.1343 454.126 85.0262 453.873 84.8101C453.558 84.666 453.305 84.4499 453.116 84.1617C452.927 83.8735 452.832 83.5494 452.832 83.1892C452.832 82.8289 452.927 82.5048 453.116 82.2166C453.305 81.8564 453.526 81.6042 453.779 81.4601C454.094 81.244 454.442 81.136 454.82 81.136V81.136ZM454.726 88.3761C455.799 88.4482 456.304 89.1686 456.241 90.5374L456.051 103.829C456.051 105.27 455.515 105.99 454.442 105.99C453.242 105.99 452.674 105.306 452.737 103.937L453.021 90.5374C453.021 89.0966 453.589 88.3761 454.726 88.3761V88.3761ZM463.343 87.6197C464.542 87.6197 465.11 88.16 465.047 89.2407C465.047 89.5288 465.047 89.853 465.047 90.2132C466.246 89.1326 467.793 88.5923 469.687 88.5923C473.853 88.5923 475.905 91.0417 475.842 95.9405L475.747 103.937C475.684 105.234 475.147 105.918 474.137 105.99C472.938 106.062 472.338 105.45 472.338 104.153L472.528 96.5889C472.654 93.6352 471.802 92.0863 469.971 91.9422C468.393 91.8702 466.72 92.6626 464.952 94.3196L464.668 104.045C464.668 105.198 464.069 105.774 462.869 105.774C461.859 105.774 461.386 105.198 461.449 104.045L461.828 89.1326C461.828 88.124 462.333 87.6197 463.343 87.6197V87.6197ZM490.235 95.5083C490.424 94.5717 490.519 93.9594 490.519 93.6712C490.456 92.3024 489.572 91.618 487.868 91.618C486.416 91.618 485.09 91.9422 483.891 92.5906C482.565 93.4551 481.776 95.112 481.523 97.5615C481.208 100.443 482.155 101.956 484.364 102.1C486.763 102.316 488.436 101.452 489.383 99.5066C489.572 99.1464 489.856 97.8136 490.235 95.5083V95.5083ZM492.508 90.2132C493.518 90.4293 493.959 91.1498 493.833 92.3745L492.602 106.206C492.034 111.97 488.846 114.635 483.038 114.203C481.018 114.059 479.661 113.843 478.967 113.555C478.146 113.195 477.83 112.582 478.02 111.718C478.272 110.781 478.904 110.457 479.914 110.745C481.997 111.177 483.764 111.285 485.216 111.069C487.678 110.637 489.067 109.016 489.383 106.206L489.572 103.505C488.625 104.946 486.7 105.522 483.796 105.234C478.935 104.802 477.168 101.452 478.493 95.1841C479.44 91.0057 482.123 88.7003 486.542 88.2681C489.572 87.9799 491.434 88.6283 492.129 90.2132C492.255 90.2132 492.381 90.2132 492.508 90.2132V90.2132ZM520.157 91.618C518.706 91.6901 517.632 92.1943 516.938 93.1309C515.802 94.5717 515.233 96.1567 515.233 97.8857C515.233 99.5426 515.644 100.803 516.465 101.668C517.285 102.532 518.232 102.965 519.305 102.965C520.505 102.965 521.515 102.532 522.335 101.668C523.219 100.731 523.661 99.2544 523.661 97.2373C523.661 93.4911 522.493 91.618 520.157 91.618V91.618ZM520.063 88.3761C524.545 88.3761 526.786 91.4379 526.786 97.5615C526.786 100.155 526.186 102.136 524.987 103.505C523.661 105.162 521.641 105.99 518.926 105.99C516.906 105.918 515.202 105.126 513.813 103.613C512.614 102.172 512.014 100.155 512.014 97.5615C512.014 95.112 512.74 92.9508 514.192 91.0777C515.644 89.2767 517.601 88.3761 520.063 88.3761V88.3761ZM530.574 88.3761C531.647 87.9439 532.436 88.4122 532.941 89.781L537.107 101.019L541.368 89.781C541.873 88.4122 542.662 87.9439 543.736 88.3761C544.683 88.8084 544.904 89.6729 544.399 90.9696L539.096 104.153C538.654 105.306 538.023 105.882 537.202 105.882C536.318 105.882 535.624 105.306 535.119 104.153L529.911 90.9696C529.406 89.6729 529.627 88.8084 530.574 88.3761ZM560.591 96.697L549.417 98.2098C549.48 99.4345 550.048 100.479 551.122 101.344C552.384 102.424 553.805 102.965 555.383 102.965C557.592 102.965 559.107 102.532 559.928 101.668C560.622 100.875 561.222 100.443 561.727 100.371C562.232 100.227 562.611 100.371 562.863 100.803C563.368 101.812 563.116 102.748 562.106 103.613C560.338 105.126 558.003 105.882 555.099 105.882C553.015 105.81 551.185 105.162 549.607 103.937C547.586 102.352 546.576 100.227 546.576 97.5615C546.576 95.4002 547.208 93.4551 548.47 91.7261C550.048 89.5648 552.068 88.4122 554.53 88.2681C557.056 88.124 559.044 88.7364 560.496 90.1051C561.885 91.4019 562.548 92.8427 562.485 94.4276C562.421 95.7964 561.79 96.5529 560.591 96.697V96.697ZM549.796 95.6163L559.644 94.2115C559.454 93.275 558.949 92.5546 558.129 92.0503C557.119 91.4739 556.077 91.1858 555.004 91.1858C553.426 91.1858 552.1 91.8341 551.027 93.1309C550.522 93.7072 550.112 94.5357 549.796 95.6163ZM567.977 87.6197C569.113 87.6197 569.681 88.16 569.681 89.2407C569.681 89.4568 569.681 89.6369 569.681 89.781C570.944 88.9165 572.175 88.4842 573.374 88.4842C574.826 88.4122 576.025 88.6283 576.972 89.1326C578.677 89.925 579.371 90.7535 579.056 91.618C578.551 92.9868 577.667 93.239 576.404 92.3745C575.394 91.7261 574.258 91.546 572.995 91.8342C571.733 92.0503 570.596 92.6626 569.586 93.6712L569.302 104.153C569.239 105.306 568.639 105.882 567.503 105.882C566.493 105.81 565.988 105.234 565.988 104.153L566.367 89.1326C566.43 88.124 566.967 87.6197 567.977 87.6197V87.6197ZM340.622 158.293L329.449 159.805C329.512 161.03 330.08 162.075 331.153 162.939C332.353 164.02 333.742 164.56 335.32 164.56C337.592 164.56 339.107 164.128 339.865 163.264C340.622 162.471 341.254 162.039 341.759 161.967C342.264 161.823 342.611 161.967 342.8 162.399C343.369 163.408 343.148 164.344 342.138 165.209C340.37 166.721 338.034 167.478 335.13 167.478C332.984 167.406 331.122 166.758 329.544 165.533C327.587 163.948 326.608 161.823 326.608 159.157C326.608 156.996 327.239 155.051 328.502 153.322C330.017 151.16 332.006 150.008 334.468 149.864C337.056 149.72 339.076 150.332 340.528 151.701C341.853 152.998 342.485 154.438 342.422 156.023C342.422 157.392 341.822 158.149 340.622 158.293V158.293ZM329.828 157.212L339.581 155.807C339.391 154.871 338.886 154.15 338.066 153.646C337.119 153.07 336.077 152.781 334.941 152.781C333.426 152.781 332.1 153.43 330.964 154.727C330.522 155.303 330.143 156.131 329.828 157.212ZM345.736 149.972C346.872 149.54 347.693 150.008 348.198 151.377L352.364 162.615L356.625 151.377C357.13 150.008 357.919 149.54 358.993 149.972C359.94 150.404 360.16 151.269 359.655 152.565L354.353 165.749C353.911 166.902 353.28 167.478 352.459 167.478C351.575 167.478 350.881 166.902 350.376 165.749L345.168 152.565C344.599 151.269 344.789 150.404 345.736 149.972ZM375.848 158.293L364.674 159.805C364.737 161.03 365.305 162.075 366.379 162.939C367.641 164.02 369.03 164.56 370.545 164.56C372.818 164.56 374.364 164.128 375.185 163.264C375.879 162.471 376.479 162.039 376.984 161.967C377.489 161.823 377.868 161.967 378.12 162.399C378.625 163.408 378.373 164.344 377.363 165.209C375.595 166.721 373.259 167.478 370.356 167.478C368.272 167.406 366.442 166.758 364.863 165.533C362.843 163.948 361.833 161.823 361.833 159.157C361.833 156.996 362.465 155.051 363.727 153.322C365.305 151.16 367.325 150.008 369.787 149.864C372.313 149.72 374.301 150.332 375.753 151.701C377.142 152.998 377.805 154.438 377.741 156.023C377.678 157.392 377.047 158.149 375.848 158.293V158.293ZM365.053 157.212L374.806 155.807C374.68 154.871 374.175 154.15 373.291 153.646C372.344 153.07 371.302 152.781 370.166 152.781C368.651 152.781 367.357 153.43 366.284 154.727C365.779 155.303 365.368 156.131 365.053 157.212V157.212ZM383.234 149.215C384.37 149.215 384.938 149.756 384.938 150.836C384.938 151.052 384.938 151.233 384.938 151.377C386.137 150.512 387.368 150.08 388.631 150.08C390.083 150.008 391.282 150.224 392.229 150.728C393.934 151.521 394.628 152.349 394.313 153.214C393.807 154.582 392.924 154.835 391.661 153.97C390.651 153.322 389.515 153.142 388.252 153.43C386.99 153.646 385.822 154.258 384.749 155.267L384.465 165.749C384.465 166.902 383.896 167.478 382.76 167.478C381.75 167.406 381.245 166.83 381.245 165.749L381.624 150.728C381.687 149.72 382.224 149.215 383.234 149.215V149.215ZM411.452 150.296C412.462 150.728 412.683 151.557 412.115 152.781L402.645 173.854C401.888 175.583 401.036 176.267 400.089 175.907C398.889 175.403 398.668 174.322 399.426 172.665L402.74 165.317L395.828 152.998C395.133 151.701 395.259 150.8 396.206 150.296C397.28 149.792 398.163 150.188 398.858 151.485L404.445 161.643L408.99 151.485C409.558 150.26 410.378 149.864 411.452 150.296ZM439.386 150.296C440.396 150.728 440.617 151.557 440.049 152.781L430.579 173.854C429.822 175.583 428.938 176.267 427.928 175.907C426.792 175.403 426.602 174.322 427.36 172.665L430.674 165.317L423.762 152.998C423.067 151.701 423.193 150.8 424.14 150.296C425.213 149.792 426.097 150.188 426.792 151.485L432.378 161.643L436.924 151.485C437.492 150.26 438.312 149.864 439.386 150.296V150.296ZM456.62 158.293L445.446 159.805C445.509 161.03 446.077 162.075 447.15 162.939C448.35 164.02 449.739 164.56 451.317 164.56C453.589 164.56 455.104 164.128 455.862 163.264C456.619 162.471 457.219 162.039 457.661 161.967C458.229 161.823 458.608 161.967 458.797 162.399C459.366 163.408 459.145 164.344 458.135 165.209C456.367 166.721 454.031 167.478 451.127 167.478C448.981 167.406 447.119 166.758 445.541 165.533C443.584 163.948 442.605 161.823 442.605 159.157C442.605 156.996 443.236 155.051 444.499 153.322C446.014 151.16 448.003 150.008 450.465 149.864C453.053 149.72 455.073 150.332 456.525 151.701C457.85 152.998 458.482 154.438 458.419 156.023C458.419 157.392 457.819 158.149 456.62 158.293ZM445.825 157.212L455.578 155.807C455.389 154.871 454.883 154.15 454.063 153.646C453.053 153.07 452.011 152.781 450.938 152.781C449.423 152.781 448.097 153.43 446.961 154.727C446.519 155.303 446.14 156.131 445.825 157.212ZM468.172 167.694C463.185 167.694 460.691 165.137 460.691 160.022C460.628 156.636 461.764 154.042 464.1 152.241C466.751 150.152 469.529 149.54 472.433 150.404C472.749 150.116 473.254 150.044 473.948 150.188C475.274 150.476 475.81 151.305 475.558 152.673C475.305 154.042 475.147 156.311 475.084 159.481C475.021 162.075 475.305 163.912 475.937 164.992C476.883 166.505 476.757 167.406 475.558 167.694C474.169 167.91 473.38 167.334 473.191 165.965C470.855 167.046 469.182 167.622 468.172 167.694V167.694ZM470.066 164.452C470.508 164.308 471.202 163.84 472.149 163.047C471.77 158.437 471.833 155.267 472.338 153.538C471.265 152.89 470.129 152.709 468.929 152.998C468.109 153.214 467.477 153.502 467.036 153.862C465.015 155.231 463.974 157.176 463.911 159.697C463.911 162.939 465.079 164.632 467.414 164.776C468.361 164.848 469.245 164.74 470.066 164.452V164.452ZM481.429 149.215C482.565 149.215 483.133 149.756 483.133 150.836C483.133 151.052 483.133 151.233 483.133 151.377C484.333 150.512 485.532 150.08 486.731 150.08C488.246 150.008 489.477 150.224 490.424 150.728C492.129 151.521 492.823 152.349 492.508 153.214C492.003 154.582 491.119 154.835 489.856 153.97C488.846 153.322 487.71 153.142 486.447 153.43C485.185 153.646 484.017 154.258 482.944 155.267L482.66 165.749C482.66 166.902 482.06 167.478 480.861 167.478C479.914 167.406 479.44 166.83 479.44 165.749L479.819 150.728C479.819 149.72 480.356 149.215 481.429 149.215V149.215Z" fill="#E4F4ED"/>
</g>
<g filter="url(#filter2_d_51_3902)">
<path d="M606.798 78C607.744 78 608.218 78.3956 608.218 79.1868V81.7763C608.344 81.7763 608.439 81.7763 608.502 81.7763C610.206 81.7763 612.099 82.2438 614.182 83.1789C614.876 83.4666 615.223 83.9701 615.223 84.6894C615.223 85.121 614.876 85.4806 614.182 85.7684C613.614 85.9841 612.888 85.9122 612.004 85.5526C610.616 85.0491 609.354 84.7973 608.218 84.7973C608.218 87.2429 608.218 89.7245 608.218 92.242C608.596 92.242 608.943 92.242 609.259 92.242C611.847 92.5297 613.614 93.1052 614.56 93.9683C615.949 95.4069 616.58 96.9534 616.454 98.6078C616.327 101.269 614.876 103.355 612.099 104.866C611.026 105.513 609.732 105.945 608.218 106.16L608.312 109.397C608.312 110.548 607.807 111.123 606.798 111.123C605.851 111.123 605.378 110.512 605.378 109.289C605.378 108.354 605.378 107.383 605.378 106.376C603.358 106.448 601.686 106.196 600.36 105.621C599.477 105.261 598.719 104.83 598.088 104.326C597.205 103.535 596.826 102.744 596.952 101.952C597.015 101.233 597.331 100.766 597.899 100.55C598.656 100.262 599.477 100.586 600.36 101.521C601.055 102.168 601.812 102.672 602.632 103.031C603.579 103.319 604.494 103.463 605.378 103.463V95.2631C601.528 95.1911 599.224 93.7166 598.467 90.8394C598.025 89.185 598.309 87.5666 599.319 85.9842C600.013 84.7614 601.339 83.7184 603.295 82.8552C603.926 82.5675 604.589 82.3517 605.283 82.2079C605.283 81.2009 605.283 80.1939 605.283 79.1868C605.283 78.3956 605.788 78 606.798 78V78ZM608.218 95.371V103.139C609.669 102.78 610.679 102.312 611.247 101.737C612.762 100.37 613.298 98.9674 612.856 97.5288C612.478 96.306 610.931 95.5867 608.218 95.371V95.371ZM604.242 91.9183L605.378 92.0262L605.283 85.2289C604.652 85.4447 604.084 85.7324 603.579 86.0921C602.569 86.8833 602.001 87.7464 601.875 88.6815C601.686 90.6236 602.475 91.7025 604.242 91.9183V91.9183ZM624.406 86.6315C625.983 84.4017 628.066 82.6754 630.654 81.4526C631.979 80.8052 632.862 81.021 633.304 82.1C633.557 82.8193 633.02 83.5386 631.695 84.2578C630.37 85.0491 629.265 85.9122 628.382 86.8473C627.309 87.8543 626.33 89.3289 625.447 91.271C626.204 90.5517 627.687 90.192 629.896 90.192C635.071 90.192 637.659 92.8175 637.659 98.0683C637.659 103.463 634.693 106.196 628.76 106.268C624.09 106.268 621.629 103.751 621.376 98.7157C621.187 93.7525 622.197 89.7245 624.406 86.6315V86.6315ZM629.518 93.4288C626.173 93.4288 624.5 95.0832 624.5 98.392C624.5 101.773 625.92 103.463 628.76 103.463C632.61 103.463 634.535 101.737 634.535 98.2841C634.535 95.0473 632.862 93.4288 629.518 93.4288V93.4288ZM650.818 84.1499C646.526 84.1499 644.38 87.2429 644.38 93.4288C644.38 99.9744 646.368 103.247 650.344 103.247C654.32 103.247 656.308 99.9025 656.308 93.2131C656.308 87.171 654.478 84.1499 650.818 84.1499V84.1499ZM650.723 81.1289C656.718 81.1289 659.716 85.157 659.716 93.2131C659.716 101.845 656.592 106.16 650.344 106.16C644.159 106.16 641.067 101.952 641.067 93.5367C641.067 85.2649 644.286 81.1289 650.723 81.1289V81.1289ZM680.164 87.9262C681.3 87.9262 681.868 88.4657 681.868 89.5447V90.192C682.878 89.3289 684.077 88.8973 685.465 88.8973C687.801 88.8254 689.378 89.6166 690.199 91.271C691.272 89.6885 692.944 88.8973 695.216 88.8973C699.445 88.8973 701.527 91.3069 701.464 96.1262L701.275 104.11C701.275 105.405 700.77 106.088 699.76 106.16C698.561 106.232 697.961 105.657 697.961 104.434L698.056 96.9894C698.119 93.8245 697.267 92.242 695.5 92.242C693.481 92.1701 692.092 93.0692 691.335 94.9394C691.335 94.9394 691.303 95.2631 691.24 95.9104L691.051 103.895C691.051 105.189 690.514 105.873 689.442 105.945C688.306 106.017 687.769 105.405 687.832 104.11L688.022 96.7736C688.085 93.7525 687.264 92.242 685.56 92.242C683.604 92.1701 682.341 93.2131 681.773 95.371L681.489 104.218C681.426 105.369 680.827 105.945 679.691 105.945C678.681 105.945 678.208 105.369 678.271 104.218L678.649 89.4368C678.649 88.4298 679.154 87.9262 680.164 87.9262V87.9262ZM707.996 81.4526C707.996 81.4526 708.028 81.4526 708.091 81.4526C708.469 81.4526 708.817 81.5245 709.132 81.6684C709.448 81.8842 709.7 82.1719 709.889 82.5315C710.016 82.8193 710.079 83.107 710.079 83.3947C710.079 83.4666 710.079 83.5385 710.079 83.6105C710.079 83.9701 709.953 84.2938 709.7 84.5815C709.511 84.8693 709.258 85.085 708.943 85.2289C708.69 85.3727 708.375 85.4447 707.996 85.4447C707.996 85.4447 707.965 85.4447 707.901 85.4447C707.586 85.3728 707.27 85.2649 706.955 85.121C706.702 84.9772 706.481 84.7614 706.292 84.4736C706.103 84.114 706.008 83.7544 706.008 83.3947C706.008 83.0351 706.071 82.7114 706.197 82.4237C706.387 82.1359 706.639 81.8842 706.955 81.6684C707.27 81.5245 707.617 81.4526 707.996 81.4526V81.4526ZM707.901 88.6815C708.911 88.6815 709.416 89.3648 709.416 90.7315L709.227 104.002C709.164 105.441 708.627 106.16 707.617 106.16C706.418 106.16 705.819 105.513 705.819 104.218L706.103 90.7315C706.166 89.3648 706.765 88.6815 707.901 88.6815V88.6815ZM717.368 79.7263C718.504 79.7263 719.072 80.2298 719.072 81.2368L718.504 104.434C718.504 105.585 717.905 106.124 716.705 106.052C715.696 106.052 715.222 105.477 715.285 104.326L715.853 81.1289C715.853 80.1938 716.358 79.7263 717.368 79.7263V79.7263ZM726.645 79.7263C727.845 79.7263 728.413 80.2298 728.349 81.2368L727.876 104.434C727.876 105.585 727.277 106.124 726.077 106.052C725.068 106.052 724.563 105.477 724.563 104.326L725.131 81.1289C725.194 80.1938 725.699 79.7263 726.645 79.7263V79.7263ZM736.207 81.4526C736.207 81.4526 736.238 81.4526 736.301 81.4526C736.68 81.4526 737.027 81.5245 737.343 81.6684C737.658 81.8842 737.911 82.1719 738.1 82.5315C738.289 82.8193 738.384 83.107 738.384 83.3947C738.384 83.4666 738.384 83.5385 738.384 83.6105C738.321 83.9701 738.163 84.2938 737.911 84.5815C737.721 84.8693 737.469 85.085 737.153 85.2289C736.901 85.3727 736.617 85.4447 736.301 85.4447C736.238 85.4447 736.207 85.4447 736.207 85.4447C735.828 85.3728 735.512 85.2649 735.26 85.121C734.944 84.9772 734.692 84.7614 734.503 84.4736C734.313 84.114 734.219 83.7544 734.219 83.3947C734.219 83.0351 734.313 82.7114 734.503 82.4237C734.692 82.1359 734.913 81.8842 735.165 81.6684C735.481 81.5245 735.828 81.4526 736.207 81.4526V81.4526ZM736.112 88.6815C737.185 88.6815 737.69 89.3648 737.627 90.7315L737.437 104.002C737.374 105.441 736.838 106.16 735.828 106.16C734.629 106.16 734.061 105.513 734.124 104.218L734.408 90.7315C734.408 89.3648 734.976 88.6815 736.112 88.6815V88.6815ZM750.123 91.9183C748.671 91.9183 747.598 92.3859 746.904 93.3209C745.768 94.7595 745.2 96.3779 745.2 98.1762C745.2 99.8306 745.61 101.053 746.431 101.845C747.251 102.708 748.198 103.139 749.271 103.139C750.47 103.139 751.48 102.708 752.3 101.845C753.184 100.981 753.625 99.5429 753.625 97.5288C753.625 93.7166 752.458 91.8464 750.123 91.9183ZM750.028 88.6815C754.509 88.6815 756.749 91.7385 756.749 97.8525C756.749 100.442 756.15 102.42 754.951 103.787C753.625 105.441 751.574 106.232 748.797 106.16C746.841 106.16 745.168 105.369 743.78 103.787C742.581 102.42 741.981 100.442 741.981 97.8525C741.981 95.4069 742.707 93.249 744.159 91.3789C745.61 89.5087 747.567 88.6096 750.028 88.6815V88.6815ZM762.619 87.9262C763.818 87.9262 764.386 88.4657 764.323 89.5447C764.323 89.8324 764.323 90.1201 764.323 90.4078C765.522 89.4008 767.068 88.8973 768.961 88.8973C773.19 88.8973 775.241 91.3069 775.115 96.1262L775.02 104.11C775.02 105.405 774.484 106.088 773.411 106.16C772.212 106.304 771.612 105.729 771.612 104.434L771.801 96.8815C771.928 93.9324 771.076 92.3859 769.245 92.242C767.668 92.1701 765.995 92.9613 764.228 94.6157L763.944 104.326C763.944 105.477 763.344 106.052 762.145 106.052C761.136 105.981 760.662 105.369 760.725 104.218L761.104 89.4368C761.104 88.4298 761.609 87.9262 762.619 87.9262ZM796.983 81.4526C797.046 81.4526 797.077 81.4526 797.077 81.4526C797.456 81.4526 797.803 81.5245 798.119 81.6684C798.434 81.8842 798.687 82.1719 798.876 82.5315C799.065 82.8193 799.16 83.107 799.16 83.3947C799.16 83.4666 799.16 83.5385 799.16 83.6105C799.097 83.9701 798.939 84.2938 798.687 84.5815C798.497 84.8693 798.276 85.085 798.024 85.2289C797.708 85.3727 797.393 85.4447 797.077 85.4447C797.014 85.4447 796.983 85.4447 796.983 85.4447C796.604 85.3728 796.288 85.2649 796.036 85.121C795.72 84.9772 795.468 84.7614 795.279 84.4736C795.089 84.114 794.995 83.7544 794.995 83.3947C794.995 83.0351 795.089 82.7114 795.279 82.4237C795.468 82.1359 795.689 81.8842 795.941 81.6684C796.257 81.5245 796.604 81.4526 796.983 81.4526ZM796.888 88.6815C797.961 88.6815 798.466 89.3648 798.403 90.7315L798.213 104.002C798.15 105.441 797.614 106.16 796.604 106.16C795.405 106.16 794.837 105.513 794.9 104.218L795.184 90.7315C795.184 89.3648 795.752 88.6815 796.888 88.6815V88.6815ZM805.503 87.9262C806.702 87.9262 807.27 88.4657 807.207 89.5447C807.207 89.8324 807.207 90.1201 807.207 90.4078C808.406 89.4008 809.952 88.8973 811.845 88.8973C816.011 88.8973 818.062 91.3069 817.999 96.1262L817.904 104.11C817.841 105.405 817.304 106.088 816.295 106.16C815.096 106.304 814.496 105.729 814.496 104.434L814.685 96.8815C814.748 93.9324 813.865 92.3859 812.035 92.242C810.52 92.1701 808.879 92.9613 807.112 94.6157L806.828 104.326C806.828 105.477 806.228 106.052 805.029 106.052C804.02 105.981 803.546 105.369 803.609 104.218L803.988 89.4368C803.988 88.4298 804.493 87.9262 805.503 87.9262ZM48.2652 157.302C48.4546 156.295 48.5177 155.648 48.4546 155.36C48.4546 153.993 47.6026 153.31 45.8986 153.31C44.447 153.31 43.1217 153.67 41.9226 154.389C40.5972 155.18 39.8084 156.835 39.5559 159.352C39.2404 162.157 40.187 163.668 42.3959 163.884C44.7941 164.1 46.4666 163.2 47.4132 161.186C47.6026 160.827 47.8866 159.532 48.2652 157.302V157.302ZM50.5372 152.015C51.547 152.159 51.9888 152.879 51.8626 154.173L50.6319 167.984C50.0639 173.666 46.8768 176.328 41.0706 175.968C39.051 175.824 37.6941 175.572 36.9999 175.213C36.1795 174.853 35.8639 174.277 36.0532 173.486C36.3057 172.551 36.9368 172.192 37.9466 172.407C40.0292 172.911 41.7963 173.055 43.2479 172.839C45.7092 172.407 47.0661 170.753 47.3186 167.876L47.6026 165.286C46.6559 166.725 44.731 167.3 41.8279 167.013C36.9684 166.581 35.2013 163.236 36.5266 156.978C37.4732 152.807 40.1555 150.505 44.5732 150.073C47.6026 149.786 49.4643 150.433 50.1586 152.015C50.2848 152.015 50.411 152.015 50.5372 152.015V152.015ZM62.7492 153.418C61.2976 153.418 60.1932 153.886 59.4359 154.821C58.363 156.259 57.8265 157.878 57.8265 159.676C57.8265 161.33 58.2052 162.553 58.9625 163.344C59.783 164.207 60.7296 164.639 61.8025 164.639C63.0016 164.639 64.043 164.207 64.9265 163.344C65.747 162.481 66.1888 161.043 66.2519 159.028C66.2519 155.216 65.0843 153.346 62.7492 153.418V153.418ZM62.5599 150.181C67.1039 150.181 69.3443 153.238 69.2812 159.352C69.2812 161.942 68.6816 163.92 67.4825 165.286C66.1572 166.941 64.1376 167.732 61.4239 167.66C59.4674 167.66 57.795 166.869 56.4065 165.286C55.1443 163.92 54.5132 161.942 54.5132 159.352C54.5132 156.907 55.2706 154.749 56.7852 152.879C58.2368 151.008 60.1617 150.109 62.5599 150.181V150.181ZM76.0972 141.226C77.2332 141.226 77.8012 141.729 77.8012 142.736L77.2332 165.934C77.2332 167.085 76.6336 167.624 75.4345 167.552C74.4247 167.552 73.9514 166.977 74.0145 165.826L74.5825 142.629C74.5825 141.693 75.0874 141.226 76.0972 141.226V141.226ZM97.1131 141.226C98.2491 141.226 98.8171 141.729 98.8171 142.736L98.2491 165.934C98.2491 167.085 97.6496 167.624 96.4505 167.552C95.5669 167.552 95.0936 167.121 95.0305 166.257C93.3896 167.264 91.6225 167.732 89.7292 167.66C87.8358 167.66 86.1634 166.977 84.7118 165.61C83.071 164.028 82.1874 162.193 82.0612 160.107C81.9981 157.23 82.7554 154.857 84.3332 152.986C85.9109 151.116 87.9305 150.181 90.3918 150.181C91.7172 150.181 92.8847 150.469 93.8945 151.044C94.3994 151.332 94.8727 151.62 95.3145 151.907L95.5985 142.629C95.5985 141.693 96.1034 141.226 97.1131 141.226V141.226ZM95.0305 162.589C95.1567 160.359 95.2198 158.021 95.2198 155.576C93.2634 153.634 91.3385 152.879 89.4452 153.31C88.0567 153.67 87.0469 154.209 86.4158 154.929C85.5323 155.936 85.0589 157.41 84.9958 159.352C84.9958 160.575 85.4692 161.762 86.4158 162.913C87.1732 163.848 88.2776 164.423 89.7292 164.639C91.3069 164.783 93.074 164.1 95.0305 162.589ZM118.981 167.768C113.995 167.768 111.502 165.214 111.502 160.107C111.439 156.799 112.575 154.245 114.91 152.447C117.561 150.289 120.338 149.678 123.241 150.613C123.62 150.325 124.125 150.253 124.756 150.397C126.081 150.685 126.618 151.512 126.365 152.879C126.113 154.173 125.955 156.439 125.892 159.676C125.892 162.265 126.207 164.064 126.838 165.071C127.785 166.653 127.659 167.552 126.46 167.768C125.071 168.056 124.251 167.516 123.998 166.149C121.726 167.228 120.054 167.768 118.981 167.768V167.768ZM120.969 164.639C121.348 164.495 122.042 164.028 123.052 163.236C122.61 158.633 122.673 155.468 123.241 153.742C122.105 153.094 120.969 152.914 119.833 153.202C119.013 153.418 118.35 153.67 117.845 153.957C115.889 155.396 114.847 157.338 114.721 159.784C114.784 163.093 115.952 164.819 118.224 164.963C119.17 165.035 120.086 164.927 120.969 164.639V164.639ZM132.234 149.426C133.37 149.426 133.938 149.965 133.938 151.044C133.938 151.332 133.938 151.62 133.938 151.907C135.138 150.9 136.684 150.397 138.577 150.397C142.742 150.397 144.794 152.807 144.73 157.626L144.541 165.61C144.541 166.905 144.036 167.588 143.026 167.66C141.764 167.804 141.165 167.228 141.228 165.934L141.417 158.381C141.48 155.432 140.597 153.886 138.766 153.742C137.252 153.67 135.611 154.461 133.844 156.115L133.56 165.826C133.56 166.977 132.96 167.552 131.761 167.552C130.751 167.48 130.246 166.869 130.246 165.718L130.625 150.936C130.688 149.929 131.225 149.426 132.234 149.426ZM162.622 141.226C163.758 141.226 164.326 141.729 164.326 142.736L163.758 165.934C163.758 167.085 163.159 167.624 161.96 167.552C161.076 167.552 160.603 167.121 160.54 166.257C158.899 167.264 157.132 167.732 155.238 167.66C153.345 167.66 151.641 166.977 150.126 165.61C148.486 164.028 147.634 162.193 147.57 160.107C147.444 157.23 148.202 154.857 149.842 152.986C151.42 151.116 153.44 150.181 155.901 150.181C157.226 150.181 158.394 150.469 159.404 151.044C159.909 151.332 160.382 151.62 160.824 151.907L161.013 142.629C161.076 141.693 161.613 141.226 162.622 141.226V141.226ZM160.54 162.589C160.666 160.359 160.729 158.021 160.729 155.576C158.773 153.634 156.848 152.879 154.954 153.31C153.566 153.67 152.556 154.209 151.925 154.929C151.041 155.936 150.568 157.41 150.505 159.352C150.505 160.575 150.978 161.762 151.925 162.913C152.682 163.848 153.787 164.423 155.238 164.639C156.816 164.783 158.583 164.1 160.54 162.589ZM181.366 141.226C182.124 141.586 182.345 142.125 182.029 142.844L170.196 167.444C169.817 168.307 169.154 168.559 168.208 168.199C167.324 167.768 167.103 167.121 167.545 166.257L179.568 141.657C179.946 140.938 180.546 140.794 181.366 141.226V141.226ZM192.916 153.418C191.464 153.418 190.391 153.886 189.697 154.821C188.561 156.259 187.993 157.878 187.993 159.676C187.993 161.33 188.403 162.553 189.224 163.344C190.044 164.207 190.991 164.639 192.064 164.639C193.263 164.639 194.273 164.207 195.093 163.344C195.977 162.481 196.418 161.043 196.418 159.028C196.418 155.216 195.251 153.346 192.916 153.418V153.418ZM192.821 150.181C197.302 150.181 199.542 153.238 199.542 159.352C199.542 161.942 198.943 163.92 197.744 165.286C196.418 166.941 194.367 167.732 191.59 167.66C189.634 167.66 187.961 166.869 186.573 165.286C185.374 163.92 184.774 161.942 184.774 159.352C184.774 156.907 185.5 154.749 186.952 152.879C188.403 151.008 190.36 150.109 192.821 150.181V150.181ZM205.412 149.426C206.548 149.426 207.116 149.965 207.116 151.044C207.116 151.188 207.116 151.368 207.116 151.584C208.378 150.721 209.609 150.253 210.808 150.181C212.322 150.181 213.553 150.397 214.5 150.828C216.14 151.692 216.835 152.555 216.582 153.418C216.077 154.785 215.194 155.036 213.932 154.173C212.922 153.526 211.786 153.31 210.524 153.526C209.261 153.814 208.094 154.425 207.021 155.36L206.737 165.934C206.737 167.085 206.137 167.624 204.938 167.552C203.929 167.552 203.455 166.977 203.518 165.826L203.897 150.936C203.897 149.929 204.402 149.426 205.412 149.426V149.426ZM234.38 164.639C236.841 164.783 238.356 164.459 238.924 163.668C239.365 163.021 239.113 162.193 238.166 161.186C237.598 160.611 236.21 160.179 234.001 159.892C231.729 159.532 230.404 158.669 230.025 157.302C229.772 156.223 229.867 155.144 230.309 154.065C230.814 152.843 231.508 151.907 232.392 151.26C233.528 150.469 234.821 150.037 236.273 149.965C237.851 149.822 239.271 150.037 240.533 150.613C242.111 151.332 242.963 152.195 243.089 153.202C243.215 153.778 243.026 154.281 242.521 154.713C241.89 155.216 240.912 154.857 239.586 153.634C238.955 153.058 238.008 152.807 236.746 152.879C235.421 152.879 234.443 153.238 233.812 153.957C233.244 154.605 233.086 155.252 233.338 155.9C233.528 156.475 234.285 156.835 235.61 156.978C236.683 157.122 237.661 157.374 238.545 157.734C239.744 158.309 240.596 158.849 241.101 159.352C242.237 160.647 242.71 161.978 242.521 163.344C242.332 164.711 241.574 165.862 240.249 166.797C239.113 167.444 237.63 167.804 235.8 167.876C234.222 167.876 232.96 167.732 232.013 167.444C231.382 167.3 230.656 166.977 229.836 166.473C229.015 166.042 228.573 165.502 228.51 164.855C228.51 164.207 228.763 163.704 229.268 163.344C229.899 162.985 230.593 163.057 231.35 163.56C232.36 164.207 233.37 164.567 234.38 164.639V164.639ZM249.621 142.952C249.684 142.952 249.716 142.952 249.716 142.952C250.094 142.952 250.441 143.024 250.757 143.168C251.072 143.384 251.325 143.672 251.514 144.031C251.704 144.319 251.798 144.607 251.798 144.894C251.798 144.966 251.798 145.038 251.798 145.11C251.735 145.47 251.577 145.793 251.325 146.081C251.136 146.369 250.915 146.585 250.662 146.729C250.347 146.872 250.031 146.944 249.716 146.944C249.652 146.944 249.621 146.944 249.621 146.944C249.242 146.872 248.927 146.765 248.674 146.621C248.359 146.477 248.106 146.261 247.917 145.973C247.728 145.614 247.633 145.254 247.633 144.894C247.633 144.535 247.728 144.211 247.917 143.923C248.106 143.636 248.327 143.384 248.58 143.168C248.895 143.024 249.242 142.952 249.621 142.952V142.952ZM249.526 150.181C250.599 150.181 251.104 150.865 251.041 152.231L250.852 165.502C250.852 166.941 250.315 167.66 249.242 167.66C248.043 167.66 247.475 167.013 247.538 165.718L247.822 152.231C247.822 150.865 248.39 150.181 249.526 150.181V150.181ZM258.993 141.226C260.129 141.226 260.697 141.729 260.697 142.736L260.224 165.934C260.16 167.085 259.529 167.624 258.33 167.552C257.384 167.552 256.91 166.977 256.91 165.826L257.478 142.629C257.478 141.693 257.983 141.226 258.993 141.226V141.226ZM265.336 150.181C266.408 149.75 267.197 150.217 267.702 151.584L271.962 162.697L276.128 151.584C276.632 150.217 277.453 149.75 278.589 150.181C279.536 150.541 279.725 151.404 279.157 152.771L273.95 165.934C273.445 167.085 272.783 167.66 271.962 167.66C271.079 167.66 270.416 167.085 269.974 165.934L264.673 152.771C264.168 151.404 264.389 150.541 265.336 150.181V150.181ZM295.439 158.489L284.269 160C284.269 161.222 284.805 162.265 285.878 163.128C287.14 164.207 288.56 164.747 290.138 164.747C292.41 164.675 293.925 164.243 294.682 163.452C295.439 162.661 296.039 162.193 296.481 162.05C297.049 161.978 297.427 162.157 297.617 162.589C298.122 163.596 297.869 164.531 296.859 165.394C295.092 166.905 292.789 167.624 289.949 167.552C287.803 167.552 285.941 166.941 284.363 165.718C282.407 164.135 281.429 162.014 281.429 159.352C281.429 157.122 282.028 155.18 283.227 153.526C284.805 151.368 286.825 150.217 289.286 150.073C291.874 149.929 293.862 150.541 295.25 151.907C296.639 153.13 297.301 154.569 297.238 156.223C297.175 157.518 296.575 158.273 295.439 158.489V158.489ZM284.553 157.302L294.398 156.007C294.209 155.072 293.704 154.353 292.883 153.85C291.874 153.202 290.832 152.879 289.759 152.879C288.245 152.879 286.919 153.562 285.783 154.929C285.279 155.504 284.868 156.295 284.553 157.302V157.302ZM302.729 149.426C303.865 149.426 304.433 149.965 304.433 151.044C304.433 151.188 304.433 151.368 304.433 151.584C305.695 150.721 306.926 150.253 308.125 150.181C309.576 150.181 310.775 150.397 311.722 150.828C313.426 151.692 314.12 152.555 313.805 153.418C313.363 154.785 312.479 155.036 311.154 154.173C310.207 153.526 309.071 153.31 307.746 153.526C306.484 153.814 305.348 154.425 304.338 155.36L304.054 165.934C303.991 167.085 303.391 167.624 302.255 167.552C301.246 167.552 300.772 166.977 300.835 165.826L301.214 150.936C301.214 149.929 301.719 149.426 302.729 149.426V149.426Z" fill="#FBF48E"/>
</g>
<defs>
<filter id="filter0_d_51_3902" x="0" y="0" width="893" height="217" filterUnits="userSpaceOnUse" color-interpolation-filters="sRGB">
<feFlood flood-opacity="0" result="BackgroundImageFix"/>
<feColorMatrix in="SourceAlpha" type="matrix" values="0 0 0 0 0 0 0 0 0 0 0 0 0 0 0 0 0 0 127 0" result="hardAlpha"/>
<feMorphology radius="1" operator="dilate" in="SourceAlpha" result="effect1_dropShadow_51_3902"/>
<feOffset dx="12" dy="12"/>
<feGaussianBlur stdDeviation="5"/>
<feComposite in2="hardAlpha" operator="out"/>
<feColorMatrix type="matrix" values="0 0 0 0 0 0 0 0 0 0 0 0 0 0 0 0 0 0 0.25 0"/>
<feBlend mode="normal" in2="BackgroundImageFix" result="effect1_dropShadow_51_3902"/>
<feBlend mode="normal" in="SourceGraphic" in2="effect1_dropShadow_51_3902" result="shape"/>
</filter>
<filter id="filter1_d_51_3902" x="32" y="19" width="790" height="165" filterUnits="userSpaceOnUse" color-interpolation-filters="sRGB">
<feFlood flood-opacity="0" result="BackgroundImageFix"/>
<feColorMatrix in="SourceAlpha" type="matrix" values="0 0 0 0 0 0 0 0 0 0 0 0 0 0 0 0 0 0 127 0" result="hardAlpha"/>
<feOffset dy="4"/>
<feGaussianBlur stdDeviation="2"/>
<feComposite in2="hardAlpha" operator="out"/>
<feColorMatrix type="matrix" values="0 0 0 0 0 0 0 0 0 0 0 0 0 0 0 0 0 0 0.25 0"/>
<feBlend mode="normal" in2="BackgroundImageFix" result="effect1_dropShadow_51_3902"/>
<feBlend mode="normal" in="SourceGraphic" in2="effect1_dropShadow_51_3902" result="shape"/>
</filter>
<filter id="filter2_d_51_3902" x="32" y="78" width="790" height="106" filterUnits="userSpaceOnUse" color-interpolation-filters="sRGB">
<feFlood flood-opacity="0" result="BackgroundImageFix"/>
<feColorMatrix in="SourceAlpha" type="matrix" values="0 0 0 0 0 0 0 0 0 0 0 0 0 0 0 0 0 0 127 0" result="hardAlpha"/>
<feOffset dy="4"/>
<feGaussianBlur stdDeviation="2"/>
<feComposite in2="hardAlpha" operator="out"/>
<feColorMatrix type="matrix" values="0 0 0 0 0 0 0 0 0 0 0 0 0 0 0 0 0 0 0.25 0"/>
<feBlend mode="normal" in2="BackgroundImageFix" result="effect1_dropShadow_51_3902"/>
<feBlend mode="normal" in="SourceGraphic" in2="effect1_dropShadow_51_3902" result="shape"/>
</filter>
</defs>
</svg>
