<svg width="106" height="75" viewBox="0 0 106 75" fill="none" xmlns="http://www.w3.org/2000/svg">
<path d="M33.203 62.6516C23.7715 60.4381 16.5535 54.375 12.319 45.7134C8.08445 37.3406 7.12203 27.909 6.64083 18.5738C6.44835 13.9543 6.54457 7.50623 4.33105 2.88672C12.2227 5.67767 20.7881 6.64006 28.6798 9.43101C38.3037 12.7994 47.4465 18.1889 53.4133 26.5617C59.4764 35.2233 59.9577 43.8849 57.9367 53.9901C57.8083 54.8241 57.6479 55.6582 57.4555 56.4923C55.1457 52.6427 51.4886 49.0818 48.4089 46.0984C50.5262 43.4037 51.5848 40.1315 51.6811 36.7631C51.7773 34.0684 51.4886 29.6414 48.9863 28.0053C48.5051 27.7166 47.9277 28.1015 47.8315 28.679C47.7353 29.9301 48.409 31.085 48.6977 32.3361C49.0826 33.7476 49.2751 35.1912 49.2751 36.6669C49.2751 39.5541 48.4089 42.3451 47.1577 44.8473C46.5803 44.2698 46.035 43.7245 45.5217 43.2112C40.6456 38.2709 35.7373 33.3627 30.797 28.4865C30.8932 28.3903 30.9895 28.3903 30.9895 28.294C31.182 28.0053 31.2782 27.9091 31.2782 27.6203C31.2782 27.492 31.2461 27.4279 31.182 27.4279C31.182 26.7542 31.8557 25.5031 31.9519 25.1181C32.1444 24.1557 32.2407 23.2896 32.3369 22.3272C32.3369 20.7873 32.4331 18.3813 31.182 17.2265C30.7008 16.8415 30.0271 17.034 29.8346 17.6114C29.4496 18.4775 29.6421 19.3437 29.7384 20.2099C29.8025 21.1723 29.8025 22.1668 29.7384 23.1933C29.6421 24.1557 29.0648 25.5031 28.9685 26.658C26.6588 24.3482 24.3169 22.0064 21.943 19.6325C22.0392 19.6325 22.0392 19.6325 22.0392 19.6325C23.2903 18.3813 24.5414 15.013 22.6166 13.8581C22.3279 13.6656 21.943 13.8581 21.8468 14.1468C21.6543 14.8205 21.943 15.5904 21.8468 16.3603C21.8468 17.2264 21.558 18.0926 21.173 18.8626C19.954 17.6435 18.735 16.4244 17.516 15.2054C16.9385 14.628 15.9761 15.4941 16.5536 16.1678C18.2859 18.0284 19.9861 19.8891 21.6542 21.7497C21.173 21.6535 20.6919 21.6535 20.3069 21.6535C18.8634 21.461 16.6498 21.3648 15.6874 22.6159C15.4949 23.0008 15.6874 23.3858 15.9762 23.5783C17.0348 24.3482 18.9595 23.867 20.2106 23.9632C21.173 23.9632 22.6167 24.4444 23.6753 23.9632C27.5891 28.3261 31.5348 32.6569 35.5128 36.9556C33.2992 36.6669 31.0858 36.6669 29.0647 36.1857C25.7926 35.4158 22.4242 33.106 19.152 33.106C18.4783 33.106 17.8046 33.8759 18.2858 34.4533C20.1144 37.4368 24.9264 38.5917 28.1986 39.2653C30.9895 39.939 34.9353 40.709 37.8225 39.6503C38.5283 40.3561 39.2019 41.0618 39.8435 41.7676C43.3082 45.6172 46.9654 49.2743 50.1413 53.3164C50.43 53.7013 50.7186 54.0863 50.9111 54.4713C48.6976 54.5675 46.4841 54.76 44.2705 54.76C41.1909 54.76 37.5338 53.7976 34.4541 54.5675C33.588 54.8562 33.4917 55.9149 34.1654 56.3961C36.9563 58.3209 41.4796 57.9359 44.7517 57.8397C47.3502 57.7434 49.9488 57.5509 52.5473 56.8773C53.7984 59.0908 54.857 61.3043 56.0119 63.614C48.3127 63.3253 40.8059 64.384 33.203 62.6516V62.6516Z" fill="#B5CD4C"/>
<path fill-rule="evenodd" clip-rule="evenodd" d="M12.9336 53.9323C7.54415 46.5218 5.13815 37.4753 4.07951 28.4288C3.59831 24.098 3.50211 19.7672 3.21339 15.4364C2.82843 10.4319 0.999884 6.29363 0.0374867 1.48164C-0.251233 0.230523 1.19232 -0.443168 2.15471 0.32675C2.41135 0.58339 2.66804 0.840017 2.92468 1.09666C21.3065 4.36881 41.5168 6.87105 54.5092 21.9807C59.6099 27.9476 63.1707 35.4542 63.6519 43.4421C64.2294 53.6436 58.3587 62.8826 64.4218 72.4103C65.0955 73.5652 63.5557 75.0088 62.497 74.2389C59.8986 72.5066 58.5512 70.1968 57.8776 67.5021C57.6851 67.1171 57.4926 66.7643 57.3001 66.4435C41.6131 70.2931 22.9425 67.5983 12.9336 53.9323V53.9323ZM33.5289 63.5563C41.1318 65.2886 48.6386 64.23 56.3377 64.5187C55.1829 62.2089 54.1242 59.9954 52.8731 57.7819C50.2746 58.4556 47.6762 58.6481 45.0777 58.7443C41.8055 58.8405 37.2823 59.2255 34.4913 57.3007C33.8176 56.8195 33.9139 55.7608 34.78 55.4721C37.8597 54.7022 41.5168 55.6646 44.5965 55.6646C46.81 55.6646 49.0235 55.4721 51.237 55.3759C51.0445 54.9909 50.7558 54.606 50.4671 54.221C47.2912 50.1789 43.634 46.5218 40.1694 42.6722C39.5278 41.9665 38.8542 41.2607 38.1484 40.555C35.2612 41.6136 31.3154 40.8436 28.5244 40.17C25.2523 39.4963 20.4403 38.3414 18.6117 35.358C18.1305 34.7805 18.8042 34.0107 19.4779 34.0107C22.75 34.0107 26.1185 36.3204 29.3906 37.0903C31.4116 37.5715 33.6251 37.5715 35.8386 37.8603C31.8607 33.5615 27.9149 29.2308 24.0012 24.8679C22.9425 25.3491 21.4989 24.8679 20.5365 24.8679C19.2854 24.7716 17.3606 25.2528 16.302 24.4829C16.0133 24.2904 15.8208 23.9055 16.0133 23.5205C16.9757 22.2694 19.1892 22.3656 20.6328 22.5581C21.0177 22.5581 21.4989 22.5581 21.9801 22.6544C20.312 20.7937 18.6118 18.9331 16.8794 17.0724C16.302 16.3988 17.2644 15.5326 17.8418 16.11C19.0609 17.3291 20.2799 18.5482 21.4989 19.7672C21.8839 18.9973 22.1726 18.1311 22.1726 17.2649C22.2689 16.495 21.9802 15.7251 22.1726 15.0514C22.2689 14.7627 22.6538 14.5702 22.9425 14.7627C24.8673 15.9176 23.6162 19.286 22.3651 20.5371C22.3651 20.5371 22.3651 20.5371 22.2688 20.5371C24.6428 22.911 26.9846 25.2528 29.2943 27.5626C29.3906 26.4077 29.968 25.0604 30.0642 24.098C30.1284 23.0714 30.1284 22.0769 30.0642 21.1145C29.968 20.2484 29.7756 19.3822 30.1605 18.516C30.353 17.9386 31.0266 17.7461 31.5078 18.1311C32.759 19.286 32.6627 21.692 32.6627 23.2318C32.5665 24.1942 32.4703 25.0604 32.2778 26.0228C32.1816 26.4077 31.5078 27.6588 31.5078 28.3325C31.572 28.3325 31.6041 28.3967 31.6041 28.525C31.6041 28.8137 31.5079 28.91 31.3154 29.1987C31.3154 29.2949 31.2192 29.2949 31.1229 29.3912C36.0632 34.2673 40.9714 39.1755 45.8476 44.1158C46.3609 44.6291 46.9062 45.1745 47.4837 45.7519C48.7348 43.2497 49.601 40.4587 49.601 37.5715C49.601 36.0959 49.4084 34.6523 49.0235 33.2408C48.7348 31.9896 48.0611 30.8347 48.1574 29.5836C48.2536 29.0062 48.831 28.6212 49.3122 28.91C51.8144 30.546 52.1032 34.973 52.007 37.6678C51.9107 41.0362 50.8521 44.3083 48.7348 47.003C51.8145 49.9865 55.4716 53.5473 57.7813 57.3969C57.9738 56.5628 58.1342 55.7288 58.2625 54.8947C60.2836 44.7895 59.8024 36.128 53.7393 27.4664C47.7724 19.0935 38.6296 13.704 29.0056 10.3356C21.114 7.5447 12.5486 6.58231 4.65698 3.79136C6.8705 8.41087 6.77422 14.8589 6.9667 19.4784C7.4479 28.8137 8.41032 38.2452 12.6449 46.618C16.8794 55.2796 24.0974 61.3428 33.5289 63.5563V63.5563Z" fill="#32594A"/>
<path d="M65.3746 62.4327C66.2407 60.7967 67.0106 59.1606 67.8768 57.5245C69.8016 58.0057 71.6301 58.1982 73.5549 58.2945C75.8647 58.3907 79.2331 58.5831 81.2541 57.2358C81.7353 56.8508 81.639 56.0809 80.9653 55.8885C78.8481 55.311 76.1533 56.081 73.8436 56.081C72.3037 56.081 70.6677 55.8884 69.0316 55.7922C69.2241 55.5035 69.4165 55.2148 69.609 55.0223C72.015 52.0388 74.6135 49.3441 77.1158 46.6494C77.5649 46.072 78.0461 45.5267 78.5594 45.0134C80.6766 45.7833 83.4676 45.3021 85.5849 44.8209C87.8947 44.3397 91.3593 43.4735 92.8029 41.3562C93.0916 40.875 92.6103 40.2976 92.1291 40.2976C89.7231 40.2976 87.2209 42.0299 84.9112 42.5111C83.4676 42.8961 81.8316 42.8961 80.2917 43.1848C83.1148 40.041 85.9698 36.865 88.857 33.657C89.5306 34.042 90.5894 33.657 91.3593 33.657C92.2254 33.657 93.5728 33.9458 94.4389 33.4646C94.6314 33.2721 94.7276 32.9834 94.5351 32.7909C93.9577 31.8285 92.3216 31.9248 91.263 32.021C90.9742 32.021 90.6855 32.021 90.3006 32.1172C91.5196 30.7699 92.7387 29.4225 93.9577 28.0751C94.4389 27.5939 93.669 26.9203 93.2841 27.4015C92.3858 28.2355 91.4876 29.1017 90.5893 29.9999C90.3006 29.4225 90.1081 28.8451 90.1081 28.1714C90.1081 27.6902 90.3006 27.1128 90.1081 26.5353C90.1081 26.3429 89.8194 26.2466 89.6269 26.3428C88.1833 27.209 89.0495 29.615 90.0119 30.5774C88.3438 32.2456 86.6755 33.9458 85.0074 35.6781C84.9111 34.812 84.5262 33.8495 84.43 33.0796C84.3658 32.3739 84.3658 31.6681 84.43 30.9623C84.5262 30.2887 84.6225 29.7113 84.3337 29.1338C84.2375 28.6526 83.7563 28.5563 83.3713 28.8451C82.4089 29.615 82.5051 31.3473 82.6014 32.5022C82.6014 33.208 82.6977 33.8816 82.8901 34.5232C82.8901 34.8119 83.3713 35.7744 83.3713 36.1593C83.3713 36.2235 83.3713 36.2876 83.3713 36.3518C83.3713 36.5443 83.3713 36.6405 83.4676 36.833C83.5638 36.9292 83.5639 36.9292 83.6601 37.0254C80.0672 40.5542 76.5062 44.083 72.9774 47.6118C72.5924 47.9968 72.2075 48.4139 71.8226 48.863C70.8602 47.0344 70.2828 45.0134 70.2828 42.8961C70.2828 41.8054 70.4111 40.7468 70.6677 39.7202C70.9565 38.854 71.3414 37.9879 71.3414 37.1217C71.2451 36.6405 70.8602 36.3518 70.4752 36.6405C68.6466 37.7954 68.4542 40.9713 68.5504 42.8961C68.5504 45.3983 69.3203 47.8043 70.8602 49.7291C68.6467 51.9426 66.0481 54.4448 64.3158 57.2358C64.1875 56.6583 64.0913 56.0489 64.0272 55.4073C62.5836 48.093 62.8723 41.8374 67.2994 35.5818C71.5339 29.5187 78.2707 25.5729 85.1999 23.1669C90.8781 21.1459 97.1336 20.376 102.812 18.4512C101.272 21.8196 101.368 26.4391 101.176 29.8075C100.887 36.5442 100.117 43.3772 97.1337 49.5366C93.9578 55.7922 88.7608 60.123 81.9277 61.7591C76.4421 63.0102 70.9565 62.2403 65.3746 62.4327Z" fill="#B5CD4C"/>
<path fill-rule="evenodd" clip-rule="evenodd" d="M64.4981 63.9631C64.3697 64.2198 64.2415 64.4764 64.1131 64.733C63.6319 66.6578 62.5733 68.3901 60.7447 69.7375C59.9748 70.2187 58.82 69.16 59.3012 68.3901C63.7282 61.3646 59.4936 54.724 59.8786 47.3136C60.1673 41.5392 62.7658 36.1498 66.5191 31.819C75.8544 20.8477 90.579 19.0191 103.956 16.7094C104.085 16.4527 104.245 16.2603 104.438 16.1319C105.111 15.5545 106.17 16.0357 105.977 16.9019C105.304 20.3665 103.956 23.4462 103.668 27.007C103.475 30.1829 103.379 33.3588 103.09 36.4385C102.32 42.9828 100.588 49.6233 96.6422 55.0128C89.3279 64.8292 75.8544 66.8503 64.4981 63.9631V63.9631ZM96.9309 49.7196C99.9144 43.5602 100.684 36.7272 100.973 29.9904C101.165 26.622 101.069 22.0025 102.609 18.6342C96.9308 20.5589 90.6753 21.3289 84.9972 23.3499C78.0679 25.7559 71.3311 29.7017 67.0965 35.7648C62.6695 42.0204 62.3808 48.276 63.8244 55.5902C63.8886 56.2318 63.9848 56.8413 64.1131 57.4188C65.8455 54.6278 68.4439 52.1256 70.6574 49.9121C69.1176 47.9873 68.3477 45.5813 68.3477 43.0791C68.2514 41.1543 68.4439 37.9784 70.2724 36.8235C70.6574 36.5348 71.0424 36.8235 71.1386 37.3047C71.1386 38.1708 70.7537 39.037 70.4649 39.9032C70.2083 40.9297 70.08 41.9884 70.08 43.0791C70.08 45.1963 70.6574 47.2174 71.6198 49.046C72.0048 48.5968 72.3897 48.1797 72.7747 47.7948C76.3035 44.266 79.8644 40.7372 83.4574 37.2084C83.3611 37.1122 83.3611 37.1122 83.2648 37.016C83.1686 36.8235 83.1686 36.7273 83.1686 36.5348C83.1686 36.4706 83.1686 36.4065 83.1686 36.3423C83.1686 35.9573 82.6874 34.9949 82.6874 34.7062C82.4949 34.0646 82.3986 33.391 82.3986 32.6852C82.3024 31.5303 82.2062 29.798 83.1686 29.028C83.5536 28.7393 84.0348 28.8356 84.131 29.3168C84.4197 29.8942 84.3235 30.4716 84.2272 31.1453C84.1631 31.8511 84.1631 32.5568 84.2272 33.2626C84.3235 34.0325 84.7084 34.9949 84.8046 35.8611C86.4728 34.1288 88.141 32.4286 89.8092 30.7604C88.8468 29.798 87.9806 27.392 89.4242 26.5258C89.6167 26.4296 89.9054 26.5258 89.9054 26.7183C90.0979 27.2958 89.9054 27.8732 89.9054 28.3544C89.9054 29.0281 90.0979 29.6055 90.3866 30.1829C91.2848 29.2847 92.1831 28.4185 93.0813 27.5844C93.4663 27.1032 94.2362 27.7769 93.755 28.2581C92.5359 29.6055 91.3169 30.9529 90.0978 32.3002C90.4828 32.204 90.7715 32.204 91.0602 32.204C92.1188 32.1078 93.7549 32.0115 94.3324 32.9739C94.5249 33.1664 94.4287 33.4551 94.2362 33.6476C93.37 34.1288 92.0227 33.84 91.1565 33.84C90.3866 33.84 89.3279 34.225 88.6542 33.84C85.767 37.048 82.912 40.2239 80.089 43.3678C81.6288 43.0791 83.2648 43.0791 84.7084 42.6941C87.0182 42.2129 89.5204 40.4806 91.9264 40.4806C92.4076 40.4806 92.8889 41.058 92.6001 41.5392C91.1565 43.6565 87.6919 44.5227 85.3822 45.0039C83.2649 45.4851 80.4739 45.9663 78.3566 45.1964C77.8433 45.7096 77.3621 46.255 76.913 46.8324C74.4108 49.5271 71.8123 52.2218 69.4063 55.2053C69.2138 55.3977 69.0213 55.6864 68.8289 55.9752C70.4649 56.0714 72.101 56.2639 73.6408 56.2639C75.9506 56.2639 78.6453 55.494 80.7626 56.0714C81.4363 56.2639 81.5326 57.0338 81.0514 57.4188C79.0303 58.7661 75.6619 58.5737 73.3522 58.4774C71.4274 58.3812 69.5988 58.1887 67.674 57.7075C66.8079 59.3436 66.0379 60.9797 65.1718 62.6157C70.7537 62.4233 76.2393 63.1932 81.725 61.942C88.558 60.306 93.755 55.9752 96.9309 49.7196V49.7196Z" fill="#32594A"/>
</svg>
