<svg width="890" height="172" viewBox="0 0 890 172" fill="none" xmlns="http://www.w3.org/2000/svg">
<g filter="url(#filter0_d_51_3903)">
<rect width="867" height="149" rx="22" fill="#32594A"/>
</g>
<path d="M35.213 26.1862L43.1207 47.0039C43.6546 48.5125 43.3543 49.4553 42.2198 49.8324C41.0854 50.1341 40.2512 49.493 39.7174 47.909L36.9146 40.6681H28.5064L25.7036 47.909C25.103 49.493 24.2689 50.1341 23.2012 49.8324C22 49.4553 21.6997 48.5125 22.3003 47.0039L30.1079 26.1862C30.842 24.3759 31.7095 23.4709 32.7105 23.4709C33.7115 23.4709 34.5456 24.3759 35.213 26.1862ZM35.6133 37.1608L32.7105 29.4673L29.7076 37.2739L35.6133 37.1608ZM60.2375 45.4199C61.3052 44.7411 62.1727 44.9297 62.84 45.9856C63.2404 46.6645 62.9401 47.4187 61.9392 48.2484C60.6045 49.3044 58.5692 49.7947 55.8332 49.7192C53.631 49.7192 51.8293 49.0782 50.4279 47.7959C48.6261 46.1365 47.7252 44.0623 47.7252 41.5732C47.7252 38.7825 48.3592 36.5197 49.6271 34.7848C51.1619 32.6729 53.1305 31.5415 55.5329 31.3907C56.9343 31.2398 58.2022 31.3529 59.3366 31.7301C60.738 32.1826 61.6722 32.7483 62.1394 33.4272C62.8734 34.4831 62.84 35.3128 62.0393 35.9162C61.5054 36.2934 60.6713 36.0671 59.5368 35.2374C58.1354 34.2568 56.5672 34.0306 54.8322 34.5586C53.8979 34.8603 53.0304 35.5391 52.2296 36.5951C51.2954 37.8019 50.8283 39.1973 50.8283 40.7812C50.7615 42.2898 51.2287 43.6852 52.2296 44.9674C53.0972 46.0234 54.2983 46.5891 55.8332 46.6645C57.4347 46.7399 58.9028 46.3251 60.2375 45.4199V45.4199ZM78.7556 45.4199C79.8234 44.7411 80.6909 44.9297 81.3582 45.9856C81.7586 46.6645 81.4583 47.4187 80.4573 48.2484C79.1227 49.3044 77.0873 49.7947 74.3513 49.7192C72.1492 49.7192 70.314 49.0782 68.8459 47.7959C67.1109 46.1365 66.2434 44.0623 66.2434 41.5732C66.2434 38.7825 66.8773 36.5197 68.1452 34.7848C69.6801 32.6729 71.6487 31.5415 74.051 31.3907C75.4524 31.2398 76.7203 31.3529 77.8548 31.7301C79.2561 32.1826 80.1904 32.7483 80.6575 33.4272C81.3916 34.4831 81.3582 35.3128 80.5574 35.9162C80.0236 36.2934 79.1894 36.0671 78.055 35.2374C76.6536 34.2568 75.0854 34.0306 73.3503 34.5586C72.4161 34.8603 71.5486 35.5391 70.7478 36.5951C69.8135 37.8019 69.3464 39.1973 69.3464 40.7812C69.2797 42.2898 69.7468 43.6852 70.7478 44.9674C71.6153 46.0234 72.8165 46.5891 74.3513 46.6645C75.9529 46.7399 77.421 46.3251 78.7556 45.4199V45.4199ZM93.1698 34.7848C91.6349 34.8603 90.4671 35.3882 89.6663 36.3688C88.5319 37.8773 87.9647 39.5367 87.9647 41.3469C87.9647 43.0818 88.3651 44.4017 89.1659 45.3068C90.0334 46.212 91.0344 46.6645 92.1688 46.6645C93.4367 46.6645 94.5378 46.212 95.472 45.3068C96.3396 44.3263 96.8067 42.78 96.8734 40.6681C96.8734 36.7459 95.6389 34.7848 93.1698 34.7848V34.7848ZM92.9696 31.3907C97.7076 31.3907 100.077 34.5963 100.077 41.0075C100.077 43.7229 99.4426 45.7971 98.1747 47.2302C96.7733 48.965 94.6379 49.8324 91.7684 49.8324C89.6997 49.757 87.9313 48.9273 86.4632 47.3433C85.1286 45.8348 84.4612 43.7229 84.4612 41.0075C84.4612 38.443 85.262 36.1802 86.8636 34.2191C88.3984 32.3335 90.4338 31.3907 92.9696 31.3907V31.3907ZM106.383 30.5987C107.584 30.5987 108.185 31.1644 108.185 32.2958C108.185 32.522 108.185 32.7106 108.185 32.8615C109.519 31.9563 110.82 31.5038 112.088 31.5038C113.623 31.4283 114.891 31.6546 115.892 32.1826C117.694 33.0123 118.428 33.8797 118.094 34.7848C117.627 36.218 116.693 36.4819 115.291 35.5768C114.29 34.8979 113.089 34.7094 111.688 35.0111C110.353 35.2374 109.152 35.8785 108.084 36.9345L107.784 47.909C107.717 49.1159 107.083 49.7192 105.882 49.7192C104.815 49.6438 104.281 49.0404 104.281 47.909L104.781 32.1826C104.781 31.1266 105.315 30.5987 106.383 30.5987V30.5987ZM136.913 22C138.181 22 138.781 22.5657 138.714 23.6971L138.214 47.909C138.214 49.1159 137.58 49.7192 136.312 49.7192C135.311 49.6438 134.777 49.1536 134.711 48.2484C132.975 49.3044 131.14 49.8324 129.205 49.8324C127.136 49.8324 125.335 49.0782 123.8 47.5696C122.065 45.9102 121.131 43.9868 120.997 41.7995C120.93 38.8578 121.764 36.3688 123.5 34.3323C125.101 32.4466 127.237 31.5038 129.906 31.5038C131.307 31.5038 132.508 31.7678 133.509 32.2958C134.11 32.5975 134.644 32.8992 135.111 33.2009L135.311 23.584C135.311 22.528 135.845 22 136.913 22V22ZM134.811 44.4017C134.944 42.1389 135.011 39.6876 135.011 37.0476C132.942 35.0111 130.873 34.2191 128.805 34.6717C127.337 35.0488 126.269 35.6145 125.602 36.3688C124.667 37.5002 124.2 39.0464 124.2 41.0075C124.133 42.2898 124.601 43.5343 125.602 44.7411C126.402 45.7971 127.604 46.4005 129.205 46.5513C130.807 46.7022 132.675 45.9857 134.811 44.4017ZM145.921 23.8103C145.988 23.8103 146.022 23.8103 146.022 23.8103C146.422 23.8103 146.789 23.9234 147.123 24.1497C147.523 24.3005 147.79 24.5645 147.923 24.9417C148.124 25.2434 148.224 25.5828 148.224 25.9599C148.224 25.9599 148.224 25.9976 148.224 26.0731C148.157 26.4502 148.024 26.8273 147.823 27.2045C147.556 27.4307 147.29 27.6193 147.023 27.7702C146.689 27.921 146.355 27.9965 146.022 27.9965C145.955 27.9965 145.921 27.9965 145.921 27.9965C145.521 27.9965 145.187 27.8833 144.921 27.657C144.587 27.5061 144.32 27.2799 144.12 26.9782C143.92 26.6765 143.819 26.337 143.819 25.9599C143.819 25.5828 143.92 25.2434 144.12 24.9417C144.32 24.5645 144.587 24.3005 144.921 24.1497C145.187 23.9234 145.521 23.8103 145.921 23.8103V23.8103ZM145.821 31.3907C146.956 31.4661 147.523 32.2203 147.523 33.6535L147.223 47.5696C147.223 49.0782 146.656 49.8324 145.521 49.8324C144.253 49.8324 143.653 49.1158 143.719 47.6827L144.02 33.6535C144.02 32.1449 144.62 31.3907 145.821 31.3907ZM154.93 30.5987C156.198 30.5987 156.799 31.1644 156.732 32.2958C156.732 32.5975 156.732 32.9368 156.732 33.314C158 32.1826 159.635 31.6169 161.637 31.6169C166.108 31.6169 168.277 34.1814 168.143 39.3104L168.043 47.6827C168.043 49.0404 167.476 49.757 166.342 49.8324C165.074 49.9078 164.44 49.2667 164.44 47.909L164.64 39.9892C164.773 36.8968 163.872 35.2751 161.937 35.1243C160.269 35.0488 158.501 35.8785 156.632 37.6133L156.332 47.7959C156.332 49.0027 155.698 49.6061 154.43 49.6061C153.362 49.6061 152.862 49.0027 152.928 47.7959L153.329 32.1826C153.329 31.1266 153.863 30.5987 154.93 30.5987ZM183.458 38.8579C183.592 37.8773 183.659 37.2362 183.659 36.9345C183.592 35.5014 182.658 34.7848 180.856 34.7848C179.388 34.7848 178.02 35.1242 176.752 35.8031C175.284 36.7082 174.416 38.443 174.149 41.0075C173.816 44.0246 174.817 45.6085 177.152 45.7593C179.688 45.9856 181.456 45.0806 182.457 43.044C182.658 42.6669 182.991 41.2715 183.458 38.8579ZM185.761 33.314C186.828 33.5403 187.295 34.2945 187.162 35.5768L185.861 50.0587C185.327 56.0928 181.957 58.8836 175.751 58.431C173.615 58.2802 172.181 58.0539 171.447 57.7522C170.579 57.3751 170.245 56.7339 170.446 55.8288C170.712 54.8483 171.38 54.5088 172.448 54.8105C174.65 55.2631 176.518 55.3763 178.053 55.15C180.656 54.6974 182.124 53.0003 182.457 50.0587L182.658 47.2302C181.723 48.7388 179.688 49.3421 176.552 49.0404C171.413 48.5879 169.578 45.0806 171.046 38.5184C171.98 34.1437 174.783 31.73 179.454 31.2775C182.658 30.9758 184.626 31.6546 185.36 33.314C185.494 33.314 185.627 33.314 185.761 33.314V33.314ZM214.689 22C215.89 22 216.491 22.5657 216.491 23.6971C216.491 26.4879 216.457 29.0901 216.391 31.5038L219.894 31.3907C221.362 31.3907 222.096 31.9564 222.096 33.0878C222.096 34.2191 221.396 34.7848 219.994 34.7848C218.793 34.7848 217.558 34.7848 216.291 34.7848L215.99 47.909C215.99 49.1159 215.356 49.7192 214.088 49.7192C213.021 49.6438 212.487 49.0404 212.487 47.909L212.787 34.7848C211.452 34.7848 210.084 34.7848 208.683 34.7848C207.682 34.7848 207.182 34.2568 207.182 33.2009C207.182 32.0695 207.749 31.5038 208.883 31.5038C210.218 31.5038 211.553 31.5038 212.887 31.5038L213.087 23.584C213.154 22.528 213.688 22 214.689 22V22ZM233.107 34.7848C231.572 34.8603 230.438 35.3882 229.704 36.3688C228.502 37.8773 227.902 39.5367 227.902 41.3469C227.902 43.0818 228.336 44.4017 229.203 45.3068C230.071 46.212 231.072 46.6645 232.206 46.6645C233.474 46.6645 234.542 46.212 235.409 45.3068C236.344 44.3263 236.811 42.78 236.811 40.6681C236.811 36.7459 235.576 34.7848 233.107 34.7848V34.7848ZM233.007 31.3907C237.745 31.3907 240.114 34.5963 240.114 41.0075C240.114 43.7229 239.48 45.7971 238.212 47.2302C236.811 48.965 234.675 49.8324 231.806 49.8324C229.67 49.757 227.902 48.9273 226.501 47.3433C225.166 45.8348 224.499 43.7229 224.499 41.0075C224.499 38.443 225.266 36.1802 226.801 34.2191C228.402 32.3335 230.471 31.3907 233.007 31.3907V31.3907ZM268.141 22C269.343 22 269.943 22.5657 269.943 23.6971C269.943 26.4879 269.876 29.0901 269.743 31.5038L273.346 31.3907C274.815 31.3907 275.549 31.9564 275.549 33.0878C275.549 34.2191 274.848 34.7848 273.447 34.7848C272.179 34.7848 270.944 34.7848 269.743 34.7848L269.443 47.909C269.376 49.1159 268.709 49.7192 267.441 49.7192C266.44 49.6438 265.939 49.0404 265.939 47.909L266.239 34.7848C264.838 34.7848 263.47 34.7848 262.135 34.7848C261.134 34.7848 260.634 34.2568 260.634 33.2009C260.634 32.0695 261.168 31.5038 262.236 31.5038C263.637 31.5038 265.005 31.5038 266.34 31.5038L266.54 23.584C266.54 22.528 267.074 22 268.141 22V22ZM281.254 22C282.522 22 283.123 22.5657 283.056 23.6971L282.956 33.5403C284.424 32.258 286.359 31.6169 288.762 31.6169C293.166 31.6169 295.335 34.1814 295.268 39.3104V47.7959C295.201 49.1536 294.634 49.8701 293.566 49.9455C292.298 50.021 291.664 49.3798 291.664 48.0221L291.765 39.9892C291.765 37.0476 290.83 35.5014 288.962 35.3505C286.76 35.1997 284.758 36.1425 282.956 38.179L282.555 47.909C282.489 49.1159 281.821 49.7192 280.554 49.7192C279.553 49.6438 279.052 49.0404 279.052 47.909L279.653 23.584C279.653 22.528 280.186 22 281.254 22V22ZM313.686 40.1024L301.874 41.6863C301.941 42.9686 302.542 44.0623 303.676 44.9674C304.944 46.0988 306.412 46.6645 308.081 46.6645C310.483 46.6645 312.084 46.212 312.885 45.3068C313.686 44.4771 314.32 44.0246 314.787 43.9491C315.388 43.7983 315.788 43.9492 315.988 44.4017C316.589 45.4577 316.355 46.4382 315.288 47.3433C313.419 48.9273 310.95 49.7192 307.88 49.7192C305.611 49.6438 303.643 48.965 301.975 47.6827C299.906 46.0234 298.871 43.7983 298.871 41.0075C298.871 38.7447 299.539 36.7082 300.873 34.898C302.475 32.6352 304.577 31.4283 307.18 31.2775C309.916 31.1266 312.051 31.7678 313.586 33.2009C314.987 34.5585 315.655 36.0671 315.588 37.7265C315.588 39.1596 314.954 39.9515 313.686 40.1024ZM302.275 38.971L312.585 37.5002C312.385 36.5196 311.851 35.7654 310.983 35.2374C309.982 34.634 308.881 34.3323 307.68 34.3323C306.079 34.3323 304.677 35.0111 303.476 36.3688C303.009 36.9722 302.608 37.8396 302.275 38.971ZM357.129 24.0366C358.463 24.112 359.097 25.0925 359.03 26.9782L358.73 36.4819C358.463 45.2314 354.893 49.6061 348.02 49.6061C340.879 49.6061 337.309 45.1182 337.309 36.1425L337.409 27.2045C337.409 24.9417 338.01 23.8103 339.211 23.8103C340.345 23.8857 340.913 24.8662 340.913 26.7519V35.9162C340.846 43.1572 343.248 46.7399 348.12 46.6645C352.658 46.5891 354.993 43.0817 355.127 36.1425L355.327 26.6388C355.394 24.904 355.994 24.0366 357.129 24.0366V24.0366ZM365.437 30.5987C366.705 30.5987 367.305 31.1644 367.238 32.2958C367.238 32.5975 367.238 32.9368 367.238 33.314C368.506 32.1826 370.141 31.6169 372.143 31.6169C376.614 31.6169 378.783 34.1814 378.65 39.3104L378.55 47.6827C378.55 49.0404 377.982 49.757 376.848 49.8324C375.58 49.9078 374.946 49.2667 374.946 47.909L375.246 39.9892C375.313 36.8968 374.379 35.2751 372.444 35.1243C370.775 35.0488 369.007 35.8785 367.138 37.6133L366.938 47.7959C366.871 49.0027 366.204 49.6061 364.936 49.6061C363.869 49.6061 363.368 49.0027 363.435 47.7959L363.835 32.1826C363.835 31.1266 364.369 30.5987 365.437 30.5987ZM385.456 23.8103C385.456 23.8103 385.49 23.8103 385.556 23.8103C385.957 23.8103 386.324 23.9234 386.658 24.1497C386.991 24.3005 387.258 24.5645 387.458 24.9417C387.592 25.2434 387.659 25.5828 387.659 25.9599C387.659 25.9599 387.659 25.9976 387.659 26.0731C387.659 26.4502 387.525 26.8273 387.258 27.2045C386.991 27.4307 386.724 27.6193 386.457 27.7702C386.19 27.921 385.857 27.9965 385.456 27.9965C385.456 27.9965 385.423 27.9965 385.356 27.9965C385.023 27.9965 384.689 27.8833 384.355 27.657C384.088 27.5061 383.855 27.2799 383.655 26.9782C383.454 26.6765 383.354 26.337 383.354 25.9599C383.354 25.5828 383.421 25.2434 383.555 24.9417C383.755 24.5645 384.022 24.3005 384.355 24.1497C384.689 23.9234 385.056 23.8103 385.456 23.8103V23.8103ZM385.356 31.3907C386.424 31.4661 386.958 32.2203 386.958 33.6535L386.758 47.5696C386.691 49.0782 386.124 49.8324 385.056 49.8324C383.788 49.8324 383.154 49.1158 383.154 47.6827L383.454 33.6535C383.521 32.1449 384.155 31.3907 385.356 31.3907V31.3907ZM398.669 22C399.871 22 400.471 22.5657 400.471 23.6971C400.471 26.4879 400.438 29.0901 400.371 31.5038L403.874 31.3907C405.343 31.3907 406.077 31.9564 406.077 33.0878C406.077 34.2191 405.376 34.7848 403.975 34.7848C402.773 34.7848 401.539 34.7848 400.271 34.7848L399.971 47.909C399.971 49.1159 399.337 49.7192 398.069 49.7192C397.001 49.6438 396.467 49.0404 396.467 47.909L396.767 34.7848C395.433 34.7848 394.065 34.7848 392.663 34.7848C391.662 34.7848 391.162 34.2568 391.162 33.2009C391.162 32.0695 391.729 31.5038 392.864 31.5038C394.198 31.5038 395.533 31.5038 396.868 31.5038L397.068 23.584C397.134 22.528 397.668 22 398.669 22V22ZM423.394 40.1024L411.582 41.6863C411.649 42.9686 412.249 44.0623 413.384 44.9674C414.718 46.0988 416.186 46.6645 417.788 46.6645C420.19 46.6645 421.792 46.212 422.593 45.3068C423.394 44.4771 424.061 44.0246 424.595 43.9491C425.129 43.7983 425.529 43.9492 425.796 44.4017C426.33 45.4577 426.063 46.4382 424.995 47.3433C423.127 48.9273 420.658 49.7192 417.588 49.7192C415.386 49.6438 413.417 48.965 411.682 47.6827C409.613 46.0234 408.579 43.7983 408.579 41.0075C408.579 38.7447 409.246 36.7082 410.581 34.898C412.183 32.6352 414.318 31.4283 416.987 31.2775C419.657 31.1266 421.759 31.7678 423.293 33.2009C424.762 34.5585 425.462 36.0671 425.396 37.7265C425.329 39.1596 424.661 39.9515 423.394 40.1024ZM411.982 38.971L422.292 37.5002C422.159 36.5196 421.625 35.7654 420.691 35.2374C419.69 34.634 418.589 34.3323 417.388 34.3323C415.786 34.3323 414.418 35.0111 413.284 36.3688C412.75 36.9722 412.316 37.8396 411.982 38.971V38.971ZM444.414 22C445.615 22 446.216 22.5657 446.216 23.6971L445.615 47.909C445.615 49.1159 444.981 49.7192 443.714 49.7192C442.779 49.6438 442.279 49.1536 442.212 48.2484C440.477 49.3044 438.608 49.8324 436.607 49.8324C434.605 49.8324 432.836 49.0782 431.301 47.5696C429.566 45.9102 428.632 43.9868 428.499 41.7995C428.432 38.8578 429.233 36.3688 430.901 34.3323C432.569 32.4466 434.705 31.5038 437.307 31.5038C438.709 31.5038 439.943 31.7678 441.011 32.2958C441.545 32.5975 442.045 32.8992 442.512 33.2009L442.813 23.584C442.813 22.528 443.346 22 444.414 22V22ZM442.212 44.4017C442.345 42.1389 442.412 39.6876 442.412 37.0476C440.344 35.0111 438.308 34.2191 436.306 34.6717C434.838 35.0488 433.77 35.6145 433.103 36.3688C432.169 37.5002 431.668 39.0464 431.602 41.0075C431.602 42.2898 432.102 43.5343 433.103 44.7411C433.904 45.7971 435.072 46.4005 436.607 46.5513C438.275 46.7022 440.143 45.9857 442.212 44.4017ZM471.341 24.2628L488.758 43.3834L489.258 24.7154C489.258 23.8103 489.792 23.32 490.86 23.2446C492.128 23.2446 492.728 23.7725 492.661 24.8285L492.161 47.4564C492.161 48.6633 491.527 49.229 490.259 49.1535C489.725 49.1535 489.292 48.965 488.958 48.5878L471.641 29.8067L471.24 48.0221C471.174 49.1535 470.506 49.7192 469.239 49.7192C468.171 49.6438 467.67 49.0404 467.737 47.909L468.338 25.2811C468.338 24.3005 468.871 23.8103 469.939 23.8103C470.54 23.8103 471.007 23.9611 471.341 24.2628V24.2628ZM503.072 49.9455C497.8 49.9455 495.131 47.2679 495.064 41.9126C495.064 38.3676 496.265 35.6522 498.667 33.7666C501.537 31.5792 504.506 30.9381 507.576 31.8432C507.91 31.5415 508.41 31.466 509.078 31.6169C510.479 31.9186 511.046 32.786 510.779 34.2191C510.512 35.6523 510.379 38.0282 510.379 41.3469C510.312 44.0623 510.612 45.9856 511.28 47.117C512.281 48.701 512.147 49.6438 510.879 49.9455C509.411 50.1718 508.544 49.5684 508.277 48.1353C505.874 49.2667 504.139 49.8701 503.072 49.9455V49.9455ZM505.074 46.5513C505.474 46.4005 506.208 45.9102 507.276 45.0805C506.875 40.2532 506.942 36.9345 507.476 35.1243C506.342 34.4454 505.14 34.2568 503.872 34.5586C503.005 34.7848 502.304 35.0865 501.77 35.4637C499.702 36.8968 498.601 38.9333 498.467 41.5732C498.534 44.9674 499.768 46.7399 502.171 46.8907C503.238 46.9662 504.206 46.853 505.074 46.5513V46.5513ZM521.29 22C522.491 22 523.091 22.5657 523.091 23.6971C523.025 26.4879 522.958 29.0901 522.891 31.5038L526.495 31.3907C527.896 31.3907 528.597 31.9564 528.597 33.0878C528.597 34.2191 527.929 34.7848 526.595 34.7848C525.327 34.7848 524.059 34.7848 522.791 34.7848L522.491 47.909C522.491 49.1159 521.857 49.7192 520.589 49.7192C519.521 49.6438 519.021 49.0404 519.087 47.909L519.388 34.7848C517.986 34.7848 516.585 34.7848 515.184 34.7848C514.183 34.7848 513.682 34.2568 513.682 33.2009C513.682 32.0695 514.249 31.5038 515.384 31.5038C516.718 31.5038 518.086 31.5038 519.488 31.5038L519.688 23.584C519.688 22.528 520.222 22 521.29 22V22ZM535.103 23.8103C535.503 23.8103 535.87 23.9234 536.204 24.1497C536.605 24.3005 536.905 24.5645 537.105 24.9417C537.238 25.2434 537.305 25.5828 537.305 25.9599C537.305 25.9599 537.305 25.9976 537.305 26.0731C537.305 26.4502 537.172 26.8273 536.905 27.2045C536.638 27.4307 536.371 27.6193 536.104 27.7702C535.837 27.921 535.503 27.9965 535.103 27.9965C535.103 27.9965 535.07 27.9965 535.003 27.9965C534.669 27.9965 534.336 27.8833 534.002 27.657C533.668 27.5061 533.401 27.2799 533.201 26.9782C533.001 26.6765 532.901 26.337 532.901 25.9599C532.901 25.5828 533.001 25.2434 533.201 24.9417C533.401 24.5645 533.668 24.3005 534.002 24.1497C534.336 23.9234 534.703 23.8103 535.103 23.8103V23.8103ZM534.903 31.3907C536.037 31.4661 536.605 32.2203 536.605 33.6535L536.304 47.5696C536.304 49.0782 535.737 49.8324 534.603 49.8324C533.401 49.8324 532.801 49.1158 532.801 47.6827L533.101 33.6535C533.168 32.1449 533.768 31.3907 534.903 31.3907ZM549.818 34.7848C548.283 34.8603 547.115 35.3882 546.314 36.3688C545.18 37.8773 544.612 39.5367 544.612 41.3469C544.612 43.0818 545.013 44.4017 545.814 45.3068C546.681 46.212 547.682 46.6645 548.817 46.6645C550.084 46.6645 551.186 46.212 552.12 45.3068C552.987 44.3263 553.454 42.78 553.521 40.6681C553.521 36.7459 552.287 34.7848 549.818 34.7848V34.7848ZM549.617 31.3907C554.355 31.3907 556.724 34.5963 556.724 41.0075C556.724 43.7229 556.09 45.7971 554.822 47.2302C553.421 48.965 551.286 49.8324 548.416 49.8324C546.347 49.757 544.579 48.9273 543.111 47.3433C541.776 45.8348 541.109 43.7229 541.109 41.0075C541.109 38.443 541.91 36.1802 543.511 34.2191C545.046 32.3335 547.081 31.3907 549.617 31.3907V31.3907ZM563.03 30.5987C564.232 30.5987 564.832 31.1644 564.832 32.2958C564.832 32.5975 564.832 32.9368 564.832 33.314C566.1 32.1826 567.735 31.6169 569.737 31.6169C574.141 31.6169 576.31 34.1814 576.243 39.3104L576.043 47.6827C576.043 49.0404 575.509 49.757 574.442 49.8324C573.107 49.9078 572.473 49.2667 572.54 47.909L572.74 39.9892C572.807 36.8968 571.872 35.2751 569.937 35.1243C568.336 35.0488 566.601 35.8785 564.732 37.6133L564.432 47.7959C564.432 49.0027 563.798 49.6061 562.53 49.6061C561.462 49.6061 560.928 49.0027 560.928 47.7959L561.429 32.1826C561.429 31.1266 561.963 30.5987 563.03 30.5987ZM584.351 46.5513C587.021 46.7022 588.656 46.3628 589.256 45.5331C589.723 44.8543 589.456 44.0246 588.455 43.044C587.788 42.3652 586.287 41.8749 583.951 41.5732C581.549 41.1961 580.181 40.291 579.847 38.8579C579.58 37.8019 579.68 36.6705 580.147 35.4637C580.614 34.1814 581.348 33.2009 582.349 32.5221C583.484 31.7678 584.818 31.3152 586.353 31.1644C588.088 31.0135 589.59 31.2398 590.858 31.8432C592.526 32.5974 593.46 33.5026 593.66 34.5586C593.727 35.2374 593.494 35.7653 592.96 36.1425C592.292 36.6705 591.291 36.3311 589.957 35.1243C589.29 34.4454 588.289 34.1437 586.954 34.2191C585.486 34.2946 584.418 34.7094 583.751 35.4637C583.217 36.0671 583.05 36.7082 583.25 37.387C583.45 37.9905 584.285 38.3676 585.753 38.5184C586.82 38.6693 587.855 38.9333 588.856 39.3104C590.124 39.9139 590.991 40.5172 591.458 41.1206C592.659 42.4783 593.193 43.836 593.06 45.1937C592.86 46.7022 592.026 47.909 590.557 48.8141C589.356 49.5684 587.788 49.9455 585.853 49.9455C584.251 49.9455 582.917 49.7947 581.849 49.493C581.248 49.3422 580.481 49.0027 579.547 48.4747C578.746 48.0976 578.312 47.5696 578.245 46.8907C578.179 46.1365 578.412 45.5708 578.946 45.1937C579.613 44.8165 580.381 44.892 581.248 45.4199C582.249 46.0988 583.284 46.4759 584.351 46.5513V46.5513ZM603.07 46.7776C603.937 47.2302 604.137 47.8713 603.67 48.701L601.368 53.4529C600.901 54.5089 600.267 54.886 599.466 54.5843C598.732 54.2072 598.532 53.5283 598.866 52.5477L600.968 47.6827C601.435 46.6268 602.135 46.3251 603.07 46.7776V46.7776ZM234.308 98.1431C232.773 98.2185 231.606 98.7465 230.805 99.727C229.67 101.236 229.103 102.895 229.103 104.705C229.103 106.44 229.503 107.76 230.304 108.665C231.172 109.57 232.173 110.023 233.307 110.023C234.575 110.023 235.676 109.57 236.61 108.665C237.478 107.685 237.945 106.138 238.012 104.026C238.012 100.104 236.777 98.1431 234.308 98.1431V98.1431ZM234.108 94.7489C238.913 94.7489 241.282 97.9545 241.215 104.366C241.215 107.081 240.581 109.155 239.313 110.588C237.912 112.323 235.776 113.191 232.907 113.191C230.838 113.115 229.07 112.286 227.602 110.702C226.267 109.193 225.6 107.081 225.6 104.366C225.6 101.801 226.4 99.5385 228.002 97.5774C229.537 95.6918 231.572 94.7489 234.108 94.7489V94.7489ZM246.52 99.6139C245.252 99.6139 244.618 99.0482 244.618 97.9168C244.618 96.7854 245.319 96.2197 246.72 96.2197H249.523C249.59 91.9204 250.19 89.0165 251.325 87.5079C252.192 86.3011 253.894 85.66 256.43 85.5846C258.966 85.4337 260.1 85.9994 259.833 87.2817C259.633 88.3376 258.832 88.8279 257.431 88.7525C255.229 88.5262 253.861 89.3182 253.327 91.1284C253.06 92.1844 252.926 93.8815 252.926 96.2197H256.93C258.465 96.2197 259.266 96.7477 259.333 97.8036C259.466 99.0105 258.732 99.6139 257.131 99.6139H252.826L252.626 111.38C252.626 112.587 251.992 113.191 250.724 113.191C249.657 113.191 249.123 112.587 249.123 111.38L249.423 99.6139H246.52ZM288.561 103.461L276.75 105.045C276.817 106.327 277.417 107.421 278.552 108.326C279.886 109.457 281.354 110.023 282.956 110.023C285.358 110.023 286.96 109.57 287.761 108.665C288.561 107.835 289.229 107.383 289.763 107.307C290.296 107.157 290.697 107.307 290.964 107.76C291.498 108.816 291.231 109.796 290.163 110.702C288.294 112.286 285.825 113.078 282.756 113.078C280.487 113.002 278.518 112.323 276.85 111.041C274.781 109.382 273.747 107.157 273.747 104.366C273.747 102.103 274.414 100.066 275.749 98.2562C277.35 95.9934 279.452 94.7866 282.055 94.6357C284.791 94.4849 286.926 95.126 288.461 96.5591C289.863 97.9168 290.563 99.4253 290.563 101.085C290.497 102.518 289.829 103.31 288.561 103.461ZM277.15 102.329L287.46 100.858C287.327 99.8779 286.793 99.1236 285.859 98.5956C284.858 97.9922 283.757 97.6905 282.555 97.6905C280.954 97.6905 279.553 98.3694 278.351 99.727C277.884 100.33 277.484 101.198 277.15 102.329ZM317.089 97.0117L319.091 108.665L322.995 97.0117C323.529 95.4278 324.23 94.7112 325.097 94.862C326.365 95.0129 326.732 95.7672 326.198 97.1248L321.093 111.154C320.626 112.512 319.892 113.191 318.891 113.191C317.69 113.191 316.956 112.512 316.689 111.154L314.787 101.877L311.384 111.154C310.917 112.512 310.183 113.191 309.182 113.191C307.98 113.191 307.246 112.512 306.979 111.154L304.177 97.1248C303.91 95.7672 304.31 95.0129 305.378 94.862C306.446 94.6358 307.113 95.3523 307.38 97.0117L309.482 108.665L313.386 97.0117C313.853 95.5032 314.487 94.7489 315.288 94.7489C316.222 94.7489 316.822 95.5032 317.089 97.0117V97.0117ZM336.208 113.304C330.936 113.304 328.3 110.626 328.3 105.271C328.234 101.726 329.435 99.0105 331.904 97.1248C334.707 94.9375 337.643 94.2963 340.712 95.2014C341.046 94.8997 341.58 94.8243 342.314 94.9751C343.715 95.2769 344.283 96.1443 344.016 97.5774C343.749 99.0105 343.582 101.386 343.515 104.705C343.449 107.421 343.782 109.344 344.516 110.475C345.45 112.059 345.284 113.002 344.016 113.304C342.548 113.53 341.713 112.927 341.513 111.494C339.044 112.625 337.276 113.228 336.208 113.304V113.304ZM338.31 109.91C338.711 109.759 339.411 109.268 340.412 108.439C340.012 103.612 340.079 100.293 340.612 98.4825C339.478 97.8037 338.31 97.6151 337.109 97.9168C336.241 98.1431 335.541 98.4448 335.007 98.8219C332.938 100.255 331.837 102.292 331.704 104.931C331.704 108.326 332.938 110.098 335.407 110.249C336.408 110.324 337.376 110.211 338.31 109.91V109.91ZM352.724 109.91C355.327 110.06 356.928 109.721 357.529 108.891C357.996 108.213 357.729 107.383 356.728 106.402C356.061 105.723 354.559 105.233 352.224 104.931C349.821 104.554 348.453 103.649 348.12 102.216C347.853 101.16 347.953 100.029 348.42 98.8219C348.887 97.5397 349.621 96.5592 350.622 95.8803C351.757 95.1261 353.091 94.6735 354.626 94.5226C356.361 94.3718 357.863 94.598 359.131 95.2014C360.799 95.9557 361.733 96.8608 361.933 97.9168C362.067 98.5957 361.833 99.1236 361.233 99.5007C360.565 100.029 359.564 99.6893 358.23 98.4825C357.562 97.8037 356.561 97.502 355.227 97.5774C353.825 97.6528 352.758 98.0677 352.024 98.8219C351.49 99.4253 351.323 100.066 351.523 100.745C351.79 101.349 352.624 101.726 354.026 101.877C355.16 102.028 356.194 102.292 357.129 102.669C358.397 103.272 359.297 103.876 359.831 104.479C360.966 105.837 361.466 107.194 361.333 108.552C361.133 110.06 360.298 111.267 358.83 112.172C357.696 112.927 356.128 113.304 354.126 113.304C352.524 113.304 351.189 113.153 350.122 112.851C349.521 112.7 348.754 112.361 347.819 111.833C347.019 111.456 346.585 110.928 346.518 110.249C346.451 109.495 346.718 108.929 347.319 108.552C347.92 108.175 348.654 108.25 349.521 108.778C350.522 109.457 351.59 109.834 352.724 109.91V109.91ZM371.943 85.3583C373.144 85.3583 373.745 85.924 373.745 87.0554C373.745 89.8461 373.712 92.4484 373.645 94.862L377.248 94.7489C378.65 94.7489 379.35 95.3146 379.35 96.446C379.35 97.5774 378.683 98.1431 377.348 98.1431C376.081 98.1431 374.813 98.1431 373.545 98.1431L373.244 111.267C373.244 112.474 372.61 113.078 371.343 113.078C370.275 113.002 369.741 112.399 369.741 111.267L370.141 98.1431C368.74 98.1431 367.339 98.1431 365.937 98.1431C364.936 98.1431 364.436 97.6151 364.436 96.5591C364.436 95.4277 365.003 94.862 366.137 94.862C367.472 94.862 368.807 94.862 370.141 94.862L370.342 86.9423C370.408 85.8863 370.942 85.3583 371.943 85.3583ZM396.667 103.461L384.856 105.045C384.923 106.327 385.523 107.421 386.658 108.326C387.992 109.457 389.46 110.023 391.062 110.023C393.464 110.023 395.099 109.57 395.967 108.665C396.701 107.835 397.335 107.383 397.869 107.307C398.402 107.157 398.803 107.307 399.07 107.76C399.604 108.816 399.337 109.796 398.269 110.702C396.4 112.286 393.931 113.078 390.862 113.078C388.66 113.002 386.724 112.323 385.056 111.041C382.921 109.382 381.853 107.157 381.853 104.366C381.853 102.103 382.52 100.066 383.855 98.2562C385.523 95.9934 387.659 94.7866 390.261 94.6357C392.93 94.4849 395.032 95.126 396.567 96.5591C398.035 97.9168 398.736 99.4253 398.669 101.085C398.603 102.518 397.935 103.31 396.667 103.461V103.461ZM385.256 102.329L395.566 100.858C395.433 99.8779 394.899 99.1236 393.965 98.5956C392.964 97.9922 391.896 97.6905 390.762 97.6905C389.093 97.6905 387.692 98.3694 386.557 99.727C386.024 100.33 385.59 101.198 385.256 102.329ZM419.69 113.304C414.418 113.304 411.782 110.626 411.782 105.271C411.715 101.726 412.917 99.0105 415.386 97.1248C418.188 94.9375 421.125 94.2963 424.194 95.2014C424.528 94.8997 425.062 94.8243 425.796 94.9751C427.197 95.2769 427.765 96.1443 427.498 97.5774C427.231 99.0105 427.064 101.386 426.997 104.705C426.93 107.421 427.264 109.344 427.998 110.475C428.932 112.059 428.766 113.002 427.498 113.304C426.029 113.53 425.195 112.927 424.995 111.494C422.526 112.625 420.758 113.228 419.69 113.304V113.304ZM421.692 109.91C422.159 109.759 422.893 109.268 423.894 108.439C423.494 103.612 423.56 100.293 424.094 98.4825C422.96 97.8037 421.792 97.6151 420.591 97.9168C419.723 98.1431 419.023 98.4448 418.489 98.8219C416.353 100.255 415.252 102.292 415.186 104.931C415.186 108.326 416.42 110.098 418.889 110.249C419.89 110.324 420.824 110.211 421.692 109.91V109.91ZM433.704 93.9569C434.905 93.9569 435.505 94.5226 435.505 95.654C435.505 95.8803 435.505 96.0689 435.505 96.2197C436.773 95.3146 438.041 94.862 439.309 94.862C440.911 94.7866 442.212 95.0129 443.213 95.5408C445.015 96.3705 445.749 97.238 445.415 98.1431C444.881 99.5762 443.947 99.8402 442.612 98.935C441.545 98.2562 440.344 98.0676 439.009 98.3693C437.674 98.5956 436.44 99.2368 435.305 100.293L435.005 111.267C435.005 112.474 434.371 113.078 433.103 113.078C432.102 113.002 431.602 112.399 431.602 111.267L432.002 95.5408C432.002 94.4849 432.569 93.9569 433.704 93.9569V93.9569ZM462.932 103.461L451.121 105.045C451.187 106.327 451.788 107.421 452.923 108.326C454.257 109.457 455.725 110.023 457.327 110.023C459.729 110.023 461.364 109.57 462.232 108.665C462.966 107.835 463.6 107.383 464.134 107.307C464.667 107.157 465.068 107.307 465.335 107.76C465.869 108.816 465.602 109.796 464.534 110.702C462.665 112.286 460.196 113.078 457.127 113.078C454.924 113.002 452.989 112.323 451.321 111.041C449.186 109.382 448.118 107.157 448.118 104.366C448.118 102.103 448.785 100.066 450.12 98.2562C451.788 95.9934 453.924 94.7866 456.526 94.6357C459.195 94.4849 461.297 95.126 462.832 96.5591C464.3 97.9168 465.001 99.4253 464.934 101.085C464.868 102.518 464.2 103.31 462.932 103.461V103.461ZM451.521 102.329L461.831 100.858C461.698 99.8779 461.164 99.1236 460.23 98.5956C459.229 97.9922 458.161 97.6905 457.027 97.6905C455.358 97.6905 453.957 98.3694 452.822 99.727C452.289 100.33 451.855 101.198 451.521 102.329ZM494.764 85.3583C495.965 85.3583 496.565 85.924 496.565 87.0554L495.965 111.267C495.965 112.474 495.331 113.078 494.063 113.078C493.129 113.002 492.628 112.512 492.561 111.607C490.826 112.663 488.958 113.191 486.956 113.191C484.954 113.191 483.152 112.436 481.551 110.928C479.816 109.269 478.915 107.345 478.848 105.158C478.714 102.216 479.515 99.727 481.25 97.6905C482.919 95.8049 485.054 94.862 487.657 94.862C489.058 94.862 490.292 95.126 491.36 95.654C491.894 95.9557 492.395 96.2574 492.862 96.5591L493.062 86.9423C493.129 85.8863 493.696 85.3583 494.764 85.3583ZM492.561 107.76C492.695 105.497 492.762 103.046 492.762 100.406C490.693 98.3694 488.658 97.5774 486.656 98.0299C485.187 98.4071 484.12 98.9728 483.452 99.727C482.518 100.858 482.018 102.405 481.951 104.366C481.951 105.648 482.451 106.893 483.452 108.099C484.253 109.155 485.421 109.759 486.956 109.91C488.624 110.06 490.493 109.344 492.561 107.76ZM503.772 87.1685C503.772 87.1685 503.806 87.1685 503.872 87.1685C504.273 87.1685 504.64 87.2817 504.974 87.5079C505.307 87.6588 505.574 87.9228 505.774 88.2999C505.908 88.6016 505.975 88.941 505.975 89.3182C505.975 89.3182 505.975 89.3559 505.975 89.4313C505.975 89.8085 505.841 90.1856 505.574 90.5627C505.307 90.789 505.04 90.9776 504.773 91.1284C504.506 91.2793 504.173 91.3547 503.772 91.3547C503.772 91.3547 503.739 91.3547 503.672 91.3547C503.339 91.3547 503.005 91.2415 502.671 91.0153C502.404 90.8644 502.171 90.6381 501.971 90.3364C501.77 90.0347 501.67 89.6953 501.67 89.3182C501.67 88.941 501.737 88.6016 501.871 88.2999C502.071 87.9228 502.338 87.6588 502.671 87.5079C503.005 87.2817 503.372 87.1685 503.772 87.1685V87.1685ZM503.672 94.7489C504.74 94.8243 505.274 95.5786 505.274 97.0117L504.974 110.928C504.974 112.436 504.44 113.191 503.372 113.191C502.104 113.191 501.47 112.474 501.47 111.041L501.77 97.0117C501.837 95.5032 502.471 94.7489 503.672 94.7489ZM515.284 109.91C517.886 110.06 519.488 109.721 520.088 108.891C520.556 108.213 520.289 107.383 519.288 106.402C518.62 105.723 517.152 105.233 514.883 104.931C512.481 104.554 511.08 103.649 510.679 102.216C510.412 101.16 510.512 100.029 510.979 98.8219C511.447 97.5397 512.181 96.5592 513.182 95.8803C514.383 95.1261 515.717 94.6735 517.186 94.5226C518.921 94.3718 520.455 94.598 521.79 95.2014C523.458 95.9557 524.359 96.8608 524.493 97.9168C524.626 98.5957 524.426 99.1236 523.892 99.5007C523.225 100.029 522.19 99.6893 520.789 98.4825C520.122 97.8037 519.121 97.502 517.786 97.5774C516.385 97.6528 515.35 98.0677 514.683 98.8219C514.082 99.4253 513.916 100.066 514.183 100.745C514.383 101.349 515.184 101.726 516.585 101.877C517.719 102.028 518.754 102.292 519.688 102.669C520.956 103.272 521.857 103.876 522.391 104.479C523.592 105.837 524.092 107.194 523.892 108.552C523.692 110.06 522.858 111.267 521.39 112.172C520.255 112.927 518.72 113.304 516.785 113.304C515.117 113.304 513.749 113.153 512.681 112.851C512.08 112.7 511.313 112.361 510.379 111.833C509.578 111.456 509.144 110.928 509.078 110.249C509.078 109.495 509.344 108.929 509.878 108.552C510.546 108.175 511.28 108.25 512.081 108.778C513.148 109.457 514.216 109.834 515.284 109.91V109.91ZM540.208 108.778C541.209 108.099 542.043 108.288 542.711 109.344C543.111 110.023 542.811 110.777 541.81 111.607C540.542 112.663 538.506 113.153 535.704 113.078C533.501 113.078 531.7 112.436 530.298 111.154C528.497 109.495 527.596 107.421 527.596 104.931C527.596 102.141 528.23 99.8779 529.498 98.1431C531.032 96.0312 533.001 94.8998 535.403 94.7489C536.805 94.5981 538.073 94.7112 539.207 95.0883C540.675 95.5409 541.643 96.1066 542.11 96.7854C542.777 97.8414 542.711 98.6711 541.91 99.2745C541.376 99.6516 540.542 99.4253 539.407 98.5956C538.006 97.6151 536.438 97.3888 534.703 97.9168C533.768 98.2185 532.901 98.8974 532.1 99.9533C531.233 101.16 530.765 102.556 530.699 104.14C530.699 105.648 531.166 107.043 532.1 108.326C532.968 109.382 534.169 109.947 535.704 110.023C537.305 110.098 538.807 109.683 540.208 108.778V108.778ZM553.321 113.304C548.049 113.304 545.38 110.626 545.313 105.271C545.313 101.726 546.514 99.0105 548.917 97.1248C551.786 94.9375 554.756 94.2963 557.825 95.2014C558.159 94.8997 558.693 94.8243 559.427 94.9751C560.828 95.2769 561.396 96.1443 561.129 97.5774C560.862 99.0105 560.695 101.386 560.628 104.705C560.561 107.421 560.862 109.344 561.529 110.475C562.53 112.059 562.396 113.002 561.129 113.304C559.66 113.53 558.793 112.927 558.526 111.494C556.124 112.625 554.389 113.228 553.321 113.304V113.304ZM555.323 109.91C555.723 109.759 556.457 109.268 557.525 108.439C557.125 103.612 557.191 100.293 557.725 98.4825C556.591 97.8037 555.39 97.6151 554.122 97.9168C553.254 98.1431 552.554 98.4448 552.02 98.8219C549.951 100.255 548.883 102.292 548.817 104.931C548.817 108.326 550.018 110.098 552.42 110.249C553.488 110.324 554.455 110.211 555.323 109.91V109.91ZM567.235 93.9569C568.436 93.9569 569.036 94.5226 569.036 95.654C569.036 95.8803 569.036 96.0689 569.036 96.2197C570.371 95.3146 571.672 94.862 572.94 94.862C574.475 94.7866 575.776 95.0129 576.844 95.5408C578.579 96.3705 579.313 97.238 579.046 98.1431C578.512 99.5762 577.578 99.8402 576.243 98.935C575.176 98.2562 573.941 98.0676 572.54 98.3693C571.272 98.5956 570.071 99.2368 568.936 100.293L568.636 111.267C568.569 112.474 567.935 113.078 566.734 113.078C565.666 113.002 565.166 112.399 565.233 111.267L565.633 95.5408C565.633 94.4849 566.167 93.9569 567.235 93.9569V93.9569ZM597.764 85.3583C599.032 85.3583 599.633 85.924 599.566 87.0554L599.066 111.267C599.066 112.474 598.432 113.078 597.164 113.078C596.23 113.002 595.696 112.512 595.562 111.607C593.827 112.663 591.992 113.191 590.057 113.191C588.055 113.191 586.253 112.436 584.652 110.928C582.917 109.269 582.016 107.345 581.949 105.158C581.816 102.216 582.616 99.727 584.351 97.6905C585.953 95.8049 588.088 94.862 590.758 94.862C592.159 94.862 593.394 95.126 594.461 95.654C594.995 95.9557 595.496 96.2574 595.963 96.5591L596.163 86.9423C596.23 85.8863 596.763 85.3583 597.764 85.3583ZM595.662 107.76C595.796 105.497 595.863 103.046 595.863 100.406C593.794 98.3694 591.759 97.5774 589.757 98.0299C588.222 98.4071 587.154 98.9728 586.554 99.727C585.619 100.858 585.119 102.405 585.052 104.366C585.052 105.648 585.553 106.893 586.554 108.099C587.354 109.155 588.522 109.759 590.057 109.91C591.725 110.06 593.594 109.344 595.662 107.76ZM617.684 103.461L605.872 105.045C605.939 106.327 606.54 107.421 607.674 108.326C609.009 109.457 610.51 110.023 612.179 110.023C614.514 110.023 616.116 109.57 616.983 108.665C617.784 107.835 618.418 107.383 618.885 107.307C619.419 107.157 619.819 107.307 620.086 107.76C620.62 108.816 620.353 109.796 619.286 110.702C617.417 112.286 614.948 113.078 611.878 113.078C609.676 113.002 607.741 112.323 606.073 111.041C603.937 109.382 602.87 107.157 602.87 104.366C602.87 102.103 603.537 100.066 604.871 98.2562C606.54 95.9934 608.675 94.7866 611.278 94.6357C613.947 94.4849 616.049 95.126 617.584 96.5591C619.052 97.9168 619.753 99.4253 619.686 101.085C619.619 102.518 618.952 103.31 617.684 103.461ZM606.273 102.329L616.683 100.858C616.483 99.8779 615.949 99.1236 615.082 98.5956C614.014 97.9922 612.913 97.6905 611.778 97.6905C610.11 97.6905 608.709 98.3694 607.574 99.727C607.04 100.33 606.606 101.198 606.273 102.329ZM638.705 85.3583C639.906 85.3583 640.506 85.924 640.506 87.0554L640.006 111.267C639.939 112.474 639.272 113.078 638.004 113.078C637.07 113.002 636.569 112.512 636.502 111.607C634.767 112.663 632.932 113.191 630.997 113.191C628.928 113.191 627.127 112.436 625.592 110.928C623.857 109.269 622.922 107.345 622.789 105.158C622.722 102.216 623.556 99.727 625.291 97.6905C626.893 95.8049 629.028 94.862 631.698 94.862C633.099 94.862 634.3 95.126 635.301 95.654C635.902 95.9557 636.436 96.2574 636.903 96.5591L637.103 86.9423C637.103 85.8863 637.637 85.3583 638.705 85.3583V85.3583ZM636.603 107.76C636.736 105.497 636.803 103.046 636.803 100.406C634.734 98.3694 632.665 97.5774 630.597 98.0299C629.129 98.4071 628.061 98.9728 627.394 99.727C626.459 100.858 625.992 102.405 625.992 104.366C625.925 105.648 626.393 106.893 627.394 108.099C628.194 109.155 629.396 109.759 630.997 109.91C632.599 110.06 634.467 109.344 636.603 107.76ZM669.435 103.461L657.623 105.045C657.69 106.327 658.291 107.421 659.425 108.326C660.693 109.457 662.161 110.023 663.829 110.023C666.232 110.023 667.833 109.57 668.634 108.665C669.435 107.835 670.069 107.383 670.536 107.307C671.136 107.157 671.537 107.307 671.737 107.76C672.338 108.816 672.104 109.796 671.036 110.702C669.101 112.286 666.632 113.078 663.629 113.078C661.36 113.002 659.392 112.323 657.723 111.041C655.655 109.382 654.62 107.157 654.62 104.366C654.62 102.103 655.254 100.066 656.522 98.2562C658.19 95.9934 660.326 94.7866 662.928 94.6357C665.664 94.4849 667.8 95.126 669.335 96.5591C670.736 97.9168 671.403 99.4253 671.337 101.085C671.337 102.518 670.703 103.31 669.435 103.461V103.461ZM657.924 102.329L668.334 100.858C668.133 99.8779 667.6 99.1236 666.732 98.5956C665.664 97.9922 664.563 97.6905 663.429 97.6905C661.827 97.6905 660.426 98.3694 659.225 99.727C658.691 100.33 658.257 101.198 657.924 102.329ZM674.84 94.7489C676.041 94.2964 676.909 94.7866 677.443 96.2197L681.847 107.986L686.351 96.2197C686.885 94.7866 687.719 94.2964 688.854 94.7489C689.855 95.2015 690.088 96.1066 689.554 97.4642L683.949 111.267C683.482 112.474 682.781 113.078 681.847 113.078C680.979 113.078 680.279 112.474 679.745 111.267L674.239 97.4642C673.639 96.1066 673.839 95.2015 674.84 94.7489ZM706.671 103.461L694.86 105.045C694.926 106.327 695.527 107.421 696.661 108.326C697.996 109.457 699.464 110.023 701.066 110.023C703.468 110.023 705.07 109.57 705.87 108.665C706.671 107.835 707.339 107.383 707.872 107.307C708.406 107.157 708.807 107.307 709.074 107.76C709.607 108.816 709.341 109.796 708.273 110.702C706.404 112.286 703.935 113.078 700.866 113.078C698.663 113.002 696.695 112.323 694.96 111.041C692.891 109.382 691.857 107.157 691.857 104.366C691.857 102.103 692.524 100.066 693.859 98.2562C695.46 95.9934 697.562 94.7866 700.165 94.6357C702.901 94.4849 705.036 95.126 706.571 96.5591C707.973 97.9168 708.673 99.4253 708.673 101.085C708.607 102.518 707.939 103.31 706.671 103.461ZM695.26 102.329L705.57 100.858C705.437 99.8779 704.903 99.1236 703.969 98.5956C702.968 97.9922 701.867 97.6905 700.665 97.6905C699.064 97.6905 697.662 98.3694 696.461 99.727C695.994 100.33 695.594 101.198 695.26 102.329V102.329ZM714.479 93.9569C715.68 93.9569 716.281 94.5226 716.281 95.654C716.281 95.8803 716.281 96.0689 716.281 96.2197C717.549 95.3146 718.817 94.862 720.084 94.862C721.686 94.7866 722.987 95.0129 723.988 95.5408C725.79 96.3705 726.524 97.238 726.19 98.1431C725.657 99.5762 724.722 99.8402 723.388 98.935C722.32 98.2562 721.119 98.0676 719.784 98.3693C718.45 98.5956 717.215 99.2368 716.081 100.293L715.78 111.267C715.78 112.474 715.146 113.078 713.878 113.078C712.877 113.002 712.377 112.399 712.377 111.267L712.777 95.5408C712.777 94.4849 713.345 93.9569 714.479 93.9569V93.9569ZM744.208 95.0883C745.343 95.5409 745.609 96.4083 745.009 97.6905L734.999 119.753C734.198 121.563 733.264 122.28 732.196 121.902C730.995 121.374 730.795 120.243 731.596 118.508L735.099 110.815L727.792 97.9168C727.058 96.5591 727.191 95.6163 728.192 95.0883C729.26 94.5603 730.194 94.9752 730.995 96.3328L736.801 106.968L741.706 96.3328C742.306 95.0506 743.14 94.6358 744.208 95.0883V95.0883ZM773.737 95.0883C774.872 95.5409 775.138 96.4083 774.538 97.6905L764.528 119.753C763.727 121.563 762.793 122.28 761.725 121.902C760.524 121.374 760.324 120.243 761.125 118.508L764.628 110.815L757.321 97.9168C756.587 96.5591 756.72 95.6163 757.721 95.0883C758.789 94.5603 759.69 94.9752 760.424 96.3328L766.33 106.968L771.235 96.3328C771.835 95.0506 772.669 94.6358 773.737 95.0883ZM792.055 103.461L780.243 105.045C780.243 106.327 780.811 107.421 781.945 108.326C783.28 109.457 784.781 110.023 786.449 110.023C788.852 110.023 790.453 109.57 791.254 108.665C792.055 107.835 792.689 107.383 793.156 107.307C793.757 107.157 794.157 107.307 794.357 107.76C794.958 108.816 794.724 109.796 793.657 110.702C791.721 112.286 789.252 113.078 786.249 113.078C783.98 113.002 782.012 112.323 780.344 111.041C778.275 109.382 777.241 107.157 777.241 104.366C777.241 102.103 777.874 100.066 779.142 98.2562C780.811 95.9934 782.946 94.7866 785.549 94.6357C788.285 94.4849 790.387 95.126 791.855 96.5591C793.323 97.9168 794.024 99.4253 793.957 101.085C793.957 102.518 793.323 103.31 792.055 103.461ZM780.544 102.329L790.954 100.858C790.754 99.8779 790.22 99.1236 789.352 98.5956C788.285 97.9922 787.184 97.6905 786.049 97.6905C784.448 97.6905 783.046 98.3694 781.845 99.727C781.311 100.33 780.877 101.198 780.544 102.329ZM804.267 113.304C798.995 113.304 796.326 110.626 796.259 105.271C796.259 101.726 797.494 99.0105 799.963 97.1248C802.765 94.9375 805.702 94.2963 808.771 95.2014C809.105 94.8997 809.639 94.8243 810.373 94.9751C811.774 95.2769 812.342 96.1443 812.075 97.5774C811.808 99.0105 811.641 101.386 811.574 104.705C811.507 107.421 811.808 109.344 812.475 110.475C813.476 112.059 813.343 113.002 812.075 113.304C810.607 113.53 809.772 112.927 809.572 111.494C807.103 112.625 805.335 113.228 804.267 113.304V113.304ZM806.269 109.91C806.736 109.759 807.47 109.268 808.471 108.439C808.071 103.612 808.137 100.293 808.671 98.4825C807.537 97.8037 806.336 97.6151 805.068 97.9168C804.2 98.1431 803.533 98.4448 803.066 98.8219C800.93 100.255 799.829 102.292 799.763 104.931C799.763 108.326 800.997 110.098 803.466 110.249C804.467 110.324 805.401 110.211 806.269 109.91V109.91ZM818.181 93.9569C819.382 93.9569 819.982 94.5226 819.982 95.654C819.982 95.8803 819.982 96.0689 819.982 96.2197C821.317 95.3146 822.618 94.862 823.886 94.862C825.488 94.7866 826.789 95.0129 827.79 95.5408C829.525 96.3705 830.259 97.238 829.992 98.1431C829.458 99.5762 828.524 99.8402 827.189 98.935C826.122 98.2562 824.921 98.0676 823.586 98.3693C822.251 98.5956 821.017 99.2368 819.882 100.293L819.582 111.267C819.582 112.474 818.948 113.078 817.68 113.078C816.612 113.002 816.112 112.399 816.179 111.267L816.579 95.5408C816.579 94.4849 817.113 93.9569 818.181 93.9569V93.9569ZM835.798 109.683C835.798 109.683 835.831 109.683 835.898 109.683C836.298 109.683 836.665 109.797 836.999 110.023C837.333 110.174 837.6 110.438 837.8 110.815C837.933 111.116 838 111.456 838 111.833C838 111.833 838 111.871 838 111.946C838 112.399 837.867 112.776 837.6 113.078C837.333 113.379 837.066 113.568 836.799 113.643C836.532 113.794 836.198 113.869 835.798 113.869C835.798 113.869 835.765 113.869 835.698 113.869C835.364 113.869 835.03 113.794 834.697 113.643C834.43 113.417 834.196 113.153 833.996 112.851C833.796 112.55 833.696 112.21 833.696 111.833C833.696 111.456 833.763 111.116 833.896 110.815C834.096 110.513 834.363 110.249 834.697 110.023C835.03 109.797 835.398 109.683 835.798 109.683V109.683Z" fill="#E4F4ED"/>
<path d="M625.196 47.3717C625.262 45.1165 626.129 42.8236 627.796 40.4931C629.396 38.3131 631.729 36.5089 634.796 35.0805C636.796 34.1784 637.829 32.487 637.896 30.0062C637.962 28.653 637.296 27.6381 635.896 26.9615C634.562 26.3601 633.196 26.285 631.796 26.7361C630.929 26.9616 629.862 27.7885 628.596 29.2168C627.596 30.2693 626.662 30.4572 625.796 29.7806C624.996 29.1792 624.929 28.5027 625.596 27.7509C626.929 26.1722 628.062 25.1198 628.996 24.5935C630.262 23.8418 631.829 23.4659 633.696 23.4659C635.496 23.4659 636.929 23.8042 637.996 24.4808C640.329 25.834 641.462 27.7885 641.396 30.3444C641.329 33.8025 639.829 36.1706 636.896 37.4486C634.162 38.5762 632.096 40.1173 630.696 42.0719C629.362 43.9512 628.662 45.4172 628.596 46.4697C632.329 46.4697 636.062 46.5072 639.796 46.5824C640.996 46.5824 641.596 47.071 641.596 48.0483C641.596 49.1008 640.996 49.627 639.796 49.627H626.896C625.696 49.627 625.129 48.8753 625.196 47.3717V47.3717ZM655.596 26.6233C651.062 26.6233 648.796 29.8559 648.796 36.321C648.796 43.1619 650.896 46.5824 655.096 46.5824C659.295 46.5824 661.396 43.0867 661.396 36.0954C661.396 29.7807 659.462 26.6233 655.596 26.6233V26.6233ZM655.596 23.4659C661.862 23.4659 664.995 27.6758 664.995 36.0954C664.995 45.1165 661.695 49.627 655.096 49.627C648.562 49.627 645.296 45.2292 645.296 36.4337C645.296 27.7885 648.729 23.4659 655.596 23.4659ZM669.495 38.4634H677.895C679.029 38.4634 679.595 38.8769 679.595 39.7039C679.595 40.606 679.062 41.057 677.995 41.057H669.395C668.595 41.057 668.195 40.6435 668.195 39.8166C668.195 38.9145 668.629 38.4634 669.495 38.4634V38.4634ZM686.295 23.8042L698.695 23.6914C699.962 23.6914 700.595 24.2176 700.595 25.2701C700.595 26.3977 699.995 26.9615 698.795 26.9615H688.095L687.395 33.3891C689.195 32.0359 691.095 31.3593 693.095 31.3593C698.829 31.3593 701.629 34.1032 701.495 39.591C701.429 46.7327 697.595 50.1533 689.995 49.8526C687.262 49.7022 685.229 48.6121 683.895 46.5824C683.295 45.6803 683.262 44.9661 683.795 44.4399C684.862 43.6129 685.762 43.6129 686.495 44.4399C687.695 45.9434 689.095 46.6951 690.695 46.6951C695.229 46.6951 697.695 44.3271 698.095 39.591C698.362 36.2081 696.695 34.5543 693.095 34.6295C691.229 34.6295 689.729 35.1933 688.595 36.321C687.129 37.7493 685.929 38.4259 684.995 38.3507C683.995 38.3507 683.562 37.6365 683.695 36.2081L684.795 24.7063C684.929 24.1049 685.429 23.8042 686.295 23.8042V23.8042ZM714.595 26.6233C710.062 26.6233 707.795 29.8559 707.795 36.321C707.795 43.1619 709.862 46.5824 713.995 46.5824C718.262 46.5824 720.395 43.0867 720.395 36.0954C720.395 29.7807 718.462 26.6233 714.595 26.6233V26.6233ZM714.495 23.4659C720.762 23.4659 723.895 27.6758 723.895 36.0954C723.895 45.1165 720.595 49.627 713.995 49.627C707.529 49.627 704.295 45.2292 704.295 36.4337C704.295 27.7885 707.695 23.4659 714.495 23.4659ZM746.695 30.57C747.962 30.57 748.562 31.1338 748.495 32.2614V32.9381C749.562 32.0359 750.828 31.5849 752.295 31.5849C754.762 31.5097 756.428 32.3367 757.295 34.0657C758.495 32.4118 760.295 31.5849 762.695 31.5849C767.095 31.5849 769.261 34.1033 769.195 39.14L769.095 47.4845C769.028 48.8376 768.461 49.5518 767.395 49.627C766.128 49.7022 765.495 49.1007 765.495 47.8228L765.595 40.0421C765.661 36.7344 764.761 35.0805 762.895 35.0805C760.761 35.0053 759.295 35.945 758.495 37.8996C758.495 37.8996 758.495 38.2379 758.495 38.9145L758.195 47.2589C758.195 48.6121 757.661 49.3263 756.595 49.4015C755.395 49.4766 754.795 48.8376 754.795 47.4845L754.995 39.8166C755.062 36.6592 754.195 35.0805 752.395 35.0805C750.328 35.0053 748.995 36.0954 748.395 38.3507L748.095 47.5973C748.028 48.8001 747.395 49.4015 746.195 49.4015C745.128 49.4015 744.628 48.8001 744.695 47.5973L745.095 32.1487C745.095 31.0962 745.628 30.57 746.695 30.57V30.57ZM776.095 23.8042C776.095 23.8042 776.128 23.8042 776.195 23.8042C776.595 23.8042 776.961 23.8794 777.295 24.0297C777.628 24.2553 777.895 24.5559 778.095 24.9318C778.295 25.2325 778.395 25.5332 778.395 25.8339C778.395 25.9091 778.395 25.9843 778.395 26.0595C778.328 26.4353 778.161 26.7736 777.895 27.0743C777.695 27.3751 777.428 27.6006 777.095 27.7509C776.828 27.9013 776.528 27.9764 776.195 27.9764C776.128 27.9764 776.095 27.9764 776.095 27.9764C775.695 27.9013 775.361 27.7885 775.095 27.6382C774.761 27.4878 774.495 27.2622 774.295 26.9615C774.095 26.5857 773.995 26.2098 773.995 25.8339C773.995 25.458 774.095 25.1198 774.295 24.8191C774.495 24.5184 774.728 24.2553 774.995 24.0297C775.328 23.8794 775.695 23.8042 776.095 23.8042V23.8042ZM775.995 31.3593C777.128 31.3593 777.661 32.0735 777.595 33.5019L777.395 47.3717C777.328 48.8753 776.761 49.627 775.695 49.627C774.428 49.627 773.828 48.9504 773.895 47.5973L774.195 33.5019C774.195 32.0735 774.795 31.3593 775.995 31.3593V31.3593ZM785.995 22C787.195 22 787.795 22.5262 787.795 23.5786L787.195 47.8228C787.195 49.0256 786.561 49.5894 785.295 49.5142C784.228 49.5142 783.728 48.9128 783.795 47.71L784.395 23.4659C784.395 22.4886 784.928 22 785.995 22ZM795.895 22C797.095 22 797.661 22.5262 797.595 23.5786L797.095 47.8228C797.095 49.0256 796.461 49.5894 795.195 49.5142C794.128 49.5142 793.595 48.9128 793.595 47.71L794.195 23.4659C794.261 22.4886 794.828 22 795.895 22V22ZM805.895 23.8042C805.961 23.8042 805.994 23.8042 805.994 23.8042C806.394 23.8042 806.761 23.8794 807.094 24.0297C807.428 24.2553 807.694 24.5559 807.894 24.9318C808.094 25.2325 808.194 25.5332 808.194 25.8339C808.194 25.9091 808.194 25.9843 808.194 26.0595C808.128 26.4353 807.961 26.7736 807.694 27.0743C807.494 27.3751 807.261 27.6006 806.994 27.7509C806.661 27.9013 806.328 27.9764 805.994 27.9764C805.928 27.9764 805.895 27.9764 805.895 27.9764C805.495 27.9013 805.161 27.7885 804.895 27.6382C804.561 27.4878 804.294 27.2622 804.094 26.9615C803.894 26.5857 803.794 26.2098 803.794 25.8339C803.794 25.458 803.894 25.1198 804.094 24.8191C804.294 24.5184 804.528 24.2553 804.794 24.0297C805.128 23.8794 805.495 23.8042 805.895 23.8042ZM805.794 31.3593C806.928 31.3593 807.461 32.0735 807.395 33.5019L807.194 47.3717C807.194 48.8753 806.628 49.627 805.494 49.627C804.228 49.627 803.628 48.9504 803.695 47.5973L803.994 33.5019C803.994 32.0735 804.594 31.3593 805.794 31.3593V31.3593ZM820.594 34.7422C819.061 34.7422 817.928 35.2309 817.194 36.2081C815.994 37.7117 815.394 39.4031 815.394 41.2825C815.394 43.0115 815.828 44.2895 816.694 45.1165C817.561 46.0186 818.561 46.4697 819.694 46.4697C820.961 46.4697 822.028 46.0186 822.894 45.1165C823.828 44.2144 824.294 42.7109 824.294 40.6059C824.294 36.6216 823.061 34.6671 820.594 34.7422V34.7422ZM820.494 31.3593C825.228 31.3593 827.594 34.5543 827.594 40.9442C827.594 43.6505 826.961 45.7179 825.694 47.1462C824.294 48.8752 822.161 49.7022 819.294 49.627C817.161 49.627 815.361 48.8001 813.894 47.1462C812.628 45.7179 811.994 43.6505 811.994 40.9442C811.994 38.3883 812.761 36.133 814.294 34.1784C815.828 32.2239 817.894 31.2842 820.494 31.3593V31.3593ZM833.894 30.57C835.094 30.57 835.694 31.1338 835.694 32.2614C835.628 32.5621 835.594 32.8628 835.594 33.1635C836.861 32.1111 838.494 31.5849 840.494 31.5849C844.961 31.5849 847.128 34.1033 846.994 39.14L846.894 47.4845C846.894 48.8376 846.328 49.5518 845.194 49.627C843.928 49.7774 843.328 49.1759 843.394 47.8228L843.594 39.9293C843.661 36.8471 842.728 35.2309 840.794 35.0805C839.128 35.0053 837.361 35.8323 835.494 37.5613L835.294 47.71C835.228 48.9128 834.561 49.5142 833.294 49.5142C832.228 49.439 831.728 48.8001 831.794 47.5973L832.194 32.1487C832.194 31.0962 832.761 30.57 833.894 30.57ZM24.1 93.7174C25.3 93.7174 25.9 94.2813 25.9 95.4089V96.0855C26.9 95.1834 28.1666 94.7323 29.6999 94.7323C32.0999 94.6572 33.7332 95.4841 34.5999 97.2131C35.7999 95.5593 37.5999 94.7323 39.9999 94.7323C44.4665 94.7323 46.6665 97.2507 46.5998 102.287L46.3998 110.632C46.3998 111.985 45.8332 112.699 44.6998 112.774C43.4332 112.85 42.8332 112.248 42.8999 110.97L42.9999 103.19C42.9999 99.8819 42.0999 98.228 40.2999 98.228C38.0999 98.1528 36.6332 99.0925 35.8999 101.047C35.8332 101.047 35.7999 101.385 35.7999 102.062L35.5999 110.406C35.5999 111.76 35.0332 112.474 33.8999 112.549C32.6999 112.624 32.1333 111.985 32.1999 110.632L32.2999 102.964C32.3666 99.8067 31.4999 98.228 29.6999 98.228C27.7 98.1528 26.3666 99.2429 25.7 101.498L25.4 110.745C25.4 111.948 24.8 112.549 23.6 112.549C22.5333 112.549 22 111.948 22 110.745L22.4 95.2962C22.4667 94.2437 23.0333 93.7174 24.1 93.7174V93.7174ZM64.2997 103.19L52.4998 104.768C52.5665 106.046 53.1665 107.136 54.2998 108.038C55.6331 109.166 57.1331 109.73 58.7997 109.73C61.1331 109.655 62.733 109.204 63.5997 108.377C64.3997 107.55 65.033 107.061 65.4997 106.911C66.0997 106.836 66.4997 107.024 66.6997 107.475C67.233 108.527 66.9664 109.504 65.8997 110.406C64.033 111.985 61.5664 112.737 58.4997 112.662C56.2998 112.662 54.3664 112.023 52.6998 110.745C50.5665 109.091 49.4998 106.873 49.4998 104.092C49.4998 101.761 50.1665 99.7315 51.4998 98.0024C53.1664 95.7472 55.2998 94.5444 57.8997 94.3941C60.5664 94.2437 62.6664 94.8826 64.1997 96.311C65.6664 97.589 66.3664 99.0925 66.2997 100.822C66.233 102.175 65.5664 102.964 64.2997 103.19ZM52.8998 101.949L63.2997 100.596C63.0997 99.6188 62.5664 98.867 61.6997 98.3408C60.6331 97.6642 59.5331 97.3259 58.3997 97.3259C56.7331 97.3259 55.3331 98.0401 54.1998 99.4684C53.6664 100.07 53.2331 100.897 52.8998 101.949V101.949ZM76.3996 85.1475C77.5329 85.1475 78.0996 85.6736 78.0996 86.7261C78.0996 89.5828 78.0663 92.1764 77.9996 94.5068H81.5996C82.9996 94.5068 83.6996 95.0706 83.6996 96.1982C83.6996 97.3259 83.0329 97.8897 81.6996 97.8897C80.4329 97.8897 79.1663 97.8897 77.8996 97.8897L77.5996 110.97C77.5996 112.173 76.9663 112.737 75.6996 112.662C74.633 112.662 74.0996 112.06 74.0996 110.857L74.4996 97.8897C73.0996 97.8897 71.6997 97.8897 70.2997 97.8897C69.2997 97.8897 68.7997 97.3634 68.7997 96.311C68.7997 95.1833 69.3663 94.6195 70.4997 94.6195C71.833 94.6195 73.1663 94.582 74.4996 94.5068L74.6996 86.6134C74.7663 85.6361 75.333 85.1475 76.3996 85.1475V85.1475ZM89.0995 93.7174C90.2995 93.7174 90.8995 94.2813 90.8995 95.4089C90.8995 95.5592 90.8995 95.7472 90.8995 95.9727C92.1662 95.0706 93.4328 94.582 94.6995 94.5068C96.2995 94.5068 97.5995 94.7323 98.5995 95.1833C100.399 96.0855 101.133 96.9876 100.799 97.8897C100.266 99.318 99.3328 99.5812 97.9995 98.6791C96.9328 98.0025 95.7328 97.7769 94.3995 98.0024C93.0662 98.3031 91.8328 98.9421 90.6995 99.9194L90.3995 110.97C90.3995 112.173 89.7662 112.737 88.4995 112.662C87.4995 112.662 86.9995 112.06 86.9995 110.857L87.3995 95.2962C87.3995 94.2437 87.9662 93.7174 89.0995 93.7174V93.7174ZM107.499 86.9516C107.899 86.9516 108.266 87.0268 108.599 87.1772C108.999 87.4027 109.299 87.7034 109.499 88.0793C109.633 88.38 109.699 88.6807 109.699 88.9814C109.699 89.0565 109.699 89.1317 109.699 89.2069C109.633 89.5828 109.499 89.9211 109.299 90.2218C109.033 90.5225 108.766 90.748 108.499 90.8984C108.166 91.0487 107.833 91.1239 107.499 91.1239C107.499 91.1239 107.466 91.1239 107.399 91.1239C107.066 91.0487 106.733 90.936 106.399 90.7856C106.066 90.6353 105.799 90.4097 105.599 90.109C105.399 89.7331 105.299 89.3572 105.299 88.9814C105.299 88.6055 105.399 88.2672 105.599 87.9665C105.799 87.6658 106.066 87.4027 106.399 87.1772C106.733 87.0268 107.099 86.9516 107.499 86.9516V86.9516ZM107.299 94.5068C108.433 94.5068 108.999 95.221 108.999 96.6493L108.699 110.519C108.699 112.023 108.133 112.774 106.999 112.774C105.733 112.774 105.133 112.098 105.199 110.745L105.499 96.6493C105.566 95.221 106.166 94.5068 107.299 94.5068ZM126.299 108.489C127.366 107.813 128.199 108.001 128.799 109.053C129.199 109.655 128.899 110.369 127.899 111.196C126.633 112.248 124.599 112.774 121.799 112.774C119.666 112.774 117.866 112.098 116.399 110.745C114.599 109.091 113.699 107.024 113.699 104.543C113.699 101.836 114.333 99.6187 115.599 97.8897C117.199 95.7096 119.166 94.5444 121.499 94.3941C122.899 94.3189 124.199 94.4692 125.399 94.8451C126.799 95.2961 127.733 95.8599 128.199 96.5365C128.933 97.589 128.899 98.3784 128.099 98.9046C127.499 99.2805 126.633 99.0925 125.499 98.3408C124.166 97.3635 122.633 97.1379 120.899 97.6642C119.899 97.9649 118.999 98.6414 118.199 99.6939C117.333 100.897 116.899 102.287 116.899 103.866C116.833 105.37 117.266 106.723 118.199 107.926C119.066 109.053 120.266 109.655 121.799 109.73C123.399 109.805 124.899 109.392 126.299 108.489V108.489ZM149.999 85.1475C151.199 85.1475 151.799 85.6736 151.799 86.7261C151.732 89.5828 151.666 92.1764 151.599 94.5068H155.199C156.599 94.5068 157.299 95.0706 157.299 96.1982C157.299 97.3259 156.632 97.8897 155.299 97.8897C154.032 97.8897 152.766 97.8897 151.499 97.8897L151.199 110.97C151.199 112.173 150.566 112.737 149.299 112.662C148.232 112.662 147.699 112.06 147.699 110.857L148.099 97.8897C146.699 97.8897 145.299 97.8897 143.899 97.8897C142.899 97.8897 142.399 97.3634 142.399 96.311C142.399 95.1833 142.966 94.6195 144.099 94.6195C145.432 94.6195 146.766 94.582 148.099 94.5068L148.299 86.6134C148.366 85.6361 148.932 85.1475 149.999 85.1475V85.1475ZM168.399 97.8897C166.866 97.8897 165.699 98.3783 164.899 99.3556C163.766 100.859 163.199 102.551 163.199 104.43C163.199 106.159 163.599 107.437 164.399 108.264C165.266 109.166 166.266 109.617 167.399 109.617C168.666 109.617 169.732 109.166 170.599 108.264C171.532 107.362 172.032 105.858 172.099 103.753C172.099 99.7691 170.866 97.8145 168.399 97.8897V97.8897ZM168.199 94.5068C172.932 94.5068 175.299 97.7018 175.299 104.092C175.299 106.798 174.666 108.865 173.399 110.294C171.999 112.023 169.866 112.85 166.999 112.774C164.932 112.774 163.166 111.948 161.699 110.294C160.366 108.865 159.699 106.798 159.699 104.092C159.699 101.536 160.499 99.2804 162.099 97.3259C163.632 95.3713 165.666 94.4316 168.199 94.5068V94.5068ZM181.599 93.7174C182.799 93.7174 183.399 94.2813 183.399 95.4089C183.399 95.7096 183.399 96.0103 183.399 96.311C184.666 95.2585 186.299 94.7323 188.299 94.7323C192.699 94.7323 194.865 97.2507 194.799 102.287L194.599 110.632C194.599 111.985 194.065 112.699 192.999 112.774C191.665 112.925 191.032 112.323 191.099 110.97L191.299 103.077C191.365 99.9946 190.432 98.3783 188.499 98.228C186.899 98.1528 185.166 98.9797 183.299 100.709L182.999 110.857C182.999 112.06 182.366 112.662 181.099 112.662C180.032 112.586 179.499 111.948 179.499 110.745L179.899 95.2962C179.966 94.2437 180.532 93.7174 181.599 93.7174ZM202.899 109.617C205.565 109.767 207.199 109.429 207.799 108.602C208.265 107.926 207.999 107.061 206.999 106.009C206.332 105.407 204.832 104.956 202.499 104.655C200.099 104.28 198.732 103.377 198.399 101.949C198.065 100.822 198.165 99.6939 198.699 98.5662C199.165 97.2883 199.899 96.311 200.899 95.6344C202.032 94.8075 203.365 94.3564 204.899 94.2813C206.632 94.1309 208.132 94.3565 209.399 94.9579C211.065 95.7096 211.999 96.6117 212.199 97.6642C212.265 98.2656 212.032 98.7918 211.499 99.2429C210.832 99.7691 209.832 99.3932 208.499 98.1152C207.832 97.5138 206.832 97.2507 205.499 97.3259C204.032 97.3259 202.965 97.7018 202.299 98.4535C201.765 99.1301 201.599 99.8067 201.799 100.483C201.999 101.085 202.832 101.461 204.299 101.611C205.365 101.761 206.399 102.024 207.399 102.4C208.665 103.002 209.532 103.565 209.999 104.092C211.199 105.445 211.732 106.836 211.599 108.264C211.399 109.692 210.565 110.895 209.099 111.872C207.899 112.549 206.332 112.925 204.399 113C202.799 113 201.465 112.85 200.399 112.549C199.799 112.399 199.032 112.06 198.099 111.534C197.299 111.083 196.865 110.519 196.799 109.843C196.732 109.166 196.965 108.64 197.499 108.264C198.165 107.888 198.932 107.963 199.799 108.489C200.799 109.166 201.832 109.542 202.899 109.617V109.617Z" fill="#FBF48E"/>
<defs>
<filter id="filter0_d_51_3903" x="0" y="0" width="890" height="172" filterUnits="userSpaceOnUse" color-interpolation-filters="sRGB">
<feFlood flood-opacity="0" result="BackgroundImageFix"/>
<feColorMatrix in="SourceAlpha" type="matrix" values="0 0 0 0 0 0 0 0 0 0 0 0 0 0 0 0 0 0 127 0" result="hardAlpha"/>
<feMorphology radius="1" operator="dilate" in="SourceAlpha" result="effect1_dropShadow_51_3903"/>
<feOffset dx="12" dy="12"/>
<feGaussianBlur stdDeviation="5"/>
<feComposite in2="hardAlpha" operator="out"/>
<feColorMatrix type="matrix" values="0 0 0 0 0 0 0 0 0 0 0 0 0 0 0 0 0 0 0.25 0"/>
<feBlend mode="normal" in2="BackgroundImageFix" result="effect1_dropShadow_51_3903"/>
<feBlend mode="normal" in="SourceGraphic" in2="effect1_dropShadow_51_3903" result="shape"/>
</filter>
</defs>
</svg>
