<svg width="949" height="209" viewBox="0 0 949 209" fill="none" xmlns="http://www.w3.org/2000/svg">
<g filter="url(#filter0_d_51_3905)">
<rect width="926" height="186" rx="22" fill="#32594A"/>
</g>
<path d="M40.2513 33.2838C37.5836 33.0467 35.2698 34.1137 33.3098 36.4849C30.3699 39.8837 28.8999 44.231 28.8999 49.5267C28.8999 52.1351 29.5532 54.3087 30.8599 56.0476C32.4387 58.0236 34.562 59.0117 37.2297 59.0117C39.7886 59.0117 41.8029 57.9446 43.2729 55.8105C45.9406 51.9375 47.3017 47.6297 47.3561 42.8873C47.4106 36.9592 45.0423 33.758 40.2513 33.2838V33.2838ZM40.088 28.897C47.3834 29.0551 51.0039 33.7185 50.9494 42.8873C50.895 48.8154 49.425 53.9135 46.5395 58.1817C44.0351 61.8176 40.9319 63.596 37.2297 63.517C33.3098 63.517 30.1249 61.8967 27.6749 58.656C25.9872 56.2847 25.1433 53.2417 25.1433 49.5267C25.1433 43.6777 26.7222 38.54 29.8799 34.1137C32.3843 30.5569 35.787 28.818 40.088 28.897V28.897ZM56.9926 38.2634C58.2448 38.2634 58.8709 38.9747 58.8709 40.3975C58.8165 40.7927 58.7892 41.2274 58.7892 41.7017C60.0959 40.2789 61.7836 39.5675 63.8524 39.5675C68.3712 39.5675 70.5762 42.9268 70.4673 49.6453L70.304 60.6715C70.2495 62.4104 69.6779 63.3194 68.589 63.3984C67.2824 63.5565 66.6291 62.7661 66.6291 61.0272L66.8741 50.5938C66.9829 46.5627 66.0574 44.4286 64.0974 44.1914C62.4097 44.0334 60.6131 45.1399 58.7076 47.5112L58.3809 60.7901C58.3264 62.3709 57.6732 63.1613 56.421 63.1613C55.3321 63.0823 54.8149 62.2524 54.8693 60.6715L55.2776 40.2789C55.3321 38.9352 55.9038 38.2634 56.9926 38.2634V38.2634ZM77.2455 27C78.4432 27 79.0421 27.7114 79.0421 29.1341L78.3888 61.0272C78.3888 62.608 77.7354 63.3589 76.4288 63.2799C75.3399 63.2799 74.8228 62.4895 74.8772 60.9087L75.5305 29.0155C75.585 27.6718 76.1566 27 77.2455 27V27ZM99.1317 39.9232C100.275 40.4765 100.547 41.6226 99.9483 43.3615L89.5769 72.2906C88.7603 74.6618 87.8347 75.5708 86.8003 75.0175C85.5481 74.3852 85.3303 72.8834 86.1469 70.5121L89.7402 60.4344L82.3087 43.4801C81.5465 41.7412 81.6826 40.516 82.7171 39.8047C83.8604 39.0933 84.8131 39.6071 85.5753 41.346L91.5368 55.4548L96.5184 41.5831C97.1173 39.8442 97.9884 39.2909 99.1317 39.9232V39.9232ZM659.353 62.5685C660.169 63.1218 660.36 63.9517 659.924 65.0583L657.556 71.2235C657.012 72.6463 656.358 73.16 655.596 72.7648C654.779 72.2906 654.589 71.4211 655.024 70.1565L657.148 63.7541C657.583 62.3314 658.318 61.9362 659.353 62.5685V62.5685ZM690.549 66.8367C685.159 66.8367 682.437 63.3194 682.382 56.2847C682.382 51.6213 683.634 48.0645 686.139 45.6142C689.024 42.7687 692.046 41.9388 695.204 43.1244C695.53 42.8082 696.047 42.7292 696.755 42.8873C698.225 43.2825 698.824 44.4286 698.552 46.3256C698.28 48.1435 698.089 51.2656 697.98 55.6919C697.926 59.2488 698.252 61.7386 698.96 63.1613C699.995 65.2954 699.858 66.5206 698.552 66.8367C697.027 67.2319 696.156 66.481 695.939 64.5841C693.434 66.0858 691.638 66.8367 690.549 66.8367V66.8367ZM692.59 62.45C693.026 62.2128 693.788 61.5805 694.877 60.553C694.441 54.2297 694.496 49.8824 695.04 47.5112C693.897 46.6417 692.699 46.3651 691.447 46.6812C690.522 46.9974 689.814 47.3926 689.324 47.8669C687.146 49.7639 686.003 52.4117 685.894 55.8105C685.948 60.3158 687.2 62.6871 689.65 62.9242C690.685 63.0032 691.665 62.8452 692.59 62.45V62.45ZM714.885 61.0272C715.974 60.2368 716.845 60.5135 717.498 61.8571C717.879 62.7266 717.553 63.6751 716.518 64.7026C715.211 66.1254 713.143 66.7972 710.312 66.7182C708.079 66.7182 706.228 65.8487 704.758 64.1098C702.907 61.8967 702.009 59.1698 702.063 55.9291C702.063 52.2932 702.717 49.3291 704.023 47.0369C705.602 44.2705 707.617 42.7687 710.067 42.5316C711.482 42.4525 712.789 42.6502 713.987 43.1244C715.402 43.6777 716.355 44.4286 716.845 45.3771C717.607 46.7998 717.58 47.8669 716.763 48.5782C716.164 49.0525 715.293 48.7758 714.15 47.7483C712.734 46.4046 711.155 46.0884 709.413 46.7998C708.379 47.195 707.453 48.104 706.637 49.5267C705.766 51.1075 705.303 52.9255 705.248 54.9806C705.194 56.9566 705.657 58.7745 706.637 60.4344C707.508 61.8571 708.733 62.608 710.312 62.6871C711.945 62.7661 713.469 62.2128 714.885 61.0272V61.0272ZM733.831 61.1458C734.865 60.2763 735.737 60.553 736.444 61.9757C736.825 62.7661 736.499 63.7146 735.464 64.8212C734.158 66.2439 732.089 66.9158 729.258 66.8367C727.026 66.8367 725.175 65.9673 723.705 64.2284C721.854 62.0152 720.928 59.2883 720.928 56.0476C720.982 52.4117 721.663 49.4477 722.97 47.1555C724.549 44.389 726.563 42.8873 729.013 42.6501C730.428 42.5711 731.735 42.7687 732.933 43.2429C734.348 43.7962 735.301 44.5471 735.791 45.4956C736.499 46.9184 736.444 47.9854 735.628 48.6968C735.083 49.171 734.239 48.8549 733.096 47.7483C731.681 46.4836 730.075 46.207 728.278 46.9184C727.298 47.3136 726.4 48.183 725.583 49.5267C724.657 51.1866 724.195 53.044 724.195 55.0991C724.14 57.0751 724.603 58.8931 725.583 60.553C726.454 61.9757 727.679 62.7266 729.258 62.8056C730.891 62.8847 732.416 62.3314 733.831 61.1458V61.1458ZM748.531 47.2741C746.952 47.3531 745.781 48.0249 745.019 49.2896C743.767 51.2656 743.141 53.4393 743.141 55.8105C743.141 58.1817 743.576 59.9206 744.447 61.0272C745.319 62.2128 746.326 62.8056 747.469 62.8056C748.776 62.8056 749.892 62.2128 750.817 61.0272C751.743 59.8416 752.233 57.8656 752.287 55.0991C752.287 49.8824 751.035 47.2741 748.531 47.2741ZM748.367 42.7687C753.213 42.8478 755.636 47.116 755.636 55.5734C755.581 59.1302 754.928 61.8176 753.676 63.6356C752.206 65.9278 750.001 67.0343 747.061 66.9553C744.938 66.9553 743.141 65.8487 741.671 63.6356C740.31 61.7386 739.629 59.0117 739.629 55.4548C739.629 52.1351 740.446 49.171 742.079 46.5627C743.658 44.0334 745.754 42.7687 748.367 42.7687V42.7687ZM762.087 41.9388C763.285 41.9388 763.884 42.6502 763.884 44.0729C763.884 44.3891 763.884 44.6657 763.884 44.9028C765.245 43.6382 766.579 43.0058 767.885 43.0058C769.464 43.0058 770.771 43.322 771.805 43.9543C773.656 45.0609 774.419 46.207 774.092 47.3926C773.547 49.2896 772.595 49.6453 771.234 48.4597C770.145 47.5902 768.893 47.3136 767.477 47.6297C766.116 47.9459 764.891 48.7758 763.802 50.1195L763.394 64.5841C763.394 66.1649 762.74 66.9553 761.434 66.9553C760.399 66.8762 759.882 66.0463 759.882 64.4655L760.372 43.9543C760.427 42.6106 760.998 41.9388 762.087 41.9388V41.9388ZM793.365 30.6754C794.562 30.6754 795.161 31.4263 795.161 32.9281L794.508 64.7026C794.508 66.3625 793.855 67.1529 792.548 67.0739C791.568 67.0739 791.051 66.4415 790.996 65.1769C789.2 66.5206 787.294 67.1924 785.28 67.1924C783.211 67.1924 781.387 66.2044 779.808 64.2284C778.012 62.0943 777.086 59.5649 777.032 56.6404C776.923 52.7674 777.767 49.4872 779.563 46.7998C781.197 44.3495 783.374 43.1244 786.097 43.1244C787.512 43.1244 788.764 43.5196 789.853 44.31C790.398 44.7052 790.915 45.1004 791.405 45.4956L791.65 32.8095C791.704 31.4658 792.276 30.7545 793.365 30.6754V30.6754ZM791.078 60.1973C791.187 57.1937 791.241 53.953 791.241 50.4752C789.173 47.7878 787.104 46.7603 785.035 47.3926C783.511 47.7878 782.422 48.4992 781.768 49.5267C780.788 51.0285 780.271 53.0441 780.217 55.5734C780.217 57.3123 780.707 58.9721 781.687 60.553C782.503 61.8967 783.701 62.6871 785.28 62.9242C786.968 63.1613 788.9 62.2523 791.078 60.1973ZM802.511 33.1652C802.566 33.1652 802.593 33.1652 802.593 33.1652C803.028 33.1652 803.41 33.2838 803.736 33.5209C804.117 33.8371 804.417 34.2323 804.635 34.7065C804.798 35.1017 804.879 35.4969 804.879 35.8921C804.879 35.9712 804.879 36.0502 804.879 36.1292C804.825 36.6825 804.662 37.1568 804.389 37.552C804.172 37.9472 803.9 38.2238 803.573 38.3819C803.301 38.54 802.974 38.619 802.593 38.619C802.538 38.619 802.511 38.619 802.511 38.619C802.13 38.619 801.776 38.5005 801.45 38.2634C801.123 38.0262 800.851 37.7101 800.633 37.3149C800.47 36.8406 800.388 36.3664 800.388 35.8921C800.388 35.4179 800.47 34.9832 800.633 34.588C800.851 34.1928 801.123 33.8371 801.45 33.5209C801.776 33.2838 802.13 33.1652 802.511 33.1652V33.1652ZM802.43 43.1244C803.573 43.2034 804.117 44.1519 804.063 45.9699L803.736 64.3469C803.736 66.323 803.165 67.311 802.021 67.311C800.769 67.2319 800.143 66.2834 800.143 64.4655L800.551 45.9699C800.551 44.0729 801.177 43.1244 802.43 43.1244ZM811.739 42.1759C812.992 42.1759 813.59 42.8873 813.536 44.31C813.536 44.7843 813.536 45.219 813.536 45.6142C814.843 44.1914 816.503 43.4801 818.518 43.4801C823.091 43.5591 825.323 46.9184 825.214 53.5578L825.051 64.5841C824.996 66.323 824.397 67.2715 823.254 67.4295C821.947 67.5086 821.321 66.6786 821.376 64.9397L821.621 54.5063C821.73 50.4752 820.804 48.3806 818.844 48.2226C817.157 48.0645 815.36 49.1315 813.454 51.4237L813.128 64.7026C813.073 66.2834 812.42 67.0739 811.168 67.0739C810.079 66.9948 809.534 66.2044 809.534 64.7026L810.024 44.1914C810.079 42.8477 810.65 42.1759 811.739 42.1759V42.1759ZM840.812 53.2021C840.975 51.8584 841.03 50.9495 840.975 50.4752C840.921 48.6573 839.995 47.7483 838.199 47.7483C836.674 47.6693 835.259 48.1435 833.952 49.171C832.482 50.2776 831.611 52.5303 831.339 55.9291C830.958 59.8021 831.965 61.8967 834.361 62.2128C836.974 62.4499 838.77 61.2248 839.75 58.5374C840.023 58.0632 840.376 56.2847 840.812 53.2021V53.2021ZM843.18 45.8513C844.269 46.0884 844.759 47.0765 844.65 48.8154L843.262 67.7852C842.663 75.6893 839.206 79.3647 832.891 78.8115C830.713 78.5743 829.243 78.2582 828.481 77.863C827.61 77.3097 827.283 76.4798 827.501 75.3732C827.718 74.1085 828.399 73.6343 829.542 73.9504C831.774 74.5828 833.68 74.7408 835.259 74.4247C837.927 73.9504 839.424 71.7373 839.75 67.7852L839.995 64.1098C839.015 66.0858 836.947 66.8763 833.789 66.481C828.508 65.8487 826.602 61.2643 828.072 52.7279C829.107 46.9579 832.02 43.7962 836.811 43.2429C840.077 42.8477 842.064 43.7172 842.772 45.8513C842.881 45.8513 843.017 45.8513 843.18 45.8513V45.8513ZM875.111 31.1497C876.363 31.1497 876.99 31.861 876.99 33.2838C876.935 37.0777 876.853 40.516 876.745 43.5986H880.419C881.889 43.5986 882.624 44.3495 882.624 45.8513C882.624 47.2741 881.917 47.9854 880.501 47.9854C879.249 47.9854 877.97 47.9854 876.663 47.9854L876.336 65.1769C876.336 66.7577 875.683 67.5481 874.376 67.5481C873.287 67.4691 872.77 66.6391 872.825 65.0583L873.151 47.9854C871.736 47.9854 870.32 47.9854 868.905 47.9854C867.87 47.9854 867.353 47.2741 867.353 45.8513C867.353 44.3495 867.925 43.5986 869.068 43.5986C870.484 43.5986 871.872 43.5986 873.233 43.5986L873.478 33.1652C873.478 31.8215 874.022 31.1497 875.111 31.1497V31.1497ZM893.894 48.104C892.37 48.104 891.199 48.7363 890.383 50.001C889.185 52.056 888.586 54.2692 888.586 56.6404C888.586 58.9326 889.022 60.6715 889.893 61.8571C890.764 62.9637 891.771 63.5565 892.914 63.6356C894.221 63.6356 895.337 63.0428 896.262 61.8571C897.188 60.5925 897.651 58.5769 897.651 55.8105C897.705 50.5938 896.453 48.0249 893.894 48.104ZM893.813 43.5986C898.658 43.6777 901.054 47.9064 900.999 56.2847C900.999 59.8416 900.346 62.5685 899.039 64.4655C897.624 66.6787 895.446 67.7852 892.506 67.7852C890.328 67.7062 888.504 66.5996 887.034 64.4655C885.728 62.4895 885.074 59.723 885.074 56.1662C885.074 52.8465 885.891 49.9219 887.524 47.3926C889.103 44.7843 891.199 43.5196 893.813 43.5986V43.5986ZM31.7582 110.823C33.0104 110.823 33.6092 111.574 33.5548 113.076C33.5548 116.791 33.5003 120.189 33.3915 123.272H37.0664C38.5363 123.272 39.2713 124.023 39.2713 125.525C39.2713 127.027 38.5635 127.777 37.148 127.777C35.8958 127.698 34.6165 127.659 33.3098 127.659L32.9831 144.85C32.9287 146.431 32.2754 147.222 31.0232 147.222C29.9343 147.143 29.3899 146.352 29.3899 144.85L29.7982 127.659C28.3827 127.659 26.9672 127.659 25.5517 127.659C24.5172 127.659 24 126.947 24 125.525C24 124.023 24.5716 123.272 25.7149 123.272C27.076 123.272 28.4644 123.272 29.8799 123.272L30.1249 112.839C30.1249 111.495 30.6693 110.823 31.7582 110.823V110.823ZM45.2329 110.942C46.4851 110.942 47.0839 111.653 47.0295 113.076L46.7845 126.118C48.3089 124.458 50.3233 123.628 52.8277 123.628C57.292 123.628 59.497 126.987 59.4426 133.706L59.3609 144.85C59.3609 146.589 58.7892 147.538 57.6459 147.696C56.3393 147.775 55.7132 146.945 55.7677 145.206L55.8493 134.654C55.8493 130.781 54.8693 128.726 52.9094 128.489C50.7317 128.252 48.69 129.516 46.7845 132.283L46.3762 144.969C46.3218 146.55 45.6684 147.301 44.4162 147.222C43.3274 147.222 42.8101 146.431 42.8646 144.85L43.5179 112.957C43.5179 111.614 44.0896 110.942 45.2329 110.942V110.942ZM78.2255 134.891L66.1391 136.907C66.1935 138.567 66.7924 140.029 67.9357 141.293C69.2968 142.716 70.8212 143.428 72.509 143.428C74.9589 143.428 76.5922 142.874 77.4088 141.768C78.2255 140.661 78.906 140.029 79.4505 139.871C79.9949 139.713 80.4032 139.95 80.6754 140.582C81.2199 141.926 80.9477 143.19 79.8588 144.376C77.8988 146.431 75.3672 147.459 72.2639 147.459C69.9773 147.38 67.9901 146.471 66.3024 144.732C64.1791 142.598 63.1175 139.713 63.1175 136.077C63.1175 132.994 63.798 130.307 65.1591 128.015C66.8469 125.011 68.9973 123.43 71.6106 123.272C74.3872 123.114 76.565 123.944 78.1439 125.762C79.6138 127.58 80.3216 129.595 80.2671 131.809C80.2127 133.626 79.5321 134.654 78.2255 134.891V134.891ZM66.5474 133.231L77.1638 131.453C76.946 130.188 76.4016 129.2 75.5305 128.489C74.4416 127.619 73.3256 127.185 72.1823 127.185C70.4945 127.185 69.0518 128.094 67.854 129.912C67.3096 130.702 66.874 131.809 66.5474 133.231ZM99.05 113.55H111.545C113.232 113.55 114.104 114.419 114.158 116.158C114.158 117.502 113.314 118.174 111.626 118.174C107.652 118.174 103.705 118.174 99.785 118.174L99.54 125.999H109.503C111.191 125.999 112.062 126.829 112.116 128.489C112.116 129.833 111.273 130.544 109.585 130.623H99.4584L99.2133 142.953H110.401C112.089 142.953 112.933 143.783 112.933 145.443C112.988 146.787 112.171 147.459 110.483 147.459H97.9067C97.7434 147.459 97.6073 147.459 97.4984 147.459C97.3895 147.459 97.2806 147.459 97.1717 147.459C96.0828 147.459 95.5656 146.708 95.6201 145.206L96.2734 115.447C96.3279 114.182 96.8995 113.55 97.9884 113.55C98.2606 113.55 98.4784 113.59 98.6417 113.669C98.805 113.59 98.9412 113.55 99.05 113.55V113.55ZM119.711 113.313C119.983 113.313 120.228 113.352 120.446 113.431C122.352 113.194 123.931 113.155 125.183 113.313C129.375 113.866 132.043 116 133.186 119.715C134.329 123.43 133.812 126.987 131.634 130.386C130.328 132.283 127.17 133.389 122.161 133.706C121.78 133.706 121.453 133.706 121.181 133.706L120.936 145.443C120.882 146.945 120.201 147.696 118.895 147.696C117.86 147.617 117.343 146.866 117.343 145.443L118.078 115.21C118.078 113.945 118.622 113.313 119.711 113.313V113.313ZM121.508 117.818L121.263 129.556C125.509 130.109 128.15 129.279 129.184 127.066C130.219 124.853 130.328 122.798 129.511 120.901C128.531 118.688 126.707 117.581 124.039 117.581C123.332 117.581 122.488 117.66 121.508 117.818V117.818ZM150.907 116.87L158.829 144.258C159.428 146.234 159.128 147.459 157.93 147.933C156.787 148.328 155.916 147.498 155.317 145.443L152.541 135.84H143.884L141.026 145.325C140.481 147.38 139.637 148.21 138.494 147.814C137.296 147.34 136.997 146.115 137.596 144.139L145.681 116.87C146.388 114.419 147.259 113.194 148.294 113.194C149.328 113.194 150.199 114.419 150.907 116.87V116.87ZM151.234 131.334L148.294 121.257L145.272 131.334H151.234ZM166.505 143.546C166.505 143.546 166.532 143.546 166.587 143.546C166.968 143.546 167.349 143.665 167.73 143.902C168.111 144.218 168.383 144.613 168.547 145.087C168.71 145.483 168.792 145.878 168.792 146.273C168.792 146.352 168.792 146.431 168.792 146.51C168.737 147.063 168.601 147.538 168.384 147.933C168.111 148.328 167.839 148.605 167.567 148.763C167.24 148.921 166.914 149 166.587 149C166.532 149 166.478 149 166.424 149C166.042 149 165.716 148.881 165.444 148.644C165.117 148.407 164.845 148.091 164.627 147.696C164.409 147.222 164.3 146.747 164.3 146.273C164.3 145.799 164.409 145.364 164.627 144.969C164.845 144.574 165.09 144.218 165.362 143.902C165.743 143.665 166.124 143.546 166.505 143.546V143.546Z" fill="#E4F4ED"/>
<path d="M130.823 31.7739C130.823 31.7739 130.77 41.1626 130.662 59.9399C131.306 59.9399 131.951 59.9399 132.595 59.9399C133.83 59.9399 134.447 60.6162 134.447 61.9688C134.447 63.3214 133.857 63.9977 132.675 63.9977H124.622C123.548 63.9977 123.011 63.3611 123.011 62.0881C123.011 60.5764 123.602 59.8205 124.783 59.8205C125.642 59.9001 126.528 59.9399 127.441 59.9399L127.521 36.4284L126.233 37.9799C125.105 39.253 124.166 39.253 123.414 37.9799C122.77 36.9456 122.877 35.951 123.736 34.9963L127.28 30.8191C128.246 29.7052 129.132 29.2676 129.937 29.5063C130.582 29.6654 130.877 30.4213 130.823 31.7739ZM139.36 61.014C139.467 57.9905 140.353 54.9273 142.017 51.8242C143.628 49.0395 145.99 46.6923 149.104 44.7828C151.144 43.5893 152.218 41.3615 152.326 38.0993C152.326 36.2693 151.654 34.9167 150.312 34.0415C148.97 33.1663 147.574 33.0469 146.125 33.6835C145.266 34.0017 144.192 35.1156 142.903 37.0252C141.937 38.3778 140.997 38.5767 140.085 37.6219C139.226 36.8263 139.145 35.9113 139.843 34.8769C141.185 32.8082 142.339 31.4556 143.306 30.8191C144.594 29.8643 146.205 29.3869 148.138 29.3869C149.91 29.3869 151.332 29.8246 152.406 30.6998C154.715 32.4502 155.842 35.0361 155.788 38.4573C155.681 43.0721 154.151 46.2149 151.198 47.8858C148.514 49.3975 146.447 51.4662 144.997 54.0918C143.655 56.5583 142.93 58.5077 142.823 59.9399C146.581 59.9399 150.339 59.9399 154.097 59.9399C155.386 59.9399 156.003 60.6559 155.95 62.0881C155.95 63.4407 155.332 64.117 154.097 64.117L141.131 63.9977C139.897 63.9977 139.306 63.0031 139.36 61.014V61.014ZM163.359 59.5818C163.788 59.5818 164.164 59.7409 164.486 60.0592C164.862 60.2979 165.157 60.6559 165.372 61.1333C165.533 61.5312 165.613 61.9687 165.613 62.4461C165.613 62.5257 165.613 62.6053 165.613 62.6848C165.56 63.1622 165.399 63.6396 165.13 64.117C164.916 64.4353 164.647 64.674 164.325 64.8331C164.057 65.0718 163.734 65.1911 163.359 65.1911C163.305 65.1911 163.278 65.1911 163.278 65.1911C162.902 65.1116 162.553 64.9524 162.231 64.7137C161.909 64.4751 161.667 64.1568 161.506 63.759C161.292 63.3611 161.184 62.9235 161.184 62.4461C161.184 61.9687 161.265 61.4914 161.426 61.014C161.641 60.6161 161.909 60.2979 162.231 60.0592C162.553 59.7409 162.929 59.5818 163.359 59.5818V59.5818ZM172.861 29.9837L185.344 29.8643C186.633 29.8643 187.277 30.5406 187.277 31.8932C187.277 33.405 186.686 34.1608 185.505 34.1608L174.633 34.0415L173.908 42.6345C175.788 40.8841 177.72 40.0089 179.707 40.0089C185.505 40.0089 188.351 43.6291 188.243 50.8695C188.082 60.4172 184.19 64.9524 176.566 64.4751C173.774 64.3159 171.707 62.8838 170.365 60.1785C169.774 58.9055 169.774 57.9507 170.365 57.3142C171.439 56.2003 172.325 56.2003 173.022 57.3142C174.204 59.3033 175.6 60.2979 177.21 60.2979C181.827 60.3775 184.351 57.2744 184.78 50.9888C185.049 46.5332 183.331 44.3054 179.626 44.3054C177.801 44.3054 176.324 45.0612 175.197 46.573C173.64 48.403 172.405 49.3179 171.492 49.3179C170.526 49.2384 170.096 48.2836 170.204 46.4536L171.331 31.1772C171.492 30.3019 172.002 29.9041 172.861 29.9837V29.9837ZM211.356 27.7161C212.162 28.273 212.376 29.0289 212 29.9837L199.357 63.9977C198.927 65.1911 198.229 65.5094 197.263 64.9524C196.297 64.3955 196.028 63.5203 196.458 62.3268L209.423 28.3128C209.799 27.358 210.444 27.1591 211.356 27.7161V27.7161ZM196.216 27.358C196.753 27.1194 197.343 27 197.988 27C198.31 27 198.605 27.0398 198.874 27.1194C199.84 27.358 200.672 27.8354 201.37 28.5515C202.068 29.3472 202.578 30.2622 202.9 31.2965C203.115 32.0922 203.222 32.848 203.222 33.5641C203.222 33.9619 203.196 34.3597 203.142 34.7576C202.981 35.951 202.578 36.9854 201.934 37.8606C201.29 38.7358 200.511 39.3723 199.598 39.7702C199.061 40.0088 198.498 40.1282 197.907 40.1282C197.531 40.1282 197.182 40.0884 196.86 40.0089C195.894 39.7702 195.062 39.2132 194.364 38.338C193.666 37.6219 193.183 36.7069 192.914 35.593C192.753 34.9565 192.673 34.2802 192.673 33.5641C192.673 33.0867 192.699 32.6491 192.753 32.2513C192.968 31.0578 193.37 30.0633 193.961 29.2676C194.605 28.3924 195.357 27.7559 196.216 27.358V27.358ZM197.988 36.9058C198.471 36.9058 198.927 36.7467 199.357 36.4284C199.786 36.1102 200.108 35.6726 200.323 35.1156C200.538 34.6382 200.645 34.1211 200.645 33.5641C200.645 33.4845 200.645 33.4448 200.645 33.4448C200.645 32.7287 200.511 32.1319 200.243 31.6546C200.082 31.3363 199.84 31.018 199.518 30.6998C199.196 30.4611 198.874 30.3019 198.552 30.2224C198.39 30.1428 198.202 30.103 197.988 30.103C197.451 30.103 196.968 30.3019 196.538 30.6998C196.001 31.0976 195.625 31.6545 195.411 32.3706C195.303 32.6889 195.25 33.0469 195.25 33.4448C195.25 33.8426 195.303 34.1608 195.411 34.3995C195.572 35.1952 195.894 35.7919 196.377 36.1897C196.86 36.6671 197.397 36.9058 197.988 36.9058ZM210.551 49.676C211.142 49.4373 211.786 49.3179 212.484 49.3179C212.859 49.3179 213.209 49.3577 213.531 49.4373C214.604 49.676 215.544 50.1932 216.349 50.9888C217.101 51.864 217.665 52.8984 218.04 54.0918C218.255 54.967 218.363 55.8423 218.363 56.7175C218.363 57.1153 218.336 57.5131 218.282 57.911C218.121 59.2636 217.692 60.4172 216.994 61.372C216.296 62.4064 215.41 63.1622 214.336 63.6396C213.745 63.8783 213.128 63.9977 212.484 63.9977C212.054 63.9977 211.651 63.9579 211.276 63.8783C210.202 63.5601 209.262 62.9633 208.457 62.0881C207.705 61.2129 207.168 60.1388 206.846 58.8657C206.632 58.1496 206.524 57.3938 206.524 56.5981C206.524 56.1207 206.578 55.6434 206.685 55.166C206.9 53.8134 207.356 52.6995 208.054 51.8242C208.752 50.7899 209.585 50.0738 210.551 49.676V49.676ZM212.484 60.2979C213.074 60.2979 213.611 60.1388 214.094 59.8205C214.524 59.5022 214.873 59.0249 215.141 58.3883C215.41 57.8314 215.544 57.2346 215.544 56.5981C215.544 56.5186 215.544 56.4788 215.544 56.4788C215.49 55.7627 215.329 55.1262 215.061 54.5692C214.846 54.1714 214.551 53.8134 214.175 53.4951C213.906 53.1768 213.557 52.9779 213.128 52.8984C212.967 52.8188 212.752 52.779 212.484 52.779C211.893 52.779 211.356 52.9779 210.873 53.3758C210.282 53.8531 209.88 54.4897 209.665 55.2853C209.558 55.6831 209.504 56.1207 209.504 56.5981C209.504 56.9164 209.531 57.2744 209.585 57.6722C209.799 58.4679 210.175 59.1044 210.712 59.5818C211.249 60.1388 211.839 60.3775 212.484 60.2979V60.2979ZM249.771 44.7828C248.214 44.8623 247.059 45.5386 246.308 46.8117C245.126 48.8008 244.536 51.0286 244.536 53.4951C244.536 55.8025 244.939 57.5131 245.744 58.627C246.657 59.8205 247.677 60.4172 248.804 60.4172C250.093 60.4172 251.166 59.8603 252.025 58.7464C252.992 57.4733 253.475 55.4444 253.475 52.6597C253.529 47.4084 252.294 44.7828 249.771 44.7828ZM249.69 40.3669C254.468 40.4465 256.831 44.7032 256.777 53.1371C256.777 56.7175 256.133 59.4625 254.844 61.372C253.448 63.5998 251.274 64.674 248.321 64.5944C246.227 64.5944 244.455 63.5203 243.006 61.372C241.663 59.3829 241.019 56.5981 241.073 53.0177C241.073 49.676 241.851 46.6923 243.408 44.0667C245.019 41.5206 247.113 40.2873 249.69 40.3669ZM262.092 46.8117C260.857 46.8117 260.24 46.0558 260.24 44.544C260.24 43.1119 260.938 42.3958 262.334 42.3958H265.152C265.26 36.6671 265.877 32.8082 267.005 30.8191C267.917 29.2278 269.635 28.3924 272.159 28.3128C274.682 28.1537 275.836 28.9096 275.622 30.5804C275.407 32.0126 274.575 32.6491 273.125 32.49C270.924 32.1717 269.555 33.2061 269.018 35.593C268.696 37.0252 268.535 39.2928 268.535 42.3958H272.642C274.199 42.3958 275.004 43.0721 275.058 44.4247C275.165 46.016 274.414 46.8117 272.803 46.8117H268.454L268.293 62.4461C268.239 64.0374 267.568 64.8331 266.28 64.8331C265.206 64.7535 264.696 63.9579 264.75 62.4461L264.991 46.8117H262.092ZM313.553 52.1823L301.634 54.2112C301.687 55.882 302.278 57.354 303.405 58.627C304.748 60.1388 306.251 60.8946 307.915 60.8946C310.331 60.8151 311.942 60.2183 312.747 59.1044C313.553 57.9905 314.224 57.354 314.761 57.1949C315.298 57.1153 315.673 57.354 315.888 57.911C316.479 59.2636 316.237 60.5366 315.163 61.7301C313.23 63.8783 310.734 64.9126 307.674 64.8331C305.419 64.7535 303.459 63.8385 301.795 62.0881C299.647 59.9399 298.6 57.0357 298.654 53.3758C298.654 50.3523 299.325 47.6471 300.667 45.2601C302.332 42.3162 304.452 40.7249 307.029 40.4862C309.768 40.3271 311.915 41.2023 313.472 43.1119C314.922 44.8623 315.62 46.8514 315.566 49.0792C315.512 50.9092 314.841 51.9436 313.553 52.1823V52.1823ZM302.036 50.6308L312.506 48.7212C312.291 47.4482 311.754 46.4536 310.895 45.7375C309.821 44.9419 308.694 44.544 307.513 44.544C305.902 44.544 304.506 45.4193 303.325 47.1697C302.788 47.9653 302.359 49.119 302.036 50.6308ZM320.237 50.2727H328.773C329.847 50.2727 330.384 50.8297 330.384 51.9436C330.384 53.0575 329.874 53.6144 328.854 53.6144H320.076C319.324 53.5349 318.948 52.9779 318.948 51.9436C318.948 50.7501 319.378 50.1932 320.237 50.2727V50.2727ZM346.571 43.828L348.665 59.2238L352.611 43.828C353.148 41.7593 353.846 40.8045 354.705 40.9636C355.94 41.2023 356.316 42.2367 355.832 44.0667L350.598 62.5655C350.115 64.3159 349.39 65.1911 348.423 65.1911C347.189 65.1911 346.437 64.2761 346.169 62.4461L344.316 50.2727L340.853 62.4461C340.316 64.2761 339.565 65.1911 338.598 65.1911C337.417 65.1911 336.692 64.2761 336.424 62.4461L333.605 43.9473C333.337 42.1173 333.74 41.083 334.813 40.8443C335.887 40.6852 336.558 41.6797 336.827 43.828L338.84 59.1044L342.867 43.828C343.35 41.9184 343.994 40.9636 344.799 40.9636C345.766 40.9636 346.356 41.9184 346.571 43.828V43.828ZM365.819 65.4298C360.503 65.4298 357.846 61.8892 357.846 54.8079C357.846 50.1136 359.081 46.5332 361.55 44.0667C364.396 41.2023 367.349 40.3669 370.409 41.5604C370.785 41.2421 371.322 41.1625 372.02 41.3217C373.469 41.7195 374.033 42.8732 373.711 44.7828C373.442 46.6127 373.281 49.7556 373.228 54.2112C373.174 57.7916 373.496 60.2979 374.194 61.7301C375.16 63.8783 374.999 65.1116 373.711 65.4298C372.261 65.8276 371.402 65.0718 371.134 63.1622C368.718 64.674 366.946 65.4298 365.819 65.4298V65.4298ZM367.912 61.014C368.342 60.7753 369.094 60.1388 370.167 59.1044C369.738 52.7392 369.792 48.3632 370.328 45.9762C369.201 45.101 367.993 44.8225 366.704 45.1408C365.845 45.459 365.147 45.8569 364.611 46.3343C362.517 48.2438 361.416 50.9092 361.309 54.3305C361.309 58.8657 362.544 61.2527 365.013 61.4914C366.033 61.5709 367 61.4118 367.912 61.014ZM382.489 61.1333C385.12 61.372 386.73 60.9344 387.321 59.8205C387.804 58.8657 387.536 57.7518 386.516 56.4788C385.871 55.524 384.368 54.8477 382.006 54.4499C379.59 54.052 378.221 52.8984 377.899 50.9888C377.576 49.4771 377.657 47.9653 378.14 46.4536C378.677 44.7827 379.429 43.5097 380.395 42.6345C381.576 41.5206 382.945 40.8841 384.502 40.7249C386.22 40.5658 387.724 40.8841 389.012 41.6797C390.73 42.7141 391.67 43.9075 391.831 45.2601C391.938 46.1353 391.697 46.8514 391.106 47.4084C390.462 48.1245 389.442 47.6471 388.046 45.9762C387.401 45.101 386.408 44.7032 385.066 44.7828C383.616 44.8623 382.543 45.4193 381.845 46.4536C381.254 47.2493 381.093 48.1245 381.361 49.0792C381.576 49.8749 382.382 50.3523 383.777 50.5114C384.905 50.6705 385.952 51.0286 386.918 51.5855C388.207 52.3812 389.119 53.1371 389.656 53.8531C390.837 55.6831 391.348 57.5529 391.186 59.4625C390.972 61.2924 390.14 62.844 388.69 64.117C387.455 65.0718 385.871 65.5492 383.939 65.5492C382.274 65.5492 380.932 65.3901 379.912 65.0718C379.268 64.8331 378.489 64.3557 377.576 63.6396C376.717 63.0827 376.261 62.3666 376.207 61.4914C376.207 60.457 376.476 59.7409 377.013 59.3431C377.657 58.7862 378.409 58.8657 379.268 59.5818C380.288 60.457 381.362 60.9742 382.489 61.1333ZM401.978 28.6709C403.213 28.7504 403.83 29.5063 403.83 30.9385C403.777 34.678 403.696 38.0993 403.589 41.2023H407.213C408.662 41.2023 409.387 41.9582 409.387 43.4699C409.387 44.9817 408.689 45.7375 407.293 45.7375C406.058 45.7375 404.797 45.7375 403.508 45.7375L403.186 62.9235C403.132 64.5944 402.488 65.39 401.253 65.3105C400.179 65.3105 399.642 64.5148 399.642 62.9235L400.045 45.7375C398.649 45.658 397.253 45.6182 395.857 45.6182C394.837 45.6182 394.327 44.9021 394.327 43.4699C394.327 41.9582 394.891 41.2023 396.018 41.2023C397.414 41.2819 398.783 41.2819 400.126 41.2023L400.367 30.8191C400.367 29.3869 400.904 28.6709 401.978 28.6709V28.6709ZM426.863 52.779L414.944 54.8079C414.997 56.4788 415.588 57.9507 416.716 59.2238C418.058 60.7355 419.534 61.4914 421.145 61.4914C423.561 61.4118 425.198 60.8151 426.057 59.7012C426.863 58.5873 427.507 57.9905 427.99 57.911C428.581 57.7518 428.983 57.9507 429.198 58.5077C429.735 59.8603 429.467 61.1333 428.393 62.3268C426.514 64.4751 424.044 65.5094 420.984 65.4298C418.729 65.4298 416.742 64.5148 415.024 62.6848C412.93 60.5366 411.884 57.6325 411.884 53.9725C411.884 50.949 412.555 48.2438 413.897 45.8569C415.561 42.913 417.709 41.3217 420.339 41.083C423.078 40.9239 425.198 41.7991 426.702 43.7086C428.151 45.459 428.849 47.4482 428.795 49.676C428.742 51.506 428.097 52.5403 426.863 52.779V52.779ZM415.346 51.2275L425.735 49.3179C425.574 48.0449 425.037 47.0503 424.125 46.3343C423.104 45.5386 422.004 45.1408 420.823 45.1408C419.212 45.1408 417.816 46.016 416.635 47.7664C416.098 48.5621 415.669 49.7158 415.346 51.2275V51.2275ZM455.693 31.4158C455.747 31.4158 455.774 31.4158 455.774 31.4158C456.204 31.4158 456.579 31.5352 456.901 31.7739C457.277 32.0922 457.546 32.49 457.707 32.9674C457.868 33.3652 457.948 33.763 457.948 34.1608C457.948 34.2404 457.948 34.32 457.948 34.3995C457.948 34.9565 457.814 35.4339 457.546 35.8317C457.277 36.2295 457.009 36.508 456.74 36.6671C456.472 36.9058 456.15 36.9854 455.774 36.9058C455.72 36.9058 455.667 36.9058 455.613 36.9058C455.291 36.9058 454.969 36.7865 454.647 36.5478C454.324 36.3091 454.056 35.9908 453.841 35.593C453.68 35.1952 453.6 34.7178 453.6 34.1608C453.6 33.6834 453.68 33.2459 453.841 32.848C454.056 32.4502 454.324 32.0922 454.647 31.7739C454.969 31.5352 455.318 31.4158 455.693 31.4158V31.4158ZM455.532 41.441C456.66 41.5206 457.224 42.5152 457.224 44.4247L456.901 62.8042C456.901 64.7933 456.338 65.7879 455.21 65.7879C453.922 65.7879 453.304 64.8331 453.358 62.9235L453.68 44.4247C453.734 42.4356 454.351 41.441 455.532 41.441ZM467.21 61.4914C469.894 61.7301 471.532 61.3322 472.122 60.2979C472.605 59.3431 472.337 58.1894 471.317 56.8368C470.673 55.9616 469.169 55.3251 466.807 54.9273C464.391 54.4499 462.995 53.2962 462.619 51.4662C462.351 49.9545 462.458 48.4427 462.941 46.931C463.478 45.1806 464.23 43.8678 465.196 42.9925C466.378 41.9582 467.747 41.3615 469.304 41.2023C471.022 41.0432 472.525 41.3615 473.813 42.1571C475.531 43.1914 476.471 44.3849 476.632 45.7375C476.686 46.6127 476.444 47.3288 475.907 47.8858C475.263 48.5223 474.243 48.0449 472.847 46.4536C472.203 45.5784 471.21 45.1806 469.867 45.2601C468.418 45.3397 467.344 45.8569 466.646 46.8117C466.055 47.6869 465.894 48.5621 466.163 49.4373C466.377 50.2329 467.183 50.7501 468.579 50.9888C469.706 51.1479 470.753 51.506 471.72 52.0629C473.008 52.8586 473.921 53.6145 474.458 54.3305C475.639 56.1605 476.122 57.9905 475.907 59.8205C475.746 61.7301 474.914 63.3214 473.411 64.5944C472.23 65.5492 470.673 66.0266 468.74 66.0266C467.075 66.0266 465.733 65.8276 464.713 65.4298C464.069 65.1911 463.29 64.7535 462.378 64.117C461.519 63.5601 461.062 62.8042 461.009 61.8494C460.955 60.8946 461.223 60.2183 461.814 59.8205C462.458 59.2635 463.21 59.3431 464.069 60.0592C465.089 60.9344 466.136 61.4118 467.21 61.4914ZM502.403 40.7249C503.584 40.7249 504.174 41.441 504.174 42.8732C504.174 43.1119 504.174 43.3904 504.174 43.7086C505.517 42.4356 506.832 41.7991 508.12 41.7991C509.677 41.7991 510.966 42.1173 511.986 42.7538C513.758 43.8677 514.483 45.0214 514.16 46.2149C513.624 48.1245 512.684 48.4825 511.342 47.289C510.268 46.4138 509.06 46.1353 507.718 46.4536C506.376 46.7719 505.141 47.6073 504.013 48.9599L503.691 63.5203C503.637 65.1116 502.993 65.9072 501.758 65.9072C500.685 65.8277 500.175 64.9922 500.228 63.4009L500.711 42.7538C500.711 41.4012 501.275 40.7249 502.403 40.7249V40.7249ZM531.878 53.3758L519.959 55.4047C520.013 57.0755 520.603 58.5475 521.731 59.8205C523.073 61.2527 524.576 61.9688 526.24 61.9688C528.656 61.9688 530.267 61.4118 531.072 60.2979C531.878 59.184 532.522 58.5475 533.005 58.3883C533.596 58.2292 533.998 58.4679 534.213 59.1044C534.804 60.457 534.535 61.7301 533.408 62.9235C531.529 64.9922 529.059 66.0266 525.999 66.0266C523.744 65.947 521.757 65.032 520.039 63.2816C517.945 61.1333 516.899 58.2292 516.899 54.5692C516.952 51.4662 517.623 48.761 518.912 46.4536C520.576 43.4301 522.724 41.8388 525.354 41.6797C528.093 41.5206 530.24 42.356 531.797 44.186C533.247 46.016 533.918 48.0449 533.81 50.2727C533.757 52.1027 533.113 53.1371 531.878 53.3758V53.3758ZM520.361 51.8242L530.75 49.9147C530.589 48.6416 530.052 47.6471 529.14 46.931C528.12 46.0558 527.019 45.6182 525.838 45.6182C524.227 45.6182 522.831 46.5332 521.65 48.3632C521.113 49.1588 520.684 50.3125 520.361 51.8242V51.8242ZM549.595 60.5366C550.669 59.6614 551.528 59.9001 552.172 61.2527C552.548 62.1279 552.253 63.1224 551.286 64.2363C549.944 65.5889 547.877 66.2653 545.085 66.2653C542.884 66.1857 541.058 65.2707 539.609 63.5203C537.837 61.2925 536.951 58.5475 536.951 55.2853C536.951 51.6253 537.596 48.6416 538.884 46.3343C540.441 43.5495 542.428 42.0378 544.844 41.7991C546.239 41.7195 547.528 41.9184 548.709 42.3958C550.159 43.0323 551.098 43.7882 551.528 44.6634C552.279 46.0956 552.253 47.1697 551.447 47.8858C550.857 48.3632 549.998 48.0847 548.87 47.0503C547.474 45.7773 545.917 45.459 544.199 46.0956C543.179 46.4934 542.293 47.4084 541.542 48.8406C540.629 50.4319 540.146 52.2619 540.092 54.3305C540.038 56.3197 540.495 58.1496 541.461 59.8205C542.32 61.2527 543.528 62.0085 545.085 62.0881C546.696 62.1677 548.199 61.6505 549.595 60.5366V60.5366ZM570.936 42.5151C572.117 43.1517 572.386 44.3054 571.742 45.9762L561.594 75.097C560.735 77.4839 559.796 78.3989 558.776 77.8419C557.541 77.2054 557.326 75.7335 558.131 73.4261L561.675 63.1622L554.346 46.0956C553.595 44.3451 553.756 43.1517 554.83 42.5151C555.903 41.7195 556.816 42.2367 557.568 44.0667L563.447 58.1496L568.359 44.186C568.95 42.4356 569.809 41.8786 570.936 42.5151V42.5151ZM587.204 60.6559C588.224 59.7807 589.083 60.0592 589.781 61.4914C590.157 62.287 589.835 63.2418 588.815 64.3557C587.526 65.7879 585.486 66.4642 582.694 66.3846C580.493 66.3846 578.667 65.5094 577.218 63.759C575.392 61.5311 574.48 58.7862 574.48 55.524C574.48 51.864 575.151 48.8803 576.493 46.573C578.05 43.7882 580.036 42.2765 582.452 42.0378C583.848 41.9582 585.137 42.1571 586.318 42.6345C587.714 43.1915 588.654 43.9473 589.137 44.9021C589.835 46.3343 589.781 47.4084 588.976 48.1245C588.439 48.6019 587.607 48.2836 586.479 47.1697C585.083 45.8967 583.499 45.6182 581.728 46.3343C580.761 46.7321 579.875 47.6073 579.07 48.9599C578.157 50.6308 577.701 52.5005 577.701 54.5692C577.647 56.5583 578.104 58.3883 579.07 60.0592C579.929 61.4914 581.137 62.2472 582.694 62.3268C584.305 62.4064 585.808 61.8494 587.204 60.6559V60.6559ZM596.868 29.745C598.103 29.745 598.693 30.5008 598.64 32.0126L598.076 63.9977C598.022 65.589 597.351 66.3846 596.063 66.3846C595.042 66.305 594.532 65.5094 594.532 63.9977L595.257 31.7739C595.257 30.4213 595.794 29.745 596.868 29.745V29.745ZM617.967 53.8531L606.049 55.882C606.102 57.5529 606.693 59.0249 607.82 60.2979C609.163 61.7301 610.639 62.4461 612.25 62.4461C614.666 62.4461 616.303 61.8892 617.162 60.7753C617.967 59.6614 618.612 59.0248 619.095 58.8657C619.686 58.7066 620.088 58.9453 620.303 59.5818C620.84 60.9344 620.571 62.2074 619.498 63.4009C617.619 65.4696 615.149 66.504 612.089 66.504C609.834 66.4244 607.847 65.5094 606.129 63.759C604.035 61.6107 602.988 58.6668 602.988 54.9273C602.988 51.9038 603.659 49.1986 605.002 46.8117C606.666 43.8678 608.814 42.3162 611.444 42.1571C614.182 41.9184 616.303 42.7538 617.806 44.6634C619.31 46.4934 620.008 48.5223 619.9 50.7501C619.847 52.5801 619.202 53.6144 617.967 53.8531V53.8531ZM606.451 52.1823L616.84 50.3921C616.679 49.119 616.142 48.1245 615.229 47.4084C614.209 46.5332 613.109 46.0956 611.927 46.0956C610.317 46.0956 608.921 47.0106 607.74 48.8406C607.203 49.6362 606.773 50.7501 606.451 52.1823V52.1823ZM639.148 29.9837C640.383 29.9837 641 30.7396 641 32.2513L640.356 64.2363C640.356 65.8276 639.711 66.6233 638.423 66.6233C637.456 66.5437 636.946 65.9072 636.893 64.7137C635.121 66.0663 633.242 66.7426 631.255 66.7426C629.215 66.6631 627.417 65.6685 625.86 63.759C624.088 61.5311 623.175 58.9851 623.122 56.1207C623.014 52.2221 623.82 48.9201 625.538 46.2149C627.202 43.6688 629.349 42.4356 631.98 42.5151C633.43 42.5151 634.692 42.8732 635.765 43.5893C636.302 43.9871 636.785 44.3849 637.215 44.7828L637.537 32.0126C637.537 30.66 638.074 29.9837 639.148 29.9837V29.9837ZM636.893 59.7012C637.054 56.5981 637.134 53.336 637.134 49.9147C635.041 47.2095 632.974 46.1751 630.933 46.8117C629.484 47.2095 628.41 47.9256 627.712 48.9599C626.799 50.3921 626.316 52.421 626.262 55.0466C626.209 56.7175 626.692 58.3883 627.712 60.0592C628.517 61.4118 629.698 62.2074 631.255 62.4461C632.92 62.6848 634.799 61.7699 636.893 59.7012Z" fill="#FBF48E"/>
<defs>
<filter id="filter0_d_51_3905" x="0" y="0" width="949" height="209" filterUnits="userSpaceOnUse" color-interpolation-filters="sRGB">
<feFlood flood-opacity="0" result="BackgroundImageFix"/>
<feColorMatrix in="SourceAlpha" type="matrix" values="0 0 0 0 0 0 0 0 0 0 0 0 0 0 0 0 0 0 127 0" result="hardAlpha"/>
<feMorphology radius="1" operator="dilate" in="SourceAlpha" result="effect1_dropShadow_51_3905"/>
<feOffset dx="12" dy="12"/>
<feGaussianBlur stdDeviation="5"/>
<feComposite in2="hardAlpha" operator="out"/>
<feColorMatrix type="matrix" values="0 0 0 0 0 0 0 0 0 0 0 0 0 0 0 0 0 0 0.25 0"/>
<feBlend mode="normal" in2="BackgroundImageFix" result="effect1_dropShadow_51_3905"/>
<feBlend mode="normal" in="SourceGraphic" in2="effect1_dropShadow_51_3905" result="shape"/>
</filter>
</defs>
</svg>
