<svg width="51" height="25" viewBox="0 0 51 25" fill="none" xmlns="http://www.w3.org/2000/svg">
<path d="M7.5498 24.0996C7.21647 24.0996 6.94979 24.0329 6.74979 23.8996C6.61645 23.7663 6.5498 23.5663 6.5498 23.2996V19.1996C6.28314 19.0663 5.78314 18.8996 5.0498 18.6996C4.31647 18.5663 3.61647 18.4996 2.9498 18.4996C2.68313 18.8996 2.51647 19.3996 2.4498 19.9996L2.34979 20.6996C2.28313 20.8329 2.21645 21.1329 2.14978 21.5996C2.01645 22.1329 1.88312 22.5663 1.74979 22.8996C1.61645 23.2329 1.51647 23.5329 1.4498 23.7996C0.649799 23.7996 0.183138 23.5663 0.0498047 23.0996C0.249805 22.7663 0.516459 21.7996 0.849792 20.1996L1.84979 14.5996C2.31646 11.8663 2.71647 9.56627 3.0498 7.69961C3.4498 5.76627 3.88313 4.16628 4.34979 2.89961C4.81646 1.49961 5.24978 0.79961 5.64978 0.79961C6.11645 0.79961 6.44978 0.866278 6.64978 0.999611C6.64978 1.79961 6.84979 3.79961 7.24979 6.99961C7.64979 10.0663 7.84979 12.1663 7.84979 13.2996C7.84979 14.4329 7.98312 16.0329 8.24979 18.0996C8.44979 20.1663 8.5498 21.7996 8.5498 22.9996C8.5498 23.7329 8.21647 24.0996 7.5498 24.0996ZM5.9498 17.3996C6.08313 17.3996 6.28314 17.3663 6.5498 17.2996C6.48314 16.4329 6.38312 15.3329 6.24979 13.9996C5.71645 9.33294 5.4498 6.46628 5.4498 5.39961V5.09961C5.2498 5.29961 4.98311 6.23295 4.64978 7.89961C4.31645 9.56628 3.98311 11.3663 3.64978 13.2996C3.31645 15.1663 3.14978 16.4329 3.14978 17.0996C4.01645 17.2996 4.9498 17.3996 5.9498 17.3996ZM13.6498 24.2996C12.7164 24.2996 12.2498 24.0663 12.2498 23.5996L12.3498 19.7996V15.8996C12.3498 14.5663 12.3165 12.4996 12.2498 9.69961C12.1831 6.89961 12.1498 4.79961 12.1498 3.39961V3.19961C12.1498 2.66627 12.2165 2.16627 12.3498 1.69961C12.4831 1.09961 12.8165 0.79961 13.3498 0.79961C14.8165 0.79961 15.9498 1.26627 16.7498 2.19961C17.6165 3.13294 18.0498 4.36628 18.0498 5.89961C18.0498 6.83294 17.8165 7.79961 17.3498 8.79961C16.8165 9.86627 16.2165 10.6329 15.5498 11.0996C16.7498 11.8996 17.6164 12.9329 18.1498 14.1996C18.7498 15.4663 19.0498 16.8663 19.0498 18.3996C19.0498 19.1329 18.8165 20.0329 18.3498 21.0996C17.7498 22.3663 16.9165 23.2996 15.8498 23.8996C15.2498 24.1663 14.5831 24.2996 13.8498 24.2996H13.6498ZM13.9498 10.5996C14.4831 10.5329 14.9165 10.0996 15.2498 9.29961C15.5831 8.69961 15.8831 7.99961 16.1498 7.19961C16.2164 6.99961 16.3165 6.69961 16.4498 6.29961V5.29961C16.4498 4.63294 16.2165 4.03294 15.7498 3.49961C15.2831 2.89961 14.7831 2.59961 14.2498 2.59961C13.9165 2.59961 13.7498 2.89961 13.7498 3.49961C13.7498 4.89961 13.7831 6.13294 13.8498 7.19961L13.9498 10.5996ZM14.0498 22.6996C15.0498 22.5663 15.8498 22.0996 16.4498 21.2996C17.0498 20.4996 17.3498 19.5663 17.3498 18.4996C17.3498 17.5663 17.2831 16.6996 17.1498 15.8996C17.0164 15.0996 16.8165 14.4663 16.5498 13.9996C16.3498 13.6663 16.1165 13.3663 15.8498 13.0996C15.6498 12.8329 15.4498 12.6329 15.2498 12.4996L15.0498 12.3996H13.9498C14.0165 14.7996 14.0498 18.2329 14.0498 22.6996ZM25.9498 24.8996C25.4165 24.8996 24.9165 24.7329 24.4498 24.3996C23.9831 23.9996 23.5831 23.4663 23.2498 22.7996C22.6498 21.7329 22.2165 20.2329 21.9498 18.2996C21.7498 16.8996 21.5831 15.3329 21.4498 13.5996V11.9996V10.2996C21.4498 9.76627 21.4498 9.09961 21.4498 8.29961C21.4498 7.09961 21.4831 6.03294 21.5498 5.09961C21.6831 4.09961 21.8831 3.09961 22.1498 2.09961C22.4831 1.23294 22.9831 0.632943 23.6498 0.29961C23.9831 0.166277 24.3498 0.0996094 24.7498 0.0996094C25.8165 0.0996094 26.6831 0.532942 27.3498 1.39961C28.0165 2.33294 28.4831 3.39961 28.7498 4.59961C29.0831 6.06628 29.2498 7.46627 29.2498 8.79961C29.3831 10.2663 29.4498 11.6329 29.4498 12.8996V14.6996C29.4498 15.0329 29.3831 15.6996 29.2498 16.6996C29.1831 17.4329 29.1498 18.0663 29.1498 18.5996V18.7996C29.0164 19.3329 28.9498 19.9996 28.9498 20.7996C28.9498 21.3996 28.8165 21.9996 28.5498 22.5996C28.3498 23.1996 28.0165 23.7329 27.5498 24.1996C27.0831 24.6663 26.5498 24.8996 25.9498 24.8996ZM26.0498 23.1996C26.4498 23.1996 26.7831 22.8329 27.0498 22.0996C27.3165 21.4329 27.5164 20.5996 27.6498 19.5996C27.7831 18.5996 27.8831 17.4663 27.9498 16.1996C27.9498 15.6663 27.9498 14.9996 27.9498 14.1996V11.2996C27.9498 10.1663 27.8165 8.76628 27.5498 7.09961C27.4165 5.69961 27.1164 4.46628 26.6498 3.39961C26.4498 2.86628 26.1831 2.43294 25.8498 2.09961C25.5831 1.83294 25.2498 1.69961 24.8498 1.69961C24.3831 1.69961 24.0165 2.09961 23.7498 2.89961C23.4165 3.76628 23.2164 4.69961 23.1498 5.69961C23.0164 6.76627 22.9498 7.79961 22.9498 8.79961L22.8498 9.89961C22.8498 10.1663 22.8498 10.5329 22.8498 10.9996V11.1996C22.8498 12.5329 22.9831 14.2329 23.2498 16.2996C23.5831 19.0329 24.0831 20.9663 24.7498 22.0996C25.1498 22.8329 25.5831 23.1996 26.0498 23.1996ZM38.3498 24.5996C37.0165 24.5996 35.9831 24.0329 35.2498 22.8996C34.4498 21.7663 33.8831 20.3996 33.5498 18.7996C33.2165 16.9996 32.9831 15.0996 32.8498 13.0996C32.7831 11.2996 32.7498 9.33294 32.7498 7.19961V4.59961C32.7498 3.86628 32.7498 3.09961 32.7498 2.29961C32.5498 2.16628 32.4498 1.96627 32.4498 1.69961C32.4498 1.43294 32.5498 1.23294 32.7498 1.09961C32.9498 0.832943 33.1498 0.699608 33.3498 0.699608C34.1498 0.699608 34.5498 1.43294 34.5498 2.89961C34.5498 3.89961 34.5831 5.69961 34.6498 8.29961C34.7831 10.9663 34.8498 12.7663 34.8498 13.6996C34.9165 13.9663 34.9831 14.4996 35.0498 15.2996C35.1831 16.1663 35.2498 16.8329 35.2498 17.2996C35.2498 17.7663 35.3165 18.3329 35.4498 18.9996C35.5831 19.6663 35.7831 20.3663 36.0498 21.0996C36.3165 21.7663 36.6831 22.3329 37.1498 22.7996C37.5498 23.2663 38.0165 23.4996 38.5498 23.4996C38.8165 23.4996 39.0498 23.4329 39.2498 23.2996C39.4498 23.0996 39.5831 22.7996 39.6498 22.3996C39.7831 21.8663 39.8498 21.2996 39.8498 20.6996V14.6996C39.8498 13.8996 39.7498 12.9329 39.5498 11.7996C39.4831 10.4663 39.4498 9.46627 39.4498 8.79961V8.59961C39.4498 8.26628 39.4165 7.96627 39.3498 7.69961V6.79961C39.3498 6.26628 39.3165 5.39961 39.2498 4.19961C39.1831 3.13294 39.1498 2.23294 39.1498 1.49961C39.1498 1.29961 39.2498 1.09961 39.4498 0.899609C39.7165 0.766275 39.9831 0.699608 40.2498 0.699608L41.0498 1.39961V1.89961C41.0498 2.16628 41.0165 2.46628 40.9498 2.79961C40.8165 3.39961 40.7498 3.73294 40.7498 3.79961C40.7498 5.66628 40.8831 8.26628 41.1498 11.5996C41.2831 15.0663 41.3498 17.7663 41.3498 19.6996C41.3498 20.6996 41.2498 21.5996 41.0498 22.3996C40.9165 22.8663 40.7498 23.2663 40.5498 23.5996C40.3498 23.8663 40.0498 24.0996 39.6498 24.2996C39.3164 24.4996 38.8831 24.5996 38.3498 24.5996ZM47.6498 24.2996C47.3831 24.2996 47.1498 24.1329 46.9498 23.7996C46.7498 23.5329 46.6498 23.1663 46.6498 22.6996C46.6498 22.0329 46.7165 21.1996 46.8498 20.1996V19.3996L46.9498 17.7996C46.9498 17.0663 46.8831 15.4329 46.7498 12.8996C46.6165 10.4329 46.5498 8.83294 46.5498 8.09961C46.5498 8.03294 46.5498 7.93294 46.5498 7.79961C46.5498 7.59961 46.5498 7.29961 46.5498 6.89961C46.5498 6.49961 46.5498 5.99961 46.5498 5.39961C46.5498 3.86628 46.4498 2.89961 46.2498 2.49961C46.1165 2.49961 45.8498 2.53294 45.4498 2.59961L44.5498 2.69961C44.2831 2.69961 44.0498 2.63294 43.8498 2.49961C43.6498 2.29961 43.5498 2.06628 43.5498 1.79961C43.5498 1.59961 43.8165 1.39961 44.3498 1.19961C45.0165 0.932941 46.2165 0.766275 47.9498 0.699608C48.6831 0.632941 49.1165 0.599609 49.2498 0.599609C49.5165 0.599609 49.7498 0.666277 49.9498 0.79961C50.1498 0.99961 50.2498 1.23294 50.2498 1.49961C50.2498 1.69961 50.1498 1.89961 49.9498 2.09961C49.8165 2.23294 49.6165 2.29961 49.3498 2.29961H48.7498C48.6165 2.23294 48.4498 2.19961 48.2498 2.19961H47.8498C48.0498 3.59961 48.1498 4.86628 48.1498 5.99961L48.0498 7.99961C48.0498 8.59961 48.0498 9.26628 48.0498 9.99961C48.0498 10.9996 48.0831 12.1996 48.1498 13.5996C48.2831 15.3329 48.3498 16.5329 48.3498 17.1996C48.3498 17.9996 48.3831 18.9329 48.4498 19.9996C48.5165 21.0663 48.5498 21.9996 48.5498 22.7996C48.5498 23.7996 48.2498 24.2996 47.6498 24.2996Z" fill="white"/>
</svg>
