<svg width="59" height="25" viewBox="0 0 59 25" fill="none" xmlns="http://www.w3.org/2000/svg">
<path d="M4.84982 24.55C4.24982 24.55 3.71648 24.4167 3.24982 24.15C2.78315 23.8833 2.3498 23.5167 1.9498 23.05C1.68313 22.65 1.41648 22.1167 1.14981 21.45C0.883144 20.7167 0.683138 20.0167 0.549805 19.35C0.349805 18.0833 0.183138 16.4833 0.0498047 14.55C0.0498047 14.0167 0.0498047 13.1833 0.0498047 12.05V10.05C0.0498047 9.51667 0.0498047 8.95001 0.0498047 8.35001C0.0498047 7.15001 0.149823 6.18333 0.349823 5.45C0.283156 5.18333 0.249817 4.88334 0.249817 4.55C0.249817 3.28334 0.716477 2.28334 1.64981 1.55C2.58314 0.750003 3.74981 0.350006 5.14981 0.350006C5.68314 0.350006 6.18314 0.483333 6.64981 0.75C7.11648 1.08333 7.34982 1.45001 7.34982 1.85001C7.34982 2.05001 7.2498 2.21667 7.0498 2.35001C6.91647 2.48334 6.71647 2.55 6.4498 2.55C6.2498 2.55 6.01648 2.51666 5.74982 2.45C5.54982 2.38333 5.41649 2.28334 5.34982 2.15001H4.9498C4.1498 2.15001 3.51647 2.31668 3.0498 2.65001C2.6498 2.91668 2.34981 3.35 2.14981 3.95C2.08314 4.21666 2.01647 4.51667 1.9498 4.85001C1.88313 5.18334 1.84982 5.48333 1.84982 5.75C1.84982 5.95 1.84982 6.28333 1.84982 6.75L1.9498 7.85001V8.95C1.9498 9.21666 1.91649 9.58334 1.84982 10.05C1.71649 10.5167 1.64981 10.85 1.64981 11.05V11.85C1.64981 12.65 1.68315 13.75 1.74982 15.15C1.74982 16.35 1.88314 17.5167 2.14981 18.65C2.34981 19.7833 2.71648 20.7167 3.24982 21.45C3.71648 22.25 4.38315 22.65 5.24982 22.65C5.58315 22.65 6.01647 22.45 6.5498 22.05C7.08314 21.7167 7.48315 21.55 7.74982 21.55C8.01648 21.55 8.31648 21.7167 8.64981 22.05C8.64981 22.7833 8.34982 23.35 7.74982 23.75C7.21648 24.15 6.58316 24.3833 5.84982 24.45C5.44982 24.5167 5.11649 24.55 4.84982 24.55ZM17.1498 24.05C16.8165 24.05 16.5498 23.9833 16.3498 23.85C16.2165 23.7167 16.1498 23.5167 16.1498 23.25V19.15C15.8831 19.0167 15.3831 18.85 14.6498 18.65C13.9165 18.5167 13.2165 18.45 12.5498 18.45C12.3498 18.85 12.1831 19.35 12.0498 19.95L11.9498 20.65C11.9498 20.7833 11.8832 21.0833 11.7498 21.55C11.6165 22.0833 11.5165 22.5167 11.4498 22.85C11.3165 23.1833 11.1831 23.4833 11.0498 23.75C10.2498 23.75 9.78314 23.5167 9.64981 23.05C9.91648 22.7167 10.1831 21.75 10.4498 20.15L11.4498 14.55C11.9165 11.8167 12.3498 9.51668 12.7498 7.65001C13.0832 5.71668 13.4831 4.11667 13.9498 2.85001C14.4165 1.45001 14.8832 0.75 15.3498 0.75C15.7498 0.75 16.0832 0.816664 16.3498 0.949997C16.3498 1.75 16.5165 3.75 16.8498 6.95C17.3165 10.0167 17.5498 12.1167 17.5498 13.25C17.5498 14.3833 17.6498 15.9833 17.8498 18.05C18.0498 20.1167 18.1498 21.75 18.1498 22.95C18.1498 23.6833 17.8165 24.05 17.1498 24.05V24.05ZM15.5498 17.35C15.6831 17.35 15.8831 17.3167 16.1498 17.25C16.0831 16.3833 15.9832 15.2833 15.8498 13.95C15.3832 9.28333 15.1498 6.41667 15.1498 5.35001V5.05C14.9498 5.25 14.6498 6.18334 14.2498 7.85001C13.9165 9.51667 13.5832 11.3167 13.2498 13.25C12.9832 15.1167 12.8165 16.3833 12.7498 17.05C13.6165 17.25 14.5498 17.35 15.5498 17.35V17.35ZM27.2498 24.65C25.9832 24.65 24.9832 24.0833 24.2498 22.95C23.3832 21.8167 22.8165 20.4167 22.5498 18.75C22.1498 17.0167 21.8832 15.15 21.7498 13.15C21.6832 11.2833 21.6498 9.28334 21.6498 7.15001V4.65001C21.6498 3.91668 21.6498 3.15001 21.6498 2.35001C21.5165 2.15001 21.4498 1.91668 21.4498 1.65001C21.4498 1.45001 21.5165 1.25 21.6498 1.05C21.8498 0.850003 22.0832 0.75 22.3498 0.75C23.0832 0.75 23.4498 1.48333 23.4498 2.95C23.4498 3.88333 23.4831 5.68334 23.5498 8.35001C23.6831 11.0167 23.7498 12.8167 23.7498 13.75C23.8165 14.0167 23.9165 14.55 24.0498 15.35C24.1165 16.15 24.1498 16.8167 24.1498 17.35C24.1498 17.8167 24.2165 18.3833 24.3498 19.05C24.5498 19.7167 24.7831 20.3833 25.0498 21.05C25.3165 21.7833 25.6498 22.3833 26.0498 22.85C26.5165 23.3167 26.9831 23.55 27.4498 23.55C27.7165 23.55 27.9498 23.45 28.1498 23.25C28.3498 23.05 28.4831 22.7833 28.5498 22.45C28.6831 21.85 28.7498 21.2833 28.7498 20.75V14.65C28.7498 13.9167 28.6831 12.95 28.5498 11.75C28.4165 10.4833 28.3498 9.51667 28.3498 8.85001V8.65001C28.3498 8.31668 28.3498 8.01667 28.3498 7.75L28.2498 6.85001C28.2498 6.25001 28.2165 5.35001 28.1498 4.15001C28.0831 3.08334 28.0498 2.21667 28.0498 1.55C28.0498 1.28334 28.1498 1.08333 28.3498 0.949997C28.6165 0.749997 28.8831 0.650009 29.1498 0.650009L29.9498 1.35001V1.95C29.9498 2.15 29.9165 2.45001 29.8498 2.85001C29.7832 3.38334 29.7498 3.71667 29.7498 3.85001C29.7498 5.71667 29.8498 8.28334 30.0498 11.55C30.2498 15.0167 30.3498 17.7167 30.3498 19.65C30.3498 20.7167 30.2498 21.65 30.0498 22.45C29.9165 22.9167 29.7165 23.2833 29.4498 23.55C29.2498 23.8167 28.9831 24.05 28.6498 24.25C28.2498 24.5167 27.7832 24.65 27.2498 24.65V24.65ZM36.0498 24.75C35.3165 24.75 34.6831 24.6167 34.1498 24.35C33.8165 24.15 33.6498 23.9167 33.6498 23.65C33.6498 23.45 33.7165 23.25 33.8498 23.05C33.9832 22.9167 34.1498 22.85 34.3498 22.85C34.5498 22.85 34.8498 22.9167 35.2498 23.05C35.6498 23.25 35.9165 23.35 36.0498 23.35C36.4498 23.35 36.8165 23.1833 37.1498 22.85C37.4831 22.5167 37.7165 22.05 37.8498 21.45C38.2498 20.45 38.4498 19.5167 38.4498 18.65C38.4498 17.7833 38.3165 16.85 38.0498 15.85C37.7831 14.9167 37.3832 13.9833 36.8498 13.05L36.3498 12.05C35.8832 10.9833 35.4831 10.15 35.1498 9.55C34.8831 8.95 34.6498 8.31668 34.4498 7.65001C34.1831 6.65001 34.0498 5.68333 34.0498 4.75C34.0498 4.01667 34.1498 3.31668 34.3498 2.65001C34.6165 1.98334 35.0165 1.41666 35.5498 0.949997C36.0831 0.48333 36.7165 0.25 37.4498 0.25C37.8498 0.25 38.2165 0.350003 38.5498 0.550003C38.8831 0.750003 39.1498 1.01667 39.3498 1.35001L38.7498 2.05C38.2165 2.05 37.8165 1.91668 37.5498 1.65001C37.2165 1.71668 36.8831 1.91667 36.5498 2.25C36.2831 2.58333 36.0831 2.95001 35.9498 3.35001C35.8165 3.75001 35.7498 4.15 35.7498 4.55C35.7498 5.28334 35.8498 6.08333 36.0498 6.95C36.3165 7.75 36.6165 8.51667 36.9498 9.25L39.1498 13.55C39.4831 14.2833 39.7498 15.1167 39.9498 16.05C40.1498 16.9833 40.2498 17.9167 40.2498 18.85C40.2498 20.25 39.9165 21.55 39.2498 22.75C38.9165 23.35 38.4831 23.85 37.9498 24.25C37.3498 24.5833 36.7165 24.75 36.0498 24.75V24.75ZM45.5498 24.25C45.1498 24.25 44.8165 24.1833 44.5498 24.05C44.2165 23.9833 44.0498 23.7167 44.0498 23.25V5.25C44.0498 4.85 43.9832 4.31668 43.8498 3.65001C43.7165 2.98334 43.6498 2.45 43.6498 2.05V1.95C43.9831 1.35 44.2165 0.983339 44.3498 0.850006C44.6832 0.850006 45.0831 0.816667 45.5498 0.75C45.9498 0.616667 46.3165 0.550003 46.6498 0.550003C46.9831 0.550003 47.3165 0.650006 47.6498 0.850006C47.9831 1.05001 48.1498 1.28334 48.1498 1.55C48.1498 2.21667 47.6498 2.55 46.6498 2.55H46.2498C46.1165 2.48334 45.9832 2.45 45.8498 2.45C45.6498 2.45 45.5165 2.48334 45.4498 2.55C45.4498 3.21667 45.4831 4.05 45.5498 5.05L45.6498 5.95L45.7498 7.65001C45.7498 8.05001 45.7165 8.65 45.6498 9.45L45.5498 11.15L46.0498 11.05C46.4498 10.9167 46.7831 10.85 47.0498 10.85C47.2498 10.85 47.4498 10.95 47.6498 11.15C47.8498 11.35 47.9498 11.55 47.9498 11.75C47.9498 12.0167 47.8498 12.25 47.6498 12.45C47.5165 12.65 47.3498 12.75 47.1498 12.75L46.7498 12.65H46.3498C46.0165 12.65 45.7831 12.7167 45.6498 12.85V22.45L47.4498 22.35C48.5831 22.35 49.1498 22.6167 49.1498 23.15V23.35C49.0831 23.55 48.8831 23.75 48.5498 23.95C48.2165 24.0833 47.8831 24.1833 47.5498 24.25H46.5498H45.5498ZM54.1498 24.75C53.4165 24.75 52.7832 24.6167 52.2498 24.35C51.9165 24.15 51.7498 23.9167 51.7498 23.65C51.7498 23.45 51.8165 23.25 51.9498 23.05C52.0831 22.9167 52.2498 22.85 52.4498 22.85C52.6498 22.85 52.9498 22.9167 53.3498 23.05C53.7498 23.25 54.0165 23.35 54.1498 23.35C54.5498 23.35 54.9165 23.1833 55.2498 22.85C55.5165 22.5167 55.7498 22.05 55.9498 21.45C56.3498 20.45 56.5498 19.5167 56.5498 18.65C56.5498 17.7833 56.3831 16.85 56.0498 15.85C55.7831 14.9167 55.4165 13.9833 54.9498 13.05L54.4498 12.05C53.9831 10.9833 53.5832 10.15 53.2498 9.55C52.9832 8.95 52.7498 8.31668 52.5498 7.65001C52.2831 6.65001 52.1498 5.68333 52.1498 4.75C52.1498 4.01667 52.2498 3.31668 52.4498 2.65001C52.7165 1.98334 53.1165 1.41666 53.6498 0.949997C54.1831 0.48333 54.8165 0.25 55.5498 0.25C55.9498 0.25 56.3165 0.350003 56.6498 0.550003C56.9831 0.750003 57.2498 1.01667 57.4498 1.35001L56.8498 2.05C56.3165 2.05 55.9165 1.91668 55.6498 1.65001C55.3165 1.71668 54.9831 1.91667 54.6498 2.25C54.3831 2.58333 54.1831 2.95001 54.0498 3.35001C53.9165 3.75001 53.8498 4.15 53.8498 4.55C53.8498 5.28334 53.9498 6.08333 54.1498 6.95C54.4165 7.75 54.7165 8.51667 55.0498 9.25L57.2498 13.55C57.5832 14.2833 57.8498 15.1167 58.0498 16.05C58.2498 16.9833 58.3498 17.9167 58.3498 18.85C58.3498 20.25 58.0165 21.55 57.3498 22.75C57.0165 23.35 56.5831 23.85 56.0498 24.25C55.4498 24.5833 54.8165 24.75 54.1498 24.75V24.75Z" fill="white"/>
</svg>
