<svg width="343" height="159" viewBox="0 0 343 159" fill="none" xmlns="http://www.w3.org/2000/svg">
<path d="M255.027 34.897C245.374 19.7906 228.065 10.3912 210.7 10.8243C193.332 11.2553 176.471 21.5056 167.515 37.0735C153.184 30.2159 137.962 23.553 122.255 24.8808C106.546 26.2063 90.5191 38.2656 89.7244 54.726C75.4333 48.0675 58.76 44.9614 44.1469 50.8105C29.5337 56.6597 18.3422 73.4023 21.9772 89.318C24.9052 102.132 36.3728 111.273 48.516 114.775C60.6591 118.28 73.528 117.166 86.0768 116.024C95.3526 133.863 113.716 146.154 133.089 147.49C152.46 148.827 172.208 139.167 183.646 122.762C199.291 131.424 215.972 140.333 233.637 139.159C251.304 137.98 269.324 122.278 266.779 103.956C286.351 107.666 311.532 106.531 319.706 87.5659C326.235 72.4136 316.57 53.9517 302.742 45.7641C288.913 37.5744 272.281 36.9991 256.394 36.6294" fill="white"/>
<path d="M262.906 30.9905C257.479 23.0479 250.107 16.7 241.831 12.3952C233.561 8.05748 224.304 5.92692 215.189 6.21129C206.066 6.51315 197.039 9.4115 189.178 14.2829C181.309 19.1324 174.451 25.8697 169.75 34.0244L168.303 36.54L165.743 35.3216C157.826 31.5505 149.992 27.7684 141.862 25.1194C133.766 22.442 125.358 20.8911 117.036 21.4883C108.863 22.0526 100.771 25.3907 94.3687 30.7433C91.1897 33.4448 88.4478 36.6756 86.4671 40.3177C84.4802 43.9488 83.3592 48.0305 83.2839 52.1254L83.2065 56.3362L79.3247 54.6672C72.2723 51.6332 64.8161 49.7586 57.4311 48.9843C53.7334 48.608 50.0419 48.5861 46.4341 48.9361C42.8221 49.2183 39.3001 49.927 35.9035 50.9223C32.4839 51.981 29.3174 53.3241 26.3768 55.1594C23.4257 57.0056 20.7131 59.2936 18.2682 61.8551C13.4745 67.0152 9.74329 73.5556 8.86069 80.5576C8.40684 84.0422 8.64317 87.5486 9.52787 90.9369C10.4669 94.31 12.0586 97.5189 14.2044 100.374C18.4731 106.102 24.5949 110.543 31.3023 113.306C37.9992 116.042 45.4951 117.186 53.0181 117.429C60.5809 117.619 68.2963 117.18 76.1101 116.593L78.4547 116.418L79.4544 118.474C84.0724 127.959 91.2085 136.201 99.8254 142.208C108.453 148.127 118.632 151.951 128.933 152.104C139.241 152.286 149.255 149.232 158.351 144.772C167.395 140.145 175.683 133.66 181.747 125.214L183.884 122.235L186.898 123.969C195.458 128.898 203.981 133.655 212.843 137.214C221.675 140.753 230.932 143.046 240.168 142.56C249.153 142.145 258.102 138.085 264.799 131.715C268.146 128.539 270.936 124.728 272.621 120.491C274.343 116.283 274.882 111.667 274.094 107.297L273.224 102.473L278.16 103.189C285.045 104.188 291.993 104.595 298.798 104.223C305.573 103.725 312.238 102.565 318.163 100.089C321.068 98.7614 323.821 97.2149 326.153 95.1805C328.38 93.0719 330.48 90.7685 331.787 87.8877C334.765 82.4082 335.123 75.7518 333.567 69.3689C332.825 66.1621 331.448 63.0713 329.832 60.1423C328.194 57.2177 326.224 54.4441 323.925 51.9985C321.637 49.553 319.127 47.2737 316.325 45.5172C313.493 43.6972 310.435 42.1442 307.273 40.847C304.1 39.5652 300.791 38.5699 297.426 37.7496C294.065 36.8856 290.623 36.2512 287.142 35.7525C280.184 34.7332 273.077 34.3088 265.939 33.786L266.021 29.8836C273.19 29.7108 280.412 29.6671 287.697 30.2161C294.973 30.7061 302.339 31.9333 309.477 34.416C313.041 35.6847 316.521 37.2378 319.878 39.1802C323.308 41.1248 326.379 43.6469 329.21 46.4097C332.042 49.1789 334.556 52.3223 336.614 55.8068C338.674 59.2783 340.454 63.0013 341.534 67.048C342.64 71.0707 343.186 75.3428 342.943 79.6651C342.732 83.9831 341.483 88.3164 339.58 92.1356C337.832 96.0665 335.012 99.4263 331.986 102.329C328.849 105.149 325.304 107.301 321.631 108.913C314.246 112.041 306.51 113.039 299.014 113.023C291.499 112.953 284.127 111.954 276.919 110.357L280.985 106.249C281.65 112.043 280.619 117.952 278.398 123.112C276.158 128.283 272.847 132.776 268.972 136.494C265.079 140.213 260.606 143.184 255.802 145.358C251.01 147.548 245.848 148.989 240.548 149.363C230.145 150.113 219.847 147.865 210.341 144.341C200.789 140.819 191.871 136.088 183.121 131.435L188.272 130.19C181.611 140.003 172.508 148.046 162.018 152.972C151.581 158.069 139.785 159.664 128.537 158.351C117.283 157.019 106.426 153.241 96.8931 147.001C87.3435 140.852 79.0654 132.301 73.3661 121.937L76.7104 123.816C68.9071 124.647 60.9615 125.579 52.8361 125.398C44.717 125.231 36.4285 124.164 28.4432 121.038C20.5604 117.893 13.2298 112.818 7.74594 105.661C2.23907 98.5864 -0.760112 88.8917 0.166413 79.5076C1.01765 70.1126 5.21943 61.5117 11.0923 54.7744C14.0225 51.3729 17.4588 48.4505 21.2443 46.0903C25.0634 43.7519 29.2652 42.0829 33.4209 41.0614C41.8245 38.9068 50.4853 39.2086 58.5689 40.928C66.7006 42.5992 74.3365 45.6856 81.617 49.2861L77.6578 51.8279C78.0029 46.7728 79.5799 41.8839 81.9767 37.614C84.3735 33.3288 87.5923 29.6605 91.2252 26.6462C98.4931 20.6024 107.371 16.9188 116.628 16.0088C125.785 15.1579 134.929 16.7109 143.533 19.3052C152.16 21.9323 160.388 25.5066 168.363 29.3346L164.356 30.6295C169.618 21.462 177.156 13.8082 185.973 8.52121C194.793 3.24732 204.849 0.184925 215.049 0.00993045C225.258 -0.186938 235.332 2.68735 244.186 7.65281C253.037 12.6423 260.7 19.9549 266.008 28.8205L262.906 30.9905Z" fill="#005948"/>
<path d="M29.5083 66.5393C25.1079 69.2671 22.3408 74.3244 21.086 79.5217C19.8499 84.7387 19.8708 90.4917 22.2948 94.9125C24.6624 99.3683 28.9144 102.457 33.4424 104.443C38.0562 106.447 43.1469 107.44 48.3296 109.063C48.8064 109.214 49.0762 109.739 48.9361 110.238C48.8252 110.618 48.5053 110.874 48.1455 110.907C42.7411 111.377 37.1213 110.767 31.8403 108.466C26.5782 106.208 21.8075 102.022 19.4483 96.3562C17.1331 90.6098 17.7438 84.4391 19.2977 79.0011C20.8538 73.5194 23.8425 68.2608 28.5672 64.9688C28.975 64.6844 29.5251 64.8003 29.797 65.2269C30.0689 65.6534 29.958 66.2287 29.5502 66.5109C29.5376 66.5197 29.5209 66.5328 29.5083 66.5393Z" fill="#005948"/>
<path d="M31.7983 78.7515C31.0788 80.4117 30.9617 82.3213 31.2315 84.1172C31.4971 85.9262 32.2773 87.6237 33.2958 89.0411C34.3206 90.4651 35.4856 91.666 36.6756 92.7597C37.9033 93.8447 39.0453 94.8094 40.411 96.3187L40.4612 96.3756C40.8356 96.7912 40.8168 97.443 40.4215 97.8368C40.2772 97.979 40.1057 98.0664 39.9237 98.1014C37.69 98.5411 35.5044 97.5305 33.9295 96.0387C32.3065 94.5578 31.1625 92.6001 30.4828 90.5504C29.7968 88.4921 29.4747 86.3834 29.3826 84.3032C29.2885 82.2142 29.5813 80.1427 30.1314 78.1237L30.1356 78.1127C30.2694 77.6184 30.7609 77.334 31.2336 77.474C31.7063 77.614 31.9782 78.128 31.8443 78.6224C31.8318 78.664 31.815 78.7121 31.7983 78.7515Z" fill="#005948"/>
<path d="M150.341 40.4232C142.507 36.1096 133.239 34.9087 124.639 36.4224C120.32 37.1333 116.152 38.4392 112.128 40.0251C108.096 41.6503 104.27 43.5993 100.163 45.5505C99.7087 45.7714 99.1691 45.568 98.9579 45.0912C98.8052 44.7499 98.8721 44.3518 99.0876 44.0784C102.126 40.3116 106.27 37.6845 110.641 35.9543C115.023 34.1803 119.697 33.3381 124.332 33.1325C133.62 32.8131 142.799 34.7293 151.126 38.7607C151.569 38.9751 151.764 39.5263 151.559 39.9901C151.354 40.456 150.827 40.6594 150.383 40.4451C150.371 40.4385 150.354 40.4297 150.341 40.4232Z" fill="#005948"/>
<path d="M140.42 45.6114C136.419 44.2093 131.96 44.3493 128.024 45.7492C126.048 46.4252 124.169 47.2411 122.31 48.0526C120.449 48.8904 118.637 49.6844 116.351 50.1153L116.324 50.1197C115.797 50.2182 115.293 49.8529 115.199 49.3016C115.155 49.0566 115.201 48.8138 115.312 48.6148C116.546 46.3792 118.558 44.9486 120.702 44.0321C122.852 43.0893 125.169 42.6168 127.468 42.4943C129.773 42.3675 132.042 42.4856 134.275 42.6912C136.513 42.8925 138.705 43.3321 140.899 43.8265C141.378 43.9337 141.683 44.428 141.579 44.929C141.476 45.4299 141.004 45.7492 140.525 45.6421C140.493 45.6333 140.452 45.6224 140.42 45.6114Z" fill="#005948"/>
</svg>
