<svg width="377" height="851" viewBox="0 0 377 851" fill="none" xmlns="http://www.w3.org/2000/svg">
<path d="M309.894 112.161C310.056 112.205 310.219 112.043 310.123 112.118C310.068 112.179 310.01 112.358 310.025 112.433C309.97 112.497 310.343 112.995 310.942 113.247C312.248 113.8 313.916 114.341 315.386 114.868C318.42 115.942 321.509 116.828 324.599 117.645C330.8 119.176 337.157 120.062 343.37 119.686C349.563 119.416 355.515 117.818 360.909 115.256C366.3 112.622 370.964 109.116 375.083 104.365L375.104 104.339C375.558 103.818 376.348 103.76 376.87 104.214C377.249 104.541 377.382 105.051 377.255 105.506C375.321 112.254 369.638 117.546 363.402 120.459C357.128 123.507 350.064 124.506 343.341 124.063C336.61 123.603 330.146 122.063 323.907 120.12C320.768 119.194 317.711 118.07 314.639 117.014C313.07 116.449 311.663 115.977 309.981 115.305C309.159 114.897 308.015 114.341 307.682 112.755C307.584 112.025 307.746 111.371 308.134 110.76C308.473 110.164 309.454 109.53 310.43 109.767C311.09 109.915 311.507 110.572 311.359 111.232C311.212 111.892 310.557 112.309 309.894 112.161Z" fill="#005948"/>
<path d="M332.897 102.309C332.778 102.364 332.454 102.929 332.691 103.447C332.905 103.861 333.079 103.864 333.14 103.904C333.299 103.936 333.296 103.982 333.635 103.858C333.786 103.8 334.014 103.554 334.069 103.351C334.121 103.122 334.095 103.18 334.092 103.076C334.066 102.94 334 102.891 334.017 102.914C334.043 103.041 334.808 103.322 335.372 103.557C336.542 104.063 337.816 104.289 339.06 104.506C341.582 104.883 344.167 104.544 346.527 103.788C348.901 103.033 351.078 102.014 353.171 100.937C355.273 99.8134 357.23 98.7335 359.949 97.7926L360.033 97.7636C360.742 97.5176 361.515 97.8939 361.761 98.6032C361.854 98.8783 361.856 99.162 361.784 99.4196C360.913 102.497 358.504 104.718 355.823 106.061C353.134 107.456 350.114 108.09 347.158 108.119C344.196 108.16 341.316 107.731 338.557 107.025C337.173 106.689 335.835 106.194 334.521 105.661C333.878 105.334 333.253 105.302 332.332 104.437C332.118 104.214 331.878 103.864 331.805 103.392C331.785 103.12 331.753 103.004 331.866 102.616C331.962 102.251 332.318 101.872 332.625 101.747C333.27 101.475 333.632 101.571 334.098 101.724C334.31 101.831 334.634 101.938 334.918 102.506C335.233 103.183 334.813 103.924 334.582 104.092C334.09 104.556 333.314 104.535 332.848 104.043C332.381 103.551 332.405 102.775 332.897 102.309Z" fill="#005948"/>
<path d="M428.631 5.0921C552.474 -6.82125 685.528 38.765 759.686 138.666C790.238 179.826 809.919 228.252 822.666 277.9C857.384 413.142 836.661 566.533 747.295 673.814C594.051 857.775 383.435 874.349 235.142 817.872C158.706 788.759 106.171 734.038 71.1897 685.817C-24.1315 554.432 0.384198 326.521 34.9228 253.344C142.476 25.4678 333.089 10.4567 433.587 3.87903" fill="white"/>
<path d="M765.601 311.576C766.591 315.221 767.518 318.88 768.383 322.557L763.939 317.111C764.672 315.322 765.236 313.472 765.601 311.576ZM599.416 411.005C599.367 411.06 599.315 411.115 599.266 411.17C598.872 410.733 598.475 410.29 598.082 409.853C598.528 410.235 598.97 410.62 599.416 411.005M822.171 442.698C821.439 442.177 820.741 441.662 820.014 441.143C821.639 440.286 823.211 439.279 824.696 438.092C837.394 427.953 839.377 409.552 829.125 396.993L821.091 387.147C830.032 381.383 835.063 371.067 834.397 359.803C820.486 125.192 577.095 28.9213 568.482 37.2245C561.49 32.5923 554.212 28.38 546.636 24.735C537.962 20.5574 527.514 24.1415 523.301 32.7197C521.836 35.6959 521.335 38.8863 521.645 41.958C490.662 30.9566 458.645 24.6482 426.66 23.5394C410.331 22.9574 396.666 35.5945 396.093 51.7261C396.09 51.8419 396.099 51.9577 396.096 52.0735C384.82 42.5544 383.56 40.496 370.996 32.9832C362.745 28.047 342.224 29.0169 337.236 37.1811C332.248 45.3453 333.953 50.9994 342.207 55.9326C344.537 57.3252 346.819 58.8075 349.106 60.2869C344.3 60.9325 339.671 62.6869 335.69 65.5386C328.041 59.7078 319.787 53.715 310.366 47.2416C296.962 38.0294 278.552 41.3153 269.244 54.5749C266.41 58.6077 264.763 63.1009 264.198 67.6607L262.577 66.2016C250.522 55.3218 233.658 61.8907 222.656 73.8214C218.461 78.3725 214.182 78.1612 213.404 83.8356C203.117 80.7987 191.522 83.4072 183.59 91.6003C177.681 97.7003 175.006 105.676 175.46 113.496C167.664 113.079 159.723 115.673 153.594 121.388C141.718 132.465 141.171 150.961 152.363 162.707L167.953 179.064C167.224 178.983 166.491 178.943 165.756 178.911C161.793 175.138 157.658 171.253 153.223 167.148C141.301 156.123 122.607 156.74 111.458 168.535C105.88 174.438 103.251 182.023 103.514 189.51C98.2191 190.329 93.0861 192.55 88.7405 196.281C76.4132 206.86 75.0872 225.319 85.7817 237.513C90.851 243.295 95.9811 249.053 101.079 254.823C97.6111 254.809 94.1341 255.408 90.8047 256.607C84.9537 251.5 79.0795 246.433 73.1822 241.431C65.8605 235.221 59.8271 238.848 53.5563 246.092C47.2768 253.335 43.1339 261.45 50.4528 267.657C51.6195 268.645 52.7746 269.664 53.9414 270.657C47.3984 268.358 45.6874 270.471 40.8295 275.946C34.4689 283.117 29.3301 293.615 36.5794 299.906L43.6754 306.061C36.9993 316.926 38.0559 331.26 47.2131 341.063C55.8492 350.304 64.2566 359.258 72.5453 368.074C72.3918 368.135 72.2413 368.21 72.0908 368.271C61.266 357.327 50.5541 346.291 40.1143 335.11C33.5743 328.107 27.8826 328.399 24.8311 337.449C21.9216 346.08 17.1996 357.414 23.7396 364.423C35.1261 376.62 37.4856 382.819 49.315 394.738C41.5475 393.565 33.3311 395.398 26.655 400.574C14.4579 410.03 11.835 427.062 20.2164 439.635C18.5893 440.347 17.0433 441.314 15.6479 442.553C8.46802 448.917 7.86585 459.84 14.3017 466.942C19.4202 472.587 24.6922 478.105 30.0539 483.533C21.2673 485.088 14.9646 493.038 15.7463 502.007C21.3223 566.128 44.7726 627.327 83.5612 678.996C86.9861 683.559 92.2552 685.971 97.5937 685.971C101.213 685.971 104.86 684.862 107.987 682.569C108.051 682.523 108.103 682.468 108.164 682.424C108.17 682.433 108.175 682.439 108.181 682.447C101.572 688.527 100.691 698.703 106.401 705.817C137.312 744.31 234.144 807.356 237.549 803.442C250.533 812.495 265.709 821.652 283.76 824.53C284.698 824.678 285.636 824.753 286.56 824.753C291.126 824.753 295.355 822.932 298.528 819.953C305.986 825.567 314.133 830.847 323.678 834.321C325.736 835.065 327.844 835.422 329.911 835.422C336.932 835.422 343.507 831.322 346.324 824.553C346.326 824.548 346.326 824.539 346.332 824.53C349.644 826.788 352.965 829.035 356.306 831.253C359.291 833.233 362.669 834.182 366.016 834.182C371.172 834.182 376.227 831.898 379.632 827.689C383.786 831.064 388.001 834.371 392.289 837.596C395.451 839.976 399.162 841.119 402.845 841.119C408.114 841.119 413.322 838.774 416.756 834.304C419.211 831.111 420.354 827.347 420.302 823.627C423.096 826.545 425.89 829.469 428.623 832.437C432.068 836.183 436.796 838.082 441.538 838.082C445.733 838.082 449.942 836.597 453.286 833.58C459.728 827.778 460.752 818.312 456.106 811.337C457.956 812.779 459.794 814.215 461.653 815.665L466.224 819.229C471.644 823.456 478.091 825.503 484.495 825.503C493.236 825.503 501.892 821.684 507.72 814.368C509.949 811.569 511.547 808.486 512.595 805.281C514.199 805.744 515.855 806.01 517.525 806.01C521.011 806.01 524.529 804.982 527.592 802.84C530.553 800.77 532.667 797.947 533.851 794.824C536.873 797.313 540.423 799.236 544.363 800.388C547.139 801.204 549.956 801.592 552.75 801.592C563.158 801.592 573.146 796.15 578.774 786.824C580.833 783.431 582.199 779.627 582.732 775.623C583.418 772.088 583.76 768.183 583.626 764.193L595.302 779.665C598.73 784.207 603.985 786.601 609.303 786.601C612.936 786.601 616.602 785.484 619.737 783.171C627.464 777.462 629.051 766.64 623.281 758.997L610.105 741.545C610.635 740.807 611.127 740.045 611.584 739.269C614.618 742.347 617.667 745.41 620.739 748.444C626.509 754.153 634.068 757.002 641.63 757.002C649.192 757.002 656.754 754.15 662.524 748.438C670.016 741.027 672.61 730.63 670.369 721.12C676.365 721.323 682.451 719.736 687.752 716.248C697.679 709.71 702.444 698.095 700.464 686.9C702.65 687.349 704.873 687.603 707.114 687.603C713.217 687.601 719.381 685.916 724.78 682.488C736.233 675.227 741.441 661.823 737.747 649.133C737.692 648.945 737.608 648.78 737.553 648.595C738.26 648.288 738.963 647.955 739.655 647.59C751.438 641.346 757.518 628.051 754.478 615.174C753.772 612.183 752.926 609.256 752.02 606.358C752.918 606.442 753.818 606.5 754.718 606.5C761.513 606.5 768.34 604.196 773.907 599.485C780.876 593.591 784.353 585.181 784.208 576.767C784.274 576.796 784.338 576.828 784.405 576.857C785.38 580.178 787.068 582.841 788.97 584.659C791.089 586.706 793.432 587.56 795.079 587.763C795.516 587.806 795.898 587.847 796.231 587.879C796.486 587.861 796.703 587.847 796.877 587.832C797.224 587.809 797.404 587.795 797.404 587.795L797.531 584.819C797.531 584.819 797.355 584.79 797.01 584.74C796.839 584.711 796.625 584.677 796.373 584.639C796.199 584.567 796.002 584.503 795.785 584.436C794.821 584.127 793.429 583.313 792.097 581.744C791.359 580.829 790.658 579.622 790.079 578.229C790.49 578.258 790.901 578.336 791.315 578.336C796.318 578.336 801.283 576.22 804.74 572.124C810.909 564.796 809.916 553.905 802.508 547.796C794.011 540.79 785.774 533.46 777.778 525.874C779.332 523.949 780.621 521.853 781.628 519.635L789.526 527.325C792.925 530.64 797.352 532.293 801.775 532.293C806.289 532.293 810.796 530.576 814.213 527.139C820.981 520.342 820.897 509.41 814.027 502.716L806.726 495.606C815.324 495.099 823.63 490.945 829.03 483.473C838.52 470.343 835.448 452.084 822.171 442.698" fill="#00E9E9"/>
<path d="M347.403 13.8424C348.764 22.933 353.993 28.8072 361.861 33.1238C368.824 36.9424 377.261 37.7936 383.471 42.8108C391.684 49.4492 394.067 61.8345 402.486 68.1921C412.694 75.9018 428.452 72.2858 437.838 81.0377C443.576 86.3878 445.209 94.8242 448.031 102.259C450.854 109.688 456.688 117.403 464.4 116.87C472.492 116.312 477.072 107.4 480.969 100.056C488.363 86.1244 498.693 73.8636 511.032 64.3764C519.775 57.6511 529.609 52.2083 536.894 43.8327C544.175 35.4601 550.576 18.3703 545.605 8.35326C545.605 8.35326 403.177 -1.35401 347.403 13.8424Z" fill="white"/>
<path d="M359.066 9.4068C360.195 16.6996 364.527 21.4128 371.043 24.8753C376.81 27.9383 383.799 28.6216 388.944 32.6458C395.747 37.9728 397.722 47.9088 404.696 53.0099C413.153 59.1968 426.207 56.293 433.98 63.3165C438.734 67.6099 440.089 74.3758 442.425 80.3397C444.764 86.3007 449.596 92.4904 455.986 92.062C462.688 91.6132 466.483 84.4652 469.711 78.5737C475.835 67.3957 484.392 57.561 494.612 49.9469C501.856 44.5533 510.003 40.1875 516.036 33.468C522.072 26.7485 527.373 13.0401 523.256 5.00335C523.256 5.00335 405.269 -2.78448 359.066 9.4068" fill="#ACCE3D"/>
<path d="M358.808 847.351C335.19 837.762 357.558 813.272 347.242 790.56C344.481 784.478 344.672 775.729 342.396 769.452C340.118 763.173 337.037 753.121 335.19 746.699C326.146 715.293 286.222 713.264 265.751 687.781C253.699 672.776 253.516 650.605 261.571 633.125C269.622 615.644 284.642 602.28 300.811 591.838C305.148 589.035 309.997 585.865 311.071 580.813C311.832 577.223 310.428 573.503 308.46 570.408C297.148 552.618 274.824 559.418 256.024 549.879C247.634 545.623 233.737 538.206 225.234 534.173C204.931 524.544 189.87 525.98 170.184 536.347C161.759 540.782 147.33 536.964 141.184 529.691C135.813 523.339 130.66 507.717 127.235 500.098C114.745 472.319 92.0971 449.242 64.5589 436.237C62.7408 435.378 60.6881 434.55 58.7745 435.019C57.8191 435.25 57.3124 436.321 57.5527 437.274C62.7002 457.647 69.7006 478.213 75.1405 498.618C75.7629 500.949 75.32 503.554 73.6177 505.265C68.5715 510.343 60.5984 499.849 58.4879 493.989C51.9073 475.727 43.2799 458.88 35.7063 441.304C32.0093 432.717 31.216 423.209 32.9704 414.026C33.9895 408.708 33.8129 402.984 33.5581 397.53C32.9009 383.263 32.2409 368.996 31.5808 354.732C31.3434 349.604 31.0654 344.312 28.8246 339.692C26.3522 334.596 0.0299573 322.593 0.939019 317.003C5.38011 289.702 30.0782 228.329 30.0782 228.329C99.5317 94.5864 187.537 53.971 187.537 53.971C194.277 82.2677 201.63 124.189 181.854 145.52C187.297 158.116 195.105 170.403 207.282 176.897C221.612 184.543 239.438 180.064 247.903 166.203C250.833 161.408 253.033 156.096 255.207 150.908C270.742 113.847 341.423 115.336 358.412 119.256C375.4 123.173 390.223 133.181 405.877 140.856C428.65 152.019 453.759 158.383 479.1 159.413C488.642 172.635 477.525 192.038 462.763 198.963C448.001 205.883 430.908 205.26 415.118 209.316C396.972 213.977 378.058 229.42 385.686 249.399C386.955 252.726 387.725 256.266 387.609 259.827C387.047 277.085 369.39 273.376 359.937 281.011C353.803 285.964 352.335 294.687 352.439 302.57C352.714 323.03 360.54 342.569 363.993 362.739C367.444 382.91 365.36 406.267 349.955 419.738C311.621 384.007 253.71 392.985 206.474 415.673C185.722 425.638 186.779 456.483 198.006 476.584C204.398 488.031 213.784 498.777 226.427 502.246C246.47 507.744 266.127 493.668 282.166 480.451C299.604 481.902 272.908 510.896 281.625 522.729C289.847 533.892 305.666 535.198 318.364 540.759C326.508 544.323 333.635 549.864 341.585 553.848C378.174 572.186 424.791 554.85 461.88 572.148C492.081 586.238 522.683 638.944 550.134 620.045C569.245 606.889 598.109 610.827 612.998 628.617C623.565 641.242 626.825 658.833 624.697 675.153C622.567 691.478 615.558 706.77 607.469 721.11C600.839 732.858 592.66 744.821 580.171 749.927C573.59 752.614 566.092 753.257 560.261 757.324C553.649 761.942 550.539 769.97 546.136 776.727C538.423 788.563 526.42 796.779 516.131 806.457C505.266 816.68 496.433 827.024 489.734 839.198" fill="white"/>
<path d="M357.551 842.914C348.098 821.846 363.821 783.043 354.271 762.019C351.714 756.388 347.447 751.611 345.342 745.801C343.234 739.987 343.443 733.575 341.735 727.634C333.362 698.561 289.504 698.943 270.556 675.354C259.398 661.466 259.23 640.94 266.682 624.756C274.137 608.578 288.042 596.205 303.007 586.538C307.022 583.947 311.513 581.008 312.506 576.333C313.212 573.009 311.909 569.567 310.088 566.704C299.62 550.233 276.166 549.762 258.761 540.932C250.994 536.994 244.257 531.21 236.385 527.481C217.59 518.567 196.224 517.423 177.996 527.023C170.197 531.132 158.753 528.813 153.064 522.081C148.093 516.202 145.499 508.668 142.329 501.613C130.769 475.899 109.802 454.539 84.3081 442.498C81.8791 441.352 78.9926 440.263 76.6997 442.759C75.1161 444.484 74.8005 447.02 75.4664 449.261C80.5184 466.252 80.1246 476.446 85.1592 493.414C86.4359 497.719 84.4181 503.208 80.5328 505.461C75.8167 508.197 76.9574 505.319 75.1248 500.238C68.5268 481.929 62.1113 462.28 55.577 443.491C53.2957 436.934 53.2436 429.907 54.8156 423.141C56.0345 417.884 55.8637 412.128 55.6118 406.665C55.0009 393.461 54.39 380.253 53.7792 367.049C53.5592 362.301 53.3044 357.402 51.2286 353.126C48.9386 348.407 24.5734 337.296 25.4159 332.122C29.5269 306.848 52.3895 250.037 52.3895 250.037C116.684 126.231 192.967 71.4878 192.967 71.4878C199.206 97.6798 205.836 139.334 187.527 159.076C192.382 170.315 204.631 195.583 215.207 201.747C225.78 207.911 240.684 207.867 249.132 199.008C254.604 193.267 257.728 185.685 260.793 178.369C275.173 144.062 340.603 145.44 356.329 149.065C372.055 152.693 385.778 161.96 400.271 169.064C421.35 179.397 444.595 185.288 468.051 186.244C476.884 198.481 466.592 216.443 452.927 222.852C439.265 229.259 423.44 228.68 408.823 232.435C392.026 236.752 374.519 251.048 381.577 269.542C382.753 272.622 383.465 275.899 383.358 279.194C382.837 295.172 366.494 291.738 357.739 298.808C352.064 303.391 350.704 311.466 350.802 318.761C351.054 337.704 358.301 355.79 361.497 374.463C364.693 393.134 362.762 414.754 348.501 427.223C313.015 394.147 259.407 402.456 215.679 423.46C196.47 432.689 197.449 461.241 207.839 479.848C213.76 490.444 222.445 500.389 234.153 503.605C252.705 508.695 270.903 495.664 285.749 483.426C301.889 484.772 277.177 511.61 285.246 522.568C292.86 532.898 307.503 534.105 319.257 539.252C326.796 542.556 333.394 547.683 340.753 551.371C374.623 568.345 417.777 552.301 452.11 568.313C480.069 581.356 508.397 630.144 533.807 612.652C551.499 600.475 578.218 604.117 592.002 620.587C601.782 632.272 604.801 648.557 602.832 663.666C600.861 678.779 594.37 692.933 586.883 706.204C580.746 717.081 573.175 728.155 561.615 732.883C555.521 735.372 548.578 735.969 543.185 739.732C537.062 744.008 534.184 751.44 530.107 757.694C522.968 768.649 511.854 776.254 502.332 785.212C487.822 798.865 474.461 820.413 468.065 839.28C468.065 839.28 390.769 847.757 362.976 844.115" fill="#ACCE3D"/>
<path d="M355.471 843.847C353.16 838.676 352.248 833.115 351.991 827.695C351.727 822.252 352.118 816.888 352.662 811.633C353.716 801.121 355.39 790.774 354.645 780.786C354.237 775.8 352.94 771.142 350.749 766.878C348.435 762.584 345.025 758.392 342.738 753.022C340.436 747.512 340.184 741.896 339.319 737.006C338.569 732.119 336.76 727.765 333.995 723.877C328.335 716.135 319.134 711.228 309.838 706.923C300.449 702.601 290.504 698.854 281.104 693.319C276.417 690.554 271.875 687.294 267.94 683.23C263.945 679.246 260.795 674.275 258.667 669.046C254.356 658.5 254.032 646.826 256.49 636.01C258.896 625.067 264.559 615.163 271.507 606.773C278.49 598.325 286.9 591.351 295.724 585.248C300.18 582.144 304.89 579.631 306.616 576.565C307.467 575.089 307.658 573.708 307.218 571.881C306.76 570.077 305.802 568.138 304.334 566.325C298.978 558.844 289.564 554.866 279.822 551.757C270.085 548.575 259.388 545.97 249.747 540.145C245.034 537.342 240.778 534.25 236.47 531.63C232.235 529.005 227.73 527.016 222.985 525.342C213.567 522.079 203.492 520.739 193.689 521.848C188.791 522.404 183.976 523.579 179.396 525.368C178.258 525.829 177.1 526.254 176.006 526.822L172.321 528.562C169.388 529.818 166.279 530.322 163.244 530.336C157.185 530.304 151.181 528.437 146.343 524.468C145.173 523.489 143.986 522.265 143.106 521.136C142.188 520.007 141.372 518.822 140.599 517.627C139.076 515.227 137.794 512.751 136.659 510.285C134.375 505.331 132.582 500.502 130.304 495.974C128.028 491.423 125.576 486.939 122.713 482.718C111.46 465.706 95.8668 451.514 77.7695 442.05C75.5634 440.988 72.9521 439.453 71.4524 439.184C70.6649 439.054 70.4565 439.126 70.1148 439.334C69.7037 439.612 69.31 440.142 69.1276 440.791C68.925 441.448 68.9221 442.264 69.1131 443.029L70.1293 446.769L72.1993 454.357L80.5893 484.681L82.6912 492.263L83.2152 494.156L83.4815 495.12C83.5973 495.569 83.6929 496.021 83.7537 496.481C83.994 498.308 83.7942 500.198 83.0531 501.961C82.3235 503.716 81.0062 505.343 79.2807 506.376C77.6074 507.465 75.0481 507.888 73.0505 507.239C71.0355 506.654 69.5879 505.543 68.4096 504.416C67.2284 503.27 66.2991 502.04 65.5001 500.76C64.701 499.483 64.0265 498.16 63.459 496.768C62.8916 495.329 62.5355 494.246 62.0636 492.966L59.3885 485.569L54.0441 470.772L48.6998 455.976C46.9714 451.002 45.023 446.265 43.4625 440.872C41.9773 435.574 41.1291 430.059 41.0857 424.497C41.0596 421.715 41.2362 418.927 41.6242 416.156C41.8355 414.68 42.015 413.64 42.1279 412.407C42.2437 411.203 42.3045 409.978 42.3305 408.736C42.4145 403.803 41.9629 398.525 41.7168 393.282L40.8338 377.573L39.8495 361.873C39.5107 356.581 39.3428 351.558 37.71 347.754C37.6115 347.513 37.5102 347.279 37.3944 347.053L37.2468 346.746C37.2497 346.795 37.2728 346.839 37.3046 346.871C37.2265 346.804 36.9833 346.512 36.5867 346.19C35.8484 345.553 34.8612 344.844 33.8595 344.164C31.83 342.789 29.6124 341.442 27.3889 340.079C22.9015 337.265 18.3707 334.795 13.6719 330.777C13.0756 330.233 12.4734 329.659 11.8422 328.91C11.2401 328.197 10.5192 327.254 9.94884 325.742C9.80698 325.291 9.68829 324.822 9.60723 324.356C9.53774 323.808 9.54062 323.16 9.59563 322.575C9.67669 321.944 9.72013 321.817 9.78382 321.411L10.1399 319.382C10.5713 316.637 11.2256 314.052 11.793 311.4C13.0408 306.177 14.4334 301.03 15.9243 295.937C21.9461 275.567 29.1868 255.834 36.7488 236.075L36.853 235.809L36.992 235.551C41.5547 227.103 46.0681 218.618 50.8943 210.309L58.4534 198.028L62.2344 191.89C63.514 189.855 64.9297 187.906 66.2702 185.909L74.4662 174.036C77.1934 170.073 80.2738 166.361 83.1602 162.514C88.8722 154.763 95.253 147.534 101.451 140.175C114.294 125.821 127.953 112.171 142.733 99.7593C146.453 96.6876 150.124 93.5579 154.021 90.6918L159.785 86.3028L165.723 82.1339C173.774 76.6361 181.704 71.4336 190.846 66.8999L196.431 64.1322L197.879 70.3161C201.373 85.2345 204.312 100.506 204.673 116.279C204.824 124.151 204.329 132.176 202.409 140.134C200.504 148.041 196.99 156.023 191.104 162.398L192.004 157.143C194.63 163.234 197.754 169.039 201.674 174.042C205.562 179.013 210.377 183.225 215.776 185.657C221.089 188.043 227.229 188.514 232.814 186.908C238.398 185.33 243.369 181.731 246.447 176.789C248.114 174.224 249.559 171.239 250.923 168.202L252.941 163.521C253.247 162.76 253.65 161.891 254.093 160.988C254.536 160.113 254.909 159.199 255.416 158.365C257.338 154.934 259.799 151.883 262.483 149.124C265.227 146.417 268.253 144.106 271.397 142.051C277.754 138.079 284.596 135.247 291.544 133.264C298.492 131.223 305.553 129.92 312.629 129.072C319.704 128.215 326.803 127.856 333.899 127.882C341.021 127.943 348.053 128.293 355.343 129.561C370.027 132.607 382.386 139.975 394.471 146.521C418.199 159.969 444.837 167.922 472.062 169.088L473.669 169.158L474.595 170.449C476.987 173.775 478.376 177.875 478.541 181.914C478.732 185.967 477.849 189.893 476.399 193.448C473.446 200.578 468.354 206.481 462.013 210.662C455.485 214.874 448.415 216.695 441.42 218.207C434.423 219.64 427.475 220.398 420.772 221.556C414.021 222.72 407.643 224.168 401.972 227.274C396.309 230.282 391.158 234.434 388.067 239.546C384.812 244.598 384.309 250.516 386.309 255.973C388.834 262.386 391.101 271.893 385.189 280.173C382.114 284.151 377.832 285.911 374.35 287.182C370.771 288.439 367.503 289.267 364.825 290.451C362.112 291.647 360.326 292.941 358.979 294.999C357.627 297.034 356.759 299.715 356.348 302.645C355.911 305.595 355.928 308.664 356.099 311.964C356.287 315.216 356.603 318.481 357.144 321.764C358.146 328.328 359.767 334.917 361.461 341.605C363.183 348.286 364.912 355.11 366.295 362.131C367.662 369.169 368.539 376.554 368.36 383.916C368.235 391.287 367.109 398.786 364.529 405.992C363.258 409.599 361.469 413.067 359.382 416.356C357.228 419.628 354.579 422.575 351.658 425.215L348.291 428.258L344.953 425.108C336.146 416.79 325.396 410.696 313.741 407.225C302.085 403.719 289.639 402.714 277.274 403.522C264.886 404.333 252.55 406.901 240.564 410.632C234.571 412.511 228.659 414.688 222.837 417.091C219.913 418.261 217.076 419.648 214.187 420.91C212.615 421.541 211.709 422.253 210.469 422.893C209.358 423.623 208.347 424.494 207.346 425.36C203.573 429.115 201.147 434.332 200.183 440.032C199.242 445.741 199.514 451.795 200.678 457.666C201.859 463.549 203.889 469.29 206.877 474.47C209.893 479.773 213.503 484.715 217.826 488.719C222.137 492.706 227.171 495.725 232.689 496.854C238.193 498.157 244.032 497.567 249.669 495.832C261.024 492.214 271.249 484.536 281.035 476.542L282.363 475.457L283.828 475.668L285.565 475.917C286.159 476.033 286.813 476.25 287.427 476.438C288.078 476.71 288.75 477.026 289.393 477.437C290.041 477.932 290.696 478.401 291.205 479.105C292.328 480.419 292.803 482.008 293.032 483.357C293.206 484.698 293.174 485.928 293.026 487.002C292.412 491.319 290.997 494.616 289.758 497.96C288.487 501.261 287.198 504.437 286.269 507.549C285.322 510.618 284.787 513.768 285.279 515.936C285.56 517.062 285.849 517.552 286.964 518.854C287.902 519.98 289.011 520.973 290.192 521.906C292.577 523.756 295.449 525.18 298.504 526.41C304.638 528.883 311.535 530.391 318.428 533.188C325.443 536.005 331.427 540.168 337.289 543.552C338.757 544.406 340.222 545.22 341.693 545.952C343.181 546.665 344.718 547.267 346.227 547.93L348.496 548.903L350.873 549.647C352.463 550.116 354.011 550.7 355.636 551.085C362.103 552.73 368.84 553.506 375.632 553.986C382.47 554.328 389.361 554.412 396.352 554.357C410.301 554.374 424.675 553.934 439.174 556.861C442.804 557.449 446.365 558.592 449.946 559.603C451.715 560.205 453.447 560.943 455.201 561.618L457.818 562.669L460.418 563.951C467.175 567.57 473.015 572.04 478.486 576.687C489.386 585.957 499.137 596.104 509.881 603.846C515.202 607.601 520.92 610.739 526.224 611.278C528.858 611.576 531.331 611.225 533.713 610.212C534.304 609.94 534.915 609.729 535.482 609.332L537.436 608.16C539.139 607.129 540.803 606.02 542.627 605.233C546.165 603.403 549.978 602.309 553.782 601.379C557.63 600.673 561.524 600.16 565.418 600.294C573.2 600.357 580.921 602.155 587.956 605.548C595.032 608.822 601.311 614.086 605.984 620.394C610.587 626.729 613.618 633.992 615.292 641.407C616.956 648.844 617.275 656.45 616.557 663.919C615.821 671.391 613.992 678.597 611.58 685.508C609.163 692.421 606.1 699.005 602.764 705.351C599.4 711.659 595.929 717.898 591.555 723.929C587.197 729.881 581.873 735.68 574.873 739.565C571.416 741.54 567.493 742.872 564.063 743.775C560.6 744.721 557.41 745.515 554.778 746.731C549.642 748.856 546.434 754.015 542.926 760.158C541.191 763.189 539.145 766.498 536.8 769.428C534.475 772.378 531.933 775.074 529.307 777.598C524.052 782.636 518.508 787.019 513.349 791.547C508.245 796.06 503.28 800.872 498.798 805.962C489.725 816.097 482.676 827.776 478.2 840.578L477.447 842.729L475.27 842.981C456.707 845.138 438.166 846.919 419.542 848.253C410.234 848.919 400.901 849.414 391.546 849.686C382.187 849.921 372.815 849.987 363.276 848.815L363.866 844.299C372.835 845.193 382.134 844.935 391.352 844.481C400.588 843.997 409.829 843.291 419.062 842.414C437.518 840.651 455.986 838.445 474.332 835.874L471.405 838.277C475.823 824.484 483.431 811.674 492.858 800.794C497.556 795.302 502.594 790.273 507.904 785.43C513.202 780.647 518.589 776.243 523.372 771.51C525.76 769.142 527.99 766.695 529.961 764.113C531.953 761.533 533.566 758.852 535.268 755.784C536.976 752.75 538.762 749.478 541.226 746.325C543.603 743.181 547.123 740.179 550.893 738.465C554.616 736.699 558.264 735.802 561.527 734.835C564.847 733.894 567.58 732.886 570.203 731.355C575.461 728.329 579.887 723.59 583.72 718.26C587.542 712.922 590.874 706.871 594.044 700.806C597.171 694.735 599.982 688.557 602.136 682.231C606.528 669.628 608.164 656.244 605.228 643.7C603.772 637.481 601.221 631.598 597.542 626.613C593.819 621.72 589.053 617.737 583.373 615.16C577.78 612.508 571.535 611.092 565.308 611.104C562.19 611.003 559.106 611.469 556.078 612.027C553.111 612.8 550.134 613.646 547.456 615.085C546.052 615.681 544.819 616.561 543.525 617.337L540.992 618.892C540.103 619.482 539.078 619.914 538.076 620.368C534.046 622.157 529.365 622.832 525.048 622.351C516.308 621.28 509.507 617.024 503.465 612.809C491.514 604.051 481.859 593.785 471.46 584.892C466.295 580.453 461.049 576.227 455.493 573.135L453.403 572.046L451.165 571.105C449.66 570.5 448.186 569.82 446.655 569.258C443.514 568.32 440.424 567.223 437.136 566.632C430.674 565.141 423.919 564.47 417.084 564.058C410.26 563.607 403.292 563.563 396.286 563.41C389.274 563.306 382.161 563.06 375.018 562.536C367.862 561.87 360.667 560.845 353.56 558.989C351.785 558.546 350.045 557.889 348.291 557.342L345.665 556.479L343.117 555.364C341.426 554.603 339.713 553.9 338.051 553.08C336.401 552.229 334.814 551.326 333.265 550.405C327.07 546.708 321.488 542.782 315.481 540.319C309.412 537.777 302.583 536.124 295.701 533.408C292.27 532.039 288.779 530.368 285.603 527.936C284.031 526.712 282.517 525.36 281.2 523.802C279.972 522.519 278.287 519.992 277.859 517.653C276.886 512.911 277.928 508.953 278.933 505.369C279.998 501.767 281.344 498.441 282.575 495.204C283.788 492.014 285.018 488.742 285.348 486.099C285.534 484.77 285.273 483.925 285.192 483.994C285.27 483.925 284.48 483.505 283.183 483.412L285.977 482.538C275.959 490.717 265.306 499.04 252.031 503.383C245.434 505.456 238.054 506.284 230.978 504.651C223.851 503.206 217.461 499.336 212.366 494.64C207.233 489.906 203.18 484.336 199.821 478.497C196.379 472.536 194.008 466.022 192.595 459.325C191.211 452.617 190.791 445.631 191.88 438.634C192.989 431.691 195.994 424.596 201.341 419.216C202.725 417.963 204.175 416.715 205.73 415.679C207.308 414.775 209.059 413.638 210.478 413.07C213.466 411.727 216.401 410.268 219.433 409.023C225.469 406.466 231.609 404.142 237.866 402.124C250.378 398.108 263.36 395.265 276.628 394.278C289.868 393.297 303.46 394.223 316.479 398.019C329.484 401.756 341.78 408.525 351.776 417.789L345.071 417.685C354.197 409.694 357.845 396.638 357.914 383.749C358.204 370.732 354.507 357.753 351.119 344.207C349.44 337.441 347.761 330.528 346.696 323.362C346.128 319.793 345.781 316.142 345.59 312.468C345.39 308.844 345.48 304.935 346.125 301.024C346.779 297.118 348.042 293.007 350.607 289.29C353.102 285.5 357.3 282.733 360.977 281.311C364.703 279.788 368.218 279.01 371.197 278.008C374.17 277 376.608 275.886 377.856 274.308C379.17 272.805 379.775 270.316 379.891 267.519C379.899 266.152 379.743 264.74 379.439 263.318C379.289 262.606 379.1 261.891 378.877 261.179L378.521 260.11L378.099 258.689C375.482 251.06 376.761 241.755 381.376 235.296C390.368 222.106 405.851 216.692 419.667 214.819C426.661 213.722 433.537 213.068 440.158 211.808C446.701 210.592 453.313 208.65 458.467 205.263C463.698 201.823 468.044 196.713 470.36 190.99C472.754 185.295 472.682 178.929 469.265 174.297L471.796 175.66C457.697 175.041 443.641 172.95 430.025 169.149C416.436 165.397 403.179 159.87 390.895 153.197C378.657 146.724 366.573 139.993 353.887 137.592C347.506 136.568 340.642 136.287 333.917 136.336C327.159 136.408 320.396 136.846 313.729 137.752C300.443 139.532 287.213 143.067 276.368 149.836C273.724 151.587 271.235 153.513 269.046 155.684C266.924 157.905 265.01 160.287 263.551 162.922C263.157 163.562 262.891 164.271 262.549 164.94C262.225 165.591 261.895 166.292 261.559 167.137L259.486 172.007C258.019 175.287 256.473 178.584 254.385 181.844C250.144 188.708 243.172 193.833 235.445 196.039C227.713 198.3 219.216 197.68 211.879 194.42C204.592 191.161 198.733 185.906 194.072 180.032C189.416 174.132 185.925 167.62 183.044 161.014L181.785 158.125L183.944 155.759C188.377 150.913 191.231 144.599 192.838 137.815C194.457 131.015 194.917 123.777 194.743 116.507C194.364 101.916 191.527 87.2177 188.05 72.6582L195.082 76.0745C187.225 80.0379 179.15 85.1825 171.643 90.5645L165.983 94.6639L160.474 98.9892C156.754 101.806 153.239 104.898 149.681 107.926C135.538 120.164 122.461 133.629 110.177 147.766C104.254 155.027 98.125 162.12 92.6648 169.751C89.9029 173.538 86.9499 177.18 84.3414 181.08L76.4291 192.709C75.1205 194.655 73.7366 196.551 72.4859 198.534L68.7918 204.524L61.3977 216.501C56.6729 224.611 52.3042 232.928 47.6199 241.069L47.8602 240.548C40 259.798 32.6291 279.424 26.089 299.084C24.4678 304.006 22.9565 308.939 21.5958 313.875C20.985 316.333 20.267 318.814 19.8095 321.24L19.4216 323.073L19.2595 323.843C19.3174 323.583 19.2942 323.267 19.2479 323.044C19.245 322.896 19.2074 322.746 19.1437 322.61C18.8773 322.123 19.4564 323.134 20.183 323.748C23.3503 326.692 27.9245 329.573 32.2382 332.433C34.4356 333.883 36.662 335.331 38.923 336.97C40.0579 337.803 41.1928 338.652 42.4029 339.763C42.9964 340.305 43.6565 340.971 44.3658 341.955C44.5656 342.268 44.7566 342.589 44.9332 342.919L45.1967 343.501C45.3646 343.869 45.5123 344.242 45.6512 344.613C47.8834 350.66 47.6402 356.384 47.8631 361.503L48.3321 377.229L48.9024 392.952C49.0559 398.186 49.4351 403.38 49.2585 408.936C49.2064 410.32 49.1138 411.712 48.9574 413.119C48.8156 414.492 48.529 416.035 48.3524 417.152C47.9731 419.57 47.7762 422.025 47.756 424.488C47.7125 429.419 48.3842 434.372 49.6494 439.196C50.9 443.912 52.9729 448.891 54.6637 453.827L59.9878 468.63L65.309 483.436L67.9696 490.838C68.4038 492.022 68.8787 493.424 69.2782 494.423C69.698 495.459 70.2162 496.481 70.8068 497.428C71.9272 499.309 73.6295 500.942 74.7296 501.217C75.2537 501.359 75.4997 501.322 76.0614 501.023C76.5883 500.705 77.0139 500.207 77.2976 499.547C77.5842 498.89 77.674 498.082 77.5755 497.318C77.5524 497.121 77.5089 496.935 77.4655 496.747L77.2108 495.815L76.6867 493.922L74.5994 486.337L66.2296 456.005L64.1104 448.431L63.0392 444.586C62.5876 442.814 62.5442 440.915 63.0769 439.051C63.6096 437.181 64.7386 435.397 66.4815 434.161C68.2823 432.806 70.8907 432.543 72.6538 432.951C74.4749 433.313 75.8964 433.996 77.0949 434.575L80.7109 436.37C99.8591 446.234 116.37 461.054 128.376 478.945C131.422 483.389 134.062 488.105 136.508 492.911C138.978 497.743 140.883 502.752 143.037 507.3C144.111 509.59 145.269 511.767 146.572 513.785C147.903 515.814 149.331 517.67 150.903 518.944C154.197 521.651 158.801 523.093 163.189 523.052C165.387 523.032 167.558 522.641 169.443 521.804L172.853 520.154C174.09 519.511 175.389 519.011 176.678 518.478C181.848 516.411 187.294 515.041 192.809 514.37C203.86 513.012 215.104 514.509 225.486 518.096C228.083 518.996 230.637 520.015 233.132 521.159C235.663 522.276 238.149 523.651 240.466 525.056C245.121 527.884 249.374 530.959 253.687 533.501C262.104 538.608 272.068 541.094 282.219 544.357C287.288 545.999 292.462 547.831 297.438 550.527C302.395 553.19 307.163 556.881 310.657 561.693C312.458 563.972 314.033 566.765 314.849 570.057C315.24 571.71 315.399 573.531 315.153 575.387C314.89 577.24 314.23 579.017 313.318 580.537C311.465 583.589 308.972 585.563 306.671 587.208C304.294 588.852 302.163 590.14 300.047 591.588C291.602 597.338 283.672 603.852 277.219 611.55C270.777 619.222 265.693 628.032 263.519 637.635C261.264 647.188 261.533 657.466 265.143 666.429C268.586 675.497 275.881 682.407 284.567 687.517C293.226 692.72 302.965 696.504 312.585 701.003C317.397 703.275 322.226 705.701 326.809 708.761C331.389 711.787 335.72 715.533 339.102 720.191C342.425 724.85 344.628 730.478 345.416 735.978C346.284 741.392 346.559 746.447 348.34 750.691C350.12 755.034 353.328 759.156 355.937 764.122C358.484 769.217 359.897 774.871 360.239 780.357C360.85 791.376 358.898 801.874 357.714 812.18C356.495 822.412 355.85 832.921 359.625 841.982L355.471 843.847Z" fill="#005948"/>
<path d="M428.382 2.52034C456.276 -0.357389 484.478 -0.435589 512.421 2.37845C540.356 5.2446 568.033 10.89 594.874 19.3727C621.708 27.864 647.538 39.6095 671.713 54.1139C677.928 57.4635 683.597 61.6962 689.494 65.5641C692.386 67.5849 695.423 69.4001 698.194 71.5888L706.544 78.1057L714.861 84.6573L722.698 91.7879L730.518 98.9359C731.852 100.094 733.092 101.353 734.279 102.662L737.912 106.521C747.874 116.558 756.649 127.678 765.219 138.903C773.507 150.347 780.971 162.359 787.647 174.773C801.06 199.584 811.387 225.895 819.522 252.744C821.572 259.455 823.468 266.212 825.217 272.998C827.032 279.773 828.372 286.669 829.973 293.495C830.717 296.92 831.563 300.328 832.226 303.77L833.998 314.14C835.095 321.066 836.571 327.933 837.278 334.916L839.822 355.795L841.316 376.782C841.429 378.53 841.588 380.276 841.667 382.031L841.765 387.288L841.962 397.806L842.144 408.327L841.785 418.845L841.421 429.36L841.267 434.62L840.839 439.863L839.128 460.853L836.386 481.747L835.714 486.978L834.773 492.163L832.88 502.542L830.981 512.933L828.479 523.196L825.975 533.468L824.719 538.606L823.158 543.661L816.893 563.895L809.325 583.712C798.556 609.89 784.72 634.834 768.284 657.986C751.328 680.892 732.29 701.621 711.801 721.033C670.876 759.702 623.929 792.513 571.999 814.73C546.111 825.911 519.178 834.657 491.678 840.846C464.148 846.932 436.028 850.143 407.905 850.907C351.618 852.024 295.306 843.081 242.285 824.431C228.97 819.97 215.882 814.536 203.105 808.534C190.338 802.469 178.074 795.379 166.123 787.785C154.335 779.945 143.032 771.39 132.248 762.221C121.542 752.963 111.383 743.093 101.826 732.688C92.2376 722.312 83.2077 711.441 74.7338 700.182C70.4982 694.545 66.3148 688.917 62.4093 682.93C58.3041 677.114 54.7663 670.953 51.1474 664.844C44.2426 652.456 37.8907 639.755 32.7143 626.597C29.9118 620.098 27.6797 613.398 25.268 606.763C24.0724 603.439 23.1199 600.043 22.0342 596.688C20.9978 593.315 19.8629 589.974 18.9973 586.558C11.3773 559.413 6.29064 531.661 3.40423 503.732C0.390425 475.809 -0.437538 447.715 0.20228 419.69C0.636545 405.678 1.314 391.668 2.66022 377.708C3.92827 363.745 5.39898 349.788 7.61952 335.917C12.2227 308.229 17.4194 280.473 28.5772 253.844C40.1605 228.037 53.5532 203.235 69.5573 179.912C85.4775 156.595 103.754 134.835 124.055 115.14C144.465 95.5544 167.041 78.2388 191.169 63.5173C203.32 56.3027 215.734 49.5049 228.635 43.7668C234.998 40.7009 241.581 38.1561 248.078 35.4173L257.976 31.7C261.265 30.432 264.589 29.271 267.944 28.1911C281.262 23.5879 294.851 19.8736 308.516 16.5963C322.178 13.2756 336.005 10.7366 349.876 8.69267C377.616 4.52083 405.572 2.50581 433.417 1.30145L433.755 6.45472C406.015 8.7766 378.372 11.4285 351.126 16.3618C323.901 21.2342 297.008 27.8611 271.106 37.2557C245.139 46.4506 220.34 58.639 196.942 72.9495C173.665 87.4829 151.955 104.483 132.355 123.675C93.248 162.258 62.9652 209.109 38.8171 258.427C33.2267 270.627 28.942 283.719 25.3347 296.964C21.7013 310.226 18.8583 323.746 16.5683 337.365C11.8898 364.599 9.47818 392.25 8.78625 419.91C8.45042 433.74 8.54305 447.581 9.12207 461.403C9.82558 475.209 10.7549 489.016 12.4312 502.73C15.5 530.193 20.8791 557.361 28.6032 583.779C29.4833 587.108 30.6327 590.351 31.6778 593.625C32.7751 596.882 33.7391 600.185 34.9406 603.405C37.3667 609.829 39.6046 616.331 42.3984 622.596C47.569 635.309 53.8572 647.506 60.6375 659.361C64.2043 665.186 67.6813 671.066 71.6968 676.578C75.4778 682.212 79.6815 687.713 83.8881 693.153C92.3302 704.024 101.262 714.493 110.648 724.507C129.379 744.573 149.911 762.907 172.264 778.778C194.603 794.638 218.823 808.039 244.804 817.37C251.248 819.851 257.866 821.84 264.424 824L274.394 826.811L279.38 828.209L284.412 829.434L294.481 831.874L304.625 833.968C307.998 834.709 311.394 835.331 314.807 835.878L325.024 837.566C352.377 841.376 380.051 842.928 407.595 841.64C435.136 840.369 462.539 836.732 489.37 830.601C516.191 824.405 542.417 815.726 567.61 804.678C592.83 793.676 616.946 780.191 639.635 764.627C662.376 749.132 683.6 731.438 703.205 712.13C722.713 692.773 740.932 671.845 757.037 649.88C772.824 627.561 786.234 603.636 797.623 578.706L805.721 559.781L812.672 540.378L814.412 535.52L815.851 530.572L818.729 520.657L821.606 510.729L823.896 500.652L826.192 490.562L827.339 485.513L828.175 480.406L831.464 459.952L833.491 439.325L833.995 434.166L834.218 428.986L834.597 418.625L834.973 408.26L834.814 397.89L834.64 387.52L834.553 382.335C834.481 380.609 834.328 378.886 834.22 377.161L832.79 356.464L830.321 335.865C829.669 328.972 828.158 322.206 827.006 315.388L825.176 305.18C824.49 301.793 823.627 298.44 822.866 295.07C821.23 288.351 819.858 281.573 818.011 274.906C816.23 268.221 814.302 261.58 812.229 254.988C803.996 228.61 793.553 202.911 780.224 178.82C773.554 166.785 766.22 155.136 758.166 144.018C749.805 133.142 741.282 122.366 731.572 112.641C693.243 73.3287 644.782 44.1171 592.366 27.0505C566.195 18.3826 539.099 12.465 511.671 9.27172C484.249 6.035 456.473 5.40097 428.877 7.66205L428.382 2.52034Z" fill="#005948"/>
<path d="M310.521 688.738C316.896 690.958 323.364 693.069 329.507 696.109C335.63 699.088 341.557 703.092 345.853 708.83C348.001 711.687 349.559 714.939 350.818 718.178C352.04 721.45 352.914 724.759 353.852 727.972C355.682 734.431 357.265 740.569 360.87 746.038L360.878 746.055C361.177 746.504 361.052 747.112 360.601 747.41C360.242 747.645 359.781 747.613 359.46 747.364C356.649 745.166 354.477 742.153 352.952 738.971C351.406 735.777 350.355 732.454 349.486 729.177C348.635 725.891 347.816 722.671 346.823 719.568C345.876 716.447 344.677 713.477 342.998 710.772C339.689 705.292 334.391 701.062 328.575 697.91C322.715 694.768 316.366 692.51 309.925 690.576C309.415 690.423 309.126 689.884 309.276 689.375C309.43 688.862 309.968 688.57 310.48 688.723C310.492 688.726 310.509 688.732 310.521 688.738Z" fill="#005948"/>
<path d="M342.94 692.807C347.401 696.11 351.617 699.682 355.574 703.741C357.502 705.806 359.303 708.046 360.638 710.562C361.993 713.052 362.968 715.802 362.835 718.796C362.806 719.369 362.32 719.812 361.749 719.786C361.457 719.772 361.199 719.641 361.02 719.439L361.005 719.424C359.095 717.27 357.867 715.024 356.637 712.722C355.383 710.446 354.216 708.098 352.835 705.84C350.175 701.254 346.403 697.219 341.854 694.405C341.4 694.124 341.258 693.527 341.539 693.073C341.823 692.621 342.416 692.479 342.873 692.757C342.894 692.772 342.92 692.789 342.94 692.807Z" fill="#005948"/>
<path d="M296.107 603.386C299.046 603.386 299.049 598.82 296.107 598.82C293.169 598.82 293.163 603.386 296.107 603.386Z" fill="#005948"/>
<path d="M297.996 612.736C298.164 612.904 298.329 613.072 298.497 613.24C298.702 613.46 298.948 613.619 299.232 613.712C299.504 613.854 299.797 613.917 300.109 613.906C300.425 613.917 300.717 613.854 300.989 613.712C301.273 613.619 301.516 613.46 301.725 613.24C301.844 613.084 301.962 612.93 302.081 612.777C302.286 612.421 302.394 612.036 302.394 611.625C302.365 611.422 302.339 611.222 302.313 611.017C302.203 610.629 302.009 610.296 301.725 610.012C301.557 609.844 301.389 609.676 301.224 609.511C301.016 609.288 300.772 609.129 300.489 609.039C300.216 608.894 299.924 608.828 299.608 608.839C299.296 608.828 299.003 608.894 298.728 609.039C298.448 609.129 298.201 609.288 297.996 609.511C297.874 609.662 297.756 609.818 297.637 609.971C297.431 610.328 297.33 610.713 297.327 611.124C297.353 611.326 297.382 611.529 297.408 611.729C297.515 612.117 297.712 612.453 297.996 612.736Z" fill="#005948"/>
<path d="M289.092 615.411C292.03 615.411 292.033 610.846 289.092 610.846C286.153 610.846 286.15 615.411 289.092 615.411Z" fill="#005948"/>
<path d="M291.594 623.927C294.532 623.927 294.538 619.361 291.594 619.361C288.655 619.361 288.652 623.927 291.594 623.927Z" fill="#005948"/>
<path d="M282.078 625.43C285.014 625.43 285.02 620.864 282.078 620.864C279.14 620.864 279.134 625.43 282.078 625.43Z" fill="#005948"/>
<path d="M284.58 632.442C287.516 632.442 287.522 627.88 284.58 627.88C281.642 627.88 281.636 632.442 284.58 632.442Z" fill="#005948"/>
<path d="M270.443 637.285L270.944 637.786C271.152 638.009 271.396 638.168 271.679 638.258C271.952 638.403 272.244 638.466 272.557 638.455C272.872 638.466 273.165 638.403 273.437 638.258C273.72 638.168 273.964 638.009 274.172 637.786C274.291 637.633 274.409 637.476 274.528 637.326C274.734 636.97 274.841 636.584 274.841 636.17C274.815 635.971 274.786 635.768 274.76 635.565C274.65 635.177 274.456 634.842 274.172 634.561C274.004 634.39 273.839 634.222 273.671 634.057C273.463 633.837 273.22 633.678 272.936 633.585C272.664 633.443 272.371 633.377 272.056 633.388C271.743 633.377 271.451 633.443 271.176 633.585C270.895 633.678 270.649 633.837 270.443 634.057C270.324 634.211 270.203 634.364 270.084 634.52C269.879 634.876 269.777 635.259 269.774 635.67C269.8 635.875 269.829 636.075 269.855 636.278C269.963 636.666 270.159 636.998 270.443 637.285Z" fill="#005948"/>
<path d="M276.064 652.985C279.003 652.985 279.006 648.42 276.064 648.42C273.126 648.42 273.12 652.985 276.064 652.985Z" fill="#005948"/>
<path d="M375.764 827.327C378.702 827.327 378.705 822.762 375.764 822.762C372.825 822.762 372.819 827.327 375.764 827.327Z" fill="#005948"/>
<path d="M368.748 834.342C371.686 834.342 371.692 829.776 368.748 829.776C365.809 829.776 365.807 834.342 368.748 834.342Z" fill="#005948"/>
<path d="M367.748 819.312C370.684 819.312 370.689 814.747 367.748 814.747C364.81 814.747 364.804 819.312 367.748 819.312Z" fill="#005948"/>
<path d="M371.756 575.333C374.692 575.333 374.697 570.767 371.756 570.767C368.817 570.767 368.812 575.333 371.756 575.333Z" fill="#005948"/>
<path d="M365.239 567.818C368.178 567.818 368.183 563.253 365.239 563.253C362.303 563.253 362.298 567.818 365.239 567.818Z" fill="#005948"/>
<path d="M377.612 195.524C376.323 192.838 374.725 190.328 373.13 187.815C371.517 185.313 369.667 182.942 367.829 180.571L371.567 181.089C369.812 183.379 367.832 185.51 365.577 187.305C364.465 188.217 363.261 189.025 361.938 189.644C360.629 190.281 359.225 190.776 357.635 190.924C356.833 190.999 356.124 190.412 356.049 189.61C356.02 189.311 356.084 189.028 356.214 188.785L356.223 188.77C356.961 187.395 357.844 186.306 358.785 185.31C359.708 184.291 360.716 183.405 361.764 182.575C363.84 180.878 366.02 179.303 368.226 177.693L368.779 177.291C369.714 176.608 371.028 176.813 371.708 177.746C371.816 177.89 371.902 178.052 371.966 178.212C373.072 181.003 374.166 183.799 375.501 186.463C376.847 189.117 378.196 191.769 379.85 194.248C380.246 194.841 380.087 195.643 379.493 196.04C378.9 196.436 378.098 196.277 377.701 195.684C377.67 195.634 377.638 195.576 377.612 195.524Z" fill="#005948"/>
<path d="M358.399 201.133C357.31 198.768 355.805 196.617 354.178 194.599C352.577 192.63 350.521 190.691 348.657 189.321C348.243 189.066 347.982 189.046 347.898 189.13C347.791 189.2 347.626 189.249 347.354 189.402C346.815 189.651 345.996 190.271 345.278 190.922C343.862 192.303 342.643 193.681 340.831 195.722L340.71 195.858C340.185 196.449 339.282 196.501 338.692 195.98C338.495 195.803 338.356 195.583 338.281 195.349C337.25 192.147 338.709 188.612 341.202 186.429C342.461 185.349 343.862 184.385 345.898 183.942C346.896 183.757 348.098 183.705 349.273 184.133C350.475 184.562 351.32 185.355 351.853 186.012C353.625 188.487 354.861 190.708 356.369 193.021C357.831 195.297 359.172 197.624 360.654 199.88C361.045 200.476 360.88 201.278 360.283 201.672C359.69 202.065 358.888 201.9 358.494 201.304C358.459 201.252 358.425 201.188 358.399 201.133Z" fill="#005948"/>
<path d="M332.477 184.334C331.739 182.351 330.485 180.565 328.971 179.1C328.236 178.361 327.353 177.646 326.603 177.296C325.772 176.951 325.367 177.108 324.982 177.444C324.553 177.779 324.003 178.442 323.369 179.279C322.674 180.148 321.93 181.008 321.166 181.821C319.608 183.431 318.004 184.994 315.85 185.97L314.519 186.572C313.502 187.035 312.301 186.583 311.841 185.564C311.548 184.922 311.629 184.192 311.98 183.633C312.414 182.962 312.941 182.316 313.618 181.711C314.246 181.149 315.213 181.204 315.775 181.833C315.929 182.003 316.036 182.206 316.099 182.409C316.363 183.277 316.479 184.102 316.496 184.901L312.628 182.562C313.722 180.466 315.373 178.952 317.066 177.487C317.929 176.763 318.809 176.083 319.741 175.414C320.732 174.74 321.901 173.865 323.603 173.454C325.349 172.974 327.358 173.689 328.357 174.612C329.472 175.51 330.146 176.436 330.928 177.334C332.413 179.189 333.658 181.175 334.813 183.248C335.166 183.868 334.949 184.655 334.327 185.009C333.704 185.359 332.914 185.142 332.564 184.519C332.532 184.464 332.5 184.395 332.477 184.334Z" fill="#005948"/>
<path d="M311.361 206.817C313.712 205.725 315.941 204.431 318.211 203.183C319.34 202.552 320.466 201.907 321.581 201.22L323.26 200.196C323.796 199.871 324.424 199.443 325.42 199.142C326.366 198.797 328.025 198.893 329.134 199.605C330.252 200.265 330.842 201.087 331.332 201.713C332.18 202.92 332.791 203.884 333.451 205.028C334.73 207.242 335.723 209.619 335.706 212.563C335.7 213.386 335.032 214.046 334.212 214.04C333.94 214.04 333.68 213.962 333.459 213.832C330.929 212.323 329.406 210.25 328.173 208.01C327.568 206.933 326.943 205.659 326.505 204.657C326.332 204.2 326.158 203.953 326.216 203.884C326.274 203.846 326.569 203.745 326.265 203.664C326.002 203.603 325.455 203.71 324.815 203.878C324.195 204.026 323.581 204.188 322.973 204.37C321.749 204.721 320.553 205.14 319.381 205.618C317.041 206.585 314.734 207.653 312.623 209.063C312.03 209.463 311.228 209.301 310.828 208.707C310.432 208.114 310.591 207.312 311.185 206.915C311.24 206.878 311.303 206.843 311.361 206.817Z" fill="#005948"/>
<path d="M284.538 223.495C286.759 222.033 288.953 220.574 291.321 219.346C292.502 218.729 293.704 218.136 294.931 217.566C296.15 217.027 297.485 216.37 299.219 216.182C300.976 215.959 302.942 216.465 304.445 217.453C305.953 218.434 306.995 219.682 307.806 220.852C309.453 223.26 310.108 225.397 310.542 227.982L310.579 228.199C310.71 228.972 310.186 229.705 309.413 229.835C309.158 229.878 308.906 229.847 308.677 229.766C305.591 228.608 304.008 226.068 302.789 224.259C301.451 222.36 300.759 221.242 299.179 220.782C298.351 220.576 297.184 220.614 295.977 220.846C294.769 221.043 293.585 221.378 292.436 221.807C290.149 222.684 287.94 223.877 286.113 225.533C285.586 226.013 284.767 225.976 284.289 225.446C283.808 224.919 283.846 224.1 284.376 223.619C284.422 223.576 284.483 223.529 284.538 223.495Z" fill="#005948"/>
<path d="M321.564 236.533C323.665 235.08 325.874 233.844 328.269 232.952C329.473 232.529 330.703 232.144 331.977 231.875C332.614 231.733 333.225 231.583 334.03 231.539C334.806 231.487 335.834 231.536 336.873 232.159C337.927 232.81 338.454 233.687 338.833 234.206L339.881 235.691C340.558 236.687 341.192 237.703 341.795 238.733C342.958 240.821 344.061 242.937 344.432 245.427L344.64 246.828C344.785 247.798 344.114 248.701 343.144 248.843C342.877 248.884 342.608 248.858 342.368 248.785C341.589 248.548 340.81 248.232 340.034 247.758C339.322 247.326 339.099 246.397 339.531 245.685C339.661 245.473 339.837 245.302 340.037 245.181C340.816 244.709 341.595 244.393 342.371 244.159L340.306 247.52C338.514 245.751 337.458 243.612 336.462 241.44C335.984 240.343 335.541 239.231 335.139 238.097C334.771 236.994 334.233 235.517 334.4 235.601C334.571 235.346 333.474 235.031 332.342 235.074C331.248 235.083 330.127 235.181 329.053 235.474C326.891 235.995 324.806 237.025 323.173 238.545C322.649 239.032 321.833 239.003 321.346 238.482C320.86 237.958 320.889 237.138 321.413 236.655C321.456 236.611 321.514 236.568 321.564 236.533Z" fill="#005948"/>
<path d="M77.3179 260.329C79.0376 258.488 80.8065 256.641 83.0994 255.28C85.3547 253.925 88.1572 252.981 91.1912 253.245C92.7054 253.378 94.2919 253.896 95.6786 254.863C97.022 255.836 98.0295 257.101 98.7185 258.279C100.166 260.737 100.487 262.651 100.733 265.071L100.757 265.288C100.838 266.09 100.25 266.808 99.4481 266.889C99.2396 266.91 99.0312 266.886 98.8459 266.826C97.3462 266.333 96.2171 265.265 95.4007 264.266C94.5495 263.253 93.9763 262.228 93.4899 261.354C92.4419 259.602 91.8426 258.586 90.1519 257.729C88.5133 256.916 86.3014 256.794 84.3385 257.68C82.3785 258.531 80.5836 260.034 79.3387 261.93C78.9449 262.526 78.143 262.691 77.5466 262.298C76.9502 261.904 76.7823 261.105 77.176 260.509C77.2166 260.448 77.2687 260.381 77.3179 260.329Z" fill="#005948"/>
<path d="M86.8719 276.549C88.9708 275.075 90.9829 273.431 93.438 272.238C95.838 271.031 98.8316 270.211 101.924 270.701C105.015 271.173 107.714 272.878 109.639 274.884C111.605 276.899 112.908 279.285 113.104 282.183C113.159 283.002 112.537 283.714 111.718 283.769C111.457 283.787 111.205 283.734 110.982 283.63L110.962 283.619C108.365 282.385 106.767 280.68 105.27 279.088C103.747 277.527 102.361 276.071 100.624 275.116C98.901 274.155 96.6544 273.946 94.4831 274.728C92.3234 275.478 90.2621 276.827 88.525 278.529C88.0155 279.03 87.1961 279.024 86.6953 278.515C86.1944 278.005 86.2002 277.189 86.7069 276.685C86.7561 276.639 86.8169 276.586 86.8719 276.549Z" fill="#005948"/>
<path d="M62.0713 286.076C63.982 283.98 65.8783 281.898 68.0033 279.999C68.5331 279.565 69.0629 278.974 70.0067 278.522C70.9389 278.027 72.427 278.071 73.3679 278.563C74.3378 279.023 74.9921 279.623 75.5827 280.147L77.1489 281.614C79.2045 283.566 81.1181 285.691 82.6525 288.065C84.2072 290.418 85.4029 293.05 85.4116 296.194C85.4145 296.996 84.766 297.65 83.9611 297.653C83.6629 297.656 83.3821 297.564 83.1505 297.41L83.1331 297.398C80.5796 295.702 78.9902 293.609 77.5658 291.368C76.1241 289.15 74.8415 286.814 73.5243 284.454C72.8381 283.294 72.1636 281.965 71.6975 281.574C71.4572 281.371 71.4456 281.267 71.1069 281.322C70.771 281.38 70.2383 281.69 69.6998 282.104C67.5604 283.644 65.5801 285.476 64.092 287.674C63.6954 288.264 62.8906 288.421 62.3 288.021C61.7094 287.622 61.553 286.82 61.9497 286.226C61.9873 286.177 62.0307 286.122 62.0713 286.076Z" fill="#005948"/>
<path d="M98.4409 298.941C100.184 297.143 102.028 295.49 104.028 293.982C106.061 292.54 108.195 291.176 110.525 290.05C111.182 289.732 111.947 289.899 112.416 290.409L112.792 290.82C114.934 293.156 117.045 295.58 118.666 298.31C119.491 299.662 120.256 301.054 120.751 302.58C121.222 304.114 121.605 305.695 121.469 307.481C121.408 308.295 120.696 308.906 119.882 308.842C119.61 308.825 119.361 308.729 119.15 308.584L119.132 308.57C117.69 307.56 116.712 306.364 115.765 305.157C114.842 303.941 114.135 302.618 113.432 301.286C111.999 298.646 110.838 295.826 109.503 293.058L111.77 293.825C109.578 294.187 107.395 294.943 105.473 296.144C103.513 297.282 101.756 298.808 100.395 300.62C99.9666 301.19 99.1589 301.306 98.5886 300.878C98.0182 300.452 97.8995 299.641 98.328 299.071C98.3599 299.028 98.4033 298.979 98.4409 298.941Z" fill="#005948"/>
<path d="M122.342 275.038C123.926 273.067 125.536 271.144 127.423 269.442C128.338 268.71 129.285 267.43 131.488 267.224C132.524 267.167 133.57 267.56 134.317 268.044C135.087 268.536 135.651 269.103 136.155 269.656C137.162 270.829 137.779 271.726 138.503 272.722C139.183 273.715 139.823 274.734 140.402 275.782C141.572 277.876 142.452 280.128 142.316 282.933C142.275 283.764 141.566 284.407 140.735 284.366C140.489 284.355 140.252 284.279 140.052 284.167C137.62 282.76 136.204 280.802 135.078 278.686C134.511 277.629 134.001 276.541 133.538 275.429C133.08 274.338 132.658 273.07 132.345 272.236C131.974 271.341 131.641 270.797 131.366 270.667C131.086 270.389 130.052 270.858 129.117 271.55C127.267 272.85 125.591 274.494 124.476 276.486C124.129 277.108 123.338 277.331 122.716 276.984C122.093 276.634 121.868 275.846 122.218 275.221C122.253 275.16 122.302 275.093 122.342 275.038Z" fill="#005948"/>
<path d="M306.895 367.912C306.281 364.476 304.932 361.19 303.21 358.168C302.335 356.662 301.339 355.229 300.225 353.903C299.185 352.502 297.735 351.428 297.402 351.723C297.286 351.81 297.223 351.891 296.846 352.282C296.51 352.667 296.07 353.257 295.561 353.996C294.562 355.377 293.612 356.778 292.666 358.182C290.787 361.01 288.945 363.775 286.259 366.442L286.239 366.465C285.694 367.003 284.817 367 284.279 366.456C284.006 366.181 283.87 365.816 283.876 365.46C283.931 361.491 285.503 357.901 287.643 354.783C288.717 353.22 289.912 351.74 291.224 350.371C291.87 349.737 292.576 348.932 293.653 348.203C294.663 347.49 296.389 346.775 298.077 347.169C299.756 347.54 300.763 348.567 301.458 349.416C302.165 350.319 302.596 351.164 303.065 351.958C303.971 353.599 304.825 355.246 305.607 356.926C307.182 360.284 308.354 363.772 309.402 367.319C309.608 368.002 309.217 368.72 308.534 368.923C307.85 369.125 307.133 368.738 306.93 368.054C306.915 368.008 306.904 367.959 306.895 367.912Z" fill="#005948"/>
<path d="M279.843 354.594C279.192 352.272 278.083 350.107 276.824 348.066C276.184 347.055 275.469 346.056 274.699 345.173C274.345 344.754 273.972 344.455 273.711 344.383C273.434 344.316 273.439 344.444 273.309 344.534C273.051 344.702 272.244 345.283 271.398 345.996C270.585 346.662 269.809 347.356 269.059 348.08C267.556 349.554 266.149 350.932 263.859 352.374L263.764 352.434C263.075 352.866 262.172 352.66 261.737 351.971C261.607 351.763 261.535 351.525 261.517 351.297C261.297 348.271 262.817 345.585 264.893 343.677C265.927 342.701 267.105 341.882 268.364 341.227C269.592 340.672 270.97 339.867 273.211 339.933C274.319 339.971 275.55 340.556 276.221 341.271C276.916 341.98 277.281 342.692 277.591 343.303L279.201 346.783L282.258 353.699L282.269 353.723C282.559 354.374 282.264 355.138 281.609 355.428C280.958 355.717 280.194 355.422 279.904 354.768C279.881 354.713 279.858 354.652 279.843 354.594Z" fill="#005948"/>
<path d="M287.05 338.234C287.881 335.191 289.018 332.259 290.698 329.572C291.557 328.208 292.406 326.984 293.578 325.661C294.212 325.024 295.058 324.259 296.444 323.973C297.86 323.68 299.339 324.291 300.185 324.917C301.945 326.266 302.718 327.256 303.838 328.483C304.855 329.688 305.781 330.97 306.586 332.325C308.207 335.02 309.328 338.083 309.029 341.465C308.96 342.25 308.268 342.831 307.483 342.762C307.156 342.733 306.867 342.597 306.641 342.391L306.615 342.365C304.229 340.171 302.77 337.846 301.366 335.408L299.241 331.772C298.569 330.634 297.695 329.103 297.238 328.451C296.968 328.113 296.977 328.052 296.89 327.945C296.78 327.835 296.32 327.922 295.839 328.257C294.826 328.952 293.755 330.029 292.918 331.109C291.213 333.318 289.945 335.961 289.574 338.752C289.482 339.459 288.833 339.957 288.124 339.861C287.417 339.768 286.919 339.12 287.012 338.411C287.021 338.356 287.035 338.286 287.05 338.234Z" fill="#005948"/>
<path d="M266.557 331.565C265.355 329.561 263.902 327.74 262.425 325.934C261.713 325.114 260.81 323.933 260.251 323.673C259.953 323.542 259.993 323.687 259.817 323.771L258.85 324.315C257.043 325.378 255.477 326.629 253.943 327.868C252.411 329.156 250.946 330.326 248.584 331.42L248.488 331.463C247.741 331.811 246.853 331.487 246.508 330.737C246.413 330.534 246.369 330.311 246.369 330.103C246.389 327.193 248.04 324.802 250.121 323.16C252.203 321.467 254.759 320.407 257.362 319.961C258.002 319.848 258.801 319.686 259.794 319.773C260.784 319.819 261.977 320.43 262.532 321.093C263.653 322.457 263.911 323.334 264.617 324.356C265.862 326.327 267.127 328.285 268.65 330.059C269.113 330.601 269.049 331.417 268.508 331.883C267.967 332.349 267.15 332.286 266.684 331.744C266.638 331.689 266.591 331.626 266.557 331.565Z" fill="#005948"/>
<path d="M78.2702 410.945C78.6784 407.479 79.4051 404.074 80.7687 400.832C82.1062 397.61 83.8201 394.335 86.4373 391.663C87.3087 390.774 88.6984 390.711 89.6451 391.475L90.1112 391.857C91.9756 393.377 93.6171 395.152 95.0242 397.094C96.3617 399.083 97.3837 401.327 97.511 403.95C97.5516 404.749 96.9349 405.429 96.1359 405.467C95.8348 405.484 95.5482 405.406 95.3079 405.259L95.2818 405.241C93.1279 403.93 91.6253 402.378 90.2125 400.742C88.8692 399.063 87.5403 397.378 86.2288 395.638L89.8998 395.832C87.4303 397.384 84.9926 399.439 83.3772 402.132C81.7906 404.807 80.7542 407.925 80.8439 411.066C80.8642 411.781 80.3055 412.375 79.5904 412.398C78.8753 412.418 78.2818 411.854 78.2615 411.141C78.2586 411.081 78.2644 411.005 78.2702 410.945Z" fill="#005948"/>
<path d="M99.23 418.131C99.1692 415.772 99.149 413.433 99.4819 411.076C99.6354 409.901 99.8525 408.731 100.104 407.538C100.472 406.261 100.791 404.843 102.38 403.508C103.173 402.848 104.537 402.423 105.779 402.631C107.061 402.831 107.95 403.488 108.57 403.969C109.218 404.504 109.568 404.909 109.974 405.283C110.373 405.671 110.735 406.096 111.114 406.502C112.597 408.161 113.833 410.034 114.198 412.671C114.316 413.514 113.726 414.295 112.883 414.411C112.672 414.443 112.455 414.423 112.258 414.371C109.693 413.658 107.999 412.185 106.552 410.494C106.201 410.063 105.828 409.649 105.495 409.203L104.655 408.048C104.479 407.761 104.438 407.732 104.627 407.683C104.777 407.642 104.971 407.454 104.835 407.402C103.975 407.289 102.617 409.698 102.128 411.615C101.572 413.621 101.364 415.781 101.792 417.842C101.937 418.542 101.488 419.226 100.788 419.373C100.087 419.518 99.4038 419.066 99.2561 418.369C99.2416 418.294 99.2329 418.204 99.23 418.131Z" fill="#005948"/>
<path d="M113.18 398.904C113.021 396.061 113.359 393.232 114.451 390.598C114.96 389.272 115.626 387.987 116.454 386.759C117.268 385.52 118.281 384.359 119.508 383.38C120.308 382.738 121.44 382.796 122.175 383.461L122.737 383.968C124.361 385.439 125.895 386.953 127.322 388.563C128.709 390.21 129.937 391.982 130.527 394.486L130.533 394.5C130.724 395.314 130.223 396.125 129.413 396.316C129.175 396.374 128.935 396.368 128.715 396.316C126.164 395.708 124.34 394.263 122.783 392.613C121.263 390.919 119.951 389.043 118.84 387.037L122.065 387.628C121.081 387.984 120.102 388.502 119.202 389.194C118.313 389.9 117.546 390.789 116.941 391.791C115.806 393.806 115.186 396.275 115.733 398.554C115.898 399.248 115.473 399.949 114.775 400.117C114.08 400.282 113.38 399.854 113.215 399.159C113.197 399.083 113.186 399.008 113.18 398.936V398.904Z" fill="#005948"/>
<path d="M129.837 418.912C129.461 415.693 129.953 412.453 131.426 409.581C132.941 406.753 135.013 404.063 138.595 402.593C139.515 402.254 140.589 402.048 141.75 402.147C142.937 402.236 144.006 402.694 144.842 403.134C146.516 404.11 147.46 404.874 148.673 405.786C150.977 407.566 153.079 409.602 154.463 412.552C154.801 413.273 154.492 414.132 153.771 414.471C153.478 414.607 153.166 414.636 152.87 414.578C149.68 413.93 147.202 412.369 144.926 410.554C143.829 409.7 142.57 408.551 141.82 407.908C141.047 407.288 140.807 407.051 139.727 407.051C137.657 407.152 135.141 408.742 133.774 410.919C132.341 413.09 131.707 415.919 132.37 418.432C132.553 419.121 132.139 419.83 131.45 420.012C130.761 420.195 130.054 419.784 129.872 419.092C129.857 419.037 129.843 418.973 129.837 418.912Z" fill="#005948"/>
<path d="M132.224 433.165C130.921 431.659 129.413 430.417 127.791 429.63C126.199 428.828 124.346 428.796 123.075 429.401C121.804 430.032 121.454 430.797 120.785 431.926C120.171 433.104 119.485 434.711 117.719 436.41L117.708 436.422C117.074 437.03 116.066 437.012 115.458 436.378C115.342 436.257 115.247 436.121 115.177 435.979C114.089 433.767 114.187 431.399 115.452 429.039C116.084 427.878 117.071 426.729 118.339 425.942C119.613 425.157 121.127 424.798 122.464 424.841C125.171 424.923 127.36 426.069 129.164 427.305C130.988 428.55 132.403 430.067 133.993 431.292C134.56 431.726 134.667 432.54 134.233 433.104C133.796 433.674 132.982 433.782 132.415 433.344C132.345 433.292 132.279 433.226 132.224 433.165Z" fill="#005948"/>
<path d="M399.437 611.154C398.441 608.82 396.475 606.938 394.249 605.783C393.143 605.222 391.881 604.793 390.752 604.712C389.6 604.605 388.824 604.97 388.25 605.517C387.061 606.692 386.34 608.84 385.341 611.394C384.811 612.737 384.093 614.179 382.877 615.456C381.728 616.724 379.875 617.879 377.955 617.726C377.185 617.659 376.615 616.99 376.679 616.223C376.699 615.988 376.771 615.777 376.89 615.589L377.075 615.299C377.779 614.199 378.025 613.365 378.427 612.367C378.789 611.371 379.212 610.276 379.739 609.072C380.775 606.608 382.321 603.253 385.986 601.51C387.819 600.65 389.99 600.804 391.51 601.354C393.077 601.907 394.359 602.633 395.636 603.464C398.149 605.143 400.146 607.396 401.721 609.958L401.73 609.97C402.101 610.58 401.909 611.374 401.304 611.747C400.696 612.123 399.897 611.932 399.524 611.324C399.492 611.272 399.46 611.212 399.437 611.154Z" fill="#005948"/>
<path d="M378.684 595.264C377.517 593.55 375.974 592.117 374.298 591.147C372.622 590.145 370.705 590.018 369.524 590.759C368.331 591.451 367.61 592.571 366.394 594.114C365.262 595.591 363.641 597.583 360.815 598.165C360.016 598.33 359.235 597.814 359.073 597.012C359.035 596.839 359.032 596.659 359.058 596.491L359.099 596.242C359.461 593.949 360.124 592.27 361.612 590.388C362.338 589.471 363.233 588.527 364.408 587.728C365.581 586.94 367.063 586.37 368.537 586.269C371.591 586.028 374.034 587.508 375.818 588.915C377.674 590.362 379.104 592.059 380.667 593.616C381.174 594.12 381.177 594.942 380.673 595.446C380.166 595.953 379.347 595.956 378.84 595.449C378.785 595.394 378.727 595.324 378.684 595.264Z" fill="#005948"/>
<path d="M365.07 625.421C364.161 623.276 362.789 621.362 361.263 619.623C360.49 618.757 359.659 617.946 358.75 617.225C357.867 616.421 356.894 616.009 356.755 616.264C356.648 616.441 356.448 616.652 355.904 617.347L354.048 619.906C352.598 621.805 350.887 623.502 348.261 624.486C347.479 624.779 346.611 624.385 346.316 623.603C346.232 623.372 346.206 623.128 346.229 622.9C346.55 620.115 347.781 618.042 349.269 616.174C350.001 615.283 350.751 614.287 352.019 613.242C352.647 612.758 353.365 612.246 354.326 611.91C355.256 611.557 356.492 611.429 357.566 611.733C359.842 612.446 360.565 613.992 361.283 614.889L363.4 617.969C364.798 620.013 366.025 622.133 367.351 624.217C367.736 624.819 367.56 625.618 366.958 626.003C366.358 626.388 365.556 626.215 365.171 625.612C365.134 625.555 365.096 625.482 365.07 625.421Z" fill="#005948"/>
<path d="M376.337 632.241C377.834 630.047 379.519 628.017 381.595 626.344C382.625 625.498 383.734 624.74 384.904 624.031C386.076 623.373 387.321 622.629 389.064 622.354C390.822 622.045 392.874 622.577 394.339 623.64C395.807 624.688 396.733 625.947 397.463 627.085C398.954 629.433 399.434 631.309 399.993 633.654L400.057 633.926C400.242 634.699 399.764 635.472 398.994 635.657C398.789 635.704 398.577 635.707 398.384 635.672C396.748 635.348 395.477 634.323 394.53 633.327C393.554 632.319 392.883 631.242 392.318 630.293C391.742 629.346 391.233 628.553 390.784 628.035C390.361 627.516 389.944 627.137 389.226 626.955C388.494 626.775 387.365 626.874 386.282 627.189C385.199 627.476 384.142 627.93 383.176 628.535C381.247 629.743 379.542 631.445 378.572 633.521C378.271 634.172 377.504 634.453 376.856 634.149C376.207 633.851 375.926 633.078 376.227 632.429C376.256 632.368 376.3 632.299 376.337 632.241Z" fill="#005948"/>
<path d="M369.455 756.937C370.876 755.215 372.269 753.504 373.881 751.949C375.497 750.394 377.144 748.863 379.124 747.476C379.689 747.126 380.485 746.666 381.744 746.622C383.07 746.579 384.243 747.268 384.9 747.789C385.601 748.345 385.971 748.808 386.336 749.152C386.707 749.526 387.037 749.94 387.39 750.334C388.759 751.938 389.877 753.756 390.102 756.315C390.178 757.178 389.541 757.939 388.678 758.014C388.487 758.032 388.296 758.011 388.122 757.962C385.647 757.276 384.06 755.849 382.729 754.213C382.407 753.793 382.063 753.391 381.759 752.96C381.443 752.496 381.165 752.12 381.09 751.961C380.977 751.773 381.188 751.883 381.446 751.793C381.643 751.691 381.408 751.593 381.015 751.674C379.171 752.071 377.234 752.838 375.627 754.01C374.02 755.189 372.549 756.633 371.583 758.394C371.238 759.022 370.451 759.251 369.822 758.906C369.197 758.564 368.968 757.774 369.31 757.146C369.35 757.079 369.405 756.998 369.455 756.937Z" fill="#005948"/>
<path d="M288.461 664.986C290.039 662.67 291.787 660.502 293.921 658.663C295.056 657.743 295.945 656.897 297.52 656.06C298.296 655.675 299.526 655.389 300.713 655.719C301.845 656.032 302.592 656.59 303.177 656.949C305.545 658.446 307.754 660.276 309.508 662.488C310.406 663.576 311.176 664.772 311.717 666.092C311.989 666.746 312.215 667.432 312.377 668.139C312.647 668.805 312.707 669.572 312.548 670.232C312.45 670.588 312.357 670.973 311.958 671.5C311.735 671.769 311.39 672.05 310.947 672.163C310.507 672.27 310.16 672.186 309.908 672.085C309.216 671.923 308.787 671.228 308.95 670.536C309.112 669.844 309.806 669.413 310.498 669.578C310.406 669.358 309.514 669.494 309.303 669.83C309.077 670.073 309.033 670.119 308.944 670.151C308.796 670.154 308.692 670.255 308.608 670.362C308.098 669.94 307.632 669.502 307.183 669.059C306.28 668.182 305.504 667.238 304.763 666.266C303.24 664.358 301.778 662.38 300.169 660.432L299.367 659.482C299.306 659.349 299.147 659.222 298.698 659.294C297.824 659.442 296.55 660.154 295.577 660.8C293.55 662.184 291.761 664.045 290.69 666.28C290.383 666.926 289.61 667.201 288.965 666.891C288.322 666.584 288.05 665.811 288.357 665.166C288.386 665.111 288.426 665.038 288.461 664.986Z" fill="#005948"/>
<path d="M312.792 658.773C314.112 656.596 315.264 654.289 317.285 652.32C318.304 651.365 319.584 650.447 321.205 650.065C322.791 649.677 324.63 649.865 326.057 650.444C328.903 651.593 330.921 653 332.892 654.897C334.797 656.744 336.306 659.094 336.494 662.036C336.546 662.852 335.923 663.556 335.107 663.611C334.855 663.625 334.615 663.576 334.398 663.481L334.337 663.452C331.815 662.294 330.206 660.808 328.616 659.196L326.236 656.784C325.429 655.968 324.63 655.117 323.923 654.52C322.606 653.275 320.823 653.049 319.039 654.373C317.337 655.655 315.973 657.711 315.108 659.905C314.853 660.574 314.106 660.907 313.437 660.652C312.768 660.4 312.433 659.653 312.69 658.982C312.716 658.915 312.757 658.834 312.792 658.773Z" fill="#005948"/>
<path d="M287.495 646.63C289.287 644.8 290.874 642.687 292.984 640.898C295.086 639.123 297.617 637.473 300.905 637.085C302.544 636.905 304.296 637.192 305.853 637.864C307.417 638.541 308.711 639.592 309.744 640.741C311.808 643.057 312.859 645.834 312.55 648.807C312.466 649.615 311.742 650.202 310.934 650.121C310.665 650.092 310.422 649.994 310.219 649.846L310.178 649.82C307.86 648.118 306.528 646.297 305.213 644.768C303.873 643.263 302.637 642.177 300.81 641.685C298.954 641.21 296.543 641.731 294.62 643.046C292.657 644.354 290.949 646.204 289.479 648.28C289.065 648.862 288.26 649.001 287.675 648.593C287.09 648.179 286.954 647.374 287.365 646.789C287.403 646.734 287.452 646.679 287.495 646.63Z" fill="#005948"/>
<path d="M340.65 339.527C344.423 349.324 347.309 359.445 349.029 369.902C349.842 375.128 350.3 380.449 350.062 385.761C349.854 391.062 349.035 396.384 346.973 401.346C346.765 401.847 346.186 402.084 345.682 401.876C345.312 401.722 345.086 401.36 345.074 400.987C344.944 395.721 345.3 390.672 345.52 385.573C345.705 380.487 345.841 375.38 345.595 370.252C345.199 360.004 343.019 349.715 338.864 340.262C338.65 339.773 338.87 339.202 339.359 338.988C339.848 338.774 340.419 338.994 340.633 339.483C340.639 339.498 340.648 339.515 340.65 339.527Z" fill="#005948"/>
<path d="M337.044 360.379C337.07 363.526 337.536 366.627 338.272 369.768C338.579 371.337 338.883 372.921 338.845 374.501C338.836 376.082 338.587 377.669 337.421 379.197C337.027 379.715 336.286 379.814 335.768 379.42C335.658 379.336 335.562 379.226 335.49 379.119C334.45 377.527 334.274 375.998 334.297 374.458C334.291 372.923 334.575 371.386 334.821 369.837C335.432 366.739 335.585 363.607 335.116 360.532C335.035 360.005 335.4 359.51 335.93 359.429C336.457 359.348 336.952 359.713 337.033 360.243C337.041 360.286 337.044 360.336 337.044 360.379Z" fill="#005948"/>
<path d="M165.419 516.533C162.475 516.359 159.71 515.32 157.327 513.731C154.933 512.135 152.872 510.074 151.109 507.816C149.377 505.526 147.935 503.111 146.893 500.517C145.837 497.935 145.147 495.164 145.524 492.229C145.596 491.658 146.117 491.259 146.688 491.331C146.977 491.369 147.232 491.531 147.394 491.742C149.131 494.032 150.139 496.389 151.109 498.806C152.113 501.198 152.947 503.693 154.041 506.001C155.107 508.32 156.525 510.514 158.514 512.092C160.477 513.658 162.952 514.735 165.431 514.599C165.963 514.57 166.421 514.981 166.45 515.514C166.482 516.047 166.07 516.504 165.538 516.533C165.5 516.536 165.454 516.536 165.419 516.533Z" fill="#005948"/>
<path d="M163.563 507.414C161.377 506.25 159.206 505.193 156.884 503.919C155.772 503.242 154.675 502.44 153.916 501.363C153.14 500.318 152.616 499.018 153.077 497.417C153.273 496.734 153.989 496.337 154.672 496.534C154.695 496.54 154.721 496.548 154.744 496.557L154.822 496.586C156.296 497.104 156.982 497.831 157.59 498.682C158.218 499.507 158.679 500.477 159.266 501.424C160.349 503.389 162.161 504.976 164.31 505.63C164.825 505.787 165.114 506.331 164.958 506.843C164.802 507.356 164.257 507.645 163.745 507.489C163.684 507.474 163.618 507.443 163.563 507.414Z" fill="#005948"/>
<path d="M34.2874 322.253C40.092 324.714 44.9935 329.155 47.877 334.792C49.3158 337.612 50.2423 340.637 50.9342 343.637C51.603 346.639 52.2717 349.601 52.8537 352.606C53.4385 355.608 53.9335 358.625 54.3736 361.653C54.7702 364.687 55.0395 367.735 55.2884 370.787C55.7082 376.887 55.6127 383.045 54.4199 389.116C54.3128 389.646 53.7975 389.993 53.2677 389.889C52.8537 389.808 52.5526 389.475 52.486 389.081C51.4814 383.033 51.1282 377.066 50.7692 371.073C50.6302 368.077 50.3957 365.086 50.1641 362.093C49.9904 359.094 49.7212 356.097 49.4374 353.101C48.7774 347.137 48.4126 340.982 46.0531 335.678C43.6241 330.418 39.0527 326.055 33.5781 324.051C33.0772 323.869 32.8196 323.313 33.0019 322.812C33.1843 322.311 33.7402 322.054 34.241 322.236C34.2555 322.242 34.2729 322.248 34.2874 322.253Z" fill="#005948"/>
<path d="M51.3003 324.272C55.4693 331.075 58.1675 338.62 60.0869 346.355C61.0047 350.232 61.6792 354.172 61.9051 358.115C62.1569 362.061 62.0498 366.002 61.0307 369.922C60.8918 370.46 60.3446 370.781 59.8061 370.642C59.4558 370.55 59.1981 370.283 59.0997 369.962C57.9127 366.091 57.5972 362.235 57.3655 358.399C57.105 354.563 57.0297 350.733 56.6794 346.914C56.0975 339.309 54.0912 331.616 49.6791 325.328C49.3722 324.891 49.4793 324.289 49.9164 323.982C50.3536 323.675 50.9587 323.782 51.2656 324.217C51.2743 324.234 51.2887 324.257 51.3003 324.272Z" fill="#005948"/>
<path d="M163.015 117.67C151.576 126.298 141.107 136.19 131.629 146.896C129.255 149.574 126.895 152.252 124.594 154.982C122.266 157.687 119.933 160.382 117.663 163.135C113.083 168.607 108.508 174.055 103.396 179.183C103.016 179.565 102.397 179.568 102.015 179.186C101.702 178.879 101.644 178.41 101.835 178.042C105.205 171.574 109.519 165.723 114.203 160.214C116.583 157.49 118.977 154.777 121.455 152.142C123.986 149.554 126.536 146.992 129.148 144.496C139.668 134.569 150.615 125.203 161.825 116.148C162.239 115.812 162.847 115.875 163.185 116.292C163.521 116.706 163.455 117.314 163.041 117.65C163.032 117.656 163.02 117.665 163.015 117.67Z" fill="#005948"/>
<path d="M152.683 143.401C147.822 146.875 143.416 150.951 139.435 155.424C137.405 157.619 135.434 159.857 133.283 161.901C131.152 163.971 128.914 165.913 126.051 167.297C125.541 167.546 124.925 167.335 124.676 166.822C124.537 166.544 124.542 166.223 124.658 165.959C125.949 163.024 127.944 160.722 130.124 158.629C132.284 156.513 134.701 154.666 137.13 152.856C142.069 149.324 146.878 145.726 151.502 141.872C151.913 141.531 152.521 141.586 152.862 141.994C153.207 142.405 153.152 143.016 152.741 143.357C152.723 143.372 152.7 143.389 152.683 143.401Z" fill="#005948"/>
<path d="M247.288 201.518C237.025 207.236 224.61 208.918 213.024 205.681C207.263 204.005 201.82 200.991 197.443 196.799C193.06 192.662 189.652 187.306 188.491 181.406C188.387 180.873 188.734 180.355 189.267 180.251C189.672 180.17 190.075 180.361 190.286 180.688C193.384 185.444 196.65 189.741 200.578 193.501C204.51 197.213 209.043 200.377 214.142 202.416C224.289 206.611 236.767 205.774 246.306 199.85C246.761 199.57 247.357 199.709 247.638 200.163C247.919 200.618 247.78 201.214 247.328 201.495C247.314 201.504 247.299 201.512 247.288 201.518Z" fill="#005948"/>
<path d="M233.647 214.056C230.065 214.85 226.484 215.643 222.83 216.141C219.186 216.682 215.46 217.015 211.626 216.792C207.831 216.529 203.821 215.536 200.486 213.202C197.183 210.993 194.427 207.345 194.241 203.24C194.215 202.687 194.647 202.218 195.2 202.192C195.538 202.178 195.848 202.334 196.042 202.586L196.074 202.629C198.202 205.435 200.405 207.583 203.06 209.453C205.703 211.26 208.763 212.609 212.124 213.376C215.474 214.195 219.055 214.352 222.613 214.126C226.169 213.859 229.724 213.243 233.152 212.186C233.661 212.03 234.202 212.316 234.362 212.826C234.518 213.338 234.231 213.88 233.722 214.036C233.696 214.045 233.67 214.05 233.647 214.056Z" fill="#005948"/>
<path d="M209.437 403.975C200.972 408.546 194.516 416.473 191.065 425.28C189.284 429.677 188.167 434.263 187.426 438.864C186.719 443.493 186.467 448.09 186.143 452.98C186.111 453.524 185.645 453.944 185.098 453.912C184.707 453.889 184.377 453.629 184.235 453.29C182.333 448.513 182.13 443.203 182.932 438.166C183.7 433.094 185.532 428.241 187.95 423.8C192.883 414.95 199.927 407.501 208.473 402.298C208.928 402.021 209.524 402.162 209.802 402.62C210.08 403.074 209.938 403.671 209.481 403.949C209.469 403.957 209.449 403.966 209.437 403.975Z" fill="#005948"/>
<path d="M189.876 409.045C185.794 412.363 182.902 417.079 181.552 422.082C180.817 424.563 180.383 427.081 179.92 429.56C179.485 432.061 179.106 434.502 178.142 437.165L178.133 437.188C177.939 437.727 177.343 438.008 176.805 437.814C176.532 437.715 176.324 437.512 176.214 437.269C174.957 434.551 174.931 431.569 175.444 428.763C175.924 425.932 177.03 423.243 178.368 420.753C181.17 415.802 184.604 411.451 188.593 407.6C188.976 407.227 189.589 407.236 189.96 407.621C190.333 408.006 190.325 408.616 189.94 408.987C189.919 409.007 189.896 409.028 189.876 409.045Z" fill="#005948"/>
<path d="M375.852 156.872C361.038 149.913 344.301 147.275 328.12 148.63L322.067 149.264L316.071 150.225L310.124 151.418L304.259 152.932C296.474 155.124 288.938 157.932 281.281 160.957C280.78 161.157 280.212 160.914 280.013 160.413C279.847 159.996 279.992 159.527 280.337 159.273C287.077 154.235 294.934 150.784 303.049 148.569L309.195 147.119L315.411 146.045L321.685 145.428L327.973 145.182C344.744 145.11 361.365 148.482 376.648 155.112C377.137 155.324 377.36 155.894 377.149 156.383C376.938 156.872 376.37 157.098 375.878 156.884C375.869 156.881 375.858 156.875 375.852 156.872Z" fill="#005948"/>
<path d="M349.106 158.504C342.832 156.674 336.142 156.321 329.723 157.267C326.504 157.679 323.354 158.336 320.21 158.906C317.057 159.508 313.948 160.108 310.511 160.128C309.95 160.136 309.486 159.688 309.478 159.126C309.472 158.796 309.637 158.489 309.88 158.301C312.7 156.156 316.012 155.058 319.367 154.436C322.731 153.782 326.18 153.683 329.578 153.816C336.391 154.207 343.017 155.195 349.584 156.631C350.105 156.743 350.435 157.259 350.322 157.78C350.209 158.304 349.694 158.634 349.17 158.521C349.149 158.515 349.126 158.509 349.106 158.504Z" fill="#005948"/>
<path d="M369.109 251.663C372.045 251.663 372.051 247.098 369.109 247.098C366.171 247.098 366.165 251.663 369.109 251.663Z" fill="#005948"/>
<path d="M371.433 263.294C374.371 263.294 374.374 258.728 371.433 258.728C368.494 258.728 368.491 263.294 371.433 263.294Z" fill="#005948"/>
<path d="M358.642 263.294C361.58 263.294 361.586 258.728 358.642 258.728C355.703 258.728 355.7 263.294 358.642 263.294Z" fill="#005948"/>
<path d="M58.5448 254.818C61.4834 254.818 61.4891 250.253 58.5448 250.253C55.6063 250.253 55.6034 254.818 58.5448 254.818Z" fill="#005948"/>
<path d="M64.1132 268.486C67.0517 268.486 67.0575 263.921 64.1132 263.921C61.1747 263.921 61.1718 268.486 64.1132 268.486Z" fill="#005948"/>
<path d="M50.4452 268.486C53.3837 268.486 53.3895 263.921 50.4452 263.921C47.5067 263.921 47.5038 268.486 50.4452 268.486Z" fill="#005948"/>
<path d="M51.46 281.144C54.3985 281.144 54.4014 276.578 51.46 276.578C48.5214 276.578 48.5157 281.144 51.46 281.144Z" fill="#005948"/>
<path d="M39.8134 284.687C42.7519 284.687 42.7577 280.121 39.8134 280.121C36.8749 280.121 36.872 284.687 39.8134 284.687Z" fill="#005948"/>
<path d="M48.9267 295.316C51.8652 295.316 51.871 290.751 48.9267 290.751C45.9881 290.751 45.9852 295.316 48.9267 295.316Z" fill="#005948"/>
<path d="M35.7626 303.923C38.7011 303.923 38.7069 299.357 35.7626 299.357C32.8241 299.357 32.8212 303.923 35.7626 303.923Z" fill="#005948"/>
<path d="M31.7139 314.553C34.6524 314.553 34.6553 309.987 31.7139 309.987C28.7754 309.987 28.7696 314.553 31.7139 314.553Z" fill="#005948"/>
<path d="M289.889 170.278C292.827 170.278 292.833 165.713 289.889 165.713C286.95 165.713 286.947 170.278 289.889 170.278Z" fill="#005948"/>
<path d="M287.362 181.922C290.298 181.922 290.304 177.356 287.362 177.356C284.424 177.356 284.418 181.922 287.362 181.922Z" fill="#005948"/>
<path d="M278.247 176.86C281.185 176.86 281.191 172.295 278.247 172.295C275.311 172.295 275.305 176.86 278.247 176.86Z" fill="#005948"/>
<path d="M275.211 188.503H275.717C276.03 188.514 276.325 188.45 276.598 188.306C276.878 188.213 277.124 188.057 277.33 187.837C277.553 187.628 277.712 187.382 277.805 187.101C277.947 186.826 278.01 186.534 277.999 186.221C277.973 186.019 277.944 185.816 277.918 185.613C277.808 185.228 277.614 184.892 277.33 184.606L276.87 184.25C276.514 184.044 276.129 183.94 275.717 183.937H275.211C274.898 183.925 274.603 183.992 274.331 184.134C274.05 184.227 273.804 184.386 273.595 184.606C273.375 184.814 273.219 185.06 273.126 185.341C272.982 185.613 272.918 185.906 272.927 186.221C272.956 186.424 272.982 186.627 273.011 186.826C273.118 187.214 273.315 187.55 273.595 187.837L274.059 188.193C274.415 188.398 274.8 188.503 275.211 188.503Z" fill="#005948"/>
<path d="M267.111 187.997C270.05 187.997 270.056 183.431 267.111 183.431C264.173 183.431 264.17 187.997 267.111 187.997Z" fill="#005948"/>
<path d="M313.684 389.981C316.623 389.981 316.629 385.419 313.684 385.419C310.746 385.419 310.743 389.981 313.684 389.981Z" fill="#005948"/>
<path d="M301.535 379.35C304.474 379.35 304.477 374.787 301.535 374.787C298.597 374.787 298.591 379.35 301.535 379.35Z" fill="#005948"/>
<path d="M289.889 388.463C292.827 388.463 292.833 383.9 289.889 383.9C286.95 383.9 286.947 388.463 289.889 388.463Z" fill="#005948"/>
<path d="M277.235 381.883C280.171 381.883 280.177 377.317 277.235 377.317C274.297 377.317 274.291 381.883 277.235 381.883Z" fill="#005948"/>
<path d="M272.171 389.475C275.109 389.475 275.115 384.912 272.171 384.912C269.232 384.912 269.229 389.475 272.171 389.475Z" fill="#005948"/>
<path d="M260.024 382.895C262.963 382.895 262.966 378.329 260.024 378.329C257.086 378.329 257.083 382.895 260.024 382.895Z" fill="#005948"/>
<path d="M250.912 392.008C253.851 392.008 253.854 387.442 250.912 387.442C247.974 387.442 247.968 392.008 250.912 392.008Z" fill="#005948"/>
<path d="M188.139 470.473C191.077 470.473 191.08 465.907 188.139 465.907C185.2 465.907 185.194 470.473 188.139 470.473Z" fill="#005948"/>
<path d="M191.683 484.139C194.621 484.139 194.627 479.576 191.683 479.576C188.744 479.576 188.741 484.139 191.683 484.139Z" fill="#005948"/>
<path d="M183.079 477.56C186.015 477.56 186.021 472.994 183.079 472.994C180.141 472.994 180.135 477.56 183.079 477.56Z" fill="#005948"/>
<path d="M185.101 492.239C188.04 492.239 188.043 487.677 185.101 487.677C182.163 487.677 182.16 492.239 185.101 492.239Z" fill="#005948"/>
<path d="M199.783 491.228C202.722 491.228 202.725 486.662 199.783 486.662C196.845 486.662 196.842 491.228 199.783 491.228Z" fill="#005948"/>
<path d="M67.9066 422.629V423.135C67.895 423.448 67.9616 423.743 68.1034 424.015C68.1961 424.296 68.3524 424.542 68.5753 424.748C68.7809 424.974 69.027 425.127 69.3107 425.223C69.5828 425.362 69.8752 425.428 70.1908 425.417C70.3906 425.391 70.5932 425.362 70.7959 425.336C71.1809 425.226 71.5196 425.032 71.8034 424.748C71.9221 424.594 72.0408 424.441 72.1595 424.285C72.3679 423.929 72.4692 423.546 72.4721 423.135V422.629C72.4837 422.316 72.4171 422.021 72.2753 421.749C72.1826 421.468 72.0263 421.222 71.8034 421.013C71.5949 420.79 71.3517 420.637 71.068 420.541C70.7959 420.397 70.5035 420.333 70.1908 420.344C69.9881 420.373 69.7826 420.399 69.5828 420.426C69.1949 420.536 68.859 420.732 68.5753 421.013C68.4566 421.167 68.3379 421.323 68.2163 421.476C68.0108 421.833 67.9066 422.215 67.9066 422.629Z" fill="#005948"/>
<path d="M65.6328 417.822C68.5685 417.822 68.5743 413.26 65.6328 413.26C62.6943 413.26 62.6885 417.822 65.6328 417.822Z" fill="#005948"/>
<path d="M63.101 431.494H63.6077C63.9232 431.505 64.2156 431.439 64.4878 431.297C64.7686 431.204 65.0147 431.048 65.2202 430.825C65.4432 430.617 65.6024 430.373 65.695 430.093C65.8369 429.818 65.9006 429.525 65.889 429.21C65.863 429.01 65.8369 428.804 65.808 428.605C65.6979 428.217 65.504 427.881 65.2202 427.597C65.0668 427.478 64.9134 427.36 64.7599 427.238C64.4038 427.032 64.0188 426.931 63.6077 426.928H63.101C62.7884 426.917 62.496 426.98 62.2209 427.125C61.9401 427.215 61.694 427.374 61.4856 427.597C61.2655 427.805 61.1092 428.049 61.0166 428.329C60.8718 428.605 60.8081 428.897 60.8197 429.21C60.8457 429.412 60.8718 429.618 60.9008 429.818C61.0079 430.206 61.2047 430.541 61.4856 430.825C61.6419 430.944 61.7953 431.065 61.9488 431.184C62.3049 431.39 62.6899 431.491 63.101 431.494Z" fill="#005948"/>
<path d="M56.0147 425.418H56.3273C59.2659 425.418 59.2717 420.855 56.3273 420.855H56.0147C53.0761 420.855 53.0703 425.418 56.0147 425.418H56.3273C59.2659 425.418 59.2717 420.855 56.3273 420.855H56.0147C53.0761 420.855 53.0703 425.418 56.0147 425.418Z" fill="#005948"/>
<path d="M272.557 501.688C275.495 501.688 275.498 497.122 272.557 497.122C269.618 497.122 269.615 501.688 272.557 501.688Z" fill="#005948"/>
<path d="M268.048 514.714C270.986 514.714 270.992 510.148 268.048 510.148C265.112 510.148 265.106 514.714 268.048 514.714Z" fill="#005948"/>
<path d="M256.026 509.703C258.965 509.703 258.968 505.138 256.026 505.138C253.088 505.138 253.082 509.703 256.026 509.703Z" fill="#005948"/>
<path d="M274.061 525.233C277 525.233 277.003 520.668 274.061 520.668C271.123 520.668 271.12 525.233 274.061 525.233Z" fill="#005948"/>
<path d="M346.172 11.647C348.042 10.9116 350.02 10.0575 352.174 9.31639C354.261 8.59551 356.69 7.81962 358.667 7.3564C362.431 6.49945 366.212 5.65119 370.013 4.88978C377.607 3.63331 385.247 2.47816 392.89 1.81518C408.171 0.468961 423.495 -0.87437 438.778 0.735307C442.599 0.995866 446.412 1.31432 450.225 1.46776C454.038 1.62699 457.851 1.60094 461.661 1.66753C469.283 1.81518 476.909 1.7399 484.535 1.76596L507.418 1.95415C515.052 2.1018 522.675 1.95704 530.315 2.84584L533.451 3.21351L534.585 5.65409C536.343 9.4322 536.386 13.2972 535.908 16.6613C535.439 20.063 534.383 23.1347 533.233 26.0732C530.923 31.9213 528.202 37.4857 523.952 42.4219C515.64 51.9786 505.084 57.8383 496.874 64.9226C492.696 68.5502 488.817 72.5223 485.334 76.8099C481.828 81.0744 478.713 85.6689 476.24 90.5848C475.024 92.9733 473.82 95.8423 472.19 98.6274C470.546 101.412 468.571 104.421 465.308 106.957C463.661 108.204 461.652 109.255 459.452 109.886C457.249 110.512 454.921 110.59 452.651 110.228C448.028 109.461 444.504 106.696 442.255 103.859C439.921 100.99 438.439 97.9152 437.33 94.7914C436.279 91.5836 435.709 88.7696 434.907 86.0048C433.318 80.5706 431.114 75.7677 426.914 73.3618C422.75 70.7389 417.091 70.2351 411.266 69.274C408.333 68.7847 405.258 68.2201 402.155 67.0882C399.077 65.9909 395.93 64.1323 393.501 61.7264C388.666 56.8771 386.266 51.1825 383.267 46.8282C381.776 44.628 380.253 42.7056 378.389 41.3217C376.545 39.8887 374.185 38.8233 371.614 37.8447C369.026 36.8604 366.192 36.0208 363.323 34.7383C360.402 33.476 357.64 31.8316 355.127 29.86C352.579 27.9029 350.295 25.4016 348.676 22.5065C347.869 21.0589 347.223 19.5361 346.731 17.9785C346.514 17.194 346.291 16.4123 346.166 15.6161C346.106 15.2166 345.998 14.9474 345.926 13.9717C345.877 13.1524 345.998 12.3099 346.172 11.647ZM349.979 14.1396C350.286 14.1889 350.544 14.0644 350.628 13.9572C350.668 13.7025 350.749 14.1338 350.868 14.4407C351.059 15.0661 351.317 15.6567 351.54 16.256C352.055 17.4256 352.675 18.5286 353.395 19.5564C354.875 21.5829 356.728 23.3142 358.879 24.7704C361.05 26.2354 363.418 27.4397 365.902 28.3054L374.072 30.9486C376.953 31.9387 380.027 33.1402 382.873 35.1697C385.745 37.1933 388.006 39.8047 389.761 42.4103C393.299 47.6331 395.557 52.8761 398.898 56.4197C402.03 59.9373 406.891 61.5788 412.487 62.6905C417.991 63.8746 424.276 64.6273 430.147 68.1478C433.028 69.9254 435.547 72.4933 437.235 75.3045C438.949 78.1127 440.141 81.0078 441.259 83.7668C443.448 89.3804 445.989 94.001 449.588 96.6964C451.345 98.0136 452.996 98.584 454.194 98.5319C455.462 98.5377 456.536 98.1208 457.868 97.1625C459.209 96.1202 460.804 94.4208 462.274 92.319C463.78 90.2027 465.216 87.8837 466.895 85.2318C473.447 74.8731 481.281 65.3395 490.797 57.6762C500.223 49.6017 511.289 45.3691 518.966 37.7897C522.62 34.1737 525.422 29.1826 526.69 24.0032C527.284 21.4034 527.423 18.7342 527.191 16.3283C526.939 13.908 526.216 11.8264 525.367 10.376L529.635 13.1814C522.102 13.1032 514.537 12.2202 506.981 11.6672L484.283 10.1444C476.709 9.7217 469.133 9.29322 461.554 9.22953C453.974 9.02108 446.386 9.15716 438.821 9.93015C423.697 11.5861 408.608 11.1606 393.545 11.7338C389.79 11.9191 386.006 11.9365 382.26 12.1478C378.513 12.3765 374.761 12.5821 370.998 12.7471C367.28 13.1119 363.543 13.3956 359.785 13.6677C358.019 13.8356 356.757 13.9978 355.121 14.047L349.979 14.1396Z" fill="#005948"/>
<path d="M374.357 16.3851C374.105 18.8546 376.508 20.9709 378.911 21.8742C381.412 22.873 384.359 23.2175 386.878 24.9864C389.382 26.7611 390.824 29.5202 391.898 32.1287C392.961 34.7951 393.931 37.3485 395.346 39.6472C398.14 44.2765 402.112 48.127 406.692 50.8918C408.994 52.2641 411.426 53.4135 413.968 54.2849C415.233 54.7336 416.533 55.1013 417.853 55.4053C418.455 55.524 419.329 55.7874 419.656 55.799C419.894 55.8598 419.706 55.6427 419.738 56.2188C419.937 56.6415 420.056 56.4881 420.033 56.4938C420.044 56.4707 420.042 56.5025 420.218 56.3896C420.319 56.3375 420.447 56.1175 420.438 55.9525C420.424 55.7816 420.392 55.7614 420.363 55.7237C420.551 56.0248 420.456 56.4244 420.154 56.6096C419.85 56.7978 419.454 56.7052 419.269 56.4012C419.202 56.2825 419.124 56.187 419.112 55.9235C419.101 55.6716 419.283 55.3705 419.454 55.2663C419.781 55.0608 419.963 55.0781 420.149 55.0695C420.461 55.1071 420.98 55.1071 421.269 55.8859C421.347 57.2234 420.34 57.429 419.914 57.5592C418.837 57.7127 418.328 57.5679 417.534 57.5708C416.078 57.4695 414.628 57.2408 413.203 56.8847C410.36 56.1754 407.619 55.0173 405.123 53.4714C400.12 50.4025 395.963 45.9701 393.331 40.759C391.962 38.1621 391.186 35.3422 390.277 32.7598C389.353 30.1889 388.207 27.6441 386.082 26.0924C383.977 24.5319 381.137 24.1121 378.45 23.0236C377.078 22.4648 375.807 21.6426 374.765 20.5425C373.726 19.4684 372.927 17.9195 373.074 16.2722C373.1 15.9161 373.407 15.6497 373.763 15.6758C374.119 15.7047 374.386 16.0145 374.357 16.3677C374.357 16.3706 374.357 16.3851 374.357 16.3851Z" fill="#005948"/>
<path d="M221.03 608.34C215.298 606.223 210.347 602.413 206.511 597.776C202.701 593.103 200.075 587.44 199.114 581.424C198.975 580.567 199.56 579.759 200.417 579.623C201.17 579.505 201.885 579.945 202.143 580.631C204.123 585.906 201.506 591.548 197.505 594.605C193.46 597.776 188.698 599.081 183.938 599.782C179.147 600.396 173.814 599.898 169.257 596.881C167.057 595.355 165.213 593.32 163.971 590.845C162.743 588.381 162.167 585.379 162.781 582.426L168.082 584.432C165.601 589.446 161.553 593.563 156.773 596.409C151.994 599.243 146.36 600.873 140.613 600.59C134.86 600.355 129.339 598.268 124.754 594.97C120.145 591.699 116.468 587.049 114.441 581.673L121.149 581.896C118.402 587.388 113.532 591.38 108.139 593.398C102.762 595.425 96.6131 595.543 91.4743 593.239C90.6579 592.871 90.2931 591.91 90.6608 591.094C90.9677 590.41 91.6915 590.043 92.3979 590.156L92.4297 590.161C101.729 591.664 111.204 586.366 114.537 578.763C115.336 576.934 117.467 576.103 119.293 576.905C120.173 577.29 120.825 577.987 121.169 578.81L121.245 578.983C122.88 582.889 125.735 586.279 129.192 588.833C132.666 591.369 136.823 592.961 141.033 593.297C145.242 593.592 149.651 592.68 153.548 590.651C157.454 588.633 160.815 585.521 163.044 581.737L163.198 581.473C163.991 580.127 165.725 579.678 167.074 580.471C168.226 581.149 168.721 582.518 168.342 583.746C167.416 586.745 169.106 590.691 172.074 592.999C175.024 595.326 179.338 596.056 183.515 595.714C187.719 595.315 192.125 594.258 195.388 591.878C198.593 589.594 200.481 585.251 199.204 581.766L202.232 580.972C202.933 586.412 205.327 591.621 208.819 595.894C212.281 600.202 216.971 603.502 222.125 605.309C222.964 605.604 223.407 606.522 223.112 607.364C222.816 608.201 221.896 608.644 221.056 608.351C221.053 608.348 221.036 608.343 221.03 608.34Z" fill="#005948"/>
<path d="M169.474 634.175C164.453 631.541 159.595 628.605 155.007 625.29C150.412 621.978 146.038 618.345 142.031 614.321L144.489 614.361C141.901 617.025 139.208 619.685 136.165 622.114C133.117 624.503 129.579 626.636 125.5 627.676C121.221 628.721 116.71 628.194 112.718 626.214C110.726 625.215 108.83 623.817 107.31 621.915C105.793 620.03 104.716 617.569 104.505 615.018L111.111 616.692C107.058 623.423 99.6292 627.876 91.6821 628.046C87.7187 628.159 83.8364 627.079 80.4984 625.224C77.1661 623.353 74.3144 620.632 72.4876 617.352L72.1952 616.834C71.5843 615.734 71.981 614.35 73.0782 613.739C73.8136 613.331 74.6821 613.374 75.3567 613.776C76.7145 614.596 78.0549 615.456 79.3779 616.365C80.1249 616.874 80.316 617.896 79.8035 618.643C79.4127 619.213 78.7266 619.457 78.0925 619.318C76.5292 618.964 74.9832 618.571 73.4575 618.131L76.3265 614.558C78.3965 616.622 80.8197 618.197 83.4224 619.216C86.0222 620.25 88.7755 620.678 91.4245 620.563C96.7109 620.267 102.055 617.363 105.046 612.885L105.26 612.56C106.328 610.957 108.497 610.522 110.098 611.591C111.117 612.274 111.664 613.415 111.653 614.555C111.615 616.831 113.158 619.176 115.709 620.719C118.219 622.242 121.45 623.018 124.437 622.572C127.634 622.109 130.78 620.673 133.696 618.715C136.643 616.784 139.336 614.332 142.074 611.86L142.138 611.799C142.83 611.177 143.898 611.223 144.532 611.903C148.273 615.901 152.346 619.613 156.767 622.873C161.191 626.13 165.913 628.99 170.898 631.283C171.706 631.657 172.062 632.612 171.688 633.42C171.318 634.23 170.359 634.586 169.552 634.213C169.529 634.201 169.497 634.187 169.474 634.175Z" fill="#005948"/>
<path d="M147.54 662.378C153.947 663.403 160.895 661.37 165.739 657.057C166.361 656.504 167.305 656.536 167.884 657.12L167.942 657.178C170.27 659.526 172.592 661.819 175.154 663.672C177.681 665.557 180.463 666.946 183.309 667.502C185.981 667.992 188.906 667.447 191.187 666.168C193.509 664.905 194.971 662.925 195.049 660.962C195.124 659.115 196.682 657.676 198.529 657.749C199.655 657.795 200.628 658.391 201.201 659.272L201.52 659.77C203.914 663.504 207.454 666.515 211.528 668.426C215.595 670.345 220.086 671.379 224.724 671.205L224.741 676.671C222.657 675.991 220.581 675.281 218.537 674.364C217.7 673.987 217.327 673.006 217.703 672.169C217.964 671.59 218.517 671.234 219.11 671.194C221.342 671.049 223.537 671.11 225.728 671.202C227.214 671.263 228.366 672.517 228.305 674.002C228.256 675.166 227.474 676.127 226.423 676.457L225.749 676.668C222.926 677.545 219.898 677.847 216.933 677.58C213.954 677.343 211.044 676.521 208.326 675.299C202.924 672.8 198.21 668.591 195.457 663.183L201.931 661.99C201.514 664.286 200.361 666.428 198.853 668.026C197.348 669.639 195.547 670.777 193.68 671.541C189.939 673.023 185.883 673.223 182.119 672.053C178.515 670.93 175.466 668.854 172.815 666.616C170.177 664.335 167.867 661.848 165.612 659.405L167.812 659.526C162.001 664.144 154.509 666.333 147.126 665.574C146.24 665.484 145.595 664.697 145.682 663.808C145.769 662.922 146.559 662.277 147.445 662.366C147.474 662.369 147.514 662.372 147.54 662.378Z" fill="#005948"/>
</svg>
