<svg width="316" height="141" viewBox="0 0 316 141" fill="none" xmlns="http://www.w3.org/2000/svg">
<path d="M234.618 31.5584C225.739 18.2705 209.815 10.0026 193.839 10.3836C177.861 10.7626 162.349 19.779 154.11 33.4729C140.926 27.4408 126.922 21.58 112.472 22.7479C98.0201 23.9139 83.2756 34.5215 82.5445 49.0004C69.397 43.1435 54.058 40.4112 40.6143 45.5563C27.1705 50.7014 16.8746 65.4285 20.2187 79.4283C22.9125 90.6997 33.4624 98.7406 44.6338 101.821C55.8051 104.903 67.6442 103.924 79.1888 102.92C87.7222 118.611 104.616 129.422 122.439 130.598C140.26 131.774 158.427 123.277 168.95 108.846C183.343 116.465 198.689 124.302 214.94 123.269C231.193 122.232 247.772 108.421 245.43 92.3044C263.436 95.5677 286.602 94.5691 294.121 77.8871C300.128 64.5588 291.237 48.3193 278.515 41.1174C265.793 33.9135 250.492 33.4075 235.877 33.0823" fill="white"/>
<path d="M241.867 28.1208C236.874 21.1343 230.092 15.5506 222.478 11.7639C214.87 7.94843 206.354 6.07434 197.969 6.32448C189.576 6.59 181.271 9.13945 174.039 13.4244C166.8 17.6902 160.491 23.6164 156.166 30.7895L154.834 33.0022L152.479 31.9305C145.196 28.6134 137.989 25.2866 130.51 22.9565C123.061 20.6014 115.326 19.2372 107.67 19.7625C100.151 20.2589 92.7066 23.1951 86.8169 27.9034C83.8922 30.2796 81.3697 33.1215 79.5476 36.3252C77.7197 39.5192 76.6883 43.1096 76.6191 46.7115L76.5479 50.4154L72.9767 48.9473C66.4887 46.2786 59.6292 44.6296 52.8352 43.9485C49.4334 43.6176 46.0373 43.5983 42.7182 43.9062C39.3953 44.1544 36.1551 44.7778 33.0303 45.6533C29.8844 46.5845 26.9713 47.7659 24.266 49.3803C21.5511 51.0042 19.0555 53.0168 16.8063 55.2699C12.3962 59.8089 8.96358 65.562 8.15161 71.7211C7.73408 74.7862 7.9515 77.8705 8.7654 80.851C9.62933 83.818 11.0936 86.6406 13.0677 89.1516C16.9948 94.1908 22.6267 98.0968 28.7973 100.527C34.9583 102.934 41.8543 103.94 48.7753 104.154C55.7329 104.321 62.8309 103.935 70.0194 103.419L72.1763 103.265L73.0961 105.074C77.3445 113.417 83.9095 120.667 91.8369 125.95C99.7738 131.157 109.138 134.52 118.615 134.655C128.099 134.815 137.311 132.128 145.679 128.205C153.999 124.136 161.624 118.431 167.202 111.002L169.169 108.381L171.941 109.907C179.817 114.242 187.657 118.427 195.81 121.557C203.935 124.671 212.452 126.687 220.948 126.26C229.214 125.894 237.448 122.323 243.609 116.72C246.687 113.926 249.254 110.575 250.805 106.848C252.388 103.146 252.885 99.0857 252.159 95.2414L251.359 90.9987L255.9 91.6279C262.234 92.5072 268.626 92.8651 274.887 92.538C281.119 92.0993 287.251 91.0795 292.702 88.9014C295.375 87.7335 297.907 86.3732 300.052 84.5837C302.102 82.7289 304.033 80.7028 305.236 78.1688C307.976 73.3489 308.305 67.4938 306.873 61.8793C306.19 59.0585 304.924 56.3398 303.437 53.7634C301.93 51.1908 300.118 48.7511 298.003 46.5999C295.898 44.4488 293.589 42.4438 291.011 40.8988C288.406 39.2979 285.593 37.9318 282.683 36.7908C279.765 35.6633 276.721 34.7878 273.625 34.0663C270.533 33.3063 267.366 32.7483 264.164 32.3096C257.762 31.4129 251.224 31.0397 244.657 30.5798L244.732 27.1472C251.328 26.9952 257.972 26.9567 264.674 27.4396C271.368 27.8707 278.144 28.9501 284.711 31.1339C287.99 32.2499 291.192 33.616 294.28 35.3246C297.436 37.0352 300.26 39.2537 302.865 41.6838C305.471 44.1197 307.783 46.8847 309.677 49.9498C311.572 53.0034 313.209 56.2782 314.202 59.8378C315.22 63.3762 315.722 67.134 315.499 70.936C315.305 74.7342 314.156 78.5459 312.405 81.9054C310.797 85.363 308.203 88.3184 305.419 90.8717C302.533 93.3519 299.271 95.2452 295.892 96.6633C289.098 99.4148 281.981 100.292 275.085 100.279C268.172 100.217 261.389 99.3378 254.759 97.9332L258.499 94.3197C259.111 99.4167 258.163 104.614 256.119 109.153C254.058 113.701 251.013 117.653 247.447 120.924C243.866 124.195 239.751 126.808 235.331 128.721C230.923 130.647 226.174 131.915 221.299 132.244C211.728 132.904 202.254 130.926 193.509 127.826C184.721 124.728 176.517 120.566 168.466 116.474L173.205 115.379C167.077 124.011 158.703 131.086 149.052 135.419C139.451 139.902 128.599 141.305 118.251 140.15C107.897 138.978 97.9093 135.655 89.1393 130.166C80.3538 124.757 72.7382 117.236 67.495 108.119L70.5716 109.772C63.3928 110.503 56.0831 111.323 48.6079 111.163C41.1385 111.017 33.5133 110.078 26.167 107.329C18.9151 104.562 12.1711 100.098 7.12607 93.8022C2.05989 87.5796 -0.699284 79.0519 0.153096 70.7975C0.936208 62.5335 4.80174 54.9679 10.2046 49.0416C12.9003 46.0496 16.0616 43.479 19.5443 41.4029C23.0577 39.346 26.9232 37.8779 30.7464 36.9794C38.4775 35.0841 46.4452 35.3497 53.8819 36.862C61.3628 38.332 68.3878 41.0469 75.0856 44.214L71.4432 46.4498C71.7607 42.0032 73.2115 37.7028 75.4165 33.947C77.6215 30.1777 80.5828 26.9509 83.9249 24.2995C90.6112 18.9832 98.779 15.743 107.295 14.9426C115.719 14.1941 124.131 15.5602 132.047 17.8422C139.984 20.153 147.553 23.297 154.89 26.6642L151.203 27.8033C156.044 19.7394 162.979 13.0069 171.091 8.35634C179.205 3.71731 188.456 1.02356 197.84 0.869632C207.231 0.696462 216.5 3.22475 224.645 7.59247C232.787 11.9814 239.837 18.4137 244.721 26.2121L241.867 28.1208Z" fill="#005948"/>
<path d="M27.1452 59.3912C23.0969 61.7906 20.5513 66.2391 19.3968 70.8108C18.2597 75.3998 18.2789 80.4602 20.5089 84.3488C22.687 88.2682 26.5987 90.9851 30.7644 92.7322C35.009 94.4946 39.6923 95.3682 44.4602 96.7959C44.8989 96.9286 45.1472 97.3904 45.0182 97.8291C44.9163 98.1639 44.6219 98.389 44.2909 98.4179C39.319 98.8316 34.149 98.2948 29.2906 96.2706C24.4495 94.2849 20.0606 90.6022 17.8902 85.6187C15.7602 80.5641 16.3221 75.1362 17.7517 70.3529C19.1832 65.531 21.9328 60.9055 26.2793 58.0097C26.6545 57.7596 27.1606 57.8615 27.4107 58.2367C27.6609 58.6119 27.5589 59.118 27.1837 59.3662C27.1721 59.3739 27.1567 59.3854 27.1452 59.3912Z" fill="#005948"/>
<path d="M29.254 70.1338C28.5921 71.5942 28.4843 73.2739 28.7326 74.8536C28.9769 76.4449 29.6946 77.938 30.6316 79.1848C31.5745 80.4374 32.6462 81.4937 33.741 82.4558C34.8705 83.4101 35.921 84.2587 37.1775 85.5863L37.2236 85.6363C37.5681 86.0019 37.5507 86.5753 37.1871 86.9216C37.0543 87.0467 36.8965 87.1237 36.7291 87.1544C34.6742 87.5412 32.6635 86.6523 31.2147 85.34C29.7215 84.0374 28.6691 82.3153 28.0437 80.5124C27.4126 78.7018 27.1163 76.847 27.0316 75.0172C26.9451 73.1796 27.2144 71.3575 27.7205 69.5816L27.7243 69.5719C27.8475 69.1371 28.2996 68.887 28.7345 69.0101C29.1693 69.1332 29.4195 69.5854 29.2963 70.0203C29.2848 70.0568 29.2694 70.0992 29.254 70.1338Z" fill="#005948"/>
<path d="M138.31 36.4193C131.102 32.625 122.576 31.5686 114.664 32.9001C110.691 33.5254 106.856 34.6741 103.154 36.0691C99.4446 37.4987 95.9254 39.2131 92.1465 40.9294C91.7289 41.1237 91.2325 40.9448 91.0382 40.5253C90.8977 40.2252 90.9593 39.875 91.1575 39.6345C93.9532 36.3212 97.7648 34.0103 101.786 32.4883C105.817 30.9279 110.118 30.1871 114.381 30.0062C122.926 29.7253 131.371 31.4108 139.031 34.957C139.439 35.1455 139.618 35.6304 139.429 36.0383C139.241 36.4482 138.756 36.6271 138.348 36.4385C138.337 36.4328 138.321 36.4251 138.31 36.4193Z" fill="#005948"/>
<path d="M129.183 40.9822C125.502 39.7489 121.4 39.872 117.779 41.1035C115.96 41.698 114.232 42.4157 112.522 43.1295C110.81 43.8665 109.143 44.5649 107.04 44.944L107.015 44.9478C106.53 45.0344 106.067 44.7131 105.98 44.2282C105.94 44.0127 105.982 43.7991 106.084 43.624C107.219 41.6576 109.07 40.3992 111.042 39.593C113.02 38.7637 115.152 38.3481 117.267 38.2404C119.387 38.1288 121.475 38.2327 123.53 38.4136C125.589 38.5906 127.605 38.9773 129.623 39.4122C130.064 39.5064 130.345 39.9413 130.249 40.3819C130.154 40.8225 129.72 41.1035 129.279 41.0092C129.25 41.0015 129.212 40.9919 129.183 40.9822Z" fill="#005948"/>
</svg>
