<svg width="267" height="119" viewBox="0 0 267 119" fill="none" xmlns="http://www.w3.org/2000/svg">
<path d="M68.7106 26.7005C76.1569 15.56 89.5083 8.62739 102.904 8.94487C116.3 9.26427 129.307 16.8241 136.214 28.3052C147.268 23.2487 159.011 18.3345 171.127 19.3139C183.241 20.2913 195.606 29.1865 196.219 41.3257C207.243 36.4134 220.105 34.1238 231.377 38.4376C242.648 42.7515 251.282 55.0985 248.478 66.8374C246.219 76.2887 237.372 83.0307 228.006 85.6148C218.639 88.197 208.714 87.3773 199.032 86.5365C191.879 99.6916 177.711 108.756 162.771 109.741C147.826 110.728 132.593 103.605 123.771 91.5026C111.705 97.8926 98.8364 104.463 85.2098 103.596C71.5833 102.73 57.6835 91.1466 59.6461 77.6355C44.5496 80.3716 25.1238 79.5327 18.8204 65.5444C13.7831 54.3692 21.239 40.7561 31.9063 34.7144C42.5735 28.6747 55.4015 28.2514 67.6562 27.9801" fill="white"/>
<path d="M60.0066 22.0649C64.0934 15.4595 70.0254 9.99885 76.8964 6.26993C83.7674 2.56217 91.6005 0.389852 99.5566 0.530312C107.505 0.651531 115.336 2.92006 122.211 6.83562C129.071 10.7704 135.012 16.4234 139.068 23.3021L135.355 22.1515C141.527 19.3616 147.892 16.7178 154.586 14.786C161.263 12.8792 168.369 11.7344 175.495 12.379C182.717 13.0755 189.622 15.8174 195.294 20.3236C200.955 24.7375 205.375 31.4892 205.943 39.1664L202.302 36.9306C207.934 34.2349 213.837 31.8721 220.166 30.5753C226.452 29.238 233.228 28.9455 239.832 30.5445C243.093 31.2968 246.41 32.5513 249.424 34.3119C252.404 36.0898 255.107 38.289 257.405 40.8577C262.015 45.9393 265.292 52.4274 265.946 59.5273C266.658 66.6215 264.268 73.9504 259.935 79.2667C255.613 84.6466 249.866 88.4351 243.699 90.7806C237.444 93.1146 230.992 93.8957 224.685 94.0131C218.374 94.1459 212.231 93.4243 206.212 92.7932L209.289 91.1404C204.811 98.8465 198.342 105.175 190.906 109.722C183.484 114.345 175.059 117.129 166.308 118.195C157.563 119.244 148.331 118.17 140.18 114.366C131.968 110.724 124.916 104.653 119.723 97.3303L124.453 98.4232C117.695 101.85 110.78 105.325 103.364 107.924C95.9816 110.524 87.96 112.177 79.8499 111.605C75.6996 111.32 71.6686 110.229 67.9281 108.594C64.1761 106.968 60.6839 104.752 57.6419 101.971C54.6114 99.189 52.0196 95.8275 50.2514 91.9466C48.5024 88.0734 47.6692 83.6249 48.1733 79.2514L51.9138 82.8629C46.33 84.0847 40.6116 84.8621 34.7623 84.9467C28.9284 84.9929 22.879 84.2694 17.0759 81.9162C14.184 80.7079 11.3921 79.0763 8.9119 76.9405C6.51638 74.7451 4.28826 72.1918 2.90675 69.2171C1.40595 66.3233 0.418882 63.033 0.257257 59.7678C0.0706187 56.4969 0.509314 53.272 1.38863 50.2473C2.24486 47.2034 3.64946 44.4115 5.26956 41.814C6.89158 39.2068 8.85995 36.8536 11.0804 34.7814C13.3027 32.7149 15.7078 30.8312 18.3978 29.3746C21.0222 27.9181 23.7506 26.7867 26.5329 25.8612C32.1089 24.0564 37.8312 23.1867 43.467 22.8557C49.1104 22.4844 54.6884 22.5479 60.2221 22.7268L60.2971 26.1575C54.7942 26.5924 49.3182 26.9406 43.9749 27.7237C38.6336 28.4972 33.427 29.6998 28.5801 31.5739C26.1769 32.5379 23.8603 33.7 21.7111 35.018C19.5926 36.2918 17.6974 37.9484 15.9676 39.7205C14.2282 41.4965 12.7409 43.5091 11.5114 45.6276C10.2953 47.7479 9.26401 49.9837 8.71756 52.2888C7.57079 56.8874 7.85749 61.5977 10.0779 65.4805C11.0534 67.5297 12.6197 69.1536 14.2782 70.6525C16.0176 72.0975 18.0822 73.1962 20.2641 74.1563C24.7261 75.9361 29.7885 76.802 34.9605 77.2041C40.1575 77.512 45.4853 77.2541 50.7728 76.5595L55.3926 75.9515L54.5133 80.1711C53.1991 86.4745 56.3315 93.2415 61.4824 97.7671C66.564 102.395 73.3888 105.346 80.1982 105.623C87.2366 105.962 94.3 104.269 101.061 101.654C107.85 99.0312 114.386 95.5081 120.984 91.8716L123.745 90.3496L125.713 92.9645C130.333 99.1082 136.696 103.751 143.553 107.155C150.47 110.399 158.061 112.754 165.944 112.7C173.818 112.671 181.622 109.847 188.208 105.504C194.785 101.084 200.207 95.0271 203.686 88.0946L204.592 86.2917L206.764 86.4417C212.792 86.8554 218.726 87.144 224.518 87.0036C230.279 86.8189 235.999 85.9703 241.069 83.9789C246.156 81.9682 250.788 78.7395 253.991 74.6162C255.602 72.5612 256.789 70.2619 257.486 67.8529C258.136 65.4324 258.297 62.9388 257.947 60.4509C257.264 55.4578 254.42 50.7803 250.803 47.086C248.954 45.2562 246.914 43.613 244.702 42.2873C242.497 40.9712 240.132 40.0034 237.548 39.2203C232.439 37.7464 226.869 37.1923 221.212 37.6618C215.571 38.1697 209.833 39.4666 204.409 41.6639L200.784 43.1339L200.769 39.4281C200.742 33.4557 197.244 27.818 192.401 23.9294C187.527 20.0292 181.343 17.5914 175.12 17.2008C168.763 16.7775 162.331 17.9223 156.125 19.9022C149.893 21.8648 143.867 24.6452 137.781 27.4601L135.439 28.5434L134.067 26.3095C126.827 14.5167 113.381 6.45272 99.4277 5.98516C92.4759 5.76773 85.3991 7.28586 79.063 10.4395C72.7211 13.5661 67.0565 18.1802 62.8601 23.9737L60.0066 22.0649Z" fill="#005948"/>
<path d="M243.462 48.7692C247.134 51.2359 249.454 55.1303 250.678 59.1921C251.898 63.2192 252.417 67.8005 250.637 72.1336C248.819 76.3955 245.104 79.5626 240.988 81.2462C236.865 82.9644 232.491 83.3877 228.304 82.8913C227.846 82.8394 227.519 82.4238 227.573 81.9639C227.614 81.6349 227.841 81.3713 228.137 81.2712C232.118 79.9243 236.003 79.1643 239.512 77.7097C242.951 76.2628 246.195 74.0635 248.021 70.8618C249.899 67.6966 249.962 63.4828 249.033 59.65C248.086 55.8364 245.968 52.1229 242.599 50.1507C242.21 49.9236 242.077 49.4253 242.302 49.0366C242.529 48.648 243.028 48.5152 243.418 48.7403C243.432 48.7499 243.449 48.7615 243.462 48.7692Z" fill="#005948"/>
<path d="M242.312 58.5389C242.724 60.0551 242.963 61.5905 242.903 63.1529C242.843 64.7075 242.63 66.293 242.126 67.8554C241.627 69.412 240.748 70.9089 239.463 72.0307C238.222 73.1582 236.457 73.9067 234.67 73.4449C234.167 73.3141 233.863 72.8003 233.994 72.2962C234.027 72.1673 234.087 72.0499 234.165 71.9518L234.223 71.8768C235.212 70.6261 236.016 69.918 236.936 69.1465C237.821 68.3672 238.724 67.5341 239.54 66.5278C240.348 65.5272 240.985 64.3073 241.204 62.9893C241.423 61.6867 241.346 60.2898 240.779 59.0911C240.586 58.6832 240.757 58.1944 241.167 58.0001C241.575 57.8077 242.064 57.9809 242.258 58.3907C242.278 58.433 242.295 58.4773 242.306 58.5215L242.312 58.5389Z" fill="#005948"/>
<path d="M23.5307 40.1673C21.1044 42.8938 19.2168 46.1417 18.351 49.6262C17.4467 53.0819 17.8623 56.8262 19.4477 59.7951C21.0082 62.8044 23.7443 64.692 26.9133 65.8657C30.0977 67.0606 33.6746 67.6397 37.3015 68.9039C37.7402 69.0539 37.973 69.5292 37.8249 69.9679C37.721 70.2719 37.4516 70.4778 37.1572 70.5259C33.3571 71.105 29.405 70.8934 25.5587 69.4522C23.65 68.7422 21.7874 67.6724 20.2385 66.2063C18.7012 64.7439 17.4909 62.9083 16.7848 60.9669C15.3821 57.0571 15.5495 52.8857 16.704 49.1683C17.8411 45.4182 19.9442 42.1376 22.2781 39.1244C22.5552 38.7685 23.067 38.7031 23.4229 38.9782C23.7789 39.2553 23.8443 39.7671 23.5692 40.123C23.5576 40.1365 23.5422 40.1538 23.5307 40.1673Z" fill="#005948"/>
<path d="M29.0784 46.2241C28.2568 47.5402 28.3857 49.2969 29.0514 50.7361C29.7114 52.2004 30.9621 53.3798 32.3205 54.0263C33.7405 54.7171 35.249 55.1154 36.821 55.5541C38.3968 55.9755 40.0496 56.4392 41.6697 57.6244C42.0796 57.9246 42.1681 58.498 41.8679 58.9078C41.7525 59.0656 41.5928 59.1772 41.4215 59.2368C39.5263 59.8775 37.656 59.7775 35.7973 59.2503C33.9463 58.7423 32.1011 57.7803 30.6253 56.3891C29.0957 54.9518 28.0759 53.2009 27.4563 51.3441C26.8368 49.4893 26.7983 47.3805 27.6237 45.4891L27.6353 45.4621C27.8161 45.0504 28.2972 44.8599 28.7128 45.0407C29.1265 45.2216 29.315 45.7026 29.1342 46.1182C29.1188 46.1529 29.0976 46.1914 29.0784 46.2241Z" fill="#005948"/>
<path d="M106.482 91.5962C107.087 91.45 107.691 91.8502 107.889 92.21C108.122 92.5775 108.218 92.9642 108.16 93.4049C107.958 94.3669 107.281 94.6825 106.811 94.9211C105.855 95.302 105.084 95.5618 104.204 95.8773C102.492 96.4642 100.789 97.1049 99.0381 97.6244C95.5516 98.6942 91.9535 99.6332 88.1707 99.9276C84.3956 100.21 80.4012 99.6871 76.8589 97.9611C73.3378 96.3237 70.1168 93.2798 69.1567 89.4085C69.0451 88.9602 69.3202 88.5061 69.7685 88.3926C70.0725 88.3175 70.3766 88.4195 70.5786 88.6292L70.5998 88.6523C73.0107 91.1941 75.5582 93.0508 78.5155 94.5035C81.4729 95.9043 84.7304 96.8278 88.1534 97.0164C91.586 97.2589 95.1341 96.849 98.5782 95.9812C100.296 95.531 102.02 95.0519 103.708 94.4516C104.522 94.161 105.467 93.8532 106.175 93.553C106.496 93.4241 106.667 93.1528 106.617 93.1932C106.617 93.1932 106.6 93.1085 106.583 93.1028C106.536 93.0874 106.684 93.2221 106.838 93.1855C106.398 93.2836 105.961 93.0085 105.865 92.5679C105.767 92.1292 106.042 91.6943 106.482 91.5962Z" fill="#005948"/>
<path d="M92.9633 88.657C92.8151 88.5512 92.54 88.0683 92.7459 87.6276C92.9306 87.2563 93.1384 87.1928 93.2711 87.1255C93.5636 87.0293 93.7868 86.9696 94.1986 87.1408C94.3929 87.2217 94.6238 87.466 94.6873 87.6988C94.7566 87.949 94.7354 88.0163 94.7219 88.1876C94.6777 88.4839 94.5257 88.7013 94.3967 88.836C93.8349 89.3574 93.4943 89.3613 93.1326 89.5498C92.3918 89.8481 91.6433 90.1367 90.8641 90.331C89.3152 90.7428 87.6932 91.0218 86.0115 91.0391C84.3337 91.0603 82.6039 90.7274 81.0723 89.9347C79.5484 89.1746 78.1804 87.8739 77.7955 86.046C77.6897 85.54 78.011 85.0436 78.519 84.9358C78.6614 84.907 78.8057 84.9108 78.9385 84.9435L79.0154 84.9647C80.6317 85.3726 81.6976 85.9133 82.8348 86.529C83.97 87.112 85.1399 87.7008 86.429 88.1606C87.7124 88.6205 89.1401 88.8495 90.5293 88.657C91.2181 88.5416 91.9223 88.4319 92.5669 88.1491C92.8767 88.024 93.3115 87.8547 93.2769 87.8239C93.2769 87.8239 93.223 87.8701 93.2038 87.9778C93.1999 88.0567 93.1826 88.0279 93.2211 88.1895C93.2577 88.3319 93.4174 88.5012 93.527 88.5435C93.7676 88.6359 93.7868 88.6012 93.9061 88.5743C93.9561 88.5435 94.0793 88.5358 94.2255 88.253C94.389 87.8989 94.1659 87.5141 94.0831 87.4718C94.4102 87.7816 94.4256 88.2972 94.1158 88.6243C93.8041 88.9514 93.2904 88.9668 92.9633 88.657Z" fill="#005948"/>
<path d="M148.801 29.4335C155.256 26.4666 162.331 25.0408 169.548 25.1659C173.146 25.2832 176.791 25.8701 180.196 27.19C183.594 28.4753 186.813 30.461 189.08 33.3684C189.365 33.7359 189.299 34.265 188.93 34.5517C188.685 34.7422 188.368 34.7768 188.101 34.669L188.089 34.6633C184.839 33.353 181.913 31.9638 178.826 30.7727C175.75 29.6163 172.573 28.6197 169.265 28.0617C162.681 26.8341 155.527 27.7076 149.52 30.8959C149.124 31.1056 148.629 30.9555 148.42 30.5572C148.206 30.1589 148.36 29.6664 148.756 29.4547C148.77 29.447 148.787 29.4393 148.801 29.4335Z" fill="#005948"/>
<path d="M156.711 33.1607C158.42 32.8124 160.115 32.4757 161.85 32.3122C163.582 32.1467 165.346 32.0197 167.147 32.0736C168.944 32.1255 170.767 32.4469 172.446 33.153C174.12 33.8341 175.687 34.9347 176.558 36.7126C176.785 37.1686 176.597 37.7208 176.141 37.946C175.981 38.0248 175.808 38.0518 175.642 38.0364L175.604 38.0325C173.762 37.8421 172.381 37.3014 170.965 36.6895C169.552 36.1007 168.136 35.4754 166.636 34.9366C163.651 33.8187 160.209 33.6725 157.152 34.7308L157.142 34.7327C156.715 34.8808 156.251 34.6538 156.103 34.2286C155.955 33.8014 156.182 33.3358 156.607 33.1896C156.64 33.178 156.678 33.1665 156.711 33.1607Z" fill="#005948"/>
</svg>
