<svg width="375" height="166" viewBox="0 0 375 166" fill="none" xmlns="http://www.w3.org/2000/svg">
<path d="M96.2506 36.0425C106.827 20.2167 125.793 10.3672 144.825 10.8193C163.856 11.2715 182.333 22.0119 192.148 38.3225C207.851 31.1398 224.533 24.1573 241.744 25.5484C258.959 26.9376 276.518 39.5732 277.392 56.819C293.052 49.8422 311.324 46.5866 327.338 52.7168C343.35 58.8451 355.615 76.3872 351.632 93.0634C348.422 106.49 335.856 116.066 322.547 119.737C309.24 123.407 295.142 122.241 281.39 121.046C271.225 139.735 251.101 152.613 229.872 154.015C208.644 155.416 187.003 145.293 174.469 128.103C157.326 137.179 139.047 146.515 119.688 145.282C100.33 144.05 80.5806 127.597 83.3706 108.4C61.9245 112.287 34.3289 111.098 25.3741 91.2278C18.2165 75.3501 28.8087 56.009 43.9629 47.4274C59.1172 38.8478 77.3405 38.2475 94.7517 37.8588" fill="white"/>
<path d="M84.4849 29.8599C90.363 20.6876 98.6675 13.0566 108.336 7.89615C117.984 2.74532 128.953 -0.204341 140.044 0.0111595C151.126 0.205494 162.055 3.40143 171.635 8.89092C181.214 14.3939 189.414 22.3366 195.133 31.859L191.446 30.718C200.18 26.712 209.161 22.9504 218.572 20.1951C227.956 17.4686 237.909 15.8427 247.872 16.7124C257.914 17.6533 267.589 21.4361 275.501 27.701C279.437 30.8488 282.914 34.6682 285.493 39.1129C288.067 43.5422 289.766 48.5891 290.118 53.8073L286.476 51.5715C294.434 47.8464 302.786 44.714 311.63 43.04C320.429 41.3218 329.803 41.0832 338.871 43.3286C343.36 44.4042 347.874 46.1263 351.98 48.5333C356.057 50.9635 359.755 53.9728 362.926 57.465C369.266 64.3918 373.83 73.2292 374.764 82.871C375.785 92.4992 372.587 102.445 366.655 109.743C360.754 117.12 352.827 122.384 344.291 125.648C335.652 128.89 326.642 130.014 317.798 130.194C308.942 130.387 300.256 129.452 291.704 128.601L294.78 126.948C288.631 137.733 279.661 146.667 269.276 153.095C258.946 159.683 247.053 163.537 234.821 164.869C222.58 166.146 209.81 164.353 198.492 159.066C187.123 153.93 177.219 145.635 169.973 135.468L174.714 136.563C165.14 141.46 155.4 146.422 144.994 150.115C134.639 153.807 123.442 156.166 112.148 155.402C106.41 155.023 100.813 153.542 95.6139 151.277C90.4034 149.022 85.5508 145.943 81.3332 142.091C77.1309 138.239 73.5483 133.59 71.1431 128.249C68.7534 122.923 67.6682 116.843 68.409 110.892L72.1494 114.503C64.2779 116.127 56.2351 117.124 48.0654 117.16C43.9786 117.089 39.8571 116.945 35.7492 116.195C31.6296 115.617 27.5486 114.394 23.5657 112.852C21.6089 111.944 19.6097 111.15 17.7838 109.916C15.8731 108.868 14.1568 107.463 12.4405 106.08C9.19838 103.101 6.18523 99.6665 4.31692 95.6374C2.28121 91.7238 0.95358 87.3022 0.730384 82.8844C0.451388 78.4647 1.01707 74.0778 2.18886 69.9352C3.33178 65.7676 5.23664 61.9174 7.44552 58.3213C9.65055 54.7116 12.3635 51.4503 15.419 48.5737C18.4745 45.7068 21.7878 43.0842 25.4937 41.0639C29.1264 39.0398 32.9015 37.41 36.7728 36.0805C44.5289 33.4752 52.5485 32.1592 60.497 31.605C68.4494 30.9893 76.3517 30.9951 84.2059 31.1182L84.2829 34.5508C76.4575 35.0395 68.6572 35.4455 61.005 36.473C57.1779 36.9771 53.3855 37.6217 49.6778 38.5106C45.9642 39.3611 42.3123 40.3982 38.8008 41.7374C35.3008 43.0919 31.9125 44.7197 28.7627 46.6361C25.636 48.4929 22.8384 50.9038 20.2832 53.4898C17.7145 56.0797 15.5133 59.0197 13.67 62.1252C11.8498 65.2327 10.2951 68.5229 9.44082 71.9555C7.63986 78.7745 8.01506 86.013 11.4073 91.9431C12.8888 95.0486 15.2612 97.55 17.7818 99.8204C20.414 102.014 23.508 103.672 26.7559 105.091C33.3767 107.74 40.7749 108.941 48.2635 109.42C55.783 109.774 63.4351 109.297 71.0065 108.2L75.5224 107.546L74.747 111.811C73.8946 116.512 74.5276 121.455 76.4594 125.946C78.3528 130.462 81.4583 134.512 85.1718 137.887C92.6085 144.644 102.51 148.949 112.498 149.42C122.719 149.951 132.955 147.552 142.693 143.844C152.466 140.119 161.84 135.136 171.235 129.996L174.021 128.472L175.976 131.091C182.67 140.055 191.827 146.982 201.865 151.854C211.949 156.582 223.08 159.656 234.458 159.373C245.846 159.148 257.01 155.035 266.581 148.879C276.103 142.576 284.025 133.914 289.179 123.901L290.112 122.09L292.256 122.25C300.818 122.883 309.292 123.383 317.629 123.185C325.926 122.939 334.207 121.746 341.661 118.846C349.113 115.919 355.928 111.213 360.714 105.091C363.117 102.041 364.912 98.5986 365.974 94.9697C366.981 91.3293 367.265 87.5465 366.765 83.7965C365.803 76.2597 361.672 69.2329 356.323 63.6934C353.602 60.938 350.568 58.4867 347.258 56.5107C343.959 54.5462 340.399 53.1088 336.585 52.0044C332.795 50.9519 328.868 50.2342 324.856 49.961C320.85 49.6281 316.761 49.6916 312.678 50.1265C304.518 51.0135 296.333 53.0781 288.585 56.3048L285.035 57.7825L284.942 54.069C284.833 49.6993 283.574 45.3489 281.346 41.4988C279.128 37.6371 276.07 34.2295 272.543 31.3857C265.474 25.7153 256.556 22.1365 247.497 21.5323C238.304 20.8858 229.026 22.5117 220.108 25.3093C211.157 28.0839 202.537 32.0283 193.855 35.9843L191.502 37.0579L190.168 34.8433C184.97 26.2137 177.392 19.0771 168.69 13.959C159.989 8.82165 150.007 5.77001 139.915 5.466C129.828 5.17354 119.615 7.469 110.501 12.0657C101.398 16.647 93.23 23.3256 87.3383 31.7666L84.4849 29.8599Z" fill="#005948"/>
<path d="M31.8021 54.9553C28.3772 58.8901 25.6469 63.5099 24.3597 68.5126C23.0609 73.4826 23.4784 78.8874 25.7066 83.3032C27.8827 87.7768 31.9407 90.738 36.5855 92.435C41.2476 94.186 46.41 94.9306 51.5974 96.3391C52.0399 96.4545 52.3016 96.9086 52.1861 97.3492C52.0938 97.6956 51.7898 97.9322 51.453 97.963C46.0925 98.3959 40.5549 98.0188 35.2309 96.0216C32.5852 95.0403 30.0204 93.5857 27.8808 91.6C25.7489 89.6258 24.0634 87.138 23.0417 84.475C21.0213 79.1221 21.0887 73.2786 22.7126 68.0566C24.2731 62.7865 27.2112 58.1301 30.5495 53.9125C30.8285 53.5584 31.3423 53.4988 31.6944 53.7778C32.0484 54.0568 32.1081 54.5705 31.8291 54.9226C31.8214 54.9322 31.8098 54.9457 31.8021 54.9553Z" fill="#005948"/>
<path d="M39.6387 63.6224C38.4708 65.612 38.6363 68.1845 39.5714 70.3145C40.4988 72.4791 42.2305 74.2743 44.1931 75.3576C46.2076 76.5159 48.4435 77.1585 50.7293 77.8108C53.0248 78.44 55.4203 79.0076 57.7812 80.3121C58.1987 80.545 58.3526 81.0741 58.1179 81.4935C57.9928 81.7225 57.7696 81.8745 57.531 81.9226C54.8969 82.4556 52.2859 82.2228 49.7057 81.5032C47.1274 80.8143 44.5991 79.5233 42.498 77.7223C40.3622 75.8463 38.8653 73.4777 37.9763 70.9225C37.0874 68.3769 37.0123 65.4523 38.1841 62.8874L38.1918 62.8701C38.3804 62.4603 38.8653 62.2794 39.2751 62.466C39.683 62.6546 39.8639 63.1395 39.6791 63.5474C39.6657 63.5743 39.6522 63.5993 39.6387 63.6224Z" fill="#005948"/>
<path d="M149.982 128.569C150.683 128.398 151.385 128.85 151.639 129.289C151.927 129.737 152.047 130.226 151.974 130.761C151.737 131.921 150.881 132.358 150.244 132.671C148.935 133.195 147.804 133.574 146.569 134.018C144.141 134.853 141.716 135.729 139.236 136.454C134.301 137.966 129.188 139.144 123.891 139.456C118.602 139.762 113.082 138.932 108.173 136.55C103.288 134.263 98.8567 130.187 97.1866 124.969C97.0461 124.534 97.2866 124.069 97.7215 123.928C98.0582 123.822 98.4084 123.94 98.6181 124.198L98.6297 124.211C101.752 128.102 105.508 130.99 109.83 133.093C114.155 135.15 118.937 136.379 123.874 136.547C128.827 136.791 133.866 136.048 138.776 134.811C141.224 134.157 143.669 133.441 146.072 132.591C147.242 132.171 148.547 131.748 149.605 131.301C150.092 131.094 150.438 130.695 150.419 130.547C150.434 130.447 150.382 130.274 150.319 130.191C150.227 130.099 150.282 130.176 150.34 130.158C149.899 130.257 149.463 129.981 149.366 129.541C149.268 129.102 149.543 128.667 149.982 128.569Z" fill="#005948"/>
<path d="M130.939 123.81C130.775 123.691 130.492 123.188 130.706 122.729C130.898 122.34 131.123 122.263 131.275 122.188C131.602 122.078 131.866 122.013 132.316 122.201C132.53 122.288 132.774 122.55 132.842 122.802C132.918 123.069 132.897 123.158 132.884 123.348C132.83 123.683 132.661 123.937 132.503 124.1C131.831 124.739 131.327 124.78 130.823 125.034C129.794 125.453 128.739 125.826 127.65 126.086C125.484 126.623 123.219 126.913 120.914 126.838C118.613 126.767 116.273 126.24 114.182 125.157C112.098 124.108 110.218 122.421 109.412 120.121C109.252 119.663 109.492 119.161 109.952 119C110.168 118.925 110.395 118.938 110.591 119.023L110.632 119.04C112.667 119.921 114.245 120.847 115.946 121.753C117.641 122.625 119.419 123.408 121.333 123.96C123.24 124.512 125.307 124.73 127.317 124.41C128.312 124.231 129.322 124.037 130.257 123.633C130.71 123.44 131.306 123.236 131.383 123.088C131.41 123.058 131.379 123.071 131.366 123.14C131.362 123.2 131.345 123.15 131.377 123.292C131.408 123.414 131.552 123.569 131.645 123.606C131.851 123.679 131.826 123.65 131.91 123.637C131.941 123.614 132.047 123.619 132.183 123.352C132.339 123.019 132.128 122.653 132.058 122.627C132.385 122.934 132.399 123.45 132.091 123.777C131.779 124.104 131.266 124.12 130.939 123.81Z" fill="#005948"/>
<path d="M210.176 40.2327C219.255 35.9843 229.321 34.0371 239.439 34.4719C244.492 34.7317 249.57 35.6514 254.34 37.4928C259.1 39.2976 263.612 41.9933 267.037 45.7895C267.343 46.1282 267.316 46.6515 266.977 46.9594C266.717 47.1941 266.34 47.2288 266.046 47.0845C261.638 44.8852 257.42 42.786 252.97 41.0736C248.529 39.3977 243.917 38.0681 239.158 37.3677C229.673 35.8785 219.525 37.1984 210.897 41.695C210.497 41.9028 210.004 41.747 209.797 41.3487C209.589 40.9485 209.743 40.4578 210.143 40.2481L210.176 40.2327Z" fill="#005948"/>
<path d="M221.356 45.5492C223.741 45.0124 226.137 44.5641 228.579 44.3717C231.017 44.1754 233.487 44.0985 235.983 44.2755C238.472 44.4525 240.974 44.9739 243.304 45.9514C245.628 46.9057 247.816 48.3507 249.259 50.5404C249.524 50.9425 249.413 51.4813 249.013 51.7468C248.801 51.8853 248.553 51.9219 248.326 51.8661L248.305 51.8603C245.892 51.2581 243.891 50.373 241.824 49.4879C239.76 48.6278 237.666 47.8004 235.471 47.1405C231.097 45.7744 226.212 45.6782 221.796 47.1174C221.369 47.2617 220.905 47.0327 220.761 46.6037C220.619 46.1784 220.848 45.7147 221.275 45.5723C221.3 45.5627 221.332 45.5531 221.356 45.5492" fill="#005948"/>
</svg>
