<svg width="450" height="199" viewBox="0 0 450 199" fill="none" xmlns="http://www.w3.org/2000/svg">
<path d="M114.827 43.2966C127.532 24.2861 150.315 12.4544 173.176 12.9976C196.037 13.5407 218.233 26.4425 230.023 46.0355C248.885 37.4074 268.924 29.0196 289.599 30.6907C310.279 32.3595 331.372 47.5379 332.421 68.2542C351.233 59.8734 373.181 55.9627 392.418 63.3265C411.653 70.6881 426.385 91.7603 421.601 111.793C417.746 127.921 402.65 139.424 386.663 143.834C370.678 148.242 353.743 146.841 337.224 145.406C325.013 167.856 300.839 183.325 275.338 185.01C249.838 186.693 223.842 174.533 208.786 153.884C188.192 164.786 166.235 176.001 142.981 174.519C119.727 173.04 96.0033 153.276 99.3547 130.216C73.5927 134.885 40.4438 133.456 29.687 109.588C21.0889 90.5145 33.8127 67.2812 52.0166 56.9727C70.2205 46.6665 92.111 45.9454 113.026 45.4785" fill="white"/>
<path d="M100.694 35.8689C107.755 24.8509 117.73 15.6842 129.345 9.48521C140.934 3.29782 154.111 -0.245431 167.433 0.013437C180.746 0.24688 193.874 4.08597 205.382 10.6802C216.888 17.2905 226.739 26.8316 233.608 38.2703L229.18 36.8997C239.671 32.0876 250.46 27.569 261.765 24.2591C273.037 20.984 284.993 19.031 296.961 20.0757C309.024 21.2059 320.646 25.75 330.15 33.2756C334.879 37.0569 339.055 41.6449 342.152 46.984C345.245 52.3047 347.286 58.3673 347.709 64.6355L343.333 61.9498C352.893 57.4751 362.926 53.7123 373.549 51.7014C384.119 49.6374 395.38 49.3508 406.273 52.0481C411.665 53.3401 417.088 55.4088 422.02 58.3002C426.918 61.2194 431.36 64.8343 435.169 69.0294C442.785 77.3501 448.267 87.966 449.388 99.548C450.616 111.114 446.774 123.061 439.648 131.828C432.56 140.689 423.037 147.013 412.784 150.933C402.406 154.828 391.582 156.178 380.959 156.395C370.32 156.626 359.887 155.503 349.613 154.481L353.309 152.496C345.922 165.451 335.147 176.182 322.673 183.904C310.263 191.818 295.977 196.448 281.284 198.047C266.579 199.582 251.239 197.428 237.644 191.076C223.986 184.907 212.09 174.943 203.386 162.73L209.081 164.045C197.579 169.928 185.88 175.888 173.38 180.324C160.94 184.759 147.491 187.593 133.923 186.675C127.031 186.22 120.308 184.44 114.062 181.72C107.803 179.011 101.974 175.313 96.9077 170.686C91.8598 166.058 87.5562 160.474 84.667 154.058C81.7964 147.66 80.4928 140.357 81.3826 133.208L85.8758 137.546C76.4202 139.497 66.7589 140.694 56.9451 140.738C52.0358 140.652 47.085 140.479 42.1503 139.578C37.2018 138.884 32.2995 137.414 27.5151 135.563C25.1645 134.472 22.763 133.517 20.5696 132.036C18.2744 130.776 16.2127 129.089 14.151 127.427C10.2565 123.849 6.63694 119.723 4.39265 114.884C1.94728 110.182 0.352473 104.871 0.0843603 99.5642C-0.250781 94.2551 0.428745 88.9853 1.83634 84.009C3.20926 79.0027 5.49746 74.3777 8.15085 70.0579C10.7996 65.7219 14.0586 61.8042 17.729 58.3488C21.3993 54.9049 25.3794 51.7546 29.831 49.3277C34.1948 46.8962 38.7296 44.9385 43.38 43.3414C52.6969 40.2119 62.3304 38.6309 71.8785 37.9653C81.4312 37.2256 90.9237 37.2326 100.359 37.3805L100.451 41.5039C91.0509 42.091 81.6808 42.5786 72.4887 43.8129C67.8915 44.4185 63.3359 45.1927 58.882 46.2606C54.4211 47.2822 50.0342 48.528 45.8161 50.1367C41.6118 51.7638 37.5416 53.7192 33.7579 56.0213C30.0021 58.2517 26.6414 61.1478 23.572 64.2542C20.4864 67.3652 17.8422 70.8969 15.628 74.6274C13.4415 78.3602 11.5739 82.3125 10.5477 86.4359C8.3843 94.6272 8.83501 103.322 12.9099 110.446C14.6896 114.176 17.5394 117.181 20.5673 119.908C23.7291 122.543 27.4457 124.536 31.3472 126.239C39.3005 129.422 48.1875 130.864 57.1831 131.44C66.2158 131.865 75.4079 131.292 84.5029 129.974L89.9276 129.188L88.9961 134.313C87.9722 139.959 88.7326 145.897 91.0532 151.291C93.3275 156.716 97.058 161.581 101.519 165.635C110.452 173.753 122.346 178.923 134.344 179.49C146.622 180.127 158.918 177.245 170.616 172.791C182.355 168.317 193.616 162.33 204.902 156.157L208.249 154.326L210.597 157.472C218.638 168.24 229.637 176.561 241.696 182.413C253.809 188.092 267.18 191.786 280.847 191.446C294.528 191.176 307.938 186.234 319.434 178.84C330.873 171.268 340.389 160.863 346.581 148.835L347.702 146.66L350.277 146.851C360.562 147.612 370.741 148.213 380.756 147.975C390.722 147.679 400.67 146.246 409.624 142.763C418.576 139.247 426.763 133.594 432.511 126.239C435.398 122.576 437.554 118.441 438.83 114.082C440.039 109.709 440.381 105.164 439.78 100.66C438.624 91.6063 433.662 83.1654 427.237 76.5111C423.968 73.2013 420.323 70.2567 416.348 67.883C412.384 65.5231 408.108 63.7965 403.527 62.4698C398.974 61.2055 394.256 60.3434 389.437 60.0152C384.625 59.6154 379.714 59.6916 374.809 60.214C365.007 61.2795 355.174 63.7596 345.867 67.6356L341.602 69.4107L341.491 64.9499C341.36 59.7009 339.848 54.475 337.171 49.8501C334.507 45.2112 330.834 41.1179 326.597 37.7018C318.105 30.8903 307.392 26.5913 296.511 25.8655C285.467 25.0889 274.322 27.042 263.609 30.4026C252.857 33.7355 242.502 38.4738 232.074 43.2258L229.247 44.5155L227.645 41.8552C221.4 31.4889 212.298 22.9163 201.844 16.7682C191.392 10.597 179.401 6.93121 167.278 6.56602C155.162 6.2147 142.894 8.9721 131.945 14.4938C121.01 19.9971 111.199 28.0197 104.121 38.1594L100.694 35.8689Z" fill="#005948"/>
<path d="M37.4087 66.0147C33.2946 70.7414 30.0148 76.2908 28.4685 82.3003C26.9084 88.2704 27.41 94.7629 30.0865 100.067C32.7006 105.441 37.5751 108.998 43.1547 111.037C48.755 113.14 54.9562 114.035 61.1876 115.727C61.7192 115.865 62.0335 116.411 61.8948 116.94C61.7839 117.356 61.4187 117.64 61.0142 117.677C54.5749 118.197 47.9229 117.744 41.5275 115.345C38.3494 114.166 35.2684 112.419 32.6983 110.034C30.1373 107.662 28.1126 104.674 26.8853 101.475C24.4584 95.0449 24.5393 88.0254 26.4901 81.7525C28.3645 75.4218 31.8939 69.8284 35.9041 64.762C36.2392 64.3367 36.8563 64.265 37.2793 64.6002C37.7046 64.9353 37.7762 65.5525 37.4411 65.9754C37.4318 65.987 37.418 66.0032 37.4087 66.0147Z" fill="#005948"/>
<path d="M46.8219 76.427C45.419 78.8169 45.6177 81.9071 46.741 84.4657C47.8551 87.066 49.9353 89.2224 52.2928 90.5237C54.7128 91.9151 57.3985 92.6871 60.1444 93.4706C62.9018 94.2264 65.7793 94.9083 68.6153 96.4753C69.1169 96.755 69.3018 97.3906 69.0198 97.8945C68.8696 98.1695 68.6015 98.3521 68.3149 98.4099C65.1507 99.0501 62.0142 98.7705 58.9147 97.906C55.8176 97.0786 52.7805 95.5277 50.2565 93.3643C47.691 91.1108 45.8928 88.2655 44.8249 85.1961C43.7571 82.1382 43.667 78.625 45.0746 75.544L45.0838 75.5232C45.3103 75.0309 45.8928 74.8137 46.3851 75.0379C46.8751 75.2644 47.0923 75.8468 46.8705 76.3368C46.8543 76.3692 46.8381 76.3992 46.8219 76.427Z" fill="#005948"/>
<path d="M179.372 154.442C180.213 154.237 181.057 154.78 181.362 155.307C181.708 155.845 181.852 156.432 181.764 157.075C181.48 158.469 180.451 158.993 179.686 159.37C178.114 159.999 176.755 160.454 175.271 160.988C172.355 161.991 169.442 163.043 166.463 163.914C160.534 165.731 154.393 167.145 148.03 167.52C141.676 167.887 135.045 166.891 129.149 164.03C123.281 161.281 117.958 156.386 115.951 150.118C115.783 149.595 116.072 149.036 116.594 148.867C116.999 148.74 117.419 148.881 117.671 149.191L117.685 149.207C121.436 153.881 125.948 157.35 131.139 159.876C136.335 162.347 142.079 163.824 148.009 164.025C153.959 164.319 160.012 163.426 165.911 161.94C168.851 161.154 171.788 160.295 174.675 159.273C176.08 158.769 177.647 158.261 178.919 157.724C179.503 157.475 179.919 156.996 179.896 156.818C179.915 156.698 179.852 156.49 179.776 156.391C179.665 156.28 179.732 156.372 179.802 156.351C179.272 156.469 178.748 156.139 178.632 155.609C178.514 155.082 178.845 154.56 179.372 154.442Z" fill="#005948"/>
<path d="M156.495 148.725C156.299 148.582 155.959 147.978 156.216 147.426C156.447 146.959 156.717 146.867 156.9 146.776C157.293 146.645 157.609 146.566 158.15 146.793C158.407 146.897 158.7 147.211 158.781 147.514C158.874 147.835 158.848 147.941 158.832 148.17C158.767 148.572 158.564 148.877 158.375 149.074C157.568 149.841 156.962 149.89 156.357 150.195C155.12 150.699 153.854 151.147 152.545 151.459C149.943 152.104 147.222 152.453 144.453 152.363C141.689 152.277 138.879 151.644 136.366 150.343C133.863 149.083 131.605 147.056 130.636 144.294C130.445 143.744 130.733 143.141 131.286 142.947C131.545 142.856 131.817 142.873 132.053 142.974L132.102 142.995C134.547 144.054 136.442 145.165 138.486 146.254C140.522 147.301 142.658 148.242 144.957 148.905C147.248 149.569 149.73 149.83 152.146 149.446C153.34 149.231 154.554 148.998 155.677 148.512C156.22 148.281 156.937 148.036 157.029 147.858C157.062 147.821 157.025 147.837 157.009 147.921C157.004 147.992 156.983 147.932 157.022 148.103C157.059 148.249 157.233 148.436 157.344 148.48C157.591 148.568 157.561 148.533 157.663 148.517C157.7 148.489 157.827 148.496 157.991 148.175C158.178 147.775 157.924 147.336 157.841 147.303C158.234 147.673 158.25 148.293 157.88 148.686C157.505 149.079 156.888 149.097 156.495 148.725Z" fill="#005948"/>
<path d="M251.678 48.3292C262.585 43.2259 274.675 40.8868 286.831 41.4092C292.9 41.7212 299 42.826 304.729 45.0379C310.448 47.2059 315.868 50.4441 319.982 55.0043C320.349 55.4111 320.317 56.0398 319.91 56.4096C319.598 56.6916 319.145 56.7332 318.791 56.5598C313.496 53.918 308.43 51.3964 303.084 49.3393C297.749 47.3261 292.209 45.729 286.493 44.8877C275.098 43.0987 262.908 44.6843 252.544 50.0858C252.064 50.3355 251.472 50.1483 251.222 49.6698C250.973 49.1891 251.158 48.5997 251.638 48.3477L251.678 48.3292Z" fill="#005948"/>
<path d="M265.108 54.7168C267.974 54.072 270.851 53.5335 273.784 53.3023C276.713 53.0666 279.681 52.9741 282.678 53.1868C285.669 53.3994 288.674 54.0258 291.473 55.1999C294.265 56.3463 296.893 58.0821 298.626 60.7124C298.945 61.1955 298.811 61.8426 298.331 62.1616C298.076 62.328 297.778 62.3719 297.505 62.3049L297.48 62.298C294.582 61.5745 292.178 60.5113 289.696 59.4481C287.215 58.415 284.701 57.4211 282.064 56.6283C276.81 54.9873 270.941 54.8717 265.637 56.6006C265.124 56.7739 264.567 56.4989 264.394 55.9834C264.222 55.4726 264.498 54.9156 265.011 54.7446C265.041 54.733 265.08 54.7215 265.108 54.7168" fill="#005948"/>
</svg>
