<svg width="317" height="140" viewBox="0 0 317 140" fill="none" xmlns="http://www.w3.org/2000/svg">
<path d="M81.6723 30.9383C90.5521 17.6523 106.476 9.3825 122.452 9.76347C138.43 10.1425 153.942 19.1589 162.181 32.8528C175.365 26.8207 189.368 20.9599 203.819 22.1278C218.271 23.2938 233.015 33.9033 233.746 48.3803C246.895 42.5233 262.233 39.7911 275.676 44.9362C289.12 50.0812 299.418 64.8084 296.072 78.8082C293.378 90.0815 282.828 98.1224 271.657 101.201C260.485 104.283 248.648 103.304 237.102 102.3C228.568 117.993 211.675 128.802 193.852 129.978C176.031 131.154 157.863 122.657 147.34 108.226C132.948 115.845 117.601 123.684 101.35 122.649C85.0972 121.614 68.5191 107.803 70.8608 91.6862C52.855 94.9476 29.6887 93.9509 22.1693 77.2689C16.1622 63.9387 25.0535 47.7011 37.7757 40.4973C50.4979 33.2934 65.7984 32.7874 80.414 32.4641" fill="white"/>
<path d="M71.5678 25.5944C76.4531 17.794 83.5011 11.3637 91.6458 6.97285C99.7887 2.60513 109.059 0.0768581 118.451 0.251952C127.834 0.405881 137.086 3.09963 145.198 7.73673C153.31 12.3892 160.244 19.1198 165.087 27.1856L161.401 26.0446C168.735 22.6774 176.307 19.5354 184.242 17.2226C192.159 14.9406 200.57 13.5745 208.993 14.3249C217.511 15.1234 225.679 18.3655 232.365 23.6799C235.708 26.3313 238.667 29.558 240.872 33.3293C243.077 37.0852 244.53 41.3855 244.847 45.8321L241.205 43.5944C247.903 40.4273 254.928 37.7124 262.407 36.2443C269.845 34.732 277.811 34.4645 285.544 36.3598C289.367 37.2602 293.233 38.7283 296.746 40.7852C300.229 42.8613 303.388 45.4319 306.086 48.4239C311.487 54.3483 315.354 61.9138 316.135 70.1779C316.99 78.4323 314.231 86.96 309.164 93.1844C304.119 99.4801 297.373 103.942 290.121 106.711C282.775 109.459 275.15 110.398 267.683 110.544C260.205 110.705 252.898 109.884 245.719 109.153L248.795 107.502C243.55 116.618 235.937 124.138 227.151 129.546C218.381 135.036 208.391 138.361 198.037 139.53C187.692 140.685 176.838 139.282 167.238 134.799C157.587 130.466 149.213 123.393 143.083 114.759L147.824 115.856C139.774 119.949 131.569 124.111 122.78 127.207C114.037 130.306 104.56 132.284 94.9919 131.624C90.1162 131.295 85.3655 130.027 80.9574 128.103C76.5377 126.191 72.4221 123.576 68.8413 120.307C65.2759 117.034 62.2301 113.082 60.1713 108.533C58.1279 103.996 57.1773 98.7971 57.7911 93.702L61.5316 97.3136C54.8992 98.7182 48.1167 99.5975 41.2053 99.661C34.3093 99.6725 27.1901 98.7952 20.398 96.0456C17.0174 94.6256 13.7579 92.7323 10.8718 90.2521C8.08565 87.7007 5.49388 84.7453 3.8834 81.2877C2.13439 77.9263 0.983765 74.1146 0.791354 70.3184C0.566233 66.5163 1.06843 62.7566 2.08628 59.2182C3.07912 55.6586 4.71846 52.3837 6.61178 49.3302C8.50511 46.267 10.8179 43.5001 13.4231 41.0642C16.0303 38.6341 18.853 36.4175 22.0085 34.707C25.0986 32.9984 28.2984 31.6303 31.5771 30.5162C38.146 28.3305 44.9208 27.251 51.6167 26.822C58.3183 26.339 64.9604 26.3756 71.5562 26.5295L71.6332 29.9621C65.0662 30.42 58.5262 30.7952 52.1246 31.69C48.9229 32.1287 45.7558 32.6866 42.6657 33.4486C39.5679 34.1701 36.5259 35.0456 33.6051 36.1731C30.6978 37.3122 27.8828 38.6783 25.2795 40.2792C22.6993 41.8262 20.3922 43.8311 18.2873 45.9803C16.1708 48.1334 14.3602 50.5712 12.8536 53.1457C11.3643 55.7201 10.1002 58.4389 9.41521 61.2616C7.9856 66.8761 8.31269 72.7312 11.0545 77.5491C12.2571 80.0832 14.1889 82.1112 16.2381 83.9641C18.3835 85.7535 20.9156 87.1158 23.5863 88.2857C29.0373 90.4599 35.1694 91.4816 41.4035 91.9184C47.6646 92.2474 54.0545 91.8895 60.3887 91.0121L64.9315 90.3791L64.1311 94.6218C63.4038 98.4681 63.9002 102.528 65.4856 106.23C67.0365 109.955 69.6032 113.307 72.6818 116.103C78.8428 121.706 87.0761 125.275 95.3401 125.642C103.837 126.067 112.355 124.051 120.479 120.938C128.633 117.807 136.472 113.622 144.347 109.289L147.122 107.763L149.088 110.384C154.664 117.811 162.289 123.518 170.611 127.586C178.979 131.509 188.192 134.195 197.676 134.037C207.15 133.902 216.517 130.539 224.454 125.331C232.379 120.047 238.946 112.797 243.194 104.454L244.114 102.645L246.271 102.801C253.459 103.315 260.558 103.702 267.513 103.534C274.436 103.321 281.33 102.316 287.491 99.9092C293.662 97.4791 299.294 93.5731 303.223 88.532C305.195 86.0229 306.661 83.2003 307.525 80.2314C308.339 77.2528 308.554 74.1685 308.137 71.1034C307.327 64.9443 303.892 59.1893 299.482 54.6523C297.235 52.3991 294.739 50.3846 292.024 48.7606C289.317 47.1482 286.406 45.9649 283.258 45.0356C280.135 44.1582 276.893 43.5367 273.57 43.2866C270.253 42.9806 266.857 42.9999 263.455 43.3308C256.659 44.0119 249.802 45.6609 243.314 48.3277L239.743 49.7977L239.671 46.0919C239.602 42.49 238.569 38.9015 236.741 35.7056C234.919 32.5019 232.396 29.6619 229.472 27.2857C223.582 22.5774 216.139 19.6393 208.62 19.1428C200.964 18.6195 193.227 19.9837 185.781 22.3369C178.302 24.6689 171.092 27.9957 163.81 31.3128L161.456 32.3846L160.123 30.1718C155.799 22.9968 149.488 17.0706 142.252 12.8068C135.019 8.51985 126.715 5.9704 118.32 5.7068C109.934 5.45474 101.418 7.32883 93.8104 11.1443C86.1987 14.931 79.4162 20.5167 74.4212 27.5012L71.5678 25.5944Z" fill="#005948"/>
<path d="M126.753 108.487C127.402 108.33 128.052 108.753 128.279 109.147C128.537 109.553 128.643 109.988 128.577 110.471C128.358 111.528 127.598 111.897 127.052 112.168C125.934 112.617 124.997 112.93 123.954 113.304C121.914 114.004 119.88 114.752 117.797 115.368C113.65 116.659 109.354 117.681 104.878 117.989C100.41 118.283 95.7175 117.619 91.548 115.593C87.4035 113.659 83.6264 110.14 82.3411 105.653C82.2141 105.213 82.4701 104.753 82.9126 104.624C83.232 104.533 83.5649 104.643 83.7708 104.88L83.7842 104.897C86.5222 108.055 89.622 110.385 93.2047 112.136C96.7893 113.837 100.743 114.901 104.861 115.079C108.992 115.33 113.215 114.741 117.335 113.723C119.388 113.178 121.443 112.594 123.457 111.878C124.437 111.528 125.545 111.168 126.413 110.798C126.809 110.633 127.059 110.302 127.023 110.26C127.032 110.21 126.994 110.09 126.957 110.05C126.894 110 127 110.108 127.109 110.079C126.669 110.177 126.234 109.9 126.136 109.461C126.038 109.02 126.313 108.586 126.753 108.487Z" fill="#005948"/>
<path d="M110.703 104.717C110.548 104.604 110.269 104.113 110.478 103.663C110.669 103.286 110.882 103.216 111.025 103.143C111.333 103.041 111.575 102.98 112.004 103.157C112.208 103.242 112.445 103.494 112.508 103.736C112.583 103.994 112.56 104.071 112.547 104.252C112.499 104.565 112.339 104.798 112.198 104.946C111.585 105.522 111.171 105.543 110.744 105.762C109.87 106.116 108.981 106.441 108.06 106.668C106.228 107.136 104.312 107.419 102.343 107.396C100.381 107.374 98.3718 106.953 96.5844 106.026C94.8046 105.133 93.2018 103.657 92.6245 101.612C92.4879 101.133 92.7669 100.632 93.2479 100.498C93.4327 100.444 93.6212 100.453 93.7886 100.511L93.8425 100.53C95.6512 101.156 96.9519 101.872 98.3488 102.62C99.7399 103.336 101.187 104.015 102.763 104.517C104.333 105.017 106.051 105.241 107.727 104.992C108.554 104.848 109.401 104.698 110.178 104.359C110.551 104.204 111.061 104.021 111.079 103.936C111.088 103.919 111.046 103.952 111.029 104.042C111.025 104.113 111.009 104.073 111.044 104.227C111.079 104.357 111.231 104.521 111.333 104.561C111.556 104.644 111.556 104.613 111.66 104.594C111.702 104.565 111.816 104.563 111.958 104.286C112.118 103.946 111.9 103.567 111.823 103.534C112.15 103.842 112.164 104.357 111.856 104.683C111.546 105.012 111.031 105.025 110.703 104.717Z" fill="#005948"/>
<path d="M177.259 34.3398C184.917 30.7937 193.362 29.1082 201.909 29.3872C206.173 29.57 210.473 30.3107 214.502 31.8693C218.526 33.3912 222.337 35.7021 225.133 39.0173C225.431 39.3694 225.385 39.8967 225.033 40.193C224.779 40.4065 224.427 40.4393 224.142 40.3123C220.363 38.594 216.846 36.8797 213.136 35.452C209.432 34.057 205.599 32.9064 201.626 32.283C193.712 30.9496 185.189 32.0078 177.981 35.8002C177.581 36.0119 177.09 35.858 176.88 35.4597C176.669 35.0614 176.823 34.5688 177.221 34.3591C177.232 34.3514 177.248 34.3456 177.259 34.3398" fill="#005948"/>
<path d="M186.668 38.7938C188.687 38.3589 190.701 37.9722 192.762 37.7932C194.815 37.6143 196.905 37.5104 199.023 37.622C201.14 37.7297 203.271 38.1453 205.248 38.9746C207.222 39.7789 209.073 41.0392 210.206 43.0037C210.452 43.4328 210.306 43.9773 209.879 44.2236C209.69 44.3333 209.477 44.366 209.277 44.3294L209.25 44.3256C207.149 43.9465 205.482 43.2481 203.768 42.5111C202.057 41.7973 200.331 41.0796 198.511 40.485C194.892 39.2536 190.79 39.1305 187.109 40.3619C186.682 40.5101 186.216 40.2849 186.068 39.8597C185.922 39.4345 186.147 38.9669 186.572 38.8207C186.601 38.8111 186.639 38.7995 186.668 38.7938Z" fill="#005948"/>
</svg>
