<svg width="556" height="309" viewBox="0 0 556 309" fill="none" xmlns="http://www.w3.org/2000/svg">
<path d="M124.233 119.252C122.268 119.252 120.573 118.982 119.15 118.44C117.456 117.966 116.609 116.544 116.609 114.174V25.6992C116.609 24.0062 116.304 21.3991 115.694 17.8777C114.948 14.7626 114.575 12.1893 114.575 10.1578V9.6499C116.337 6.80572 117.625 4.97729 118.438 4.16467C119.862 4.16467 121.726 3.96154 124.03 3.55523C126.199 3.14891 128.097 2.94578 129.723 2.94578C131.35 2.94578 132.909 3.45367 134.4 4.46945C135.959 5.41751 136.738 6.56869 136.738 7.92306C136.738 10.9704 134.4 12.4941 129.723 12.4941H127.588C126.978 12.3586 126.267 12.2909 125.453 12.2909C124.504 12.2909 123.928 12.3586 123.725 12.4941C123.725 15.88 123.928 20.0108 124.335 24.8866L124.64 29.2544L124.945 37.5838C124.945 39.4799 124.809 42.4257 124.538 46.4211L124.233 54.9536L126.368 54.4457C128.402 53.904 130.062 53.6331 131.35 53.6331C132.502 53.6331 133.519 54.0733 134.4 54.9536C135.349 55.7662 135.823 56.7144 135.823 57.7979C135.823 59.0845 135.416 60.2357 134.603 61.2515C133.857 62.1318 132.943 62.572 131.858 62.572L130.028 62.3689H127.995C126.504 62.3689 125.453 62.7413 124.843 63.4862V110.517L133.383 110.11C139.144 110.11 142.024 111.431 142.024 114.072V114.681C141.415 115.9 140.296 116.916 138.67 117.729C137.043 118.406 135.484 118.88 133.993 119.151L128.91 119.252H124.233ZM166.017 69.5809C164.729 69.5809 163.577 69.1745 162.561 68.3619C161.544 67.4139 161.036 66.3303 161.036 65.1114C161.036 63.8925 162.256 62.8429 164.696 61.9625C168.152 60.6081 174.15 59.6939 182.69 59.2199C185.943 59.0167 188.01 58.9152 188.892 58.9152C190.247 58.9152 191.433 59.3553 192.45 60.2357C193.466 61.0483 193.975 62.0641 193.975 63.283C193.975 64.502 192.755 65.5855 190.315 66.5335C186.858 67.8202 180.86 68.7344 172.32 69.2761C169.067 69.4793 166.966 69.5809 166.017 69.5809V69.5809ZM230.675 120.471C226.948 120.471 225.084 116.611 225.084 108.892C225.084 104.016 222.949 86.6121 218.679 56.6805C214.477 26.5457 211.834 10.1239 210.749 7.41517C212.037 4.9773 213.799 3.75839 216.036 3.75839C218.408 3.75839 220.611 9.04042 222.644 19.6045C224.542 30.7781 226.168 43.5769 227.524 58.001L228.54 70.3935C229.15 77.2331 229.523 80.7205 229.659 80.856L231.184 68.0572L232.099 60.1341C233.386 48.5542 234.234 40.3603 234.64 35.5523C235.183 29.3222 235.454 25.022 235.454 22.6519V19.7061C235.454 18.6226 235.86 17.573 236.674 16.5572C237.487 15.5414 238.402 15.0335 239.419 15.0335C243.078 15.0335 244.908 16.5572 244.908 19.6045V21.8392C244.908 27.663 245.451 33.927 246.535 40.6312C247.755 47.2676 249.483 55.1907 251.72 64.4004C253.143 69.8179 254.566 76.3866 255.99 84.1065C256.329 80.7206 257.311 72.5943 258.938 59.7278C260.565 47.9448 261.717 37.9224 262.395 29.6608C263.208 21.3314 263.615 13.5776 263.615 6.3994C263.615 4.02924 263.987 2.40401 264.733 1.52367C265.546 0.50789 267.003 0 269.104 0C270.324 0 271.409 0.372427 272.358 1.11733C273.374 1.86224 273.883 2.84418 273.883 4.06312C273.883 5.14661 273.374 6.29785 272.358 7.51679C272.358 14.8981 271.782 23.4983 270.629 33.3175C269.545 43.069 268.189 52.3803 266.563 61.2515C264.936 69.8517 263.547 79.1292 262.395 89.0838C261.31 98.9707 260.768 107.673 260.768 115.189C260.768 116.815 260.361 118.135 259.548 119.151C258.802 120.031 257.684 120.471 256.193 120.471C255.041 120.471 253.719 118.406 252.228 114.275C250.263 108.451 247.857 96.9053 245.01 79.6371L242.265 61.861L240.943 51.9063C239.588 61.1837 238.571 68.6667 237.894 74.355C237.284 79.908 236.674 86.5444 236.064 94.2643C235.318 101.713 234.945 109.027 234.945 116.205C234.945 117.221 234.505 118.203 233.624 119.151C232.81 120.031 231.828 120.471 230.675 120.471V120.471ZM320.953 119.76C318.649 119.76 316.92 119.388 315.768 118.643C314.684 117.966 314.142 116.645 314.142 114.681C314.142 111.634 313.633 106.454 312.617 99.14L312.007 95.9911L296.859 93.6548C296.249 96.025 295.401 100.765 294.317 107.876C293.707 112.819 292.724 116.104 291.369 117.729C290.691 118.677 289.674 119.151 288.319 119.151C287.099 119.151 285.981 118.778 284.964 118.034C283.947 117.221 283.439 116.273 283.439 115.189L283.744 114.377L283.947 113.767C290.657 87.6956 295.74 61.9625 299.197 36.568C299.197 36.1617 299.231 35.4845 299.299 34.5365C299.434 33.5207 299.536 32.0986 299.604 30.2702C299.942 26.5457 300.247 23.5661 300.519 21.3314C300.925 19.0966 301.535 17.4037 302.349 16.2525H307.533C308.957 16.2525 310.177 16.5911 311.193 17.2682C312.21 17.9454 312.718 18.8935 312.718 20.1124C312.718 27.8323 313.803 39.3107 315.971 54.5473C318.005 70.1903 319.021 81.1269 319.021 87.357C319.021 88.0342 319.259 89.6256 319.733 92.1312C320.275 94.5013 320.546 96.025 320.546 96.7022C320.546 97.4471 321.055 100.494 322.071 105.844C322.952 110.72 323.393 113.869 323.393 115.291V115.494C323.393 117.729 322.58 119.151 320.953 119.76V119.76ZM310.888 90.4043C310.617 88.9145 310.482 87.0523 310.482 84.8175C310.482 75.6755 309.668 63.9941 308.042 49.7732L306.517 33.927C302.111 57.8317 299.095 75.8787 297.469 88.0681C299.027 89.0838 303.501 89.8626 310.888 90.4043V90.4043ZM339.253 120.471C337.423 120.2 335.864 119.557 334.576 118.541C333.356 117.526 332.644 116.205 332.441 114.58L334.068 111.939C334.678 111.939 335.66 112.142 337.016 112.548C338.507 112.887 339.659 113.056 340.472 113.056C342.302 113.056 343.929 112.244 345.352 110.618C346.911 108.993 348.029 106.86 348.707 104.219C350.063 99.3432 350.741 94.9754 350.741 91.1154C350.741 84.4112 348.606 77.3346 344.336 69.8856L342.607 67.0414C340.71 63.6555 339.083 60.642 337.728 58.001C336.44 55.3599 335.322 52.5158 334.373 49.4685C333.153 45.5408 332.543 41.5792 332.543 37.5838C332.543 33.1144 333.559 28.4418 335.593 23.5661C336.609 21.2637 338.033 19.4014 339.862 17.9793C341.828 16.4218 343.963 15.643 346.267 15.643C348.097 15.643 349.792 16.2525 351.351 17.4714C352.977 18.6226 353.79 20.0108 353.79 21.6361C353.79 22.5164 353.418 23.2275 352.672 23.7693C351.994 24.2433 351.147 24.4802 350.131 24.4802C348.978 24.4802 347.894 24.1756 346.877 23.5661C344.641 23.7015 342.879 25.6653 341.591 29.4576C340.439 33.0467 339.862 36.0263 339.862 38.3964C339.862 41.3083 340.337 44.2879 341.286 47.3353C342.167 50.3149 343.319 52.9898 344.742 55.36L348.097 61.4546L353.485 71.6124C354.909 74.4566 356.027 77.741 356.84 81.4655C357.721 85.2577 358.162 89.0838 358.162 92.9438C358.162 99.1062 356.739 104.998 353.892 110.618C352.469 113.463 350.436 115.731 347.792 117.424C345.285 119.185 342.438 120.065 339.253 120.065V120.471ZM385.51 117.83L382.765 115.9L382.561 109.907C382.494 108.214 382.46 106.284 382.46 104.117L382.561 98.9369C382.29 97.8534 381.545 86.7475 380.325 65.6193C379.105 44.4234 378.393 30.8458 378.19 24.8866C372.293 24.6834 368.532 24.074 366.905 23.0582C365.753 22.2456 365.177 21.3314 365.177 20.3156C365.177 19.503 365.685 18.7919 366.702 18.1825C367.854 17.4376 368.972 17.0651 370.057 17.0651C372.903 17.0651 376.36 17.2683 380.426 17.6746C384.29 18.2163 387.746 18.4872 390.796 18.4872H392.016H393.236C396.422 18.4872 398.014 19.7061 398.014 22.144C398.014 23.3629 397.506 24.3787 396.489 25.1913C395.473 25.9362 394.287 26.2748 392.931 26.2071C392.05 26.2071 390.728 26.0717 388.966 25.8008L385.916 25.1913L385.815 26.0039L385.611 26.715C385.611 35.7893 386.492 50.2134 388.255 69.9872C389.881 88.6098 390.694 103.034 390.694 113.259C390.694 114.478 390.118 115.562 388.966 116.51C387.95 117.39 386.797 117.83 385.51 117.83ZM420.279 120.268C418.923 120.268 417.703 119.828 416.619 118.948C415.602 118 415.026 116.882 414.89 115.596V111.634V108.587C414.823 107.639 414.789 106.555 414.789 105.336C414.789 103.237 414.619 99.9865 414.28 95.5848L413.976 85.8333C413.976 80.8899 414.145 73.4747 414.484 63.5877C414.89 54.7166 415.094 47.3015 415.094 41.3422C415.094 39.9201 414.924 37.787 414.585 34.9428C414.314 31.9632 414.179 29.83 414.179 28.5434C414.179 21.2975 416.314 17.6746 420.584 17.6746C423.905 17.6746 427.768 18.3518 432.173 19.7061C436.647 21.0605 438.883 22.618 438.883 24.3787C438.883 25.3945 438.409 26.3764 437.46 27.3245C436.647 28.1371 435.63 28.7804 434.41 29.2544C430.14 27.7646 426.277 26.7827 422.82 26.3087C422.956 27.7985 423.024 29.9655 423.024 32.8096C423.024 36.8728 422.956 40.5296 422.82 43.7801C422.549 48.6558 422.414 52.3126 422.414 54.7505L422.82 57.1883L425.26 57.0868C426.073 56.9514 427.09 56.8836 428.31 56.8836C433.19 56.8836 435.63 58.3057 435.63 61.1499C435.63 62.3011 435.189 63.2492 434.308 63.9941C433.359 64.739 432.173 65.1114 430.75 65.1114C428.92 65.1114 427.497 65.0098 426.48 64.8067H422.719C422.922 67.4477 423.024 71.3077 423.024 76.3866C423.024 81.4655 422.956 86.0365 422.82 90.0996C422.549 96.3297 422.414 100.968 422.414 104.016C422.414 109.704 422.515 112.548 422.719 112.548L427.7 112.345C429.462 112.21 431.563 112.142 434.003 112.142C437.867 112.142 439.798 113.361 439.798 115.799C439.798 117.289 439.12 118.44 437.765 119.252C436.545 119.93 435.02 120.268 433.19 120.268H420.279ZM44.8338 305.038C43.8171 305.038 43.0038 304.531 42.3939 303.515C41.7839 302.499 41.4789 301.043 41.4789 299.147L41.2756 276.597C41.2078 274.633 41.1739 271.416 41.1739 266.947C40.9706 257.534 40.8689 246.868 40.8689 234.95V227.23C39.92 232.106 38.3273 238.945 36.0907 247.749C33.8541 256.891 32.2952 264.407 31.4142 270.299V271.213L30.9058 274.159C30.7025 276.393 30.1942 278.662 29.3809 280.964C28.3642 283.402 26.8054 284.621 24.7043 284.621C21.0444 284.621 19.2145 279.847 19.2145 270.299C19.2145 265.017 18.6384 259.396 17.4862 253.437C16.4696 247.342 14.809 239.859 12.5047 230.988L7.92979 213.923L7.62479 232.207C7.62479 237.692 7.86201 248.155 8.33644 263.595L8.64143 273.956L8.94642 294.881C8.94642 296.98 8.20089 298.91 6.70982 300.671C4.13433 300.671 2.33827 299.892 1.32163 298.334C0.440543 296.709 0 294.373 0 291.325L0.304991 278.831C0.576095 273.346 0.711648 269.249 0.711648 266.54L0.406657 237.083L0.101662 207.524C0.101662 203.19 0.203329 196.655 0.406657 187.919L4.57488 185.481C5.38819 185.549 6.2015 186.158 7.01481 187.31C7.82812 188.325 8.7431 189.985 9.75974 192.287C12.2674 198.585 15.5546 211.18 19.6211 230.074C20.2311 232.715 20.6378 234.916 20.8411 236.677C22.0611 242.568 22.9422 247.037 23.4844 250.085L25.721 261.766L26.8393 256.789L29.6859 244.295C31.3125 236.981 32.6341 230.582 33.6508 225.097C34.8029 219.611 35.8874 213.652 36.904 207.219C37.9884 199.634 38.7001 193.303 39.0389 188.224V187.31C39.2423 185.955 39.8523 184.94 40.8689 184.262C41.8855 183.45 43.1055 183.043 44.5288 183.043C45.4099 183.043 46.2232 183.45 46.9687 184.262C47.6465 185.075 47.9854 185.921 47.9854 186.802C47.9854 198.991 48.4598 217.241 49.4087 241.552C49.8831 253.403 50.222 265.017 50.4253 276.393C50.6286 281.608 50.7303 288.177 50.7303 296.1C50.7303 298.402 50.1203 300.467 48.9003 302.296C47.6804 304.124 46.3249 305.038 44.8338 305.038V305.038ZM100.139 302.499C97.8346 302.499 96.1063 302.127 94.9541 301.382C93.8697 300.704 93.3275 299.384 93.3275 297.42C93.3275 294.373 92.8192 289.192 91.8025 281.879L91.1925 278.73L76.0446 276.393C75.4346 278.764 74.5874 283.504 73.503 290.614C72.893 295.558 71.9103 298.842 70.5548 300.467C69.877 301.415 68.8604 301.89 67.5048 301.89C66.2849 301.89 65.1666 301.517 64.1499 300.772C63.1333 299.96 62.625 299.011 62.625 297.928L62.93 297.115L63.1333 296.506C69.8431 270.434 74.9263 244.701 78.3829 219.307C78.3829 218.9 78.4168 218.223 78.4845 217.275C78.6201 216.259 78.7218 214.837 78.7895 213.009C79.1284 209.284 79.4334 206.305 79.7045 204.07C80.1112 201.835 80.7212 200.142 81.5345 198.991H86.7193C88.1426 198.991 89.3626 199.364 90.3792 200.108C91.3959 200.718 91.9042 201.632 91.9042 202.851C91.9042 210.571 92.9886 222.049 95.1574 237.286C97.1907 252.929 98.2074 263.899 98.2074 270.197C98.2074 270.807 98.4446 272.364 98.919 274.87C99.4612 277.24 99.7323 278.764 99.7323 279.441C99.7323 280.186 100.241 283.233 101.257 288.583C102.138 293.459 102.579 296.607 102.579 298.03V298.233C102.579 300.467 101.766 301.89 100.139 302.499V302.499ZM90.0742 273.245C89.8031 271.687 89.6676 269.791 89.6676 267.556C89.6676 258.414 88.8543 246.733 87.2276 232.512L85.7027 216.666C81.2973 240.57 78.2812 258.617 76.6546 270.807C78.2134 271.822 82.6867 272.635 90.0742 273.245V273.245ZM157.376 301.585C156.156 301.585 155.241 301.28 154.631 300.671C154.021 299.926 153.546 298.741 153.208 297.115L152.293 294.271V293.966V293.459C152.293 290.14 148.802 278.73 141.821 259.227C134.908 239.724 129.452 225.3 125.453 215.955V292.544L126.063 293.662C126.199 293.865 126.402 294.203 126.673 294.677C127.012 295.219 127.182 295.727 127.182 296.201C127.182 297.556 126.707 298.673 125.758 299.553C124.877 300.501 123.759 300.975 122.403 300.975C119.15 300.975 117.524 297.86 117.524 291.63L117.422 265.626C117.286 257.771 117.219 249.035 117.219 239.419C117.219 236.169 117.388 231.428 117.727 225.198C117.998 218.833 118.133 214.126 118.133 211.079C118.133 206.271 119.963 202.512 123.623 199.804V200.718C124.233 200.515 124.64 200.413 124.843 200.413C127.215 200.413 130.164 204.476 133.688 212.603C136.535 219.104 139.076 225.943 141.313 233.121C143.685 240.367 146.735 250.627 150.463 263.899L151.988 269.385C154.36 277.646 156.156 283.538 157.376 287.059C159.409 265.254 160.426 239.453 160.426 209.657V207.727C160.29 207.117 160.222 206.44 160.222 205.695C160.222 202.648 161.442 201.124 163.882 201.124C165.306 201.124 166.39 201.7 167.135 202.851C167.949 203.935 168.355 205.357 168.355 207.117V218.494C168.152 234.137 167.542 251.101 166.526 269.385C165.509 287.669 164.289 297.996 162.866 300.366C159.883 301.178 158.054 301.585 157.376 301.585V301.585ZM218.781 302.499C216.476 302.499 214.748 302.127 213.596 301.382C212.511 300.704 211.969 299.384 211.969 297.42C211.969 294.373 211.461 289.192 210.444 281.879L209.834 278.73L194.686 276.393C194.076 278.764 193.229 283.504 192.145 290.614C191.535 295.558 190.552 298.842 189.197 300.467C188.519 301.415 187.502 301.89 186.147 301.89C184.927 301.89 183.808 301.517 182.792 300.772C181.775 299.96 181.267 299.011 181.267 297.928L181.572 297.115L181.775 296.506C188.485 270.434 193.568 244.701 197.025 219.307C197.025 218.9 197.059 218.223 197.126 217.275C197.262 216.259 197.364 214.837 197.431 213.009C197.77 209.284 198.075 206.305 198.346 204.07C198.753 201.835 199.363 200.142 200.176 198.991H205.361C206.784 198.991 208.004 199.364 209.021 200.108C210.038 200.718 210.546 201.632 210.546 202.851C210.546 210.571 211.63 222.049 213.799 237.286C215.833 252.929 216.849 263.899 216.849 270.197C216.849 270.807 217.086 272.364 217.561 274.87C218.103 277.24 218.374 278.764 218.374 279.441C218.374 280.186 218.882 283.233 219.899 288.583C220.78 293.459 221.221 296.607 221.221 298.03V298.233C221.221 300.467 220.407 301.89 218.781 302.499V302.499ZM208.716 273.245C208.445 271.687 208.309 269.791 208.309 267.556C208.309 258.414 207.496 246.733 205.869 232.512L204.344 216.666C199.939 240.57 196.923 258.617 195.296 270.807C196.855 271.822 201.328 272.635 208.716 273.245V273.245ZM254.16 302.296C251.313 302.296 248.738 301.788 246.433 300.772C244.061 299.689 242.062 298.267 240.435 296.506C239.147 295.084 237.927 293.018 236.775 290.31C235.691 287.533 234.878 284.892 234.335 282.387C233.861 280.49 233.454 277.68 233.115 273.956C232.844 270.299 232.641 267.15 232.505 264.509V255.672V249.577C232.505 243.685 232.607 238.877 232.81 235.153C233.014 230.548 233.691 225.706 234.844 220.627C235.725 216.09 237.284 212.095 239.52 208.641C241.689 205.187 244.705 202.783 248.568 201.429C250.398 200.752 252.533 200.413 254.973 200.413C259.311 200.413 261.48 201.666 261.48 204.172C261.48 205.391 260.971 206.44 259.955 207.32C259.074 207.998 257.955 208.336 256.6 208.336C255.99 208.336 255.448 208.269 254.973 208.133C254.566 208.065 254.058 208.032 253.448 208.032C251.686 208.032 250.161 208.946 248.873 210.774C247.518 212.603 246.399 215.142 245.518 218.392C243.892 224.69 242.773 231.53 242.163 238.911C241.757 245.819 241.553 250.965 241.553 254.351C241.553 257.805 241.689 262.511 241.96 268.47C242.367 274.091 243.248 278.967 244.603 283.098C245.281 285.535 246.094 287.533 247.043 289.091C248.06 290.513 249.314 291.732 250.805 292.748C252.567 293.831 254.363 294.373 256.193 294.373C261.073 294.373 263.513 286.247 263.513 269.994V262.985C262.767 262.714 261.581 262.579 259.955 262.579H258.633H256.905C253.38 262.579 251.618 261.394 251.618 259.024C251.618 257.602 252.059 256.552 252.94 255.875C253.956 255.062 255.244 254.656 256.803 254.656V254.757H258.938C268.088 254.757 272.663 256.349 272.663 259.532C272.663 260.412 272.392 262.24 271.849 265.017C271.239 267.455 270.934 269.283 270.934 270.502C270.934 272.195 271.104 274.87 271.443 278.527L271.748 286.653C271.748 291.529 270.019 295.389 266.563 298.233C263.174 300.941 259.04 302.296 254.16 302.296V302.296ZM294.114 303.108C292.826 303.108 291.606 302.634 290.454 301.686C289.437 300.806 288.895 299.689 288.827 298.334V294.373V291.325C288.692 290.445 288.624 289.395 288.624 288.177C288.624 286.077 288.488 282.827 288.217 278.425L287.912 268.674C287.912 263.73 288.048 256.315 288.319 246.428C288.726 237.557 288.929 230.142 288.929 224.182C288.929 222.76 288.793 220.627 288.522 217.783C288.183 214.803 288.014 212.67 288.014 211.384C288.014 204.138 290.149 200.515 294.419 200.515C297.808 200.515 301.671 201.192 306.008 202.546C310.482 203.833 312.718 205.424 312.718 207.32C312.718 208.336 312.278 209.284 311.397 210.165C310.583 210.977 309.567 211.621 308.347 212.095C304.077 210.605 300.214 209.589 296.757 209.047C296.825 210.605 296.859 212.806 296.859 215.65C296.859 219.713 296.825 223.37 296.757 226.62C296.418 231.496 296.249 235.153 296.249 237.591L296.757 240.029L299.197 239.825C300.01 239.758 301.027 239.724 302.247 239.724C307.127 239.724 309.567 241.146 309.567 243.99C309.567 245.074 309.092 246.056 308.143 246.936C307.262 247.613 306.11 247.952 304.687 247.952C302.857 247.952 301.434 247.85 300.417 247.647H296.554C296.757 250.288 296.859 254.148 296.859 259.227C296.859 264.306 296.825 268.877 296.757 272.94C296.418 279.102 296.249 283.707 296.249 286.754C296.249 292.443 296.35 295.287 296.554 295.287L301.637 295.185C303.331 295.05 305.398 294.982 307.838 294.982C311.702 294.982 313.633 296.201 313.633 298.639C313.633 300.061 312.989 301.178 311.702 301.991C310.482 302.736 308.957 303.108 307.127 303.108H294.114ZM391.813 309C388.695 309 387.136 305.851 387.136 299.553V289.802V280.05C387.136 274.971 386.763 268.335 386.018 260.141C385.205 250.864 384.798 244.498 384.798 241.044L385.103 231.699C385.306 228.923 385.408 225.808 385.408 222.354C385.001 223.641 383.341 230.65 380.426 243.381C377.444 255.638 374.394 267.014 371.277 277.511C368.227 287.601 365.719 292.646 363.754 292.646C361.856 292.646 360.297 292.07 359.077 290.919C357.925 289.7 357.349 288.075 357.349 286.043C357.349 281.574 355.519 272.093 351.859 257.602C348.334 243.042 345.081 231.124 342.099 221.846L341.184 239.114C340.371 253.606 339.829 265.694 339.558 275.378C339.354 284.723 339.253 291.122 339.253 294.576C339.253 295.389 339.286 296.133 339.354 296.811V299.045C339.354 300.738 339.015 302.025 338.338 302.905C337.592 303.718 336.27 304.124 334.373 304.124C333.356 304.124 332.373 303.786 331.424 303.108C330.543 302.296 330.103 301.415 330.103 300.467C330.103 290.174 330.848 274.633 332.339 253.843C333.898 233.121 334.678 217.614 334.678 207.32C334.068 206.372 333.763 205.391 333.763 204.375C333.763 203.156 334.305 202.242 335.389 201.632C336.609 200.887 338.033 200.515 339.659 200.515C341.015 200.515 343.455 205.323 346.979 214.939C350.571 224.487 354.129 235.288 357.654 247.342C361.246 259.396 363.55 268.132 364.567 273.549C365.38 270.773 366.024 268.233 366.498 265.931L367.413 262.274C370.667 248.053 373.92 235.187 377.173 223.675C379.139 216.7 381.036 211.248 382.866 207.32C384.696 202.986 386.357 200.82 387.848 200.82C389.271 200.82 390.559 201.226 391.711 202.038C392.931 202.783 393.541 203.765 393.541 204.984C393.541 212.298 393.846 223.268 394.456 237.895C395.134 251.507 395.473 262.071 395.473 269.588L395.371 277.612L395.066 285.739C395.066 286.958 395.202 288.786 395.473 291.224L395.981 296.506C396.049 297.454 396.083 298.199 396.083 298.741C396.218 299.215 396.286 299.486 396.286 299.553C396.76 300.908 396.998 301.89 396.998 302.499C396.998 304.192 396.489 305.716 395.473 307.07C394.456 308.357 393.236 309 391.813 309ZM422.922 303.108C421.634 303.108 420.414 302.668 419.262 301.788C418.245 300.84 417.703 299.689 417.635 298.334V294.474V291.427C417.5 290.479 417.432 289.395 417.432 288.177C417.432 286.077 417.297 282.827 417.025 278.425L416.72 268.674C416.72 263.73 416.856 256.315 417.127 246.428C417.534 237.625 417.737 230.209 417.737 224.182C417.737 222.76 417.602 220.627 417.33 217.783C416.992 214.871 416.822 212.738 416.822 211.384C416.822 204.138 418.957 200.515 423.227 200.515C426.616 200.515 430.479 201.192 434.817 202.546C439.29 203.901 441.526 205.492 441.526 207.32C441.526 208.336 441.086 209.284 440.205 210.165C439.391 210.977 438.375 211.621 437.155 212.095C432.885 210.605 429.022 209.589 425.565 209.047C425.633 210.605 425.667 212.806 425.667 215.65C425.667 219.713 425.633 223.37 425.565 226.62C425.226 231.496 425.057 235.153 425.057 237.591L425.565 240.029L428.005 239.927C428.818 239.792 429.835 239.724 431.055 239.724C435.935 239.724 438.375 241.146 438.375 243.99C438.375 245.074 437.9 246.056 436.952 246.936C436.07 247.613 434.918 247.952 433.495 247.952C431.665 247.952 430.242 247.85 429.225 247.647H425.362C425.565 250.288 425.667 254.148 425.667 259.227C425.667 264.306 425.633 268.877 425.565 272.94C425.226 279.17 425.057 283.809 425.057 286.856C425.057 292.544 425.159 295.389 425.362 295.389L430.445 295.185C432.139 295.05 434.207 294.982 436.647 294.982C440.51 294.982 442.441 296.235 442.441 298.741C442.441 300.163 441.798 301.28 440.51 302.093C439.29 302.77 437.765 303.108 435.935 303.108H422.922ZM500.796 301.585C499.576 301.585 498.662 301.28 498.052 300.671C497.442 299.926 497.001 298.774 496.73 297.217L495.815 294.271V293.966V293.459C495.815 290.14 492.291 278.73 485.242 259.227C478.329 239.724 472.907 225.3 468.976 215.955V292.646L469.586 293.662C469.653 293.865 469.857 294.237 470.196 294.779C470.467 295.253 470.602 295.761 470.602 296.303C470.602 297.589 470.162 298.673 469.281 299.553C468.332 300.501 467.213 300.975 465.926 300.975C462.673 300.975 461.046 297.894 461.046 291.732L460.843 265.626C460.775 257.771 460.741 249.035 460.741 239.419C460.741 236.169 460.876 231.462 461.148 225.3C461.486 218.867 461.656 214.126 461.656 211.079C461.656 206.339 463.486 202.58 467.146 199.804V200.718C467.756 200.515 468.162 200.413 468.366 200.413C470.67 200.413 473.618 204.476 477.21 212.603C480.057 219.104 482.599 225.977 484.835 233.223C487.14 240.401 490.19 250.66 493.985 264.001L495.51 269.486C497.814 277.68 499.576 283.572 500.796 287.161C502.83 265.288 503.846 239.453 503.846 209.657V207.727C503.779 207.117 503.745 206.474 503.745 205.797C503.745 202.749 504.965 201.226 507.405 201.226C508.828 201.226 509.878 201.768 510.556 202.851C511.37 204.002 511.776 205.424 511.776 207.117V218.596C511.573 234.239 510.963 251.202 509.946 269.486C508.93 287.702 507.71 297.996 506.286 300.366C503.372 301.178 501.542 301.585 500.796 301.585V301.585ZM543.495 300.671L540.75 298.741L540.649 292.748C540.513 291.055 540.445 289.125 540.445 286.958L540.649 281.777C540.31 280.694 539.53 269.588 538.31 248.46C537.091 227.331 536.379 213.754 536.176 207.727C530.279 207.524 526.517 206.914 524.891 205.898C523.806 205.086 523.264 204.172 523.264 203.156C523.264 202.343 523.773 201.632 524.789 201.023C525.874 200.346 526.992 200.007 528.144 200.007C530.991 200.007 534.447 200.176 538.514 200.515C542.377 201.057 545.834 201.327 548.884 201.327H550.103H551.323C554.441 201.327 556 202.546 556 204.984C556 206.203 555.492 207.219 554.475 208.032C553.458 208.776 552.306 209.149 551.018 209.149C550.07 209.149 548.748 208.98 547.054 208.641L544.004 208.032L543.8 208.844L543.699 209.555C543.699 218.629 544.546 233.054 546.24 252.827C547.867 271.45 548.68 285.874 548.68 296.1C548.68 297.319 548.138 298.402 547.054 299.35C546.037 300.23 544.851 300.671 543.495 300.671Z" fill="#FBF48E"/>
</svg>
