<svg width="1208" height="195" viewBox="0 0 1208 195" fill="none" xmlns="http://www.w3.org/2000/svg">
<path d="M145.101 22.6001C146.034 21.9334 146.801 22.1334 147.401 23.2001C147.801 23.8001 147.534 24.5001 146.601 25.3001C145.401 26.3001 143.534 26.8001 141.001 26.8001C139.001 26.8001 137.367 26.1334 136.101 24.8001C134.434 23.2668 133.601 21.3001 133.601 18.9001C133.601 16.2334 134.167 14.0668 135.301 12.4001C136.767 10.3334 138.601 9.2001 140.801 9.0001C142.067 8.93343 143.234 9.06677 144.301 9.4001C145.567 9.86677 146.401 10.4334 146.801 11.1001C147.467 12.1001 147.434 12.8668 146.701 13.4001C146.234 13.8001 145.467 13.6001 144.401 12.8001C143.134 11.8668 141.701 11.6668 140.101 12.2001C139.234 12.4668 138.434 13.1001 137.701 14.1001C136.901 15.3001 136.501 16.6668 136.501 18.2001C136.434 19.6001 136.834 20.9001 137.701 22.1001C138.501 23.1668 139.601 23.7334 141.001 23.8001C142.467 23.8668 143.834 23.4668 145.101 22.6001V22.6001ZM158.301 12.4001C156.834 12.4001 155.767 12.9001 155.101 13.9001C154.034 15.3001 153.501 16.9001 153.501 18.7001C153.501 20.3668 153.867 21.6334 154.601 22.5001C155.401 23.3001 156.334 23.7001 157.401 23.7001C158.534 23.7001 159.501 23.3001 160.301 22.5001C161.167 21.5668 161.601 20.1001 161.601 18.1001C161.667 14.2334 160.567 12.3334 158.301 12.4001V12.4001ZM158.101 9.1001C162.501 9.1001 164.667 12.2001 164.601 18.4001C164.601 21.0001 164.034 23.0001 162.901 24.4001C161.634 26.0001 159.667 26.8001 157.001 26.8001C155.067 26.8001 153.434 26.0001 152.101 24.4001C150.901 23.0001 150.301 21.0001 150.301 18.4001C150.301 15.9334 151.034 13.7668 152.501 11.9001C153.901 10.0334 155.767 9.1001 158.101 9.1001V9.1001ZM170.401 8.4001C171.534 8.4001 172.067 8.93343 172.001 10.0001C172.001 10.2668 172.001 10.5668 172.001 10.9001C173.201 9.83343 174.701 9.3001 176.501 9.3001C180.567 9.3001 182.567 11.7668 182.501 16.7001L182.301 24.7001C182.301 26.0334 181.801 26.7334 180.801 26.8001C179.601 26.9334 179.034 26.3334 179.101 25.0001L179.301 17.4001C179.367 14.4001 178.501 12.8334 176.701 12.7001C175.234 12.6334 173.634 13.4334 171.901 15.1001L171.701 24.9001C171.634 26.0334 171.034 26.6001 169.901 26.6001C168.967 26.6001 168.501 26.0334 168.501 24.9001L168.901 9.9001C168.901 8.9001 169.401 8.4001 170.401 8.4001ZM191.601 0.100098C192.667 0.100098 193.201 0.633431 193.201 1.7001C193.201 4.43343 193.167 6.93343 193.101 9.2001L196.301 9.1001C197.634 9.1001 198.301 9.66676 198.301 10.8001C198.301 11.8668 197.667 12.4001 196.401 12.4001C195.267 12.4001 194.134 12.4001 193.001 12.4001L192.701 25.0001C192.701 26.1334 192.101 26.7001 190.901 26.7001C189.967 26.7001 189.501 26.1001 189.501 24.9001L189.801 12.4001C188.534 12.4001 187.267 12.4001 186.001 12.4001C185.067 12.4001 184.601 11.8668 184.601 10.8001C184.601 9.73343 185.134 9.2001 186.201 9.2001C187.401 9.2001 188.634 9.2001 189.901 9.2001L190.101 1.6001C190.101 0.600098 190.601 0.100098 191.601 0.100098V0.100098ZM207.301 26.9001C202.501 26.9001 200.067 24.3334 200.001 19.2001C200.001 15.8001 201.101 13.2001 203.301 11.4001C205.901 9.26677 208.601 8.63343 211.401 9.5001C211.734 9.23343 212.234 9.2001 212.901 9.4001C214.167 9.66677 214.667 10.5001 214.401 11.9001C214.201 13.2334 214.067 15.5001 214.001 18.7001C213.934 21.3001 214.234 23.1334 214.901 24.2001C215.767 25.7334 215.634 26.6334 214.501 26.9001C213.167 27.1668 212.367 26.6001 212.101 25.2001C209.901 26.3334 208.301 26.9001 207.301 26.9001V26.9001ZM209.201 23.7001C209.601 23.5668 210.267 23.1001 211.201 22.3001C210.801 17.6334 210.834 14.4334 211.301 12.7001C210.301 12.1001 209.234 11.9334 208.101 12.2001C207.301 12.4001 206.667 12.6668 206.201 13.0001C204.267 14.4001 203.267 16.3668 203.201 18.9001C203.201 22.1668 204.301 23.8668 206.501 24.0001C207.434 24.0668 208.334 23.9668 209.201 23.7001ZM219.801 8.4001C220.934 8.4001 221.501 8.93343 221.501 10.0001L221.401 10.6001C222.401 9.73343 223.567 9.3001 224.901 9.3001C227.167 9.3001 228.701 10.1001 229.501 11.7001C230.567 10.1001 232.201 9.3001 234.401 9.3001C238.467 9.3001 240.467 11.7668 240.401 16.7001L240.301 24.7001C240.234 25.9668 239.701 26.6668 238.701 26.8001C237.567 26.8668 237.001 26.2668 237.001 25.0001L237.101 17.5001C237.167 14.3668 236.334 12.7668 234.601 12.7001C232.667 12.6334 231.334 13.5334 230.601 15.4001C230.601 15.4001 230.601 15.7334 230.601 16.4001L230.401 24.5001C230.334 25.7668 229.801 26.4334 228.801 26.5001C227.734 26.6334 227.201 26.0334 227.201 24.7001L227.401 17.3001C227.467 14.3001 226.667 12.7668 225.001 12.7001C223.134 12.6334 221.901 13.7001 221.301 15.9001L221.001 24.8001C221.001 26.0001 220.434 26.6001 219.301 26.6001C218.367 26.5334 217.901 25.9334 217.901 24.8001L218.301 9.9001C218.301 8.9001 218.801 8.4001 219.801 8.4001V8.4001ZM246.701 1.8001C246.767 1.8001 246.801 1.8001 246.801 1.8001C247.134 1.8001 247.467 1.9001 247.801 2.1001C248.134 2.3001 248.401 2.56676 248.601 2.9001C248.734 3.16676 248.801 3.46676 248.801 3.8001C248.801 3.86676 248.801 3.93343 248.801 4.0001C248.734 4.4001 248.601 4.73343 248.401 5.0001C248.201 5.33343 247.967 5.53343 247.701 5.6001C247.434 5.73343 247.134 5.8001 246.801 5.8001C246.734 5.8001 246.701 5.8001 246.701 5.8001C246.367 5.8001 246.067 5.73343 245.801 5.6001C245.467 5.4001 245.234 5.13343 245.101 4.8001C244.901 4.53343 244.801 4.2001 244.801 3.8001C244.801 3.46676 244.867 3.16676 245.001 2.9001C245.201 2.56676 245.434 2.3001 245.701 2.1001C246.034 1.9001 246.367 1.8001 246.701 1.8001V1.8001ZM246.601 9.1001C247.667 9.16676 248.167 9.86676 248.101 11.2001L247.901 24.6001C247.901 26.0668 247.367 26.8001 246.301 26.8001C245.167 26.8001 244.634 26.1334 244.701 24.8001L244.901 11.2001C244.967 9.8001 245.534 9.1001 246.601 9.1001V9.1001ZM255.001 8.4001C256.134 8.4001 256.667 8.93343 256.601 10.0001C256.601 10.2668 256.601 10.5668 256.601 10.9001C257.734 9.83343 259.234 9.3001 261.101 9.3001C265.167 9.3001 267.167 11.7668 267.101 16.7001L266.901 24.7001C266.901 26.0334 266.401 26.7334 265.401 26.8001C264.201 26.9334 263.634 26.3334 263.701 25.0001L263.901 17.4001C263.967 14.4001 263.101 12.8334 261.301 12.7001C259.834 12.6334 258.234 13.4334 256.501 15.1001L256.301 24.9001C256.234 26.0334 255.634 26.6001 254.501 26.6001C253.501 26.6001 253.034 26.0334 253.101 24.9001L253.501 9.9001C253.501 8.9001 254.001 8.4001 255.001 8.4001V8.4001ZM276.301 26.9001C271.501 26.9001 269.101 24.3334 269.101 19.2001C269.034 15.8001 270.134 13.2001 272.401 11.4001C275.001 9.26677 277.701 8.63343 280.501 9.5001C280.767 9.23343 281.234 9.2001 281.901 9.4001C283.234 9.66677 283.767 10.5001 283.501 11.9001C283.234 13.2334 283.067 15.5001 283.001 18.7001C283.001 21.3001 283.301 23.1334 283.901 24.2001C284.834 25.7334 284.701 26.6334 283.501 26.9001C282.167 27.1668 281.401 26.6001 281.201 25.2001C278.934 26.3334 277.301 26.9001 276.301 26.9001V26.9001ZM278.201 23.7001C278.601 23.5668 279.267 23.1001 280.201 22.3001C279.867 17.6334 279.934 14.4334 280.401 12.7001C279.334 12.1001 278.234 11.9334 277.101 12.2001C276.301 12.4001 275.667 12.6668 275.201 13.0001C273.334 14.4001 272.334 16.3668 272.201 18.9001C272.267 22.1668 273.401 23.8668 275.601 24.0001C276.534 24.0668 277.401 23.9668 278.201 23.7001ZM293.001 0.100098C294.134 0.100098 294.701 0.633431 294.701 1.7001C294.701 4.43343 294.634 6.93343 294.501 9.2001L297.801 9.1001C299.134 9.1001 299.801 9.66676 299.801 10.8001C299.801 11.8668 299.167 12.4001 297.901 12.4001C296.767 12.4001 295.634 12.4001 294.501 12.4001L294.201 25.0001C294.201 26.1334 293.601 26.7001 292.401 26.7001C291.467 26.7001 291.001 26.1001 291.001 24.9001L291.301 12.4001C290.034 12.4001 288.767 12.4001 287.501 12.4001C286.567 12.4001 286.101 11.8668 286.101 10.8001C286.101 9.73343 286.634 9.2001 287.701 9.2001C288.901 9.2001 290.134 9.2001 291.401 9.2001L291.601 1.6001C291.601 0.600098 292.067 0.100098 293.001 0.100098V0.100098ZM315.701 17.5001L304.801 19.0001C304.867 20.2001 305.434 21.2668 306.501 22.2001C307.701 23.2668 309.034 23.8001 310.501 23.8001C312.701 23.8001 314.201 23.3668 315.001 22.5001C315.667 21.7001 316.234 21.2334 316.701 21.1001C317.234 21.0334 317.601 21.2001 317.801 21.6001C318.334 22.6001 318.101 23.5334 317.101 24.4001C315.367 25.9334 313.101 26.7001 310.301 26.7001C308.301 26.7001 306.534 26.0668 305.001 24.8001C303.067 23.2001 302.101 21.0668 302.101 18.4001C302.101 16.2001 302.701 14.2334 303.901 12.5001C305.434 10.3001 307.367 9.13343 309.701 9.0001C312.234 8.86676 314.201 9.46676 315.601 10.8001C316.867 12.1334 317.501 13.6001 317.501 15.2001C317.434 16.5334 316.834 17.3001 315.701 17.5001ZM305.201 16.4001L314.701 15.0001C314.501 14.0668 314.001 13.3334 313.201 12.8001C312.267 12.2001 311.267 11.9001 310.201 11.9001C308.734 11.9001 307.467 12.5668 306.401 13.9001C305.867 14.5001 305.467 15.3334 305.201 16.4001ZM325.101 23.7001C327.501 23.8334 328.967 23.5001 329.501 22.7001C329.901 22.0334 329.667 21.2334 328.801 20.3001C328.201 19.6334 326.834 19.1668 324.701 18.9001C322.501 18.5668 321.234 17.7001 320.901 16.3001C320.634 15.2334 320.701 14.1334 321.101 13.0001C321.567 11.8001 322.267 10.8668 323.201 10.2001C324.267 9.46676 325.501 9.03343 326.901 8.9001C328.434 8.76677 329.801 8.96676 331.001 9.5001C332.534 10.3001 333.367 11.1668 333.501 12.1001C333.634 12.7668 333.434 13.3001 332.901 13.7001C332.301 14.1668 331.367 13.8001 330.101 12.6001C329.501 12.0001 328.601 11.7334 327.401 11.8001C326.067 11.8668 325.101 12.2668 324.501 13.0001C323.967 13.6001 323.801 14.2334 324.001 14.9001C324.201 15.5001 324.967 15.8668 326.301 16.0001C327.301 16.1334 328.234 16.4001 329.101 16.8001C330.301 17.3334 331.134 17.8668 331.601 18.4001C332.667 19.7334 333.134 21.0668 333.001 22.4001C332.801 23.8001 332.034 24.9334 330.701 25.8001C329.634 26.5334 328.201 26.9001 326.401 26.9001C324.934 26.9668 323.701 26.8334 322.701 26.5001C322.167 26.3668 321.467 26.0668 320.601 25.6001C319.867 25.1334 319.467 24.6001 319.401 24.0001C319.401 23.2668 319.634 22.7334 320.101 22.4001C320.701 22.0001 321.401 22.0668 322.201 22.6001C323.134 23.2668 324.101 23.6334 325.101 23.7001V23.7001ZM351.001 23.7001C353.401 23.8334 354.867 23.5001 355.401 22.7001C355.801 22.0334 355.567 21.2334 354.701 20.3001C354.101 19.6334 352.734 19.1668 350.601 18.9001C348.401 18.5668 347.134 17.7001 346.801 16.3001C346.534 15.2334 346.634 14.1334 347.101 13.0001C347.501 11.8001 348.167 10.8668 349.101 10.2001C350.167 9.46676 351.401 9.03343 352.801 8.9001C354.334 8.76677 355.701 8.96676 356.901 9.5001C358.434 10.3001 359.267 11.1668 359.401 12.1001C359.534 12.7668 359.334 13.3001 358.801 13.7001C358.201 14.1668 357.301 13.8001 356.101 12.6001C355.434 12.0001 354.501 11.7334 353.301 11.8001C352.034 11.8668 351.067 12.2668 350.401 13.0001C349.867 13.6001 349.734 14.2334 350.001 14.9001C350.134 15.5001 350.867 15.8668 352.201 16.0001C353.201 16.1334 354.134 16.4001 355.001 16.8001C356.201 17.3334 357.034 17.8668 357.501 18.4001C358.567 19.7334 359.034 21.0668 358.901 22.4001C358.701 23.8001 357.934 24.9334 356.601 25.8001C355.534 26.5334 354.101 26.9001 352.301 26.9001C350.834 26.9668 349.634 26.8334 348.701 26.5001C348.101 26.3668 347.367 26.0668 346.501 25.6001C345.767 25.1334 345.367 24.6001 345.301 24.0001C345.301 23.2668 345.534 22.7334 346.001 22.4001C346.601 22.0001 347.301 22.0668 348.101 22.6001C349.034 23.2668 350.001 23.6334 351.001 23.7001V23.7001ZM370.001 12.4001C368.601 12.4001 367.534 12.9001 366.801 13.9001C365.734 15.3001 365.201 16.9001 365.201 18.7001C365.201 20.3668 365.601 21.6334 366.401 22.5001C367.201 23.3001 368.101 23.7001 369.101 23.7001C370.301 23.7001 371.301 23.3001 372.101 22.5001C372.967 21.5668 373.401 20.1001 373.401 18.1001C373.401 14.2334 372.267 12.3334 370.001 12.4001V12.4001ZM369.901 9.1001C374.234 9.1001 376.401 12.2001 376.401 18.4001C376.334 21.0001 375.734 23.0001 374.601 24.4001C373.334 26.0001 371.367 26.8001 368.701 26.8001C366.834 26.8001 365.234 26.0001 363.901 24.4001C362.701 23.0001 362.101 21.0001 362.101 18.4001C362.101 15.9334 362.801 13.7668 364.201 11.9001C365.601 10.0334 367.501 9.1001 369.901 9.1001ZM383.101 1.8001C383.101 1.8001 383.134 1.8001 383.201 1.8001C383.534 1.8001 383.867 1.9001 384.201 2.1001C384.534 2.3001 384.801 2.56676 385.001 2.9001C385.134 3.16676 385.201 3.46676 385.201 3.8001C385.201 3.86676 385.201 3.93343 385.201 4.0001C385.134 4.4001 385.001 4.73343 384.801 5.0001C384.601 5.33343 384.367 5.53343 384.101 5.6001C383.834 5.73343 383.534 5.8001 383.201 5.8001C383.134 5.8001 383.101 5.8001 383.101 5.8001C382.767 5.8001 382.434 5.73343 382.101 5.6001C381.834 5.4001 381.601 5.13343 381.401 4.8001C381.267 4.53343 381.201 4.2001 381.201 3.8001C381.201 3.46676 381.267 3.16676 381.401 2.9001C381.601 2.56676 381.834 2.3001 382.101 2.1001C382.434 1.9001 382.767 1.8001 383.101 1.8001V1.8001ZM383.001 9.1001C384.001 9.16676 384.501 9.86676 384.501 11.2001L384.301 24.6001C384.234 26.0668 383.701 26.8001 382.701 26.8001C381.567 26.8001 381.034 26.1334 381.101 24.8001L381.301 11.2001C381.367 9.8001 381.934 9.1001 383.001 9.1001V9.1001ZM392.201 0.100098C393.267 0.100098 393.801 0.633431 393.801 1.7001L393.301 25.0001C393.301 26.1334 392.734 26.7001 391.601 26.7001C390.601 26.7001 390.101 26.1001 390.101 24.9001L390.701 1.6001C390.701 0.600098 391.201 0.100098 392.201 0.100098V0.100098ZM414.401 26.9001C409.534 26.9001 407.101 24.3334 407.101 19.2001C407.034 15.8001 408.134 13.2001 410.401 11.4001C413.001 9.26677 415.701 8.63343 418.501 9.5001C418.834 9.23343 419.301 9.2001 419.901 9.4001C421.234 9.66677 421.767 10.5001 421.501 11.9001C421.234 13.2334 421.067 15.5001 421.001 18.7001C421.001 21.3001 421.301 23.1334 421.901 24.2001C422.834 25.7334 422.701 26.6334 421.501 26.9001C420.167 27.1668 419.401 26.6001 419.201 25.2001C417.001 26.3334 415.401 26.9001 414.401 26.9001ZM416.201 23.7001C416.601 23.5668 417.267 23.1001 418.201 22.3001C417.867 17.6334 417.934 14.4334 418.401 12.7001C417.334 12.1001 416.234 11.9334 415.101 12.2001C414.301 12.4001 413.667 12.6668 413.201 13.0001C411.334 14.4001 410.334 16.3668 410.201 18.9001C410.267 22.1668 411.401 23.8668 413.601 24.0001C414.534 24.0668 415.401 23.9668 416.201 23.7001ZM427.201 8.4001C428.267 8.4001 428.801 8.93343 428.801 10.0001C428.801 10.2668 428.801 10.5668 428.801 10.9001C429.934 9.83343 431.434 9.3001 433.301 9.3001C437.367 9.3001 439.334 11.7668 439.201 16.7001L439.101 24.7001C439.101 26.0334 438.601 26.7334 437.601 26.8001C436.401 26.9334 435.834 26.3334 435.901 25.0001L436.001 17.4001C436.134 14.4001 435.301 12.8334 433.501 12.7001C432.034 12.6334 430.434 13.4334 428.701 15.1001L428.401 24.9001C428.401 26.0334 427.834 26.6001 426.701 26.6001C425.701 26.6001 425.234 26.0334 425.301 24.9001L425.601 9.9001C425.667 8.9001 426.201 8.4001 427.201 8.4001V8.4001ZM456.501 0.100098C457.634 0.100098 458.201 0.633431 458.201 1.7001L457.701 25.0001C457.701 26.1334 457.101 26.7001 455.901 26.7001C455.034 26.7001 454.567 26.2334 454.501 25.3001C452.901 26.3001 451.201 26.8001 449.401 26.8001C447.534 26.8001 445.901 26.1001 444.501 24.7001C442.901 23.1001 442.067 21.2334 442.001 19.1001C441.867 16.2334 442.601 13.8334 444.201 11.9001C445.734 10.1001 447.701 9.2001 450.101 9.2001C451.367 9.2001 452.467 9.46676 453.401 10.0001C453.934 10.2668 454.401 10.5668 454.801 10.9001L455.101 1.6001C455.101 0.600098 455.567 0.100098 456.501 0.100098V0.100098ZM454.601 21.7001C454.734 19.4334 454.801 17.0668 454.801 14.6001C452.867 12.6001 450.967 11.8334 449.101 12.3001C447.767 12.6334 446.801 13.1668 446.201 13.9001C445.334 14.9668 444.901 16.4334 444.901 18.3001C444.834 19.5668 445.267 20.8001 446.201 22.0001C446.934 22.9334 448.001 23.5001 449.401 23.7001C450.934 23.8334 452.667 23.1668 454.601 21.7001V21.7001ZM476.001 23.7001C478.401 23.8334 479.867 23.5001 480.401 22.7001C480.801 22.0334 480.567 21.2334 479.701 20.3001C479.101 19.6334 477.734 19.1668 475.601 18.9001C473.401 18.5668 472.134 17.7001 471.801 16.3001C471.534 15.2334 471.601 14.1334 472.001 13.0001C472.467 11.8001 473.167 10.8668 474.101 10.2001C475.167 9.46676 476.401 9.03343 477.801 8.9001C479.334 8.76677 480.701 8.96676 481.901 9.5001C483.434 10.3001 484.267 11.1668 484.401 12.1001C484.534 12.7668 484.334 13.3001 483.801 13.7001C483.201 14.1668 482.267 13.8001 481.001 12.6001C480.401 12.0001 479.501 11.7334 478.301 11.8001C476.967 11.8668 476.001 12.2668 475.401 13.0001C474.867 13.6001 474.701 14.2334 474.901 14.9001C475.101 15.5001 475.867 15.8668 477.201 16.0001C478.201 16.1334 479.134 16.4001 480.001 16.8001C481.201 17.3334 482.034 17.8668 482.501 18.4001C483.567 19.7334 484.034 21.0668 483.901 22.4001C483.701 23.8001 482.934 24.9334 481.601 25.8001C480.534 26.5334 479.101 26.9001 477.301 26.9001C475.834 26.9668 474.601 26.8334 473.601 26.5001C473.067 26.3668 472.367 26.0668 471.501 25.6001C470.767 25.1334 470.367 24.6001 470.301 24.0001C470.301 23.2668 470.534 22.7334 471.001 22.4001C471.601 22.0001 472.301 22.0668 473.101 22.6001C474.034 23.2668 475.001 23.6334 476.001 23.7001V23.7001ZM499.601 27.2001C498.467 27.2001 497.901 26.6668 497.901 25.6001V24.7001C496.767 25.7668 495.267 26.3001 493.401 26.3001C489.401 26.3001 487.401 23.8334 487.401 18.9001L487.501 11.0001C487.501 9.73343 488.034 9.03343 489.101 8.9001C490.234 8.83343 490.767 9.43343 490.701 10.7001V17.8001C490.701 20.4001 491.101 21.9668 491.901 22.5001C493.034 23.2334 494.367 23.2334 495.901 22.5001C497.301 21.7668 498.034 20.5334 498.101 18.8001L498.301 10.6001C498.301 9.46676 498.867 8.9001 500.001 8.9001C501.001 8.9001 501.467 9.5001 501.401 10.7001L501.001 25.7001C501.001 26.7001 500.534 27.2001 499.601 27.2001V27.2001ZM507.101 0.100098C508.234 0.100098 508.801 0.633431 508.801 1.7001L508.601 10.5001C508.867 10.3668 509.167 10.2001 509.501 10.0001C510.434 9.46676 511.567 9.2001 512.901 9.2001C515.234 9.2001 517.167 10.1001 518.701 11.9001C520.367 13.8334 521.101 16.2334 520.901 19.1001C520.834 21.3001 520.001 23.1668 518.401 24.7001C516.934 26.1001 515.301 26.8001 513.501 26.8001C511.634 26.8001 509.901 26.2668 508.301 25.2001C508.167 26.2001 507.567 26.7001 506.501 26.7001C505.567 26.7001 505.101 26.1001 505.101 24.9001L505.601 1.6001C505.667 0.600098 506.167 0.100098 507.101 0.100098V0.100098ZM513.501 23.7001C514.967 23.5001 516.034 22.9334 516.701 22.0001C517.567 20.8001 518.034 19.5668 518.101 18.3001C518.101 16.5001 517.634 15.0668 516.701 14.0001C515.901 13.1334 514.934 12.5668 513.801 12.3001C512.067 11.9001 510.301 12.5668 508.501 14.3001L508.301 21.6001C510.367 23.1334 512.101 23.8334 513.501 23.7001V23.7001ZM528.801 23.7001C531.201 23.8334 532.667 23.5001 533.201 22.7001C533.601 22.0334 533.367 21.2334 532.501 20.3001C531.901 19.6334 530.534 19.1668 528.401 18.9001C526.201 18.5668 524.934 17.7001 524.601 16.3001C524.334 15.2334 524.401 14.1334 524.801 13.0001C525.267 11.8001 525.967 10.8668 526.901 10.2001C527.967 9.46676 529.201 9.03343 530.601 8.9001C532.134 8.76677 533.501 8.96676 534.701 9.5001C536.234 10.3001 537.067 11.1668 537.201 12.1001C537.334 12.7668 537.134 13.3001 536.601 13.7001C536.001 14.1668 535.067 13.8001 533.801 12.6001C533.201 12.0001 532.301 11.7334 531.101 11.8001C529.767 11.8668 528.801 12.2668 528.201 13.0001C527.667 13.6001 527.501 14.2334 527.701 14.9001C527.901 15.5001 528.667 15.8668 530.001 16.0001C531.001 16.1334 531.934 16.4001 532.801 16.8001C534.001 17.3334 534.834 17.8668 535.301 18.4001C536.367 19.7334 536.834 21.0668 536.701 22.4001C536.501 23.8001 535.734 24.9334 534.401 25.8001C533.334 26.5334 531.901 26.9001 530.101 26.9001C528.634 26.9668 527.401 26.8334 526.401 26.5001C525.867 26.3668 525.167 26.0668 524.301 25.6001C523.567 25.1334 523.167 24.6001 523.101 24.0001C523.101 23.2668 523.334 22.7334 523.801 22.4001C524.401 22.0001 525.101 22.0668 525.901 22.6001C526.834 23.2668 527.801 23.6334 528.801 23.7001V23.7001ZM552.401 27.2001C551.267 27.2001 550.701 26.6668 550.701 25.6001V24.7001C549.567 25.7668 548.067 26.3001 546.201 26.3001C542.201 26.3001 540.234 23.8334 540.301 18.9001V11.0001C540.301 9.73343 540.834 9.03343 541.901 8.9001C543.034 8.83343 543.567 9.43343 543.501 10.7001V17.8001C543.501 20.4001 543.901 21.9668 544.701 22.5001C545.834 23.2334 547.167 23.2334 548.701 22.5001C550.101 21.7668 550.834 20.5334 550.901 18.8001L551.101 10.6001C551.101 9.46676 551.667 8.9001 552.801 8.9001C553.801 8.9001 554.267 9.5001 554.201 10.7001L553.901 25.7001C553.834 26.7001 553.334 27.2001 552.401 27.2001V27.2001ZM559.701 8.4001C560.767 8.4001 561.301 8.93343 561.301 10.0001C561.301 10.2001 561.301 10.4001 561.301 10.6001C562.501 9.66676 563.701 9.2001 564.901 9.2001C566.301 9.13343 567.467 9.33343 568.401 9.8001C570.067 10.6001 570.734 11.4668 570.401 12.4001C569.934 13.7334 569.101 14.0001 567.901 13.2001C566.901 12.5334 565.801 12.3001 564.601 12.5001C563.334 12.7668 562.201 13.4001 561.201 14.4001L561.001 25.0001C560.934 26.1334 560.334 26.7001 559.201 26.7001C558.267 26.7001 557.801 26.1001 557.801 24.9001L558.201 9.9001C558.201 8.9001 558.701 8.4001 559.701 8.4001V8.4001ZM574.601 13.7001C573.467 13.7001 572.901 13.1668 572.901 12.1001C572.901 11.0334 573.534 10.5001 574.801 10.5001H577.301C577.434 6.36676 578.001 3.56676 579.001 2.1001C579.801 0.900098 581.367 0.266765 583.701 0.200098C586.034 0.133431 587.067 0.700097 586.801 1.9001C586.667 2.96676 585.934 3.43343 584.601 3.3001C582.601 3.1001 581.367 3.86676 580.901 5.6001C580.634 6.6001 580.501 8.23343 580.501 10.5001H584.201C585.601 10.5001 586.334 11.0001 586.401 12.0001C586.467 13.1334 585.801 13.7001 584.401 13.7001H580.401L580.201 25.1001C580.201 26.3001 579.634 26.9001 578.501 26.9001C577.501 26.8334 577.034 26.2334 577.101 25.1001L577.301 13.7001H574.601ZM596.301 26.9001C591.501 26.9001 589.101 24.3334 589.101 19.2001C589.034 15.8001 590.134 13.2001 592.401 11.4001C595.001 9.26677 597.701 8.63343 600.501 9.5001C600.767 9.23343 601.234 9.2001 601.901 9.4001C603.234 9.66677 603.767 10.5001 603.501 11.9001C603.234 13.2334 603.067 15.5001 603.001 18.7001C603.001 21.3001 603.301 23.1334 603.901 24.2001C604.834 25.7334 604.701 26.6334 603.501 26.9001C602.167 27.1668 601.401 26.6001 601.201 25.2001C598.934 26.3334 597.301 26.9001 596.301 26.9001ZM598.201 23.7001C598.601 23.5668 599.267 23.1001 600.201 22.3001C599.867 17.6334 599.934 14.4334 600.401 12.7001C599.334 12.1001 598.234 11.9334 597.101 12.2001C596.301 12.4001 595.667 12.6668 595.201 13.0001C593.334 14.4001 592.334 16.3668 592.201 18.9001C592.267 22.1668 593.401 23.8668 595.601 24.0001C596.534 24.0668 597.401 23.9668 598.201 23.7001V23.7001ZM618.201 22.6001C619.134 21.9334 619.901 22.1334 620.501 23.2001C620.834 23.8001 620.567 24.5001 619.701 25.3001C618.501 26.3001 616.634 26.8001 614.101 26.8001C612.101 26.8001 610.434 26.1334 609.101 24.8001C607.434 23.2668 606.601 21.3001 606.601 18.9001C606.601 16.2334 607.201 14.0668 608.401 12.4001C609.801 10.3334 611.601 9.2001 613.801 9.0001C615.067 8.93343 616.234 9.06677 617.301 9.4001C618.634 9.86677 619.501 10.4334 619.901 11.1001C620.567 12.1001 620.534 12.8668 619.801 13.4001C619.267 13.8001 618.501 13.6001 617.501 12.8001C616.234 11.8668 614.801 11.6668 613.201 12.2001C612.334 12.4668 611.534 13.1001 610.801 14.1001C610.001 15.3001 609.567 16.6668 609.501 18.2001C609.501 19.6001 609.934 20.9001 610.801 22.1001C611.601 23.1668 612.701 23.7334 614.101 23.8001C615.567 23.8668 616.934 23.4668 618.201 22.6001ZM637.101 17.5001L626.201 19.0001C626.267 20.2001 626.834 21.2668 627.901 22.2001C629.101 23.2668 630.434 23.8001 631.901 23.8001C634.101 23.8001 635.601 23.3668 636.401 22.5001C637.067 21.7001 637.634 21.2334 638.101 21.1001C638.634 21.0334 639.001 21.2001 639.201 21.6001C639.734 22.6001 639.501 23.5334 638.501 24.4001C636.767 25.9334 634.534 26.7001 631.801 26.7001C629.734 26.7001 627.934 26.0668 626.401 24.8001C624.467 23.2001 623.501 21.0668 623.501 18.4001C623.501 16.2001 624.101 14.2334 625.301 12.5001C626.834 10.3001 628.767 9.13343 631.101 9.0001C633.634 8.86676 635.601 9.46676 637.001 10.8001C638.267 12.1334 638.901 13.6001 638.901 15.2001C638.834 16.5334 638.234 17.3001 637.101 17.5001ZM626.601 16.4001L636.101 15.0001C635.901 14.0668 635.401 13.3334 634.601 12.8001C633.667 12.2001 632.667 11.9001 631.601 11.9001C630.134 11.9001 628.867 12.5668 627.801 13.9001C627.267 14.5001 626.867 15.3334 626.601 16.4001ZM663.201 11.3001L665.101 22.4001L668.601 11.3001C669.134 9.76676 669.801 9.06676 670.601 9.2001C671.667 9.33343 671.967 10.0668 671.501 11.4001L666.901 24.8001C666.434 26.1334 665.734 26.8001 664.801 26.8001C663.734 26.8001 663.067 26.1334 662.801 24.8001L661.101 16.0001L658.001 24.8001C657.534 26.1334 656.867 26.8001 656.001 26.8001C654.867 26.8001 654.167 26.1334 653.901 24.8001L651.401 11.4001C651.134 10.0668 651.501 9.33343 652.501 9.2001C653.434 9.0001 654.034 9.7001 654.301 11.3001L656.201 22.4001L659.801 11.3001C660.201 9.83343 660.767 9.1001 661.501 9.1001C662.367 9.1001 662.934 9.83343 663.201 11.3001V11.3001ZM680.701 26.9001C675.901 26.9001 673.467 24.3334 673.401 19.2001C673.401 15.8001 674.501 13.2001 676.701 11.4001C679.301 9.26677 682.001 8.63343 684.801 9.5001C685.134 9.23343 685.634 9.2001 686.301 9.4001C687.567 9.66677 688.067 10.5001 687.801 11.9001C687.601 13.2334 687.467 15.5001 687.401 18.7001C687.334 21.3001 687.634 23.1334 688.301 24.2001C689.167 25.7334 689.034 26.6334 687.901 26.9001C686.567 27.1668 685.767 26.6001 685.501 25.2001C683.301 26.3334 681.701 26.9001 680.701 26.9001V26.9001ZM682.601 23.7001C683.001 23.5668 683.667 23.1001 684.601 22.3001C684.201 17.6334 684.234 14.4334 684.701 12.7001C683.701 12.1001 682.634 11.9334 681.501 12.2001C680.701 12.4001 680.067 12.6668 679.601 13.0001C677.667 14.4001 676.667 16.3668 676.601 18.9001C676.601 22.1668 677.701 23.8668 679.901 24.0001C680.834 24.0668 681.734 23.9668 682.601 23.7001ZM697.401 0.100098C698.467 0.100098 699.001 0.633431 699.001 1.7001C699.001 4.43343 698.967 6.93343 698.901 9.2001L702.201 9.1001C703.467 9.1001 704.101 9.66676 704.101 10.8001C704.101 11.8668 703.501 12.4001 702.301 12.4001C701.101 12.4001 699.934 12.4001 698.801 12.4001L698.501 25.0001C698.501 26.1334 697.934 26.7001 696.801 26.7001C695.801 26.7001 695.334 26.1001 695.401 24.9001L695.701 12.4001C694.434 12.4001 693.167 12.4001 691.901 12.4001C690.967 12.4001 690.501 11.8668 690.501 10.8001C690.501 9.73343 691.001 9.2001 692.001 9.2001C693.267 9.2001 694.501 9.2001 695.701 9.2001L695.901 1.6001C695.901 0.600098 696.401 0.100098 697.401 0.100098V0.100098ZM720.001 17.5001L709.201 19.0001C709.267 20.2001 709.801 21.2668 710.801 22.2001C712.001 23.2668 713.367 23.8001 714.901 23.8001C717.101 23.8001 718.567 23.3668 719.301 22.5001C720.034 21.7001 720.634 21.2334 721.101 21.1001C721.634 21.0334 722.001 21.2001 722.201 21.6001C722.667 22.6001 722.434 23.5334 721.501 24.4001C719.767 25.9334 717.501 26.7001 714.701 26.7001C712.634 26.7001 710.834 26.0668 709.301 24.8001C707.434 23.2001 706.501 21.0668 706.501 18.4001C706.501 16.2001 707.101 14.2334 708.301 12.5001C709.767 10.3001 711.701 9.13343 714.101 9.0001C716.567 8.86676 718.501 9.46676 719.901 10.8001C721.234 12.1334 721.867 13.6001 721.801 15.2001C721.734 16.5334 721.134 17.3001 720.001 17.5001ZM709.501 16.4001L719.001 15.0001C718.867 14.0668 718.401 13.3334 717.601 12.8001C716.601 12.2001 715.567 11.9001 714.501 11.9001C713.034 11.9001 711.767 12.5668 710.701 13.9001C710.234 14.5001 709.834 15.3334 709.501 16.4001ZM727.101 8.4001C728.234 8.4001 728.801 8.93343 728.801 10.0001C728.801 10.2001 728.801 10.4001 728.801 10.6001C730.001 9.66676 731.167 9.2001 732.301 9.2001C733.767 9.13343 734.967 9.33343 735.901 9.8001C737.501 10.6001 738.167 11.4668 737.901 12.4001C737.434 13.7334 736.567 14.0001 735.301 13.2001C734.367 12.5334 733.267 12.3001 732.001 12.5001C730.801 12.7668 729.701 13.4001 728.701 14.4001L728.401 25.0001C728.334 26.1334 727.734 26.7001 726.601 26.7001C725.667 26.7001 725.201 26.1001 725.201 24.9001L725.601 9.9001C725.601 8.9001 726.101 8.4001 727.101 8.4001V8.4001ZM1121.6 79.1001C1122.73 79.1001 1123.3 79.6334 1123.3 80.7001C1123.3 83.4334 1123.23 85.9334 1123.1 88.2001L1126.4 88.1001C1127.73 88.1001 1128.4 88.6668 1128.4 89.8001C1128.4 90.8668 1127.77 91.4001 1126.5 91.4001C1125.37 91.4001 1124.23 91.4001 1123.1 91.4001L1122.8 104C1122.8 105.133 1122.2 105.7 1121 105.7C1120.07 105.7 1119.6 105.1 1119.6 103.9L1119.9 91.4001C1118.63 91.4001 1117.37 91.4001 1116.1 91.4001C1115.17 91.4001 1114.7 90.8668 1114.7 89.8001C1114.7 88.7334 1115.23 88.2001 1116.3 88.2001C1117.5 88.2001 1118.73 88.2001 1120 88.2001L1120.2 80.6001C1120.2 79.6001 1120.67 79.1001 1121.6 79.1001V79.1001ZM1138.5 91.4001C1137.1 91.4001 1136.07 91.9001 1135.4 92.9001C1134.27 94.3001 1133.7 95.9001 1133.7 97.7001C1133.7 99.3668 1134.1 100.633 1134.9 101.5C1135.7 102.3 1136.6 102.7 1137.6 102.7C1138.8 102.7 1139.8 102.3 1140.6 101.5C1141.47 100.567 1141.9 99.1001 1141.9 97.1001C1141.9 93.2334 1140.77 91.3334 1138.5 91.4001V91.4001ZM1138.4 88.1001C1142.73 88.1001 1144.9 91.2001 1144.9 97.4001C1144.9 100 1144.33 102 1143.2 103.4C1141.87 105 1139.9 105.8 1137.3 105.8C1135.37 105.8 1133.73 105 1132.4 103.4C1131.2 102 1130.6 100 1130.6 97.4001C1130.6 94.9334 1131.3 92.7668 1132.7 90.9001C1134.17 89.0334 1136.07 88.1001 1138.4 88.1001V88.1001ZM1148.6 88.5001C1149.4 87.8334 1150.27 88.0334 1151.2 89.1001L1156.2 94.8001L1161.1 89.1001C1162.03 88.0334 1162.93 87.8334 1163.8 88.5001C1164.67 89.1668 1164.63 89.9668 1163.7 90.9001L1158.2 97.1001L1163.3 102.6C1164.37 103.733 1164.47 104.667 1163.6 105.4C1162.87 106.067 1161.97 105.833 1160.9 104.7L1156.2 99.4001L1151.4 104.7C1150.33 105.833 1149.43 106.067 1148.7 105.4C1147.83 104.667 1147.93 103.733 1149 102.6L1154.2 97.1001L1148.6 90.9001C1147.67 89.9668 1147.67 89.1668 1148.6 88.5001V88.5001ZM1171.1 80.8001C1171.17 80.8001 1171.2 80.8001 1171.2 80.8001C1171.53 80.8001 1171.87 80.9001 1172.2 81.1001C1172.53 81.3001 1172.8 81.5668 1173 81.9001C1173.13 82.1668 1173.2 82.4668 1173.2 82.8001C1173.2 82.8668 1173.2 82.9334 1173.2 83.0001C1173.13 83.4001 1173 83.7334 1172.8 84.0001C1172.6 84.3334 1172.37 84.5334 1172.1 84.6001C1171.83 84.7334 1171.53 84.8001 1171.2 84.8001C1171.13 84.8001 1171.1 84.8001 1171.1 84.8001C1170.77 84.8001 1170.47 84.7334 1170.2 84.6001C1169.87 84.4001 1169.63 84.1334 1169.5 83.8001C1169.3 83.5334 1169.2 83.2001 1169.2 82.8001C1169.2 82.4668 1169.27 82.1668 1169.4 81.9001C1169.6 81.5668 1169.83 81.3001 1170.1 81.1001C1170.43 80.9001 1170.77 80.8001 1171.1 80.8001V80.8001ZM1171 88.1001C1172 88.1668 1172.5 88.8668 1172.5 90.2001L1172.3 103.6C1172.3 105.067 1171.77 105.8 1170.7 105.8C1169.57 105.8 1169.03 105.133 1169.1 103.8L1169.3 90.2001C1169.37 88.8001 1169.93 88.1001 1171 88.1001V88.1001ZM1179.4 87.4001C1180.53 87.4001 1181.07 87.9334 1181 89.0001C1181 89.2668 1181 89.5668 1181 89.9001C1182.13 88.8334 1183.63 88.3001 1185.5 88.3001C1189.57 88.3001 1191.57 90.7668 1191.5 95.7001L1191.3 103.7C1191.3 105.033 1190.8 105.733 1189.8 105.8C1188.6 105.933 1188.03 105.333 1188.1 104L1188.3 96.4001C1188.37 93.4001 1187.5 91.8334 1185.7 91.7001C1184.23 91.6334 1182.63 92.4334 1180.9 94.1001L1180.7 103.9C1180.63 105.033 1180.03 105.6 1178.9 105.6C1177.9 105.6 1177.43 105.033 1177.5 103.9L1177.9 88.9001C1177.9 87.9001 1178.4 87.4001 1179.4 87.4001ZM1198.9 102.7C1201.3 102.833 1202.8 102.5 1203.4 101.7C1203.8 101.033 1203.53 100.233 1202.6 99.3001C1202 98.6334 1200.67 98.1668 1198.6 97.9001C1196.33 97.5668 1195.03 96.7001 1194.7 95.3001C1194.5 94.2334 1194.6 93.1334 1195 92.0001C1195.47 90.8001 1196.17 89.8668 1197.1 89.2001C1198.1 88.4668 1199.3 88.0334 1200.7 87.9001C1202.3 87.7668 1203.7 87.9668 1204.9 88.5001C1206.43 89.3001 1207.27 90.1668 1207.4 91.1001C1207.47 91.7668 1207.27 92.3001 1206.8 92.7001C1206.2 93.1668 1205.27 92.8001 1204 91.6001C1203.4 91.0001 1202.5 90.7334 1201.3 90.8001C1199.97 90.8668 1199 91.2668 1198.4 92.0001C1197.87 92.6001 1197.7 93.2334 1197.9 93.9001C1198.1 94.5001 1198.83 94.8668 1200.1 95.0001C1201.17 95.1334 1202.13 95.4001 1203 95.8001C1204.2 96.3334 1205 96.8668 1205.4 97.4001C1206.53 98.7334 1207 100.067 1206.8 101.4C1206.67 102.8 1205.93 103.933 1204.6 104.8C1203.53 105.533 1202.1 105.9 1200.3 105.9C1198.77 105.967 1197.53 105.833 1196.6 105.5C1196 105.367 1195.3 105.067 1194.5 104.6C1193.77 104.133 1193.37 103.6 1193.3 103C1193.23 102.267 1193.47 101.733 1194 101.4C1194.6 101 1195.27 101.067 1196 101.6C1197 102.267 1197.97 102.633 1198.9 102.7V102.7ZM247.101 127.4C248.234 127.4 248.767 127.933 248.701 129C248.701 129.267 248.701 129.567 248.701 129.9C249.834 128.833 251.334 128.3 253.201 128.3C257.267 128.3 259.267 130.767 259.201 135.7L259.001 143.7C259.001 145.033 258.501 145.733 257.501 145.8C256.301 145.933 255.734 145.333 255.801 144L256.001 136.4C256.067 133.4 255.201 131.833 253.401 131.7C251.934 131.633 250.334 132.433 248.601 134.1L248.401 143.9C248.334 145.033 247.734 145.6 246.601 145.6C245.601 145.6 245.134 145.033 245.201 143.9L245.601 128.9C245.601 127.9 246.101 127.4 247.101 127.4V127.4ZM274.201 146.2C273.067 146.2 272.501 145.667 272.501 144.6L272.601 143.7C271.401 144.767 269.901 145.3 268.101 145.3C264.034 145.3 262.034 142.833 262.101 137.9V130C262.167 128.733 262.701 128.033 263.701 127.9C264.834 127.833 265.401 128.433 265.401 129.7L265.301 136.8C265.301 139.4 265.701 140.967 266.501 141.5C267.634 142.233 268.967 142.233 270.501 141.5C271.901 140.767 272.634 139.533 272.701 137.8L272.901 129.6C272.901 128.467 273.467 127.9 274.601 127.9C275.601 127.9 276.067 128.5 276.001 129.7L275.701 144.7C275.634 145.7 275.134 146.2 274.201 146.2V146.2ZM281.201 127.4C282.334 127.4 282.901 127.933 282.901 129L282.801 129.6C283.801 128.733 284.967 128.3 286.301 128.3C288.567 128.3 290.101 129.1 290.901 130.7C291.967 129.1 293.601 128.3 295.801 128.3C299.867 128.3 301.867 130.767 301.801 135.7L301.701 143.7C301.701 144.967 301.167 145.667 300.101 145.8C298.967 145.867 298.401 145.267 298.401 144L298.501 136.5C298.567 133.367 297.734 131.767 296.001 131.7C294.067 131.633 292.734 132.533 292.001 134.4C292.001 134.4 292.001 134.733 292.001 135.4L291.801 143.5C291.734 144.767 291.201 145.433 290.201 145.5C289.134 145.633 288.601 145.033 288.601 143.7L288.801 136.3C288.867 133.3 288.067 131.767 286.401 131.7C284.534 131.633 283.301 132.7 282.701 134.9L282.501 143.8C282.434 145 281.834 145.6 280.701 145.6C279.767 145.533 279.301 144.933 279.301 143.8L279.701 128.9C279.701 127.9 280.201 127.4 281.201 127.4V127.4ZM307.401 119.1C308.467 119.1 309.001 119.633 309.001 120.7L308.801 129.5C309.134 129.367 309.434 129.2 309.701 129C310.701 128.467 311.834 128.2 313.101 128.2C315.434 128.2 317.401 129.1 319.001 130.9C320.601 132.833 321.334 135.233 321.201 138.1C321.067 140.3 320.234 142.167 318.701 143.7C317.234 145.1 315.601 145.8 313.801 145.8C311.934 145.8 310.167 145.267 308.501 144.2C308.434 145.2 307.867 145.7 306.801 145.7C305.801 145.7 305.301 145.1 305.301 143.9L305.901 120.6C305.901 119.6 306.401 119.1 307.401 119.1V119.1ZM313.801 142.7C315.201 142.5 316.267 141.933 317.001 141C317.867 139.8 318.301 138.567 318.301 137.3C318.367 135.5 317.901 134.067 316.901 133C316.167 132.133 315.234 131.567 314.101 131.3C312.301 130.9 310.501 131.567 308.701 133.3L308.601 140.6C310.667 142.133 312.401 142.833 313.801 142.7V142.7ZM337.701 136.5L326.901 138C326.967 139.2 327.501 140.267 328.501 141.2C329.701 142.267 331.067 142.8 332.601 142.8C334.801 142.8 336.267 142.367 337.001 141.5C337.734 140.7 338.334 140.233 338.801 140.1C339.267 140.033 339.634 140.2 339.901 140.6C340.367 141.6 340.101 142.533 339.101 143.4C337.434 144.933 335.201 145.7 332.401 145.7C330.334 145.7 328.534 145.067 327.001 143.8C325.067 142.2 324.101 140.067 324.101 137.4C324.101 135.2 324.701 133.233 325.901 131.5C327.434 129.3 329.401 128.133 331.801 128C334.267 127.867 336.201 128.467 337.601 129.8C338.934 131.133 339.567 132.6 339.501 134.2C339.434 135.533 338.834 136.3 337.701 136.5V136.5ZM327.201 135.4L336.701 134C336.567 133.067 336.067 132.333 335.201 131.8C334.267 131.2 333.267 130.9 332.201 130.9C330.734 130.9 329.467 131.567 328.401 132.9C327.934 133.5 327.534 134.333 327.201 135.4ZM344.801 127.4C345.867 127.4 346.401 127.933 346.401 129C346.401 129.2 346.401 129.4 346.401 129.6C347.667 128.667 348.867 128.2 350.001 128.2C351.467 128.133 352.634 128.333 353.501 128.8C355.167 129.6 355.867 130.467 355.601 131.4C355.067 132.733 354.201 133 353.001 132.2C352.001 131.533 350.901 131.3 349.701 131.5C348.501 131.767 347.367 132.4 346.301 133.4L346.101 144C346.034 145.133 345.434 145.7 344.301 145.7C343.367 145.7 342.901 145.1 342.901 143.9L343.301 128.9C343.301 127.9 343.801 127.4 344.801 127.4V127.4ZM375.701 131.4C374.301 131.4 373.267 131.9 372.601 132.9C371.534 134.3 371.001 135.9 371.001 137.7C371.001 139.367 371.367 140.633 372.101 141.5C372.901 142.3 373.834 142.7 374.901 142.7C376.034 142.7 377.001 142.3 377.801 141.5C378.667 140.567 379.101 139.1 379.101 137.1C379.101 133.233 377.967 131.333 375.701 131.4V131.4ZM375.601 128.1C379.934 128.1 382.101 131.2 382.101 137.4C382.101 140 381.534 142 380.401 143.4C379.067 145 377.101 145.8 374.501 145.8C372.567 145.8 370.934 145 369.601 143.4C368.401 142 367.801 140 367.801 137.4C367.801 134.933 368.534 132.767 370.001 130.9C371.401 129.033 373.267 128.1 375.601 128.1V128.1ZM387.001 132.7C385.801 132.7 385.201 132.167 385.201 131.1C385.201 130.033 385.867 129.5 387.201 129.5H389.701C389.767 125.367 390.301 122.567 391.301 121.1C392.167 119.9 393.734 119.267 396.001 119.2C398.334 119.133 399.401 119.7 399.201 120.9C399.001 121.967 398.234 122.433 396.901 122.3C394.967 122.1 393.734 122.867 393.201 124.6C392.934 125.6 392.801 127.233 392.801 129.5H396.501C397.901 129.5 398.634 130 398.701 131C398.767 132.133 398.101 132.7 396.701 132.7H392.701L392.601 144.1C392.534 145.3 391.934 145.9 390.801 145.9C389.801 145.833 389.334 145.233 389.401 144.1L389.601 132.7H387.001ZM426.701 119.1C427.767 119.1 428.301 119.633 428.301 120.7L427.801 144C427.801 145.133 427.201 145.7 426.001 145.7C425.201 145.7 424.734 145.233 424.601 144.3C423.067 145.3 421.367 145.8 419.501 145.8C417.701 145.8 416.067 145.1 414.601 143.7C413.001 142.1 412.167 140.233 412.101 138.1C412.034 135.233 412.767 132.833 414.301 130.9C415.834 129.1 417.801 128.2 420.201 128.2C421.467 128.2 422.601 128.467 423.601 129C424.067 129.267 424.501 129.567 424.901 129.9L425.201 120.6C425.201 119.6 425.701 119.1 426.701 119.1V119.1ZM424.701 140.7C424.834 138.433 424.901 136.067 424.901 133.6C422.967 131.6 421.067 130.833 419.201 131.3C417.867 131.633 416.901 132.167 416.301 132.9C415.434 133.967 415.001 135.433 415.001 137.3C414.934 138.567 415.367 139.8 416.301 141C417.034 141.933 418.101 142.5 419.501 142.7C421.034 142.833 422.767 142.167 424.701 140.7V140.7ZM438.001 145.9C433.201 145.9 430.767 143.333 430.701 138.2C430.701 134.8 431.834 132.2 434.101 130.4C436.634 128.267 439.301 127.633 442.101 128.5C442.434 128.233 442.934 128.2 443.601 128.4C444.867 128.667 445.401 129.5 445.201 130.9C444.934 132.233 444.767 134.5 444.701 137.7C444.634 140.3 444.934 142.133 445.601 143.2C446.467 144.733 446.334 145.633 445.201 145.9C443.867 146.167 443.067 145.6 442.801 144.2C440.601 145.333 439.001 145.9 438.001 145.9ZM439.901 142.7C440.301 142.567 440.967 142.1 441.901 141.3C441.501 136.633 441.567 133.433 442.101 131.7C441.034 131.1 439.934 130.933 438.801 131.2C438.001 131.4 437.367 131.667 436.901 132C434.967 133.4 433.967 135.367 433.901 137.9C433.901 141.167 435.034 142.867 437.301 143C438.234 143.067 439.101 142.967 439.901 142.7ZM450.801 127.4C451.934 127.4 452.501 127.933 452.501 129C452.434 129.267 452.401 129.567 452.401 129.9C453.601 128.833 455.101 128.3 456.901 128.3C460.967 128.3 462.967 130.767 462.901 135.7L462.801 143.7C462.734 145.033 462.201 145.733 461.201 145.8C460.067 145.933 459.501 145.333 459.501 144L459.701 136.4C459.767 133.4 458.934 131.833 457.201 131.7C455.667 131.633 454.067 132.433 452.401 134.1L452.101 143.9C452.034 145.033 451.434 145.6 450.301 145.6C449.367 145.6 448.901 145.033 448.901 143.9L449.301 128.9C449.301 127.9 449.801 127.4 450.801 127.4V127.4ZM476.801 135.3C477.001 134.3 477.067 133.667 477.001 133.4C477.001 132 476.167 131.3 474.501 131.3C473.101 131.3 471.834 131.667 470.701 132.4C469.434 133.2 468.667 134.867 468.401 137.4C468.067 140.267 468.967 141.767 471.101 141.9C473.434 142.1 475.067 141.233 476.001 139.3C476.201 138.9 476.467 137.567 476.801 135.3V135.3ZM479.001 130C480.001 130.133 480.434 130.867 480.301 132.2L479.101 146C478.567 151.8 475.467 154.5 469.801 154.1C467.867 153.967 466.567 153.733 465.901 153.4C465.101 153.067 464.801 152.467 465.001 151.6C465.201 150.667 465.801 150.333 466.801 150.6C468.867 151.067 470.601 151.167 472.001 150.9C474.334 150.5 475.634 148.867 475.901 146L476.201 143.4C475.267 144.8 473.401 145.367 470.601 145.1C465.867 144.7 464.167 141.333 465.501 135C466.367 130.8 468.967 128.467 473.301 128C476.234 127.733 478.001 128.367 478.601 129.9C478.734 129.9 478.867 129.933 479.001 130ZM496.601 136.5L485.701 138C485.767 139.2 486.334 140.267 487.401 141.2C488.601 142.267 489.934 142.8 491.401 142.8C493.601 142.8 495.101 142.367 495.901 141.5C496.567 140.7 497.134 140.233 497.601 140.1C498.134 140.033 498.501 140.2 498.701 140.6C499.234 141.6 499.001 142.533 498.001 143.4C496.267 144.933 494.034 145.7 491.301 145.7C489.234 145.7 487.434 145.067 485.901 143.8C483.967 142.2 483.001 140.067 483.001 137.4C483.001 135.2 483.601 133.233 484.801 131.5C486.334 129.3 488.267 128.133 490.601 128C493.134 127.867 495.101 128.467 496.501 129.8C497.767 131.133 498.401 132.6 498.401 134.2C498.334 135.533 497.734 136.3 496.601 136.5V136.5ZM486.101 135.4L495.601 134C495.401 133.067 494.901 132.333 494.101 131.8C493.167 131.2 492.167 130.9 491.101 130.9C489.634 130.9 488.367 131.567 487.301 132.9C486.767 133.5 486.367 134.333 486.101 135.4ZM503.701 127.4C504.767 127.4 505.301 127.933 505.301 129C505.301 129.2 505.301 129.4 505.301 129.6C506.501 128.667 507.701 128.2 508.901 128.2C510.301 128.133 511.467 128.333 512.401 128.8C514.067 129.6 514.734 130.467 514.401 131.4C513.934 132.733 513.101 133 511.901 132.2C510.901 131.533 509.767 131.3 508.501 131.5C507.301 131.767 506.201 132.4 505.201 133.4L504.901 144C504.901 145.133 504.334 145.7 503.201 145.7C502.201 145.7 501.734 145.1 501.801 143.9L502.201 128.9C502.201 127.9 502.701 127.4 503.701 127.4V127.4ZM524.801 131.4C523.334 131.4 522.267 131.9 521.601 132.9C520.534 134.3 520.001 135.9 520.001 137.7C520.001 139.367 520.367 140.633 521.101 141.5C521.901 142.3 522.834 142.7 523.901 142.7C525.034 142.7 526.001 142.3 526.801 141.5C527.667 140.567 528.101 139.1 528.101 137.1C528.167 133.233 527.067 131.333 524.801 131.4V131.4ZM524.601 128.1C528.934 128.1 531.101 131.2 531.101 137.4C531.101 140 530.534 142 529.401 143.4C528.134 145 526.167 145.8 523.501 145.8C521.567 145.8 519.934 145 518.601 143.4C517.401 142 516.801 140 516.801 137.4C516.801 134.933 517.534 132.767 519.001 130.9C520.401 129.033 522.267 128.1 524.601 128.1V128.1ZM546.701 146.2C545.567 146.2 545.034 145.667 545.101 144.6V143.7C543.901 144.767 542.401 145.3 540.601 145.3C536.534 145.3 534.534 142.833 534.601 137.9L534.701 130C534.701 128.733 535.201 128.033 536.201 127.9C537.334 127.833 537.901 128.433 537.901 129.7V136.8C537.834 139.4 538.201 140.967 539.001 141.5C540.134 142.233 541.467 142.233 543.001 141.5C544.401 140.767 545.134 139.533 545.201 137.8L545.401 129.6C545.467 128.467 546.067 127.9 547.201 127.9C548.134 127.9 548.601 128.5 548.601 129.7L548.201 144.7C548.201 145.7 547.701 146.2 546.701 146.2V146.2ZM556.301 142.7C558.701 142.833 560.167 142.5 560.701 141.7C561.167 141.033 560.934 140.233 560.001 139.3C559.401 138.633 558.034 138.167 555.901 137.9C553.701 137.567 552.434 136.7 552.101 135.3C551.901 134.233 552.001 133.133 552.401 132C552.867 130.8 553.534 129.867 554.401 129.2C555.467 128.467 556.701 128.033 558.101 127.9C559.701 127.767 561.101 127.967 562.301 128.5C563.834 129.3 564.667 130.167 564.801 131.1C564.867 131.767 564.667 132.3 564.201 132.7C563.601 133.167 562.667 132.8 561.401 131.6C560.801 131 559.901 130.733 558.701 130.8C557.367 130.867 556.401 131.267 555.801 132C555.267 132.6 555.101 133.233 555.301 133.9C555.501 134.5 556.234 134.867 557.501 135C558.567 135.133 559.534 135.4 560.401 135.8C561.601 136.333 562.401 136.867 562.801 137.4C563.934 138.733 564.401 140.067 564.201 141.4C564.067 142.8 563.334 143.933 562.001 144.8C560.934 145.533 559.501 145.9 557.701 145.9C556.167 145.967 554.934 145.833 554.001 145.5C553.401 145.367 552.701 145.067 551.901 144.6C551.167 144.133 550.767 143.6 550.701 143C550.634 142.267 550.867 141.733 551.401 141.4C552.001 141 552.667 141.067 553.401 141.6C554.401 142.267 555.367 142.633 556.301 142.7V142.7ZM584.101 145.9C579.234 145.9 576.801 143.333 576.801 138.2C576.734 134.8 577.834 132.2 580.101 130.4C582.701 128.267 585.401 127.633 588.201 128.5C588.534 128.233 589.001 128.2 589.601 128.4C590.934 128.667 591.467 129.5 591.201 130.9C590.934 132.233 590.801 134.5 590.801 137.7C590.734 140.3 591.001 142.133 591.601 143.2C592.534 144.733 592.401 145.633 591.201 145.9C589.867 146.167 589.101 145.6 588.901 144.2C586.701 145.333 585.101 145.9 584.101 145.9V145.9ZM585.901 142.7C586.301 142.567 586.967 142.1 587.901 141.3C587.567 136.633 587.634 133.433 588.101 131.7C587.034 131.1 585.934 130.933 584.801 131.2C584.001 131.4 583.367 131.667 582.901 132C581.034 133.4 580.034 135.367 579.901 137.9C579.967 141.167 581.101 142.867 583.301 143C584.234 143.067 585.101 142.967 585.901 142.7V142.7ZM597.901 120.8C598.301 120.8 598.634 120.9 598.901 121.1C599.234 121.3 599.501 121.567 599.701 121.9C599.834 122.167 599.901 122.467 599.901 122.8C599.901 122.867 599.901 122.933 599.901 123C599.901 123.4 599.767 123.733 599.501 124C599.301 124.333 599.067 124.533 598.801 124.6C598.534 124.733 598.234 124.8 597.901 124.8C597.901 124.8 597.867 124.8 597.801 124.8C597.467 124.8 597.167 124.733 596.901 124.6C596.634 124.4 596.401 124.133 596.201 123.8C596.001 123.533 595.901 123.2 595.901 122.8C595.901 122.467 596.001 122.167 596.201 121.9C596.334 121.567 596.567 121.3 596.901 121.1C597.167 120.9 597.501 120.8 597.901 120.8V120.8ZM597.701 128.1C598.767 128.167 599.267 128.867 599.201 130.2L599.001 143.6C599.001 145.067 598.501 145.8 597.501 145.8C596.301 145.8 595.734 145.133 595.801 143.8L596.101 130.2C596.101 128.8 596.634 128.1 597.701 128.1V128.1ZM606.901 119.1C608.034 119.1 608.601 119.633 608.601 120.7L608.101 144C608.034 145.133 607.434 145.7 606.301 145.7C605.367 145.7 604.901 145.1 604.901 143.9L605.401 120.6C605.467 119.6 605.967 119.1 606.901 119.1V119.1ZM614.901 127.4C615.967 127.4 616.501 127.933 616.501 129V129.6C617.434 128.733 618.601 128.3 620.001 128.3C622.201 128.3 623.701 129.1 624.501 130.7C625.634 129.1 627.301 128.3 629.501 128.3C633.567 128.3 635.567 130.767 635.501 135.7L635.301 143.7C635.301 144.967 634.801 145.667 633.801 145.8C632.601 145.867 632.034 145.267 632.101 144L632.201 136.5C632.201 133.367 631.367 131.767 629.701 131.7C627.701 131.633 626.367 132.533 625.701 134.4C625.634 134.4 625.601 134.733 625.601 135.4L625.401 143.5C625.401 144.767 624.901 145.433 623.901 145.5C622.767 145.633 622.234 145.033 622.301 143.7L622.401 136.3C622.467 133.3 621.667 131.767 620.001 131.7C618.134 131.633 616.934 132.7 616.401 134.9L616.101 143.8C616.034 145 615.467 145.6 614.401 145.6C613.401 145.533 612.934 144.933 613.001 143.8L613.301 128.9C613.367 127.9 613.901 127.4 614.901 127.4V127.4ZM651.801 136.5L640.901 138C640.967 139.2 641.534 140.267 642.601 141.2C643.801 142.267 645.134 142.8 646.601 142.8C648.801 142.8 650.267 142.367 651.001 141.5C651.734 140.7 652.334 140.233 652.801 140.1C653.334 140.033 653.701 140.2 653.901 140.6C654.434 141.6 654.201 142.533 653.201 143.4C651.467 144.933 649.201 145.7 646.401 145.7C644.401 145.7 642.634 145.067 641.101 143.8C639.167 142.2 638.201 140.067 638.201 137.4C638.201 135.2 638.801 133.233 640.001 131.5C641.534 129.3 643.467 128.133 645.801 128C648.267 127.867 650.201 128.467 651.601 129.8C652.934 131.133 653.567 132.6 653.501 134.2C653.501 135.533 652.934 136.3 651.801 136.5V136.5ZM641.301 135.4L650.801 134C650.601 133.067 650.101 132.333 649.301 131.8C648.367 131.2 647.367 130.9 646.301 130.9C644.834 130.9 643.534 131.567 642.401 132.9C641.934 133.5 641.567 134.333 641.301 135.4ZM658.901 127.4C660.034 127.4 660.567 127.933 660.501 129C660.501 129.267 660.501 129.567 660.501 129.9C661.634 128.833 663.134 128.3 665.001 128.3C669.067 128.3 671.034 130.767 670.901 135.7L670.801 143.7C670.801 145.033 670.301 145.733 669.301 145.8C668.101 145.933 667.534 145.333 667.601 144L667.801 136.4C667.867 133.4 667.001 131.833 665.201 131.7C663.734 131.633 662.134 132.433 660.401 134.1L660.201 143.9C660.134 145.033 659.534 145.6 658.401 145.6C657.401 145.6 656.934 145.033 657.001 143.9L657.301 128.9C657.367 127.9 657.901 127.4 658.901 127.4V127.4ZM680.001 119.1C681.134 119.1 681.701 119.633 681.701 120.7C681.634 123.433 681.567 125.933 681.501 128.2L684.801 128.1C686.134 128.1 686.801 128.667 686.801 129.8C686.801 130.867 686.167 131.4 684.901 131.4C683.767 131.4 682.634 131.4 681.501 131.4L681.201 144C681.201 145.133 680.601 145.7 679.401 145.7C678.467 145.7 678.001 145.1 678.001 143.9L678.301 131.4C677.034 131.4 675.767 131.4 674.501 131.4C673.567 131.4 673.101 130.867 673.101 129.8C673.101 128.733 673.634 128.2 674.701 128.2C675.901 128.2 677.134 128.2 678.401 128.2L678.601 120.6C678.601 119.6 679.067 119.1 680.001 119.1V119.1ZM694.001 142.7C696.401 142.833 697.867 142.5 698.401 141.7C698.801 141.033 698.567 140.233 697.701 139.3C697.101 138.633 695.734 138.167 693.601 137.9C691.401 137.567 690.134 136.7 689.801 135.3C689.534 134.233 689.601 133.133 690.001 132C690.467 130.8 691.167 129.867 692.101 129.2C693.167 128.467 694.401 128.033 695.801 127.9C697.334 127.767 698.701 127.967 699.901 128.5C701.434 129.3 702.267 130.167 702.401 131.1C702.534 131.767 702.334 132.3 701.801 132.7C701.201 133.167 700.267 132.8 699.001 131.6C698.401 131 697.501 130.733 696.301 130.8C694.967 130.867 694.001 131.267 693.401 132C692.867 132.6 692.701 133.233 692.901 133.9C693.101 134.5 693.867 134.867 695.201 135C696.201 135.133 697.134 135.4 698.001 135.8C699.201 136.333 700.034 136.867 700.501 137.4C701.567 138.733 702.034 140.067 701.901 141.4C701.701 142.8 700.934 143.933 699.601 144.8C698.534 145.533 697.101 145.9 695.301 145.9C693.834 145.967 692.634 145.833 691.701 145.5C691.101 145.367 690.367 145.067 689.501 144.6C688.767 144.133 688.367 143.6 688.301 143C688.301 142.267 688.534 141.733 689.001 141.4C689.601 141 690.301 141.067 691.101 141.6C692.034 142.267 693.001 142.633 694.001 142.7V142.7ZM932.501 119.1C933.567 119.1 934.101 119.633 934.101 120.7C934.101 123.433 934.034 125.933 933.901 128.2L937.201 128.1C938.534 128.1 939.201 128.667 939.201 129.8C939.201 130.867 938.567 131.4 937.301 131.4C936.167 131.4 935.034 131.4 933.901 131.4L933.601 144C933.601 145.133 933.001 145.7 931.801 145.7C930.867 145.7 930.401 145.1 930.401 143.9L930.701 131.4C929.434 131.4 928.167 131.4 926.901 131.4C925.967 131.4 925.501 130.867 925.501 129.8C925.501 128.733 926.034 128.2 927.101 128.2C928.301 128.2 929.534 128.2 930.801 128.2L931.001 120.6C931.001 119.6 931.501 119.1 932.501 119.1V119.1ZM944.501 119C945.634 119 946.167 119.567 946.101 120.7L946.001 130.2C947.334 128.933 949.101 128.3 951.301 128.3C955.367 128.3 957.367 130.767 957.301 135.7L957.201 143.8C957.201 145.133 956.701 145.833 955.701 145.9C954.567 146.033 954.001 145.433 954.001 144.1V136.4C954.067 133.533 953.234 132.033 951.501 131.9C949.501 131.767 947.667 132.7 946.001 134.7L945.601 144C945.601 145.133 945.001 145.7 943.801 145.7C942.867 145.7 942.401 145.1 942.401 143.9L943.001 120.6C943.001 119.6 943.501 119.067 944.501 119V119ZM974.101 136.5L963.301 138C963.367 139.2 963.934 140.267 965.001 141.2C966.201 142.267 967.534 142.8 969.001 142.8C971.201 142.8 972.667 142.367 973.401 141.5C974.134 140.7 974.734 140.233 975.201 140.1C975.734 140.033 976.101 140.2 976.301 140.6C976.834 141.6 976.601 142.533 975.601 143.4C973.867 144.933 971.601 145.7 968.801 145.7C966.734 145.7 964.934 145.067 963.401 143.8C961.534 142.2 960.601 140.067 960.601 137.4C960.601 135.2 961.201 133.233 962.401 131.5C963.867 129.3 965.801 128.133 968.201 128C970.667 127.867 972.601 128.467 974.001 129.8C975.334 131.133 975.967 132.6 975.901 134.2C975.901 135.533 975.301 136.3 974.101 136.5ZM963.701 135.4L973.101 134C972.967 133.067 972.501 132.333 971.701 131.8C970.767 131.2 969.767 130.9 968.701 130.9C967.167 130.9 965.867 131.567 964.801 132.9C964.334 133.5 963.967 134.333 963.701 135.4ZM993.401 142.7C995.801 142.833 997.267 142.5 997.801 141.7C998.267 141.033 998.034 140.233 997.101 139.3C996.501 138.633 995.134 138.167 993.001 137.9C990.801 137.567 989.534 136.7 989.201 135.3C988.934 134.233 989.034 133.133 989.501 132C989.967 130.8 990.634 129.867 991.501 129.2C992.567 128.467 993.801 128.033 995.201 127.9C996.734 127.767 998.101 127.967 999.301 128.5C1000.83 129.3 1001.7 130.167 1001.9 131.1C1001.97 131.767 1001.77 132.3 1001.3 132.7C1000.63 133.167 999.701 132.8 998.501 131.6C997.834 131 996.901 130.733 995.701 130.8C994.434 130.867 993.467 131.267 992.801 132C992.267 132.6 992.134 133.233 992.401 133.9C992.534 134.5 993.267 134.867 994.601 135C995.601 135.133 996.534 135.4 997.401 135.8C998.601 136.333 999.434 136.867 999.901 137.4C1000.97 138.733 1001.43 140.067 1001.3 141.4C1001.1 142.8 1000.33 143.933 999.001 144.8C997.934 145.533 996.501 145.9 994.701 145.9C993.234 145.967 992.034 145.833 991.101 145.5C990.501 145.367 989.767 145.067 988.901 144.6C988.167 144.133 987.801 143.6 987.801 143C987.734 142.267 987.934 141.733 988.401 141.4C989.001 141 989.701 141.067 990.501 141.6C991.434 142.267 992.401 142.633 993.401 142.7V142.7ZM1012.4 131.4C1011 131.4 1009.93 131.9 1009.2 132.9C1008.13 134.3 1007.6 135.9 1007.6 137.7C1007.6 139.367 1008 140.633 1008.8 141.5C1009.6 142.3 1010.5 142.7 1011.5 142.7C1012.7 142.7 1013.7 142.3 1014.5 141.5C1015.37 140.567 1015.8 139.1 1015.8 137.1C1015.8 133.233 1014.67 131.333 1012.4 131.4V131.4ZM1012.3 128.1C1016.63 128.1 1018.8 131.2 1018.8 137.4C1018.8 140 1018.2 142 1017 143.4C1015.73 145 1013.77 145.8 1011.1 145.8C1009.23 145.8 1007.63 145 1006.3 143.4C1005.1 142 1004.5 140 1004.5 137.4C1004.5 134.933 1005.2 132.767 1006.6 130.9C1008 129.033 1009.9 128.1 1012.3 128.1ZM1025.5 120.8C1025.57 120.8 1025.6 120.8 1025.6 120.8C1025.93 120.8 1026.27 120.9 1026.6 121.1C1026.93 121.3 1027.2 121.567 1027.4 121.9C1027.53 122.167 1027.6 122.467 1027.6 122.8C1027.6 122.867 1027.6 122.933 1027.6 123C1027.53 123.4 1027.4 123.733 1027.2 124C1027 124.333 1026.77 124.533 1026.5 124.6C1026.23 124.733 1025.93 124.8 1025.6 124.8C1025.53 124.8 1025.5 124.8 1025.5 124.8C1025.17 124.8 1024.87 124.733 1024.6 124.6C1024.27 124.4 1024 124.133 1023.8 123.8C1023.67 123.533 1023.6 123.2 1023.6 122.8C1023.6 122.467 1023.67 122.167 1023.8 121.9C1024 121.567 1024.23 121.3 1024.5 121.1C1024.83 120.9 1025.17 120.8 1025.5 120.8V120.8ZM1025.4 128.1C1026.4 128.167 1026.9 128.867 1026.9 130.2L1026.7 143.6C1026.63 145.067 1026.1 145.8 1025.1 145.8C1023.97 145.8 1023.43 145.133 1023.5 143.8L1023.7 130.2C1023.77 128.8 1024.33 128.1 1025.4 128.1V128.1ZM1034.6 119.1C1035.73 119.1 1036.27 119.633 1036.2 120.7L1035.7 144C1035.7 145.133 1035.13 145.7 1034 145.7C1033 145.7 1032.5 145.1 1032.5 143.9L1033.1 120.6C1033.1 119.6 1033.6 119.1 1034.6 119.1V119.1ZM1053.5 119.1C1054.63 119.1 1055.17 119.633 1055.1 120.7L1054.6 144C1054.6 145.133 1054.03 145.7 1052.9 145.7C1051.9 145.7 1051.4 145.1 1051.4 143.9L1052 120.6C1052 119.6 1052.5 119.1 1053.5 119.1V119.1ZM1066.9 131.4C1065.5 131.4 1064.47 131.9 1063.8 132.9C1062.73 134.3 1062.2 135.9 1062.2 137.7C1062.2 139.367 1062.57 140.633 1063.3 141.5C1064.1 142.3 1065.03 142.7 1066.1 142.7C1067.23 142.7 1068.2 142.3 1069 141.5C1069.87 140.567 1070.3 139.1 1070.3 137.1C1070.3 133.233 1069.17 131.333 1066.9 131.4V131.4ZM1066.8 128.1C1071.13 128.1 1073.3 131.2 1073.3 137.4C1073.3 140 1072.73 142 1071.6 143.4C1070.27 145 1068.3 145.8 1065.7 145.8C1063.77 145.8 1062.13 145 1060.8 143.4C1059.6 142 1059 140 1059 137.4C1059 134.933 1059.73 132.767 1061.2 130.9C1062.6 129.033 1064.47 128.1 1066.8 128.1V128.1ZM1081.4 142.7C1083.8 142.833 1085.27 142.5 1085.8 141.7C1086.2 141.033 1085.97 140.233 1085.1 139.3C1084.5 138.633 1083.13 138.167 1081 137.9C1078.8 137.567 1077.53 136.7 1077.2 135.3C1076.93 134.233 1077 133.133 1077.4 132C1077.87 130.8 1078.57 129.867 1079.5 129.2C1080.57 128.467 1081.8 128.033 1083.2 127.9C1084.73 127.767 1086.1 127.967 1087.3 128.5C1088.83 129.3 1089.67 130.167 1089.8 131.1C1089.93 131.767 1089.73 132.3 1089.2 132.7C1088.6 133.167 1087.67 132.8 1086.4 131.6C1085.8 131 1084.9 130.733 1083.7 130.8C1082.37 130.867 1081.4 131.267 1080.8 132C1080.27 132.6 1080.1 133.233 1080.3 133.9C1080.5 134.5 1081.27 134.867 1082.6 135C1083.6 135.133 1084.53 135.4 1085.4 135.8C1086.6 136.333 1087.43 136.867 1087.9 137.4C1088.97 138.733 1089.4 140.067 1089.2 141.4C1089.07 142.8 1088.33 143.933 1087 144.8C1085.93 145.533 1084.5 145.9 1082.7 145.9C1081.23 145.967 1080 145.833 1079 145.5C1078.47 145.367 1077.77 145.067 1076.9 144.6C1076.17 144.133 1075.77 143.6 1075.7 143C1075.63 142.267 1075.87 141.733 1076.4 141.4C1077 141 1077.7 141.067 1078.5 141.6C1079.43 142.267 1080.4 142.633 1081.4 142.7V142.7ZM1106.1 136.5L1095.3 138C1095.37 139.2 1095.9 140.267 1096.9 141.2C1098.1 142.267 1099.47 142.8 1101 142.8C1103.2 142.8 1104.67 142.367 1105.4 141.5C1106.13 140.7 1106.73 140.233 1107.2 140.1C1107.67 140.033 1108.03 140.2 1108.3 140.6C1108.77 141.6 1108.53 142.533 1107.6 143.4C1105.87 144.933 1103.6 145.7 1100.8 145.7C1098.73 145.7 1096.93 145.067 1095.4 143.8C1093.47 142.2 1092.5 140.067 1092.5 137.4C1092.5 135.2 1093.1 133.233 1094.3 131.5C1095.83 129.3 1097.8 128.133 1100.2 128C1102.67 127.867 1104.6 128.467 1106 129.8C1107.33 131.133 1107.97 132.6 1107.9 134.2C1107.83 135.533 1107.23 136.3 1106.1 136.5V136.5ZM1095.6 135.4L1105.1 134C1104.97 133.067 1104.47 132.333 1103.6 131.8C1102.67 131.2 1101.67 130.9 1100.6 130.9C1099.13 130.9 1097.87 131.567 1096.8 132.9C1096.33 133.5 1095.93 134.333 1095.6 135.4ZM1115.5 142.7C1117.9 142.833 1119.37 142.5 1119.9 141.7C1120.37 141.033 1120.13 140.233 1119.2 139.3C1118.6 138.633 1117.23 138.167 1115.1 137.9C1112.9 137.567 1111.63 136.7 1111.3 135.3C1111.03 134.233 1111.13 133.133 1111.6 132C1112.07 130.8 1112.73 129.867 1113.6 129.2C1114.67 128.467 1115.9 128.033 1117.3 127.9C1118.9 127.767 1120.27 127.967 1121.4 128.5C1122.93 129.3 1123.8 130.167 1124 131.1C1124.07 131.767 1123.87 132.3 1123.4 132.7C1122.73 133.167 1121.8 132.8 1120.6 131.6C1119.93 131 1119 130.733 1117.8 130.8C1116.53 130.867 1115.57 131.267 1114.9 132C1114.37 132.6 1114.23 133.233 1114.5 133.9C1114.7 134.5 1115.43 134.867 1116.7 135C1117.7 135.133 1118.63 135.4 1119.5 135.8C1120.7 136.333 1121.53 136.867 1122 137.4C1123.07 138.733 1123.53 140.067 1123.4 141.4C1123.2 142.8 1122.43 143.933 1121.1 144.8C1120.03 145.533 1118.63 145.9 1116.9 145.9C1115.37 145.967 1114.13 145.833 1113.2 145.5C1112.6 145.367 1111.87 145.067 1111 144.6C1110.27 144.133 1109.9 143.6 1109.9 143C1109.83 142.267 1110.03 141.733 1110.5 141.4C1111.1 141 1111.8 141.067 1112.6 141.6C1113.53 142.267 1114.5 142.633 1115.5 142.7V142.7ZM1140.1 120.8C1140.17 120.8 1140.2 120.8 1140.2 120.8C1140.53 120.8 1140.87 120.9 1141.2 121.1C1141.53 121.3 1141.8 121.567 1142 121.9C1142.13 122.167 1142.2 122.467 1142.2 122.8C1142.2 122.867 1142.2 122.933 1142.2 123C1142.13 123.4 1142 123.733 1141.8 124C1141.6 124.333 1141.37 124.533 1141.1 124.6C1140.83 124.733 1140.53 124.8 1140.2 124.8C1140.13 124.8 1140.1 124.8 1140.1 124.8C1139.77 124.8 1139.47 124.733 1139.2 124.6C1138.87 124.4 1138.63 124.133 1138.5 123.8C1138.3 123.533 1138.2 123.2 1138.2 122.8C1138.2 122.467 1138.27 122.167 1138.4 121.9C1138.6 121.567 1138.83 121.3 1139.1 121.1C1139.43 120.9 1139.77 120.8 1140.1 120.8V120.8ZM1140 128.1C1141.07 128.167 1141.57 128.867 1141.5 130.2L1141.3 143.6C1141.3 145.067 1140.77 145.8 1139.7 145.8C1138.57 145.8 1138.03 145.133 1138.1 143.8L1138.3 130.2C1138.37 128.8 1138.93 128.1 1140 128.1V128.1ZM1152.3 119.1C1153.37 119.1 1153.9 119.633 1153.9 120.7C1153.9 123.433 1153.87 125.933 1153.8 128.2L1157.1 128.1C1158.37 128.1 1159 128.667 1159 129.8C1159 130.867 1158.4 131.4 1157.2 131.4C1156 131.4 1154.83 131.4 1153.7 131.4L1153.4 144C1153.4 145.133 1152.83 145.7 1151.7 145.7C1150.7 145.7 1150.23 145.1 1150.3 143.9L1150.5 131.4C1149.23 131.4 1148 131.4 1146.8 131.4C1145.87 131.4 1145.4 130.867 1145.4 129.8C1145.4 128.733 1145.9 128.2 1146.9 128.2C1148.17 128.2 1149.4 128.2 1150.6 128.2L1150.8 120.6C1150.8 119.6 1151.3 119.1 1152.3 119.1V119.1ZM1166.2 142.7C1168.6 142.833 1170.07 142.5 1170.6 141.7C1171.07 141.033 1170.83 140.233 1169.9 139.3C1169.3 138.633 1167.93 138.167 1165.8 137.9C1163.6 137.567 1162.33 136.7 1162 135.3C1161.73 134.233 1161.83 133.133 1162.3 132C1162.77 130.8 1163.43 129.867 1164.3 129.2C1165.37 128.467 1166.6 128.033 1168 127.9C1169.6 127.767 1171 127.967 1172.2 128.5C1173.73 129.3 1174.57 130.167 1174.7 131.1C1174.77 131.767 1174.57 132.3 1174.1 132.7C1173.5 133.167 1172.57 132.8 1171.3 131.6C1170.7 131 1169.77 130.733 1168.5 130.8C1167.23 130.867 1166.3 131.267 1165.7 132C1165.17 132.6 1165 133.233 1165.2 133.9C1165.4 134.5 1166.13 134.867 1167.4 135C1168.47 135.133 1169.43 135.4 1170.3 135.8C1171.43 136.333 1172.23 136.867 1172.7 137.4C1173.83 138.733 1174.3 140.067 1174.1 141.4C1173.97 142.8 1173.23 143.933 1171.9 144.8C1170.83 145.533 1169.4 145.9 1167.6 145.9C1166.07 145.967 1164.83 145.833 1163.9 145.5C1163.3 145.367 1162.6 145.067 1161.8 144.6C1161 144.133 1160.6 143.6 1160.6 143C1160.53 142.267 1160.77 141.733 1161.3 141.4C1161.9 141 1162.57 141.067 1163.3 141.6C1164.23 142.267 1165.2 142.633 1166.2 142.7V142.7ZM2.30058 194.2C1.16725 194.2 0.600586 193.667 0.600586 192.6L1.20058 169.3C1.20058 168.1 1.76725 167.5 2.90059 167.5C3.43392 167.567 3.83392 167.9 4.10059 168.5C4.70059 168.1 5.96725 167.9 7.90059 167.9C9.83392 167.9 11.5006 168.667 12.9006 170.2C14.3006 171.667 15.0006 173.4 15.0006 175.4C15.0006 178.333 14.3673 180.567 13.1006 182.1C11.7006 183.9 9.96725 184.867 7.90059 185C6.03392 185.133 4.73392 184.833 4.00059 184.1L3.80058 192.7C3.73392 193.7 3.23392 194.2 2.30058 194.2V194.2ZM4.30058 172L4.10059 180.3C5.10059 181.5 6.20059 182.033 7.40059 181.9C9.00059 181.833 10.2006 181.2 11.0006 180C11.7339 178.933 12.1006 177.667 12.1006 176.2C12.1673 174.8 11.7673 173.6 10.9006 172.6C10.2339 171.733 9.20058 171.2 7.80058 171C6.33392 170.8 5.16725 171.133 4.30058 172V172ZM20.3006 167.4C21.4339 167.4 22.0006 167.933 22.0006 169C22.0006 169.2 22.0006 169.4 22.0006 169.6C23.2006 168.667 24.3673 168.2 25.5006 168.2C26.9673 168.133 28.1339 168.333 29.0006 168.8C30.6673 169.6 31.3673 170.467 31.1006 171.4C30.5673 172.733 29.7006 173 28.5006 172.2C27.5006 171.533 26.4006 171.3 25.2006 171.5C24.0006 171.767 22.8673 172.4 21.8006 173.4L21.6006 184C21.5339 185.133 20.9339 185.7 19.8006 185.7C18.8673 185.7 18.4006 185.1 18.4006 183.9L18.8006 168.9C18.8006 167.9 19.3006 167.4 20.3006 167.4V167.4ZM41.4006 171.4C40.0006 171.4 38.9339 171.9 38.2006 172.9C37.1339 174.3 36.6006 175.9 36.6006 177.7C36.6006 179.367 37.0006 180.633 37.8006 181.5C38.6006 182.3 39.5006 182.7 40.5006 182.7C41.7006 182.7 42.7006 182.3 43.5006 181.5C44.3673 180.567 44.8006 179.1 44.8006 177.1C44.8006 173.233 43.6673 171.333 41.4006 171.4V171.4ZM41.3006 168.1C45.6339 168.1 47.8006 171.2 47.8006 177.4C47.8006 180 47.2006 182 46.0006 183.4C44.7339 185 42.7673 185.8 40.1006 185.8C38.2339 185.8 36.6339 185 35.3006 183.4C34.1006 182 33.5006 180 33.5006 177.4C33.5006 174.933 34.2006 172.767 35.6006 170.9C37.0006 169.033 38.9006 168.1 41.3006 168.1V168.1ZM65.6006 159.1C66.7339 159.1 67.3006 159.633 67.3006 160.7L66.8006 184C66.8006 185.133 66.2006 185.7 65.0006 185.7C64.1339 185.7 63.6672 185.233 63.6006 184.3C62.0006 185.3 60.3006 185.8 58.5006 185.8C56.6339 185.8 55.0006 185.1 53.6006 183.7C52.0006 182.1 51.1672 180.233 51.1006 178.1C50.9672 175.233 51.7006 172.833 53.3006 170.9C54.7673 169.1 56.7339 168.2 59.2006 168.2C60.4673 168.2 61.5673 168.467 62.5006 169C63.0339 169.267 63.5006 169.567 63.9006 169.9L64.2006 160.6C64.2006 159.6 64.6673 159.1 65.6006 159.1V159.1ZM63.7006 180.7C63.7673 178.433 63.8006 176.067 63.8006 173.6C61.9339 171.6 60.0673 170.833 58.2006 171.3C56.8673 171.633 55.9006 172.167 55.3006 172.9C54.4339 173.967 54.0006 175.433 54.0006 177.3C53.9339 178.567 54.3673 179.8 55.3006 181C56.0339 181.933 57.1006 182.5 58.5006 182.7C60.0339 182.833 61.7673 182.167 63.7006 180.7V180.7ZM82.7006 186.2C81.6339 186.2 81.1006 185.667 81.1006 184.6V183.7C79.9006 184.767 78.4006 185.3 76.6006 185.3C72.6006 185.3 70.6006 182.833 70.6006 177.9L70.7006 170C70.7006 168.733 71.2006 168.033 72.2006 167.9C73.3339 167.833 73.9006 168.433 73.9006 169.7V176.8C73.8339 179.4 74.2339 180.967 75.1006 181.5C76.1673 182.233 77.5006 182.233 79.1006 181.5C80.5006 180.767 81.2006 179.533 81.2006 177.8L81.4006 169.6C81.4673 168.467 82.0673 167.9 83.2006 167.9C84.1339 167.9 84.6006 168.5 84.6006 169.7L84.2006 184.7C84.2006 185.7 83.7006 186.2 82.7006 186.2V186.2ZM99.1006 181.6C100.034 180.933 100.801 181.133 101.401 182.2C101.801 182.8 101.534 183.5 100.601 184.3C99.4006 185.3 97.5339 185.8 95.0006 185.8C93.0006 185.8 91.3339 185.133 90.0006 183.8C88.4006 182.267 87.6006 180.3 87.6006 177.9C87.6006 175.233 88.1672 173.067 89.3006 171.4C90.7006 169.333 92.5006 168.2 94.7006 168C96.0339 167.933 97.2006 168.067 98.2006 168.4C99.5339 168.867 100.401 169.433 100.801 170.1C101.467 171.1 101.434 171.867 100.701 172.4C100.234 172.8 99.4673 172.6 98.4006 171.8C97.1339 170.867 95.7006 170.667 94.1006 171.2C93.2339 171.467 92.4339 172.1 91.7006 173.1C90.9006 174.3 90.4673 175.667 90.4006 177.2C90.4006 178.6 90.8339 179.9 91.7006 181.1C92.5006 182.167 93.6006 182.733 95.0006 182.8C96.4672 182.867 97.8339 182.467 99.1006 181.6ZM110.901 159.1C112.034 159.1 112.601 159.633 112.601 160.7C112.534 163.433 112.467 165.933 112.401 168.2L115.701 168.1C117.034 168.1 117.701 168.667 117.701 169.8C117.701 170.867 117.067 171.4 115.801 171.4C114.667 171.4 113.501 171.4 112.301 171.4L112.101 184C112.034 185.133 111.434 185.7 110.301 185.7C109.367 185.7 108.901 185.1 108.901 183.9L109.201 171.4C107.934 171.4 106.667 171.4 105.401 171.4C104.467 171.4 104.001 170.867 104.001 169.8C104.001 168.733 104.501 168.2 105.501 168.2C106.767 168.2 108.034 168.2 109.301 168.2L109.401 160.6C109.467 159.6 109.967 159.1 110.901 159.1V159.1ZM123.601 160.8C124.001 160.8 124.334 160.9 124.601 161.1C124.934 161.3 125.201 161.567 125.401 161.9C125.534 162.167 125.601 162.467 125.601 162.8C125.601 162.867 125.601 162.933 125.601 163C125.601 163.4 125.467 163.733 125.201 164C125.001 164.333 124.767 164.533 124.501 164.6C124.234 164.733 123.934 164.8 123.601 164.8C123.601 164.8 123.567 164.8 123.501 164.8C123.167 164.8 122.867 164.733 122.601 164.6C122.334 164.4 122.101 164.133 121.901 163.8C121.701 163.533 121.601 163.2 121.601 162.8C121.601 162.467 121.701 162.167 121.901 161.9C122.034 161.567 122.267 161.3 122.601 161.1C122.867 160.9 123.201 160.8 123.601 160.8V160.8ZM123.501 168.1C124.501 168.167 124.967 168.867 124.901 170.2L124.701 183.6C124.701 185.067 124.201 185.8 123.201 185.8C122.067 185.8 121.501 185.133 121.501 183.8L121.801 170.2C121.801 168.8 122.367 168.1 123.501 168.1V168.1ZM129.701 168.1C130.767 167.7 131.534 168.167 132.001 169.5L136.101 180.8L140.201 169.5C140.667 168.167 141.434 167.7 142.501 168.1C143.434 168.5 143.634 169.4 143.101 170.8L138.001 184C137.601 185.133 136.967 185.7 136.101 185.7C135.301 185.7 134.667 185.133 134.201 184L129.101 170.8C128.567 169.4 128.767 168.5 129.701 168.1ZM148.901 160.8C149.301 160.8 149.634 160.9 149.901 161.1C150.234 161.3 150.501 161.567 150.701 161.9C150.834 162.167 150.901 162.467 150.901 162.8C150.901 162.867 150.901 162.933 150.901 163C150.901 163.4 150.767 163.733 150.501 164C150.301 164.333 150.067 164.533 149.801 164.6C149.534 164.733 149.234 164.8 148.901 164.8C148.901 164.8 148.867 164.8 148.801 164.8C148.467 164.8 148.167 164.733 147.901 164.6C147.634 164.4 147.401 164.133 147.201 163.8C147.001 163.533 146.901 163.2 146.901 162.8C146.901 162.467 147.001 162.167 147.201 161.9C147.334 161.567 147.567 161.3 147.901 161.1C148.167 160.9 148.501 160.8 148.901 160.8V160.8ZM148.701 168.1C149.767 168.167 150.267 168.867 150.201 170.2L150.001 183.6C150.001 185.067 149.501 185.8 148.501 185.8C147.367 185.8 146.801 185.133 146.801 183.8L147.101 170.2C147.101 168.8 147.634 168.1 148.701 168.1V168.1ZM161.001 159.1C162.134 159.1 162.701 159.633 162.701 160.7C162.634 163.433 162.567 165.933 162.501 168.2L165.801 168.1C167.134 168.1 167.801 168.667 167.801 169.8C167.801 170.867 167.167 171.4 165.901 171.4C164.767 171.4 163.601 171.4 162.401 171.4L162.201 184C162.134 185.133 161.534 185.7 160.401 185.7C159.401 185.7 158.934 185.1 159.001 183.9L159.301 171.4C158.034 171.4 156.767 171.4 155.501 171.4C154.567 171.4 154.101 170.867 154.101 169.8C154.101 168.733 154.601 168.2 155.601 168.2C156.867 168.2 158.134 168.2 159.401 168.2L159.501 160.6C159.567 159.6 160.067 159.1 161.001 159.1V159.1ZM184.101 168.4C185.101 168.867 185.334 169.733 184.801 171L175.601 192.2C174.867 193.933 174.034 194.6 173.101 194.2C171.967 193.733 171.767 192.633 172.501 190.9L175.701 183.5L169.001 171.1C168.334 169.833 168.467 168.967 169.401 168.5C170.401 167.967 171.234 168.333 171.901 169.6L177.301 179.8L181.701 169.7C182.301 168.433 183.101 168 184.101 168.4V168.4Z" fill="white"/>
</svg>
