<svg width="1174" height="195" viewBox="0 0 1174 195" fill="none" xmlns="http://www.w3.org/2000/svg">
<path d="M284.2 22.6C285.134 21.9333 285.9 22.1333 286.5 23.2C286.834 23.8 286.567 24.5 285.7 25.3C284.5 26.3 282.634 26.8 280.1 26.8C278.1 26.8 276.434 26.1333 275.1 24.8C273.5 23.2667 272.7 21.3 272.7 18.9C272.7 16.2333 273.267 14.0667 274.4 12.4C275.8 10.3333 277.6 9.2 279.8 9C281.067 8.93333 282.234 9.06666 283.3 9.39999C284.634 9.86666 285.5 10.4333 285.9 11.1C286.567 12.1 286.534 12.8667 285.8 13.4C285.267 13.8 284.5 13.6 283.5 12.8C282.234 11.8667 280.8 11.6667 279.2 12.2C278.334 12.4667 277.534 13.1 276.8 14.1C276 15.3 275.567 16.6667 275.5 18.2C275.5 19.6 275.934 20.9 276.8 22.1C277.6 23.1667 278.7 23.7333 280.1 23.8C281.567 23.8667 282.934 23.4667 284.2 22.6ZM297.3 12.4C295.9 12.4 294.867 12.9 294.2 13.9C293.134 15.3 292.6 16.9 292.6 18.7C292.6 20.3667 292.967 21.6333 293.7 22.5C294.5 23.3 295.434 23.7 296.5 23.7C297.634 23.7 298.6 23.3 299.4 22.5C300.267 21.5667 300.7 20.1 300.7 18.1C300.7 14.2333 299.567 12.3333 297.3 12.4V12.4ZM297.2 9.10001C301.534 9.10001 303.7 12.2 303.7 18.4C303.7 21 303.134 23 302 24.4C300.667 26 298.7 26.8 296.1 26.8C294.167 26.8 292.534 26 291.2 24.4C290 23 289.4 21 289.4 18.4C289.4 15.9333 290.134 13.7667 291.6 11.9C293 10.0333 294.867 9.10001 297.2 9.10001V9.10001ZM309.5 8.39999C310.634 8.39999 311.167 8.93333 311.1 10C311.1 10.2667 311.1 10.5667 311.1 10.9C312.234 9.83333 313.734 9.29999 315.6 9.29999C319.667 9.29999 321.634 11.7667 321.5 16.7L321.4 24.7C321.4 26.0333 320.9 26.7333 319.9 26.8C318.7 26.9333 318.134 26.3333 318.2 25L318.4 17.4C318.467 14.4 317.6 12.8333 315.8 12.7C314.334 12.6333 312.734 13.4333 311 15.1L310.7 24.9C310.7 26.0333 310.134 26.6 309 26.6C308 26.6 307.534 26.0333 307.6 24.9L307.9 9.89999C307.967 8.89999 308.5 8.39999 309.5 8.39999V8.39999ZM330.6 0.100006C331.734 0.100006 332.3 0.633345 332.3 1.70001C332.234 4.43335 332.167 6.93335 332.1 9.20001L335.4 9.10001C336.734 9.10001 337.4 9.66665 337.4 10.8C337.4 11.8667 336.767 12.4 335.5 12.4C334.367 12.4 333.234 12.4 332.1 12.4L331.8 25C331.8 26.1333 331.2 26.7 330 26.7C329.067 26.7 328.6 26.1 328.6 24.9L328.9 12.4C327.634 12.4 326.367 12.4 325.1 12.4C324.167 12.4 323.7 11.8667 323.7 10.8C323.7 9.73332 324.234 9.20001 325.3 9.20001C326.5 9.20001 327.734 9.20001 329 9.20001L329.2 1.60001C329.2 0.600006 329.667 0.100006 330.6 0.100006V0.100006ZM346.4 26.9C341.534 26.9 339.1 24.3333 339.1 19.2C339.034 15.8 340.134 13.2 342.4 11.4C345 9.26666 347.7 8.63333 350.5 9.5C350.834 9.23333 351.334 9.19999 352 9.39999C353.267 9.66666 353.767 10.5 353.5 11.9C353.234 13.2333 353.1 15.5 353.1 18.7C353.034 21.3 353.3 23.1333 353.9 24.2C354.834 25.7333 354.7 26.6333 353.5 26.9C352.167 27.1667 351.4 26.6 351.2 25.2C349 26.3333 347.4 26.9 346.4 26.9V26.9ZM348.2 23.7C348.6 23.5667 349.3 23.1 350.3 22.3C349.9 17.6333 349.934 14.4333 350.4 12.7C349.4 12.1 348.3 11.9333 347.1 12.2C346.367 12.4 345.734 12.6667 345.2 13C343.334 14.4 342.334 16.3667 342.2 18.9C342.267 22.1667 343.4 23.8667 345.6 24C346.534 24.0667 347.4 23.9667 348.2 23.7V23.7ZM360.2 1.79999C360.6 1.79999 360.934 1.90001 361.2 2.10001C361.534 2.30001 361.8 2.56666 362 2.89999C362.134 3.16666 362.2 3.46665 362.2 3.79999C362.2 3.86665 362.2 3.93333 362.2 4C362.2 4.4 362.067 4.73333 361.8 5C361.6 5.33333 361.367 5.53334 361.1 5.60001C360.834 5.73334 360.534 5.79999 360.2 5.79999C360.2 5.79999 360.167 5.79999 360.1 5.79999C359.767 5.79999 359.467 5.73334 359.2 5.60001C358.934 5.40001 358.7 5.13332 358.5 4.79999C358.3 4.53332 358.2 4.19999 358.2 3.79999C358.2 3.46665 358.3 3.16666 358.5 2.89999C358.7 2.56666 358.934 2.30001 359.2 2.10001C359.467 1.90001 359.8 1.79999 360.2 1.79999V1.79999ZM360.1 9.10001C361.1 9.16667 361.6 9.86668 361.6 11.2L361.3 24.6C361.3 26.0667 360.8 26.8 359.8 26.8C358.667 26.8 358.1 26.1333 358.1 24.8L358.4 11.2C358.4 9.80001 358.967 9.10001 360.1 9.10001V9.10001ZM368.4 8.39999C369.534 8.39999 370.1 8.93333 370.1 10C370.034 10.2667 370 10.5667 370 10.9C371.2 9.83333 372.7 9.29999 374.5 9.29999C378.567 9.29999 380.567 11.7667 380.5 16.7L380.4 24.7C380.334 26.0333 379.8 26.7333 378.8 26.8C377.667 26.9333 377.1 26.3333 377.1 25L377.3 17.4C377.367 14.4 376.534 12.8333 374.8 12.7C373.267 12.6333 371.667 13.4333 370 15.1L369.7 24.9C369.7 26.0333 369.1 26.6 367.9 26.6C366.967 26.6 366.5 26.0333 366.5 24.9L366.9 9.89999C366.9 8.89999 367.4 8.39999 368.4 8.39999V8.39999ZM388 23.7C390.4 23.8333 391.867 23.5 392.4 22.7C392.8 22.0333 392.567 21.2333 391.7 20.3C391.1 19.6333 389.734 19.1667 387.6 18.9C385.4 18.5667 384.134 17.7 383.8 16.3C383.534 15.2333 383.6 14.1333 384 13C384.467 11.8 385.167 10.8667 386.1 10.2C387.167 9.46668 388.4 9.03333 389.8 8.89999C391.334 8.76666 392.7 8.96667 393.9 9.5C395.434 10.3 396.267 11.1667 396.4 12.1C396.534 12.7667 396.334 13.3 395.8 13.7C395.2 14.1667 394.3 13.8 393.1 12.6C392.434 12 391.5 11.7333 390.3 11.8C389.034 11.8667 388.067 12.2667 387.4 13C386.867 13.6 386.7 14.2333 386.9 14.9C387.1 15.5 387.867 15.8667 389.2 16C390.2 16.1333 391.134 16.4 392 16.8C393.2 17.3333 394.034 17.8667 394.5 18.4C395.567 19.7333 396.034 21.0667 395.9 22.4C395.7 23.8 394.934 24.9333 393.6 25.8C392.534 26.5333 391.1 26.9 389.3 26.9C387.834 26.9667 386.634 26.8333 385.7 26.5C385.1 26.3667 384.367 26.0667 383.5 25.6C382.767 25.1333 382.367 24.6 382.3 24C382.3 23.2667 382.534 22.7333 383 22.4C383.6 22 384.3 22.0667 385.1 22.6C386.034 23.2667 387 23.6333 388 23.7V23.7ZM411.3 8.39999C412.434 8.39999 413 8.93333 413 10V10.6C413.934 9.73334 415.1 9.29999 416.5 9.29999C418.7 9.29999 420.2 10.1 421 11.7C422.067 10.1 423.7 9.29999 425.9 9.29999C429.967 9.29999 431.967 11.7667 431.9 16.7L431.8 24.7C431.8 25.9667 431.267 26.6667 430.2 26.8C429.067 26.8667 428.5 26.2667 428.5 25L428.6 17.5C428.667 14.3667 427.867 12.7667 426.2 12.7C424.2 12.6333 422.834 13.5333 422.1 15.4C422.1 15.4 422.1 15.7333 422.1 16.4L421.9 24.5C421.834 25.7667 421.3 26.4333 420.3 26.5C419.234 26.6333 418.7 26.0333 418.7 24.7L418.9 17.3C418.967 14.3 418.167 12.7667 416.5 12.7C414.634 12.6333 413.4 13.7 412.8 15.9L412.6 24.8C412.534 26 411.934 26.6 410.8 26.6C409.867 26.5333 409.4 25.9333 409.4 24.8L409.8 9.89999C409.8 8.89999 410.3 8.39999 411.3 8.39999V8.39999ZM448.2 17.5L437.4 19C437.467 20.2 438 21.2667 439 22.2C440.2 23.2667 441.567 23.8 443.1 23.8C445.3 23.8 446.767 23.3667 447.5 22.5C448.234 21.7 448.834 21.2333 449.3 21.1C449.834 21.0333 450.2 21.2 450.4 21.6C450.867 22.6 450.634 23.5333 449.7 24.4C447.967 25.9333 445.7 26.7 442.9 26.7C440.834 26.7 439.034 26.0667 437.5 24.8C435.634 23.2 434.7 21.0667 434.7 18.4C434.7 16.2 435.3 14.2333 436.5 12.5C437.967 10.3 439.9 9.13333 442.3 9C444.767 8.86667 446.7 9.46665 448.1 10.8C449.434 12.1333 450.067 13.6 450 15.2C450 16.5333 449.4 17.3 448.2 17.5V17.5ZM437.8 16.4L447.2 15C447.067 14.0667 446.6 13.3333 445.8 12.8C444.8 12.2 443.767 11.9 442.7 11.9C441.234 11.9 439.967 12.5667 438.9 13.9C438.434 14.5 438.067 15.3333 437.8 16.4V16.4ZM455.3 8.39999C456.434 8.39999 457 8.93333 457 10C457 10.2 457 10.4 457 10.6C458.2 9.66667 459.367 9.20001 460.5 9.20001C461.967 9.13335 463.167 9.33332 464.1 9.79999C465.7 10.6 466.367 11.4667 466.1 12.4C465.634 13.7333 464.767 14 463.5 13.2C462.567 12.5333 461.467 12.3 460.2 12.5C459 12.7667 457.9 13.4 456.9 14.4L456.6 25C456.534 26.1333 455.967 26.7 454.9 26.7C453.9 26.7 453.4 26.1 453.4 24.9L453.8 9.89999C453.867 8.89999 454.367 8.39999 455.3 8.39999V8.39999ZM480.2 22.6C481.134 21.9333 481.9 22.1333 482.5 23.2C482.9 23.8 482.634 24.5 481.7 25.3C480.5 26.3 478.634 26.8 476.1 26.8C474.1 26.8 472.467 26.1333 471.2 24.8C469.534 23.2667 468.7 21.3 468.7 18.9C468.7 16.2333 469.267 14.0667 470.4 12.4C471.867 10.3333 473.7 9.2 475.9 9C477.167 8.93333 478.334 9.06666 479.4 9.39999C480.667 9.86666 481.534 10.4333 482 11.1C482.6 12.1 482.534 12.8667 481.8 13.4C481.334 13.8 480.567 13.6 479.5 12.8C478.234 11.8667 476.8 11.6667 475.2 12.2C474.334 12.4667 473.534 13.1 472.8 14.1C472 15.3 471.6 16.6667 471.6 18.2C471.534 19.6 471.934 20.9 472.8 22.1C473.6 23.1667 474.7 23.7333 476.1 23.8C477.567 23.8667 478.934 23.4667 480.2 22.6V22.6ZM498 27.2C496.867 27.2 496.3 26.6667 496.3 25.6V24.7C495.167 25.7667 493.667 26.3 491.8 26.3C487.8 26.3 485.834 23.8333 485.9 18.9V11C485.9 9.73333 486.434 9.03333 487.5 8.89999C488.634 8.83333 489.167 9.43335 489.1 10.7V17.8C489.1 20.4 489.5 21.9667 490.3 22.5C491.434 23.2333 492.767 23.2333 494.3 22.5C495.7 21.7667 496.434 20.5333 496.5 18.8L496.7 10.6C496.7 9.46667 497.267 8.89999 498.4 8.89999C499.4 8.89999 499.867 9.50001 499.8 10.7L499.5 25.7C499.434 26.7 498.934 27.2 498 27.2V27.2ZM505.3 8.39999C506.367 8.39999 506.9 8.93333 506.9 10C506.9 10.2 506.9 10.4 506.9 10.6C508.1 9.66667 509.3 9.20001 510.5 9.20001C511.9 9.13335 513.067 9.33332 514 9.79999C515.667 10.6 516.334 11.4667 516 12.4C515.534 13.7333 514.7 14 513.5 13.2C512.5 12.5333 511.4 12.3 510.2 12.5C508.934 12.7667 507.8 13.4 506.8 14.4L506.6 25C506.533 26.1333 505.934 26.7 504.8 26.7C503.867 26.7 503.4 26.1 503.4 24.9L503.8 9.89999C503.8 8.89999 504.3 8.39999 505.3 8.39999V8.39999ZM532.6 9.39999C533.6 9.86666 533.834 10.7333 533.3 12L524.1 33.2C523.367 34.9333 522.533 35.6 521.6 35.2C520.467 34.7333 520.267 33.6333 521 31.9L524.2 24.5L517.5 12.1C516.834 10.8333 516.967 9.96667 517.9 9.5C518.9 8.96667 519.734 9.33334 520.4 10.6L525.8 20.8L530.2 10.7C530.8 9.43335 531.6 8.99999 532.6 9.39999V9.39999ZM541.7 23.9C542.434 24.3 542.6 24.9333 542.2 25.8L540.1 30.3C539.633 31.3 539.067 31.6667 538.4 31.4C537.667 31.0667 537.5 30.4333 537.9 29.5L539.7 24.8C540.1 23.7333 540.767 23.4333 541.7 23.9V23.9ZM558.1 0.100006C559.233 0.100006 559.8 0.633345 559.8 1.70001L559.3 25C559.3 26.1333 558.7 26.7 557.5 26.7C556.567 26.7 556.1 26.1 556.1 24.9L556.7 1.60001C556.7 0.600006 557.167 0.100006 558.1 0.100006V0.100006ZM567.4 1.79999C567.8 1.79999 568.134 1.90001 568.4 2.10001C568.734 2.30001 569 2.56666 569.2 2.89999C569.334 3.16666 569.4 3.46665 569.4 3.79999C569.4 3.86665 569.4 3.93333 569.4 4C569.4 4.4 569.267 4.73333 569 5C568.8 5.33333 568.567 5.53334 568.3 5.60001C568.034 5.73334 567.734 5.79999 567.4 5.79999C567.4 5.79999 567.367 5.79999 567.3 5.79999C566.967 5.79999 566.667 5.73334 566.4 5.60001C566.134 5.40001 565.9 5.13332 565.7 4.79999C565.5 4.53332 565.4 4.19999 565.4 3.79999C565.4 3.46665 565.5 3.16666 565.7 2.89999C565.9 2.56666 566.134 2.30001 566.4 2.10001C566.667 1.90001 567 1.79999 567.4 1.79999ZM567.3 9.10001C568.3 9.16667 568.8 9.86668 568.8 11.2L568.5 24.6C568.5 26.0667 568 26.8 567 26.8C565.867 26.8 565.3 26.1333 565.3 24.8L565.6 11.2C565.6 9.80001 566.167 9.10001 567.3 9.10001V9.10001ZM579.5 0.100006C580.634 0.100006 581.2 0.633345 581.2 1.70001C581.134 4.43335 581.067 6.93335 581 9.20001L584.3 9.10001C585.634 9.10001 586.3 9.66665 586.3 10.8C586.3 11.8667 585.667 12.4 584.4 12.4C583.267 12.4 582.1 12.4 580.9 12.4L580.7 25C580.634 26.1333 580.034 26.7 578.9 26.7C577.967 26.7 577.5 26.1 577.5 24.9L577.8 12.4C576.534 12.4 575.267 12.4 574 12.4C573.067 12.4 572.6 11.8667 572.6 10.8C572.6 9.73332 573.1 9.20001 574.1 9.20001C575.367 9.20001 576.634 9.20001 577.9 9.20001L578 1.60001C578.067 0.600006 578.567 0.100006 579.5 0.100006V0.100006ZM591.6 0C592.667 0 593.2 0.566679 593.2 1.70001L593 11.2C594.4 9.93335 596.2 9.29999 598.4 9.29999C602.4 9.29999 604.4 11.7667 604.4 16.7L604.3 24.8C604.3 26.1333 603.8 26.8333 602.8 26.9C601.6 27.0333 601.033 26.4333 601.1 25.1V17.4C601.1 14.5333 600.234 13.0333 598.5 12.9C596.567 12.7667 594.734 13.7 593 15.7L592.7 25C592.634 26.1333 592.034 26.7 590.9 26.7C589.967 26.7 589.5 26.1 589.5 24.9L590 1.60001C590.067 0.600006 590.6 0.0666667 591.6 0ZM611.2 1.79999C611.267 1.79999 611.3 1.79999 611.3 1.79999C611.634 1.79999 611.967 1.90001 612.3 2.10001C612.634 2.30001 612.9 2.56666 613.1 2.89999C613.233 3.16666 613.3 3.46665 613.3 3.79999C613.3 3.86665 613.3 3.93333 613.3 4C613.234 4.4 613.1 4.73333 612.9 5C612.7 5.33333 612.467 5.53334 612.2 5.60001C611.934 5.73334 611.634 5.79999 611.3 5.79999C611.234 5.79999 611.2 5.79999 611.2 5.79999C610.867 5.79999 610.567 5.73334 610.3 5.60001C609.967 5.40001 609.733 5.13332 609.6 4.79999C609.4 4.53332 609.3 4.19999 609.3 3.79999C609.3 3.46665 609.367 3.16666 609.5 2.89999C609.7 2.56666 609.934 2.30001 610.2 2.10001C610.534 1.90001 610.867 1.79999 611.2 1.79999V1.79999ZM611.1 9.10001C612.1 9.16667 612.6 9.86668 612.6 11.2L612.4 24.6C612.4 26.0667 611.867 26.8 610.8 26.8C609.667 26.8 609.134 26.1333 609.2 24.8L609.4 11.2C609.467 9.80001 610.033 9.10001 611.1 9.10001V9.10001ZM629.3 27.2C628.167 27.2 627.634 26.6667 627.7 25.6V24.7C626.5 25.7667 625 26.3 623.2 26.3C619.134 26.3 617.134 23.8333 617.2 18.9L617.3 11C617.3 9.73333 617.8 9.03333 618.8 8.89999C619.934 8.83333 620.5 9.43335 620.5 10.7L620.4 17.8C620.4 20.4 620.8 21.9667 621.6 22.5C622.733 23.2333 624.067 23.2333 625.6 22.5C627 21.7667 627.734 20.5333 627.8 18.8L628 10.6C628.067 9.46667 628.667 8.89999 629.8 8.89999C630.734 8.89999 631.2 9.50001 631.2 10.7L630.8 25.7C630.8 26.7 630.3 27.2 629.3 27.2V27.2ZM636.4 8.39999C637.467 8.39999 638 8.93333 638 10V10.6C638.934 9.73334 640.1 9.29999 641.5 9.29999C643.7 9.29999 645.2 10.1 646 11.7C647.067 10.1 648.7 9.29999 650.9 9.29999C655.034 9.29999 657.034 11.7667 656.9 16.7L656.8 24.7C656.8 25.9667 656.3 26.6667 655.3 26.8C654.1 26.8667 653.533 26.2667 653.6 25L653.7 17.5C653.7 14.3667 652.867 12.7667 651.2 12.7C649.2 12.6333 647.867 13.5333 647.2 15.4C647.134 15.4 647.1 15.7333 647.1 16.4L646.9 24.5C646.9 25.7667 646.4 26.4333 645.4 26.5C644.267 26.6333 643.7 26.0333 643.7 24.7L643.9 17.3C643.967 14.3 643.167 12.7667 641.5 12.7C639.634 12.6333 638.434 13.7 637.9 15.9L637.6 24.8C637.533 26 636.967 26.6 635.9 26.6C634.9 26.5333 634.434 25.9333 634.5 24.8L634.8 9.89999C634.867 8.89999 635.4 8.39999 636.4 8.39999V8.39999ZM665.6 23.9C666.4 24.3 666.6 24.9333 666.2 25.8L664.1 30.3C663.633 31.3 663.034 31.6667 662.3 31.4C661.567 31.0667 661.4 30.4333 661.8 29.5L663.7 24.8C664.1 23.7333 664.733 23.4333 665.6 23.9V23.9ZM682.1 0.100006C683.233 0.100006 683.767 0.633345 683.7 1.70001L683.2 25C683.2 26.1333 682.634 26.7 681.5 26.7C680.5 26.7 680 26.1 680 24.9L680.6 1.60001C680.6 0.600006 681.1 0.100006 682.1 0.100006ZM701.3 17.5L690.5 19C690.5 20.2 691.033 21.2667 692.1 22.2C693.3 23.2667 694.667 23.8 696.2 23.8C698.4 23.8 699.867 23.3667 700.6 22.5C701.333 21.7 701.934 21.2333 702.4 21.1C702.867 21.0333 703.2 21.2 703.4 21.6C703.934 22.6 703.7 23.5333 702.7 24.4C701.034 25.9333 698.8 26.7 696 26.7C693.934 26.7 692.133 26.0667 690.6 24.8C688.667 23.2 687.7 21.0667 687.7 18.4C687.7 16.2 688.3 14.2333 689.5 12.5C691.034 10.3 693 9.13333 695.4 9C697.867 8.86667 699.8 9.46665 701.2 10.8C702.534 12.1333 703.167 13.6 703.1 15.2C703.033 16.5333 702.434 17.3 701.3 17.5V17.5ZM690.8 16.4L700.3 15C700.1 14.0667 699.6 13.3333 698.8 12.8C697.867 12.2 696.867 11.9 695.8 11.9C694.334 11.9 693.067 12.5667 692 13.9C691.534 14.5 691.134 15.3333 690.8 16.4V16.4ZM712.5 26.9C707.7 26.9 705.267 24.3333 705.2 19.2C705.2 15.8 706.3 13.2 708.5 11.4C711.1 9.26666 713.8 8.63333 716.6 9.5C716.933 9.23333 717.433 9.19999 718.1 9.39999C719.367 9.66666 719.867 10.5 719.6 11.9C719.4 13.2333 719.267 15.5 719.2 18.7C719.134 21.3 719.4 23.1333 720 24.2C720.934 25.7333 720.834 26.6333 719.7 26.9C718.3 27.1667 717.5 26.6 717.3 25.2C715.1 26.3333 713.5 26.9 712.5 26.9V26.9ZM714.4 23.7C714.734 23.5667 715.4 23.1 716.4 22.3C716 17.6333 716.034 14.4333 716.5 12.7C715.5 12.1 714.434 11.9333 713.3 12.2C712.5 12.4 711.867 12.6667 711.4 13C709.467 14.4 708.434 16.3667 708.3 18.9C708.367 22.1667 709.5 23.8667 711.7 24C712.634 24.0667 713.534 23.9667 714.4 23.7ZM737.4 0.100006C738.534 0.100006 739.067 0.633345 739 1.70001L738.5 25C738.5 26.1333 737.934 26.7 736.8 26.7C735.934 26.7 735.467 26.2333 735.4 25.3C733.8 26.3 732.1 26.8 730.3 26.8C728.434 26.8 726.8 26.1 725.4 24.7C723.8 23.1 722.934 21.2333 722.8 19.1C722.734 16.2333 723.5 13.8333 725.1 11.9C726.567 10.1 728.5 9.20001 730.9 9.20001C732.234 9.20001 733.367 9.46667 734.3 10C734.834 10.2667 735.3 10.5667 735.7 10.9L735.9 1.60001C735.9 0.600006 736.4 0.100006 737.4 0.100006V0.100006ZM735.4 21.7C735.534 19.4333 735.6 17.0667 735.6 14.6C733.733 12.6 731.867 11.8333 730 12.3C728.667 12.6333 727.7 13.1667 727.1 13.9C726.233 14.9667 725.767 16.4333 725.7 18.3C725.7 19.5667 726.167 20.8 727.1 22C727.767 22.9333 728.834 23.5 730.3 23.7C731.767 23.8333 733.467 23.1667 735.4 21.7V21.7ZM748 23.9C748.734 24.3 748.933 24.9333 748.6 25.8L746.5 30.3C746.034 31.3 745.434 31.6667 744.7 31.4C743.967 31.0667 743.8 30.4333 744.2 29.5L746 24.8C746.467 23.7333 747.134 23.4333 748 23.9V23.9ZM767.8 26.9C762.934 26.9 760.5 24.3333 760.5 19.2C760.434 15.8 761.534 13.2 763.8 11.4C766.4 9.26666 769.1 8.63333 771.9 9.5C772.167 9.23333 772.634 9.19999 773.3 9.39999C774.634 9.66666 775.167 10.5 774.9 11.9C774.634 13.2333 774.467 15.5 774.4 18.7C774.4 21.3 774.7 23.1333 775.3 24.2C776.234 25.7333 776.1 26.6333 774.9 26.9C773.567 27.1667 772.8 26.6 772.6 25.2C770.4 26.3333 768.8 26.9 767.8 26.9V26.9ZM769.6 23.7C770 23.5667 770.667 23.1 771.6 22.3C771.267 17.6333 771.334 14.4333 771.8 12.7C770.734 12.1 769.634 11.9333 768.5 12.2C767.7 12.4 767.067 12.6667 766.6 13C764.733 14.4 763.733 16.3667 763.6 18.9C763.667 22.1667 764.8 23.8667 767 24C767.934 24.0667 768.8 23.9667 769.6 23.7V23.7ZM780.5 8.39999C781.634 8.39999 782.2 8.93333 782.2 10C782.2 10.2667 782.2 10.5667 782.2 10.9C783.334 9.83333 784.834 9.29999 786.7 9.29999C790.7 9.29999 792.667 11.7667 792.6 16.7L792.5 24.7C792.5 26.0333 792 26.7333 791 26.8C789.8 26.9333 789.2 26.3333 789.2 25L789.4 17.4C789.534 14.4 788.7 12.8333 786.9 12.7C785.434 12.6333 783.833 13.4333 782.1 15.1L781.8 24.9C781.8 26.0333 781.233 26.6 780.1 26.6C779.1 26.6 778.634 26.0333 778.7 24.9L779 9.89999C779.067 8.89999 779.567 8.39999 780.5 8.39999V8.39999ZM809.9 0.100006C811.034 0.100006 811.6 0.633345 811.6 1.70001L811.1 25C811.1 26.1333 810.5 26.7 809.3 26.7C808.434 26.7 807.967 26.2333 807.9 25.3C806.3 26.3 804.6 26.8 802.8 26.8C800.934 26.8 799.3 26.1 797.9 24.7C796.3 23.1 795.467 21.2333 795.4 19.1C795.267 16.2333 796 13.8333 797.6 11.9C799.133 10.1 801.1 9.20001 803.5 9.20001C804.767 9.20001 805.867 9.46667 806.8 10C807.334 10.2667 807.8 10.5667 808.2 10.9L808.5 1.60001C808.5 0.600006 808.967 0.100006 809.9 0.100006ZM808 21.7C808.134 19.4333 808.2 17.0667 808.2 14.6C806.267 12.6 804.367 11.8333 802.5 12.3C801.167 12.6333 800.2 13.1667 799.6 13.9C798.733 14.9667 798.3 16.4333 798.3 18.3C798.234 19.5667 798.667 20.8 799.6 22C800.333 22.9333 801.4 23.5 802.8 23.7C804.334 23.8333 806.067 23.1667 808 21.7V21.7ZM832.3 12.4C830.9 12.4 829.833 12.9 829.1 13.9C828.033 15.3 827.5 16.9 827.5 18.7C827.5 20.3667 827.9 21.6333 828.7 22.5C829.5 23.3 830.4 23.7 831.4 23.7C832.6 23.7 833.6 23.3 834.4 22.5C835.267 21.5667 835.7 20.1 835.7 18.1C835.7 14.2333 834.567 12.3333 832.3 12.4V12.4ZM832.2 9.10001C836.534 9.10001 838.7 12.2 838.7 18.4C838.7 21 838.1 23 836.9 24.4C835.634 26 833.667 26.8 831 26.8C829.134 26.8 827.534 26 826.2 24.4C825 23 824.4 21 824.4 18.4C824.4 15.9333 825.1 13.7667 826.5 11.9C827.9 10.0333 829.8 9.10001 832.2 9.10001V9.10001ZM848.3 0.100006C849.434 0.100006 850 0.633345 850 1.70001C849.934 4.43335 849.867 6.93335 849.8 9.20001L853.1 9.10001C854.433 9.10001 855.1 9.66665 855.1 10.8C855.1 11.8667 854.467 12.4 853.2 12.4C852.067 12.4 850.9 12.4 849.7 12.4L849.5 25C849.434 26.1333 848.834 26.7 847.7 26.7C846.767 26.7 846.3 26.1 846.3 24.9L846.6 12.4C845.333 12.4 844.067 12.4 842.8 12.4C841.867 12.4 841.4 11.8667 841.4 10.8C841.4 9.73332 841.9 9.20001 842.9 9.20001C844.167 9.20001 845.434 9.20001 846.7 9.20001L846.8 1.60001C846.867 0.600006 847.367 0.100006 848.3 0.100006V0.100006ZM860.4 0C861.467 0 862 0.566679 862 1.70001L861.8 11.2C863.2 9.93335 865 9.29999 867.2 9.29999C871.2 9.29999 873.2 11.7667 873.2 16.7L873.1 24.8C873.1 26.1333 872.6 26.8333 871.6 26.9C870.4 27.0333 869.834 26.4333 869.9 25.1V17.4C869.9 14.5333 869.034 13.0333 867.3 12.9C865.367 12.7667 863.534 13.7 861.8 15.7L861.5 25C861.434 26.1333 860.834 26.7 859.7 26.7C858.767 26.7 858.3 26.1 858.3 24.9L858.8 1.60001C858.867 0.600006 859.4 0.0666667 860.4 0ZM890 17.5L879.2 19C879.267 20.2 879.8 21.2667 880.8 22.2C882 23.2667 883.367 23.8 884.9 23.8C887.1 23.8 888.567 23.3667 889.3 22.5C890.034 21.7 890.633 21.2333 891.1 21.1C891.567 21.0333 891.934 21.2 892.2 21.6C892.667 22.6 892.434 23.5333 891.5 24.4C889.767 25.9333 887.5 26.7 884.7 26.7C882.634 26.7 880.834 26.0667 879.3 24.8C877.367 23.2 876.4 21.0667 876.4 18.4C876.4 16.2 877 14.2333 878.2 12.5C879.734 10.3 881.7 9.13333 884.1 9C886.567 8.86667 888.5 9.46665 889.9 10.8C891.234 12.1333 891.867 13.6 891.8 15.2C891.734 16.5333 891.134 17.3 890 17.5V17.5ZM879.5 16.4L889 15C888.867 14.0667 888.367 13.3333 887.5 12.8C886.567 12.2 885.567 11.9 884.5 11.9C883.034 11.9 881.767 12.5667 880.7 13.9C880.234 14.5 879.834 15.3333 879.5 16.4V16.4ZM897.1 8.39999C898.233 8.39999 898.8 8.93333 898.8 10C898.8 10.2 898.8 10.4 898.8 10.6C900 9.66667 901.167 9.20001 902.3 9.20001C903.767 9.13335 904.934 9.33332 905.8 9.79999C907.467 10.6 908.167 11.4667 907.9 12.4C907.434 13.7333 906.567 14 905.3 13.2C904.3 12.5333 903.2 12.3 902 12.5C900.8 12.7667 899.667 13.4 898.6 14.4L898.4 25C898.334 26.1333 897.733 26.7 896.6 26.7C895.667 26.7 895.2 26.1 895.2 24.9L895.6 9.89999C895.6 8.89999 896.1 8.39999 897.1 8.39999V8.39999ZM923.2 0C924.334 0 924.9 0.566679 924.9 1.70001L924.7 11.2C926.034 9.93335 927.833 9.29999 930.1 9.29999C934.1 9.29999 936.067 11.7667 936 16.7V24.8C936 26.1333 935.467 26.8333 934.4 26.9C933.267 27.0333 932.7 26.4333 932.7 25.1L932.8 17.4C932.8 14.5333 931.934 13.0333 930.2 12.9C928.2 12.7667 926.367 13.7 924.7 15.7L924.3 25C924.3 26.1333 923.733 26.7 922.6 26.7C921.6 26.7 921.134 26.1 921.2 24.9L921.7 1.60001C921.7 0.600006 922.2 0.0666667 923.2 0V0ZM952.9 17.5L942 19C942.067 20.2 942.634 21.2667 943.7 22.2C944.9 23.2667 946.234 23.8 947.7 23.8C949.9 23.8 951.4 23.3667 952.2 22.5C952.867 21.7 953.434 21.2333 953.9 21.1C954.434 21.0333 954.8 21.2 955 21.6C955.534 22.6 955.3 23.5333 954.3 24.4C952.567 25.9333 950.3 26.7 947.5 26.7C945.5 26.7 943.734 26.0667 942.2 24.8C940.267 23.2 939.3 21.0667 939.3 18.4C939.3 16.2 939.9 14.2333 941.1 12.5C942.633 10.3 944.567 9.13333 946.9 9C949.434 8.86667 951.4 9.46665 952.8 10.8C954.067 12.1333 954.7 13.6 954.7 15.2C954.634 16.5333 954.034 17.3 952.9 17.5V17.5ZM942.4 16.4L951.9 15C951.7 14.0667 951.2 13.3333 950.4 12.8C949.467 12.2 948.467 11.9 947.4 11.9C945.934 11.9 944.667 12.5667 943.6 13.9C943.067 14.5 942.667 15.3333 942.4 16.4V16.4ZM964.1 26.9C959.233 26.9 956.8 24.3333 956.8 19.2C956.734 15.8 957.833 13.2 960.1 11.4C962.7 9.26666 965.4 8.63333 968.2 9.5C968.534 9.23333 969 9.19999 969.6 9.39999C970.933 9.66666 971.467 10.5 971.2 11.9C970.934 13.2333 970.767 15.5 970.7 18.7C970.7 21.3 971 23.1333 971.6 24.2C972.533 25.7333 972.4 26.6333 971.2 26.9C969.867 27.1667 969.1 26.6 968.9 25.2C966.7 26.3333 965.1 26.9 964.1 26.9V26.9ZM965.9 23.7C966.3 23.5667 966.967 23.1 967.9 22.3C967.567 17.6333 967.633 14.4333 968.1 12.7C967.033 12.1 965.934 11.9333 964.8 12.2C964 12.4 963.367 12.6667 962.9 13C961.034 14.4 960.034 16.3667 959.9 18.9C959.967 22.1667 961.1 23.8667 963.3 24C964.234 24.0667 965.1 23.9667 965.9 23.7V23.7ZM974.7 9.10001C975.767 8.70001 976.567 9.16667 977.1 10.5L981.1 21.8L985.2 10.5C985.734 9.16667 986.533 8.70001 987.6 9.10001C988.467 9.50001 988.667 10.4 988.2 11.8L983.1 25C982.633 26.1333 982 26.7 981.2 26.7C980.334 26.7 979.667 26.1333 979.2 25L974.1 11.8C973.633 10.4 973.834 9.50001 974.7 9.10001ZM1004.3 9.39999C1005.37 9.86666 1005.63 10.7333 1005.1 12L995.9 33.2C995.167 34.9333 994.3 35.6 993.3 35.2C992.167 34.7333 992 33.6333 992.8 31.9L996 24.5L989.3 12.1C988.567 10.8333 988.7 9.96667 989.7 9.5C990.634 8.96667 991.467 9.33334 992.2 10.6L997.6 20.8L1002 10.7C1002.53 9.43335 1003.3 8.99999 1004.3 9.39999V9.39999ZM1019.7 8.39999C1020.77 8.39999 1021.3 8.93333 1021.3 10V10.6C1022.23 9.73334 1023.4 9.29999 1024.8 9.29999C1027 9.29999 1028.5 10.1 1029.3 11.7C1030.37 10.1 1032.03 9.29999 1034.3 9.29999C1038.37 9.29999 1040.33 11.7667 1040.2 16.7L1040.1 24.7C1040.1 25.9667 1039.6 26.6667 1038.6 26.8C1037.4 26.8667 1036.83 26.2667 1036.9 25L1037 17.5C1037 14.3667 1036.17 12.7667 1034.5 12.7C1032.5 12.6333 1031.17 13.5333 1030.5 15.4C1030.43 15.4 1030.4 15.7333 1030.4 16.4L1030.2 24.5C1030.2 25.7667 1029.7 26.4333 1028.7 26.5C1027.57 26.6333 1027 26.0333 1027 24.7L1027.2 17.3C1027.27 14.3 1026.47 12.7667 1024.8 12.7C1022.93 12.6333 1021.73 13.7 1021.2 15.9L1020.9 24.8C1020.83 26 1020.27 26.6 1019.2 26.6C1018.2 26.5333 1017.73 25.9333 1017.8 24.8L1018.1 9.89999C1018.17 8.89999 1018.7 8.39999 1019.7 8.39999V8.39999ZM1056.6 17.5L1045.7 19C1045.77 20.2 1046.33 21.2667 1047.4 22.2C1048.6 23.2667 1049.93 23.8 1051.4 23.8C1053.6 23.8 1055.07 23.3667 1055.8 22.5C1056.53 21.7 1057.13 21.2333 1057.6 21.1C1058.13 21.0333 1058.5 21.2 1058.7 21.6C1059.23 22.6 1059 23.5333 1058 24.4C1056.27 25.9333 1054 26.7 1051.2 26.7C1049.2 26.7 1047.43 26.0667 1045.9 24.8C1043.97 23.2 1043 21.0667 1043 18.4C1043 16.2 1043.6 14.2333 1044.8 12.5C1046.27 10.3 1048.2 9.13333 1050.6 9C1053.07 8.86667 1055 9.46665 1056.4 10.8C1057.73 12.1333 1058.37 13.6 1058.3 15.2C1058.3 16.5333 1057.73 17.3 1056.6 17.5V17.5ZM1046.1 16.4L1055.6 15C1055.4 14.0667 1054.9 13.3333 1054.1 12.8C1053.17 12.2 1052.17 11.9 1051.1 11.9C1049.63 11.9 1048.33 12.5667 1047.2 13.9C1046.73 14.5 1046.37 15.3333 1046.1 16.4V16.4ZM1067.6 0.100006C1068.67 0.100006 1069.2 0.633345 1069.2 1.70001C1069.2 4.43335 1069.17 6.93335 1069.1 9.20001L1072.3 9.10001C1073.63 9.10001 1074.3 9.66665 1074.3 10.8C1074.3 11.8667 1073.67 12.4 1072.4 12.4C1071.27 12.4 1070.13 12.4 1069 12.4L1068.7 25C1068.7 26.1333 1068.1 26.7 1066.9 26.7C1065.97 26.7 1065.5 26.1 1065.5 24.9L1065.8 12.4C1064.53 12.4 1063.27 12.4 1062 12.4C1061.07 12.4 1060.6 11.8667 1060.6 10.8C1060.6 9.73332 1061.13 9.20001 1062.2 9.20001C1063.4 9.20001 1064.63 9.20001 1065.9 9.20001L1066.1 1.60001C1066.1 0.600006 1066.6 0.100006 1067.6 0.100006V0.100006ZM1083.3 26.9C1078.5 26.9 1076.07 24.3333 1076 19.2C1076 15.8 1077.1 13.2 1079.3 11.4C1081.9 9.26666 1084.6 8.63333 1087.4 9.5C1087.73 9.23333 1088.23 9.19999 1088.9 9.39999C1090.17 9.66666 1090.67 10.5 1090.4 11.9C1090.2 13.2333 1090.07 15.5 1090 18.7C1089.93 21.3 1090.23 23.1333 1090.9 24.2C1091.77 25.7333 1091.63 26.6333 1090.5 26.9C1089.17 27.1667 1088.37 26.6 1088.1 25.2C1085.9 26.3333 1084.3 26.9 1083.3 26.9V26.9ZM1085.2 23.7C1085.53 23.5667 1086.2 23.1 1087.2 22.3C1086.8 17.6333 1086.83 14.4333 1087.3 12.7C1086.3 12.1 1085.23 11.9333 1084.1 12.2C1083.3 12.4 1082.67 12.6667 1082.2 13C1080.27 14.4 1079.27 16.3667 1079.2 18.9C1079.2 22.1667 1080.3 23.8667 1082.5 24C1083.43 24.0667 1084.33 23.9667 1085.2 23.7V23.7ZM1096.9 0.100006C1098.03 0.100006 1098.57 0.633345 1098.5 1.70001L1098 25C1098 26.1333 1097.43 26.7 1096.3 26.7C1095.3 26.7 1094.83 26.1 1094.9 24.9L1095.4 1.60001C1095.47 0.600006 1095.97 0.100006 1096.9 0.100006V0.100006ZM1107.4 23.7C1109.8 23.8333 1111.27 23.5 1111.8 22.7C1112.27 22.0333 1112.03 21.2333 1111.1 20.3C1110.5 19.6333 1109.13 19.1667 1107 18.9C1104.8 18.5667 1103.53 17.7 1103.2 16.3C1102.93 15.2333 1103.03 14.1333 1103.5 13C1103.97 11.8 1104.63 10.8667 1105.5 10.2C1106.57 9.46668 1107.8 9.03333 1109.2 8.89999C1110.8 8.76666 1112.2 8.96667 1113.4 9.5C1114.93 10.3 1115.77 11.1667 1115.9 12.1C1115.97 12.7667 1115.77 13.3 1115.3 13.7C1114.7 14.1667 1113.77 13.8 1112.5 12.6C1111.9 12 1110.97 11.7333 1109.7 11.8C1108.43 11.8667 1107.5 12.2667 1106.9 13C1106.37 13.6 1106.2 14.2333 1106.4 14.9C1106.6 15.5 1107.33 15.8667 1108.6 16C1109.67 16.1333 1110.63 16.4 1111.5 16.8C1112.63 17.3333 1113.43 17.8667 1113.9 18.4C1115.03 19.7333 1115.5 21.0667 1115.3 22.4C1115.17 23.8 1114.43 24.9333 1113.1 25.8C1112.03 26.5333 1110.6 26.9 1108.8 26.9C1107.27 26.9667 1106.03 26.8333 1105.1 26.5C1104.5 26.3667 1103.8 26.0667 1103 25.6C1102.2 25.1333 1101.8 24.6 1101.8 24C1101.73 23.2667 1101.97 22.7333 1102.5 22.4C1103.1 22 1103.77 22.0667 1104.5 22.6C1105.43 23.2667 1106.4 23.6333 1107.4 23.7V23.7ZM922.5 40.1C923.567 40.1 924.1 40.6333 924.1 41.7L923.6 65C923.6 66.1333 923 66.7 921.8 66.7C920.867 66.7 920.4 66.1 920.4 64.9L921 41.6C921 40.6 921.5 40.1 922.5 40.1V40.1ZM941.7 57.5L930.8 59C930.867 60.2 931.434 61.2667 932.5 62.2C933.7 63.2667 935.034 63.8 936.5 63.8C938.7 63.8 940.2 63.3667 941 62.5C941.667 61.7 942.234 61.2333 942.7 61.1C943.234 61.0333 943.6 61.2 943.8 61.6C944.334 62.6 944.1 63.5333 943.1 64.4C941.367 65.9333 939.1 66.7 936.3 66.7C934.3 66.7 932.534 66.0667 931 64.8C929.067 63.2 928.1 61.0667 928.1 58.4C928.1 56.2 928.7 54.2333 929.9 52.5C931.434 50.3 933.367 49.1333 935.7 49C938.234 48.8667 940.2 49.4667 941.6 50.8C942.867 52.1333 943.5 53.6 943.5 55.2C943.434 56.5333 942.834 57.3 941.7 57.5V57.5ZM931.2 56.4L940.7 55C940.5 54.0667 940 53.3333 939.2 52.8C938.267 52.2 937.267 51.9 936.2 51.9C934.734 51.9 933.467 52.5667 932.4 53.9C931.867 54.5 931.467 55.3333 931.2 56.4V56.4ZM952.9 66.9C948.034 66.9 945.6 64.3333 945.6 59.2C945.533 55.8 946.634 53.2 948.9 51.4C951.5 49.2667 954.2 48.6333 957 49.5C957.334 49.2333 957.8 49.2 958.4 49.4C959.734 49.6667 960.267 50.5 960 51.9C959.734 53.2333 959.6 55.5 959.6 58.7C959.533 61.3 959.8 63.1333 960.4 64.2C961.334 65.7333 961.2 66.6333 960 66.9C958.667 67.1667 957.9 66.6 957.7 65.2C955.5 66.3333 953.9 66.9 952.9 66.9V66.9ZM954.7 63.7C955.1 63.5667 955.767 63.1 956.7 62.3C956.367 57.6333 956.434 54.4333 956.9 52.7C955.834 52.1 954.733 51.9333 953.6 52.2C952.8 52.4 952.167 52.6667 951.7 53C949.834 54.4 948.834 56.3667 948.7 58.9C948.767 62.1667 949.9 63.8667 952.1 64C953.033 64.0667 953.9 63.9667 954.7 63.7V63.7ZM966.3 40.1C967.434 40.1 968 40.6333 968 41.7L967.7 55.9L975 49.1C976.2 48.1 977.134 47.9667 977.8 48.7C978.534 49.5667 978.434 50.4 977.5 51.2L972.7 55.6L978.2 63.2C979.067 64.4 979.2 65.3333 978.6 66C977.6 67 976.667 66.8667 975.8 65.6L970.3 57.7L967.6 60.2L967.5 65C967.434 66.1333 966.834 66.7 965.7 66.7C964.7 66.7 964.234 66.1 964.3 64.9L964.8 41.6C964.867 40.6 965.367 40.1 966.3 40.1V40.1ZM997.2 40.1C998.334 40.1 998.9 40.6333 998.9 41.7C998.9 44.4333 998.834 46.9333 998.7 49.2L1002 49.1C1003.33 49.1 1004 49.6667 1004 50.8C1004 51.8667 1003.37 52.4 1002.1 52.4C1000.97 52.4 999.834 52.4 998.7 52.4L998.4 65C998.4 66.1333 997.8 66.7 996.6 66.7C995.667 66.7 995.2 66.1 995.2 64.9L995.5 52.4C994.234 52.4 992.967 52.4 991.7 52.4C990.767 52.4 990.3 51.8667 990.3 50.8C990.3 49.7333 990.834 49.2 991.9 49.2C993.1 49.2 994.333 49.2 995.6 49.2L995.8 41.6C995.8 40.6 996.267 40.1 997.2 40.1V40.1ZM1009.3 40C1010.43 40 1010.97 40.5667 1010.9 41.7L1010.8 51.2C1012.13 49.9333 1013.9 49.3 1016.1 49.3C1020.17 49.3 1022.17 51.7667 1022.1 56.7L1022 64.8C1022 66.1333 1021.5 66.8333 1020.5 66.9C1019.37 67.0333 1018.8 66.4333 1018.8 65.1V57.4C1018.87 54.5333 1018.03 53.0333 1016.3 52.9C1014.3 52.7667 1012.47 53.7 1010.8 55.7L1010.4 65C1010.33 66.1333 1009.73 66.7 1008.6 66.7C1007.67 66.7 1007.2 66.1 1007.2 64.9L1007.8 41.6C1007.8 40.6 1008.3 40.0667 1009.3 40V40ZM1028 48.4C1029.07 48.4 1029.6 48.9333 1029.6 50C1029.6 50.2 1029.6 50.4 1029.6 50.6C1030.8 49.6667 1032 49.2 1033.2 49.2C1034.6 49.1333 1035.77 49.3333 1036.7 49.8C1038.3 50.6 1038.97 51.4667 1038.7 52.4C1038.23 53.7333 1037.37 54 1036.1 53.2C1035.17 52.5333 1034.07 52.3 1032.8 52.5C1031.6 52.7667 1030.5 53.4 1029.5 54.4L1029.2 65C1029.2 66.1333 1028.63 66.7 1027.5 66.7C1026.5 66.7 1026.03 66.1 1026.1 64.9L1026.4 49.9C1026.47 48.9 1027 48.4 1028 48.4V48.4ZM1049 52.4C1047.6 52.4 1046.57 52.9 1045.9 53.9C1044.83 55.3 1044.3 56.9 1044.3 58.7C1044.3 60.3667 1044.67 61.6333 1045.4 62.5C1046.2 63.3 1047.13 63.7 1048.2 63.7C1049.33 63.7 1050.3 63.3 1051.1 62.5C1051.97 61.5667 1052.4 60.1 1052.4 58.1C1052.4 54.2333 1051.27 52.3333 1049 52.4V52.4ZM1048.9 49.1C1053.23 49.1 1055.4 52.2 1055.4 58.4C1055.4 61 1054.83 63 1053.7 64.4C1052.37 66 1050.4 66.8 1047.8 66.8C1045.87 66.8 1044.23 66 1042.9 64.4C1041.7 63 1041.1 61 1041.1 58.4C1041.1 55.9333 1041.83 53.7667 1043.3 51.9C1044.7 50.0333 1046.57 49.1 1048.9 49.1V49.1ZM1071 67.2C1069.87 67.2 1069.3 66.6667 1069.3 65.6L1069.4 64.7C1068.2 65.7667 1066.7 66.3 1064.9 66.3C1060.83 66.3 1058.83 63.8333 1058.9 58.9V51C1058.97 49.7333 1059.5 49.0333 1060.5 48.9C1061.63 48.8333 1062.2 49.4333 1062.2 50.7L1062.1 57.8C1062.1 60.4 1062.5 61.9667 1063.3 62.5C1064.43 63.2333 1065.77 63.2333 1067.3 62.5C1068.7 61.7667 1069.43 60.5333 1069.5 58.8L1069.7 50.6C1069.7 49.4667 1070.27 48.9 1071.4 48.9C1072.4 48.9 1072.9 49.5 1072.9 50.7L1072.5 65.7C1072.43 66.7 1071.93 67.2 1071 67.2V67.2ZM1087.1 56.3C1087.23 55.3 1087.3 54.6667 1087.3 54.4C1087.23 53 1086.4 52.3 1084.8 52.3C1083.4 52.3 1082.1 52.6667 1080.9 53.4C1079.63 54.2 1078.87 55.8667 1078.6 58.4C1078.33 61.2667 1079.27 62.7667 1081.4 62.9C1083.73 63.1 1085.33 62.2333 1086.2 60.3C1086.4 59.9 1086.7 58.5667 1087.1 56.3ZM1089.2 51C1090.2 51.1333 1090.63 51.8667 1090.5 53.2L1089.3 67C1088.83 72.8 1085.77 75.5 1080.1 75.1C1078.1 74.9667 1076.77 74.7333 1076.1 74.4C1075.37 74.0667 1075.1 73.4667 1075.3 72.6C1075.5 71.6667 1076.1 71.3333 1077.1 71.6C1079.1 72.0667 1080.8 72.1667 1082.2 71.9C1084.6 71.5 1085.93 69.8667 1086.2 67L1086.4 64.4C1085.53 65.8 1083.7 66.3667 1080.9 66.1C1076.1 65.7 1074.37 62.3333 1075.7 56C1076.63 51.8 1079.23 49.4667 1083.5 49C1086.43 48.7333 1088.23 49.3667 1088.9 50.9C1088.97 50.9 1089.07 50.9333 1089.2 51V51ZM1096.2 40C1097.33 40 1097.9 40.5667 1097.9 41.7L1097.7 51.2C1099.03 49.9333 1100.83 49.3 1103.1 49.3C1107.1 49.3 1109.07 51.7667 1109 56.7V64.8C1109 66.1333 1108.47 66.8333 1107.4 66.9C1106.27 67.0333 1105.7 66.4333 1105.7 65.1L1105.8 57.4C1105.8 54.5333 1104.93 53.0333 1103.2 52.9C1101.2 52.7667 1099.37 53.7 1097.7 55.7L1097.4 65C1097.33 66.1333 1096.73 66.7 1095.6 66.7C1094.6 66.7 1094.13 66.1 1094.2 64.9L1094.7 41.6C1094.7 40.6 1095.2 40.0667 1096.2 40V40ZM7.10019 80.1C8.23353 80.1 8.80019 80.6333 8.80019 81.7C8.73353 84.4333 8.66686 86.9333 8.60019 89.2L11.9002 89.1C13.2335 89.1 13.9002 89.6667 13.9002 90.8C13.9002 91.8667 13.2669 92.4 12.0002 92.4C10.8669 92.4 9.70019 92.4 8.50019 92.4L8.30019 105C8.23353 106.133 7.63353 106.7 6.50019 106.7C5.50019 106.7 5.03353 106.1 5.10019 104.9L5.40019 92.4C4.13353 92.4 2.86686 92.4 1.60019 92.4C0.666862 92.4 0.200195 91.8667 0.200195 90.8C0.200195 89.7333 0.700195 89.2 1.7002 89.2C2.96686 89.2 4.23353 89.2 5.50019 89.2L5.60019 81.6C5.66686 80.6 6.16686 80.1 7.10019 80.1V80.1ZM19.1002 80C20.2335 80 20.8002 80.5667 20.8002 81.7L20.6002 91.2C21.9335 89.9333 23.7335 89.3 26.0002 89.3C30.0002 89.3 32.0002 91.7667 32.0002 96.7L31.9002 104.8C31.9002 106.133 31.4002 106.833 30.4002 106.9C29.2002 107.033 28.6335 106.433 28.7002 105.1V97.4C28.7002 94.5333 27.8335 93.0333 26.1002 92.9C24.1002 92.7667 22.2669 93.7 20.6002 95.7L20.3002 105C20.2335 106.133 19.6335 106.7 18.5002 106.7C17.5669 106.7 17.1002 106.1 17.1002 104.9L17.6002 81.6C17.6669 80.6 18.1669 80.0667 19.1002 80ZM48.8002 97.5L38.0002 99C38.0002 100.2 38.5335 101.267 39.6002 102.2C40.8002 103.267 42.1669 103.8 43.7002 103.8C45.9002 103.8 47.3669 103.367 48.1002 102.5C48.8335 101.7 49.4335 101.233 49.9002 101.1C50.3669 101.033 50.7335 101.2 51.0002 101.6C51.4669 102.6 51.2002 103.533 50.2002 104.4C48.5335 105.933 46.3002 106.7 43.5002 106.7C41.4335 106.7 39.6335 106.067 38.1002 104.8C36.1669 103.2 35.2002 101.067 35.2002 98.4C35.2002 96.2 35.8002 94.2333 37.0002 92.5C38.5335 90.3 40.5002 89.1333 42.9002 89C45.3669 88.8667 47.3002 89.4667 48.7002 90.8C50.0335 92.1333 50.6669 93.6 50.6002 95.2C50.5335 96.5333 49.9335 97.3 48.8002 97.5V97.5ZM38.3002 96.4L47.8002 95C47.6669 94.0667 47.1669 93.3333 46.3002 92.8C45.3669 92.2 44.3669 91.9 43.3002 91.9C41.8335 91.9 40.5669 92.5667 39.5002 93.9C39.0335 94.5 38.6335 95.3333 38.3002 96.4V96.4ZM68.1002 103.7C70.5002 103.833 71.9669 103.5 72.5002 102.7C72.9002 102.033 72.6669 101.233 71.8002 100.3C71.2002 99.6333 69.8335 99.1667 67.7002 98.9C65.5002 98.5667 64.2335 97.7 63.9002 96.3C63.6335 95.2333 63.7002 94.1333 64.1002 93C64.5669 91.8 65.2669 90.8667 66.2002 90.2C67.2669 89.4667 68.5002 89.0333 69.9002 88.9C71.4335 88.7667 72.8002 88.9667 74.0002 89.5C75.5335 90.3 76.3669 91.1667 76.5002 92.1C76.6335 92.7667 76.4335 93.3 75.9002 93.7C75.3002 94.1667 74.3669 93.8 73.1002 92.6C72.5002 92 71.6002 91.7333 70.4002 91.8C69.0669 91.8667 68.1002 92.2667 67.5002 93C66.9669 93.6 66.8002 94.2333 67.0002 94.9C67.2002 95.5 67.9669 95.8667 69.3002 96C70.3002 96.1333 71.2335 96.4 72.1002 96.8C73.3002 97.3333 74.1335 97.8667 74.6002 98.4C75.6669 99.7333 76.1002 101.067 75.9002 102.4C75.7669 103.8 75.0335 104.933 73.7002 105.8C72.6335 106.533 71.2002 106.9 69.4002 106.9C67.8669 106.967 66.6335 106.833 65.7002 106.5C65.1669 106.367 64.4669 106.067 63.6002 105.6C62.8669 105.133 62.4669 104.6 62.4002 104C62.3335 103.267 62.5669 102.733 63.1002 102.4C63.7002 102 64.4002 102.067 65.2002 102.6C66.1335 103.267 67.1002 103.633 68.1002 103.7V103.7ZM87.0002 92.4C85.6002 92.4 84.5669 92.9 83.9002 93.9C82.8335 95.3 82.3002 96.9 82.3002 98.7C82.3002 100.367 82.6669 101.633 83.4002 102.5C84.2002 103.3 85.1335 103.7 86.2002 103.7C87.3335 103.7 88.3002 103.3 89.1002 102.5C89.9669 101.567 90.4002 100.1 90.4002 98.1C90.4002 94.2333 89.2669 92.3333 87.0002 92.4V92.4ZM86.9002 89.1C91.2335 89.1 93.4002 92.2 93.4002 98.4C93.4002 101 92.8335 103 91.7002 104.4C90.4335 106 88.4669 106.8 85.8002 106.8C83.8669 106.8 82.2335 106 80.9002 104.4C79.7002 103 79.1002 101 79.1002 98.4C79.1002 95.9333 79.8335 93.7667 81.3002 91.9C82.7002 90.0333 84.5669 89.1 86.9002 89.1V89.1ZM100.2 81.8C100.6 81.8 100.967 81.9 101.3 82.1C101.634 82.3 101.867 82.5667 102 82.9C102.134 83.1667 102.2 83.4667 102.2 83.8C102.2 83.8667 102.2 83.9333 102.2 84C102.2 84.4 102.067 84.7333 101.8 85C101.6 85.3333 101.367 85.5333 101.1 85.6C100.834 85.7333 100.534 85.8 100.2 85.8C100.2 85.8 100.167 85.8 100.1 85.8C99.7669 85.8 99.4669 85.7333 99.2002 85.6C98.9335 85.4 98.7002 85.1333 98.5002 84.8C98.3002 84.5333 98.2002 84.2 98.2002 83.8C98.2002 83.4667 98.3002 83.1667 98.5002 82.9C98.7002 82.5667 98.9335 82.3 99.2002 82.1C99.4669 81.9 99.8002 81.8 100.2 81.8V81.8ZM100.1 89.1C101.1 89.1667 101.6 89.8667 101.6 91.2L101.3 104.6C101.3 106.067 100.8 106.8 99.8002 106.8C98.6669 106.8 98.1002 106.133 98.1002 104.8L98.4002 91.2C98.4002 89.8 98.9669 89.1 100.1 89.1V89.1ZM109.2 80.1C110.334 80.1 110.9 80.6333 110.9 81.7L110.4 105C110.4 106.133 109.8 106.7 108.6 106.7C107.667 106.7 107.2 106.1 107.2 104.9L107.8 81.6C107.8 80.6 108.267 80.1 109.2 80.1V80.1ZM756.8 119.1C757.934 119.1 758.5 119.633 758.5 120.7C758.434 123.433 758.367 125.933 758.3 128.2L761.6 128.1C762.933 128.1 763.6 128.667 763.6 129.8C763.6 130.867 762.967 131.4 761.7 131.4C760.567 131.4 759.4 131.4 758.2 131.4L758 144C757.934 145.133 757.334 145.7 756.2 145.7C755.267 145.7 754.8 145.1 754.8 143.9L755.1 131.4C753.833 131.4 752.567 131.4 751.3 131.4C750.367 131.4 749.9 130.867 749.9 129.8C749.9 128.733 750.4 128.2 751.4 128.2C752.667 128.2 753.934 128.2 755.2 128.2L755.3 120.6C755.367 119.6 755.867 119.1 756.8 119.1V119.1ZM768.9 119C769.967 119 770.5 119.567 770.5 120.7L770.3 130.2C771.634 128.933 773.434 128.3 775.7 128.3C779.7 128.3 781.7 130.767 781.7 135.7L781.6 143.8C781.6 145.133 781.1 145.833 780.1 145.9C778.9 146.033 778.334 145.433 778.4 144.1V136.4C778.4 133.533 777.534 132.033 775.8 131.9C773.8 131.767 771.967 132.7 770.3 134.7L770 144C769.934 145.133 769.334 145.7 768.2 145.7C767.267 145.7 766.8 145.1 766.8 143.9L767.3 120.6C767.367 119.6 767.9 119.067 768.9 119ZM798.5 136.5L787.7 138C787.767 139.2 788.3 140.267 789.3 141.2C790.5 142.267 791.867 142.8 793.4 142.8C795.6 142.8 797.067 142.367 797.8 141.5C798.534 140.7 799.133 140.233 799.6 140.1C800.067 140.033 800.434 140.2 800.7 140.6C801.167 141.6 800.9 142.533 799.9 143.4C798.234 144.933 796 145.7 793.2 145.7C791.134 145.7 789.334 145.067 787.8 143.8C785.867 142.2 784.9 140.067 784.9 137.4C784.9 135.2 785.5 133.233 786.7 131.5C788.234 129.3 790.2 128.133 792.6 128C795.067 127.867 797 128.467 798.4 129.8C799.734 131.133 800.367 132.6 800.3 134.2C800.234 135.533 799.634 136.3 798.5 136.5V136.5ZM788 135.4L797.5 134C797.367 133.067 796.867 132.333 796 131.8C795.067 131.2 794.067 130.9 793 130.9C791.534 130.9 790.267 131.567 789.2 132.9C788.734 133.5 788.334 134.333 788 135.4V135.4ZM817 128.4C818.067 128.867 818.334 129.733 817.8 131L808.6 152.2C807.867 153.933 807 154.6 806 154.2C804.867 153.733 804.7 152.633 805.5 150.9L808.7 143.5L802 131.1C801.267 129.833 801.367 128.967 802.3 128.5C803.3 127.967 804.167 128.333 804.9 129.6L810.3 139.8L814.7 129.7C815.234 128.433 816 128 817 128.4V128.4ZM833.6 120.8C833.667 120.8 833.7 120.8 833.7 120.8C834.1 120.8 834.434 120.9 834.7 121.1C835.034 121.3 835.3 121.567 835.5 121.9C835.634 122.167 835.7 122.467 835.7 122.8C835.7 122.867 835.7 122.933 835.7 123C835.7 123.4 835.567 123.733 835.3 124C835.1 124.333 834.867 124.533 834.6 124.6C834.333 124.733 834.034 124.8 833.7 124.8C833.634 124.8 833.6 124.8 833.6 124.8C833.267 124.8 832.967 124.733 832.7 124.6C832.367 124.4 832.134 124.133 832 123.8C831.8 123.533 831.7 123.2 831.7 122.8C831.7 122.467 831.767 122.167 831.9 121.9C832.1 121.567 832.333 121.3 832.6 121.1C832.933 120.9 833.267 120.8 833.6 120.8V120.8ZM833.5 128.1C834.567 128.167 835.067 128.867 835 130.2L834.8 143.6C834.8 145.067 834.3 145.8 833.3 145.8C832.1 145.8 831.533 145.133 831.6 143.8L831.9 130.2C831.9 128.8 832.434 128.1 833.5 128.1V128.1ZM841.9 127.4C843.034 127.4 843.567 127.933 843.5 129C843.5 129.267 843.5 129.567 843.5 129.9C844.7 128.833 846.2 128.3 848 128.3C852.067 128.3 854.067 130.767 854 135.7L853.8 143.7C853.8 145.033 853.3 145.733 852.3 145.8C851.1 145.933 850.533 145.333 850.6 144L850.8 136.4C850.867 133.4 850 131.833 848.2 131.7C846.734 131.633 845.134 132.433 843.4 134.1L843.2 143.9C843.134 145.033 842.534 145.6 841.4 145.6C840.467 145.6 840 145.033 840 143.9L840.4 128.9C840.4 127.9 840.9 127.4 841.9 127.4V127.4ZM858.2 132.7C857.067 132.7 856.5 132.167 856.5 131.1C856.5 130.033 857.134 129.5 858.4 129.5H861C861.067 125.367 861.6 122.567 862.6 121.1C863.467 119.9 865.034 119.267 867.3 119.2C869.634 119.133 870.667 119.7 870.4 120.9C870.267 121.967 869.534 122.433 868.2 122.3C866.2 122.1 864.967 122.867 864.5 124.6C864.234 125.6 864.1 127.233 864.1 129.5H867.8C869.2 129.5 869.934 130 870 131C870.067 132.133 869.4 132.7 868 132.7H864L863.9 144.1C863.834 145.3 863.233 145.9 862.1 145.9C861.1 145.833 860.634 145.233 860.7 144.1L860.9 132.7H858.2ZM876.7 119.1C877.767 119.1 878.3 119.633 878.3 120.7L877.8 144C877.8 145.133 877.233 145.7 876.1 145.7C875.1 145.7 874.6 145.1 874.6 143.9L875.2 120.6C875.2 119.6 875.7 119.1 876.7 119.1ZM885.9 120.8C885.9 120.8 885.934 120.8 886 120.8C886.334 120.8 886.667 120.9 887 121.1C887.334 121.3 887.567 121.567 887.7 121.9C887.9 122.167 888 122.467 888 122.8C888 122.867 888 122.933 888 123C887.934 123.4 887.8 123.733 887.6 124C887.333 124.333 887.1 124.533 886.9 124.6C886.634 124.733 886.334 124.8 886 124.8C885.934 124.8 885.9 124.8 885.9 124.8C885.567 124.8 885.234 124.733 884.9 124.6C884.634 124.4 884.4 124.133 884.2 123.8C884.067 123.533 884 123.2 884 122.8C884 122.467 884.067 122.167 884.2 121.9C884.4 121.567 884.634 121.3 884.9 121.1C885.234 120.9 885.567 120.8 885.9 120.8ZM885.8 128.1C886.8 128.167 887.3 128.867 887.3 130.2L887.1 143.6C887.033 145.067 886.5 145.8 885.5 145.8C884.367 145.8 883.8 145.133 883.8 143.8L884.1 130.2C884.167 128.8 884.734 128.1 885.8 128.1V128.1ZM903.2 141.6C904.134 140.933 904.9 141.133 905.5 142.2C905.834 142.8 905.567 143.5 904.7 144.3C903.5 145.3 901.633 145.8 899.1 145.8C897.1 145.8 895.433 145.133 894.1 143.8C892.5 142.267 891.7 140.3 891.7 137.9C891.7 135.233 892.267 133.067 893.4 131.4C894.8 129.333 896.6 128.2 898.8 128C900.067 127.933 901.234 128.067 902.3 128.4C903.634 128.867 904.5 129.433 904.9 130.1C905.567 131.1 905.534 131.867 904.8 132.4C904.267 132.8 903.5 132.6 902.5 131.8C901.234 130.867 899.8 130.667 898.2 131.2C897.334 131.467 896.534 132.1 895.8 133.1C895 134.3 894.567 135.667 894.5 137.2C894.5 138.6 894.934 139.9 895.8 141.1C896.6 142.167 897.7 142.733 899.1 142.8C900.567 142.867 901.934 142.467 903.2 141.6V141.6ZM915 119.1C916.067 119.1 916.6 119.633 916.6 120.7C916.6 123.433 916.567 125.933 916.5 128.2L919.8 128.1C921.134 128.1 921.8 128.667 921.8 129.8C921.8 130.867 921.167 131.4 919.9 131.4C918.7 131.4 917.534 131.4 916.4 131.4L916.1 144C916.1 145.133 915.534 145.7 914.4 145.7C913.4 145.7 912.934 145.1 913 143.9L913.3 131.4C912.034 131.4 910.767 131.4 909.5 131.4C908.567 131.4 908.1 130.867 908.1 129.8C908.1 128.733 908.6 128.2 909.6 128.2C910.867 128.2 912.1 128.2 913.3 128.2L913.5 120.6C913.567 119.6 914.067 119.1 915 119.1V119.1ZM936.9 119C938.034 119 938.567 119.567 938.5 120.7L938.4 130.2C939.734 128.933 941.534 128.3 943.8 128.3C947.8 128.3 949.767 130.767 949.7 135.7V143.8C949.634 145.133 949.1 145.833 948.1 145.9C946.967 146.033 946.4 145.433 946.4 144.1L946.5 136.4C946.5 133.533 945.634 132.033 943.9 131.9C941.9 131.767 940.067 132.7 938.4 134.7L938 144C938 145.133 937.434 145.7 936.3 145.7C935.3 145.7 934.834 145.1 934.9 143.9L935.4 120.6C935.4 119.6 935.9 119.067 936.9 119V119ZM959.7 145.9C954.834 145.9 952.4 143.333 952.4 138.2C952.334 134.8 953.434 132.2 955.7 130.4C958.3 128.267 961 127.633 963.8 128.5C964.134 128.233 964.6 128.2 965.2 128.4C966.534 128.667 967.067 129.5 966.8 130.9C966.534 132.233 966.4 134.5 966.4 137.7C966.334 140.3 966.6 142.133 967.2 143.2C968.134 144.733 968 145.633 966.8 145.9C965.467 146.167 964.7 145.6 964.5 144.2C962.3 145.333 960.7 145.9 959.7 145.9V145.9ZM961.5 142.7C961.9 142.567 962.6 142.1 963.6 141.3C963.2 136.633 963.234 133.433 963.7 131.7C962.7 131.1 961.6 130.933 960.4 131.2C959.667 131.4 959.034 131.667 958.5 132C956.634 133.4 955.634 135.367 955.5 137.9C955.567 141.167 956.7 142.867 958.9 143C959.834 143.067 960.7 142.967 961.5 142.7V142.7ZM972.5 127.4C973.567 127.4 974.1 127.933 974.1 129C974.1 129.2 974.1 129.4 974.1 129.6C975.3 128.667 976.5 128.2 977.7 128.2C979.1 128.133 980.267 128.333 981.2 128.8C982.8 129.6 983.467 130.467 983.2 131.4C982.734 132.733 981.9 133 980.7 132.2C979.7 131.533 978.567 131.3 977.3 131.5C976.1 131.767 975 132.4 974 133.4L973.7 144C973.7 145.133 973.134 145.7 972 145.7C971 145.7 970.533 145.1 970.6 143.9L970.9 128.9C970.967 127.9 971.5 127.4 972.5 127.4V127.4ZM988 127.4C989.134 127.4 989.7 127.933 989.7 129V129.6C990.634 128.733 991.8 128.3 993.2 128.3C995.4 128.3 996.9 129.1 997.7 130.7C998.767 129.1 1000.4 128.3 1002.6 128.3C1006.67 128.3 1008.67 130.767 1008.6 135.7L1008.5 143.7C1008.5 144.967 1007.97 145.667 1006.9 145.8C1005.77 145.867 1005.2 145.267 1005.2 144L1005.3 136.5C1005.37 133.367 1004.57 131.767 1002.9 131.7C1000.9 131.633 999.534 132.533 998.8 134.4C998.8 134.4 998.8 134.733 998.8 135.4L998.6 143.5C998.533 144.767 998 145.433 997 145.5C995.934 145.633 995.4 145.033 995.4 143.7L995.6 136.3C995.667 133.3 994.867 131.767 993.2 131.7C991.334 131.633 990.1 132.7 989.5 134.9L989.3 143.8C989.234 145 988.634 145.6 987.5 145.6C986.567 145.533 986.1 144.933 986.1 143.8L986.5 128.9C986.5 127.9 987 127.4 988 127.4ZM1027.7 119.1C1028.83 119.1 1029.4 119.633 1029.4 120.7C1029.33 123.433 1029.27 125.933 1029.2 128.2L1032.5 128.1C1033.83 128.1 1034.5 128.667 1034.5 129.8C1034.5 130.867 1033.87 131.4 1032.6 131.4C1031.47 131.4 1030.3 131.4 1029.1 131.4L1028.9 144C1028.83 145.133 1028.23 145.7 1027.1 145.7C1026.17 145.7 1025.7 145.1 1025.7 143.9L1026 131.4C1024.73 131.4 1023.47 131.4 1022.2 131.4C1021.27 131.4 1020.8 130.867 1020.8 129.8C1020.8 128.733 1021.3 128.2 1022.3 128.2C1023.57 128.2 1024.83 128.2 1026.1 128.2L1026.2 120.6C1026.27 119.6 1026.77 119.1 1027.7 119.1V119.1ZM1044.6 131.4C1043.2 131.4 1042.13 131.9 1041.4 132.9C1040.33 134.3 1039.8 135.9 1039.8 137.7C1039.8 139.367 1040.2 140.633 1041 141.5C1041.8 142.3 1042.7 142.7 1043.7 142.7C1044.9 142.7 1045.9 142.3 1046.7 141.5C1047.57 140.567 1048 139.1 1048 137.1C1048 133.233 1046.87 131.333 1044.6 131.4V131.4ZM1044.5 128.1C1048.83 128.1 1051 131.2 1051 137.4C1051 140 1050.4 142 1049.2 143.4C1047.93 145 1045.97 145.8 1043.3 145.8C1041.43 145.8 1039.83 145 1038.5 143.4C1037.3 142 1036.7 140 1036.7 137.4C1036.7 134.933 1037.4 132.767 1038.8 130.9C1040.2 129.033 1042.1 128.1 1044.5 128.1ZM1067 119C1068.07 119 1068.6 119.567 1068.6 120.7L1068.5 130.2C1069.83 128.933 1071.6 128.3 1073.8 128.3C1077.87 128.3 1079.87 130.767 1079.8 135.7L1079.7 143.8C1079.7 145.133 1079.2 145.833 1078.2 145.9C1077.07 146.033 1076.5 145.433 1076.5 144.1V136.4C1076.57 133.533 1075.7 132.033 1073.9 131.9C1071.97 131.767 1070.17 132.7 1068.5 134.7L1068.1 144C1068.03 145.133 1067.43 145.7 1066.3 145.7C1065.37 145.7 1064.9 145.1 1064.9 143.9L1065.5 120.6C1065.5 119.6 1066 119.067 1067 119V119ZM1095.5 146.2C1094.37 146.2 1093.8 145.667 1093.8 144.6V143.7C1092.67 144.767 1091.2 145.3 1089.4 145.3C1085.33 145.3 1083.33 142.833 1083.4 137.9V130C1083.47 128.733 1084 128.033 1085 127.9C1086.13 127.833 1086.67 128.433 1086.6 129.7V136.8C1086.6 139.4 1087 140.967 1087.8 141.5C1088.93 142.233 1090.27 142.233 1091.8 141.5C1093.2 140.767 1093.93 139.533 1094 137.8L1094.2 129.6C1094.2 128.467 1094.77 127.9 1095.9 127.9C1096.9 127.9 1097.37 128.5 1097.3 129.7L1097 144.7C1096.93 145.7 1096.43 146.2 1095.5 146.2V146.2ZM1102.5 127.4C1103.63 127.4 1104.2 127.933 1104.2 129L1104.1 129.6C1105.1 128.733 1106.27 128.3 1107.6 128.3C1109.87 128.3 1111.4 129.1 1112.2 130.7C1113.27 129.1 1114.9 128.3 1117.1 128.3C1121.17 128.3 1123.17 130.767 1123.1 135.7L1123 143.7C1122.93 144.967 1122.4 145.667 1121.4 145.8C1120.27 145.867 1119.7 145.267 1119.7 144L1119.8 136.5C1119.87 133.367 1119.03 131.767 1117.3 131.7C1115.37 131.633 1114.03 132.533 1113.3 134.4C1113.3 134.4 1113.3 134.733 1113.3 135.4L1113.1 143.5C1113.03 144.767 1112.5 145.433 1111.5 145.5C1110.43 145.633 1109.9 145.033 1109.9 143.7L1110.1 136.3C1110.17 133.3 1109.37 131.767 1107.7 131.7C1105.83 131.633 1104.6 132.7 1104 134.9L1103.8 143.8C1103.73 145 1103.13 145.6 1102 145.6C1101.07 145.533 1100.6 144.933 1100.6 143.8L1101 128.9C1101 127.9 1101.5 127.4 1102.5 127.4V127.4ZM1132.5 145.9C1127.7 145.9 1125.3 143.333 1125.3 138.2C1125.23 134.8 1126.33 132.2 1128.6 130.4C1131.13 128.267 1133.83 127.633 1136.7 128.5C1136.97 128.233 1137.43 128.2 1138.1 128.4C1139.37 128.667 1139.9 129.5 1139.7 130.9C1139.43 132.233 1139.27 134.5 1139.2 137.7C1139.2 140.3 1139.5 142.133 1140.1 143.2C1141.03 144.733 1140.9 145.633 1139.7 145.9C1138.37 146.167 1137.6 145.6 1137.4 144.2C1135.13 145.333 1133.5 145.9 1132.5 145.9V145.9ZM1134.4 142.7C1134.8 142.567 1135.47 142.1 1136.4 141.3C1136 136.633 1136.07 133.433 1136.6 131.7C1135.53 131.1 1134.43 130.933 1133.3 131.2C1132.5 131.4 1131.87 131.667 1131.4 132C1129.47 133.4 1128.47 135.367 1128.4 137.9C1128.4 141.167 1129.53 142.867 1131.8 143C1132.73 143.067 1133.6 142.967 1134.4 142.7ZM1145.3 127.4C1146.43 127.4 1147 127.933 1147 129C1147 129.267 1146.97 129.567 1146.9 129.9C1148.1 128.833 1149.6 128.3 1151.4 128.3C1155.47 128.3 1157.47 130.767 1157.4 135.7L1157.3 143.7C1157.3 145.033 1156.77 145.733 1155.7 145.8C1154.57 145.933 1154 145.333 1154 144L1154.2 136.4C1154.27 133.4 1153.43 131.833 1151.7 131.7C1150.17 131.633 1148.57 132.433 1146.9 134.1L1146.6 143.9C1146.6 145.033 1146 145.6 1144.8 145.6C1143.87 145.6 1143.4 145.033 1143.4 143.9L1143.8 128.9C1143.8 127.9 1144.3 127.4 1145.3 127.4V127.4ZM1164.9 142.7C1167.3 142.833 1168.77 142.5 1169.3 141.7C1169.7 141.033 1169.47 140.233 1168.6 139.3C1168 138.633 1166.63 138.167 1164.5 137.9C1162.3 137.567 1161.03 136.7 1160.7 135.3C1160.43 134.233 1160.53 133.133 1161 132C1161.47 130.8 1162.13 129.867 1163 129.2C1164.07 128.467 1165.3 128.033 1166.7 127.9C1168.23 127.767 1169.6 127.967 1170.8 128.5C1172.33 129.3 1173.17 130.167 1173.3 131.1C1173.43 131.767 1173.27 132.3 1172.8 132.7C1172.13 133.167 1171.2 132.8 1170 131.6C1169.33 131 1168.4 130.733 1167.2 130.8C1165.93 130.867 1164.97 131.267 1164.3 132C1163.77 132.6 1163.63 133.233 1163.9 133.9C1164.03 134.5 1164.77 134.867 1166.1 135C1167.1 135.133 1168.03 135.4 1168.9 135.8C1170.1 136.333 1170.93 136.867 1171.4 137.4C1172.47 138.733 1172.93 140.067 1172.8 141.4C1172.6 142.8 1171.83 143.933 1170.5 144.8C1169.43 145.533 1168 145.9 1166.2 145.9C1164.73 145.967 1163.53 145.833 1162.6 145.5C1162 145.367 1161.27 145.067 1160.4 144.6C1159.67 144.133 1159.27 143.6 1159.2 143C1159.2 142.267 1159.43 141.733 1159.9 141.4C1160.5 141 1161.2 141.067 1162 141.6C1162.93 142.267 1163.9 142.633 1164.9 142.7V142.7ZM2.80019 194.2C1.66686 194.2 1.10019 193.667 1.10019 192.6L1.60019 169.3C1.66686 168.1 2.26686 167.5 3.40019 167.5C3.93353 167.567 4.33353 167.9 4.60019 168.5C5.13353 168.1 6.40019 167.9 8.40019 167.9C10.3335 167.9 12.0002 168.667 13.4002 170.2C14.8002 171.667 15.5002 173.4 15.5002 175.4C15.5002 178.333 14.8669 180.567 13.6002 182.1C12.2002 183.9 10.4335 184.867 8.30019 185C6.50019 185.133 5.23353 184.833 4.50019 184.1C4.50019 184.1 4.46686 184.1 4.40019 184.1L4.2002 192.7C4.2002 193.7 3.73353 194.2 2.80019 194.2V194.2ZM4.7002 172L4.50019 180.3C5.56686 181.5 6.70019 182.033 7.90019 181.9C9.50019 181.833 10.7002 181.2 11.5002 180C12.2335 178.933 12.6002 177.667 12.6002 176.2C12.6002 174.8 12.2002 173.6 11.4002 172.6C10.6669 171.733 9.63353 171.2 8.30019 171C6.83353 170.8 5.63353 171.133 4.7002 172V172ZM21.6002 159.1C22.7335 159.1 23.2669 159.633 23.2002 160.7L22.7002 184C22.7002 185.133 22.1335 185.7 21.0002 185.7C20.0002 185.7 19.5335 185.1 19.6002 183.9L20.1002 160.6C20.1002 159.6 20.6002 159.1 21.6002 159.1V159.1ZM33.9002 185.9C29.1002 185.9 26.6669 183.333 26.6002 178.2C26.6002 174.8 27.7335 172.2 30.0002 170.4C32.5335 168.267 35.2002 167.633 38.0002 168.5C38.3335 168.233 38.8335 168.2 39.5002 168.4C40.7669 168.667 41.3002 169.5 41.1002 170.9C40.8335 172.233 40.6669 174.5 40.6002 177.7C40.5335 180.3 40.8335 182.133 41.5002 183.2C42.3669 184.733 42.2335 185.633 41.1002 185.9C39.7669 186.167 38.9669 185.6 38.7002 184.2C36.5002 185.333 34.9002 185.9 33.9002 185.9V185.9ZM35.8002 182.7C36.2002 182.567 36.8669 182.1 37.8002 181.3C37.4002 176.633 37.4669 173.433 38.0002 171.7C36.9335 171.1 35.8335 170.933 34.7002 171.2C33.9002 171.4 33.2669 171.667 32.8002 172C30.8669 173.4 29.8669 175.367 29.8002 177.9C29.8002 181.167 30.9335 182.867 33.2002 183C34.1335 183.067 35.0002 182.967 35.8002 182.7V182.7ZM46.7002 167.4C47.8335 167.4 48.4002 167.933 48.4002 169C48.3335 169.267 48.3002 169.567 48.3002 169.9C49.5002 168.833 51.0002 168.3 52.8002 168.3C56.8669 168.3 58.8669 170.767 58.8002 175.7L58.7002 183.7C58.6335 185.033 58.1002 185.733 57.1002 185.8C55.9669 185.933 55.4002 185.333 55.4002 184L55.6002 176.4C55.6669 173.4 54.8335 171.833 53.1002 171.7C51.5669 171.633 49.9669 172.433 48.3002 174.1L48.0002 183.9C47.9335 185.033 47.3335 185.6 46.2002 185.6C45.2669 185.6 44.8002 185.033 44.8002 183.9L45.2002 168.9C45.2002 167.9 45.7002 167.4 46.7002 167.4V167.4ZM67.9002 159.1C68.9669 159.1 69.5002 159.633 69.5002 160.7C69.5002 163.433 69.4669 165.933 69.4002 168.2L72.7002 168.1C73.9669 168.1 74.6002 168.667 74.6002 169.8C74.6002 170.867 73.9669 171.4 72.7002 171.4C71.5669 171.4 70.4335 171.4 69.3002 171.4L69.0002 184C69.0002 185.133 68.4335 185.7 67.3002 185.7C66.3002 185.7 65.8335 185.1 65.9002 183.9L66.1002 171.4C64.8335 171.4 63.6002 171.4 62.4002 171.4C61.4669 171.4 61.0002 170.867 61.0002 169.8C61.0002 168.733 61.5002 168.2 62.5002 168.2C63.7669 168.2 65.0002 168.2 66.2002 168.2L66.4002 160.6C66.4002 159.6 66.9002 159.1 67.9002 159.1V159.1ZM81.8002 182.7C84.2002 182.833 85.6669 182.5 86.2002 181.7C86.6669 181.033 86.4335 180.233 85.5002 179.3C84.9002 178.633 83.5335 178.167 81.4002 177.9C79.2002 177.567 77.9335 176.7 77.6002 175.3C77.3335 174.233 77.4335 173.133 77.9002 172C78.3669 170.8 79.0335 169.867 79.9002 169.2C80.9669 168.467 82.2002 168.033 83.6002 167.9C85.2002 167.767 86.5669 167.967 87.7002 168.5C89.3002 169.3 90.1669 170.167 90.3002 171.1C90.3669 171.767 90.1669 172.3 89.7002 172.7C89.1002 173.167 88.1669 172.8 86.9002 171.6C86.3002 171 85.3669 170.733 84.1002 170.8C82.8335 170.867 81.9002 171.267 81.3002 172C80.7669 172.6 80.6002 173.233 80.8002 173.9C81.0002 174.5 81.7335 174.867 83.0002 175C84.0669 175.133 85.0335 175.4 85.9002 175.8C87.0335 176.333 87.8335 176.867 88.3002 177.4C89.4335 178.733 89.9002 180.067 89.7002 181.4C89.5669 182.8 88.8335 183.933 87.5002 184.8C86.3669 185.533 84.9335 185.9 83.2002 185.9C81.6669 185.967 80.4335 185.833 79.5002 185.5C78.9002 185.367 78.2002 185.067 77.4002 184.6C76.6002 184.133 76.2002 183.6 76.2002 183C76.1335 182.267 76.3669 181.733 76.9002 181.4C77.5002 181 78.1669 181.067 78.9002 181.6C79.8335 182.267 80.8002 182.633 81.8002 182.7V182.7ZM98.9002 182.9C99.7002 183.3 99.9002 183.933 99.5002 184.8L97.4002 189.3C96.9335 190.3 96.3669 190.667 95.7002 190.4C94.9669 190.067 94.7669 189.433 95.1002 188.5L97.0002 183.8C97.4002 182.733 98.0335 182.433 98.9002 182.9V182.9ZM118.7 185.9C113.9 185.9 111.467 183.333 111.4 178.2C111.4 174.8 112.5 172.2 114.7 170.4C117.3 168.267 120 167.633 122.8 168.5C123.134 168.233 123.634 168.2 124.3 168.4C125.567 168.667 126.067 169.5 125.8 170.9C125.6 172.233 125.467 174.5 125.4 177.7C125.334 180.3 125.6 182.133 126.2 183.2C127.134 184.733 127.034 185.633 125.9 185.9C124.5 186.167 123.7 185.6 123.5 184.2C121.3 185.333 119.7 185.9 118.7 185.9V185.9ZM120.6 182.7C120.934 182.567 121.6 182.1 122.6 181.3C122.2 176.633 122.234 173.433 122.7 171.7C121.7 171.1 120.634 170.933 119.5 171.2C118.7 171.4 118.067 171.667 117.6 172C115.667 173.4 114.634 175.367 114.5 177.9C114.567 181.167 115.7 182.867 117.9 183C118.834 183.067 119.734 182.967 120.6 182.7ZM131.5 167.4C132.634 167.4 133.167 167.933 133.1 169C133.1 169.267 133.1 169.567 133.1 169.9C134.234 168.833 135.734 168.3 137.6 168.3C141.667 168.3 143.667 170.767 143.6 175.7L143.4 183.7C143.4 185.033 142.9 185.733 141.9 185.8C140.7 185.933 140.134 185.333 140.2 184L140.4 176.4C140.467 173.4 139.6 171.833 137.8 171.7C136.334 171.633 134.734 172.433 133 174.1L132.8 183.9C132.734 185.033 132.134 185.6 131 185.6C130 185.6 129.534 185.033 129.6 183.9L130 168.9C130 167.9 130.5 167.4 131.5 167.4V167.4ZM160.9 159.1C161.967 159.1 162.5 159.633 162.5 160.7L162 184C162 185.133 161.434 185.7 160.3 185.7C159.434 185.7 158.967 185.233 158.9 184.3C157.3 185.3 155.6 185.8 153.8 185.8C151.934 185.8 150.267 185.1 148.8 183.7C147.2 182.1 146.367 180.233 146.3 178.1C146.234 175.233 146.967 172.833 148.5 170.9C150.034 169.1 152 168.2 154.4 168.2C155.667 168.2 156.8 168.467 157.8 169C158.267 169.267 158.734 169.567 159.2 169.9L159.4 160.6C159.4 159.6 159.9 159.1 160.9 159.1V159.1ZM158.9 180.7C159.034 178.433 159.1 176.067 159.1 173.6C157.167 171.6 155.3 170.833 153.5 171.3C152.1 171.633 151.1 172.167 150.5 172.9C149.7 173.967 149.267 175.433 149.2 177.3C149.2 178.567 149.634 179.8 150.5 181C151.234 181.933 152.334 182.5 153.8 182.7C155.267 182.833 156.967 182.167 158.9 180.7V180.7ZM182.1 185.9C177.3 185.9 174.867 183.333 174.8 178.2C174.8 174.8 175.9 172.2 178.1 170.4C180.7 168.267 183.4 167.633 186.2 168.5C186.534 168.233 187.034 168.2 187.7 168.4C188.967 168.667 189.467 169.5 189.2 170.9C189 172.233 188.867 174.5 188.8 177.7C188.734 180.3 189 182.133 189.6 183.2C190.534 184.733 190.434 185.633 189.3 185.9C187.9 186.167 187.1 185.6 186.9 184.2C184.7 185.333 183.1 185.9 182.1 185.9V185.9ZM184 182.7C184.334 182.567 185 182.1 186 181.3C185.6 176.633 185.634 173.433 186.1 171.7C185.1 171.1 184.034 170.933 182.9 171.2C182.1 171.4 181.467 171.667 181 172C179.067 173.4 178.067 175.367 178 177.9C178 181.167 179.1 182.867 181.3 183C182.234 183.067 183.134 182.967 184 182.7ZM203.9 194.2C202.767 194.2 202.2 193.667 202.2 192.6L202.4 185.3C201.934 185.567 200.934 185.7 199.4 185.7C197.4 185.7 195.7 184.967 194.3 183.5C192.7 181.967 191.9 180.067 191.9 177.8C191.9 174.933 192.634 172.633 194.1 170.9C195.7 169.033 197.634 168.1 199.9 168.1C201.234 168.1 202.2 168.3 202.8 168.7C203 167.9 203.567 167.5 204.5 167.5C205.5 167.567 205.967 168.167 205.9 169.3L205.4 192.7C205.4 193.7 204.9 194.2 203.9 194.2V194.2ZM202.5 181.5L202.7 172.2C202.034 171.467 200.967 171.133 199.5 171.2C198.167 171.333 197.1 171.933 196.3 173C195.434 174.267 194.967 175.567 194.9 176.9C194.9 178.433 195.3 179.7 196.1 180.7C196.967 181.767 198.167 182.333 199.7 182.4C200.834 182.533 201.767 182.233 202.5 181.5ZM221.9 186.2C220.767 186.2 220.2 185.667 220.2 184.6V183.7C219.067 184.767 217.6 185.3 215.8 185.3C211.734 185.3 209.734 182.833 209.8 177.9V170C209.867 168.733 210.4 168.033 211.4 167.9C212.534 167.833 213.067 168.433 213 169.7V176.8C213 179.4 213.4 180.967 214.2 181.5C215.334 182.233 216.667 182.233 218.2 181.5C219.6 180.767 220.334 179.533 220.4 177.8L220.6 169.6C220.6 168.467 221.167 167.9 222.3 167.9C223.3 167.9 223.767 168.5 223.7 169.7L223.4 184.7C223.334 185.7 222.834 186.2 221.9 186.2V186.2ZM233.3 185.9C228.5 185.9 226.067 183.333 226 178.2C226 174.8 227.1 172.2 229.3 170.4C231.9 168.267 234.6 167.633 237.4 168.5C237.734 168.233 238.234 168.2 238.9 168.4C240.167 168.667 240.667 169.5 240.4 170.9C240.2 172.233 240.067 174.5 240 177.7C239.934 180.3 240.234 182.133 240.9 183.2C241.767 184.733 241.634 185.633 240.5 185.9C239.167 186.167 238.367 185.6 238.1 184.2C235.9 185.333 234.3 185.9 233.3 185.9V185.9ZM235.2 182.7C235.534 182.567 236.2 182.1 237.2 181.3C236.8 176.633 236.834 173.433 237.3 171.7C236.3 171.1 235.234 170.933 234.1 171.2C233.3 171.4 232.667 171.667 232.2 172C230.267 173.4 229.267 175.367 229.2 177.9C229.2 181.167 230.3 182.867 232.5 183C233.434 183.067 234.334 182.967 235.2 182.7V182.7ZM250 159.1C251.067 159.1 251.6 159.633 251.6 160.7C251.6 163.433 251.567 165.933 251.5 168.2L254.8 168.1C256.067 168.1 256.7 168.667 256.7 169.8C256.7 170.867 256.1 171.4 254.9 171.4C253.7 171.4 252.534 171.4 251.4 171.4L251.1 184C251.1 185.133 250.534 185.7 249.4 185.7C248.4 185.7 247.934 185.1 248 183.9L248.3 171.4C247.034 171.4 245.767 171.4 244.5 171.4C243.567 171.4 243.1 170.867 243.1 169.8C243.1 168.733 243.6 168.2 244.6 168.2C245.867 168.2 247.1 168.2 248.3 168.2L248.5 160.6C248.5 159.6 249 159.1 250 159.1V159.1ZM262.6 160.8C262.667 160.8 262.7 160.8 262.7 160.8C263.1 160.8 263.434 160.9 263.7 161.1C264.034 161.3 264.3 161.567 264.5 161.9C264.634 162.167 264.7 162.467 264.7 162.8C264.7 162.867 264.7 162.933 264.7 163C264.7 163.4 264.567 163.733 264.3 164C264.1 164.333 263.867 164.533 263.6 164.6C263.334 164.733 263.034 164.8 262.7 164.8C262.634 164.8 262.6 164.8 262.6 164.8C262.267 164.8 261.967 164.733 261.7 164.6C261.367 164.4 261.134 164.133 261 163.8C260.8 163.533 260.7 163.2 260.7 162.8C260.7 162.467 260.8 162.167 261 161.9C261.134 161.567 261.334 161.3 261.6 161.1C261.934 160.9 262.267 160.8 262.6 160.8V160.8ZM262.5 168.1C263.567 168.167 264.067 168.867 264 170.2L263.8 183.6C263.8 185.067 263.3 185.8 262.3 185.8C261.1 185.8 260.534 185.133 260.6 183.8L260.9 170.2C260.9 168.8 261.434 168.1 262.5 168.1V168.1ZM279.9 181.6C280.834 180.933 281.634 181.133 282.3 182.2C282.634 182.8 282.334 183.5 281.4 184.3C280.2 185.3 278.334 185.8 275.8 185.8C273.8 185.8 272.167 185.133 270.9 183.8C269.234 182.267 268.4 180.3 268.4 177.9C268.4 175.233 269 173.067 270.2 171.4C271.6 169.333 273.4 168.2 275.6 168C276.867 167.933 278.034 168.067 279.1 168.4C280.367 168.867 281.234 169.433 281.7 170.1C282.3 171.1 282.234 171.867 281.5 172.4C281.034 172.8 280.267 172.6 279.2 171.8C277.934 170.867 276.534 170.667 275 171.2C274.067 171.467 273.234 172.1 272.5 173.1C271.7 174.3 271.3 175.667 271.3 177.2C271.234 178.6 271.634 179.9 272.5 181.1C273.3 182.167 274.4 182.733 275.8 182.8C277.267 182.867 278.634 182.467 279.9 181.6V181.6ZM301.8 185.9C297 185.9 294.567 183.333 294.5 178.2C294.5 174.8 295.6 172.2 297.8 170.4C300.4 168.267 303.1 167.633 305.9 168.5C306.234 168.233 306.734 168.2 307.4 168.4C308.667 168.667 309.167 169.5 308.9 170.9C308.7 172.233 308.567 174.5 308.5 177.7C308.434 180.3 308.734 182.133 309.4 183.2C310.267 184.733 310.134 185.633 309 185.9C307.667 186.167 306.867 185.6 306.6 184.2C304.4 185.333 302.8 185.9 301.8 185.9V185.9ZM303.7 182.7C304.034 182.567 304.7 182.1 305.7 181.3C305.3 176.633 305.334 173.433 305.8 171.7C304.8 171.1 303.734 170.933 302.6 171.2C301.8 171.4 301.167 171.667 300.7 172C298.767 173.4 297.767 175.367 297.7 177.9C297.7 181.167 298.8 182.867 301 183C301.934 183.067 302.834 182.967 303.7 182.7V182.7ZM314.6 167.4C315.734 167.4 316.267 167.933 316.2 169C316.2 169.267 316.2 169.567 316.2 169.9C317.4 168.833 318.9 168.3 320.7 168.3C324.767 168.3 326.767 170.767 326.7 175.7L326.5 183.7C326.5 185.033 326 185.733 325 185.8C323.8 185.933 323.234 185.333 323.3 184L323.5 176.4C323.567 173.4 322.7 171.833 320.9 171.7C319.434 171.633 317.834 172.433 316.1 174.1L315.9 183.9C315.834 185.033 315.234 185.6 314.1 185.6C313.167 185.6 312.7 185.033 312.7 183.9L313.1 168.9C313.1 167.9 313.6 167.4 314.6 167.4V167.4ZM332.9 160.8C333.3 160.8 333.634 160.9 333.9 161.1C334.234 161.3 334.5 161.567 334.7 161.9C334.834 162.167 334.9 162.467 334.9 162.8C334.9 162.867 334.9 162.933 334.9 163C334.9 163.4 334.767 163.733 334.5 164C334.3 164.333 334.067 164.533 333.8 164.6C333.534 164.733 333.234 164.8 332.9 164.8C332.9 164.8 332.867 164.8 332.8 164.8C332.467 164.8 332.167 164.733 331.9 164.6C331.634 164.4 331.4 164.133 331.2 163.8C331 163.533 330.9 163.2 330.9 162.8C330.9 162.467 331 162.167 331.2 161.9C331.334 161.567 331.567 161.3 331.9 161.1C332.167 160.9 332.5 160.8 332.9 160.8V160.8ZM332.8 168.1C333.8 168.167 334.267 168.867 334.2 170.2L334 183.6C334 185.067 333.5 185.8 332.5 185.8C331.367 185.8 330.8 185.133 330.8 183.8L331.1 170.2C331.1 168.8 331.667 168.1 332.8 168.1ZM340.8 167.4C341.934 167.4 342.5 167.933 342.5 169V169.6C343.434 168.733 344.567 168.3 345.9 168.3C348.167 168.3 349.7 169.1 350.5 170.7C351.567 169.1 353.2 168.3 355.4 168.3C359.467 168.3 361.467 170.767 361.4 175.7L361.3 183.7C361.3 184.967 360.767 185.667 359.7 185.8C358.567 185.867 358 185.267 358 184L358.1 176.5C358.167 173.367 357.334 171.767 355.6 171.7C353.667 171.633 352.334 172.533 351.6 174.4C351.6 174.4 351.6 174.733 351.6 175.4L351.4 183.5C351.334 184.767 350.8 185.433 349.8 185.5C348.734 185.633 348.2 185.033 348.2 183.7L348.4 176.3C348.467 173.3 347.667 171.767 346 171.7C344.134 171.633 342.9 172.7 342.3 174.9L342.1 183.8C342.034 185 341.434 185.6 340.3 185.6C339.367 185.533 338.9 184.933 338.9 183.8L339.3 168.9C339.3 167.9 339.8 167.4 340.8 167.4V167.4ZM370.8 185.9C366 185.9 363.6 183.333 363.6 178.2C363.534 174.8 364.634 172.2 366.9 170.4C369.434 168.267 372.134 167.633 375 168.5C375.267 168.233 375.734 168.2 376.4 168.4C377.734 168.667 378.267 169.5 378 170.9C377.734 172.233 377.567 174.5 377.5 177.7C377.5 180.3 377.8 182.133 378.4 183.2C379.334 184.733 379.2 185.633 378 185.9C376.667 186.167 375.9 185.6 375.7 184.2C373.434 185.333 371.8 185.9 370.8 185.9V185.9ZM372.7 182.7C373.1 182.567 373.767 182.1 374.7 181.3C374.3 176.633 374.367 173.433 374.9 171.7C373.834 171.1 372.734 170.933 371.6 171.2C370.8 171.4 370.167 171.667 369.7 172C367.767 173.4 366.767 175.367 366.7 177.9C366.767 181.167 367.9 182.867 370.1 183C371.034 183.067 371.9 182.967 372.7 182.7ZM384.4 159.1C385.534 159.1 386.1 159.633 386.1 160.7L385.6 184C385.6 185.133 385 185.7 383.8 185.7C382.867 185.7 382.4 185.1 382.4 183.9L383 160.6C383 159.6 383.467 159.1 384.4 159.1V159.1ZM395 182.7C397.4 182.833 398.867 182.5 399.4 181.7C399.8 181.033 399.567 180.233 398.7 179.3C398.1 178.633 396.734 178.167 394.6 177.9C392.4 177.567 391.134 176.7 390.8 175.3C390.534 174.233 390.6 173.133 391 172C391.467 170.8 392.167 169.867 393.1 169.2C394.167 168.467 395.4 168.033 396.8 167.9C398.334 167.767 399.7 167.967 400.9 168.5C402.434 169.3 403.267 170.167 403.4 171.1C403.534 171.767 403.334 172.3 402.8 172.7C402.2 173.167 401.267 172.8 400 171.6C399.4 171 398.5 170.733 397.3 170.8C395.967 170.867 395 171.267 394.4 172C393.867 172.6 393.7 173.233 393.9 173.9C394.1 174.5 394.867 174.867 396.2 175C397.2 175.133 398.134 175.4 399 175.8C400.2 176.333 401.034 176.867 401.5 177.4C402.567 178.733 403.034 180.067 402.9 181.4C402.7 182.8 401.934 183.933 400.6 184.8C399.534 185.533 398.1 185.9 396.3 185.9C394.834 185.967 393.6 185.833 392.6 185.5C392.067 185.367 391.367 185.067 390.5 184.6C389.767 184.133 389.367 183.6 389.3 183C389.3 182.267 389.534 181.733 390 181.4C390.6 181 391.3 181.067 392.1 181.6C393.034 182.267 394 182.633 395 182.7V182.7Z" fill="white"/>
</svg>
