<svg width="547" height="305" viewBox="0 0 547 305" fill="none" xmlns="http://www.w3.org/2000/svg">
<path d="M122.2 117.4C120.267 117.4 118.6 117.133 117.2 116.6C115.533 116.133 114.7 114.733 114.7 112.4V25.3C114.7 23.6333 114.4 21.0666 113.8 17.6C113.067 14.5333 112.7 12 112.7 10V9.5C114.433 6.7 115.7 4.89998 116.5 4.09998C117.9 4.09998 119.733 3.9 122 3.5C124.133 3.1 126 2.90002 127.6 2.90002C129.2 2.90002 130.733 3.40002 132.2 4.40002C133.733 5.33336 134.5 6.46665 134.5 7.79999C134.5 10.8 132.2 12.3 127.6 12.3H125.5C124.9 12.1667 124.2 12.1 123.4 12.1C122.467 12.1 121.9 12.1667 121.7 12.3C121.7 15.6333 121.9 19.7 122.3 24.5L122.6 28.8L122.9 37C122.9 38.8667 122.767 41.7667 122.5 45.7L122.2 54.1L124.3 53.6C126.3 53.0666 127.933 52.8 129.2 52.8C130.333 52.8 131.333 53.2333 132.2 54.1C133.133 54.9 133.6 55.8334 133.6 56.9C133.6 58.1667 133.2 59.3 132.4 60.3C131.667 61.1667 130.767 61.6 129.7 61.6L127.9 61.4H125.9C124.433 61.4 123.4 61.7667 122.8 62.5V108.8L131.2 108.4C136.867 108.4 139.7 109.7 139.7 112.3V112.9C139.1 114.1 138 115.1 136.4 115.9C134.8 116.567 133.267 117.033 131.8 117.3L126.8 117.4H122.2ZM163.3 68.5C162.033 68.5 160.9 68.1 159.9 67.3C158.9 66.3667 158.4 65.3 158.4 64.1C158.4 62.9 159.6 61.8667 162 61C165.4 59.6667 171.3 58.7667 179.7 58.3C182.9 58.1 184.933 58 185.8 58C187.133 58 188.3 58.4333 189.3 59.3C190.3 60.1 190.8 61.1 190.8 62.3C190.8 63.5 189.6 64.5667 187.2 65.5C183.8 66.7667 177.9 67.6667 169.5 68.2C166.3 68.4 164.233 68.5 163.3 68.5V68.5ZM226.9 118.6C223.233 118.6 221.4 114.8 221.4 107.2C221.4 102.4 219.3 85.2667 215.1 55.8C210.967 26.1333 208.367 9.96665 207.3 7.29999C208.567 4.89999 210.3 3.70001 212.5 3.70001C214.833 3.70001 217 8.89999 219 19.3C220.867 30.3 222.467 42.9 223.8 57.1L224.8 69.3C225.4 76.0333 225.767 79.4666 225.9 79.6L227.4 67L228.3 59.2C229.567 47.8 230.4 39.7333 230.8 35C231.333 28.8667 231.6 24.6333 231.6 22.3V19.4C231.6 18.3334 232 17.3 232.8 16.3C233.6 15.3 234.5 14.8 235.5 14.8C239.1 14.8 240.9 16.3 240.9 19.3V21.5C240.9 27.2333 241.433 33.4 242.5 40C243.7 46.5333 245.4 54.3334 247.6 63.4C249 68.7334 250.4 75.2 251.8 82.8C252.133 79.4667 253.1 71.4667 254.7 58.8C256.3 47.2 257.433 37.3333 258.1 29.2C258.9 21 259.3 13.3667 259.3 6.29999C259.3 3.96665 259.667 2.36667 260.4 1.5C261.2 0.5 262.633 0 264.7 0C265.9 0 266.967 0.366642 267.9 1.09998C268.9 1.83331 269.4 2.8 269.4 4C269.4 5.06667 268.9 6.20002 267.9 7.40002C267.9 14.6667 267.333 23.1333 266.2 32.8C265.133 42.4 263.8 51.5667 262.2 60.3C260.6 68.7667 259.233 77.9 258.1 87.7C257.033 97.4333 256.5 106 256.5 113.4C256.5 115 256.1 116.3 255.3 117.3C254.567 118.167 253.467 118.6 252 118.6C250.867 118.6 249.567 116.567 248.1 112.5C246.167 106.767 243.8 95.4 241 78.4L238.3 60.9L237 51.1C235.667 60.2333 234.667 67.6 234 73.2C233.4 78.6667 232.8 85.2 232.2 92.8C231.467 100.133 231.1 107.333 231.1 114.4C231.1 115.4 230.667 116.367 229.8 117.3C229 118.167 228.033 118.6 226.9 118.6V118.6ZM315.7 117.9C313.433 117.9 311.733 117.533 310.6 116.8C309.533 116.133 309 114.833 309 112.9C309 109.9 308.5 104.8 307.5 97.6L306.9 94.5L292 92.2C291.4 94.5333 290.567 99.2 289.5 106.2C288.9 111.067 287.933 114.3 286.6 115.9C285.933 116.833 284.933 117.3 283.6 117.3C282.4 117.3 281.3 116.933 280.3 116.2C279.3 115.4 278.8 114.467 278.8 113.4L279.1 112.6L279.3 112C285.9 86.3333 290.9 61 294.3 36C294.3 35.6 294.333 34.9333 294.4 34C294.533 33 294.633 31.6 294.7 29.8C295.033 26.1333 295.333 23.2 295.6 21C296 18.8 296.6 17.1333 297.4 16H302.5C303.9 16 305.1 16.3333 306.1 17C307.1 17.6667 307.6 18.6 307.6 19.8C307.6 27.4 308.667 38.7 310.8 53.7C312.8 69.1 313.8 79.8667 313.8 86C313.8 86.6667 314.033 88.2333 314.5 90.7C315.033 93.0333 315.3 94.5333 315.3 95.2C315.3 95.9333 315.8 98.9333 316.8 104.2C317.667 109 318.1 112.1 318.1 113.5V113.7C318.1 115.9 317.3 117.3 315.7 117.9V117.9ZM305.8 89C305.533 87.5333 305.4 85.7 305.4 83.5C305.4 74.5 304.6 63 303 49L301.5 33.4C297.167 56.9334 294.2 74.7 292.6 86.7C294.133 87.7 298.533 88.4667 305.8 89V89ZM333.7 118.6C331.9 118.333 330.367 117.7 329.1 116.7C327.9 115.7 327.2 114.4 327 112.8L328.6 110.2C329.2 110.2 330.167 110.4 331.5 110.8C332.967 111.133 334.1 111.3 334.9 111.3C336.7 111.3 338.3 110.5 339.7 108.9C341.233 107.3 342.333 105.2 343 102.6C344.333 97.8 345 93.5 345 89.7C345 83.1 342.9 76.1333 338.7 68.8L337 66C335.133 62.6667 333.533 59.7 332.2 57.1C330.933 54.5 329.833 51.7 328.9 48.7C327.7 44.8333 327.1 40.9333 327.1 37C327.1 32.6 328.1 28 330.1 23.2C331.1 20.9333 332.5 19.1 334.3 17.7C336.233 16.1667 338.333 15.4 340.6 15.4C342.4 15.4 344.067 16 345.6 17.2C347.2 18.3333 348 19.7 348 21.3C348 22.1667 347.633 22.8667 346.9 23.4C346.233 23.8667 345.4 24.1 344.4 24.1C343.267 24.1 342.2 23.8 341.2 23.2C339 23.3333 337.267 25.2667 336 29C334.867 32.5333 334.3 35.4667 334.3 37.8C334.3 40.6667 334.767 43.6 335.7 46.6C336.567 49.5333 337.7 52.1667 339.1 54.5L342.4 60.5L347.7 70.5C349.1 73.3 350.2 76.5333 351 80.2C351.867 83.9333 352.3 87.7 352.3 91.5C352.3 97.5667 350.9 103.367 348.1 108.9C346.7 111.7 344.7 113.933 342.1 115.6C339.633 117.333 336.833 118.2 333.7 118.2V118.6ZM379.2 116L376.5 114.1L376.3 108.2C376.233 106.533 376.2 104.633 376.2 102.5L376.3 97.4C376.033 96.3334 375.3 85.4 374.1 64.6C372.9 43.7333 372.2 30.3667 372 24.5C366.2 24.3 362.5 23.7 360.9 22.7C359.767 21.9 359.2 21 359.2 20C359.2 19.2 359.7 18.5 360.7 17.9C361.833 17.1667 362.933 16.8 364 16.8C366.8 16.8 370.2 17 374.2 17.4C378 17.9334 381.4 18.2 384.4 18.2H385.6H386.8C389.933 18.2 391.5 19.4 391.5 21.8C391.5 23 391 24 390 24.8C389 25.5333 387.833 25.8667 386.5 25.8C385.633 25.8 384.333 25.6667 382.6 25.4L379.6 24.8L379.5 25.6L379.3 26.3C379.3 35.2333 380.167 49.4334 381.9 68.9C383.5 87.2334 384.3 101.433 384.3 111.5C384.3 112.7 383.733 113.767 382.6 114.7C381.6 115.567 380.467 116 379.2 116ZM413.4 118.4C412.067 118.4 410.867 117.967 409.8 117.1C408.8 116.167 408.233 115.067 408.1 113.8V109.9V106.9C408.033 105.967 408 104.9 408 103.7C408 101.633 407.833 98.4333 407.5 94.1L407.2 84.5C407.2 79.6333 407.367 72.3333 407.7 62.6C408.1 53.8666 408.3 46.5667 408.3 40.7C408.3 39.3 408.133 37.2 407.8 34.4C407.533 31.4667 407.4 29.3666 407.4 28.1C407.4 20.9666 409.5 17.4 413.7 17.4C416.967 17.4 420.767 18.0667 425.1 19.4C429.5 20.7334 431.7 22.2667 431.7 24C431.7 25 431.233 25.9667 430.3 26.9C429.5 27.7 428.5 28.3333 427.3 28.8C423.1 27.3333 419.3 26.3667 415.9 25.9C416.033 27.3667 416.1 29.5 416.1 32.3C416.1 36.3 416.033 39.9 415.9 43.1C415.633 47.9 415.5 51.5 415.5 53.9L415.9 56.3L418.3 56.2C419.1 56.0667 420.1 56 421.3 56C426.1 56 428.5 57.4 428.5 60.2C428.5 61.3333 428.067 62.2667 427.2 63C426.267 63.7333 425.1 64.1 423.7 64.1C421.9 64.1 420.5 64 419.5 63.8H415.8C416 66.4 416.1 70.2 416.1 75.2C416.1 80.2 416.033 84.7 415.9 88.7C415.633 94.8333 415.5 99.4 415.5 102.4C415.5 108 415.6 110.8 415.8 110.8L420.7 110.6C422.433 110.467 424.5 110.4 426.9 110.4C430.7 110.4 432.6 111.6 432.6 114C432.6 115.467 431.933 116.6 430.6 117.4C429.4 118.067 427.9 118.4 426.1 118.4H413.4ZM44.1 300.3C43.1 300.3 42.3 299.8 41.7 298.8C41.1 297.8 40.8 296.367 40.8 294.5L40.6 272.3C40.5333 270.367 40.5 267.2 40.5 262.8C40.3 253.533 40.2 243.033 40.2 231.3V223.7C39.2667 228.5 37.7 235.233 35.5 243.9C33.3 252.9 31.7667 260.3 30.9 266.1V267L30.4 269.9C30.2 272.1 29.7 274.333 28.9 276.6C27.9 279 26.3667 280.2 24.3 280.2C20.7 280.2 18.9 275.5 18.9 266.1C18.9 260.9 18.3333 255.367 17.2 249.5C16.2 243.5 14.5667 236.133 12.3 227.4L7.8 210.6L7.5 228.6C7.5 234 7.73333 244.3 8.2 259.5L8.5 269.7L8.8 290.3C8.8 292.367 8.06667 294.267 6.6 296C4.06667 296 2.3 295.233 1.3 293.7C0.433333 292.1 0 289.8 0 286.8L0.299999 274.5C0.566666 269.1 0.700001 265.067 0.700001 262.4L0.400002 233.4L0.0999985 204.3C0.0999985 200.033 0.200002 193.6 0.400002 185L4.5 182.6C5.3 182.667 6.1 183.267 6.9 184.4C7.7 185.4 8.6 187.033 9.6 189.3C12.0667 195.5 15.3 207.9 19.3 226.5C19.9 229.1 20.3 231.267 20.5 233C21.7 238.8 22.5667 243.2 23.1 246.2L25.3 257.7L26.4 252.8L29.2 240.5C30.8 233.3 32.1 227 33.1 221.6C34.2333 216.2 35.3 210.333 36.3 204C37.3667 196.533 38.0667 190.3 38.4 185.3V184.4C38.6 183.067 39.2 182.067 40.2 181.4C41.2 180.6 42.4 180.2 43.8 180.2C44.6667 180.2 45.4667 180.6 46.2 181.4C46.8667 182.2 47.2 183.033 47.2 183.9C47.2 195.9 47.6667 213.867 48.6 237.8C49.0667 249.467 49.4 260.9 49.6 272.1C49.8 277.233 49.9 283.7 49.9 291.5C49.9 293.767 49.3 295.8 48.1 297.6C46.9 299.4 45.5667 300.3 44.1 300.3V300.3ZM98.5 297.8C96.2333 297.8 94.5333 297.433 93.4 296.7C92.3333 296.033 91.8 294.733 91.8 292.8C91.8 289.8 91.3 284.7 90.3 277.5L89.7 274.4L74.8 272.1C74.2 274.433 73.3667 279.1 72.3 286.1C71.7 290.967 70.7333 294.2 69.4 295.8C68.7333 296.733 67.7333 297.2 66.4 297.2C65.2 297.2 64.1 296.833 63.1 296.1C62.1 295.3 61.6 294.367 61.6 293.3L61.9 292.5L62.1 291.9C68.7 266.233 73.7 240.9 77.1 215.9C77.1 215.5 77.1333 214.833 77.2 213.9C77.3333 212.9 77.4333 211.5 77.5 209.7C77.8333 206.033 78.1333 203.1 78.4 200.9C78.8 198.7 79.4 197.033 80.2 195.9H85.3C86.7 195.9 87.9 196.267 88.9 197C89.9 197.6 90.4 198.5 90.4 199.7C90.4 207.3 91.4667 218.6 93.6 233.6C95.6 249 96.6 259.8 96.6 266C96.6 266.6 96.8333 268.133 97.3 270.6C97.8333 272.933 98.1 274.433 98.1 275.1C98.1 275.833 98.6 278.833 99.6 284.1C100.467 288.9 100.9 292 100.9 293.4V293.6C100.9 295.8 100.1 297.2 98.5 297.8V297.8ZM88.6 269C88.3333 267.467 88.2 265.6 88.2 263.4C88.2 254.4 87.4 242.9 85.8 228.9L84.3 213.3C79.9667 236.833 77 254.6 75.4 266.6C76.9333 267.6 81.3333 268.4 88.6 269V269ZM154.8 296.9C153.6 296.9 152.7 296.6 152.1 296C151.5 295.267 151.033 294.1 150.7 292.5L149.8 289.7V289.4V288.9C149.8 285.633 146.367 274.4 139.5 255.2C132.7 236 127.333 221.8 123.4 212.6V288L124 289.1C124.133 289.3 124.333 289.633 124.6 290.1C124.933 290.633 125.1 291.133 125.1 291.6C125.1 292.933 124.633 294.033 123.7 294.9C122.833 295.833 121.733 296.3 120.4 296.3C117.2 296.3 115.6 293.233 115.6 287.1L115.5 261.5C115.367 253.767 115.3 245.167 115.3 235.7C115.3 232.5 115.467 227.833 115.8 221.7C116.067 215.433 116.2 210.8 116.2 207.8C116.2 203.067 118 199.367 121.6 196.7V197.6C122.2 197.4 122.6 197.3 122.8 197.3C125.133 197.3 128.033 201.3 131.5 209.3C134.3 215.7 136.8 222.433 139 229.5C141.333 236.633 144.333 246.733 148 259.8L149.5 265.2C151.833 273.333 153.6 279.133 154.8 282.6C156.8 261.133 157.8 235.733 157.8 206.4V204.5C157.667 203.9 157.6 203.233 157.6 202.5C157.6 199.5 158.8 198 161.2 198C162.6 198 163.667 198.567 164.4 199.7C165.2 200.767 165.6 202.167 165.6 203.9V215.1C165.4 230.5 164.8 247.2 163.8 265.2C162.8 283.2 161.6 293.367 160.2 295.7C157.267 296.5 155.467 296.9 154.8 296.9V296.9ZM215.2 297.8C212.933 297.8 211.233 297.433 210.1 296.7C209.033 296.033 208.5 294.733 208.5 292.8C208.5 289.8 208 284.7 207 277.5L206.4 274.4L191.5 272.1C190.9 274.433 190.067 279.1 189 286.1C188.4 290.967 187.433 294.2 186.1 295.8C185.433 296.733 184.433 297.2 183.1 297.2C181.9 297.2 180.8 296.833 179.8 296.1C178.8 295.3 178.3 294.367 178.3 293.3L178.6 292.5L178.8 291.9C185.4 266.233 190.4 240.9 193.8 215.9C193.8 215.5 193.833 214.833 193.9 213.9C194.033 212.9 194.133 211.5 194.2 209.7C194.533 206.033 194.833 203.1 195.1 200.9C195.5 198.7 196.1 197.033 196.9 195.9H202C203.4 195.9 204.6 196.267 205.6 197C206.6 197.6 207.1 198.5 207.1 199.7C207.1 207.3 208.167 218.6 210.3 233.6C212.3 249 213.3 259.8 213.3 266C213.3 266.6 213.533 268.133 214 270.6C214.533 272.933 214.8 274.433 214.8 275.1C214.8 275.833 215.3 278.833 216.3 284.1C217.167 288.9 217.6 292 217.6 293.4V293.6C217.6 295.8 216.8 297.2 215.2 297.8V297.8ZM205.3 269C205.033 267.467 204.9 265.6 204.9 263.4C204.9 254.4 204.1 242.9 202.5 228.9L201 213.3C196.667 236.833 193.7 254.6 192.1 266.6C193.633 267.6 198.033 268.4 205.3 269V269ZM250 297.6C247.2 297.6 244.667 297.1 242.4 296.1C240.067 295.033 238.1 293.633 236.5 291.9C235.233 290.5 234.033 288.467 232.9 285.8C231.833 283.067 231.033 280.467 230.5 278C230.033 276.133 229.633 273.367 229.3 269.7C229.033 266.1 228.833 263 228.7 260.4V251.7V245.7C228.7 239.9 228.8 235.167 229 231.5C229.2 226.967 229.867 222.2 231 217.2C231.867 212.733 233.4 208.8 235.6 205.4C237.733 202 240.7 199.633 244.5 198.3C246.3 197.633 248.4 197.3 250.8 197.3C255.067 197.3 257.2 198.533 257.2 201C257.2 202.2 256.7 203.233 255.7 204.1C254.833 204.767 253.733 205.1 252.4 205.1C251.8 205.1 251.267 205.033 250.8 204.9C250.4 204.833 249.9 204.8 249.3 204.8C247.567 204.8 246.067 205.7 244.8 207.5C243.467 209.3 242.367 211.8 241.5 215C239.9 221.2 238.8 227.933 238.2 235.2C237.8 242 237.6 247.067 237.6 250.4C237.6 253.8 237.733 258.433 238 264.3C238.4 269.833 239.267 274.633 240.6 278.7C241.267 281.1 242.067 283.067 243 284.6C244 286 245.233 287.2 246.7 288.2C248.433 289.267 250.2 289.8 252 289.8C256.8 289.8 259.2 281.8 259.2 265.8V258.9C258.467 258.633 257.3 258.5 255.7 258.5H254.4H252.7C249.233 258.5 247.5 257.333 247.5 255C247.5 253.6 247.933 252.567 248.8 251.9C249.8 251.1 251.067 250.7 252.6 250.7V250.8H254.7C263.7 250.8 268.2 252.367 268.2 255.5C268.2 256.367 267.933 258.167 267.4 260.9C266.8 263.3 266.5 265.1 266.5 266.3C266.5 267.967 266.667 270.6 267 274.2L267.3 282.2C267.3 287 265.6 290.8 262.2 293.6C258.867 296.267 254.8 297.6 250 297.6V297.6ZM289.3 298.4C288.033 298.4 286.833 297.933 285.7 297C284.7 296.133 284.167 295.033 284.1 293.7V289.8V286.8C283.967 285.933 283.9 284.9 283.9 283.7C283.9 281.633 283.767 278.433 283.5 274.1L283.2 264.5C283.2 259.633 283.333 252.333 283.6 242.6C284 233.867 284.2 226.567 284.2 220.7C284.2 219.3 284.067 217.2 283.8 214.4C283.467 211.467 283.3 209.367 283.3 208.1C283.3 200.967 285.4 197.4 289.6 197.4C292.933 197.4 296.733 198.067 301 199.4C305.4 200.667 307.6 202.233 307.6 204.1C307.6 205.1 307.167 206.033 306.3 206.9C305.5 207.7 304.5 208.333 303.3 208.8C299.1 207.333 295.3 206.333 291.9 205.8C291.967 207.333 292 209.5 292 212.3C292 216.3 291.967 219.9 291.9 223.1C291.567 227.9 291.4 231.5 291.4 233.9L291.9 236.3L294.3 236.1C295.1 236.033 296.1 236 297.3 236C302.1 236 304.5 237.4 304.5 240.2C304.5 241.267 304.033 242.233 303.1 243.1C302.233 243.767 301.1 244.1 299.7 244.1C297.9 244.1 296.5 244 295.5 243.8H291.7C291.9 246.4 292 250.2 292 255.2C292 260.2 291.967 264.7 291.9 268.7C291.567 274.767 291.4 279.3 291.4 282.3C291.4 287.9 291.5 290.7 291.7 290.7L296.7 290.6C298.367 290.467 300.4 290.4 302.8 290.4C306.6 290.4 308.5 291.6 308.5 294C308.5 295.4 307.867 296.5 306.6 297.3C305.4 298.033 303.9 298.4 302.1 298.4H289.3ZM385.4 304.2C382.333 304.2 380.8 301.1 380.8 294.9V285.3V275.7C380.8 270.7 380.433 264.167 379.7 256.1C378.9 246.967 378.5 240.7 378.5 237.3L378.8 228.1C379 225.367 379.1 222.3 379.1 218.9C378.7 220.167 377.067 227.067 374.2 239.6C371.267 251.667 368.267 262.867 365.2 273.2C362.2 283.133 359.733 288.1 357.8 288.1C355.933 288.1 354.4 287.533 353.2 286.4C352.067 285.2 351.5 283.6 351.5 281.6C351.5 277.2 349.7 267.867 346.1 253.6C342.633 239.267 339.433 227.533 336.5 218.4L335.6 235.4C334.8 249.667 334.267 261.567 334 271.1C333.8 280.3 333.7 286.6 333.7 290C333.7 290.8 333.733 291.533 333.8 292.2V294.4C333.8 296.067 333.467 297.333 332.8 298.2C332.067 299 330.767 299.4 328.9 299.4C327.9 299.4 326.933 299.067 326 298.4C325.133 297.6 324.7 296.733 324.7 295.8C324.7 285.667 325.433 270.367 326.9 249.9C328.433 229.5 329.2 214.233 329.2 204.1C328.6 203.167 328.3 202.2 328.3 201.2C328.3 200 328.833 199.1 329.9 198.5C331.1 197.767 332.5 197.4 334.1 197.4C335.433 197.4 337.833 202.133 341.3 211.6C344.833 221 348.333 231.633 351.8 243.5C355.333 255.367 357.6 263.967 358.6 269.3C359.4 266.567 360.033 264.067 360.5 261.8L361.4 258.2C364.6 244.2 367.8 231.533 371 220.2C372.933 213.333 374.8 207.967 376.6 204.1C378.4 199.833 380.033 197.7 381.5 197.7C382.9 197.7 384.167 198.1 385.3 198.9C386.5 199.633 387.1 200.6 387.1 201.8C387.1 209 387.4 219.8 388 234.2C388.667 247.6 389 258 389 265.4L388.9 273.3L388.6 281.3C388.6 282.5 388.733 284.3 389 286.7L389.5 291.9C389.567 292.833 389.6 293.567 389.6 294.1C389.733 294.567 389.8 294.833 389.8 294.9C390.267 296.233 390.5 297.2 390.5 297.8C390.5 299.467 390 300.967 389 302.3C388 303.567 386.8 304.2 385.4 304.2ZM416 298.4C414.733 298.4 413.533 297.967 412.4 297.1C411.4 296.167 410.867 295.033 410.8 293.7V289.9V286.9C410.667 285.967 410.6 284.9 410.6 283.7C410.6 281.633 410.467 278.433 410.2 274.1L409.9 264.5C409.9 259.633 410.033 252.333 410.3 242.6C410.7 233.933 410.9 226.633 410.9 220.7C410.9 219.3 410.767 217.2 410.5 214.4C410.167 211.533 410 209.433 410 208.1C410 200.967 412.1 197.4 416.3 197.4C419.633 197.4 423.433 198.067 427.7 199.4C432.1 200.733 434.3 202.3 434.3 204.1C434.3 205.1 433.867 206.033 433 206.9C432.2 207.7 431.2 208.333 430 208.8C425.8 207.333 422 206.333 418.6 205.8C418.667 207.333 418.7 209.5 418.7 212.3C418.7 216.3 418.667 219.9 418.6 223.1C418.267 227.9 418.1 231.5 418.1 233.9L418.6 236.3L421 236.2C421.8 236.067 422.8 236 424 236C428.8 236 431.2 237.4 431.2 240.2C431.2 241.267 430.733 242.233 429.8 243.1C428.933 243.767 427.8 244.1 426.4 244.1C424.6 244.1 423.2 244 422.2 243.8H418.4C418.6 246.4 418.7 250.2 418.7 255.2C418.7 260.2 418.667 264.7 418.6 268.7C418.267 274.833 418.1 279.4 418.1 282.4C418.1 288 418.2 290.8 418.4 290.8L423.4 290.6C425.067 290.467 427.1 290.4 429.5 290.4C433.3 290.4 435.2 291.633 435.2 294.1C435.2 295.5 434.567 296.6 433.3 297.4C432.1 298.067 430.6 298.4 428.8 298.4H416ZM492.6 296.9C491.4 296.9 490.5 296.6 489.9 296C489.3 295.267 488.867 294.133 488.6 292.6L487.7 289.7V289.4V288.9C487.7 285.633 484.233 274.4 477.3 255.2C470.5 236 465.167 221.8 461.3 212.6V288.1L461.9 289.1C461.967 289.3 462.167 289.667 462.5 290.2C462.767 290.667 462.9 291.167 462.9 291.7C462.9 292.967 462.467 294.033 461.6 294.9C460.667 295.833 459.567 296.3 458.3 296.3C455.1 296.3 453.5 293.267 453.5 287.2L453.3 261.5C453.233 253.767 453.2 245.167 453.2 235.7C453.2 232.5 453.333 227.867 453.6 221.8C453.933 215.467 454.1 210.8 454.1 207.8C454.1 203.133 455.9 199.433 459.5 196.7V197.6C460.1 197.4 460.5 197.3 460.7 197.3C462.967 197.3 465.867 201.3 469.4 209.3C472.2 215.7 474.7 222.467 476.9 229.6C479.167 236.667 482.167 246.767 485.9 259.9L487.4 265.3C489.667 273.367 491.4 279.167 492.6 282.7C494.6 261.167 495.6 235.733 495.6 206.4V204.5C495.533 203.9 495.5 203.267 495.5 202.6C495.5 199.6 496.7 198.1 499.1 198.1C500.5 198.1 501.533 198.633 502.2 199.7C503 200.833 503.4 202.233 503.4 203.9V215.2C503.2 230.6 502.6 247.3 501.6 265.3C500.6 283.233 499.4 293.367 498 295.7C495.133 296.5 493.333 296.9 492.6 296.9V296.9ZM534.6 296L531.9 294.1L531.8 288.2C531.667 286.533 531.6 284.633 531.6 282.5L531.8 277.4C531.467 276.333 530.7 265.4 529.5 244.6C528.3 223.8 527.6 210.433 527.4 204.5C521.6 204.3 517.9 203.7 516.3 202.7C515.233 201.9 514.7 201 514.7 200C514.7 199.2 515.2 198.5 516.2 197.9C517.267 197.233 518.367 196.9 519.5 196.9C522.3 196.9 525.7 197.067 529.7 197.4C533.5 197.933 536.9 198.2 539.9 198.2H541.1H542.3C545.367 198.2 546.9 199.4 546.9 201.8C546.9 203 546.4 204 545.4 204.8C544.4 205.533 543.267 205.9 542 205.9C541.067 205.9 539.767 205.733 538.1 205.4L535.1 204.8L534.9 205.6L534.8 206.3C534.8 215.233 535.633 229.433 537.3 248.9C538.9 267.233 539.7 281.433 539.7 291.5C539.7 292.7 539.167 293.767 538.1 294.7C537.1 295.567 535.933 296 534.6 296Z" fill="#325949"/>
</svg>
