<svg width="1298" height="101" viewBox="0 0 1298 101" fill="none" xmlns="http://www.w3.org/2000/svg">
<path d="M7.60001 98C5.06667 98 3.8 95.2667 3.8 89.8C3.8 79.8 3.33333 63.8333 2.39999 41.9C1.53333 19.9667 0.733333 8.4 0 7.2C0 4.8 0.933336 2.96667 2.8 1.7C3.46667 1.23334 4.40001 0.866665 5.60001 0.599998C6.93334 0.266665 8.10001 0.0999985 9.10001 0.0999985C9.63334 0.0333318 10.7 0 12.3 0C14.3 0 15.7333 0.333333 16.6 1C17.4667 1.6 17.9 2.73333 17.9 4.4C17.9 5.33333 17.5667 6.06667 16.9 6.6C16.1667 7 15.3 7.2 14.3 7.2L13 7.1H11.2C8.8 7.1 7.60001 7.56667 7.60001 8.5C7.60001 12.9667 7.9 18.8 8.5 26C9.03333 32.0667 9.36667 37.8 9.5 43.2C10.1 43 11.2333 42.7333 12.9 42.4C14.5667 42 15.8333 41.8 16.7 41.8C17.7 41.8 18.5333 42.2333 19.2 43.1C19.8667 43.8333 20.2 44.7333 20.2 45.8C20.2 47 19.6333 47.8667 18.5 48.4C18.3667 48.4667 17.9667 48.6667 17.3 49C16.6333 49.2667 15.8 49.4333 14.8 49.5C14 49.6333 12.7 49.7667 10.9 49.9H9.5C9.5 55.1 9.93334 62.1 10.8 70.9C11.6 80.2333 12 87.2667 12 92L11.8 92.5L11.7 92.7C11.7667 93.1 11.8 93.6667 11.8 94.4C11.8 95.5333 11.4333 96.4333 10.7 97.1C9.9 97.7 8.86667 98 7.60001 98V98ZM60.5 99.1C58.5 99.1 57.0333 98.8 56.1 98.2C55.1667 97.6 54.7 96.4667 54.7 94.8C54.7 92.2 54.2667 87.8 53.4 81.6L52.9 78.9L40.1 77C39.5667 79 38.8333 83 37.9 89C37.3667 93.2 36.5333 96 35.4 97.4C34.8 98.1333 33.9667 98.5 32.9 98.5C31.8333 98.5 30.8667 98.2 30 97.6C29.1333 96.9333 28.7 96.1333 28.7 95.2L29 94.5L29.1 94C34.7667 71.9333 39.0667 50.1333 42 28.6C42 28.2667 42.0333 27.7333 42.1 27C42.2333 26.1333 42.3333 24.9 42.4 23.3C42.6667 20.1667 42.9333 17.6333 43.2 15.7C43.5333 13.8333 44.0333 12.4333 44.7 11.5H49.1C50.3 11.5 51.3333 11.8 52.2 12.4C53.0667 12.8667 53.5 13.6333 53.5 14.7C53.5 21.2333 54.4 30.9333 56.2 43.8C57.9333 57.0667 58.8 66.3667 58.8 71.7C58.8 72.2333 59 73.5667 59.4 75.7C59.8667 77.7 60.1 79 60.1 79.6C60.1 80.2 60.5333 82.7667 61.4 87.3C62.1333 91.4333 62.5 94.1 62.5 95.3V95.4C62.5 97.3333 61.8333 98.5667 60.5 99.1ZM52 74.3C51.7333 73.0333 51.6 71.4333 51.6 69.5C51.6 61.7667 50.9 51.8667 49.5 39.8L48.2 26.4C44.5333 46.6 42 61.8667 40.6 72.2C41.8667 73.0667 45.6667 73.7667 52 74.3V74.3ZM90.9 99.7C89.0333 99.7 87 99.4333 84.8 98.9C82.8 98.3 81.2333 97.6667 80.1 97C74.3 93.3333 71.4 83.2333 71.4 66.7V63.2V59.2V56.1C71.4 52.6333 71.4667 49.5667 71.6 46.9C71.6667 44.1667 71.8333 41.2 72.1 38C72.3667 34.6667 72.7333 31.9667 73.2 29.9C73.7333 27.7667 74.6 25.3667 75.8 22.7C76.8667 20.2333 78.1333 18.3 79.6 16.9C81.1333 15.5 83.1 14.3333 85.5 13.4C87.6333 12.4667 90.3 12 93.5 12C94.7667 12 95.7667 12.3 96.5 12.9C97.1667 13.5 97.5 14.2667 97.5 15.2C97.5 16.0667 97.2 16.8333 96.6 17.5C96.0667 18.2333 95.4333 18.6333 94.7 18.7H88.6C86.8667 18.7 85.3667 19.7667 84.1 21.9C82.7667 24.0333 81.8667 26.8333 81.4 30.3C80.2667 36.7 79.7 41.8667 79.7 45.8V46.4L79.4 58.8C79.2667 62.5333 79.2 66.7 79.2 71.3C79.2 74.5667 79.3333 77.2333 79.6 79.3C80 82.4333 80.7333 85.0333 81.8 87.1C82.8 89.3667 84.5333 91.0333 87 92.1C88.3333 92.6333 89.7667 92.9 91.3 92.9C92.2333 92.9 93.1667 92.5333 94.1 91.8C95.2333 91.8 96.1333 92.0667 96.8 92.6C97.6 93.0667 98 93.7667 98 94.7C98 98.0333 95.6333 99.7 90.9 99.7V99.7ZM119.2 97.5L116.8 95.8L116.7 90.8C116.633 89.3333 116.6 87.7 116.6 85.9L116.7 81.5C116.433 80.5667 115.8 71.1667 114.8 53.3C113.733 35.3667 113.133 23.8667 113 18.8C108 18.6667 104.8 18.1667 103.4 17.3C102.467 16.5667 102 15.8 102 15C102 14.2667 102.433 13.6333 103.3 13.1C104.233 12.5 105.167 12.2 106.1 12.2C108.5 12.2 111.433 12.4 114.9 12.8C118.167 13.2 121.1 13.4 123.7 13.4H124.7H125.7C128.367 13.4 129.7 14.4333 129.7 16.5C129.7 17.5 129.267 18.3667 128.4 19.1C127.6 19.7 126.633 20 125.5 20C124.7 20 123.567 19.8667 122.1 19.6L119.5 19.1L119.4 19.7L119.3 20.4C119.3 28.0667 120.033 40.2667 121.5 57C122.833 72.7333 123.5 84.9333 123.5 93.6C123.5 94.6667 123.033 95.6 122.1 96.4C121.233 97.1333 120.267 97.5 119.2 97.5V97.5ZM157.7 100.4C155.5 100.4 153.433 99.7 151.5 98.3C149.633 96.8333 148.1 94.9 146.9 92.5C144.433 87.2333 142.9 81.5 142.3 75.3C141.5 69.5 141.1 63.8667 141.1 58.4C141.1 57.4 141.133 56.5333 141.2 55.8V53.5C141.2 53.1 141.167 52.9 141.1 52.9V50.6L141.2 41.5C141.267 38.7667 141.633 34.4 142.3 28.4C142.7 24.2667 143.667 20.2667 145.2 16.4C145.8 14.6667 146.567 13.3667 147.5 12.5C148.5 11.5667 149.6 11.1 150.8 11.1C154.2 11.1 157.3 11.7333 160.1 13C162.833 14.2 165.133 15.9333 167 18.2C168.733 20.3333 170.2 23 171.4 26.2C172.6 29.2667 173.467 32.5667 174 36.1C174.533 39.7 174.8 43.5333 174.8 47.6V48.6C174.8 51.2667 174.833 53.6667 174.9 55.8L175 63.2C175 88 169.233 100.4 157.7 100.4V100.4ZM157.2 94.9C158.733 94.9 160.167 94.3 161.5 93.1C162.767 91.8333 163.733 90.1333 164.4 88C166.067 83.6 167.067 78.8667 167.4 73.8C167.867 69.4 168.1 65.6 168.1 62.4C168.1 58.5333 167.767 53.4667 167.1 47.2C166.633 40.6 166.4 35.6667 166.4 32.4V30C166.2 26.7333 165.067 23.9 163 21.5C161.067 19.1 158.633 17.9 155.7 17.9C152.767 17.9 150.833 19.6 149.9 23C149.033 25.6667 148.6 29.1 148.6 33.3C148.6 34.9 148.633 36.2667 148.7 37.4V40.9L148.4 46.8C148.267 48.6 148.2 50.6 148.2 52.8C148.2 57.4 148.333 62 148.6 66.6C148.933 73 149.8 79.2667 151.2 85.4C152.533 91.7333 154.533 94.9 157.2 94.9V94.9ZM211.7 100.1C209.767 100.1 208.033 98.0333 206.5 93.9C204.7 89.4333 203.367 84.8333 202.5 80.1L201.6 75.7C199.133 63.4333 197.533 56.4333 196.8 54.7H195.3C195.3 57.1667 195.233 59.4333 195.1 61.5V68.6C195.1 80.1333 195.933 89.1333 197.6 95.6L196.2 99.1H192.6L190.9 97.1L191 88.5C191 80.7667 190.633 69.0333 189.9 53.3C189.167 36.5 188.8 24.7333 188.8 18C188.8 13.9333 190.233 11.9 193.1 11.9C197.7 11.9 201.467 13.1 204.4 15.5C207.4 17.9 208.9 21.2333 208.9 25.5V34.6C208.9 35.8667 208.7 37.3667 208.3 39.1C207.9 40.7 207.433 42.0333 206.9 43.1L204.4 47.7L202.4 51.6L203 54.7L204.8 63.8C206 70.4667 207.167 75.8667 208.3 80C209.433 84.1333 210.8 87.8667 212.4 91.2L213.2 92.7C214.067 94.4333 214.5 95.8333 214.5 96.9C214.5 97.7667 214.233 98.5333 213.7 99.2C213.167 99.8 212.5 100.1 211.7 100.1V100.1ZM195.8 48.4C197.667 47.4 199.267 44.8 200.6 40.6C201.933 36.3333 202.6 32.4 202.6 28.8C202.6 26 202.267 23.4 201.6 21C201.133 19.6667 200.4 18.6333 199.4 17.9C198.467 17.1667 197.267 16.8 195.8 16.8L195.5 17.4L195.3 18.6L195.5 33.8C195.7 38.2667 195.8 43.1333 195.8 48.4V48.4ZM229.5 99.7C227.9 99.4333 226.567 98.8667 225.5 98C224.433 97.1333 223.833 96.0333 223.7 94.7L225.1 92.5C225.567 92.5 226.367 92.6667 227.5 93C228.833 93.2667 229.833 93.4 230.5 93.4C232.033 93.4 233.4 92.7 234.6 91.3C235.933 89.9667 236.9 88.1667 237.5 85.9C238.567 81.7667 239.1 78.0667 239.1 74.8C239.1 69.1333 237.3 63.1667 233.7 56.9L232.3 54.4C230.633 51.6 229.267 49.0667 228.2 46.8C227.067 44.6 226.1 42.2 225.3 39.6C224.3 36.2667 223.8 32.9 223.8 29.5C223.8 25.7667 224.667 21.8333 226.4 17.7C227.2 15.7 228.4 14.1 230 12.9C231.6 11.6333 233.4 11 235.4 11C236.933 11 238.333 11.5 239.6 12.5C241 13.4333 241.7 14.6 241.7 16C241.7 16.7333 241.4 17.3333 240.8 17.8C240.2 18.2 239.467 18.4 238.6 18.4C237.667 18.4 236.767 18.1667 235.9 17.7C234.033 17.7667 232.533 19.4333 231.4 22.7C230.467 25.7 230 28.2 230 30.2C230 32.6667 230.367 35.2 231.1 37.8C231.9 40.2667 232.9 42.5333 234.1 44.6L236.9 49.8L241.5 58.3C242.7 60.7 243.633 63.5 244.3 66.7C245.1 69.9 245.5 73.1333 245.5 76.4C245.5 81.6 244.267 86.5667 241.8 91.3C240.6 93.7 238.9 95.6333 236.7 97.1C234.567 98.5667 232.167 99.3 229.5 99.3V99.7ZM299.9 99.7C298.033 99.7 296 99.4333 293.8 98.9C291.733 98.3 290.167 97.6667 289.1 97C283.3 93.3333 280.4 83.2333 280.4 66.7V63.2V59.2V56.1C280.4 52.7 280.433 49.6667 280.5 47C280.633 44.2 280.833 41.2333 281.1 38.1C281.3 34.7 281.667 31.9667 282.2 29.9C282.733 27.7667 283.6 25.3667 284.8 22.7C285.8 20.2333 287.033 18.3 288.5 16.9C290.1 15.5 292.1 14.3333 294.5 13.4C296.633 12.4667 299.3 12 302.5 12C303.767 12 304.733 12.3 305.4 12.9C306.133 13.5 306.5 14.2667 306.5 15.2C306.5 16.0667 306.2 16.8333 305.6 17.5C305.067 18.2333 304.4 18.6333 303.6 18.7H297.6C295.867 18.7 294.367 19.7667 293.1 21.9C291.767 24.1 290.833 26.9 290.3 30.3C289.233 36.7 288.7 41.8667 288.7 45.8V46.4L288.4 58.8C288.267 62.5333 288.2 66.7 288.2 71.3C288.2 74.5667 288.3 77.2333 288.5 79.3C288.967 82.4333 289.7 85.0333 290.7 87.1C291.767 89.4333 293.533 91.1 296 92.1C297.333 92.6333 298.767 92.9 300.3 92.9C301.233 92.9 302.167 92.5667 303.1 91.9C304.233 91.9 305.133 92.1333 305.8 92.6C306.6 93.0667 307 93.7667 307 94.7C307 98.0333 304.633 99.7 299.9 99.7V99.7ZM333.7 100.4C331.433 100.4 329.367 99.7 327.5 98.3C325.633 96.8333 324.1 94.9 322.9 92.5C320.367 87.2333 318.8 81.5 318.2 75.3C317.4 69.5 317 63.8667 317 58.4C317 57.4 317.067 56.5667 317.2 55.9V53.5C317.2 53.1 317.133 52.9 317 52.9V50.6L317.2 41.5C317.267 38.7667 317.6 34.4 318.2 28.4C318.667 24.2667 319.667 20.2667 321.2 16.4C321.8 14.6667 322.567 13.3667 323.5 12.5C324.433 11.5667 325.5 11.1 326.7 11.1C330.167 11.1 333.267 11.7333 336 13C338.733 14.2 341.067 15.9333 343 18.2C344.733 20.3333 346.2 23 347.4 26.2C348.6 29.2667 349.433 32.5667 349.9 36.1C350.433 39.7 350.7 43.5333 350.7 47.6V48.6C350.7 51.2667 350.733 53.7 350.8 55.9L351 63.2C351 88 345.233 100.4 333.7 100.4V100.4ZM333.2 94.9C334.733 94.9 336.133 94.3 337.4 93.1C338.733 91.8333 339.733 90.1333 340.4 88C342 83.6 343 78.8667 343.4 73.8C343.8 69.4 344 65.6 344 62.4C344 58.5333 343.7 53.4667 343.1 47.2C342.567 40.6 342.3 35.6667 342.3 32.4V30.1C342.167 26.8333 341.067 23.9667 339 21.5C337 19.1 334.533 17.9 331.6 17.9C328.667 17.9 326.733 19.6 325.8 23C324.933 25.6667 324.5 29.1 324.5 33.3C324.5 34.9 324.567 36.2667 324.7 37.4V40.9L324.4 46.8C324.2 48.6 324.1 50.6 324.1 52.8C324.1 57.4 324.233 62 324.5 66.6C324.833 73 325.7 79.2667 327.1 85.4C328.5 91.7333 330.533 94.9 333.2 94.9V94.9ZM400.3 98.3C399.233 98.3 398.433 98.0333 397.9 97.5C397.433 96.9 397.067 95.9333 396.8 94.6L396 92.1V91.9V91.5C396 88.6333 393.033 78.9333 387.1 62.4C381.233 45.9333 376.633 33.7333 373.3 25.8V90.7L373.8 91.6C373.867 91.8 374.033 92.1 374.3 92.5C374.567 92.9 374.7 93.3333 374.7 93.8C374.7 94.9333 374.3 95.8667 373.5 96.6C372.767 97.4 371.833 97.8 370.7 97.8C367.967 97.8 366.6 95.1667 366.6 89.9L366.5 67.9C366.367 61.2333 366.3 53.8333 366.3 45.7C366.3 42.9 366.433 38.9 366.7 33.7C366.967 28.2333 367.1 24.2333 367.1 21.7C367.1 17.6333 368.633 14.4333 371.7 12.1V12.9C372.233 12.7 372.6 12.6 372.8 12.6C374.733 12.6 377.233 16.0667 380.3 23C382.7 28.4667 384.833 34.2667 386.7 40.4C388.7 46.4667 391.267 55.1333 394.4 66.4L395.7 71.1C397.7 78.0333 399.233 83 400.3 86C401.967 67.5333 402.8 45.7 402.8 20.5V18.8C402.733 18.3333 402.7 17.8 402.7 17.2C402.7 14.6 403.733 13.3 405.8 13.3C407 13.3 407.9 13.7667 408.5 14.7C409.167 15.6333 409.5 16.8333 409.5 18.3V28C409.367 41.2667 408.867 55.6333 408 71.1C407.133 86.5667 406.1 95.3 404.9 97.3C402.433 97.9667 400.9 98.3 400.3 98.3V98.3ZM436.4 97.5L434 95.8L433.9 90.8C433.833 89.3333 433.8 87.7 433.8 85.9L433.9 81.5C433.633 80.5667 433 71.1667 432 53.3C430.933 35.3667 430.333 23.8667 430.2 18.8C425.2 18.6667 422 18.1667 420.6 17.3C419.667 16.6333 419.2 15.8667 419.2 15C419.2 14.2667 419.633 13.6667 420.5 13.2C421.433 12.6 422.367 12.3 423.3 12.3C425.767 12.3 428.7 12.4667 432.1 12.8C435.367 13.2 438.3 13.4 440.9 13.4H441.9H443C445.6 13.4 446.9 14.4333 446.9 16.5C446.9 17.5667 446.5 18.4333 445.7 19.1C444.833 19.7 443.833 20 442.7 20C441.9 20 440.767 19.8667 439.3 19.6L436.8 19.1L436.6 19.7L436.5 20.4C436.5 28.0667 437.233 40.2667 438.7 57C440.1 72.7333 440.8 84.9667 440.8 93.7C440.8 94.7 440.3 95.6 439.3 96.4C438.433 97.1333 437.467 97.5 436.4 97.5V97.5ZM482.4 100.1C480.533 100.1 478.833 98.0333 477.3 93.9C475.5 89.4333 474.167 84.8333 473.3 80.1L472.4 75.7C469.867 63.4333 468.267 56.4333 467.6 54.7H466C466 57.1667 465.967 59.4333 465.9 61.5V68.6C465.9 80.1333 466.733 89.1333 468.4 95.6L466.9 99.1H463.3L461.7 97.1L461.8 88.5C461.8 80.7667 461.4 69.0333 460.6 53.3C459.933 36.5 459.6 24.7667 459.6 18.1C459.6 13.9667 461 11.9 463.8 11.9C468.467 11.9 472.267 13.1 475.2 15.5C478.2 17.9 479.7 21.2333 479.7 25.5V34.6C479.7 35.8667 479.5 37.3667 479.1 39.1C478.633 40.7 478.167 42.0333 477.7 43.1L475.2 47.7L473.1 51.6L473.8 54.7L475.6 63.9C476.8 70.5 477.967 75.8667 479.1 80C480.167 84.1333 481.533 87.8667 483.2 91.2L484 92.8C484.867 94.4667 485.3 95.8333 485.3 96.9C485.3 97.7667 485.033 98.5333 484.5 99.2C483.967 99.8 483.267 100.1 482.4 100.1V100.1ZM466.6 48.4C468.467 47.4667 470.033 44.8667 471.3 40.6C472.7 36.3333 473.4 32.4 473.4 28.8C473.4 26 473.067 23.4 472.4 21C471.933 19.6667 471.2 18.6333 470.2 17.9C469.267 17.1667 468.067 16.8 466.6 16.8L466.3 17.4L466 18.6L466.3 33.8C466.5 38.2667 466.6 43.1333 466.6 48.4V48.4ZM504.4 97.8C496.867 97.8 493.1 96.5 493.1 93.9C493.1 91.8333 494.433 90.8 497.1 90.8H498.5L499.8 90.9C500.533 90.9 501.033 90.7 501.3 90.3C501.5 89.9 501.6 89.1333 501.6 88C501.6 86.5333 501.533 84.2333 501.4 81.1C501.133 79.0333 500.833 75.3333 500.5 70C499.7 56.8667 499.3 46.9667 499.3 40.3C499.3 37.8333 499.367 35.6333 499.5 33.7L499.6 27.1C499.6 24.2333 499.467 21.8667 499.2 20C497.8 20.3333 496.8 20.5 496.2 20.5C494.133 20.5 493.1 19.4667 493.1 17.4C493.1 16.4 493.767 15.5 495.1 14.7C496.367 13.9 498 13.3333 500 13C503.4 12.3333 506.433 12 509.1 12C510.167 12 511.033 12.4 511.7 13.2C512.5 13.8667 512.9 14.6667 512.9 15.6C512.9 16.5333 512.6 17.3667 512 18.1C511.467 18.7667 510.767 19.1 509.9 19.1C509.367 19.1 508.933 19.0667 508.6 19H507.6C506.733 19 506.067 19.2 505.6 19.6C505.267 19.9333 505.1 20.6333 505.1 21.7C505.1 30.0333 505.633 42.5667 506.7 59.3C506.833 62.4333 507.167 67 507.7 73C508.167 77 508.4 81.0333 508.4 85.1V90C508.867 89.9333 509.7 89.9 510.9 89.9C514.567 89.9 516.4 91.4 516.4 94.4V95.2L513.1 97.4C513.033 97.4 512.733 97.4333 512.2 97.5C511.8 97.5 510.933 97.5 509.6 97.5C506.867 97.7 505.133 97.8 504.4 97.8V97.8ZM530.8 99.2C528.933 99.2 527.767 98.4 527.3 96.8C526.967 95.7333 526.8 94.2667 526.8 92.4C526.8 88.6667 526.967 84.1 527.3 78.7C527.767 73.5667 528 68.9667 528 64.9C528 60.3667 528.1 53.5333 528.3 44.4L528.6 24C528.6 23.2 528.467 22.0333 528.2 20.5L527.8 17.3V16.6C527.8 14.6667 528.1 13.2333 528.7 12.3C529.3 11.3 530.433 10.8 532.1 10.8C534.3 10.8 536.733 11.4667 539.4 12.8C542.067 14.0667 544 15.7 545.2 17.7C547.733 21.8333 549 27 549 33.2C549 37.8 548.6 41.7 547.8 44.9C547.067 47.9667 545.733 50.8333 543.8 53.5C546.133 55.7667 547.7 58.6667 548.5 62.2C549.367 65.6 549.8 69.9333 549.8 75.2C549.8 80.4667 548.9 85.0333 547.1 88.9C545.033 93.3 542 96.3 538 97.9C535.6 98.7667 533.2 99.2 530.8 99.2V99.2ZM534.9 49.8C539.367 49.7333 541.6 44.5333 541.6 34.2C541.6 23.0667 539.833 17.2667 536.3 16.8C535.367 18.7333 534.9 23.3667 534.9 30.7V49.8ZM534.2 92.6C536.933 92 539.067 90.3667 540.6 87.7C542.133 85.0333 542.9 82 542.9 78.6C542.9 75 542.7 71.8 542.3 69C541.967 66.8667 541.5 65.1 540.9 63.7C540.367 62.2333 539.633 60.9 538.7 59.7C537.633 58.4333 536.433 57.6667 535.1 57.4C534.7 62.3333 534.5 68.8333 534.5 76.9C534.5 77.4333 534.433 79.0667 534.3 81.8L534 86.2C534 86.3333 534.067 86.4667 534.2 86.6V86.8V92.6ZM577.6 99.9C575.533 99.9 573.7 99.4667 572.1 98.6C570.433 97.6 569.1 96.2667 568.1 94.6C566.033 90.9333 564.7 86.8333 564.1 82.3C563.5 78.3667 563.2 73.6333 563.2 68.1C562.933 58.8333 562.8 47.5 562.8 34.1L562.7 24.1C562.567 23.6333 562.5 22.7667 562.5 21.5C562.367 18.2333 562.3 16.2667 562.3 15.6C563.033 13.8 563.933 12.9 565 12.9C566 12.9 566.9 13.6667 567.7 15.2C568.567 16.7333 569 18.4333 569 20.3V55.3C569 58.7667 569.3 63.3333 569.9 69C570.5 76.0667 570.8 80.6333 570.8 82.7C570.8 89.0333 573.5 92.2 578.9 92.2C585.1 92.2 588.2 69.0667 588.2 22.8V15.6V14.5C588.133 14.2333 588.1 13.8667 588.1 13.4C588.1 12.4 588.3 11.6667 588.7 11.2C589.233 10.7333 590.2 10.5 591.6 10.5C592.667 10.5 593.5 10.8333 594.1 11.5C594.833 12.1 595.267 12.8333 595.4 13.7C595.533 14.2333 595.6 15.2 595.6 16.6C595.6 18 595.467 20.2 595.2 23.2C594.867 25.7333 594.7 27.9 594.7 29.7C594.7 31.6333 594.6 33.4 594.4 35L594.1 40.4V41.4C594.233 41.7333 594.3 42.1333 594.3 42.6C594.3 80.8 588.733 99.9 577.6 99.9V99.9ZM619.9 97.5L617.6 95.9L617.5 90.8C617.433 89.3333 617.4 87.7 617.4 85.9L617.5 81.5C617.233 80.5667 616.6 71.1667 615.6 53.3C614.533 35.4333 613.9 23.9333 613.7 18.8C608.767 18.6667 605.6 18.1667 604.2 17.3C603.267 16.6333 602.8 15.8667 602.8 15C602.8 14.2667 603.233 13.6667 604.1 13.2C605.033 12.6 605.967 12.3 606.9 12.3C609.3 12.3 612.233 12.4667 615.7 12.8C618.967 13.2 621.9 13.4 624.5 13.4H625.5H626.5C629.167 13.4 630.5 14.4333 630.5 16.5C630.5 17.5667 630.067 18.4333 629.2 19.1C628.333 19.7 627.367 20 626.3 20C625.5 20 624.367 19.8667 622.9 19.6L620.3 19.1L620.2 19.7L620.1 20.4C620.1 28.0667 620.833 40.2667 622.3 57C623.633 72.7333 624.3 84.9667 624.3 93.7C624.3 94.7 623.833 95.6 622.9 96.4C622.033 97.1333 621.033 97.5 619.9 97.5ZM649.9 97.8C642.367 97.8 638.6 96.5 638.6 93.9C638.6 91.8333 639.933 90.8 642.6 90.8H644.1L645.4 91C646.067 91 646.533 90.7667 646.8 90.3C647.067 89.9 647.2 89.1333 647.2 88C647.2 86.5333 647.1 84.2333 646.9 81.1C646.633 79.1 646.333 75.4333 646 70.1C645.2 56.9 644.8 46.9667 644.8 40.3C644.8 37.8333 644.867 35.6333 645 33.7L645.1 27.1C645.1 24.2333 644.967 21.8667 644.7 20C643.3 20.3333 642.3 20.5 641.7 20.5C639.633 20.5 638.6 19.4667 638.6 17.4C638.6 16.4 639.267 15.5 640.6 14.7C641.867 13.9667 643.5 13.4 645.5 13C648.9 12.3333 651.933 12 654.6 12C655.667 12 656.533 12.4 657.2 13.2C658 13.8667 658.4 14.6667 658.4 15.6C658.4 16.5333 658.1 17.3667 657.5 18.1C656.967 18.7667 656.267 19.1 655.4 19.1C654.867 19.1 654.433 19.0667 654.1 19H653.1C652.233 19 651.6 19.2 651.2 19.6C650.8 19.9333 650.6 20.6333 650.6 21.7C650.6 30.0333 651.133 42.5667 652.2 59.3C652.333 62.4333 652.667 67 653.2 73C653.667 77 653.9 81.0333 653.9 85.1V90C654.367 89.9333 655.2 89.9 656.4 89.9C660.067 89.9 661.9 91.4 661.9 94.4V95.2L658.6 97.4C658.533 97.4 658.233 97.4333 657.7 97.5C657.3 97.5 656.467 97.5 655.2 97.5C652.4 97.7 650.633 97.8 649.9 97.8V97.8ZM707.8 98.3C706.733 98.3 705.967 98.0333 705.5 97.5C704.967 96.9 704.567 95.9333 704.3 94.6L703.5 92.1V91.9V91.5C703.5 88.6333 700.533 78.9333 694.6 62.4C688.8 45.9333 684.2 33.7333 680.8 25.8V90.7L681.3 91.6C681.433 91.8 681.633 92.1 681.9 92.5C682.1 92.9 682.2 93.3333 682.2 93.8C682.2 94.9333 681.833 95.8667 681.1 96.6C680.3 97.4 679.333 97.8 678.2 97.8C675.467 97.8 674.1 95.1667 674.1 89.9L674 67.9C673.933 61.2333 673.9 53.8333 673.9 45.7C673.9 42.9 674 38.9 674.2 33.7C674.467 28.2333 674.6 24.2333 674.6 21.7C674.6 17.6333 676.167 14.4333 679.3 12.1V12.9C679.833 12.7 680.167 12.6 680.3 12.6C682.3 12.6 684.8 16.0667 687.8 23C690.2 28.4667 692.333 34.2667 694.2 40.4C696.2 46.4667 698.8 55.1333 702 66.4L703.3 71.1C705.233 78.0333 706.733 83 707.8 86C709.533 67.5333 710.4 45.7 710.4 20.5V18.8C710.267 18.3333 710.2 17.8 710.2 17.2C710.2 14.6 711.233 13.3 713.3 13.3C714.5 13.3 715.4 13.7667 716 14.7C716.733 15.6333 717.1 16.8333 717.1 18.3V28C716.9 41.2667 716.367 55.6333 715.5 71.1C714.633 86.5667 713.6 95.3 712.4 97.3C709.933 97.9667 708.4 98.3 707.8 98.3V98.3ZM751.1 98.9C748.7 98.9 746.533 98.5 744.6 97.7C742.6 96.7 740.9 95.4667 739.5 94C738.367 92.8 737.333 91.0667 736.4 88.8C735.467 86.4667 734.8 84.2 734.4 82C733.933 80.4 733.567 78.0667 733.3 75C733.033 71.8667 732.867 69.2 732.8 67V59.5V54.3C732.8 49.3 732.9 45.2333 733.1 42.1C733.233 38.2333 733.767 34.1333 734.7 29.8C735.5 25.9333 736.833 22.5333 738.7 19.6C740.567 16.6667 743.133 14.6667 746.4 13.6C747.933 12.9333 749.733 12.6 751.8 12.6C755.467 12.6 757.3 13.7 757.3 15.9C757.3 16.9 756.867 17.7667 756 18.5C755.267 19.1 754.333 19.4 753.2 19.4C752.667 19.4 752.2 19.3333 751.8 19.2C751.467 19.1333 751.033 19.1 750.5 19.1C749.033 19.1 747.733 19.8667 746.6 21.4C745.467 22.9333 744.533 25.1 743.8 27.9C742.4 33.2333 741.433 39.0333 740.9 45.3C740.567 51.1667 740.4 55.5 740.4 58.3C740.4 61.2333 740.533 65.2333 740.8 70.3C741.133 75.0333 741.867 79.1667 743 82.7C743.6 84.7667 744.3 86.4333 745.1 87.7C745.967 88.9 747.033 89.9333 748.3 90.8C749.767 91.7333 751.267 92.2 752.8 92.2C756.933 92.2 759 85.3333 759 71.6V65.7C758.4 65.4333 757.4 65.3 756 65.3H754.9H753.5C750.433 65.3 748.9 64.3 748.9 62.3C748.9 61.1 749.3 60.2 750.1 59.6C750.967 58.9333 752.033 58.6 753.3 58.6V58.7H755.1C762.833 58.7 766.7 60.0333 766.7 62.7C766.7 63.5 766.5 65.0333 766.1 67.3C765.567 69.3667 765.3 70.9333 765.3 72C765.3 73.4667 765.433 75.7333 765.7 78.8L766 85.7C766 89.8333 764.533 93.1 761.6 95.5C758.733 97.7667 755.233 98.9 751.1 98.9V98.9ZM812.1 97.5L809.8 95.9L809.7 90.8C809.633 89.3333 809.6 87.7 809.6 85.9L809.7 81.5C809.433 80.5667 808.8 71.1667 807.8 53.3C806.733 35.4333 806.133 23.9333 806 18.8C801 18.6667 797.8 18.1667 796.4 17.3C795.467 16.6333 795 15.8667 795 15C795 14.2667 795.433 13.6667 796.3 13.2C797.233 12.6 798.167 12.3 799.1 12.3C801.5 12.3 804.433 12.4667 807.9 12.8C811.167 13.2 814.1 13.4 816.7 13.4H817.7H818.7C821.367 13.4 822.7 14.4333 822.7 16.5C822.7 17.5667 822.267 18.4333 821.4 19.1C820.533 19.7 819.567 20 818.5 20C817.7 20 816.567 19.8667 815.1 19.6L812.5 19.1L812.4 19.7L812.3 20.4C812.3 28.0667 813.033 40.2667 814.5 57C815.833 72.7333 816.5 84.9667 816.5 93.7C816.5 94.7 816.033 95.6 815.1 96.4C814.233 97.1333 813.233 97.5 812.1 97.5ZM850.7 100.4C848.5 100.4 846.433 99.7 844.5 98.3C842.633 96.8333 841.1 94.9 839.9 92.5C837.367 87.2333 835.8 81.5 835.2 75.3C834.467 69.5 834.1 63.8667 834.1 58.4C834.1 57.4 834.133 56.5667 834.2 55.9V53.5C834.2 53.1 834.167 52.9 834.1 52.9V50.6L834.2 41.5C834.267 38.7667 834.6 34.4 835.2 28.4C835.667 24.2667 836.667 20.2667 838.2 16.4C838.8 14.6667 839.567 13.3667 840.5 12.5C841.433 11.5667 842.533 11.1 843.8 11.1C847.2 11.1 850.267 11.7333 853 13C855.8 14.2 858.133 15.9333 860 18.2C861.733 20.3333 863.2 23 864.4 26.2C865.6 29.2667 866.467 32.5667 867 36.1C867.467 39.7 867.7 43.5333 867.7 47.6V48.6C867.7 51.2667 867.767 53.7 867.9 55.9L868 63.2C868 88 862.233 100.4 850.7 100.4ZM850.2 94.9C851.733 94.9 853.167 94.3 854.5 93.1C855.767 91.8333 856.733 90.1333 857.4 88C859.067 83.6 860.067 78.8667 860.4 73.8C860.8 69.4 861 65.6 861 62.4C861 58.5333 860.7 53.4667 860.1 47.2C859.633 40.6 859.4 35.6667 859.4 32.4V30.1C859.2 26.8333 858.067 23.9667 856 21.5C854 19.1 851.567 17.9 848.7 17.9C845.767 17.9 843.833 19.6 842.9 23C842.033 25.6667 841.6 29.1 841.6 33.3C841.6 34.9 841.633 36.2667 841.7 37.4V40.9L841.4 46.8C841.267 48.6 841.2 50.6 841.2 52.8C841.2 57.4 841.333 62 841.6 66.6C841.933 73 842.767 79.2667 844.1 85.4C845.5 91.7333 847.533 94.9 850.2 94.9V94.9ZM915.2 97.5L912.9 95.9L912.8 90.8C912.667 89.3333 912.6 87.7 912.6 85.9L912.8 81.5C912.533 80.5667 911.867 71.1667 910.8 53.3C909.8 35.4333 909.2 23.9333 909 18.8C904 18.6667 900.833 18.1667 899.5 17.3C898.567 16.6333 898.1 15.8667 898.1 15C898.1 14.2667 898.533 13.6667 899.4 13.2C900.333 12.6 901.267 12.3 902.2 12.3C904.6 12.3 907.533 12.4667 911 12.8C914.267 13.2 917.167 13.4 919.7 13.4H920.8H921.8C924.467 13.4 925.8 14.4333 925.8 16.5C925.8 17.5667 925.367 18.4333 924.5 19.1C923.633 19.7 922.633 20 921.5 20C920.767 20 919.667 19.8667 918.2 19.6L915.6 19.1L915.5 19.7L915.3 20.4C915.3 28.0667 916.033 40.2667 917.5 57C918.9 72.7333 919.6 84.9667 919.6 93.7C919.6 94.7 919.133 95.6 918.2 96.4C917.333 97.1333 916.333 97.5 915.2 97.5ZM961.4 97.9C958.467 97.9 957 90.8 957 76.6L957.1 69.3L957.3 63.3V63V61.7C957.367 60.9667 957.4 60.1333 957.4 59.2C957.4 59.0667 957.267 58.8667 957 58.6C956.733 58.3333 956.6 58.1 956.6 57.9V57.8C956.2 58 955.433 58.1 954.3 58.1C953.167 58.1 951.8 57.9 950.2 57.5C949.667 57.4333 948.3 57.2333 946.1 56.9V71.7C946.1 73.9667 946.2 77.5 946.4 82.3C946.667 87.0333 946.8 90.5667 946.8 92.9C946.8 94.1667 946.467 95.2667 945.8 96.2C945.133 97.2 944.233 97.7 943.1 97.7C941.433 97.7 940.267 96.1 939.6 92.9C938.933 89.6333 938.6 85.3667 938.6 80.1L938.8 69.7C938.933 66.7667 939 63.6667 939 60.4V58.2V56.4C939 55 938.933 54.1 938.8 53.7V53L939.2 45.5C939.2 42.2333 939.067 37.4 938.8 31C938.533 24.5333 938.4 19.6667 938.4 16.4C938.4 15.3333 938.767 14.4333 939.5 13.7C940.167 12.9 941.033 12.5 942.1 12.5C944.833 12.5 946.2 15.1 946.2 20.3L945.9 36.3C945.767 41.1 945.7 46.4667 945.7 52.4C946.967 52.8 949.267 53 952.6 53H957.4C957.6 52.5333 957.7 52.0333 957.7 51.5C957.7 47.3667 957.433 41.2667 956.9 33.2C956.3 25.6 956 19.4333 956 14.7C956 13.7667 956.333 13 957 12.4C957.8 11.7333 958.7 11.4 959.7 11.4C960.3 11.4 961.167 11.6 962.3 12L963.5 12.5C963.5 24.7 963.933 41 964.8 61.4L965.9 94C965.9 95.2667 965.433 96.2333 964.5 96.9C963.633 97.5667 962.6 97.9 961.4 97.9V97.9ZM987.3 99.6C986.233 99.6 985.2 99.2 984.2 98.4C983.333 97.6667 982.867 96.7333 982.8 95.6V92.2V89.7C982.733 88.9 982.7 88 982.7 87C982.7 85.1333 982.567 82.3667 982.3 78.7L982 70.4C982 66.2 982.133 59.9333 982.4 51.6C982.733 44.1333 982.9 37.8667 982.9 32.8C982.9 31.6 982.8 29.8 982.6 27.4C982.333 24.8667 982.2 23.0333 982.2 21.9C982.2 15.8333 984 12.8 987.6 12.8C990.4 12.8 993.667 13.3667 997.4 14.5C1001.2 15.5667 1003.1 16.9 1003.1 18.5C1003.1 19.3 1002.7 20.1 1001.9 20.9C1001.23 21.5667 1000.37 22.1333 999.3 22.6C995.7 21.2667 992.433 20.4 989.5 20C989.633 21.2667 989.7 23.1 989.7 25.5C989.7 28.9667 989.633 32.0667 989.5 34.8C989.233 38.9333 989.1 42.0333 989.1 44.1L989.5 46.2L991.6 46.1C992.267 45.9667 993.133 45.9 994.2 45.9C998.333 45.9 1000.4 47.1 1000.4 49.5C1000.4 50.5 1000 51.3333 999.2 52C998.4 52.6 997.4 52.9 996.2 52.9C994.667 52.9 993.467 52.8 992.6 52.6H989.4C989.6 54.8667 989.7 58.1333 989.7 62.4C989.7 66.7333 989.633 70.6333 989.5 74.1C989.233 79.3 989.1 83.2 989.1 85.8C989.1 90.6 989.2 93 989.4 93L993.7 92.9C995.1 92.8333 996.833 92.8 998.9 92.8C1002.17 92.8 1003.8 93.8333 1003.8 95.9C1003.8 97.1 1003.27 98.0333 1002.2 98.7C1001.13 99.3 999.833 99.6 998.3 99.6H987.3ZM1020.3 99.7C1018.77 99.4333 1017.43 98.8667 1016.3 98C1015.3 97.2 1014.7 96.1 1014.5 94.7L1015.9 92.5C1016.43 92.5 1017.27 92.6667 1018.4 93C1019.67 93.2667 1020.67 93.4 1021.4 93.4C1022.93 93.4 1024.3 92.7 1025.5 91.3C1026.77 89.9667 1027.7 88.1667 1028.3 85.9C1029.43 81.7667 1030 78.0667 1030 74.8C1030 69.1333 1028.2 63.1667 1024.6 56.9L1023.2 54.4C1021.53 51.6 1020.13 49.0667 1019 46.8C1017.93 44.6 1017 42.2 1016.2 39.6C1015.13 36.2667 1014.6 32.9 1014.6 29.5C1014.6 25.7667 1015.47 21.8333 1017.2 17.7C1018.07 15.7 1019.27 14.1 1020.8 12.9C1022.47 11.6333 1024.3 11 1026.3 11C1027.83 11 1029.23 11.5 1030.5 12.5C1031.9 13.4333 1032.6 14.6 1032.6 16C1032.6 16.8 1032.3 17.4 1031.7 17.8C1031.1 18.2667 1030.37 18.5 1029.5 18.5C1028.57 18.5 1027.67 18.2333 1026.8 17.7C1024.87 17.7667 1023.37 19.4333 1022.3 22.7C1021.3 25.7 1020.8 28.2 1020.8 30.2C1020.8 32.6667 1021.2 35.2 1022 37.8C1022.8 40.2667 1023.8 42.5333 1025 44.6L1027.8 49.8L1032.3 58.3C1033.5 60.7 1034.47 63.5 1035.2 66.7C1035.93 69.9 1036.3 73.1333 1036.3 76.4C1036.3 81.6 1035.1 86.5667 1032.7 91.3C1031.5 93.7 1029.77 95.6333 1027.5 97.1C1025.37 98.5667 1022.97 99.3 1020.3 99.3V99.7ZM1055.8 99.6C1054.67 99.6 1053.63 99.2 1052.7 98.4C1051.83 97.6667 1051.37 96.7333 1051.3 95.6V92.3V89.7C1051.23 88.9 1051.2 88 1051.2 87C1051.2 85.2 1051.07 82.4333 1050.8 78.7L1050.5 70.5C1050.5 66.2333 1050.63 59.9333 1050.9 51.6C1051.23 44.1333 1051.4 37.8667 1051.4 32.8C1051.4 31.6 1051.27 29.8 1051 27.4C1050.73 24.8667 1050.6 23.0333 1050.6 21.9C1050.6 15.8333 1052.43 12.8 1056.1 12.8C1058.9 12.8 1062.17 13.3667 1065.9 14.5C1069.63 15.5667 1071.5 16.9 1071.5 18.5C1071.5 19.3667 1071.13 20.1667 1070.4 20.9C1069.67 21.5667 1068.8 22.1333 1067.8 22.6C1064.2 21.3333 1060.93 20.4667 1058 20C1058.07 21.2667 1058.1 23.1333 1058.1 25.6C1058.1 29 1058.07 32.0667 1058 34.8C1057.73 38.9333 1057.6 42.0333 1057.6 44.1L1058 46.2L1060.1 46.1C1060.77 45.9667 1061.6 45.9 1062.6 45.9C1066.73 45.9 1068.8 47.1333 1068.8 49.6C1068.8 50.5333 1068.43 51.3333 1067.7 52C1066.9 52.6 1065.9 52.9 1064.7 52.9C1063.17 52.9 1061.97 52.8333 1061.1 52.7H1057.9C1058.03 54.9 1058.1 58.1667 1058.1 62.5C1058.1 66.7667 1058.07 70.6333 1058 74.1C1057.73 79.3 1057.6 83.2 1057.6 85.8C1057.6 90.6 1057.7 93 1057.9 93L1062.1 92.9C1063.57 92.8333 1065.33 92.8 1067.4 92.8C1070.67 92.8 1072.3 93.8333 1072.3 95.9C1072.3 97.1 1071.73 98.0333 1070.6 98.7C1069.6 99.3 1068.33 99.6 1066.8 99.6H1055.8ZM1112.8 99.1C1111.47 99.1 1109.9 98.4667 1108.1 97.2C1108.83 90 1109.4 79.0333 1109.8 64.3C1110.27 48.9 1110.57 39.6333 1110.7 36.5V33.4C1111.03 25 1111.2 19.1667 1111.2 15.9C1111.2 14.7 1111.67 13.7333 1112.6 13C1113.67 12.3333 1114.83 12 1116.1 12C1119.1 12 1122.33 12.2667 1125.8 12.8C1128.07 13.1333 1129.83 13.7 1131.1 14.5C1132.5 15.2333 1133.2 16.1667 1133.2 17.3C1133.2 19.7 1131 20.9 1126.6 20.9C1124.93 20.0333 1122.7 19.6 1119.9 19.6H1118.3V21.2C1118.3 24.5333 1118.13 28.7667 1117.8 33.9C1117.4 38.7667 1117.2 43.1333 1117.2 47V50.5H1118.2H1119.5C1123.7 50.5 1125.8 51.6 1125.8 53.8C1125.8 54.9333 1125.33 55.8333 1124.4 56.5C1123.53 57.2333 1122.47 57.6 1121.2 57.6C1119.13 57.6 1117.43 57.3667 1116.1 56.9V93.4C1116.1 97.2 1115 99.1 1112.8 99.1V99.1ZM1167.3 99.1C1165.37 99.1 1163.93 98.8 1163 98.2C1162 97.6 1161.5 96.4667 1161.5 94.8C1161.5 92.2667 1161.07 87.9 1160.2 81.7L1159.7 79L1147 77C1146.47 79 1145.73 83 1144.8 89C1144.27 93.2 1143.43 96 1142.3 97.4C1141.7 98.2 1140.83 98.6 1139.7 98.6C1138.7 98.6 1137.77 98.3 1136.9 97.7C1136.03 96.9667 1135.6 96.1333 1135.6 95.2L1135.9 94.6L1136 94.1C1141.67 71.9667 1145.97 50.1667 1148.9 28.7C1148.9 28.3 1148.93 27.7333 1149 27C1149.13 26.1333 1149.23 24.9333 1149.3 23.4C1149.57 20.2 1149.83 17.6667 1150.1 15.8C1150.43 13.8667 1150.93 12.4333 1151.6 11.5H1156C1157.2 11.5 1158.23 11.8 1159.1 12.4C1159.97 12.9333 1160.4 13.7 1160.4 14.7C1160.4 21.2333 1161.3 30.9667 1163.1 43.9C1164.83 57.1 1165.7 66.3667 1165.7 71.7C1165.7 72.2333 1165.9 73.5667 1166.3 75.7C1166.77 77.7 1167 79 1167 79.6C1167 80.2 1167.4 82.8 1168.2 87.4C1169 91.4667 1169.4 94.1 1169.4 95.3V95.5C1169.4 97.3667 1168.7 98.5667 1167.3 99.1V99.1ZM1158.8 74.3C1158.53 73.0333 1158.4 71.4333 1158.4 69.5C1158.4 61.7667 1157.73 51.9 1156.4 39.9L1155.1 26.5C1151.37 46.7 1148.83 61.9667 1147.5 72.3C1148.77 73.1 1152.53 73.7667 1158.8 74.3ZM1197.8 99.7C1195.93 99.7 1193.9 99.4667 1191.7 99C1189.63 98.4 1188.07 97.7333 1187 97C1181.2 93.3333 1178.3 83.2333 1178.3 66.7V63.2V59.2V56.1C1178.3 52.7 1178.33 49.6667 1178.4 47C1178.53 44.2 1178.73 41.2333 1179 38.1C1179.2 34.7 1179.57 31.9667 1180.1 29.9C1180.63 27.7667 1181.5 25.3667 1182.7 22.7C1183.7 20.2333 1184.93 18.3 1186.4 16.9C1188 15.5667 1190 14.4 1192.4 13.4C1194.53 12.4667 1197.2 12 1200.4 12C1201.67 12 1202.63 12.3 1203.3 12.9C1204.03 13.5 1204.4 14.2667 1204.4 15.2C1204.4 16.0667 1204.1 16.8667 1203.5 17.6C1202.97 18.2667 1202.3 18.6333 1201.5 18.7H1195.5C1193.77 18.7 1192.27 19.7667 1191 21.9C1189.67 24.1 1188.73 26.9 1188.2 30.3C1187.13 36.7 1186.6 41.8667 1186.6 45.8V46.5L1186.3 58.8C1186.1 62.5333 1186 66.7333 1186 71.4C1186 74.6667 1186.13 77.3333 1186.4 79.4C1186.87 82.4667 1187.6 85.0333 1188.6 87.1C1189.67 89.4333 1191.43 91.1 1193.9 92.1C1195.23 92.6333 1196.67 92.9 1198.2 92.9C1199.13 92.9 1200.07 92.5667 1201 91.9C1202.13 91.9 1203.03 92.1333 1203.7 92.6C1204.5 93.0667 1204.9 93.7667 1204.9 94.7C1204.9 98.0333 1202.53 99.7 1197.8 99.7ZM1226 97.5L1223.7 95.9L1223.6 90.8C1223.53 89.3333 1223.5 87.7 1223.5 85.9L1223.6 81.5C1223.33 80.5667 1222.7 71.1667 1221.7 53.3C1220.63 35.4333 1220 23.9667 1219.8 18.9C1214.87 18.7 1211.7 18.1667 1210.3 17.3C1209.37 16.6333 1208.9 15.8667 1208.9 15C1208.9 14.3333 1209.33 13.7333 1210.2 13.2C1211.13 12.6 1212.07 12.3 1213 12.3C1215.4 12.3 1218.33 12.4667 1221.8 12.8C1225.07 13.2 1228 13.4 1230.6 13.4H1231.6H1232.6C1235.27 13.4 1236.6 14.4333 1236.6 16.5C1236.6 17.5667 1236.17 18.4333 1235.3 19.1C1234.43 19.7 1233.47 20 1232.4 20C1231.6 20 1230.47 19.8667 1229 19.6L1226.4 19.1L1226.3 19.8L1226.2 20.4C1226.2 28.0667 1226.93 40.2667 1228.4 57C1229.73 72.7333 1230.4 84.9667 1230.4 93.7C1230.4 94.7 1229.93 95.6 1229 96.4C1228.13 97.1333 1227.13 97.5 1226 97.5V97.5ZM1251.8 99.7C1250.27 99.4333 1248.93 98.9 1247.8 98.1C1246.8 97.2333 1246.2 96.1 1246 94.7L1247.5 92.5C1247.97 92.5 1248.77 92.6667 1249.9 93C1251.17 93.2667 1252.17 93.4 1252.9 93.4C1254.43 93.4 1255.8 92.7333 1257 91.4C1258.27 90 1259.2 88.1667 1259.8 85.9C1260.93 81.7667 1261.5 78.0667 1261.5 74.8C1261.5 69.1333 1259.7 63.1667 1256.1 56.9L1254.7 54.5C1253.03 51.6333 1251.63 49.0667 1250.5 46.8C1249.43 44.6 1248.5 42.2 1247.7 39.6C1246.7 36.2667 1246.2 32.9333 1246.2 29.6C1246.2 25.8 1247.03 21.8333 1248.7 17.7C1249.57 15.7 1250.8 14.1 1252.4 12.9C1254 11.6333 1255.8 11 1257.8 11C1259.33 11 1260.73 11.5 1262 12.5C1263.4 13.5 1264.1 14.6667 1264.1 16C1264.1 16.8 1263.8 17.4 1263.2 17.8C1262.6 18.2667 1261.87 18.5 1261 18.5C1260.07 18.5 1259.17 18.2333 1258.3 17.7C1256.43 17.7667 1254.93 19.4333 1253.8 22.7C1252.87 25.7 1252.4 28.2 1252.4 30.2C1252.4 32.6667 1252.77 35.2 1253.5 37.8C1254.3 40.3333 1255.3 42.6333 1256.5 44.7L1259.3 49.8L1263.8 58.3C1265 60.7 1265.97 63.5 1266.7 66.7C1267.43 69.9 1267.8 73.1333 1267.8 76.4C1267.8 81.6667 1266.6 86.6667 1264.2 91.4C1263 93.8 1261.3 95.7333 1259.1 97.2C1256.9 98.6 1254.47 99.3 1251.8 99.3V99.7ZM1292 38.1C1290.87 38.1 1289.87 37.6333 1289 36.7C1288.13 35.7 1287.7 34.6 1287.7 33.4C1287.7 32.1333 1288.17 31 1289.1 30C1290.03 28.9333 1291.17 28.4 1292.5 28.4C1293.7 28.4 1294.77 28.9333 1295.7 30C1296.63 31 1297.1 32.1 1297.1 33.3C1297.1 34.7 1296.6 35.8667 1295.6 36.8C1294.67 37.6667 1293.47 38.1 1292 38.1V38.1ZM1290.7 86.8C1289.57 86.8 1288.57 86.3333 1287.7 85.4C1286.83 84.4667 1286.4 83.4 1286.4 82.2C1286.4 80.9333 1286.87 79.7667 1287.8 78.7C1288.73 77.7 1289.87 77.2 1291.2 77.2C1292.4 77.2 1293.43 77.7 1294.3 78.7C1295.23 79.6333 1295.7 80.7667 1295.7 82.1C1295.7 83.4333 1295.23 84.6 1294.3 85.6C1293.37 86.4 1292.17 86.8 1290.7 86.8V86.8Z" fill="#325949"/>
</svg>
