<svg width="45" height="25" viewBox="0 0 45 25" fill="none" xmlns="http://www.w3.org/2000/svg">
<path d="M2.15002 24.05C1.55002 24.05 1.25 23.3833 1.25 22.05C1.25 19.7167 1.11667 15.8833 0.850006 10.55C0.650006 5.28334 0.45 2.51667 0.25 2.25C0.25 1.65 0.483346 1.21667 0.950012 0.950005C1.15001 0.816671 1.38336 0.716668 1.65002 0.650002C1.98336 0.583335 2.25001 0.550003 2.45001 0.550003C2.58335 0.550003 2.85 0.550003 3.25 0.550003C3.71667 0.550003 4.05 0.616667 4.25 0.75C4.45 0.883333 4.55002 1.15 4.55002 1.55C4.55002 1.81667 4.48334 2.01667 4.35001 2.15C4.15001 2.21667 3.95 2.25 3.75 2.25H3.45001H2.95001C2.41668 2.25 2.15002 2.35 2.15002 2.55C2.15002 3.61667 2.21667 5.01667 2.35001 6.75C2.48334 8.21667 2.55002 9.61667 2.55002 10.95C2.68335 10.8833 2.95001 10.8167 3.35001 10.75C3.81667 10.6167 4.15001 10.55 4.35001 10.55C4.55001 10.55 4.75001 10.65 4.95001 10.85C5.08335 11.05 5.15002 11.2833 5.15002 11.55C5.15002 11.8167 5.01667 12.0167 4.75 12.15C4.68333 12.15 4.58335 12.2167 4.45001 12.35C4.31668 12.35 4.11667 12.3833 3.85001 12.45C3.65001 12.45 3.35001 12.4833 2.95001 12.55H2.55002C2.55002 13.75 2.65001 15.4167 2.85001 17.55C3.05001 19.8167 3.15002 21.5167 3.15002 22.65V22.75V22.85C3.15002 22.9167 3.15002 23.05 3.15002 23.25C3.15002 23.5167 3.05001 23.7167 2.85001 23.85C2.65001 23.9833 2.41669 24.05 2.15002 24.05V24.05ZM14.85 24.05C14.5167 24.05 14.25 23.9833 14.05 23.85C13.9167 23.7167 13.85 23.5167 13.85 23.25V19.15C13.5833 19.0167 13.0833 18.85 12.35 18.65C11.6167 18.5167 10.9167 18.45 10.25 18.45C9.98333 18.85 9.81667 19.35 9.75 19.95L9.65002 20.65C9.58336 20.7833 9.51668 21.0833 9.45001 21.55C9.31668 22.0833 9.18335 22.5167 9.05002 22.85C8.98335 23.1833 8.88333 23.4833 8.75 23.75C7.95 23.75 7.48334 23.5167 7.35001 23.05C7.55001 22.7167 7.81669 21.75 8.15002 20.15L9.15002 14.55C9.61669 11.8167 10.0167 9.51667 10.35 7.65C10.75 5.71667 11.1834 4.11667 11.65 2.85001C12.1167 1.45001 12.55 0.75 12.95 0.75C13.4167 0.75 13.75 0.816671 13.95 0.950005C13.95 1.75 14.15 3.75 14.55 6.95C14.95 10.0167 15.15 12.1167 15.15 13.25C15.15 14.3833 15.2834 15.9833 15.55 18.05C15.75 20.1167 15.85 21.75 15.85 22.95C15.85 23.6833 15.5167 24.05 14.85 24.05V24.05ZM13.25 17.35C13.3833 17.35 13.5833 17.3167 13.85 17.25C13.7833 16.3833 13.6834 15.2833 13.55 13.95C13.0834 9.28334 12.85 6.41667 12.85 5.35001V5.05C12.5833 5.25 12.2833 6.18334 11.95 7.85001C11.6167 9.51667 11.2833 11.3167 10.95 13.25C10.6167 15.1167 10.45 16.3833 10.45 17.05C11.3167 17.25 12.25 17.35 13.25 17.35V17.35ZM23.85 24.55C23.25 24.55 22.7167 24.4167 22.25 24.15C21.7167 23.8833 21.2833 23.5167 20.95 23.05C20.6167 22.65 20.35 22.1167 20.15 21.45C19.8834 20.7167 19.6834 20.0167 19.55 19.35C19.2834 18.0833 19.1167 16.4833 19.05 14.55C19.05 14.0167 19.05 13.1833 19.05 12.05V10.05C19.05 9.51667 19.05 8.95001 19.05 8.35001C19.05 7.15001 19.1167 6.18334 19.25 5.45C19.1833 5.18334 19.15 4.88334 19.15 4.55C19.15 3.28334 19.6167 2.28334 20.55 1.55C21.4834 0.750003 22.6834 0.350006 24.15 0.350006C24.6834 0.350006 25.1834 0.483333 25.65 0.75C26.05 1.08333 26.25 1.45001 26.25 1.85001C26.25 2.05001 26.1834 2.21667 26.05 2.35001C25.85 2.48334 25.65 2.55 25.45 2.55C25.25 2.55 25.0167 2.51667 24.75 2.45C24.55 2.38334 24.4167 2.28333 24.35 2.15H23.95C23.15 2.15 22.4833 2.31667 21.95 2.65C21.6167 2.91667 21.35 3.35 21.15 3.95C21.0167 4.21667 20.95 4.51667 20.95 4.85001C20.8833 5.18334 20.85 5.48333 20.85 5.75C20.85 5.95 20.85 6.28333 20.85 6.75V7.85001L20.95 8.95C20.95 9.21667 20.9167 9.58334 20.85 10.05C20.7167 10.5167 20.65 10.85 20.65 11.05V11.85C20.65 12.65 20.6833 13.75 20.75 15.15C20.75 16.35 20.8834 17.5167 21.15 18.65C21.35 19.7833 21.7167 20.7167 22.25 21.45C22.7167 22.25 23.3833 22.65 24.25 22.65C24.5833 22.65 25.0167 22.45 25.55 22.05C26.0834 21.7167 26.45 21.55 26.65 21.55C26.9834 21.55 27.2834 21.7167 27.55 22.05C27.55 22.7833 27.2833 23.35 26.75 23.75C26.2167 24.15 25.5833 24.3833 24.85 24.45C24.3833 24.5167 24.05 24.55 23.85 24.55ZM32.35 24.25C32.0167 24.25 31.75 24.1167 31.55 23.85C31.4167 23.5167 31.35 23.15 31.35 22.75C31.35 22.0167 31.3833 21.1833 31.45 20.25L31.55 19.45V17.75C31.55 17.0167 31.4833 15.4167 31.35 12.95C31.2167 10.4167 31.15 8.78334 31.15 8.05C31.15 7.98334 31.15 7.88333 31.15 7.75C31.15 7.55 31.15 7.28334 31.15 6.95C31.15 6.48334 31.15 5.95001 31.15 5.35001C31.15 3.88334 31.05 2.95 30.85 2.55C30.7167 2.55 30.45 2.55 30.05 2.55L29.25 2.65C28.9833 2.65 28.7167 2.58334 28.45 2.45C28.25 2.25 28.15 2.05001 28.15 1.85001C28.15 1.58334 28.4167 1.35 28.95 1.15C29.6833 0.883335 30.9167 0.716668 32.65 0.650002C33.3167 0.583335 33.7167 0.550003 33.85 0.550003C34.1167 0.550003 34.35 0.650006 34.55 0.850006C34.75 0.983339 34.85 1.18334 34.85 1.45C34.85 1.71667 34.7834 1.91667 34.65 2.05C34.45 2.18334 34.2167 2.25 33.95 2.25H33.35C33.2167 2.25 33.05 2.25 32.85 2.25H32.55C32.6834 3.65 32.75 4.91667 32.75 6.05V8.05C32.6833 8.65 32.65 9.31667 32.65 10.05C32.65 11.05 32.7167 12.25 32.85 13.65C32.9167 15.3167 32.95 16.4833 32.95 17.15C32.95 17.95 32.9834 18.8833 33.05 19.95C33.1834 21.0833 33.25 22.0167 33.25 22.75C33.25 23.75 32.95 24.25 32.35 24.25V24.25ZM39.85 24.75C39.1167 24.75 38.4833 24.6167 37.95 24.35C37.6167 24.15 37.45 23.9167 37.45 23.65C37.45 23.45 37.5167 23.25 37.65 23.05C37.7834 22.9167 37.95 22.85 38.15 22.85C38.35 22.85 38.65 22.9167 39.05 23.05C39.5167 23.25 39.7833 23.35 39.85 23.35C40.25 23.35 40.6167 23.1833 40.95 22.85C41.2833 22.5167 41.5167 22.05 41.65 21.45C42.05 20.45 42.25 19.5167 42.25 18.65C42.25 17.7833 42.1167 16.85 41.85 15.85C41.5833 14.9167 41.2167 13.9833 40.75 13.05L40.25 12.05C39.7167 10.9833 39.3167 10.15 39.05 9.55C38.7167 8.95 38.45 8.31667 38.25 7.65C37.9833 6.65 37.85 5.68333 37.85 4.75C37.85 4.01667 37.95 3.31667 38.15 2.65C38.4167 1.98333 38.8167 1.41667 39.35 0.950005C39.8833 0.483338 40.5167 0.25 41.25 0.25C41.65 0.25 42.0167 0.350003 42.35 0.550003C42.75 0.750003 43.0167 1.01667 43.15 1.35001L42.55 2.05C42.0167 2.05 41.6167 1.91667 41.35 1.65C41.0167 1.71667 40.6833 1.91667 40.35 2.25C40.0833 2.58333 39.8833 2.95001 39.75 3.35001C39.6167 3.75001 39.55 4.15 39.55 4.55C39.55 5.28334 39.6833 6.08334 39.95 6.95C40.15 7.75 40.4167 8.51667 40.75 9.25L42.95 13.55C43.2833 14.2833 43.55 15.1167 43.75 16.05C43.95 16.9833 44.05 17.9167 44.05 18.85C44.05 20.25 43.7167 21.55 43.05 22.75C42.7167 23.35 42.2833 23.85 41.75 24.25C41.15 24.5833 40.5167 24.75 39.85 24.75V24.75Z" fill="white"/>
</svg>
