<svg width="276" height="192" viewBox="0 0 276 192" fill="none" xmlns="http://www.w3.org/2000/svg">
<g clip-path="url(#clip0_51_4338)">
<g clip-path="url(#clip1_51_4338)">
<path d="M137.993 151.547C169.398 151.547 194.856 126.485 194.856 95.5702C194.856 64.655 169.398 39.5933 137.993 39.5933C106.588 39.5933 81.1289 64.655 81.1289 95.5702C81.1289 126.485 106.588 151.547 137.993 151.547Z" fill="#359A8B"/>
<g clip-path="url(#clip2_51_4338)">
<path d="M138.375 68.7757C139.139 68.7757 139.759 68.1654 139.759 67.4127C139.759 66.66 139.139 66.0498 138.375 66.0498C137.61 66.0498 136.99 66.66 136.99 67.4127C136.99 68.1654 137.61 68.7757 138.375 68.7757Z" fill="#C9EFC7"/>
<path d="M117.787 85.7463L121.824 80.9014C122.166 80.4925 122.104 79.8889 121.69 79.5541C121.275 79.2185 120.661 79.2789 120.321 79.6865L115.724 85.2024C115.407 85.5827 115.435 86.1389 115.789 86.4868L120.795 91.4134C120.985 91.601 121.234 91.6945 121.482 91.6945C121.731 91.6945 121.98 91.601 122.17 91.4134C122.549 91.0396 122.549 90.4334 122.17 90.0596L117.787 85.7463Z" fill="#C9EFC7"/>
<path d="M134.815 84.5436L129.809 79.6163C129.429 79.2425 128.814 79.2425 128.433 79.6163C128.053 79.9908 128.053 80.597 128.433 80.9708L132.816 85.2841L128.779 90.129C128.439 90.5379 128.499 91.1414 128.915 91.477C129.095 91.623 129.313 91.6938 129.531 91.6938C129.812 91.6938 130.092 91.5737 130.284 91.3433L134.879 85.8273C135.196 85.447 135.169 84.8915 134.815 84.5436Z" fill="#C9EFC7"/>
<path d="M164.136 63.1274H111.963C108.705 63.1274 105.744 65.7365 105.744 68.9426V105.033C105.744 108.24 108.705 111.154 111.963 111.154H132.585C132.689 112.452 132.79 116.52 132.372 117.884C131.605 119.006 123.478 121.366 116.44 122.981C116.003 123.082 115.634 123.391 115.634 123.834V127.074C115.634 127.601 116.184 128.029 116.719 128.029H159.38C159.916 128.029 160.465 127.601 160.465 127.074V123.834C160.465 123.39 160.097 123.005 159.658 122.903C152.582 121.29 144.44 119.004 143.702 117.955C143.255 116.526 143.274 112.452 143.35 111.154H164.136C167.393 111.154 170.355 108.24 170.355 105.033V68.9426C170.355 65.7365 167.393 63.1274 164.136 63.1274ZM158.488 124.591V126.081H117.611V124.59C124.864 122.878 133.498 120.617 134.156 118.514C134.729 116.679 134.619 112.452 134.527 111.154H141.409C141.34 112.452 141.285 116.68 141.858 118.516C142.515 120.619 151.235 122.878 158.488 124.591ZM168.377 105.3C168.377 107.459 165.941 109.207 163.749 109.207H111.691C109.499 109.207 107.722 107.459 107.722 105.3V68.9809C107.722 66.8236 109.499 65.0745 111.691 65.0745H163.749C165.941 65.0745 168.377 66.8236 168.377 68.9809V105.3Z" fill="#C9EFC7"/>
<path d="M164.111 70.9155H111.988C111.453 70.9155 111.019 71.3432 111.019 71.8702V100.464C111.019 100.992 111.453 101.419 111.988 101.419H164.111C164.647 101.419 165.081 100.992 165.081 100.464V71.8702C165.081 71.3432 164.647 70.9155 164.111 70.9155ZM112.996 72.8626H137.39V99.472H112.996V72.8626ZM163.103 99.472H139.368V72.8626H163.103V99.472Z" fill="#C9EFC7"/>
<path d="M141.675 86.4919H160.795C161.341 86.4919 161.784 86.0564 161.784 85.5183V75.1342C161.784 74.5961 161.341 74.1606 160.795 74.1606H141.675C141.13 74.1606 140.687 74.5961 140.687 75.1342V85.5183C140.687 86.0564 141.13 86.4919 141.675 86.4919ZM142.664 76.1077H159.806V84.5448H142.664V76.1077Z" fill="#C9EFC7"/>
<path d="M160.465 88.439H142.005C141.459 88.439 141.016 88.8745 141.016 89.4125C141.016 89.9505 141.459 90.386 142.005 90.386H160.465C161.011 90.386 161.454 89.9505 161.454 89.4125C161.454 88.8745 161.011 88.439 160.465 88.439Z" fill="#C9EFC7"/>
<path d="M160.465 92.333H142.005C141.459 92.333 141.016 92.7685 141.016 93.3065C141.016 93.8446 141.459 94.28 142.005 94.28H160.465C161.011 94.28 161.454 93.8446 161.454 93.3065C161.454 92.7685 161.011 92.333 160.465 92.333Z" fill="#C9EFC7"/>
<path d="M160.465 96.2271H142.005C141.459 96.2271 141.016 96.6632 141.016 97.2006C141.016 97.7379 141.459 98.1741 142.005 98.1741H160.465C161.011 98.1741 161.454 97.7379 161.454 97.2006C161.454 96.6632 161.011 96.2271 160.465 96.2271Z" fill="#C9EFC7"/>
</g>
</g>
<path d="M60.7454 73.1658L59.8495 75.6697L41.3057 69.2399L42.0338 67.2063L59.4507 63.1978L45.232 58.2677L46.1183 55.7904L64.6621 62.2195L63.9437 64.2279L46.5267 68.2357L60.7454 73.1658ZM85.1864 37.2204C84.2294 38.0614 83.3071 38.7085 82.4195 39.1625C81.5284 39.6124 80.6158 39.8028 79.6817 39.7352C78.7511 39.6636 77.7269 39.2512 76.6097 38.4976C75.4925 37.7371 74.2235 36.5732 72.8012 35.0066C71.3824 33.4433 70.3498 32.0705 69.7049 30.8895C69.0628 29.7051 68.7507 28.6382 68.7688 27.69C68.793 26.7418 69.0773 25.8584 69.6217 25.0399C70.1654 24.2214 70.9157 23.3913 71.8727 22.5503C72.8532 21.6875 73.7908 21.0328 74.6854 20.5863C75.5792 20.1399 76.4994 19.9645 77.4453 20.0593C78.3947 20.1576 79.4293 20.5884 80.5493 21.3523C81.6692 22.1162 82.9382 23.2794 84.3577 24.8433C85.7793 26.41 86.8119 27.7828 87.454 28.9604C88.0927 30.1345 88.3944 31.1824 88.3583 32.1039C88.3216 33.0262 88.0268 33.8973 87.4728 34.7185C86.9152 35.5356 86.1531 36.3698 85.1864 37.2204ZM83.5859 35.4571C84.2738 34.853 84.7946 34.2645 85.149 33.6938C85.5033 33.1225 85.6545 32.5142 85.6018 31.8684C85.5526 31.2192 85.2655 30.4738 84.7398 29.6321C84.2149 28.7904 83.4188 27.7821 82.3523 26.6066C81.2295 25.3696 80.2594 24.4399 79.4432 23.8166C78.627 23.1941 77.9002 22.8227 77.2643 22.7025C76.6312 22.579 76.0133 22.6657 75.4093 22.962C74.806 23.2582 74.1597 23.7088 73.4725 24.3136C72.8227 24.8843 72.3186 25.4454 71.9587 25.9963C71.5988 26.5479 71.4386 27.1459 71.4781 27.791C71.5142 28.4388 71.795 29.202 72.322 30.0799C72.8449 30.9605 73.6681 32.0193 74.7908 33.2569C75.8573 34.4318 76.7824 35.3267 77.566 35.9411C78.3503 36.5562 79.0666 36.9234 79.7164 37.0443C80.362 37.1685 80.9931 37.0893 81.6096 36.8067C82.2219 36.5275 82.8814 36.0776 83.5866 35.4578L83.5859 35.4571ZM120.174 19.7658C119.039 20.0464 118.015 20.1638 117.101 20.1194C116.191 20.073 115.367 19.7849 114.629 19.2552C113.89 18.7248 113.221 17.8619 112.621 16.6652C112.022 15.4692 111.464 13.8609 110.949 11.841C110.463 9.93707 110.206 8.3308 110.176 7.02217C110.141 5.71013 110.325 4.63564 110.729 3.7994C111.128 2.95975 111.724 2.2969 112.517 1.81085C113.31 1.32481 114.276 0.941162 115.416 0.65923C116.052 0.502221 116.718 0.373201 117.416 0.271487C118.115 0.175234 118.794 0.102191 119.453 0.0530401C120.113 0.00935081 120.709 -0.00771534 121.243 0.003207L121.737 1.94056C121.411 1.96854 120.975 2.01701 120.427 2.08596C119.877 2.16037 119.26 2.26003 118.579 2.38632C117.891 2.50852 117.185 2.65938 116.464 2.83755C115.601 3.05122 114.893 3.33042 114.339 3.67652C113.785 4.02263 113.384 4.49911 113.134 5.10735C112.889 5.719 112.801 6.5177 112.869 7.50344C112.937 8.48918 113.161 9.72818 113.542 11.2211C113.928 12.7318 114.324 13.9476 114.733 14.8678C115.141 15.788 115.593 16.4632 116.089 16.8912C116.584 17.3158 117.157 17.5513 117.812 17.5991C118.466 17.6462 119.239 17.5595 120.134 17.3383C121.428 17.0182 122.479 16.7226 123.289 16.4516C124.101 16.1744 124.758 15.9389 125.258 15.7437L125.759 17.7076C125.271 17.952 124.73 18.2025 124.134 18.4592C123.538 18.7152 122.906 18.9528 122.237 19.1699C121.57 19.3917 120.882 19.5904 120.174 19.7658ZM157.856 20.3829C156.608 20.0942 155.54 19.7221 154.653 19.2668C153.768 18.8067 153.085 18.18 152.606 17.3881C152.131 16.597 151.886 15.5341 151.872 14.2009C151.864 12.8643 152.104 11.1733 152.591 9.12745C153.078 7.08634 153.627 5.4671 154.24 4.26906C154.857 3.0717 155.566 2.20815 156.365 1.67842C157.168 1.15415 158.066 0.876311 159.059 0.844909C160.052 0.81419 161.173 0.94321 162.422 1.23129C163.702 1.52756 164.785 1.90779 165.669 2.37199C166.554 2.83687 167.228 3.47787 167.692 4.295C168.155 5.11622 168.39 6.19822 168.397 7.53893C168.404 8.88033 168.164 10.5712 167.678 12.6124C167.191 14.6582 166.641 16.2782 166.029 17.4714C165.419 18.6606 164.72 19.505 163.933 20.0047C163.145 20.5044 162.251 20.7666 161.25 20.7905C160.25 20.8103 159.119 20.6744 157.856 20.3829ZM158.405 18.0817C159.303 18.2892 160.09 18.3718 160.769 18.3295C161.448 18.2872 162.041 18.0599 162.547 17.6469C163.059 17.2352 163.514 16.5758 163.914 15.6692C164.312 14.7627 164.694 13.5421 165.06 12.0082C165.445 10.3931 165.662 9.07762 165.712 8.06184C165.762 7.04606 165.654 6.24737 165.389 5.66575C165.128 5.08482 164.702 4.63564 164.109 4.31889C163.516 4.00215 162.771 3.74001 161.873 3.53317C161.025 3.33725 160.269 3.2526 159.604 3.27854C158.939 3.30448 158.35 3.51883 157.835 3.92091C157.317 4.32162 156.844 4.98584 156.415 5.91424C155.983 6.84127 155.574 8.11236 155.189 9.7275C154.824 11.2621 154.609 12.5216 154.548 13.5059C154.487 14.4903 154.592 15.2788 154.864 15.872C155.132 16.4638 155.559 16.9274 156.148 17.2619C156.732 17.5957 157.484 17.8687 158.405 18.0817ZM193.536 39.4123L187.576 34.2365L200.581 19.7221L206.542 24.8979C207.465 25.6994 208.092 26.5356 208.423 27.4067C208.757 28.2804 208.839 29.1966 208.667 30.1536C208.493 31.1148 208.091 32.1203 207.461 33.1709C206.828 34.2188 205.999 35.3151 204.974 36.4585C203.587 38.0068 202.226 39.1605 200.892 39.9182C199.564 40.6759 198.279 41.02 197.037 40.9497C195.799 40.8753 194.632 40.3633 193.536 39.4123ZM201.014 23.2507L191.186 34.2195L194.946 37.4839C195.68 38.1208 196.469 38.4164 197.315 38.3713C198.165 38.3283 199.064 37.987 200.012 37.348C200.96 36.7145 201.939 35.8332 202.953 34.7028C203.881 33.6665 204.6 32.7456 205.109 31.9401C205.622 31.1319 205.942 30.4048 206.07 29.7604C206.198 29.1092 206.147 28.5214 205.918 27.9971C205.689 27.4722 205.308 26.9786 204.774 26.5151L201.014 23.2507ZM213.605 68.9873C213.445 68.5791 213.314 68.1326 213.209 67.6486C213.105 67.1646 213.092 66.669 213.169 66.1605C213.246 65.6526 213.481 65.1727 213.877 64.7214C214.273 64.2702 214.894 63.8838 215.741 63.563L226.644 59.4282C227.373 59.151 228.031 59.0302 228.616 59.065C229.2 59.0958 229.709 59.2357 230.143 59.4862C230.571 59.7333 230.936 60.059 231.24 60.4624C231.537 60.8631 231.773 61.285 231.946 61.728C232.344 62.7971 232.706 63.7808 233.033 64.6791C233.355 65.5788 233.649 66.4185 233.913 67.1967C234.184 67.9783 234.438 68.7258 234.678 69.4399L232.614 70.2229L229.891 63.2633C229.655 62.6612 229.31 62.2489 228.857 62.0257C228.407 61.8011 227.844 61.8168 227.167 62.0735L223.354 63.52L226.253 71.3684L224.313 72.1043L221.093 64.3774L217.333 65.8034C216.769 66.0171 216.383 66.2724 216.173 66.5694C215.965 66.8602 215.872 67.1776 215.89 67.521C215.908 67.8602 215.984 68.2016 216.119 68.5456L218.822 75.4533L216.758 76.2363C216.411 75.5031 216.055 74.7297 215.691 73.9146C215.321 73.0968 214.961 72.2708 214.609 71.4366C214.255 70.6079 213.92 69.7914 213.605 68.9873H213.605ZM47.2479 127.687L46.3437 125.164L65.0352 118.67L65.7689 120.717L54.6728 134.71L69.0011 129.731L69.8963 132.228L51.2041 138.722L50.4774 136.695L61.5762 122.709L47.2479 127.687ZM75.4676 169.691C74.5071 168.847 73.7457 168.012 73.1847 167.185C72.6195 166.362 72.3207 165.484 72.2867 164.553C72.2534 163.628 72.5585 162.571 73.2027 161.383C73.8442 160.198 74.8816 158.815 76.315 157.234C77.7491 155.653 79.0306 154.478 80.1602 153.71C81.2892 152.942 82.337 152.512 83.303 152.423C84.2697 152.339 85.2003 152.521 86.0949 152.967C86.9922 153.409 87.9207 154.052 88.8812 154.896C89.8735 155.768 90.6467 156.621 91.2022 157.454C91.757 158.281 92.0406 159.167 92.0517 160.109C92.06 161.055 91.7403 162.124 91.0926 163.315C90.4456 164.507 89.4047 165.894 87.9707 167.475C86.5373 169.056 85.2585 170.228 84.1358 170.989C83.0097 171.753 81.9757 172.17 81.0347 172.239C80.0943 172.315 79.1769 172.123 78.2816 171.663C77.3836 171.208 76.4454 170.551 75.4676 169.691ZM77.0806 167.912C77.7789 168.526 78.4363 168.974 79.0528 169.256C79.6727 169.541 80.3086 169.622 80.9612 169.497C81.6172 169.375 82.3439 169.007 83.14 168.391C83.934 167.778 84.8681 166.879 85.9437 165.694C87.0782 164.442 87.9152 163.38 88.4554 162.508C88.9949 161.636 89.2931 160.878 89.3486 160.236C89.3978 159.594 89.2369 158.992 88.8666 158.432C88.4998 157.875 87.9672 157.289 87.2682 156.676C86.6156 156.102 85.9888 155.668 85.3882 155.375C84.7877 155.083 84.1608 154.992 83.5076 155.104C82.8515 155.219 82.1068 155.584 81.2732 156.198C80.4404 156.812 79.4564 157.746 78.3219 158.997C77.2463 160.183 76.4412 161.196 75.9058 162.035C75.3677 162.878 75.0744 163.627 75.0258 164.282C74.9745 164.935 75.1271 165.548 75.4856 166.122C75.84 166.692 76.3719 167.289 77.0806 167.912ZM116.636 190.352C115.486 190.068 114.52 189.694 113.736 189.23C112.949 188.76 112.355 188.116 111.955 187.3C111.552 186.478 111.374 185.396 111.422 184.054C111.469 182.712 111.754 181.022 112.273 178.984C112.762 177.066 113.309 175.518 113.914 174.337C114.518 173.16 115.2 172.293 115.96 171.735C116.724 171.178 117.576 170.868 118.513 170.805C119.455 170.748 120.499 170.861 121.649 171.145C122.289 171.304 122.945 171.501 123.618 171.738C124.286 171.979 124.923 172.235 125.53 172.503C126.138 172.767 126.677 173.031 127.146 173.294L126.648 175.245C126.347 175.119 125.935 174.957 125.411 174.761C124.885 174.569 124.289 174.368 123.624 174.156C122.954 173.947 122.255 173.754 121.529 173.574C120.657 173.359 119.892 173.274 119.233 173.321C118.574 173.367 117.988 173.604 117.473 174.033C116.955 174.461 116.488 175.127 116.073 176.032C115.658 176.941 115.258 178.149 114.875 179.655C114.486 181.179 114.25 182.444 114.168 183.45C114.085 184.455 114.161 185.266 114.395 185.879C114.625 186.492 115.019 186.972 115.577 187.318C116.136 187.666 116.869 187.951 117.777 188.176C119.08 188.497 120.158 188.728 121.01 188.867C121.863 189.007 122.559 189.106 123.099 189.163L122.595 191.141C122.042 191.132 121.439 191.102 120.787 191.05C120.134 190.998 119.459 190.912 118.76 190.792C118.056 190.675 117.348 190.528 116.636 190.352ZM161.185 189.784C159.932 190.073 158.8 190.206 157.79 190.184C156.781 190.166 155.879 189.903 155.085 189.395C154.297 188.891 153.593 188.038 152.976 186.836C152.358 185.639 151.804 184.008 151.313 181.945C150.822 179.881 150.581 178.174 150.591 176.822C150.601 175.471 150.847 174.38 151.327 173.55C151.813 172.724 152.498 172.078 153.383 171.614C154.266 171.145 155.335 170.766 156.588 170.476C157.883 170.178 159.036 170.044 160.048 170.076C161.054 170.104 161.953 170.384 162.743 170.916C163.535 171.453 164.239 172.324 164.859 173.53C165.477 174.737 166.033 176.372 166.524 178.435C167.015 180.499 167.255 182.202 167.243 183.544C167.232 184.891 166.985 185.963 166.502 186.761C166.024 187.562 165.337 188.192 164.441 188.649C163.547 189.111 162.461 189.489 161.185 189.784ZM160.632 187.462C161.543 187.252 162.294 186.979 162.882 186.645C163.475 186.309 163.907 185.843 164.179 185.245C164.454 184.647 164.565 183.85 164.511 182.854C164.458 181.863 164.247 180.594 163.878 179.046C163.49 177.413 163.088 176.128 162.672 175.192C162.258 174.256 161.798 173.581 161.296 173.167C160.79 172.758 160.198 172.543 159.519 172.519C158.845 172.495 158.052 172.588 157.141 172.798C156.288 172.995 155.568 173.251 154.98 173.567C154.392 173.882 153.956 174.335 153.673 174.926C153.392 175.52 153.268 176.33 153.3 177.355C153.332 178.379 153.543 179.708 153.932 181.341C154.3 182.889 154.679 184.119 155.07 185.032C155.462 185.95 155.916 186.617 156.433 187.032C156.946 187.449 157.544 187.678 158.226 187.719C158.905 187.761 159.707 187.675 160.632 187.462ZM202.993 167.307L196.983 172.52L183.879 157.879L189.89 152.666C190.818 151.861 191.746 151.351 192.675 151.135C193.604 150.918 194.546 150.953 195.499 151.237C196.452 151.528 197.422 152.054 198.408 152.814C199.394 153.568 200.403 154.52 201.432 155.671C202.831 157.234 203.833 158.718 204.435 160.124C205.041 161.533 205.227 162.842 204.993 164.052C204.763 165.265 204.097 166.35 202.993 167.307ZM187.514 157.905L197.415 168.967L201.213 165.672C201.951 165.033 202.351 164.292 202.416 163.45C202.476 162.612 202.242 161.685 201.713 160.669C201.188 159.657 200.415 158.58 199.394 157.44C198.46 156.395 197.615 155.571 196.861 154.966C196.104 154.364 195.406 153.956 194.766 153.743C194.126 153.536 193.524 153.512 192.96 153.67C192.399 153.831 191.85 154.144 191.312 154.61L187.514 157.905ZM227.142 132.357C226.98 132.769 226.772 133.191 226.516 133.623C226.262 134.054 225.93 134.435 225.52 134.763C225.114 135.093 224.609 135.293 224.004 135.364C223.399 135.436 222.67 135.31 221.819 134.985L210.829 130.806C210.09 130.526 209.513 130.18 209.097 129.77C208.687 129.357 208.405 128.913 208.249 128.44C208.1 127.963 208.053 127.476 208.108 126.978C208.158 126.478 208.271 126.005 208.447 125.558C208.884 124.495 209.291 123.52 209.669 122.636C210.043 121.746 210.4 120.921 210.738 120.16C211.077 119.401 211.4 118.672 211.71 117.974L213.792 118.766L211.039 125.781C210.8 126.391 210.772 126.929 210.956 127.394C211.138 127.863 211.572 128.229 212.257 128.489L216.096 129.949L219.331 122.146L221.289 122.891L218.374 130.816L222.167 132.258C222.735 132.474 223.198 132.539 223.558 132.454C223.916 132.372 224.204 132.2 224.423 131.937C224.643 131.671 224.822 131.363 224.958 131.015L227.691 124.052L229.774 124.843C229.529 125.62 229.261 126.437 228.97 127.294C228.685 128.149 228.389 129.005 228.083 129.862C227.771 130.721 227.457 131.552 227.142 132.357ZM47.2091 98.0619C47.2091 96.827 48.2264 95.8262 49.4809 95.8262C50.7353 95.8262 51.7526 96.827 51.7526 98.0619C51.7526 99.2968 50.7353 100.298 49.4809 100.298C48.2264 100.298 47.2091 99.2968 47.2091 98.0619ZM224.156 98.0619C224.156 96.827 225.172 95.8262 226.427 95.8262C227.681 95.8262 228.699 96.827 228.699 98.0619C228.699 99.2968 227.681 100.298 226.427 100.298C225.172 100.298 224.156 99.2968 224.156 98.0619Z" fill="#E6F0DE"/>
</g>
<defs>
<clipPath id="clip0_51_4338">
<rect width="274.277" height="191.141" fill="white" transform="translate(0.853516)"/>
</clipPath>
<clipPath id="clip1_51_4338">
<rect width="141.616" height="112.631" fill="white" transform="translate(67.1846 39.2549)"/>
</clipPath>
<clipPath id="clip2_51_4338">
<rect width="93.1297" height="64.9011" fill="white" transform="translate(91.4844 63.1274)"/>
</clipPath>
</defs>
</svg>
