<svg width="95" height="65" viewBox="0 0 95 65" fill="none" xmlns="http://www.w3.org/2000/svg">
<path d="M49.0189 56.1818C48.0359 54.1903 47.1274 52.2151 46.007 50.29C43.8091 50.902 41.5002 51.0948 39.2176 51.1666C36.4176 51.2557 32.4646 51.5195 30.0511 49.8762C29.4336 49.4561 29.5536 48.5067 30.2984 48.3094C32.9329 47.61 36.113 48.4903 38.843 48.4921C40.7772 48.494 42.7024 48.3012 44.6293 48.1748C44.402 47.8583 44.2037 47.5337 43.9546 47.2208C41.1519 43.707 37.99 40.4805 34.9626 37.1631C34.3915 36.5365 33.8232 35.9072 33.253 35.2816C30.6886 36.2192 27.3047 35.5508 24.8076 35.006C21.9831 34.3913 17.8236 33.411 16.1821 30.8047C15.8375 30.2582 16.3504 29.5825 16.9351 29.5861C19.796 29.6043 22.7779 31.6286 25.5978 32.2915C27.3602 32.7062 29.3172 32.7344 31.1796 32.999C27.7422 29.2188 24.3074 25.4366 20.8718 21.6545C20.0152 22.0538 18.7666 21.6518 17.8845 21.6173C16.7887 21.5727 15.1618 21.981 14.2006 21.3544C13.9423 21.1862 13.7977 20.7924 13.9942 20.5178C14.7981 19.3947 16.7059 19.492 17.9372 19.6112C18.2773 19.6439 18.7111 19.6848 19.1531 19.7621C17.6753 18.1361 16.1994 16.5084 14.7199 14.8833C14.2024 14.3149 15.0445 13.521 15.5856 14.0639C16.6405 15.1225 17.699 16.1764 18.7557 17.234C19.104 16.5547 19.3304 15.8118 19.3531 15.0461C19.3731 14.3968 19.1476 13.7284 19.335 13.0964C19.4141 12.8272 19.7478 12.6835 19.9924 12.8399C21.652 13.9012 20.5935 16.7866 19.5214 17.8697C19.4932 17.8979 19.4614 17.8897 19.4313 17.9097C21.4693 19.9467 23.5045 21.9855 25.5433 24.0198C25.6315 22.9895 26.1071 21.8337 26.1826 20.9534C26.2562 20.0922 26.2744 19.2192 26.1944 18.3589C26.1253 17.6005 25.9498 16.8503 26.2453 16.1219C26.459 15.5917 27.0356 15.438 27.4693 15.8254C28.5579 16.7966 28.4824 18.8891 28.4187 20.2314C28.3796 21.0334 28.2478 21.8464 28.0704 22.6285C27.9877 22.9977 27.4612 24.098 27.4339 24.63C27.4675 24.6773 27.4984 24.7282 27.4975 24.7983C27.4966 25.0902 27.4521 25.152 27.3093 25.4248C27.2647 25.5094 27.1911 25.5485 27.1292 25.6058C31.3933 29.8653 35.6538 34.1285 39.8924 38.4126C40.3516 38.8764 40.8536 39.3674 41.3719 39.8712C42.4677 37.6296 43.1634 35.2061 43.1789 32.6999C43.1871 31.4194 43.017 30.1636 42.6969 28.9241C42.415 27.8401 41.8757 26.8644 41.9521 25.7295C41.9858 25.2466 42.5296 24.8847 42.9706 25.172C45.1222 26.5806 45.3668 30.4173 45.2995 32.7562C45.2141 35.7481 44.2801 38.5572 42.445 40.9106C45.154 43.5351 48.2623 46.6097 50.3466 49.9562C50.463 49.2151 50.593 48.484 50.7313 47.7746C52.4509 38.9537 52.0999 31.4476 46.7755 23.8971C41.6229 16.5902 33.5995 11.906 25.2914 9.00416C18.3919 6.5943 10.9568 5.70675 4.06738 3.30963C5.99981 7.34363 5.87977 12.9209 6.07893 16.9721C6.47633 25.052 7.3075 33.2773 10.9805 40.6215C14.7417 48.142 20.9937 53.4337 29.2126 55.3061C35.7974 56.8057 42.3877 55.9236 49.0189 56.1818Z" fill="#ACCE3D"/>
<path d="M10.9796 40.6213C7.30661 33.2772 6.47544 25.0518 6.07804 16.972C5.87889 12.9207 5.99892 7.34348 4.06649 3.31039C10.956 5.7066 18.391 6.59415 25.2905 9.004C33.5995 11.9067 41.622 16.59 46.7746 23.8969C52.099 31.4484 52.45 38.9544 50.7304 47.7745C50.5922 48.4838 50.4621 49.2149 50.3466 49.9561C48.2614 46.6096 45.1532 43.5359 42.4441 40.9105C44.2792 38.557 45.2132 35.7479 45.2987 32.757C45.3659 30.4181 45.1213 26.5805 42.9697 25.1728C42.5287 24.8854 41.9849 25.2464 41.9521 25.7302C41.8748 26.8651 42.4141 27.8409 42.696 28.9249C43.0161 30.1634 43.1871 31.4193 43.178 32.6997C43.1625 35.206 42.4668 37.6294 41.371 39.8711C40.8527 39.3673 40.3507 38.8771 39.8915 38.4124C35.6529 34.1283 31.3924 29.8652 27.1284 25.6065C27.1902 25.5483 27.2638 25.5101 27.3084 25.4256C27.4512 25.1519 27.4957 25.09 27.4976 24.799C27.4976 24.7281 27.4666 24.6772 27.433 24.6299C27.4603 24.0988 27.9868 22.9975 28.0696 22.6283C28.2469 21.8463 28.3787 21.0333 28.4179 20.2312C28.4815 18.889 28.5579 16.7965 27.4685 15.8253C27.0347 15.4379 26.4581 15.5916 26.2444 16.1217C25.9489 16.8501 26.1244 17.6004 26.1935 18.3597C26.2735 19.2191 26.2553 20.093 26.1817 20.9533C26.1062 21.8344 25.6306 22.9894 25.5424 24.0206C23.5036 21.9854 21.4684 19.9475 19.4305 17.9096C19.4605 17.8896 19.4923 17.8986 19.5205 17.8695C20.5926 16.7865 21.6512 13.901 19.9915 12.8398C19.7478 12.6843 19.4132 12.827 19.3341 13.0962C19.1467 13.7291 19.3723 14.3975 19.3532 15.0459C19.3295 15.8125 19.1031 16.5546 18.7548 17.2339C17.6981 16.1772 16.6396 15.1223 15.5847 14.0638C15.0436 13.5209 14.2015 14.3157 14.719 14.8841C16.1985 16.5082 17.6744 18.136 19.1522 19.7629C18.7102 19.6856 18.2765 19.6447 17.9363 19.611C16.705 19.4928 14.7972 19.3946 13.9933 20.5186C13.7969 20.7923 13.9414 21.1861 14.1997 21.3543C15.1609 21.9808 16.7878 21.5725 17.8836 21.6171C18.7666 21.6526 20.0143 22.0545 20.8709 21.6544C24.3065 25.4374 27.7413 29.2186 31.1787 32.9998C29.3172 32.7352 27.3593 32.7061 25.597 32.2914C22.777 31.6285 19.7951 29.6042 16.9342 29.5869C16.3495 29.5833 15.8366 30.258 16.1812 30.8055C17.8227 33.4117 21.9822 34.3911 24.8076 35.0068C27.3039 35.5506 30.6877 36.2199 33.2521 35.2814C33.8223 35.9071 34.3907 36.5364 34.9617 37.1629C37.9891 40.4813 41.151 43.7077 43.9537 47.2207C44.2029 47.5344 44.4011 47.8581 44.6284 48.1755C42.7015 48.3019 40.7763 48.4938 38.8421 48.492C36.1121 48.4902 32.932 47.6108 30.2975 48.3092C29.5528 48.5065 29.4327 49.4559 30.0502 49.877C32.4637 51.5193 36.4168 51.2556 39.2167 51.1665C41.4993 51.0955 43.8082 50.9018 46.0071 50.2898C47.1274 52.2159 48.035 54.1902 49.018 56.1817C42.3877 55.9234 35.7966 56.8055 29.2117 55.306C20.9928 53.4335 14.7408 48.1428 10.9796 40.6213ZM49.8601 57.8213C50.0274 58.1359 50.1993 58.4488 50.3775 58.7634C50.9586 61.0696 52.1645 63.1394 54.3888 64.6635C55.35 65.3219 56.7077 64.0642 56.0757 63.0639C50.8059 54.7067 55.9066 46.675 55.4119 37.7831C55.0254 30.8518 51.9335 24.348 47.4475 19.1272C36.1912 6.03034 18.5438 3.83237 2.54874 0.986014C2.33413 0.745938 2.10951 0.51495 1.86489 0.300337C1.07736 -0.390791 -0.198495 0.18303 0.0261213 1.29156C0.86366 5.45743 2.4669 9.06948 2.79609 13.4218C3.08255 17.2075 3.14711 20.9978 3.57816 24.7745C4.47662 32.6297 6.57638 40.5204 11.3106 46.9806C20.0034 58.8425 36.2194 61.2151 49.8601 57.8213" fill="#005948"/>
<path d="M59.4718 57.9391C60.1839 56.495 60.8423 55.0636 61.6544 53.6686C63.2476 54.1124 64.9218 54.2525 66.5759 54.3034C68.6047 54.3689 71.4702 54.5598 73.2189 53.3695C73.6663 53.0648 73.579 52.3764 73.0398 52.2336C71.1301 51.7262 68.8257 52.3637 66.8469 52.3655C65.4446 52.3673 64.0497 52.2273 62.6529 52.1363C62.8184 51.9063 62.962 51.6707 63.143 51.4443C65.1746 48.898 67.4662 46.5591 69.6596 44.1547C70.0734 43.7 70.4853 43.2444 70.8982 42.7907C72.757 43.4709 75.2096 42.9862 77.0192 42.5915C79.0671 42.145 82.0808 41.4357 83.2712 39.546C83.5204 39.1504 83.1494 38.6603 82.7247 38.663C80.6522 38.6757 78.4906 40.1434 76.4472 40.6236C75.1695 40.9246 73.7509 40.9446 72.4014 41.1365C74.8931 38.3965 77.3821 35.6557 79.8719 32.9139C80.4931 33.204 81.3979 32.9121 82.0372 32.8875C82.8311 32.8548 84.0105 33.1512 84.7071 32.6975C84.8944 32.5747 84.999 32.2891 84.8572 32.0909C84.2743 31.2761 82.8911 31.347 81.999 31.4334C81.7516 31.4571 81.4379 31.4871 81.1178 31.5435C82.1881 30.3649 83.2585 29.1836 84.3306 28.0069C84.7062 27.5949 84.096 27.0193 83.7032 27.413C82.9393 28.1797 82.1718 28.9444 81.4061 29.7101C81.1542 29.2182 80.9896 28.6798 80.9723 28.1251C80.9577 27.654 81.1214 27.1702 80.9859 26.7119C80.9286 26.5164 80.6868 26.4127 80.5094 26.5255C79.3072 27.2948 80.0738 29.3864 80.8504 30.1712C80.8714 30.1921 80.895 30.1857 80.9159 30.2003C79.4391 31.6771 77.9641 33.154 76.4863 34.629C76.4218 33.8815 76.078 33.0448 76.0225 32.4055C75.9698 31.7826 75.9562 31.1497 76.0135 30.5259C76.0644 29.9757 76.1917 29.4319 75.9771 28.9044C75.8216 28.5198 75.4051 28.4088 75.0904 28.6889C74.3011 29.3937 74.3566 30.9096 74.402 31.8826C74.4311 32.4647 74.5257 33.053 74.6548 33.6205C74.7149 33.8878 75.0959 34.6854 75.1159 35.0709C75.0913 35.1055 75.0695 35.1428 75.0695 35.1928C75.0704 35.4038 75.1023 35.4492 75.2068 35.6466C75.2387 35.7084 75.2914 35.7366 75.3369 35.7784C72.2459 38.8658 69.1585 41.9549 66.0858 45.0596C65.7538 45.3969 65.3901 45.7525 65.0136 46.1172C64.2197 44.493 63.7159 42.7361 63.7041 40.9201C63.6986 39.9916 63.8214 39.0813 64.0542 38.1837C64.2579 37.398 64.6489 36.6905 64.5935 35.8675C64.5689 35.5174 64.1742 35.2555 63.8551 35.4647C62.2964 36.485 62.1181 39.2659 62.1672 40.961C62.23 43.1289 62.9057 45.165 64.237 46.8701C62.2736 48.7725 60.0202 51.0014 58.5088 53.4268C58.4251 52.8893 58.3306 52.36 58.2305 51.8453C56.9847 45.4524 57.2384 40.0125 61.0978 34.5399C64.8326 29.2436 70.6472 25.8489 76.6691 23.7455C81.6698 21.9986 87.0579 21.3557 92.0513 19.6188C90.6517 22.5424 90.7381 26.5846 90.5944 29.521C90.3053 35.3765 89.7032 41.3384 87.0406 46.661C84.3152 52.1118 79.7837 55.9475 73.8273 57.3043C69.0549 58.3911 64.2779 57.7518 59.4718 57.9391Z" fill="#ACCE3D"/>
<path d="M73.828 57.3045C69.0556 58.3912 64.2786 57.7519 59.4726 57.9392C60.1855 56.4951 60.843 55.0647 61.6551 53.6688C63.2483 54.1125 64.9225 54.2526 66.5766 54.3044C68.6064 54.369 71.4709 54.5599 73.2206 53.3696C73.6671 53.0649 73.5807 52.3765 73.0414 52.2338C71.1317 51.7272 68.8264 52.3638 66.8485 52.3656C65.4463 52.3674 64.0504 52.2274 62.6536 52.1365C62.8191 51.9064 62.9628 51.6718 63.1437 51.4444C65.1753 48.8982 67.4669 46.5592 69.6603 44.1548C70.075 43.7011 70.4861 43.2445 70.8998 42.7908C72.7586 43.471 75.2112 42.9863 77.02 42.5916C79.0679 42.146 82.0825 41.4358 83.2728 39.547C83.522 39.1505 83.1501 38.6613 82.7263 38.6631C80.6529 38.6767 78.4913 40.1436 76.448 40.6246C75.1712 40.9247 73.7526 40.9447 72.403 41.1375C74.8938 38.3966 77.3837 35.6558 79.8727 32.9149C80.4938 33.2041 81.3986 32.9131 82.0388 32.8876C82.8327 32.8549 84.0122 33.1513 84.7078 32.6976C84.8952 32.5757 84.9998 32.2902 84.8579 32.091C84.275 31.2762 82.8927 31.348 81.9997 31.4335C81.7533 31.4572 81.4395 31.4872 81.1194 31.5436C82.1898 30.365 83.2592 29.1846 84.3314 28.007C84.7069 27.595 84.0967 27.0194 83.7048 27.4132C82.94 28.1807 82.1725 28.9446 81.4068 29.7103C81.1549 29.2183 80.9903 28.6799 80.973 28.1252C80.9594 27.6551 81.1222 27.1704 80.9876 26.712C80.9303 26.5165 80.6875 26.4128 80.5111 26.5256C79.308 27.2949 80.0746 29.3865 80.8521 30.1713C80.8721 30.1922 80.8957 30.1859 80.9166 30.2004C79.4398 31.6772 77.9648 33.1541 76.4871 34.6291C76.4234 33.8816 76.0787 33.0449 76.0242 32.4066C75.9705 31.7827 75.9578 31.1498 76.0151 30.526C76.0651 29.9767 76.1924 29.4329 75.9787 28.9045C75.8232 28.5208 75.4058 28.4089 75.0912 28.6899C74.3018 29.3938 74.3573 30.9106 74.4037 31.8828C74.4319 32.4648 74.5273 33.054 74.6556 33.6206C74.7156 33.8879 75.0975 34.6855 75.1166 35.071C75.093 35.1056 75.0702 35.1429 75.0712 35.1938C75.0721 35.4039 75.1039 35.4493 75.2076 35.6476C75.2394 35.7085 75.293 35.7367 75.3376 35.7785C72.2475 38.8659 69.1593 41.955 66.0874 45.0606C65.7546 45.397 65.3908 45.7526 65.0152 46.1173C64.2213 44.4931 63.7166 42.7362 63.7057 40.9202C63.6994 39.9917 63.823 39.0814 64.0549 38.1838C64.2595 37.3981 64.6497 36.6906 64.5942 35.8686C64.5705 35.5175 64.1759 35.2556 63.8567 35.4648C62.2971 36.4851 62.1198 39.266 62.168 40.9611C62.2307 43.1291 62.9073 45.1652 64.2377 46.8702C62.2744 48.7736 60.0209 51.0015 58.5104 53.4269C58.4259 52.8903 58.3313 52.3602 58.2313 51.8455C56.9854 45.4525 57.24 40.0126 61.0985 34.54C64.8334 29.2447 70.6479 25.8499 76.6698 23.7465C81.6705 21.9987 87.0595 21.3558 92.0529 19.6189C90.6525 22.5425 90.7388 26.5847 90.5952 29.5211C90.3069 35.3775 89.704 41.3385 87.0422 46.6611C84.3159 52.1128 79.7845 55.9477 73.828 57.3045ZM86.8021 51.2698C90.2341 46.5883 91.7555 40.8692 92.4066 35.1765C92.7186 32.4393 92.7659 29.6912 92.9732 26.9476C93.2124 23.7929 94.3736 21.1757 94.9811 18.1566C95.143 17.3527 94.219 16.9371 93.648 17.4382C93.4715 17.5937 93.3078 17.761 93.1523 17.9347C81.5596 19.9981 68.7701 21.5913 60.6111 31.0834C57.3601 34.8673 55.1185 39.5807 54.8393 44.6041C54.4801 51.0488 58.1776 56.8698 54.3573 62.9271C53.8999 63.6519 54.8829 64.5631 55.5804 64.0866C57.1928 62.9817 58.0658 61.4821 58.4868 59.8107C58.6168 59.5824 58.7414 59.3551 58.8624 59.1268C68.7491 61.5867 80.502 59.8671 86.8021 51.2698" fill="#005948"/>
</svg>
