<svg width="419" height="52" viewBox="0 0 419 52" fill="none" xmlns="http://www.w3.org/2000/svg">
<path d="M12.1 50.6C11.5667 50.6 11.1334 50.4 10.8 50C10.5334 49.5333 10.4 49 10.4 48.4C10.4 39.5333 10.2333 32.0333 9.89999 25.9C8.89999 25.7 8.16668 25.6 7.70001 25.6C5.96668 25.6 4.73333 25.7333 4 26C4 28.4 4.16667 32.0333 4.5 36.9C4.9 41.9667 5.10001 45.5667 5.10001 47.7C5.10001 48.1667 4.96668 48.6 4.70001 49C4.43335 49.3333 4.10001 49.5 3.70001 49.5C3.16668 49.5 2.66668 48.5 2.20001 46.5C1.53335 43.6333 0.966667 37.5667 0.5 28.3C0.233333 22.0333 0.100006 15.3 0.100006 8.10001C0.0333394 6.76667 0 4.86668 0 2.40001C0 1.66668 0.366673 1.3 1.10001 1.3C1.50001 1.3 1.93333 1.40001 2.39999 1.60001C2.86666 1.80001 3.19999 2.03334 3.39999 2.3C3.19999 3.7 3.10001 5.30001 3.10001 7.10001C3.10001 8.90001 3.19999 11.0667 3.39999 13.6C3.53333 16.5333 3.60001 18.7667 3.60001 20.3V21.4C3.53334 21.8 3.5 22.2333 3.5 22.7C3.5 23.1 3.56668 23.6333 3.70001 24.3C3.90001 24.3 4.29999 24.3 4.89999 24.3C5.49999 24.2333 6.10001 24.1667 6.70001 24.1C8.10001 23.9667 9.16666 23.9 9.89999 23.9C9.89999 20.1667 9.83335 16.7333 9.70001 13.6L9.60001 2.90001V1.20001C10.1333 1.20001 10.6333 1.3 11.1 1.5C11.5 1.63333 11.8 1.86668 12 2.20001C12.4 2.66668 12.6333 3.46667 12.7 4.60001V6.10001C12.7 9.76667 12.9333 16.7667 13.4 27.1C13.8 36.5 14 43.5667 14 48.3C14 48.9 13.8 49.4333 13.4 49.9C13.0667 50.3667 12.6333 50.6 12.1 50.6V50.6ZM25.7 50C24.9 50 24.2 49.9 23.6 49.7C22.8667 49.4333 22.5 48.8333 22.5 47.9V10.7C22.5 9.96668 22.3667 8.86668 22.1 7.40001C21.7667 6.06668 21.6 5.00001 21.6 4.20001V4C22.3333 2.8 22.8667 2.03335 23.2 1.70001C23.8 1.70001 24.6 1.60001 25.6 1.40001C26.4667 1.26668 27.2667 1.20001 28 1.20001C28.6667 1.20001 29.3333 1.4 30 1.8C30.6 2.2 30.9 2.66668 30.9 3.20001C30.9 4.46668 29.9333 5.10001 28 5.10001H27.1C26.8333 5.10001 26.5333 5.10001 26.2 5.10001C25.8 5.10001 25.5667 5.10001 25.5 5.10001C25.5 6.56667 25.5667 8.33334 25.7 10.4L25.9 12.2L26 15.7C26 16.5 25.9334 17.7333 25.8 19.4L25.7 23L26.6 22.8C27.4 22.5333 28.1 22.4 28.7 22.4C29.1667 22.4 29.6 22.6 30 23C30.3333 23.3333 30.5 23.7333 30.5 24.2C30.5 24.7333 30.3333 25.2 30 25.6C29.7333 26 29.3667 26.2 28.9 26.2L28.1 26.1H27.3C26.6334 26.1 26.1667 26.2667 25.9 26.6V46.3L29.5 46.1C31.9667 46.1 33.2 46.6667 33.2 47.8V48.1C32.9333 48.5667 32.4333 48.9667 31.7 49.3C31.0333 49.6333 30.4 49.8333 29.8 49.9L27.7 50H25.7ZM51.6 50.2C50.8 50.2 50.0334 49.6333 49.3 48.5V48.3C49.1667 46.0333 48.7667 43.5333 48.1 40.8C47.5 38 46.5667 34.6333 45.3 30.7C44.3667 27.7667 43.5667 25.1333 42.9 22.8V48C42.9 48.6667 42.7667 49.1667 42.5 49.5C42.3 49.8333 41.8667 50 41.2 50C40.6667 50 40.2667 49.8333 40 49.5C39.6667 49.1667 39.5 48.7667 39.5 48.3V47.7L39.7 28.9C39.7667 23.3667 39.8 17.1333 39.8 10.2V2.3C39.8 1.76667 39.9 1.43334 40.1 1.3C40.3 1.1 40.7667 1 41.5 1C42.5667 1 43.5333 1.20001 44.4 1.60001C45.2667 2.00001 46.0333 2.56667 46.7 3.3C48.0333 4.76667 48.9 6.53334 49.3 8.60001C49.4334 9.46667 49.5 10.4667 49.5 11.6C49.5 12.2 49.4334 12.9 49.3 13.7C49.2334 14.4333 49.1667 14.9333 49.1 15.2C49.0333 15.6 48.8667 16.2333 48.6 17.1C48.2667 17.9667 48.0667 18.5333 48 18.8L47.2 20.5L46.6 22.2C46.6 23.7333 46.8334 25.6667 47.3 28C47.8334 30.4 48.4 32.6 49 34.6C49.4667 36 50.2334 38.3333 51.3 41.6L53.2 47.2V47.4C53.2 48.0667 53.1333 48.6667 53 49.2C52.8667 49.8667 52.4 50.2 51.6 50.2V50.2ZM42.8 19.9C43.4 19.3 44.1333 18.4667 45 17.4L45.9 11.9C45.9667 11.7 46 11.4 46 11C46 9.8 45.7667 8.36668 45.3 6.70001C45.0334 5.96668 44.7 5.33334 44.3 4.8C43.9 4.26667 43.5 3.96668 43.1 3.90001L42.9 10.3C42.7667 13.1667 42.7 15.4 42.7 17C42.7 18.4667 42.7334 19.4333 42.8 19.9V19.9ZM61.9 50C61.1 50 60.4 49.9 59.8 49.7C59.0667 49.4333 58.7 48.8333 58.7 47.9V10.7C58.7 9.96668 58.6 8.86668 58.4 7.40001C58.0667 6.06668 57.9 5.00001 57.9 4.20001V4C58.6333 2.8 59.1667 2.03335 59.5 1.70001C60.1 1.70001 60.9 1.60001 61.9 1.40001C62.7667 1.26668 63.5333 1.20001 64.2 1.20001C64.9333 1.20001 65.6 1.4 66.2 1.8C66.8667 2.2 67.2 2.66668 67.2 3.20001C67.2 4.46668 66.2 5.10001 64.2 5.10001H63.3C63.1 5.10001 62.8333 5.10001 62.5 5.10001C62.1 5.10001 61.8333 5.10001 61.7 5.10001C61.7 6.56667 61.8 8.33334 62 10.4L62.1 12.2L62.3 15.7C62.3 16.5 62.2333 17.7333 62.1 19.4L61.9 23L62.8 22.8C63.6667 22.5333 64.3667 22.4 64.9 22.4C65.4333 22.4 65.8667 22.6 66.2 23C66.6 23.3333 66.8 23.7333 66.8 24.2C66.8 24.7333 66.6334 25.2 66.3 25.6C65.9667 26 65.5667 26.2 65.1 26.2L64.4 26.1H63.5C62.9 26.1 62.4667 26.2667 62.2 26.6V46.3L65.8 46.1C68.2 46.1 69.4 46.6667 69.4 47.8V48.1C69.1333 48.5667 68.6667 48.9667 68 49.3C67.3333 49.6333 66.6667 49.8333 66 49.9L63.9 50H61.9ZM100.5 49.6C99.7667 49.6 99.2333 49.4667 98.9 49.2C98.6333 48.9333 98.5 48.5 98.5 47.9V39.6C97.9 39.2 96.8334 38.8333 95.3 38.5C93.7667 38.2333 92.3333 38.0667 91 38C90.5333 38.8667 90.2 39.9333 90 41.2L89.7 42.5C89.6333 42.7667 89.5 43.4333 89.3 44.5C89.1 45.5 88.8667 46.4 88.6 47.2C88.3333 47.9333 88.0667 48.5 87.8 48.9C86.2 48.9 85.2667 48.4667 85 47.6C85.4667 46.9333 86 44.9333 86.6 41.6L88.7 29.9C89.6333 24.3667 90.5 19.6333 91.3 15.7C92.1 11.7667 92.9667 8.46667 93.9 5.8C94.8333 2.86667 95.7667 1.40001 96.7 1.40001C97.5667 1.40001 98.2333 1.56668 98.7 1.90001C98.7 3.63334 99.1 7.76667 99.9 14.3C100.767 20.7 101.2 25.0667 101.2 27.4C101.2 29.6667 101.433 32.9 101.9 37.1C102.367 41.4333 102.6 44.8667 102.6 47.4C102.6 48.8667 101.9 49.6 100.5 49.6V49.6ZM97.1 35.8C97.4333 35.8 97.8667 35.7333 98.4 35.6C98.2667 33.7333 98.0667 31.4333 97.8 28.7C96.8 19.0333 96.3 13.1 96.3 10.9V10.4C95.9 10.8667 95.3 12.8333 94.5 16.3C93.7667 19.7 93.1 23.3667 92.5 27.3C91.8333 31.2333 91.4667 33.8333 91.4 35.1C93.2 35.5667 95.1 35.8 97.1 35.8V35.8ZM122 50.2C121.2 50.2 120.433 49.6333 119.7 48.5V48.3C119.567 46.0333 119.167 43.5333 118.5 40.8C117.833 38 116.9 34.6333 115.7 30.7C114.767 27.7667 113.967 25.1333 113.3 22.8V48C113.3 48.6667 113.167 49.1667 112.9 49.5C112.7 49.8333 112.267 50 111.6 50C111.067 50 110.667 49.8333 110.4 49.5C110.067 49.1667 109.9 48.7667 109.9 48.3V47.7L110.1 28.9C110.167 23.3667 110.2 17.1333 110.2 10.2V2.3C110.2 1.76667 110.3 1.43334 110.5 1.3C110.7 1.1 111.133 1 111.8 1C112.867 1 113.867 1.20001 114.8 1.60001C115.667 2.00001 116.433 2.56667 117.1 3.3C118.433 4.76667 119.3 6.53334 119.7 8.60001C119.833 9.46667 119.9 10.4667 119.9 11.6C119.9 12.2 119.833 12.9 119.7 13.7C119.633 14.4333 119.567 14.9333 119.5 15.2C119.433 15.6 119.233 16.2333 118.9 17.1C118.633 17.9667 118.467 18.5333 118.4 18.8L117.6 20.5L117 22.2C117 23.7333 117.233 25.6667 117.7 28C118.233 30.4 118.8 32.6 119.4 34.6C119.8 36 120.567 38.3333 121.7 41.6L123.6 47.2V47.4C123.6 48.0667 123.533 48.6667 123.4 49.2C123.267 49.8667 122.8 50.2 122 50.2V50.2ZM113.2 19.9C113.8 19.3 114.533 18.4667 115.4 17.4L116.3 11.9C116.367 11.7 116.4 11.4 116.4 11C116.4 9.8 116.167 8.36668 115.7 6.70001C115.433 5.96668 115.1 5.33334 114.7 4.8C114.3 4.26667 113.867 3.96668 113.4 3.90001L113.3 10.3C113.167 13.1667 113.1 15.4 113.1 17C113.1 18.4667 113.133 19.4333 113.2 19.9V19.9ZM132.3 50C131.5 50 130.8 49.9 130.2 49.7C129.467 49.4333 129.1 48.8333 129.1 47.9V10.7C129.1 9.96668 128.967 8.86668 128.7 7.40001C128.433 6.06668 128.3 5.00001 128.3 4.20001V4C129.033 2.8 129.567 2.03335 129.9 1.70001C130.5 1.70001 131.3 1.60001 132.3 1.40001C133.167 1.26668 133.933 1.20001 134.6 1.20001C135.333 1.20001 136 1.4 136.6 1.8C137.267 2.2 137.6 2.66668 137.6 3.20001C137.6 4.46668 136.6 5.10001 134.6 5.10001H133.7C133.433 5.10001 133.133 5.10001 132.8 5.10001C132.467 5.10001 132.233 5.10001 132.1 5.10001C132.1 6.56667 132.2 8.33334 132.4 10.4L132.5 12.2L132.6 15.7C132.6 16.5 132.567 17.7333 132.5 19.4L132.3 23L133.2 22.8C134.067 22.5333 134.767 22.4 135.3 22.4C135.767 22.4 136.2 22.6 136.6 23C137 23.3333 137.2 23.7333 137.2 24.2C137.2 24.7333 137.033 25.2 136.7 25.6C136.367 26 135.967 26.2 135.5 26.2L134.8 26.1H133.9C133.3 26.1 132.867 26.2667 132.6 26.6V46.3L136.2 46.1C138.6 46.1 139.8 46.6667 139.8 47.8V48.1C139.533 48.5667 139.067 48.9667 138.4 49.3C137.733 49.6333 137.067 49.8333 136.4 49.9L134.3 50H132.3ZM161.8 51C160.267 51 158.933 50.7333 157.8 50.2C157.133 49.8 156.8 49.3333 156.8 48.8C156.8 48.3333 156.933 47.9333 157.2 47.6C157.467 47.2667 157.833 47.1 158.3 47.1C158.7 47.1 159.3 47.2667 160.1 47.6C161.033 47.9333 161.6 48.1 161.8 48.1C162.6 48.1 163.333 47.7667 164 47.1C164.667 46.3667 165.2 45.4333 165.6 44.3C166.333 42.1667 166.7 40.2333 166.7 38.5C166.7 36.7 166.4 34.8 165.8 32.8C165.267 30.7333 164.5 28.7333 163.5 26.8L162.5 24.8C161.433 22.6667 160.6 20.9667 160 19.7C159.467 18.5 158.967 17.1667 158.5 15.7C157.9 13.6333 157.6 11.6333 157.6 9.70001C157.6 8.16668 157.867 6.73334 158.4 5.40001C158.933 4.00001 159.733 2.83334 160.8 1.90001C161.867 0.900009 163.2 0.400009 164.8 0.400009C165.533 0.400009 166.267 0.633339 167 1.10001C167.733 1.50001 168.233 2.06667 168.5 2.8L167.4 4.10001C166.333 4.10001 165.5 3.9 164.9 3.5C164.167 3.56667 163.5 3.93334 162.9 4.60001C162.367 5.26667 161.933 6 161.6 6.8C161.333 7.66667 161.2 8.5 161.2 9.3C161.2 10.9 161.433 12.5667 161.9 14.3C162.367 15.9667 162.967 17.5333 163.7 19L168.1 28C168.833 29.5333 169.433 31.2667 169.9 33.2C170.3 35.0667 170.5 36.9667 170.5 38.9C170.5 41.7 169.833 44.3333 168.5 46.8C167.767 48.1333 166.833 49.1667 165.7 49.9C164.5 50.6333 163.2 51 161.8 51V51ZM186.2 51.4C185.067 51.4 184.033 51 183.1 50.2C182.167 49.4667 181.333 48.4333 180.6 47.1C179.4 44.7667 178.5 41.6 177.9 37.6C177.433 34.8667 177.1 31.6667 176.9 28V24.6V21.2C176.833 20.0667 176.8 18.7333 176.8 17.2C176.8 14.6 176.9 12.3333 177.1 10.4C177.3 8.33334 177.733 6.3 178.4 4.3C179.067 2.56667 180.033 1.33334 181.3 0.600006C182.1 0.266673 182.867 0.100006 183.6 0.100006C185.867 0.100006 187.667 1 189 2.8C190.467 4.8 191.433 7.03333 191.9 9.5C192.567 12.5 192.933 15.3333 193 18C193.2 21.0667 193.3 23.9333 193.3 26.6V30.3C193.3 31.0333 193.2 32.4 193 34.4C192.8 35.9333 192.7 37.2667 192.7 38.4V38.7C192.433 39.8333 192.3 41.2333 192.3 42.9C192.3 44.1 192.067 45.3333 191.6 46.6C191.067 47.8667 190.333 48.9667 189.4 49.9C188.467 50.9 187.4 51.4 186.2 51.4V51.4ZM186.3 47.9C187.167 47.9 187.9 47.1 188.5 45.5C189.033 44.1 189.4 42.4 189.6 40.4C189.867 38.3333 190.067 36.0333 190.2 33.5C190.333 32.3667 190.4 30.9333 190.4 29.2L190.3 23.3C190.233 20.9667 189.967 18.1 189.5 14.7C189.167 11.7 188.533 9.06667 187.6 6.8C187.2 5.73334 186.667 4.93334 186 4.40001C185.333 3.80001 184.667 3.5 184 3.5C182.933 3.5 182.133 4.33333 181.6 6C180.933 7.73333 180.5 9.63335 180.3 11.7C180.033 13.9667 179.9 16.1333 179.9 18.2L179.8 20.3C179.733 20.9 179.7 21.7 179.7 22.7V23C179.7 25.8667 180 29.3667 180.6 33.5C181.333 39.1667 182.333 43.2 183.6 45.6C184.467 47.1333 185.367 47.9 186.3 47.9V47.9ZM219 51.3C218.533 51.3 218.167 51.0667 217.9 50.6C217.7 50.2 217.6 49.6 217.6 48.8L217.5 39.3C217.433 38.5 217.4 37.1667 217.4 35.3C217.333 31.3 217.3 26.8 217.3 21.8V18.6C216.9 20.6 216.233 23.4667 215.3 27.2C214.367 31.0667 213.7 34.2333 213.3 36.7V37.1L213.1 38.3C213.033 39.2333 212.833 40.2 212.5 41.2C212.1 42.2 211.433 42.7 210.5 42.7C208.967 42.7 208.2 40.7 208.2 36.7C208.2 34.4333 207.967 32.0667 207.5 29.6C207.1 27 206.4 23.8667 205.4 20.2L203.5 13L203.3 20.7C203.3 22.9667 203.433 27.3667 203.7 33.9L203.8 38.2L203.9 47C203.9 47.8667 203.6 48.6667 203 49.4C201.933 49.4 201.167 49.0667 200.7 48.4C200.3 47.7333 200.1 46.7667 200.1 45.5L200.3 40.3C200.433 37.9667 200.5 36.2333 200.5 35.1L200.3 22.7L200.2 10.3C200.2 8.5 200.233 5.73333 200.3 2L202.1 1C202.433 1.06667 202.767 1.33334 203.1 1.8C203.433 2.2 203.8 2.90001 204.2 3.90001C205.267 6.56668 206.667 11.8667 208.4 19.8C208.667 20.8667 208.833 21.7667 208.9 22.5C209.433 24.9667 209.8 26.8667 210 28.2L211 33.1L211.4 31L212.6 25.7C213.333 22.6333 213.9 19.9667 214.3 17.7C214.767 15.3667 215.2 12.8667 215.6 10.2C216.067 7.00001 216.367 4.33335 216.5 2.20001V1.8C216.633 1.26667 216.9 0.833333 217.3 0.5C217.7 0.166667 218.2 0 218.8 0C219.2 0 219.567 0.166667 219.9 0.5C220.167 0.833333 220.3 1.20001 220.3 1.60001C220.3 6.73334 220.5 14.4 220.9 24.6C221.1 29.6 221.233 34.4667 221.3 39.2C221.433 41.4 221.5 44.1667 221.5 47.5C221.5 48.5 221.233 49.3667 220.7 50.1C220.167 50.9 219.6 51.3 219 51.3V51.3ZM233.2 50C232.4 50 231.7 49.9 231.1 49.7C230.367 49.4333 230 48.8333 230 47.9V10.7C230 9.96668 229.867 8.86668 229.6 7.40001C229.267 6.06668 229.1 5.00001 229.1 4.20001V4C229.833 2.8 230.367 2.03335 230.7 1.70001C231.3 1.70001 232.1 1.60001 233.1 1.40001C234.033 1.26668 234.833 1.20001 235.5 1.20001C236.167 1.20001 236.833 1.4 237.5 1.8C238.1 2.2 238.4 2.66668 238.4 3.20001C238.4 4.46668 237.433 5.10001 235.5 5.10001H234.6C234.333 5.10001 234.033 5.10001 233.7 5.10001C233.3 5.10001 233.067 5.10001 233 5.10001C233 6.56667 233.067 8.33334 233.2 10.4L233.4 12.2L233.5 15.7C233.5 16.5 233.433 17.7333 233.3 19.4L233.2 23L234.1 22.8C234.9 22.5333 235.6 22.4 236.2 22.4C236.667 22.4 237.1 22.6 237.5 23C237.833 23.3333 238 23.7333 238 24.2C238 24.7333 237.833 25.2 237.5 25.6C237.233 26 236.867 26.2 236.4 26.2L235.6 26.1H234.8C234.133 26.1 233.667 26.2667 233.4 26.6V46.3L237 46.1C239.467 46.1 240.7 46.6667 240.7 47.8V48.1C240.433 48.5667 239.967 48.9667 239.3 49.3C238.567 49.6333 237.9 49.8333 237.3 49.9L235.2 50H233.2ZM277.4 51.3C277 51.3 276.667 51.0667 276.4 50.6C276.133 50.2 276 49.6 276 48.8V39.3C275.933 38.5 275.9 37.1667 275.9 35.3C275.833 31.3 275.8 26.8 275.8 21.8V18.6C275.4 20.6 274.733 23.4667 273.8 27.2C272.867 31.0667 272.2 34.2333 271.8 36.7V37.1L271.6 38.3C271.533 39.2333 271.333 40.2 271 41.2C270.533 42.2 269.867 42.7 269 42.7C267.467 42.7 266.7 40.7 266.7 36.7C266.7 34.4333 266.467 32.0667 266 29.6C265.533 27 264.833 23.8667 263.9 20.2L262 13L261.8 20.7C261.8 22.9667 261.9 27.3667 262.1 33.9L262.3 38.2L262.4 47C262.4 47.8667 262.067 48.6667 261.4 49.4C260.333 49.4 259.6 49.0667 259.2 48.4C258.8 47.7333 258.6 46.7667 258.6 45.5L258.8 40.3C258.867 37.9667 258.9 36.2333 258.9 35.1L258.8 22.7L258.7 10.3C258.7 8.5 258.733 5.73333 258.8 2L260.5 1C260.9 1.06667 261.267 1.33334 261.6 1.8C261.933 2.2 262.3 2.90001 262.7 3.90001C263.767 6.56668 265.167 11.8667 266.9 19.8C267.167 20.8667 267.333 21.7667 267.4 22.5C267.933 24.9667 268.3 26.8667 268.5 28.2L269.4 33.1L269.9 31L271.1 25.7C271.767 22.6333 272.333 19.9667 272.8 17.7C273.267 15.3667 273.7 12.8667 274.1 10.2C274.567 7.00001 274.867 4.33335 275 2.20001V1.8C275.067 1.26667 275.333 0.833333 275.8 0.5C276.2 0.166667 276.7 0 277.3 0C277.7 0 278.033 0.166667 278.3 0.5C278.633 0.833333 278.8 1.20001 278.8 1.60001C278.8 6.73334 279 14.4 279.4 24.6C279.6 29.6 279.733 34.4667 279.8 39.2C279.867 41.4 279.9 44.1667 279.9 47.5C279.9 48.5 279.667 49.3667 279.2 50.1C278.667 50.9 278.067 51.3 277.4 51.3V51.3ZM291.7 50C290.833 50 290.1 49.9 289.5 49.7C288.833 49.4333 288.5 48.8333 288.5 47.9V10.7C288.5 9.96668 288.367 8.86668 288.1 7.40001C287.767 6.06668 287.6 5.00001 287.6 4.20001V4C288.333 2.8 288.867 2.03335 289.2 1.70001C289.8 1.70001 290.6 1.60001 291.6 1.40001C292.467 1.26668 293.267 1.20001 294 1.20001C294.667 1.20001 295.3 1.4 295.9 1.8C296.567 2.2 296.9 2.66668 296.9 3.20001C296.9 4.46668 295.933 5.10001 294 5.10001H293.1C292.833 5.10001 292.533 5.10001 292.2 5.10001C291.8 5.10001 291.567 5.10001 291.5 5.10001C291.5 6.56667 291.567 8.33334 291.7 10.4L291.8 12.2L292 15.7C292 16.5 291.933 17.7333 291.8 19.4L291.7 23L292.5 22.8C293.367 22.5333 294.1 22.4 294.7 22.4C295.167 22.4 295.567 22.6 295.9 23C296.3 23.3333 296.5 23.7333 296.5 24.2C296.5 24.7333 296.333 25.2 296 25.6C295.733 26 295.367 26.2 294.9 26.2L294.1 26.1H293.3C292.633 26.1 292.167 26.2667 291.9 26.6V46.3L295.5 46.1C297.9 46.1 299.1 46.6667 299.1 47.8V48.1C298.9 48.5667 298.433 48.9667 297.7 49.3C297.033 49.6333 296.367 49.8333 295.7 49.9L293.6 50H291.7ZM310.7 50C310.033 50 309.5 49.7333 309.1 49.2C308.767 48.5333 308.6 47.7333 308.6 46.8C308.6 45.4 308.7 43.7 308.9 41.7L309 40L309.1 36.6C309.1 35.1333 308.967 31.8 308.7 26.6C308.367 21.4667 308.2 18.1333 308.2 16.6C308.2 16.4667 308.2 16.2333 308.2 15.9C308.267 15.5667 308.3 15 308.3 14.2C308.367 13.3333 308.4 12.3 308.4 11.1C308.4 7.96667 308.167 5.96667 307.7 5.10001C307.5 5.10001 306.967 5.16667 306.1 5.3L304.3 5.40001C303.7 5.40001 303.2 5.26667 302.8 5C302.4 4.66667 302.2 4.23335 302.2 3.70001C302.2 3.16668 302.7 2.73334 303.7 2.40001C305.167 1.86668 307.7 1.5 311.3 1.3C312.767 1.23334 313.633 1.20001 313.9 1.20001C314.433 1.20001 314.933 1.36668 315.4 1.70001C315.8 2.03335 316 2.43334 316 2.90001C316 3.43334 315.8 3.86668 315.4 4.20001C315.067 4.53335 314.633 4.70001 314.1 4.70001L312.9 4.60001C312.567 4.53334 312.2 4.5 311.8 4.5H311.1C311.433 7.43333 311.6 10.0667 311.6 12.4L311.5 16.5C311.433 17.7667 311.4 19.1667 311.4 20.7C311.4 22.7 311.5 25.1333 311.7 28C311.9 31.5333 312 34 312 35.4C312 37 312.1 38.9333 312.3 41.2C312.433 43.4 312.5 45.3 312.5 46.9C312.5 48.9667 311.9 50 310.7 50V50ZM333.8 50.6C333.267 50.6 332.867 50.4 332.6 50C332.333 49.5333 332.2 49 332.2 48.4C332.2 39.5333 332.033 32.0333 331.7 25.9C330.633 25.7 329.9 25.6 329.5 25.6C327.767 25.6 326.5 25.7333 325.7 26C325.7 28.4 325.9 32.0333 326.3 36.9C326.633 41.9667 326.8 45.5667 326.8 47.7C326.8 48.1667 326.667 48.6 326.4 49C326.133 49.3333 325.833 49.5 325.5 49.5C324.9 49.5 324.367 48.5 323.9 46.5C323.233 43.6333 322.7 37.5667 322.3 28.3C321.967 22.0333 321.8 15.3 321.8 8.10001C321.8 6.76667 321.8 4.86668 321.8 2.40001C321.8 1.66668 322.133 1.3 322.8 1.3C323.267 1.3 323.7 1.40001 324.1 1.60001C324.567 1.80001 324.9 2.03334 325.1 2.3C324.967 3.7 324.9 5.30001 324.9 7.10001C324.9 8.90001 324.967 11.0667 325.1 13.6C325.233 16.5333 325.3 18.7667 325.3 20.3V21.4C325.3 21.8 325.3 22.2333 325.3 22.7C325.3 23.1 325.333 23.6333 325.4 24.3C325.667 24.3 326.1 24.3 326.7 24.3C327.3 24.2333 327.9 24.1667 328.5 24.1C329.9 23.9667 330.933 23.9 331.6 23.9C331.6 20.1667 331.567 16.7333 331.5 13.6L331.4 2.90001V1.20001C331.933 1.20001 332.4 1.3 332.8 1.5C333.267 1.63333 333.6 1.86668 333.8 2.20001C334.2 2.66668 334.433 3.46667 334.5 4.60001V6.10001C334.5 9.76667 334.7 16.7667 335.1 27.1C335.5 36.5 335.7 43.5667 335.7 48.3C335.7 48.9 335.5 49.4333 335.1 49.9C334.767 50.3667 334.333 50.6 333.8 50.6V50.6ZM352.2 51.4C351 51.4 349.933 51 349 50.2C348.067 49.4667 347.267 48.4333 346.6 47.1C345.333 44.7667 344.4 41.6 343.8 37.6C343.4 34.8667 343.1 31.6667 342.9 28L342.8 24.6V21.2C342.733 20.0667 342.7 18.7333 342.7 17.2C342.7 14.6 342.833 12.3333 343.1 10.4C343.233 8.33334 343.633 6.3 344.3 4.3C345.033 2.56667 346.033 1.33334 347.3 0.600006C348.033 0.266673 348.8 0.100006 349.6 0.100006C351.867 0.100006 353.667 1 355 2.8C356.4 4.8 357.333 7.03333 357.8 9.5C358.533 12.5 358.933 15.3333 359 18C359.2 21.0667 359.3 23.9333 359.3 26.6V30.3C359.3 31.0333 359.167 32.4 358.9 34.4C358.767 35.9333 358.7 37.2667 358.7 38.4V38.7C358.433 39.8333 358.3 41.2333 358.3 42.9C358.3 44.1 358.033 45.3333 357.5 46.6C357.033 47.8667 356.333 48.9667 355.4 49.9C354.4 50.9 353.333 51.4 352.2 51.4V51.4ZM352.3 47.9C353.167 47.9 353.9 47.1 354.5 45.5C354.967 44.1 355.3 42.4 355.5 40.4C355.767 38.3333 356 36.0333 356.2 33.5C356.267 32.3667 356.3 30.9333 356.3 29.2L356.2 23.3C356.133 20.9667 355.9 18.1 355.5 14.7C355.167 11.7 354.533 9.06667 353.6 6.8C353.133 5.73334 352.6 4.93334 352 4.40001C351.333 3.80001 350.633 3.5 349.9 3.5C348.833 3.5 348.033 4.33333 347.5 6C346.9 7.73333 346.5 9.63335 346.3 11.7C346.033 13.9667 345.867 16.1333 345.8 18.2V20.3C345.733 20.9 345.7 21.7 345.7 22.7V23C345.7 25.8667 346 29.3667 346.6 33.5C347.267 39.1667 348.267 43.2 349.6 45.6C350.467 47.1333 351.367 47.9 352.3 47.9V47.9ZM369.8 49.7C368.933 49.7 368.167 49.5333 367.5 49.2C366.9 48.8 366.6 48.2667 366.6 47.6C367.533 46.6 368 44.1 368 40.1C368 37.6333 367.8 34.0667 367.4 29.4C367 25 366.8 21.5 366.8 18.9L366.9 15.4C366.967 14.4 367 13.2333 367 11.9C367 10.7 366.8 9.20001 366.4 7.40001C365.867 5.46668 365.6 4.1 365.6 3.3C365.6 1.83334 367.233 1.10001 370.5 1.10001H371.5C373.767 1.10001 375.767 1.80001 377.5 3.20001C378.833 4.40001 380 6.13334 381 8.40001C381.6 9.93334 382.133 12.0667 382.6 14.8C382.867 17.2 383 19.0667 383 20.4V22.5V25.5C382.933 25.6333 382.9 25.8 382.9 26C382.9 26.3333 382.9 26.6 382.9 26.8C382.967 26.9333 383 27.1333 383 27.4C383 28.7333 382.8 30.3667 382.4 32.3C382 34.1667 381.4 36.1 380.6 38.1C378.733 42.7667 376.6 46.1 374.2 48.1C372.8 49.1667 371.333 49.7 369.8 49.7V49.7ZM371.1 46C372.7 45 374.1 43.6 375.3 41.8C376.433 39.9333 377.333 37.8667 378 35.6C379.133 31.4 379.7 27.1667 379.7 22.9C379.7 20.6333 379.5 18.1333 379.1 15.4C378.633 12.7333 377.633 10.3333 376.1 8.20001C375.367 7.20001 374.433 6.4 373.3 5.8C372.233 5.2 371 4.90001 369.6 4.90001V5C369.6 8.86667 369.833 14.6667 370.3 22.4C370.833 30.1333 371.1 35.9667 371.1 39.9V46ZM394.4 51C392.867 51 391.533 50.7333 390.4 50.2C389.733 49.8 389.4 49.3667 389.4 48.9C389.4 48.3667 389.533 47.9333 389.8 47.6C390.067 47.2667 390.433 47.1 390.9 47.1C391.3 47.1 391.9 47.2667 392.7 47.6C393.633 47.9333 394.2 48.1 394.4 48.1C395.2 48.1 395.933 47.7667 396.6 47.1C397.267 46.3667 397.8 45.4333 398.2 44.3C398.933 42.1667 399.3 40.2333 399.3 38.5C399.3 36.7 399 34.8 398.4 32.8C397.867 30.7333 397.1 28.7333 396.1 26.8L395.1 24.8C394.033 22.6667 393.2 20.9667 392.6 19.7C392.067 18.5 391.567 17.1667 391.1 15.7C390.5 13.6333 390.2 11.6333 390.2 9.70001C390.2 8.16668 390.433 6.73334 390.9 5.40001C391.5 4.00001 392.333 2.83334 393.4 1.90001C394.467 0.900009 395.767 0.400009 397.3 0.400009C398.1 0.400009 398.867 0.633339 399.6 1.10001C400.333 1.50001 400.833 2.06667 401.1 2.8L400 4.10001C398.933 4.10001 398.1 3.9 397.5 3.5C396.767 3.56667 396.1 3.93334 395.5 4.60001C394.9 5.26667 394.467 6.03334 394.2 6.90001C393.933 7.70001 393.8 8.5 393.8 9.3C393.8 10.9 394.033 12.5667 394.5 14.3C394.967 15.9667 395.533 17.5333 396.2 19L400.7 28C401.433 29.5333 402.033 31.2667 402.5 33.2C402.9 35.1333 403.1 37.0333 403.1 38.9C403.1 41.7667 402.4 44.4333 401 46.9C400.333 48.1667 399.4 49.1667 398.2 49.9C397.067 50.6333 395.8 51 394.4 51V51ZM415.7 19.9C415.167 19.9 414.667 19.6667 414.2 19.2C413.8 18.7333 413.6 18.2 413.6 17.6C413.6 17 413.833 16.4333 414.3 15.9C414.767 15.3667 415.333 15.1 416 15.1C416.6 15.1 417.133 15.3667 417.6 15.9C418.067 16.4333 418.3 17 418.3 17.6C418.3 18.2667 418.033 18.8333 417.5 19.3C417.033 19.7 416.433 19.9 415.7 19.9V19.9ZM415.1 44.1C414.5 44.1 414 43.8667 413.6 43.4C413.2 42.9333 413 42.4 413 41.8C413 41.2 413.233 40.6333 413.7 40.1C414.167 39.5667 414.7 39.3 415.3 39.3C415.9 39.3 416.433 39.5667 416.9 40.1C417.367 40.5667 417.6 41.1 417.6 41.7C417.6 42.4333 417.367 43.0333 416.9 43.5C416.433 43.9 415.833 44.1 415.1 44.1V44.1Z" fill="#325949"/>
</svg>
