<svg width="143" height="29" viewBox="0 0 143 29" fill="none" xmlns="http://www.w3.org/2000/svg">
<path d="M3.26928 28.278C1.08977 28.278 0 27.8769 0 27.0747C0 26.5131 0.403613 26.2324 1.21084 26.2324H1.57411C1.73556 26.2324 1.85663 26.2324 1.93735 26.2324C2.17952 26.2324 2.34095 26.1923 2.42168 26.112C2.5024 25.9516 2.54277 25.7109 2.54277 25.39C2.54277 23.3043 2.4217 20.4163 2.17953 16.7261C1.93736 12.9557 1.81626 10.1079 1.81626 8.18257C1.81626 7.46058 1.81626 6.81881 1.81626 6.25726L1.93735 4.33195C1.93735 3.52974 1.89698 2.84786 1.81626 2.28631C1.49337 2.36653 1.21086 2.40664 0.968693 2.40664C0.322912 2.40664 0 2.12586 0 1.56431C0 1.24343 0.201806 0.962654 0.605419 0.72199C0.928309 0.481326 1.41266 0.320886 2.05844 0.240665C3.10783 0.0802222 3.9958 0 4.7223 0C4.96447 0 5.2066 0.0802222 5.44877 0.240665C5.69094 0.481329 5.81205 0.721991 5.81205 0.962655C5.81205 1.28354 5.69094 1.52421 5.44877 1.68465C5.36805 1.92531 5.16624 2.04564 4.84335 2.04564C4.76263 2.04564 4.64156 2.00553 4.48012 1.92531H4.23793C3.99577 1.92531 3.79396 2.00553 3.63251 2.16597C3.55179 2.2462 3.51146 2.44675 3.51146 2.76763C3.51146 5.41494 3.6729 9.0249 3.99579 13.5975C4.31868 18.491 4.48012 22.1411 4.48012 24.5477V25.9917C4.64156 25.9917 4.88374 25.9917 5.20663 25.9917C6.25602 25.9917 6.7807 26.4329 6.7807 27.3154V27.4357L5.81205 28.1577C5.81205 28.1577 5.73131 28.1577 5.56986 28.1577C5.48914 28.1577 5.24697 28.1577 4.84335 28.1577C4.03613 28.2379 3.51145 28.278 3.26928 28.278V28.278ZM20.8264 28.3983C20.5035 28.3983 20.3017 28.3181 20.221 28.1577C20.0596 27.9972 19.9385 27.7165 19.8578 27.3154L19.6156 26.5934V26.473V26.3527C19.6156 25.5505 18.768 22.7829 17.0728 18.0498C15.3777 13.2365 14.0054 9.70678 12.956 7.46058V26.2324L13.1982 26.473C13.1982 26.473 13.2385 26.5532 13.3192 26.7137C13.3999 26.8741 13.4403 26.9945 13.4403 27.0747C13.4403 27.3956 13.3192 27.6763 13.0771 27.917C12.8349 28.1577 12.5524 28.278 12.2295 28.278C11.4222 28.278 11.0186 27.5159 11.0186 25.9917V19.6141C11.0186 17.6888 11.0186 15.5228 11.0186 13.1162C11.0186 12.3942 11.059 11.2711 11.1397 9.74689C11.2204 8.14246 11.2608 6.97925 11.2608 6.25726C11.2608 5.05394 11.7048 4.1314 12.5927 3.48963V3.73029C12.7542 3.65007 12.8349 3.60996 12.8349 3.60996C13.4 3.60996 14.1265 4.61272 15.0144 6.61826C15.7409 8.22268 16.3867 9.90733 16.9517 11.6722C17.5168 13.4371 18.2433 15.9239 19.1313 19.1328L19.4945 20.5768C20.0596 22.5823 20.5035 23.9862 20.8264 24.7884C21.3108 19.4938 21.5529 13.1964 21.5529 5.89627V5.41494C21.5529 5.2545 21.5529 5.09405 21.5529 4.93361C21.5529 4.21162 21.8758 3.85062 22.5216 3.85062C22.8445 3.85062 23.0867 3.97095 23.2481 4.21162C23.4903 4.45228 23.6113 4.81328 23.6113 5.29461V8.06224C23.5306 11.9129 23.3692 16.0844 23.127 20.5768C22.8848 24.9889 22.562 27.4758 22.1584 28.0373C21.4319 28.278 20.9879 28.3983 20.8264 28.3983V28.3983ZM33.6613 28.7593C33.0963 28.7593 32.4908 28.6791 31.8451 28.5187C31.28 28.3582 30.836 28.1978 30.5131 28.0373C28.818 26.9143 27.9704 23.9862 27.9704 19.2531V18.2905V17.0871V16.2448C27.9704 15.2019 27.9704 14.3195 27.9704 13.5975C27.9704 12.7953 28.0107 11.9129 28.0915 10.9502C28.1722 9.98755 28.2933 9.22545 28.4547 8.6639C28.6161 8.02213 28.8583 7.30014 29.1812 6.49793C29.5041 5.77594 29.8673 5.21438 30.271 4.81328C30.7553 4.41217 31.3607 4.09129 32.0872 3.85062C32.6523 3.60996 33.4192 3.48963 34.3878 3.48963C34.7107 3.48963 34.9932 3.56985 35.2354 3.73029C35.3968 3.89073 35.4776 4.09128 35.4776 4.33195C35.4776 4.57261 35.3968 4.81328 35.2354 5.05394C35.074 5.21439 34.9125 5.33472 34.7511 5.41494H32.9348C32.4505 5.41494 32.0065 5.69571 31.6029 6.25726C31.28 6.89903 31.0378 7.74135 30.8764 8.78423C30.5535 10.5491 30.392 12.0332 30.392 13.2365V13.3568L30.271 16.9668C30.1902 18.0097 30.1499 19.213 30.1499 20.5768C30.1499 21.5394 30.1902 22.3015 30.271 22.8631C30.4324 23.8257 30.6746 24.5878 30.9975 25.1494C31.2396 25.7912 31.724 26.2725 32.4505 26.5934C32.8541 26.7538 33.2981 26.834 33.7824 26.834C34.0246 26.834 34.2667 26.7137 34.5089 26.473C34.8318 26.473 35.1143 26.5532 35.3565 26.7137C35.5987 26.8741 35.7197 27.0747 35.7197 27.3154C35.7197 28.278 35.0336 28.7593 33.6613 28.7593V28.7593ZM40.9264 28.278C38.7468 28.278 37.6571 27.8769 37.6571 27.0747C37.6571 26.5131 38.0607 26.2324 38.8679 26.2324H39.2312H39.5944C39.8366 26.2324 39.998 26.1923 40.0788 26.112C40.1595 25.9516 40.1998 25.7109 40.1998 25.39C40.1998 24.9889 40.1595 24.3472 40.0788 23.4647C39.998 22.823 39.9173 21.74 39.8366 20.2158C39.5944 16.4454 39.4733 13.5574 39.4733 11.5519C39.4733 10.9101 39.4733 10.3084 39.4733 9.74689L39.5944 7.82158C39.5944 7.01936 39.5541 6.33748 39.4733 5.77593C39.0697 5.85615 38.7872 5.89627 38.6258 5.89627C37.98 5.89627 37.6571 5.61549 37.6571 5.05394C37.6571 4.73306 37.8589 4.45228 38.2625 4.21162C38.5854 3.97095 39.0697 3.81051 39.7155 3.73029C40.6842 3.56985 41.5721 3.48963 42.3793 3.48963C42.6215 3.48963 42.8637 3.56985 43.1058 3.73029C43.348 3.97095 43.4691 4.21162 43.4691 4.45228C43.4691 4.77317 43.348 5.01383 43.1058 5.17427C42.9444 5.41494 42.7426 5.53527 42.5004 5.53527C42.4197 5.53527 42.2986 5.49516 42.1372 5.41494H41.895C41.6528 5.41494 41.451 5.49516 41.2896 5.6556C41.2089 5.73582 41.1685 5.93638 41.1685 6.25726C41.1685 8.6639 41.33 12.2739 41.6529 17.0871C41.6529 17.9696 41.7336 19.2932 41.895 21.0581C42.0565 22.1812 42.1372 23.3444 42.1372 24.5477V25.9917C42.2986 25.9917 42.5408 25.9917 42.8637 25.9917C43.9131 25.9917 44.4378 26.4329 44.4378 27.3154V27.4357L43.4691 28.1577C43.4691 28.1577 43.3884 28.1577 43.2269 28.1577C43.0655 28.1577 42.8233 28.1577 42.5004 28.1577C41.6932 28.2379 41.1685 28.278 40.9264 28.278V28.278ZM57.757 28.3983C57.5148 28.3983 57.313 28.3181 57.1516 28.1577C56.9901 27.9972 56.8691 27.7165 56.7883 27.3154L56.5462 26.5934V26.473C56.5462 25.5906 55.6986 22.7829 54.0034 18.0498C52.3082 13.2365 50.9359 9.70678 49.8865 7.46058V26.2324L50.1287 26.473C50.1287 26.473 50.1691 26.5532 50.2498 26.7137C50.3305 26.8741 50.3709 26.9945 50.3709 27.0747C50.3709 27.3956 50.2498 27.6763 50.0076 27.917C49.7655 28.1577 49.4829 28.278 49.16 28.278C48.3528 28.278 47.9492 27.5159 47.9492 25.9917V19.6141C47.9492 17.6888 47.9492 15.5228 47.9492 13.1162C47.9492 12.3942 47.9896 11.2711 48.0703 9.74689C48.151 8.14246 48.1914 6.97925 48.1914 6.25726C48.1914 5.05394 48.6354 4.1314 49.5233 3.48963V3.73029C49.6848 3.65007 49.7655 3.60996 49.7655 3.60996C50.3305 3.60996 51.057 4.61272 51.945 6.61826C52.6715 8.22268 53.3172 9.90733 53.8823 11.6722C54.4474 13.4371 55.1739 15.9239 56.0618 19.1328L56.4251 20.5768C57.0708 22.5823 57.5148 23.9862 57.757 24.7884C58.2413 19.4938 58.4835 13.1964 58.4835 5.89627V5.41494C58.4835 5.2545 58.4835 5.09405 58.4835 4.93361C58.4835 4.21162 58.8064 3.85062 59.4522 3.85062C59.7751 3.85062 60.0172 3.97095 60.1787 4.21162C60.4208 4.45228 60.5419 4.81328 60.5419 5.29461V8.06224C60.4612 11.9129 60.2997 16.0844 60.0576 20.5768C59.8154 24.9889 59.4925 27.4758 59.0889 28.0373C58.3624 28.278 57.9184 28.3983 57.757 28.3983V28.3983ZM67.2015 28.7593C66.8786 28.7593 66.5961 28.639 66.354 28.3983C66.1118 28.1577 65.9907 27.8769 65.9907 27.556V26.5934V25.8714C65.91 25.6307 65.8696 25.39 65.8696 25.1494C65.8696 24.5878 65.8293 23.7856 65.7485 22.7427V20.3361C65.7485 19.1328 65.7889 17.3278 65.8696 14.9212C65.9504 12.7552 65.9907 10.9101 65.9907 9.38589C65.9907 9.06501 65.9504 8.54357 65.8696 7.82158C65.7889 7.09959 65.7485 6.57815 65.7485 6.25726C65.7485 4.49239 66.2732 3.60996 67.3226 3.60996C68.1298 3.60996 69.0985 3.7704 70.2286 4.09129C71.278 4.41217 71.8027 4.81328 71.8027 5.29461C71.8027 5.53527 71.6816 5.77593 71.4395 6.0166C71.278 6.17704 71.0359 6.33748 70.713 6.49793C69.6636 6.09682 68.7353 5.85615 67.928 5.77593C67.928 6.09682 67.928 6.61826 67.928 7.34025C67.928 8.3029 67.928 9.18534 67.928 9.98755C67.8473 11.1909 67.8069 12.1134 67.8069 12.7552L67.928 13.3568L68.5334 13.2365C68.6949 13.2365 68.9371 13.2365 69.26 13.2365C70.4708 13.2365 71.0762 13.5975 71.0762 14.3195C71.0762 14.5602 70.9551 14.8008 70.713 15.0415C70.4708 15.2019 70.1883 15.2822 69.8654 15.2822C69.381 15.2822 69.0178 15.242 68.7756 15.1618H67.8069C67.8877 15.8036 67.928 16.7663 67.928 18.0498C67.928 19.2531 67.928 20.3762 67.928 21.4191C67.8473 22.9433 67.8069 24.0664 67.8069 24.7884C67.8069 26.1521 67.8069 26.834 67.8069 26.834H69.1389C69.5425 26.834 70.0268 26.834 70.5919 26.834C71.5606 26.834 72.0449 27.1148 72.0449 27.6763C72.0449 27.9972 71.8834 28.278 71.5605 28.5187C71.2377 28.6791 70.8744 28.7593 70.4708 28.7593H67.2015ZM82.7003 28.8797C82.1352 28.8797 81.6105 28.278 81.1262 27.0747C80.6418 25.7911 80.2786 24.4675 80.0364 23.1037L79.7943 21.9004C79.0678 18.2905 78.5834 16.2448 78.3412 15.7635H77.8569C77.8569 16.4855 77.8569 17.1674 77.8569 17.8091V19.8548C77.8569 23.1438 78.0991 25.7109 78.5834 27.556L78.2202 28.639H77.1304L76.6461 28.0373V25.5104C76.6461 23.2642 76.525 19.8949 76.2828 15.4025C76.1214 10.509 76.0407 7.09958 76.0407 5.17427C76.0407 3.97095 76.4443 3.36929 77.2515 3.36929C78.6238 3.36929 79.7135 3.73029 80.5207 4.45228C81.4087 5.17428 81.8527 6.13693 81.8527 7.34025V9.98755C81.8527 10.3084 81.8123 10.7497 81.7316 11.3112C81.5701 11.7925 81.4087 12.1535 81.2473 12.3942L80.5207 13.7178L79.9153 14.9212L80.1575 15.7635L80.6418 18.4108C81.0454 20.3361 81.4087 21.9004 81.7316 23.1037C82.0545 24.3071 82.4581 25.39 82.9424 26.3527L83.0635 26.834C83.3864 27.3154 83.5478 27.7165 83.5478 28.0373C83.5478 28.278 83.4671 28.4786 83.3057 28.639C83.1442 28.7995 82.9424 28.8797 82.7003 28.8797V28.8797ZM78.0991 13.9585C78.5834 13.7178 79.0274 12.9557 79.431 11.6722C79.8346 10.4689 80.0364 9.34578 80.0364 8.30291C80.0364 7.50069 79.9557 6.73859 79.7943 6.0166C79.6328 5.61549 79.3906 5.33472 79.0678 5.17427C78.8256 4.93361 78.5027 4.81328 78.0991 4.81328L77.978 5.05394L77.8569 5.29461L77.978 9.74689C78.0587 11.0304 78.0991 12.4343 78.0991 13.9585ZM94.5665 28.639C94.0014 28.639 93.5574 28.5588 93.2345 28.3983C92.9924 28.1577 92.8713 27.8368 92.8713 27.4357C92.8713 26.6335 92.7502 25.3499 92.5081 23.5851L92.387 22.7427L88.6334 22.2614C88.4719 22.823 88.2701 23.9862 88.028 25.751C87.8665 26.9544 87.6243 27.7566 87.3014 28.1577C87.14 28.3983 86.8978 28.5187 86.5749 28.5187C86.252 28.5187 85.9695 28.3983 85.7274 28.1577C85.4852 27.9972 85.3641 27.7566 85.3641 27.4357V27.3154L85.4852 27.195C87.0996 20.7773 88.3508 14.4799 89.2388 8.30291C89.2388 8.14246 89.2388 7.98202 89.2388 7.82158C89.2388 7.50069 89.2792 7.13969 89.3599 6.73859C89.4406 5.77593 89.481 5.05394 89.481 4.57261C89.6424 4.01106 89.8039 3.56985 89.9653 3.24896H91.2972C91.6201 3.24896 91.9026 3.32919 92.1448 3.48963C92.387 3.65007 92.5081 3.89073 92.5081 4.21162C92.5081 6.13693 92.7906 8.94468 93.3556 12.6349C93.84 16.4855 94.0821 19.1729 94.0821 20.6971C94.0821 20.8575 94.1629 21.2586 94.3243 21.9004C94.405 22.462 94.4454 22.823 94.4454 22.9834C94.4454 23.1438 94.5665 23.9059 94.8087 25.2697C95.0508 26.3928 95.1719 27.1549 95.1719 27.556C95.1719 28.1176 94.9701 28.4786 94.5665 28.639V28.639ZM92.1448 21.4191C92.0641 21.0982 92.0237 20.657 92.0237 20.0954C92.0237 17.8492 91.8219 14.9613 91.4183 11.4315L91.055 7.58091C89.9249 13.4371 89.1581 17.8492 88.7545 20.8174C89.1581 21.0581 90.2882 21.2586 92.1448 21.4191ZM101.226 28.1577L100.5 27.6763V26.2324C100.419 25.8313 100.379 25.3499 100.379 24.7884L100.5 23.5851C100.419 23.2642 100.217 20.5367 99.8942 15.4025C99.5713 10.1881 99.4098 6.85892 99.4098 5.41494C97.9568 5.33472 97.0285 5.17427 96.6249 4.93361C96.302 4.77317 96.1406 4.57261 96.1406 4.33195C96.1406 4.09128 96.2617 3.89073 96.5038 3.73029C96.8267 3.56985 97.1093 3.48963 97.3514 3.48963C98.0779 3.48963 98.9255 3.52974 99.8942 3.60996C100.863 3.7704 101.71 3.85062 102.437 3.85062H102.8H103.042C103.85 3.85062 104.253 4.1314 104.253 4.69295C104.253 5.01383 104.132 5.2946 103.89 5.53527C103.648 5.69571 103.365 5.77593 103.042 5.77593C102.8 5.77593 102.477 5.73582 102.074 5.6556L101.347 5.53527L101.226 5.6556V5.89627C101.226 8.06224 101.428 11.592 101.831 16.4855C102.235 20.9779 102.437 24.5076 102.437 27.0747C102.437 27.3154 102.316 27.556 102.074 27.7967C101.832 28.0373 101.549 28.1577 101.226 28.1577ZM109.823 28.278C107.724 28.278 106.675 27.8769 106.675 27.0747C106.675 26.5131 107.038 26.2324 107.765 26.2324H108.249H108.612C108.774 26.2324 108.895 26.1923 108.975 26.112C109.056 25.9516 109.097 25.7109 109.097 25.39C109.097 24.9889 109.056 24.3472 108.975 23.4647C108.895 22.823 108.814 21.74 108.733 20.2158C108.491 16.4454 108.37 13.5574 108.37 11.5519C108.37 10.9101 108.41 10.3084 108.491 9.74689V7.82158C108.491 7.01936 108.451 6.33748 108.37 5.77593C107.966 5.85615 107.684 5.89627 107.522 5.89627C106.957 5.89627 106.675 5.61549 106.675 5.05394C106.675 4.73306 106.836 4.45228 107.159 4.21162C107.563 3.97095 108.047 3.81051 108.612 3.73029C109.581 3.56985 110.469 3.48963 111.276 3.48963C111.599 3.48963 111.841 3.56985 112.003 3.73029C112.245 3.97095 112.366 4.21162 112.366 4.45228C112.366 4.77317 112.285 5.01383 112.124 5.17427C111.962 5.41494 111.76 5.53527 111.518 5.53527C111.357 5.53527 111.236 5.49516 111.155 5.41494H110.792C110.55 5.41494 110.388 5.49516 110.307 5.6556C110.146 5.73582 110.065 5.93638 110.065 6.25726C110.065 8.6639 110.227 12.2739 110.55 17.0871C110.63 17.9696 110.751 19.2932 110.913 21.0581C110.994 22.1812 111.034 23.3444 111.034 24.5477V25.9917C111.195 25.9917 111.437 25.9917 111.76 25.9917C112.81 25.9917 113.334 26.4329 113.334 27.3154V27.4357L112.487 28.1577C112.406 28.1577 112.285 28.1577 112.124 28.1577C112.043 28.1577 111.801 28.1577 111.397 28.1577C110.59 28.2379 110.065 28.278 109.823 28.278V28.278ZM120.842 29C120.196 29 119.59 28.7994 119.025 28.3983C118.541 27.9972 118.097 27.4357 117.693 26.7137C116.967 25.1895 116.523 23.545 116.362 21.7801C116.119 20.0954 115.998 18.4509 115.998 16.8465C115.998 16.5256 116.039 16.2849 116.119 16.1245V15.4025C116.119 15.3223 116.079 15.2822 115.998 15.2822V14.5602L116.119 12.0332C116.119 11.231 116.2 9.94744 116.362 8.18257C116.523 6.97925 116.806 5.81605 117.209 4.69295C117.371 4.21162 117.613 3.85062 117.936 3.60996C118.178 3.28907 118.501 3.12863 118.904 3.12863C119.873 3.12863 120.761 3.32918 121.568 3.73029C122.375 4.05117 123.062 4.5325 123.627 5.17427C124.111 5.81604 124.515 6.61826 124.837 7.58091C125.241 8.46335 125.483 9.426 125.564 10.4689C125.725 11.5118 125.806 12.5947 125.806 13.7178V14.0788C125.806 14.8008 125.846 15.4827 125.927 16.1245V18.2905C125.927 25.4301 124.232 29 120.842 29V29ZM120.721 27.4357C121.205 27.4357 121.609 27.2752 121.931 26.9544C122.335 26.5533 122.618 26.0318 122.779 25.39C123.263 24.1065 123.586 22.7427 123.748 21.2988C123.828 20.0152 123.869 18.9322 123.869 18.0498C123.869 16.9267 123.788 15.4426 123.627 13.5975C123.465 11.6722 123.384 10.2683 123.384 9.38589V8.6639C123.304 7.70125 122.981 6.85892 122.416 6.13693C121.851 5.49516 121.124 5.17427 120.236 5.17427C119.429 5.17427 118.864 5.6556 118.541 6.61826C118.299 7.42047 118.178 8.42324 118.178 9.62656C118.178 10.1079 118.218 10.509 118.299 10.8299V11.7925L118.178 13.4772C118.097 14.0387 118.057 14.6404 118.057 15.2822C118.057 16.5657 118.097 17.8894 118.178 19.2531C118.339 21.0982 118.622 22.9032 119.025 24.6681C119.348 26.5131 119.913 27.4357 120.721 27.4357V27.4357ZM140.215 28.3983C139.973 28.3983 139.771 28.3181 139.61 28.1577C139.448 27.9972 139.327 27.7165 139.246 27.3154L139.004 26.5934V26.473C139.004 25.5906 138.157 22.7829 136.461 18.0498C134.766 13.2365 133.394 9.70678 132.345 7.46058V26.2324L132.587 26.473C132.587 26.473 132.627 26.5532 132.708 26.7137C132.789 26.8741 132.829 26.9945 132.829 27.0747C132.829 27.3956 132.708 27.6763 132.466 27.917C132.224 28.1577 131.941 28.278 131.618 28.278C130.811 28.278 130.407 27.5159 130.407 25.9917V19.6141C130.407 17.6888 130.407 15.5228 130.407 13.1162C130.407 12.3942 130.448 11.2711 130.528 9.74689C130.609 8.14246 130.649 6.97925 130.649 6.25726C130.649 5.05394 131.093 4.1314 131.981 3.48963V3.73029C132.143 3.65007 132.224 3.60996 132.224 3.60996C132.789 3.60996 133.515 4.61272 134.403 6.61826C135.13 8.22268 135.775 9.90733 136.34 11.6722C136.905 13.4371 137.632 15.9239 138.52 19.1328L138.883 20.5768C139.529 22.5823 139.973 23.9862 140.215 24.7884C140.699 19.4938 140.942 13.1964 140.942 5.89627V5.41494C140.942 5.2545 140.942 5.09405 140.942 4.93361C140.942 4.21162 141.264 3.85062 141.91 3.85062C142.233 3.85062 142.475 3.97095 142.637 4.21162C142.879 4.45228 143 4.81328 143 5.29461V8.06224C142.919 11.9129 142.758 16.0844 142.516 20.5768C142.274 24.9889 141.951 27.4758 141.547 28.0373C140.821 28.278 140.377 28.3983 140.215 28.3983V28.3983Z" fill="#325949"/>
</svg>
