<svg width="174" height="124" viewBox="0 0 174 124" fill="none" xmlns="http://www.w3.org/2000/svg">
<g clip-path="url(#clip0_49_43)">
<g clip-path="url(#clip1_49_43)">
<path d="M86.9998 97.6637C106.923 97.6637 123.074 81.5128 123.074 61.5897C123.074 41.6665 106.923 25.5156 86.9998 25.5156C67.0767 25.5156 50.9258 41.6665 50.9258 61.5897C50.9258 81.5128 67.0767 97.6637 86.9998 97.6637Z" fill="#359A8B"/>
<g clip-path="url(#clip2_49_43)">
<path d="M87.2416 44.3231C87.7267 44.3231 88.1199 43.9298 88.1199 43.4447C88.1199 42.9596 87.7267 42.5664 87.2416 42.5664C86.7565 42.5664 86.3633 42.9596 86.3633 43.4447C86.3633 43.9298 86.7565 44.3231 87.2416 44.3231Z" fill="#C9EFC7"/>
<path d="M74.1811 55.2594L76.742 52.1371C76.9587 51.8736 76.9198 51.4847 76.6567 51.2688C76.3936 51.0526 76.0042 51.0915 75.7884 51.3542L72.8723 54.9089C72.6712 55.154 72.6887 55.5124 72.9133 55.7366L76.0891 58.9116C76.2096 59.0324 76.3673 59.0927 76.5249 59.0927C76.683 59.0927 76.8407 59.0324 76.9612 58.9116C77.2021 58.6706 77.2021 58.28 76.9612 58.0391L74.1811 55.2594Z" fill="#C9EFC7"/>
<path d="M84.9828 54.484L81.8071 51.3086C81.5661 51.0677 81.1759 51.0677 80.9346 51.3086C80.6937 51.5499 80.6937 51.9406 80.9346 52.1815L83.7147 54.9612L81.1538 58.0835C80.9379 58.3469 80.9764 58.7359 81.2399 58.9522C81.3545 59.0463 81.493 59.0919 81.631 59.0919C81.8096 59.0919 81.9869 59.0145 82.1086 58.866L85.0238 55.3113C85.2246 55.0662 85.2074 54.7082 84.9828 54.484Z" fill="#C9EFC7"/>
<path d="M103.585 40.6826H70.486C68.4194 40.6826 66.541 42.364 66.541 44.4302V67.6883C66.541 69.7553 68.4194 71.6332 70.486 71.6332H83.5684C83.6349 72.4697 83.6985 75.0913 83.4334 75.9701C82.9469 76.6932 77.7911 78.214 73.3267 79.255C73.049 79.3203 72.8148 79.5189 72.8148 79.8046V81.8925C72.8148 82.2326 73.164 82.5078 73.5036 82.5078H100.567C100.907 82.5078 101.256 82.2326 101.256 81.8925V79.8046C101.256 79.5185 101.022 79.2705 100.744 79.2048C96.2548 78.1651 91.0894 76.692 90.621 76.0157C90.3378 75.0951 90.35 72.4697 90.3977 71.6332H103.585C105.651 71.6332 107.53 69.7553 107.53 67.6883V44.4302C107.53 42.364 105.651 40.6826 103.585 40.6826ZM100.001 80.2923V81.253H74.0695V80.2919C78.6703 79.1885 84.1481 77.7317 84.5656 76.3762C84.9286 75.1934 84.8588 72.4697 84.8006 71.6332H89.1663C89.1228 72.4697 89.0877 75.1942 89.4516 76.3775C89.8682 77.7326 95.4004 79.1885 100.001 80.2923ZM106.275 67.8606C106.275 69.2517 104.729 70.3785 103.339 70.3785H70.3136C68.923 70.3785 67.7958 69.2521 67.7958 67.8606V44.4548C67.7958 43.0646 68.923 41.9374 70.3136 41.9374H103.339C104.729 41.9374 106.275 43.0646 106.275 44.4548V67.8606Z" fill="#C9EFC7"/>
<path d="M103.568 45.7012H70.502C70.1623 45.7012 69.8867 45.9768 69.8867 46.3164V64.7437C69.8867 65.0838 70.1623 65.359 70.502 65.359H103.568C103.908 65.359 104.183 65.0838 104.183 64.7437V46.3164C104.183 45.9768 103.908 45.7012 103.568 45.7012ZM71.1415 46.9559H86.6168V64.1042H71.1415V46.9559ZM102.929 64.1042H87.8715V46.9559H102.929V64.1042Z" fill="#C9EFC7"/>
<path d="M89.3354 55.7397H101.465C101.811 55.7397 102.092 55.4591 102.092 55.1124V48.4203C102.092 48.0736 101.811 47.793 101.465 47.793H89.3354C88.9891 47.793 88.708 48.0736 88.708 48.4203V55.1124C88.708 55.4591 88.9891 55.7397 89.3354 55.7397ZM89.9628 49.0477H100.837V54.485H89.9628V49.0477Z" fill="#C9EFC7"/>
<path d="M101.255 56.9941H89.5444C89.1981 56.9941 88.917 57.2748 88.917 57.6215C88.917 57.9682 89.1981 58.2489 89.5444 58.2489H101.255C101.602 58.2489 101.883 57.9682 101.883 57.6215C101.883 57.2748 101.602 56.9941 101.255 56.9941Z" fill="#C9EFC7"/>
<path d="M101.255 59.5039H89.5444C89.1981 59.5039 88.917 59.7846 88.917 60.1313C88.917 60.478 89.1981 60.7587 89.5444 60.7587H101.255C101.602 60.7587 101.883 60.478 101.883 60.1313C101.883 59.7846 101.602 59.5039 101.255 59.5039Z" fill="#C9EFC7"/>
<path d="M101.255 62.0137H89.5444C89.1981 62.0137 88.917 62.2947 88.917 62.641C88.917 62.9874 89.1981 63.2684 89.5444 63.2684H101.255C101.602 63.2684 101.883 62.9874 101.883 62.641C101.883 62.2947 101.602 62.0137 101.255 62.0137Z" fill="#C9EFC7"/>
</g>
</g>
<path d="M37.9956 47.1513L37.4272 48.7649L25.6631 44.6212L26.125 43.3107L37.1742 40.7275L28.154 37.5503L28.7162 35.9538L40.4803 40.097L40.0245 41.3913L28.9753 43.9741L37.9956 47.1513ZM53.5008 23.9865C52.8937 24.5285 52.3086 24.9455 51.7455 25.2381C51.1802 25.528 50.6012 25.6507 50.0087 25.6072C49.4183 25.561 48.7685 25.2952 48.0598 24.8096C47.3511 24.3195 46.546 23.5694 45.6437 22.5598C44.7436 21.5523 44.0886 20.6676 43.6794 19.9066C43.2721 19.1433 43.0741 18.4557 43.0855 17.8446C43.1009 17.2336 43.2813 16.6643 43.6266 16.1368C43.9715 15.6094 44.4475 15.0744 45.0546 14.5324C45.6767 13.9764 46.2715 13.5545 46.839 13.2668C47.406 12.979 47.9898 12.866 48.5899 12.9271C49.1922 12.9905 49.8485 13.2681 50.559 13.7604C51.2695 14.2526 52.0746 15.0023 52.9751 16.0101C53.8769 17.0198 54.532 17.9045 54.9394 18.6633C55.3445 19.42 55.5359 20.0953 55.513 20.6892C55.4897 21.2835 55.3027 21.8449 54.9512 22.3741C54.5975 22.9007 54.1141 23.4383 53.5008 23.9865ZM52.4854 22.8501C52.9219 22.4608 53.2522 22.0816 53.477 21.7138C53.7018 21.3456 53.7978 20.9536 53.7643 20.5374C53.7331 20.1191 53.551 19.6387 53.2175 19.0962C52.8845 18.5538 52.3794 17.904 51.7028 17.1465C50.9906 16.3493 50.3751 15.7501 49.8573 15.3485C49.3395 14.9473 48.8785 14.708 48.4751 14.6305C48.0734 14.5509 47.6814 14.6068 47.2983 14.7977C46.9155 14.9886 46.5055 15.279 46.0696 15.6688C45.6573 16.0365 45.3375 16.3982 45.1092 16.7532C44.8809 17.1086 44.7792 17.494 44.8043 17.9097C44.8272 18.3272 45.0054 18.8191 45.3397 19.3848C45.6714 19.9523 46.1936 20.6347 46.9059 21.4322C47.5825 22.1894 48.1693 22.7661 48.6664 23.162C49.164 23.5584 49.6184 23.7951 50.0307 23.873C50.4402 23.953 50.8406 23.902 51.2317 23.7199C51.6201 23.5399 52.0385 23.25 52.4859 22.8506L52.4854 22.8501ZM75.6969 12.738C74.9767 12.9188 74.327 12.9944 73.7471 12.9658C73.1699 12.9359 72.6473 12.7503 72.1788 12.4089C71.7103 12.0671 71.2857 11.511 70.9052 10.7398C70.5251 9.96906 70.1714 8.93259 69.8445 7.63085C69.5361 6.40389 69.3729 5.36874 69.354 4.5254C69.3316 3.67986 69.4486 2.98741 69.7051 2.4485C69.958 1.90739 70.3359 1.48022 70.8392 1.16699C71.3421 0.853766 71.9553 0.606527 72.6781 0.424837C73.0815 0.323654 73.5043 0.240507 73.9473 0.174958C74.3907 0.112928 74.8214 0.0658562 75.2394 0.0341814C75.6577 0.00602608 76.0361 -0.00497211 76.3748 0.00206673L76.688 1.25058C76.4813 1.26862 76.2046 1.29985 75.8575 1.34428C75.5082 1.39224 75.1171 1.45647 74.6846 1.53785C74.2482 1.6166 73.8008 1.71382 73.3428 1.82864C72.7956 1.96634 72.3464 2.14627 71.9953 2.36932C71.6438 2.59236 71.3891 2.89943 71.2303 3.2914C71.075 3.68558 71.0191 4.20029 71.0623 4.83555C71.1054 5.4708 71.2479 6.26927 71.4894 7.23139C71.734 8.20495 71.9857 8.98846 72.2448 9.58148C72.5039 10.1745 72.7907 10.6096 73.1053 10.8854C73.4189 11.1591 73.7828 11.3108 74.1981 11.3416C74.6129 11.372 75.1039 11.3161 75.6714 11.1736C76.4923 10.9673 77.1592 10.7768 77.6726 10.6021C78.1882 10.4235 78.6048 10.2717 78.922 10.1459L79.2401 11.4116C78.9304 11.5691 78.5868 11.7305 78.2089 11.8959C77.831 12.0609 77.4298 12.214 77.0057 12.3539C76.5825 12.4969 76.1461 12.6249 75.6969 12.738ZM99.6021 13.1357C98.8102 12.9496 98.1327 12.7098 97.5701 12.4164C97.0083 12.1199 96.5754 11.716 96.2714 11.2057C95.9701 10.6958 95.8148 10.0109 95.806 9.15167C95.8007 8.2903 95.9529 7.2006 96.2622 5.88213C96.571 4.56675 96.9194 3.52324 97.3083 2.75117C97.6994 1.97954 98.149 1.42303 98.6563 1.08165C99.1657 0.743784 99.7354 0.564734 100.365 0.544497C100.995 0.5247 101.706 0.607847 102.499 0.793496C103.311 0.984424 103.997 1.22946 104.559 1.52861C105.12 1.8282 105.548 2.2413 105.842 2.76789C106.135 3.29712 106.285 3.99441 106.289 4.85842C106.294 5.72288 106.142 6.81258 105.833 8.12796C105.524 9.44643 105.175 10.4904 104.787 11.2594C104.4 12.0257 103.956 12.5699 103.457 12.8919C102.957 13.214 102.39 13.3829 101.755 13.3983C101.121 13.411 100.403 13.3235 99.6021 13.1357ZM99.9501 11.6527C100.52 11.7864 101.02 11.8396 101.45 11.8124C101.88 11.7851 102.257 11.6386 102.578 11.3724C102.903 11.1072 103.191 10.6822 103.445 10.098C103.698 9.51373 103.94 8.72714 104.172 7.73863C104.416 6.69776 104.554 5.85002 104.586 5.19541C104.618 4.5408 104.549 4.02608 104.381 3.65126C104.216 3.27689 103.945 2.98741 103.569 2.78329C103.193 2.57916 102.72 2.41023 102.151 2.27693C101.613 2.15067 101.133 2.09612 100.711 2.11284C100.289 2.12955 99.9153 2.26769 99.5889 2.52681C99.2598 2.78505 98.9598 3.2131 98.6879 3.8114C98.4138 4.40882 98.1543 5.22796 97.9101 6.26883C97.6783 7.25779 97.5424 8.06945 97.5036 8.70383C97.4645 9.3382 97.5314 9.84632 97.7038 10.2286C97.8736 10.61 98.1451 10.9087 98.5186 11.1243C98.889 11.3394 99.3663 11.5154 99.9501 11.6527ZM122.237 25.3991L118.456 22.0635L126.706 12.7098L130.488 16.0453C131.074 16.5618 131.471 17.1007 131.681 17.6621C131.893 18.2252 131.945 18.8156 131.836 19.4323C131.726 20.0518 131.471 20.6998 131.071 21.3768C130.67 22.0521 130.144 22.7586 129.493 23.4955C128.614 24.4933 127.75 25.2367 126.904 25.7251C126.061 26.2134 125.246 26.4351 124.458 26.3898C123.673 26.3418 122.932 26.0119 122.237 25.3991ZM126.981 14.9838L120.746 22.0525L123.132 24.1563C123.597 24.5667 124.098 24.7572 124.635 24.7282C125.174 24.7005 125.744 24.4805 126.345 24.0687C126.947 23.6605 127.568 23.0925 128.211 22.364C128.8 21.6962 129.256 21.1027 129.579 20.5836C129.904 20.0628 130.108 19.5942 130.189 19.1789C130.27 18.7592 130.238 18.3805 130.093 18.0426C129.947 17.7043 129.705 17.3862 129.367 17.0875L126.981 14.9838ZM134.969 44.4585C134.868 44.1954 134.784 43.9077 134.718 43.5958C134.652 43.2839 134.643 42.9645 134.692 42.6367C134.741 42.3094 134.89 42.0002 135.141 41.7094C135.392 41.4186 135.787 41.1696 136.324 40.9628L143.241 38.2982C143.703 38.1196 144.121 38.0417 144.492 38.0641C144.862 38.0839 145.185 38.1741 145.461 38.3356C145.732 38.4948 145.964 38.7047 146.157 38.9647C146.345 39.2229 146.494 39.4948 146.604 39.7803C146.857 40.4692 147.087 41.1031 147.294 41.6821C147.498 42.2619 147.684 42.803 147.852 43.3045C148.024 43.8083 148.185 44.29 148.338 44.7501L147.028 45.2547L145.3 40.7697C145.151 40.3817 144.932 40.116 144.644 39.9721C144.359 39.8274 144.002 39.8375 143.573 40.0029L141.154 40.9351L142.993 45.9929L141.762 46.4672L139.72 41.4876L137.334 42.4067C136.976 42.5443 136.731 42.7089 136.598 42.9003C136.466 43.0877 136.407 43.2922 136.419 43.5135C136.43 43.7322 136.478 43.9521 136.563 44.1738L138.278 48.6255L136.969 49.1301C136.749 48.6576 136.523 48.1591 136.292 47.6339C136.058 47.1068 135.829 46.5745 135.606 46.0369C135.381 45.5029 135.168 44.9767 134.969 44.4585H134.969ZM29.4328 82.2874L28.8592 80.6614L40.717 76.4764L41.1824 77.7953L34.1431 86.8129L43.2329 83.6045L43.8008 85.2133L31.9426 89.3984L31.4816 88.0922L38.5226 79.079L29.4328 82.2874ZM47.3352 109.357C46.7259 108.813 46.2429 108.274 45.887 107.742C45.5284 107.211 45.3388 106.645 45.3173 106.045C45.2962 105.449 45.4897 104.768 45.8984 104.002C46.3054 103.239 46.9635 102.348 47.8728 101.329C48.7826 100.309 49.5956 99.5523 50.3122 99.0574C51.0284 98.5625 51.6931 98.2858 52.306 98.2281C52.9192 98.174 53.5096 98.2911 54.0771 98.5788C54.6464 98.8638 55.2354 99.2783 55.8447 99.822C56.4743 100.384 56.9648 100.933 57.3172 101.47C57.6691 102.004 57.849 102.574 57.8561 103.181C57.8614 103.791 57.6586 104.48 57.2477 105.248C56.8372 106.016 56.1769 106.909 55.2671 107.928C54.3578 108.947 53.5466 109.702 52.8343 110.193C52.1199 110.686 51.4639 110.954 50.867 110.998C50.2704 111.047 49.6884 110.924 49.1204 110.627C48.5507 110.334 47.9555 109.91 47.3352 109.357ZM48.3585 108.21C48.8015 108.606 49.2185 108.894 49.6096 109.076C50.0029 109.26 50.4064 109.312 50.8203 109.231C51.2365 109.153 51.6975 108.915 52.2026 108.518C52.7063 108.124 53.2989 107.544 53.9812 106.78C54.7009 105.974 55.2319 105.289 55.5746 104.728C55.9169 104.165 56.106 103.677 56.1412 103.263C56.1725 102.849 56.0704 102.462 55.8355 102.1C55.6028 101.741 55.2649 101.364 54.8215 100.969C54.4075 100.599 54.0098 100.32 53.6288 100.131C53.2478 99.9421 52.8501 99.884 52.4357 99.9557C52.0196 100.03 51.5471 100.265 51.0183 100.661C50.4899 101.057 49.8657 101.658 49.146 102.465C48.4636 103.229 47.9529 103.882 47.6133 104.422C47.2719 104.966 47.0858 105.448 47.055 105.871C47.0224 106.291 47.1192 106.686 47.3467 107.056C47.5715 107.424 47.9089 107.808 48.3585 108.21ZM73.4519 122.671C72.723 122.488 72.1102 122.247 71.6126 121.948C71.1133 121.645 70.7367 121.231 70.4829 120.704C70.2268 120.175 70.1142 119.478 70.1446 118.613C70.1745 117.748 70.3549 116.658 70.6844 115.345C70.9945 114.11 71.3416 113.111 71.7252 112.35C72.1084 111.592 72.5413 111.034 73.0235 110.674C73.5083 110.315 74.0485 110.115 74.6433 110.075C75.2407 110.038 75.9032 110.111 76.6322 110.294C77.0382 110.396 77.4548 110.523 77.8816 110.676C78.3052 110.831 78.7095 110.996 79.0944 111.169C79.4803 111.339 79.8221 111.509 80.1195 111.678L79.8036 112.936C79.6131 112.854 79.3514 112.75 79.0188 112.624C78.6853 112.5 78.3074 112.37 77.8855 112.234C77.4601 112.099 77.0171 111.975 76.5561 111.859C76.0031 111.72 75.5178 111.666 75.0999 111.696C74.682 111.725 74.3102 111.878 73.9834 112.154C73.6543 112.43 73.3582 112.86 73.0952 113.443C72.8321 114.029 72.5782 114.807 72.335 115.778C72.0882 116.76 71.9386 117.575 71.8862 118.223C71.8339 118.871 71.8818 119.393 72.0305 119.789C72.1766 120.184 72.4265 120.493 72.7806 120.716C73.1348 120.94 73.5998 121.124 74.1761 121.269C75.0027 121.476 75.6863 121.625 76.227 121.715C76.7681 121.804 77.2098 121.868 77.5525 121.905L77.2327 123.179C76.8821 123.174 76.4993 123.155 76.0853 123.121C75.6714 123.088 75.2429 123.032 74.7999 122.955C74.3533 122.879 73.9042 122.785 73.4519 122.671ZM101.714 122.305C100.919 122.491 100.201 122.577 99.5599 122.563C98.9198 122.551 98.3479 122.382 97.8441 122.055C97.3439 121.729 96.8979 121.18 96.5059 120.405C96.1144 119.634 95.7628 118.583 95.4514 117.253C95.1395 115.923 94.9868 114.823 94.9934 113.952C94.9996 113.081 95.1553 112.378 95.4597 111.843C95.7681 111.311 96.2028 110.895 96.7641 110.595C97.3246 110.293 98.0025 110.049 98.7975 109.862C99.6188 109.67 100.35 109.584 100.993 109.604C101.631 109.622 102.201 109.803 102.702 110.146C103.205 110.492 103.652 111.053 104.044 111.831C104.437 112.608 104.789 113.662 105.101 114.992C105.413 116.321 105.564 117.419 105.557 118.284C105.55 119.152 105.393 119.843 105.087 120.357C104.784 120.873 104.348 121.279 103.78 121.574C103.212 121.872 102.523 122.115 101.714 122.305ZM101.363 120.809C101.941 120.673 102.417 120.498 102.791 120.282C103.167 120.066 103.441 119.765 103.613 119.38C103.788 118.994 103.858 118.481 103.824 117.839C103.79 117.2 103.656 116.383 103.422 115.385C103.176 114.333 102.921 113.505 102.657 112.901C102.394 112.298 102.103 111.863 101.784 111.597C101.463 111.333 101.088 111.194 100.657 111.179C100.229 111.163 99.7266 111.223 99.1481 111.359C98.6074 111.485 98.1508 111.65 97.7773 111.854C97.4042 112.057 97.1279 112.349 96.9485 112.73C96.7703 113.113 96.6911 113.635 96.7118 114.295C96.732 114.955 96.8657 115.812 97.1125 116.864C97.3461 117.862 97.5868 118.654 97.8345 119.243C98.083 119.834 98.3712 120.264 98.6994 120.532C99.0249 120.8 99.4041 120.948 99.837 120.974C100.268 121.001 100.776 120.946 101.363 120.809ZM128.237 107.82L124.424 111.18L116.111 101.744L119.924 98.3848C120.513 97.8661 121.101 97.5375 121.691 97.398C122.28 97.2585 122.878 97.2805 123.483 97.464C124.087 97.6514 124.702 97.9901 125.328 98.4802C125.953 98.9659 126.593 99.5796 127.247 100.321C128.134 101.329 128.769 102.285 129.152 103.191C129.536 104.099 129.654 104.943 129.506 105.722C129.36 106.504 128.937 107.204 128.237 107.82ZM118.417 101.761L124.698 108.89L127.108 106.767C127.575 106.354 127.83 105.877 127.87 105.335C127.909 104.794 127.76 104.197 127.425 103.542C127.092 102.89 126.601 102.196 125.953 101.461C125.361 100.788 124.825 100.257 124.347 99.8669C123.866 99.4789 123.423 99.2162 123.018 99.079C122.612 98.9457 122.229 98.9303 121.872 99.0314C121.516 99.1353 121.167 99.3372 120.826 99.6377L118.417 101.761ZM143.557 85.2965C143.454 85.5622 143.322 85.8345 143.16 86.1125C142.998 86.3906 142.788 86.6356 142.528 86.8472C142.27 87.0597 141.949 87.1891 141.566 87.2348C141.182 87.281 140.72 87.1996 140.18 86.9906L133.208 84.2974C132.739 84.1166 132.373 83.894 132.109 83.6296C131.849 83.3634 131.67 83.0775 131.571 82.7722C131.477 82.4651 131.447 82.151 131.481 81.8303C131.514 81.5083 131.585 81.2034 131.697 80.9152C131.974 80.2298 132.232 79.6021 132.472 79.0324C132.709 78.4587 132.935 77.9268 133.15 77.4367C133.365 76.9471 133.57 76.4773 133.766 76.0277L135.087 76.538L133.341 81.0587C133.189 81.452 133.172 81.7986 133.288 82.0982C133.404 82.4009 133.679 82.6362 134.114 82.8043L136.549 83.7449L138.601 78.7165L139.844 79.1965L137.995 84.3036L140.401 85.2327C140.761 85.3721 141.055 85.4139 141.283 85.3589C141.51 85.3066 141.693 85.1957 141.832 85.0264C141.971 84.8544 142.085 84.6564 142.171 84.432L143.905 79.9443L145.226 80.4546C145.071 80.9553 144.901 81.4814 144.716 82.034C144.535 82.5852 144.348 83.1364 144.154 83.6885C143.956 84.2424 143.756 84.7782 143.557 85.2965ZM29.4082 63.1954C29.4082 62.3996 30.0536 61.7547 30.8494 61.7547C31.6452 61.7547 32.2906 62.3996 32.2906 63.1954C32.2906 63.9912 31.6452 64.6366 30.8494 64.6366C30.0536 64.6366 29.4082 63.9912 29.4082 63.1954ZM141.662 63.1954C141.662 62.3996 142.307 61.7547 143.103 61.7547C143.899 61.7547 144.544 62.3996 144.544 63.1954C144.544 63.9912 143.899 64.6366 143.103 64.6366C142.307 64.6366 141.662 63.9912 141.662 63.1954Z" fill="#E6F0DE"/>
</g>
<defs>
<clipPath id="clip0_49_43">
<rect width="174" height="123.18" fill="white"/>
</clipPath>
<clipPath id="clip1_49_43">
<rect width="89.8401" height="72.5843" fill="white" transform="translate(42.0801 25.2979)"/>
</clipPath>
<clipPath id="clip2_49_43">
<rect width="59.081" height="41.8251" fill="white" transform="translate(57.4951 40.6826)"/>
</clipPath>
</defs>
</svg>
