<svg width="399" height="65" viewBox="0 0 399 65" fill="none" xmlns="http://www.w3.org/2000/svg">
<path d="M24.8881 65C24.3575 65 23.9153 64.7379 23.5616 64.2137C23.2079 63.6895 23.031 62.9032 23.031 61.8548V49.7984C23.031 48.75 23.031 47.09 23.031 44.8185C22.8541 39.7513 22.7657 33.9852 22.7657 27.5202V23.5887C22.2351 26.2097 21.3507 29.7917 20.1127 34.3347C19.0515 39.2271 18.2556 43.246 17.725 46.3911V46.9153L17.4597 48.4879C17.2829 49.711 17.0176 50.9341 16.6639 52.1573C16.1333 53.5551 15.249 54.254 14.0109 54.254C12.0654 54.254 11.0926 51.633 11.0926 46.3911C11.0926 43.5954 10.8274 40.625 10.2968 37.4798C9.58932 34.1599 8.61655 30.1411 7.3785 25.4234L4.99085 16.5121L4.72554 26.2097C4.72554 29.1801 4.90244 34.7715 5.25616 42.9839L5.5214 48.4879V59.496C5.5214 60.7191 5.16768 61.7675 4.46023 62.6411C3.04531 62.6411 2.07254 62.2043 1.54195 61.3306C1.01136 60.457 0.746094 59.2339 0.746094 57.6613L1.01141 51.1089C1.01141 48.1384 1.01141 45.9543 1.01141 44.5564V28.8306L0.746094 13.1048C0.746094 10.6586 0.834542 7.16398 1.01141 2.62097L3.13375 1.31048C3.66434 1.31048 4.1065 1.57258 4.46023 2.09677C4.99082 2.7957 5.52143 3.75672 6.05202 4.97984C7.46694 8.29973 9.23558 15.0269 11.3579 25.1613C11.7117 26.5591 11.8886 27.6949 11.8886 28.5685C12.596 31.7137 13.1266 34.0726 13.4803 35.6452L14.5415 41.9355L15.0721 39.3145L16.6639 32.5C17.5482 28.6559 18.2556 25.2487 18.7862 22.2782C19.4937 19.4825 20.1127 16.3374 20.6433 12.8427C21.1739 8.82393 21.5276 5.41667 21.7045 2.62097V2.09677C21.8814 1.39785 22.2351 0.873658 22.7657 0.524195C23.2963 0.174733 23.9153 0 24.6228 0C25.1534 0 25.5955 0.174733 25.9493 0.524195C26.4798 1.04839 26.7451 1.48522 26.7451 1.83468C26.7451 8.47446 26.922 18.2594 27.2757 31.1895C27.6295 37.4798 27.8947 43.6828 28.0716 49.7984C28.0716 52.5941 28.0716 56.0887 28.0716 60.2822C28.0716 61.5054 27.7179 62.5537 27.0104 63.4274C26.4798 64.4758 25.7724 65 24.8881 65V65ZM54.8665 63.6895C53.4516 63.6895 52.4789 63.5148 51.9483 63.1653C51.4177 62.6411 51.1524 61.9422 51.1524 61.0685C51.1524 59.3212 50.8871 56.5255 50.3566 52.6814L49.8259 50.8468L41.867 49.7984C41.5133 51.0215 40.9827 53.5551 40.2752 57.3992C39.9215 60.0202 39.3909 61.7675 38.6834 62.6411C38.3297 63.1653 37.7992 63.4274 37.0917 63.4274C36.5611 63.4274 35.9421 63.1653 35.2346 62.6411C34.704 62.2917 34.4388 61.7675 34.4388 61.0685L34.704 60.8064V60.5443C38.4181 46.5658 41.1596 32.8495 42.9282 19.3952C42.9282 19.0457 43.0167 18.6089 43.1935 18.0847C43.1935 17.5605 43.1935 16.8616 43.1935 15.9879C43.3704 13.8911 43.5473 12.3185 43.7241 11.2702C43.901 10.047 44.2547 9.08602 44.7853 8.3871H47.4383C48.3226 8.3871 49.03 8.56183 49.5606 8.91129C50.0912 9.26076 50.3566 9.78494 50.3566 10.4839C50.3566 14.6774 50.8871 20.793 51.9483 28.8306C53.1863 37.2177 53.8054 43.0712 53.8054 46.3911C53.8054 46.7406 53.8938 47.6142 54.0707 49.0121C54.4244 50.2352 54.6012 51.0215 54.6012 51.371C54.6012 51.7204 54.8666 53.3804 55.3972 56.3508C55.9278 58.797 56.193 60.457 56.193 61.3306C56.193 62.5538 55.7509 63.3401 54.8665 63.6895V63.6895ZM49.2953 47.9637C49.1184 47.2648 49.0301 46.3037 49.0301 45.0806C49.0301 40.1882 48.5879 33.8978 47.7036 26.2097L46.9076 17.8226C44.6084 30.578 43.0167 40.1882 42.1323 46.6532C43.0167 47.1774 45.4043 47.6142 49.2953 47.9637V47.9637ZM65.7437 63.4274C64.3288 63.4274 63.6214 59.8454 63.6214 52.6814L63.8866 39.8387C63.8866 36.1693 63.8866 31.9758 63.8866 27.2581C63.8866 25.5108 63.7098 22.8024 63.3561 19.1331C63.1792 15.1143 63.0907 12.668 63.0907 11.7944C63.0907 11.0954 63.356 10.4839 63.8866 9.95967C64.4172 9.43548 65.0363 9.17339 65.7437 9.17339C67.6892 9.17339 69.5463 9.61021 71.3149 10.4839C73.0836 11.3575 74.6753 12.4933 76.0903 13.8911C79.0969 17.211 81.0425 20.8804 81.9268 24.8992C82.4574 26.8212 82.7227 28.8306 82.7227 30.9274C82.7227 31.6263 82.6342 32.2379 82.4573 32.7621V34.8589V39.3145C82.4573 42.8091 82.369 45.6048 82.1921 47.7016C81.8384 50.3226 81.2193 52.6814 80.335 54.7782C79.2738 57.0497 77.6821 59.1465 75.5597 61.0685C74.4985 61.7675 73.172 62.5537 71.5803 63.4274H65.7437ZM69.4578 59.2339C70.519 59.2339 71.5802 58.9718 72.6414 58.4476C73.5258 57.9234 74.3216 57.1371 75.0291 56.0887C75.5597 55.2151 76.0018 54.1667 76.3556 52.9435C76.8862 51.5457 77.2399 50.2352 77.4167 49.0121C77.9473 46.5658 78.301 44.0323 78.4779 41.4113C78.4779 40.7124 78.4779 39.7513 78.4779 38.5282C78.4779 22.2782 75.2944 13.8038 68.9273 13.1048C68.3967 15.5511 68.1314 18.3468 68.1314 21.4919C68.1314 24.8118 68.3967 30.7527 68.9273 39.3145C69.281 46.828 69.4578 52.8562 69.4578 57.3992V59.2339ZM95.4569 63.9516C94.7495 63.9516 94.1304 63.6895 93.5998 63.1653C93.0692 62.6411 92.7155 62.0296 92.5387 61.3306V59.2339V57.6613C92.5387 57.1371 92.5387 56.5255 92.5387 55.8266C92.5387 54.7782 92.4502 53.0309 92.2733 50.5847L92.008 45.6048C92.008 42.8091 92.0965 38.7903 92.2733 33.5484C92.6271 28.8306 92.804 24.8992 92.804 21.754C92.804 21.0551 92.7155 19.9194 92.5387 18.3468C92.3618 16.7742 92.2733 15.6384 92.2733 14.9395C92.2733 11.0954 93.4229 9.17339 95.7222 9.17339C97.4908 9.17339 99.5248 9.52285 101.824 10.2218C104.3 10.9207 105.538 11.7944 105.538 12.8427C105.538 13.3669 105.273 13.8038 104.742 14.1532C104.389 14.6774 103.858 15.1142 103.151 15.4637C100.851 14.5901 98.7289 13.9785 96.7834 13.629C96.9603 14.5027 97.0487 15.7258 97.0487 17.2984C97.0487 19.3952 96.9603 21.3172 96.7834 23.0645C96.6066 25.6855 96.5181 27.6075 96.5181 28.8306L96.7834 30.1411H98.1099C98.6405 30.1411 99.171 30.1411 99.7016 30.1411C102.355 30.1411 103.681 30.8401 103.681 32.2379C103.681 32.9368 103.504 33.461 103.151 33.8105C102.62 34.1599 101.912 34.3347 101.028 34.3347C100.144 34.3347 99.4363 34.3347 98.9058 34.3347H96.7834C96.9603 35.7325 97.0487 37.7419 97.0487 40.3629C97.0487 43.1586 96.9603 45.6048 96.7834 47.7016C96.6066 51.0215 96.5181 53.4677 96.5181 55.0403C96.5181 58.1855 96.6066 59.7581 96.7834 59.7581L99.4364 59.496C100.498 59.496 101.647 59.496 102.885 59.496C105.008 59.496 106.069 60.1949 106.069 61.5927C106.069 62.2917 105.715 62.8158 105.008 63.1653C104.3 63.6895 103.416 63.9516 102.355 63.9516H95.4569ZM133.925 63.4274C131.449 63.4274 130.211 62.7285 130.211 61.3306L130.476 51.371V41.4113C130.476 37.7419 130.388 32.2379 130.211 24.8992C130.034 17.5605 129.945 12.0565 129.945 8.3871V7.8629C129.945 6.46505 130.122 5.15457 130.476 3.93145C130.83 2.5336 131.714 1.83468 133.129 1.83468C136.843 1.83468 139.85 3.05779 142.149 5.50403C144.448 7.95026 145.598 11.1828 145.598 15.2016C145.598 17.6478 144.89 20.1814 143.476 22.8024C142.237 25.4234 140.734 27.4328 138.966 28.8306C142.149 30.9274 144.448 33.6357 145.863 36.9556C147.455 40.2755 148.251 43.9449 148.251 47.9637C148.251 49.8858 147.543 52.2446 146.128 55.0403C144.537 58.3602 142.414 60.7191 139.761 62.1169C138.17 62.9906 136.313 63.4274 134.19 63.4274H133.925ZM134.986 27.5202C136.401 27.1707 137.551 26.0349 138.435 24.1129C139.319 22.5403 140.115 20.7056 140.823 18.6089C140.999 17.9099 141.265 17.1237 141.618 16.25V13.3669C141.618 11.7943 140.999 10.2218 139.761 8.64919C138.523 7.07661 137.197 6.29033 135.782 6.29033C134.898 6.29033 134.455 7.16398 134.455 8.91129C134.455 12.4059 134.544 15.6384 134.721 18.6089L134.986 27.5202ZM135.251 59.2339C137.904 58.7097 140.027 57.4865 141.618 55.5645C143.21 53.4677 144.006 50.9341 144.006 47.9637C144.006 45.5175 143.829 43.246 143.476 41.1492C143.122 39.0524 142.591 37.4798 141.884 36.4315C141.353 35.3831 140.734 34.5094 140.027 33.8105C139.496 33.1116 138.965 32.6747 138.435 32.5L137.904 32.2379H134.986C135.163 38.5282 135.251 47.5269 135.251 59.2339V59.2339ZM162.842 63.6895C161.958 63.6895 161.25 63.1653 160.72 62.1169C161.25 60.8938 161.516 56.2634 161.516 48.2258C161.516 46.3038 161.339 44.207 160.985 41.9355V39.5766C160.808 38.1788 160.72 37.1304 160.72 36.4315V34.3347C160.189 32.9368 159.128 30.4032 157.536 26.7339C156.121 23.0645 154.972 19.9193 154.087 17.2984C153.026 14.5027 152.496 12.5806 152.496 11.5323V11.2702L154.353 9.69758C155.414 9.87231 156.475 11.0954 157.536 13.3669C158.244 15.289 159.128 18.172 160.189 22.0161C161.427 25.6855 162.046 27.6075 162.046 27.7823C162.223 27.2581 162.665 25.2487 163.373 21.754C163.903 18.2594 164.611 15.2016 165.495 12.5806C166.379 9.95967 167.352 8.64919 168.413 8.64919C168.944 8.64919 169.386 8.82392 169.74 9.17339C170.271 9.52285 170.536 9.95968 170.536 10.4839C170.536 13.1048 169.74 16.9489 168.148 22.0161C166.556 27.4328 165.76 31.3642 165.76 33.8105V58.4476C165.76 61.9422 164.788 63.6895 162.842 63.6895ZM377.467 63.1653C375.521 63.1653 373.664 62.4664 371.896 61.0685C369.95 59.8454 368.535 58.0981 367.651 55.8266C366.767 53.7298 366.324 51.7204 366.324 49.7984C366.324 47.3521 366.501 44.9059 366.855 42.4597C366.855 41.586 367.209 40.4503 367.916 39.0524C367.916 38.5282 368.005 38.004 368.182 37.4798C368.535 36.9556 368.712 36.5188 368.712 36.1694C369.066 35.2957 369.596 34.2473 370.304 33.0242C370.835 31.8011 371.277 30.7527 371.63 29.879C371.807 29.3548 372.426 28.2191 373.488 26.4718C373.488 24.8992 373.399 23.0645 373.222 20.9677C373.045 18.5215 372.957 16.5995 372.957 15.2016V8.3871C372.957 6.63979 373.399 5.24193 374.283 4.19354C375.345 3.14516 376.583 2.62097 377.998 2.62097C380.12 2.62097 382.065 3.31989 383.834 4.71774C385.603 6.29032 386.487 8.03763 386.487 9.95967C386.487 13.1048 385.956 15.9879 384.895 18.6089C383.834 21.2298 382.154 23.8508 379.855 26.4718C379.678 26.6465 379.412 26.996 379.059 27.5202C378.174 28.918 377.732 29.879 377.732 30.4032C377.732 31.8011 378.263 34.3347 379.324 38.004C380.208 41.4987 381.358 44.8186 382.773 47.9637C384.011 51.2836 385.072 53.4677 385.956 54.5161C387.725 50.672 388.609 45.8669 388.609 40.1008V39.5766C388.079 39.5766 387.814 39.4892 387.814 39.3145L387.548 39.0524V38.7903C387.371 38.6156 387.283 38.5282 387.283 38.5282C387.283 38.3535 387.283 38.2661 387.283 38.2661V36.1694C388.698 36.1694 390.378 36.082 392.324 35.9072C394.269 35.7325 395.684 35.4704 396.568 35.121C398.16 35.4704 398.956 36.1693 398.956 37.2177C398.956 38.0914 398.514 38.703 397.63 39.0524C396.745 39.4019 395.772 39.5766 394.711 39.5766H394.446H392.324C392.324 48.1384 391.174 53.9046 388.875 56.875C390.466 58.6223 392.235 59.496 394.181 59.496L395.772 59.2339H397.364L398.956 60.2822C398.956 61.3306 398.602 62.1169 397.895 62.6411C397.187 62.9906 396.126 63.1653 394.711 63.1653C392.235 63.1653 389.582 62.1169 386.752 60.0202C383.569 62.1169 380.474 63.1653 377.467 63.1653V63.1653ZM376.936 24.375C378.351 22.453 379.678 20.3562 380.916 18.0847C382.154 15.8132 382.773 13.9785 382.773 12.5806C382.773 11.5323 382.331 10.2218 381.446 8.64919C380.562 7.07661 379.678 6.29033 378.793 6.29033C378.086 6.29033 377.379 6.98925 376.671 8.3871V12.5806V18.0847C376.848 19.6573 376.936 21.4919 376.936 23.5887V24.375ZM378.263 59.7581C379.147 59.7581 380.208 59.496 381.446 58.9718C382.861 58.4476 383.834 57.9234 384.365 57.3992C379.236 50.4099 375.875 42.1102 374.283 32.5C371.454 37.043 370.039 42.2849 370.039 48.2258C370.039 51.0215 370.658 53.5551 371.896 55.8266C372.603 57.0497 373.488 58.0107 374.549 58.7097C375.61 59.4086 376.848 59.7581 378.263 59.7581V59.7581Z" fill="#325949"/>
</svg>
