<svg width="354" height="63" viewBox="0 0 354 63" fill="none" xmlns="http://www.w3.org/2000/svg">
<path d="M13.4846 63C12.7758 63 12.1555 62.7407 11.6239 62.2222C10.2061 56.3457 8.25658 45.8889 5.77545 30.8518C3.11711 14.6049 1.4335 4.92593 0.724609 1.81482C1.07906 0.77778 1.87654 0.259255 3.11711 0.259255C4.00322 0.259255 5.15514 3.71605 6.57293 10.6296C7.99071 17.5432 9.40851 25.4074 10.8263 34.2222L12.953 48.4815C13.8391 41.9136 14.548 37.0741 15.0797 33.963C16.143 26.5309 16.8519 20.3951 17.2063 15.5556C17.738 10.716 18.0039 6.1358 18.0039 1.81482C18.89 0.77778 19.8647 0.259255 20.9281 0.259255L22.7889 1.03703L21.4597 11.9259C21.2825 15.2099 20.5736 21.2593 19.333 30.0741L18.8013 35.2593C18.0925 39.9259 17.4722 44.3333 16.9406 48.4815C16.0544 54.5309 15.2569 58.7654 14.548 61.1852C14.1935 62.3951 13.8391 63 13.4846 63V63ZM45.9165 62.4815C44.676 62.4815 43.7899 62.3086 43.2582 61.963C42.5493 61.4444 42.1949 60.7531 42.1949 59.8889C42.1949 58.1605 41.929 55.3951 41.3973 51.5926L41.1315 49.7778L32.8906 48.7407C32.5362 49.9506 32.0931 52.4568 31.5615 56.2593C31.207 58.8519 30.6753 60.5803 29.9664 61.4444C29.612 61.963 29.0803 62.2222 28.3714 62.2222C27.6625 62.2222 27.0422 61.963 26.5105 61.4444C25.9789 61.0988 25.7131 60.5803 25.7131 59.8889L25.9789 59.6296V59.3704C29.5234 45.5432 32.2704 31.9753 34.2198 18.6667C34.2198 18.321 34.2198 17.8889 34.2198 17.3704C34.397 16.8519 34.4856 16.1605 34.4856 15.2963C34.6628 13.2222 34.8401 11.6667 35.0173 10.6296C35.1945 9.41975 35.4603 8.46914 35.8148 7.77778H38.739C39.4479 7.77778 40.0682 7.95062 40.5998 8.2963C41.1315 8.64198 41.3973 9.16049 41.3973 9.85185C41.3973 14 42.0176 20.0494 43.2582 28C44.3215 36.2963 44.8532 42.0864 44.8532 45.3704C44.8532 45.716 45.0304 46.5802 45.3848 47.963C45.5621 49.1728 45.6507 49.9506 45.6507 50.2963C45.6507 50.642 45.9165 52.284 46.4482 55.2222C46.9798 57.642 47.2457 59.284 47.2457 60.1482C47.2457 61.358 46.8026 62.1358 45.9165 62.4815V62.4815ZM40.5998 46.9259C40.4226 46.2346 40.334 45.2839 40.334 44.0741C40.334 39.2346 39.8909 33.0123 39.0048 25.4074L38.2073 17.1111C35.7262 29.7284 34.0425 39.2346 33.1564 45.6296C34.0425 46.1482 36.5237 46.5803 40.5998 46.9259ZM76.7534 61.963C76.2217 61.963 75.7787 61.7901 75.4242 61.4444C75.0698 61.0988 74.8039 60.4938 74.6267 59.6296L74.095 58.0741V57.8148C74.095 55.9136 72.2342 49.8642 68.5125 39.6667C64.7908 29.2963 61.8666 21.6914 59.7399 16.8519V57.2963L60.0057 57.8148C60.0057 57.8148 60.0944 57.9876 60.2716 58.3333C60.4488 58.679 60.5374 58.9383 60.5374 59.1111C60.5374 59.8025 60.2716 60.4074 59.7399 60.9259C59.3854 61.4444 58.7652 61.7037 57.8791 61.7037C56.2841 61.7037 55.4866 60.0617 55.4866 56.7778L55.2207 43.037C55.2207 38.8889 55.2207 34.2222 55.2207 29.037C55.2207 27.4815 55.3094 25.0617 55.4866 21.7778C55.6638 18.321 55.7524 15.8148 55.7524 14.2593C55.7524 11.6667 56.7271 9.67901 58.6766 8.2963V8.81481C59.031 8.64197 59.2083 8.55555 59.2083 8.55555C60.6261 8.55555 62.221 10.716 63.9933 15.037C65.5883 18.4938 67.0061 22.1234 68.2466 25.9259C69.4872 29.7284 71.1708 35.0864 73.2975 42L74.095 45.1111C75.3356 49.4321 76.2217 52.4568 76.7534 54.1852C77.994 42.7778 78.6142 29.2099 78.6142 13.4815V12.4444C78.437 12.0988 78.3483 11.7531 78.3483 11.4074C78.3483 9.85185 79.0573 9.07407 80.4751 9.07407C81.184 9.07407 81.7156 9.33333 82.0701 9.85185C82.6018 10.3704 82.8676 11.1482 82.8676 12.1852V18.1481C82.6903 26.4444 82.3359 35.4321 81.8042 45.1111C81.2726 54.6173 80.6522 59.9753 79.9434 61.1852C78.3483 61.7037 77.2851 61.963 76.7534 61.963V61.963ZM96.4251 62.2222C95.0074 62.2222 94.2984 58.679 94.2984 51.5926L94.5643 38.8889C94.5643 35.2593 94.5643 31.1111 94.5643 26.4444C94.5643 24.7161 94.3871 22.037 94.0327 18.4074C93.8554 14.4321 93.7668 12.0123 93.7668 11.1481C93.7668 10.4568 94.0326 9.85185 94.5643 9.33333C95.2732 8.81481 95.9821 8.55555 96.691 8.55555C98.4632 8.55555 100.235 8.98765 102.008 9.85185C103.957 10.716 105.552 11.8395 106.793 13.2222C109.805 16.5062 111.755 20.1358 112.641 24.1111C113.173 26.0123 113.439 28 113.439 30.0741C113.439 30.7654 113.35 31.3704 113.173 31.8889V33.963V38.3704C113.173 41.8272 113.084 44.5926 112.907 46.6667C112.552 49.2593 111.932 51.5926 111.046 53.6667C109.983 55.9136 108.388 57.9877 106.261 59.8889C105.198 60.5803 103.957 61.358 102.539 62.2222H96.4251ZM99.881 58.0741C100.944 58.0741 102.008 57.8148 103.071 57.2963C103.957 56.7778 104.755 56 105.464 54.963C105.995 54.0988 106.438 53.0617 106.793 51.8518C107.324 50.4691 107.679 49.1728 107.856 47.963C108.388 45.5432 108.742 43.037 108.919 40.4445C108.919 39.7531 108.919 38.8025 108.919 37.5926C108.919 21.5185 105.729 13.1358 99.3493 12.4444C98.9949 14.8642 98.8176 17.6296 98.8176 20.7407C98.8176 24.0247 98.9949 29.9012 99.3493 38.3704C99.7038 45.8025 99.881 51.7654 99.881 56.2593V58.0741ZM126.199 61.4444C121.414 61.4444 119.021 60.6667 119.021 59.1111C119.021 57.9012 119.907 57.2963 121.679 57.2963H122.477H123.54C123.895 57.2963 124.161 57.1235 124.338 56.7778C124.515 56.6049 124.604 56.1728 124.604 55.4815C124.604 54.4444 124.515 52.9753 124.338 51.0741C124.161 49.8642 123.983 47.6173 123.806 44.3333C123.274 36.037 123.009 29.8148 123.009 25.6667C123.009 24.1111 123.097 22.7284 123.274 21.5185V17.3704C123.274 15.642 123.186 14.1728 123.009 12.963C122.123 13.3086 121.502 13.4815 121.148 13.4815C119.73 13.4815 119.021 12.7901 119.021 11.4074C119.021 10.716 119.464 10.1975 120.35 9.85185C121.236 9.33333 122.3 8.98765 123.54 8.81481C125.667 8.29629 127.616 8.03703 129.389 8.03703C130.098 8.03703 130.629 8.29629 130.984 8.81481C131.515 9.16049 131.781 9.67901 131.781 10.3704C131.781 10.8889 131.604 11.4074 131.25 11.9259C130.895 12.2716 130.452 12.4444 129.92 12.4444C129.566 12.4444 129.3 12.4444 129.123 12.4444H128.325C127.794 12.4444 127.439 12.5309 127.262 12.7037C126.908 13.0494 126.73 13.4815 126.73 14C126.73 19.1852 127.085 27.0494 127.794 37.5926C127.971 39.4938 128.148 42.3457 128.325 46.1481C128.68 48.5679 128.857 51.0741 128.857 53.6667V56.7778C129.211 56.6049 129.743 56.5185 130.452 56.5185C132.756 56.5185 133.908 57.4691 133.908 59.3704V59.8889L131.781 61.1852C131.781 61.1852 131.604 61.2716 131.25 61.4444C131.072 61.4444 130.541 61.4444 129.655 61.4444C127.882 61.4444 126.73 61.4444 126.199 61.4444ZM146.934 61.4444L145.339 60.4074V57.2963C145.339 56.2593 145.339 55.2222 145.339 54.1852V51.3333C145.162 50.8148 144.718 44.9383 144.01 33.7037C143.478 22.642 143.123 15.5556 142.946 12.4444C139.756 12.2716 137.718 11.9259 136.832 11.4074C136.3 10.8889 136.035 10.3704 136.035 9.85185C136.035 9.50617 136.3 9.16049 136.832 8.81481C137.364 8.46913 137.984 8.2963 138.693 8.2963C140.111 8.2963 141.972 8.38271 144.275 8.55555C146.225 8.90123 148.086 9.07407 149.858 9.07407H150.39H151.187C152.782 9.07407 153.58 9.67901 153.58 10.8889C153.58 11.5802 153.314 12.0988 152.782 12.4444C152.25 12.7901 151.63 12.963 150.921 12.963C150.39 12.963 149.681 12.8765 148.795 12.7037L147.2 12.4444V12.963L146.934 13.2222C146.934 18.0617 147.377 25.6667 148.263 36.037C149.149 45.8889 149.592 53.4938 149.592 58.8519C149.592 59.5432 149.326 60.1481 148.795 60.6667C148.263 61.1852 147.643 61.4444 146.934 61.4444V61.4444ZM241.305 63C240.596 63 239.976 62.6543 239.444 61.963C238.026 56.2593 236.077 45.8025 233.596 30.5926C230.76 14.5185 229.077 4.92593 228.545 1.81482C228.722 0.77778 229.431 0.259255 230.672 0.259255C231.558 0.259255 232.71 3.71605 234.128 10.6296C235.545 17.5432 236.963 25.321 238.381 33.963L240.508 48.2222C241.394 41.8272 242.103 36.9876 242.634 33.7037C243.698 26.4444 244.495 20.3951 245.027 15.5556C245.558 10.5432 245.824 5.87654 245.824 1.55555C246.533 0.518515 247.508 0 248.748 0L250.344 1.03703L249.28 11.6667C248.926 15.1235 248.217 21.1728 247.153 29.8148L246.356 35.2593C245.824 39.9259 245.204 44.3333 244.495 48.4815C243.786 54.5309 243.077 58.7654 242.368 61.1852C242.014 62.3951 241.66 63 241.305 63V63ZM264.964 61.4444C260.179 61.4444 257.787 60.6667 257.787 59.1111C257.787 57.9012 258.584 57.2963 260.179 57.2963H261.243H262.04C262.395 57.2963 262.661 57.1235 262.838 56.7778C263.015 56.6049 263.104 56.1728 263.104 55.4815C263.104 54.4444 263.015 52.9753 262.838 51.0741C262.661 49.8642 262.483 47.6173 262.306 44.3333C261.774 36.037 261.509 29.8148 261.509 25.6667C261.509 24.1111 261.597 22.7284 261.774 21.5185V17.3704C261.774 15.642 261.686 14.1728 261.509 12.963C260.622 13.3086 260.002 13.4815 259.648 13.4815C258.407 13.4815 257.787 12.7901 257.787 11.4074C257.787 10.716 258.141 10.1975 258.85 9.85185C259.736 9.33333 260.8 8.98765 262.04 8.81481C264.167 8.29629 266.116 8.03703 267.889 8.03703C268.598 8.03703 269.129 8.29629 269.484 8.81481C270.015 9.16049 270.281 9.67901 270.281 10.3704C270.281 10.8889 270.104 11.4074 269.749 11.9259C269.395 12.2716 268.952 12.4444 268.42 12.4444C268.066 12.4444 267.8 12.4444 267.623 12.4444H266.825C266.294 12.4444 265.939 12.5309 265.762 12.7037C265.407 13.0494 265.23 13.4815 265.23 14C265.23 19.1852 265.585 27.0494 266.294 37.5926C266.471 39.4938 266.737 42.3457 267.091 46.1481C267.268 48.5679 267.357 51.0741 267.357 53.6667V56.7778C267.711 56.6049 268.243 56.5185 268.952 56.5185C271.256 56.5185 272.408 57.4691 272.408 59.3704V59.8889L270.547 61.1852C270.37 61.1852 270.104 61.2716 269.749 61.4444C269.572 61.4444 269.041 61.4444 268.154 61.4444C266.382 61.4444 265.319 61.4444 264.964 61.4444V61.4444ZM287.295 62.4815L285.7 61.4444C285.7 55.2222 285.079 48.8272 283.839 42.2593C282.775 35.6914 280.915 27.6543 278.256 18.1481C278.256 17.4568 278.079 16.5926 277.724 15.5556C276.661 12.6173 276.13 10.716 276.13 9.85185C276.13 9.33333 276.307 8.90123 276.661 8.55555C277.193 8.20987 277.636 8.03703 277.99 8.03703C278.876 8.03703 279.674 8.72839 280.383 10.1111C281.092 11.321 281.801 13.0494 282.51 15.2963C283.041 17.3704 283.661 20.0494 284.37 23.3333C285.079 26.2716 285.877 30.9383 286.763 37.3333L287.295 40.4445L288.358 47.7037C288.535 49.6049 288.712 50.9876 288.89 51.8518C289.953 45.9753 291.371 37.4198 293.143 26.1852C294.738 16.679 295.801 10.1975 296.333 6.74074H298.194C298.725 6.74074 299.168 6.91358 299.523 7.25926C299.877 7.60494 300.055 8.03704 300.055 8.55555C300.055 10.4568 299.789 12.5309 299.257 14.7778C298.903 17.0247 298.282 19.7037 297.396 22.8148C296.51 25.4074 295.978 27.3951 295.801 28.7778C295.624 30.1605 295.358 32.321 295.004 35.2593C294.649 41.6543 294.029 47.4444 293.143 52.6296C292.434 55.7407 291.637 58.1605 290.75 59.8889C289.687 61.6173 288.535 62.4815 287.295 62.4815V62.4815ZM312.017 62.7407C311.308 62.7407 310.688 62.4815 310.156 61.963C309.625 61.4444 309.359 60.8395 309.359 60.1482V58.0741V56.5185C309.182 56 309.093 55.3951 309.093 54.7037C309.093 53.6667 309.004 51.9383 308.827 49.5185V44.5926C308.827 41.8272 308.916 37.8519 309.093 32.6667C309.27 28 309.359 24.1111 309.359 21C309.359 20.3086 309.27 19.1852 309.093 17.6296C308.916 16.0741 308.827 14.9506 308.827 14.2593C308.827 10.4568 309.979 8.55555 312.283 8.55555C314.055 8.55555 316.182 8.90124 318.663 9.5926C320.967 10.284 322.119 11.1482 322.119 12.1852C322.119 12.7037 321.853 13.1358 321.321 13.4815C320.967 14 320.435 14.4321 319.726 14.7778C317.422 13.9136 315.384 13.3086 313.612 12.963C313.612 13.8272 313.612 15.037 313.612 16.5926C313.612 18.6667 313.612 20.5679 313.612 22.2963C313.435 24.8889 313.346 26.7901 313.346 28L313.612 29.2963H314.941C315.296 29.2963 315.828 29.2963 316.536 29.2963C319.195 29.2963 320.524 29.9877 320.524 31.3704C320.524 32.0617 320.258 32.5803 319.726 32.9259C319.195 33.2716 318.575 33.4444 317.866 33.4444C316.802 33.4444 316.005 33.4444 315.473 33.4444H313.346C313.524 34.8272 313.612 36.8148 313.612 39.4074C313.612 42.1728 313.612 44.5926 313.612 46.6667C313.435 49.9506 313.346 52.3704 313.346 53.9259C313.346 57.037 313.346 58.5926 313.346 58.5926L316.271 58.3333C317.157 58.3333 318.22 58.3333 319.461 58.3333C321.587 58.3333 322.651 59.0247 322.651 60.4074C322.651 61.0988 322.296 61.6173 321.587 61.963C320.878 62.4815 320.081 62.7407 319.195 62.7407H312.017ZM351.095 63C349.854 63 348.525 61.6173 347.107 58.8519C344.804 54.8765 342.677 48.3087 340.727 39.1482C340.018 36.5556 339.487 34.2222 339.132 32.1481C337.183 35.9506 336.208 40.6173 336.208 46.1481V60.9259C336.208 62.1358 335.677 62.7407 334.613 62.7407C333.727 62.7407 333.018 62.5679 332.487 62.2222C331.955 61.7037 331.689 61.0124 331.689 60.1482V35.7778C331.689 33.5309 331.955 29.2099 332.487 22.8148C333.018 17.2839 333.284 12.963 333.284 9.85185C333.816 8.81481 334.613 8.2963 335.676 8.2963C336.385 8.2963 337.006 8.55556 337.537 9.07407C338.069 9.59259 338.335 10.1975 338.335 10.8889V11.1481C337.626 12.1852 337.272 17.0247 337.272 25.6667V28.5185L340.196 22.8148C342.145 19.0123 343.917 15.7284 345.512 12.963C347.107 10.1975 348.259 8.81481 348.968 8.81481C349.854 8.81481 350.563 8.98765 351.095 9.33333C351.804 9.85185 352.158 10.4568 352.158 11.1481L350.297 14.2593C346.044 20.6543 343.74 24.3704 343.386 25.4074C343.386 26.4444 343.297 27.3086 343.12 28V30.3333C343.12 32.5803 344.095 36.9012 346.044 43.2963C347.816 49.5185 349.411 53.6667 350.829 55.7407L351.892 57.2963C352.779 58.679 353.222 59.8889 353.222 60.9259C353.222 61.4444 353.044 61.963 352.69 62.4815C352.158 62.8272 351.627 63 351.095 63V63Z" fill="white"/>
</svg>
