<svg width="76" height="25" viewBox="0 0 76 25" fill="none" xmlns="http://www.w3.org/2000/svg">
<path d="M1.7496 24.3C1.48294 24.3 1.28293 24.2 1.1496 24C1.01626 23.8 0.949615 23.5333 0.949615 23.2L1.04962 18C1.11629 15.4667 1.1496 13.5333 1.1496 12.2C1.1496 7.33335 0.882943 3.63334 0.349609 1.10001C0.616276 0.633339 1.01629 0.400009 1.54962 0.400009C2.28295 0.400009 2.94962 0.566676 3.54962 0.900009C4.21629 1.23334 4.7496 1.7 5.1496 2.3C5.9496 3.5 6.34961 4.83334 6.34961 6.3C6.34961 7.83334 6.01628 9.23333 5.34961 10.5C4.68294 11.7 3.71628 12.6333 2.44962 13.3L2.54962 16.4L2.6496 18.1C2.6496 18.4333 2.6496 18.9333 2.6496 19.6C2.71626 21 2.7496 22.1333 2.7496 23C2.7496 23.4 2.64962 23.7 2.44962 23.9C2.31628 24.1667 2.08294 24.3 1.7496 24.3V24.3ZM2.44962 11.8C3.24962 11.0667 3.8496 10.2667 4.2496 9.40001C4.58294 8.60001 4.7496 7.66667 4.7496 6.60001C4.7496 6.06667 4.71626 5.46667 4.6496 4.8C4.58293 4.53334 4.4496 4.26667 4.2496 4C4.11627 3.73333 4.04962 3.60001 4.04962 3.60001C3.84962 3.40001 3.44961 3.06667 2.84961 2.60001L2.04962 2C2.04962 3.06667 2.11627 4.70001 2.2496 6.90001L2.44962 11.8ZM15.3496 24.4C14.9496 24.4 14.5496 24.1333 14.1496 23.6V23.5C14.1496 22.3667 13.9829 21.1334 13.6496 19.8C13.3163 18.4667 12.8496 16.8667 12.2496 15C11.7829 13.5333 11.4163 12.2333 11.1496 11.1V23.3C11.1496 23.6334 11.0829 23.9 10.9496 24.1C10.8163 24.2333 10.5829 24.3 10.2496 24.3C10.0496 24.3 9.88294 24.2333 9.7496 24.1C9.5496 23.9 9.44962 23.7 9.44962 23.5V23.2L9.54962 14.1C9.61629 11.4333 9.6496 8.4 9.6496 5V1.20001C9.6496 0.933346 9.68294 0.766679 9.7496 0.700012C9.88294 0.566679 10.1163 0.5 10.4496 0.5C10.9163 0.5 11.3829 0.633342 11.8496 0.900009C12.2496 1.03334 12.6163 1.30001 12.9496 1.70001C13.6163 2.36668 14.0163 3.23334 14.1496 4.3C14.2829 4.7 14.3496 5.16668 14.3496 5.70001C14.3496 6.03335 14.3163 6.36668 14.2496 6.70001C14.1829 7.10001 14.1496 7.33334 14.1496 7.40001C14.0829 7.60001 13.9829 7.93334 13.8496 8.40001C13.7163 8.80001 13.6163 9.06668 13.5496 9.20001L13.2496 10L12.8496 10.8C12.9163 11.5333 13.0496 12.5 13.2496 13.7C13.5163 14.8333 13.783 15.8667 14.0496 16.8C14.2496 17.4667 14.6163 18.6 15.1496 20.2L16.0496 23C16.0496 23.3333 16.0163 23.6333 15.9496 23.9C15.9496 24.2333 15.7496 24.4 15.3496 24.4V24.4ZM11.0496 9.70001C11.383 9.43335 11.7496 9.03333 12.1496 8.5L12.5496 5.8C12.6163 5.73334 12.6496 5.60001 12.6496 5.40001C12.6496 4.80001 12.5163 4.1 12.2496 3.3C12.1163 2.96667 11.9496 2.66668 11.7496 2.40001C11.6163 2.13334 11.4163 2 11.1496 2V5.10001C11.0829 6.43334 11.0496 7.5 11.0496 8.3C11.0496 9.03334 11.0496 9.50001 11.0496 9.70001ZM22.6496 25C22.0496 25 21.5496 24.8 21.1496 24.4C20.6829 24.0667 20.2829 23.5667 19.9496 22.9C19.3496 21.7667 18.9163 20.2334 18.6496 18.3C18.3829 16.9667 18.2163 15.4333 18.1496 13.7V12V10.3C18.0829 9.76667 18.0496 9.13334 18.0496 8.40001C18.0496 7.13334 18.1163 6.03334 18.2496 5.10001C18.3163 4.10001 18.5163 3.13335 18.8496 2.20001C19.1829 1.33335 19.6496 0.733342 20.2496 0.400009C20.6496 0.200009 21.0163 0.100006 21.3496 0.100006C22.4829 0.100006 23.3496 0.533342 23.9496 1.40001C24.6829 2.40001 25.1496 3.50001 25.3496 4.70001C25.6829 6.10001 25.8829 7.46667 25.9496 8.8C26.0163 10.2667 26.0496 11.6667 26.0496 13V14.7C26.0496 15.1 26.0163 15.7667 25.9496 16.7C25.8163 17.5 25.7496 18.1667 25.7496 18.7V18.8C25.6829 19.4 25.6496 20.0667 25.6496 20.8C25.6496 21.4 25.5163 22 25.2496 22.6C24.9829 23.2667 24.6163 23.8 24.1496 24.2C23.6829 24.7333 23.1829 25 22.6496 25ZM22.6496 23.3C23.1163 23.3 23.4829 22.9 23.7496 22.1C24.0163 21.4333 24.1829 20.6 24.2496 19.6C24.3829 18.6667 24.483 17.5667 24.5496 16.3C24.6163 15.7667 24.6496 15.0667 24.6496 14.2V11.4C24.5829 10.2667 24.4496 8.86668 24.2496 7.20001C24.0496 5.73335 23.7496 4.46668 23.3496 3.40001C23.1496 2.86668 22.883 2.46668 22.5496 2.20001C22.2163 1.93335 21.883 1.8 21.5496 1.8C21.0163 1.8 20.6163 2.2 20.3496 3C20.0829 3.8 19.8829 4.73334 19.7496 5.8C19.6163 6.86667 19.5496 7.90001 19.5496 8.90001V9.90001C19.483 10.1667 19.4496 10.5667 19.4496 11.1V11.2C19.4496 12.6 19.6163 14.3 19.9496 16.3C20.2829 19.0333 20.7496 21 21.3496 22.2C21.8163 22.9333 22.2496 23.3 22.6496 23.3V23.3ZM31.0496 24.4C30.1163 24.4 29.6496 24.1333 29.6496 23.6V19.8L29.7496 15.9C29.7496 14.5667 29.7163 12.5 29.6496 9.70001C29.5829 6.90001 29.5496 4.80001 29.5496 3.40001V3.20001C29.5496 2.66668 29.5829 2.16668 29.6496 1.70001C29.7829 1.16668 30.1163 0.900009 30.6496 0.900009C32.1163 0.900009 33.2829 1.33335 34.1496 2.20001C35.0163 3.13335 35.4496 4.36668 35.4496 5.90001C35.4496 6.83334 35.1829 7.83334 34.6496 8.90001C34.1829 9.90001 33.5829 10.6333 32.8496 11.1C34.0496 11.9 34.9496 12.9333 35.5496 14.2C36.083 15.4667 36.3496 16.8667 36.3496 18.4C36.3496 19.1333 36.1163 20.0333 35.6496 21.1C35.0496 22.3667 34.2496 23.3 33.2496 23.9C32.5829 24.2333 31.8829 24.4 31.1496 24.4H31.0496ZM31.3496 10.6C31.8829 10.5333 32.3496 10.1 32.7496 9.3C33.0163 8.7 33.283 8.00001 33.5496 7.20001C33.6163 7.00001 33.7496 6.7 33.9496 6.3V5.3C33.9496 4.63334 33.7163 4.03333 33.2496 3.5C32.7829 2.9 32.2496 2.60001 31.6496 2.60001C31.3829 2.60001 31.2496 2.9 31.2496 3.5C31.2496 4.9 31.2829 6.13335 31.3496 7.20001V10.6ZM31.4496 22.7C32.4496 22.5667 33.2496 22.1 33.8496 21.3C34.4496 20.5 34.7496 19.5667 34.7496 18.5C34.7496 17.5667 34.6496 16.7 34.4496 15.9C34.3163 15.1 34.1496 14.4667 33.9496 14C33.6829 13.6667 33.4496 13.3667 33.2496 13.1C32.9829 12.8333 32.7829 12.6333 32.6496 12.5L32.3496 12.4H31.2496C31.3829 14.8 31.4496 18.2333 31.4496 22.7V22.7ZM40.6496 24.4C40.3829 24.4 40.1496 24.3 39.9496 24.1C39.7496 23.9 39.6496 23.6667 39.6496 23.4C39.6496 23.2 39.6829 22.9667 39.7496 22.7C39.8163 22.4333 39.8496 22.2333 39.8496 22.1C39.8496 20.2333 39.7496 16.7 39.5496 11.5C39.3496 7.03333 39.2496 3.50001 39.2496 0.900009C39.2496 0.700009 39.3163 0.566667 39.4496 0.5C39.5829 0.366667 39.7496 0.300003 39.9496 0.300003C40.2163 0.300003 40.4496 0.400006 40.6496 0.600006C40.8496 0.733339 40.9496 0.933346 40.9496 1.20001C40.9496 2.40001 40.983 4.26667 41.0496 6.8C41.183 9.53334 41.2496 11.3667 41.2496 12.3V12.7V13.1V13.3V13.5C41.3163 15.3 41.3496 17.9667 41.3496 21.5V22.3H43.7496C44.2163 22.6334 44.4496 22.9667 44.4496 23.3C44.4496 23.5 44.3496 23.7 44.1496 23.9C44.0163 24.0333 43.8496 24.1 43.6496 24.1C43.5829 24.1 43.4829 24.1 43.3496 24.1L43.1496 24C43.0163 24.0667 42.8163 24.1 42.5496 24.1H42.0496C41.9163 24.0333 41.7496 24 41.5496 24C41.3496 24.2667 41.0496 24.4 40.6496 24.4ZM48.7496 24.2C48.3496 24.2 48.0163 24.1667 47.7496 24.1C47.4163 23.9667 47.2496 23.6667 47.2496 23.2V5.20001C47.2496 4.86668 47.183 4.33334 47.0496 3.60001C46.9163 3.00001 46.8496 2.50001 46.8496 2.10001V2C47.1829 1.4 47.4496 1 47.6496 0.800003C47.9163 0.800003 48.2829 0.766679 48.7496 0.700012C49.2163 0.633346 49.6163 0.600006 49.9496 0.600006C50.2163 0.600006 50.5163 0.700009 50.8496 0.900009C51.1829 1.10001 51.3496 1.33334 51.3496 1.60001C51.3496 2.20001 50.8829 2.5 49.9496 2.5H49.4496C49.3163 2.5 49.183 2.5 49.0496 2.5C48.8496 2.5 48.7163 2.5 48.6496 2.5C48.6496 3.23333 48.7163 4.10001 48.8496 5.10001V5.90001L48.9496 7.60001C48.9496 8.00001 48.9163 8.60001 48.8496 9.40001L48.7496 11.2L49.2496 11.1C49.6496 10.9667 49.9829 10.9 50.2496 10.9C50.4496 10.9 50.6496 11 50.8496 11.2C51.0496 11.3333 51.1496 11.5333 51.1496 11.8C51.1496 12 51.0496 12.2 50.8496 12.4C50.7163 12.6 50.5496 12.7 50.3496 12.7H49.9496H49.5496C49.2163 12.7 49.0163 12.7667 48.9496 12.9V22.5L50.6496 22.4C51.8496 22.4 52.4496 22.6667 52.4496 23.2V23.3C52.3163 23.5667 52.0829 23.7667 51.7496 23.9C51.4163 24.1 51.0829 24.2 50.7496 24.2H49.7496H48.7496ZM64.5496 24.9C64.3496 24.9 64.183 24.8 64.0496 24.6C63.9163 24.3333 63.8496 24.0333 63.8496 23.7V19.1C63.7829 18.7 63.7496 18.0333 63.7496 17.1C63.7496 15.1667 63.7496 13 63.7496 10.6V9C63.5496 10 63.2163 11.4 62.7496 13.2C62.2829 15.0667 61.9496 16.6 61.7496 17.8V18V18.6C61.6829 19.0667 61.5496 19.5333 61.3496 20C61.1496 20.4667 60.8496 20.7 60.4496 20.7C59.7163 20.7 59.3496 19.7334 59.3496 17.8C59.3496 16.7334 59.2163 15.6 58.9496 14.4C58.7496 13.1333 58.4163 11.6 57.9496 9.8L57.0496 6.3L56.9496 10C56.9496 11.1333 57.0163 13.2667 57.1496 16.4V18.5L57.2496 22.8C57.2496 23.2 57.0829 23.6 56.7496 24C56.2829 24 55.9163 23.8333 55.6496 23.5C55.5163 23.1667 55.4496 22.7 55.4496 22.1V19.5C55.5163 18.4333 55.5496 17.6 55.5496 17V11L55.4496 5C55.4496 4.13333 55.483 2.8 55.5496 1L56.3496 0.5C56.4829 0.566667 56.6496 0.700009 56.8496 0.900009C56.9829 1.10001 57.1496 1.43334 57.3496 1.90001C57.8829 3.16668 58.5829 5.73334 59.4496 9.60001C59.5163 10.1333 59.5829 10.5667 59.6496 10.9C59.9163 12.1 60.0829 13.0333 60.1496 13.7L60.6496 16.1L60.8496 15L61.4496 12.5C61.7829 11.0333 62.0496 9.73334 62.2496 8.60001C62.5163 7.46667 62.7496 6.26667 62.9496 5C63.1496 3.4 63.2829 2.10001 63.3496 1.10001V0.900009C63.4163 0.633342 63.5496 0.433336 63.7496 0.300003C63.9496 0.100003 64.1829 0 64.4496 0C64.6496 0 64.8163 0.100003 64.9496 0.300003C65.0829 0.433336 65.1496 0.600003 65.1496 0.800003C65.1496 3.26667 65.2496 6.96668 65.4496 11.9C65.5829 14.3667 65.6496 16.7333 65.6496 19C65.7163 20.0667 65.7496 21.4 65.7496 23C65.7496 23.5333 65.6163 23.9667 65.3496 24.3C65.0829 24.7 64.8163 24.9 64.5496 24.9V24.9ZM71.4496 24.7C70.6496 24.7 69.9829 24.5667 69.4496 24.3C69.1163 24.1667 68.9496 23.9667 68.9496 23.7C68.9496 23.4333 69.0163 23.2333 69.1496 23.1C69.2829 22.9667 69.4829 22.9 69.7496 22.9C69.9496 22.9 70.2496 22.9667 70.6496 23.1C71.0496 23.2333 71.3163 23.3 71.4496 23.3C71.7829 23.3 72.1163 23.1667 72.4496 22.9C72.7829 22.5 73.0496 22.0333 73.2496 21.5C73.5829 20.4333 73.7496 19.5 73.7496 18.7C73.7496 17.8333 73.6163 16.9 73.3496 15.9C73.0829 14.9 72.7163 13.9333 72.2496 13L71.7496 12C71.2163 11 70.8163 10.2 70.5496 9.60001C70.283 9.00001 70.0496 8.33334 69.8496 7.60001C69.5163 6.60001 69.3496 5.63335 69.3496 4.70001C69.3496 3.96668 69.4829 3.26667 69.7496 2.60001C70.0163 1.93334 70.4163 1.4 70.9496 1C71.4163 0.466667 72.0496 0.200012 72.8496 0.200012C73.1829 0.200012 73.5496 0.333339 73.9496 0.600006C74.2829 0.800006 74.5163 1.06668 74.6496 1.40001L74.1496 2C73.6163 2 73.2163 1.90001 72.9496 1.70001C72.5496 1.76668 72.2163 1.96667 71.9496 2.3C71.6829 2.56667 71.4829 2.93334 71.3496 3.40001C71.2163 3.73334 71.1496 4.1 71.1496 4.5C71.1496 5.3 71.2496 6.10001 71.4496 6.90001C71.6496 7.76668 71.9496 8.53335 72.3496 9.20001L74.4496 13.6C74.8496 14.3333 75.1496 15.1667 75.3496 16.1C75.5496 17.0333 75.6496 17.9667 75.6496 18.9C75.6496 20.2333 75.3163 21.5 74.6496 22.7C74.3163 23.3667 73.8496 23.8667 73.2496 24.2C72.7163 24.5333 72.1163 24.7 71.4496 24.7Z" fill="white"/>
</svg>
