<svg width="918" height="107" viewBox="0 0 918 107" fill="none" xmlns="http://www.w3.org/2000/svg">
<path d="M5.8 100.8C4.86667 100.8 4.1 100.433 3.5 99.7C2.96667 98.8333 2.7 97.8 2.7 96.6L3 74.9C3.26667 64.4333 3.4 56.3 3.4 50.5C3.4 30.5 2.26667 15.1667 0 4.5C1.33333 2.5 2.96667 1.5 4.9 1.5C8.1 1.5 11 2.23333 13.6 3.7C16.2667 5.1 18.4333 6.99999 20.1 9.39999C23.5 14.4 25.2 20 25.2 26.2C25.2 32.6 23.8 38.3333 21 43.4C18.2667 48.5333 14.2667 52.5 9 55.3L9.3 68.3L9.6 75.2C9.66667 76.6667 9.7 78.7667 9.7 81.5C9.96667 87.2333 10.1 91.9333 10.1 95.6C10.1 97.2 9.73333 98.4667 9 99.4C8.33333 100.333 7.26667 100.8 5.8 100.8V100.8ZM8.8 49.1C12.1333 45.9 14.5667 42.6 16.1 39.2C17.7667 35.6667 18.6 31.7 18.6 27.3V27.2C18.6 25.2 18.4 22.7 18 19.7C17.7333 18.7 17.2333 17.6667 16.5 16.6C15.8333 15.6 15.4667 15 15.4 14.8C14.8 13.9333 13.2 12.6 10.6 10.8L7.2 8.39999C7.2 12.7333 7.46667 19.5 8 28.7L8.8 49.1ZM61.3 102.4C59.4333 102.4 57.7333 100.333 56.2 96.2C54.4 91.7333 53.0667 87.1333 52.2 82.4L51.3 78C48.7667 65.7333 47.1667 58.7333 46.5 57H44.9C44.9 59.4667 44.8667 61.7333 44.8 63.8V70.9C44.8 82.4333 45.6333 91.4333 47.3 97.9L45.8 101.4H42.2L40.6 99.4L40.7 90.8C40.7 83.0667 40.3 71.3333 39.5 55.6C38.8333 38.8 38.5 27.0667 38.5 20.4C38.5 16.2667 39.9 14.2 42.7 14.2C47.3667 14.2 51.1667 15.4 54.1 17.8C57.1 20.2 58.6 23.5333 58.6 27.8V36.9C58.6 38.1667 58.4 39.6667 58 41.4C57.5333 43 57.0333 44.3333 56.5 45.4L54.1 50L52 53.9L52.7 57L54.5 66.2C55.7 72.8 56.8667 78.1667 58 82.3C59.0667 86.4333 60.4333 90.1667 62.1 93.5L62.9 95.1C63.7667 96.7667 64.2 98.1333 64.2 99.2C64.2 100.067 63.9333 100.833 63.4 101.5C62.8667 102.1 62.1667 102.4 61.3 102.4V102.4ZM45.5 50.7C47.3667 49.7667 48.9333 47.1667 50.2 42.9C51.6 38.6333 52.3 34.7 52.3 31.1C52.3 28.3 51.9667 25.7 51.3 23.3C50.8333 21.9667 50.1 20.9333 49.1 20.2C48.1 19.4667 46.9 19.1 45.5 19.1L45.2 19.7L44.9 20.9L45.2 36.1C45.4 40.5667 45.5 45.4333 45.5 50.7ZM91.9 102.7C89.6333 102.7 87.5667 102 85.7 100.6C83.8333 99.1333 82.3 97.2 81.1 94.8C78.5667 89.5333 77 83.8 76.4 77.6C75.6667 71.8 75.3 66.1667 75.3 60.7C75.3 59.7 75.3333 58.8667 75.4 58.2V55.8C75.4 55.4 75.3667 55.2 75.3 55.2V52.9L75.4 43.8C75.4667 41.0667 75.8 36.7 76.4 30.7C76.8667 26.5667 77.8667 22.5667 79.4 18.7C80 16.9667 80.7667 15.6667 81.7 14.8C82.6333 13.8667 83.7 13.4 84.9 13.4C88.3667 13.4 91.4667 14.0333 94.2 15.3C96.9333 16.5 99.2667 18.2333 101.2 20.5C102.933 22.6333 104.4 25.3 105.6 28.5C106.8 31.5667 107.633 34.8667 108.1 38.4C108.633 42 108.9 45.8333 108.9 49.9V50.9C108.9 53.5667 108.967 56 109.1 58.2L109.2 65.5C109.2 90.3 103.433 102.7 91.9 102.7V102.7ZM91.4 97.3C92.9333 97.3 94.3333 96.6667 95.6 95.4C96.9333 94.1333 97.9333 92.4333 98.6 90.3C100.267 85.9 101.267 81.1667 101.6 76.1C102 71.7 102.2 67.9 102.2 64.7C102.2 60.8333 101.9 55.7667 101.3 49.5C100.767 42.9 100.5 37.9667 100.5 34.7V32.4C100.367 29.1333 99.2667 26.3 97.2 23.9C95.2 21.4333 92.7333 20.2 89.8 20.2C86.8667 20.2 84.9333 21.9 84 25.3C83.1333 27.9667 82.7 31.4 82.7 35.6C82.7 37.2 82.7667 38.5667 82.9 39.7V43.2L82.6 49.1C82.4 50.9 82.3 52.9 82.3 55.1C82.3 59.7 82.4333 64.3 82.7 68.9C83.1 75.3 83.9667 81.5667 85.3 87.7C86.7 94.1 88.7333 97.3 91.4 97.3V97.3ZM127 101.5C125.067 101.5 123.9 100.7 123.5 99.1C123.167 98.0333 123 96.5667 123 94.7C123 90.9667 123.167 86.4 123.5 81C123.9 75.8667 124.1 71.2667 124.1 67.2C124.1 62.6667 124.233 55.8333 124.5 46.7L124.8 26.3C124.8 25.5 124.667 24.3333 124.4 22.8L124 19.6V18.9C124 16.9667 124.3 15.5333 124.9 14.6C125.5 13.6 126.633 13.1 128.3 13.1C130.5 13.1 132.933 13.7667 135.6 15.1C138.267 16.3667 140.2 18 141.4 20C143.933 24.1333 145.2 29.3 145.2 35.5C145.2 40.1 144.8 44 144 47.2C143.2 50.2667 141.867 53.1333 140 55.8C142.333 58.0667 143.9 60.9667 144.7 64.5C145.5 67.9 145.9 72.2333 145.9 77.5C145.9 82.7667 145 87.3333 143.2 91.2C141.133 95.6 138.133 98.6 134.2 100.2C131.8 101.067 129.4 101.5 127 101.5V101.5ZM131.1 52.1C135.567 52.0333 137.8 46.8333 137.8 36.5C137.8 25.4333 136.033 19.6333 132.5 19.1C131.567 21.0333 131.1 25.6667 131.1 33V52.1ZM130.3 94.9C133.1 94.3 135.267 92.6667 136.8 90C138.333 87.3333 139.1 84.3 139.1 80.9C139.1 77.3 138.9 74.1 138.5 71.3C138.1 69.1667 137.6 67.4 137 66C136.533 64.5333 135.833 63.2 134.9 62C133.833 60.7333 132.6 59.9667 131.2 59.7C130.867 64.6333 130.7 71.1333 130.7 79.2C130.7 79.7333 130.633 81.3667 130.5 84.1L130.2 88.5C130.2 88.6333 130.233 88.7667 130.3 88.9V89.1V94.9ZM179.9 102.3C176.767 101.233 172.933 100.7 168.4 100.7C167 101.567 165.533 102 164 102C163 102 162.1 101.567 161.3 100.7C160.633 99.7667 160.3 98.8 160.3 97.8C160.3 90.5333 160.6 80.9 161.2 68.9C161.667 56.1 161.9 46.5 161.9 40.1V39.2C161.433 33.8 161.2 29.7667 161.2 27.1C161.2 18.9 162.7 14.8 165.7 14.8C166.567 14.8 167.3 15.1667 167.9 15.9C168.567 16.5 168.9 17.2 168.9 18C168.9 19.0667 168.767 20.7333 168.5 23C168.233 25.1333 168.1 26.7667 168.1 27.9C168.1 33.6333 168.167 38.8333 168.3 43.5C168.367 48.0333 168.4 53.1667 168.4 58.9C167.933 60.2333 167.7 62.0667 167.7 64.4V65.9L167.5 76.1C167.3 79.1 167.2 82.5333 167.2 86.4C167.2 92.3333 168.633 95.3 171.5 95.3C171.633 95.3 171.9 95.3 172.3 95.3C172.7 95.2333 173.233 95.2 173.9 95.2C174.7 95.1333 175.7 95.1 176.9 95.1C181.567 95.1 183.9 96.3667 183.9 98.9C183.9 99.7667 183.5 100.5 182.7 101.1C181.9 101.7 180.967 102.1 179.9 102.3ZM200.5 101.9C199.367 101.9 198.333 101.5 197.4 100.7C196.533 99.9667 196.067 99.0333 196 97.9V94.5V92C195.933 91.2 195.9 90.3 195.9 89.3C195.9 87.4333 195.767 84.6667 195.5 81L195.2 72.7C195.2 68.5 195.333 62.2333 195.6 53.9C195.933 46.4333 196.1 40.1667 196.1 35.1C196.1 33.9 195.967 32.1 195.7 29.7C195.5 27.1667 195.4 25.3333 195.4 24.2C195.4 18.1333 197.2 15.1 200.8 15.1C203.6 15.1 206.867 15.6667 210.6 16.8C214.333 17.8667 216.2 19.2 216.2 20.8C216.2 21.6 215.833 22.4 215.1 23.2C214.433 23.8667 213.567 24.4333 212.5 24.9C208.9 23.6333 205.633 22.7667 202.7 22.3C202.767 23.5667 202.8 25.4333 202.8 27.9C202.8 31.3 202.767 34.3667 202.7 37.1C202.433 41.2333 202.3 44.3333 202.3 46.4L202.7 48.5L204.8 48.4C205.467 48.2667 206.3 48.2 207.3 48.2C211.433 48.2 213.5 49.4 213.5 51.8C213.5 52.8 213.133 53.6333 212.4 54.3C211.6 54.9 210.6 55.2 209.4 55.2C207.867 55.2 206.667 55.1 205.8 54.9H202.6C202.733 57.1667 202.8 60.4333 202.8 64.7C202.8 69.0333 202.767 72.9333 202.7 76.4C202.433 81.6 202.3 85.5 202.3 88.1C202.3 92.9 202.4 95.3 202.6 95.3L206.8 95.2C208.267 95.1333 210.033 95.1 212.1 95.1C215.367 95.1 217 96.1333 217 98.2C217 99.4 216.433 100.333 215.3 101C214.3 101.6 213.033 101.9 211.5 101.9H200.5ZM283.2 106.9C280.533 106.9 279.2 104.233 279.2 98.9V90.7V82.4C279.2 78.1333 278.9 72.5 278.3 65.5C277.567 57.7 277.2 52.3333 277.2 49.4L277.5 41.4C277.633 39.0667 277.7 36.4333 277.7 33.5C277.367 34.6333 275.967 40.5667 273.5 51.3C270.967 61.7 268.4 71.3333 265.8 80.2C263.2 88.7333 261.067 93 259.4 93C257.8 93 256.467 92.5333 255.4 91.6C254.467 90.5333 254 89.1667 254 87.5C254 83.7 252.467 75.6333 249.4 63.3C246.4 51.0333 243.633 40.9667 241.1 33.1L240.3 47.7C239.633 60.0333 239.167 70.2667 238.9 78.4C238.767 86.3333 238.7 91.7667 238.7 94.7C238.7 95.3667 238.733 96 238.8 96.6V98.4C238.8 99.8667 238.5 101 237.9 101.8C237.3 102.467 236.167 102.8 234.5 102.8C233.633 102.8 232.833 102.5 232.1 101.9C231.3 101.233 230.9 100.5 230.9 99.7C230.9 90.9 231.567 77.7333 232.9 60.2C234.167 42.6667 234.8 29.5333 234.8 20.8C234.267 20 234 19.1667 234 18.3C234 17.3 234.467 16.5333 235.4 16C236.467 15.4 237.667 15.1 239 15.1C240.133 15.1 242.2 19.1333 245.2 27.2C248.267 35.2667 251.3 44.4333 254.3 54.7C257.3 64.9 259.233 72.3 260.1 76.9C260.767 74.5667 261.333 72.4 261.8 70.4L262.5 67.3C265.3 55.3 268.067 44.4333 270.8 34.7C272.4 28.7667 274 24.1333 275.6 20.8C277.133 17.1333 278.533 15.3 279.8 15.3C281 15.3 282.067 15.6667 283 16.4C284.067 17 284.6 17.8 284.6 18.8C284.6 25 284.867 34.3 285.4 46.7C286 58.2333 286.3 67.1667 286.3 73.5L286.1 80.4L285.9 87.2C285.9 88.2 286.033 89.7333 286.3 91.8L286.6 96.4C286.733 97.1333 286.8 97.7333 286.8 98.2C286.867 98.6 286.9 98.8333 286.9 98.9C287.367 100.033 287.6 100.867 287.6 101.4C287.6 102.867 287.167 104.167 286.3 105.3C285.433 106.367 284.4 106.9 283.2 106.9V106.9ZM305.9 102C304.3 101.733 302.967 101.2 301.9 100.4C300.833 99.5333 300.233 98.4 300.1 97L301.5 94.8C302.033 94.8 302.833 94.9667 303.9 95.3C305.233 95.5667 306.233 95.7 306.9 95.7C308.433 95.7 309.8 95 311 93.6C312.333 92.2667 313.3 90.4667 313.9 88.2C314.967 84.0667 315.5 80.3667 315.5 77.1C315.5 71.4333 313.7 65.4667 310.1 59.2L308.7 56.7C307.1 53.9 305.733 51.3667 304.6 49.1C303.467 46.9 302.5 44.5 301.7 41.9C300.7 38.5667 300.2 35.2333 300.2 31.9C300.2 28.1 301.067 24.1333 302.8 20C303.667 18 304.867 16.4 306.4 15.2C308 13.9333 309.8 13.3 311.8 13.3C313.333 13.3 314.767 13.8 316.1 14.8C317.433 15.7333 318.1 16.9 318.1 18.3C318.1 19.1 317.8 19.7 317.2 20.1C316.6 20.5667 315.867 20.8 315 20.8C314.067 20.8 313.167 20.5333 312.3 20C310.433 20.0667 308.933 21.7333 307.8 25C306.867 28 306.4 30.5 306.4 32.5C306.4 34.9667 306.767 37.5 307.5 40.1C308.3 42.5667 309.3 44.8333 310.5 46.9L313.4 52.1L317.9 60.6C319.1 63 320.033 65.8 320.7 69C321.5 72.2 321.9 75.4333 321.9 78.7C321.9 83.9 320.7 88.8667 318.3 93.6C317.033 96.0667 315.3 98 313.1 99.4C310.967 100.867 308.567 101.6 305.9 101.6V102ZM363.1 101C360.9 101 359.8 95.3667 359.8 84.1L360 63.7C360.133 57.7 360.2 50.9667 360.2 43.5C360.2 40.7 359.933 36.4333 359.4 30.7C359 24.4333 358.8 20.6 358.8 19.2C358.8 18.0667 359.267 17.1 360.2 16.3C361.133 15.4333 362.167 15 363.3 15C366.3 15 369.167 15.6667 371.9 17C374.767 18.3333 377.267 20.2 379.4 22.6C383.933 27.8 386.933 33.5667 388.4 39.9C389.2 43.0333 389.6 46.1667 389.6 49.3C389.6 50.4333 389.567 51.4667 389.5 52.4L389.3 55.9V63C389.3 68.4667 389.133 72.8 388.8 76C388.267 80.2667 387.267 84.1 385.8 87.5C384.133 91.1 381.667 94.3 378.4 97.1C376.8 98.4333 374.8 99.7333 372.4 101H363.1ZM368.8 94.4C370.533 94.4 372.133 93.9667 373.6 93.1C375.067 92.1667 376.3 90.9333 377.3 89.4C378.167 88 378.933 86.2667 379.6 84.2C380.4 82.0667 380.967 80 381.3 78C382.1 74.1333 382.567 70.2 382.7 66.2C382.833 65.1333 382.9 63.6333 382.9 61.7C382.9 35.7 377.867 22.1333 367.8 21C367.2 24.8667 366.9 29.3333 366.9 34.4C366.9 39.8667 367.233 49.3333 367.9 62.8C368.5 74.8 368.8 84.3 368.8 91.3V94.4ZM417.4 102.2C415.333 102.2 413.5 101.767 411.9 100.9C410.233 99.9667 408.9 98.6333 407.9 96.9C405.833 93.3 404.5 89.2 403.9 84.6C403.3 80.6667 403 75.9333 403 70.4C402.733 61.1333 402.6 49.8 402.6 36.4L402.5 26.5C402.367 25.9667 402.3 25.1 402.3 23.9C402.167 20.6333 402.1 18.6333 402.1 17.9C402.9 16.1 403.8 15.2 404.8 15.2C405.8 15.2 406.7 15.9667 407.5 17.5C408.367 19.1 408.8 20.8 408.8 22.6V57.7C408.8 61.1 409.1 65.6333 409.7 71.3C410.3 78.3667 410.6 82.9333 410.6 85C410.6 91.4 413.3 94.6 418.7 94.6C424.9 94.6 428 71.4667 428 25.2V17.9V16.8C427.933 16.5333 427.9 16.1667 427.9 15.7C427.9 14.7 428.1 14 428.5 13.6C429.033 13.0667 430 12.8 431.4 12.8C432.533 12.8 433.4 13.1333 434 13.8C434.667 14.4 435.067 15.1333 435.2 16C435.333 16.5333 435.4 17.5333 435.4 19C435.4 20.3333 435.267 22.5 435 25.5C434.667 28.0333 434.5 30.2 434.5 32C434.5 34 434.4 35.7667 434.2 37.3L434 42.7V43.7C434.067 44.1 434.1 44.5 434.1 44.9C434.1 83.1 428.533 102.2 417.4 102.2V102.2ZM456.1 101.9C455.033 101.9 454 101.533 453 100.8C452.2 100 451.733 99.0333 451.6 97.9V94.6V92C451.533 91.2 451.5 90.3 451.5 89.3C451.5 87.5 451.367 84.7333 451.1 81L450.9 72.8C450.9 68.5333 451 62.2333 451.2 53.9C451.6 46.4333 451.8 40.1667 451.8 35.1C451.8 33.9 451.667 32.1 451.4 29.7C451.133 27.1667 451 25.3667 451 24.3C451 18.1667 452.8 15.1 456.4 15.1C459.267 15.1 462.533 15.6667 466.2 16.8C470 17.9333 471.9 19.2667 471.9 20.8C471.9 21.6667 471.5 22.4667 470.7 23.2C470.033 23.9333 469.167 24.5 468.1 24.9C464.5 23.6333 461.233 22.7667 458.3 22.3C458.433 23.6333 458.5 25.5 458.5 27.9C458.5 31.3 458.433 34.4 458.3 37.2C458.033 41.2667 457.9 44.3333 457.9 46.4L458.3 48.5L460.4 48.4C461.067 48.3333 461.933 48.3 463 48.3C467.133 48.3 469.2 49.5 469.2 51.9C469.2 52.8333 468.8 53.6333 468 54.3C467.2 54.9 466.2 55.2 465 55.2C463.467 55.2 462.267 55.1333 461.4 55H458.2C458.4 57.2 458.5 60.4667 458.5 64.8C458.5 69.0667 458.433 72.9333 458.3 76.4C458.033 81.6 457.9 85.5 457.9 88.1C457.9 92.9 458 95.3 458.2 95.3L462.5 95.2C463.967 95.1333 465.733 95.1 467.8 95.1C471.067 95.1 472.7 96.1333 472.7 98.2C472.7 99.4 472.133 100.333 471 101C469.933 101.6 468.633 101.9 467.1 101.9H456.1ZM520 99.9L517.6 98.2L517.5 93.1C517.433 91.7 517.4 90.0667 517.4 88.2L517.5 83.9C517.233 82.9 516.6 73.4667 515.6 55.6C514.533 37.7333 513.933 26.2667 513.8 21.2C508.8 21 505.6 20.4667 504.2 19.6C503.267 18.9333 502.8 18.1667 502.8 17.3C502.8 16.6333 503.233 16.0333 504.1 15.5C505.033 14.9 505.967 14.6 506.9 14.6C509.3 14.6 512.233 14.7667 515.7 15.1C518.967 15.5 521.9 15.7 524.5 15.7H525.5H526.5C529.167 15.7 530.5 16.7333 530.5 18.8C530.5 19.8667 530.1 20.7333 529.3 21.4C528.433 22 527.433 22.3 526.3 22.3C525.5 22.3 524.367 22.1667 522.9 21.9L520.3 21.4L520.2 22.1L520.1 22.7C520.1 30.3667 520.833 42.5667 522.3 59.3C523.633 75.1 524.3 87.3333 524.3 96C524.3 97 523.833 97.9 522.9 98.7C522.033 99.5 521.067 99.9 520 99.9V99.9ZM558.5 102.7C556.3 102.7 554.233 102 552.3 100.6C550.433 99.1333 548.9 97.2 547.7 94.8C545.233 89.6 543.7 83.9 543.1 77.7C542.3 71.8333 541.9 66.2 541.9 60.8C541.9 59.7333 541.933 58.8667 542 58.2V55.9C542 55.4333 541.967 55.2 541.9 55.2V52.9L542 43.9C542.133 41.1 542.5 36.7 543.1 30.7C543.5 26.5667 544.467 22.5667 546 18.7C546.6 16.9667 547.367 15.6667 548.3 14.8C549.3 13.8667 550.4 13.4 551.6 13.4C555 13.4 558.1 14.0667 560.9 15.4C563.633 16.6 565.933 18.3 567.8 20.5C569.533 22.6333 571 25.3 572.2 28.5C573.4 31.6333 574.267 34.9333 574.8 38.4C575.333 42.0667 575.6 45.9 575.6 49.9V51C575.6 53.6667 575.633 56.0667 575.7 58.2L575.8 65.5C575.8 90.3 570.033 102.7 558.5 102.7V102.7ZM558 97.3C559.533 97.3 560.967 96.7 562.3 95.5C563.567 94.1667 564.533 92.4333 565.2 90.3C566.867 85.9 567.867 81.1667 568.2 76.1C568.667 71.7 568.9 67.9333 568.9 64.8C568.9 60.9333 568.6 55.8333 568 49.5C567.467 42.9 567.2 37.9667 567.2 34.7V32.4C567 29.1333 565.867 26.3 563.8 23.9C561.867 21.5 559.433 20.3 556.5 20.3C553.567 20.3 551.633 21.9667 550.7 25.3C549.833 27.9667 549.4 31.4 549.4 35.6C549.4 37.2667 549.433 38.6333 549.5 39.7V43.2L549.2 49.2C549.067 51 549 52.9667 549 55.1C549 59.7667 549.133 64.3667 549.4 68.9C549.733 75.3667 550.6 81.6333 552 87.7C553.333 94.1 555.333 97.3 558 97.3V97.3ZM620.7 101C619.1 101 617.7 100.8 616.5 100.4C615.033 99.9333 614.3 98.7333 614.3 96.8V21.8C614.3 20.3333 614.033 18.1333 613.5 15.2C612.9 12.5333 612.6 10.3333 612.6 8.6V8.3C614.067 5.83333 615.133 4.26667 615.8 3.6C617 3.6 618.6 3.43333 620.6 3.1C622.4 2.76667 624 2.6 625.4 2.6C626.733 2.6 628.067 3.03333 629.4 3.89999C630.667 4.63333 631.3 5.56666 631.3 6.7C631.3 9.3 629.333 10.6 625.4 10.6H623.5C623.033 10.5333 622.433 10.5 621.7 10.5C620.967 10.5 620.5 10.5333 620.3 10.6C620.3 13.5333 620.467 17.0667 620.8 21.2L621.1 24.8L621.4 31.9C621.4 33.5 621.267 36 621 39.4L620.7 46.6L622.5 46.2C624.233 45.6667 625.667 45.4 626.8 45.4C627.733 45.4 628.6 45.8 629.4 46.6C630.133 47.2667 630.5 48.0667 630.5 49C630.5 50.0667 630.167 51.0333 629.5 51.9C628.9 52.6333 628.133 53 627.2 53L625.6 52.9H623.9C622.633 52.9 621.733 53.2 621.2 53.8V93.7L628.5 93.3C633.367 93.3 635.8 94.4 635.8 96.6V97.1C635.267 98.1667 634.333 99.0333 633 99.7C631.6 100.3 630.267 100.7 629 100.9L624.7 101H620.7ZM656.1 59C654.967 59 653.967 58.6333 653.1 57.9C652.233 57.1667 651.8 56.2667 651.8 55.2C651.8 54.2 652.833 53.3 654.9 52.5C657.833 51.3667 662.9 50.6 670.1 50.2C672.833 50 674.6 49.9 675.4 49.9C676.533 49.9 677.533 50.3 678.4 51.1C679.267 51.7667 679.7 52.6333 679.7 53.7C679.7 54.7 678.667 55.6 676.6 56.4C673.667 57.5333 668.567 58.3 661.3 58.7C658.567 58.9 656.833 59 656.1 59ZM710.8 102C707.6 102 706 98.7333 706 92.2C706 88.0667 704.2 73.3333 700.6 48C697.067 22.5333 694.833 8.63333 693.9 6.3C694.967 4.23333 696.467 3.2 698.4 3.2C700.333 3.2 702.167 7.66667 703.9 16.6C705.567 26.0667 706.933 36.9333 708 49.2L708.9 59.6C709.433 65.4667 709.733 68.4333 709.8 68.5L711.1 57.7L711.9 51C713.033 41.2 713.767 34.2667 714.1 30.2C714.567 24.8667 714.8 21.2 714.8 19.2V16.8C714.8 15.8667 715.133 14.9667 715.8 14.1C716.467 13.2333 717.233 12.8 718.1 12.8C721.167 12.8 722.7 14.0667 722.7 16.6V18.6C722.7 23.4667 723.2 28.7333 724.2 34.4C725.2 40 726.667 46.7333 728.6 54.6C729.8 59.1333 731 64.6667 732.2 71.2C732.467 68.4 733.267 61.5333 734.6 50.6C736 40.6 737 32.1333 737.6 25.2C738.267 18.1333 738.6 11.5333 738.6 5.39999C738.6 3.46666 738.9 2.1 739.5 1.3C740.233 0.433329 741.5 0 743.3 0C744.3 0 745.2 0.333333 746 1C746.867 1.6 747.3 2.43333 747.3 3.5C747.3 4.43333 746.867 5.43333 746 6.5C746 12.6333 745.533 19.9 744.6 28.3C743.6 36.5 742.433 44.3667 741.1 51.9C739.7 59.1667 738.533 67.0333 737.6 75.5C736.667 83.8333 736.2 91.1667 736.2 97.5C736.2 98.9 735.833 100.033 735.1 100.9C734.5 101.633 733.567 102 732.3 102C731.367 102 730.233 100.267 728.9 96.8C727.3 91.8667 725.3 82.1 722.9 67.5L720.6 52.4L719.4 44C718.267 51.8 717.4 58.1333 716.8 63C716.267 67.7333 715.767 73.3667 715.3 79.9C714.7 86.1667 714.4 92.3333 714.4 98.4C714.4 99.2667 714 100.1 713.2 100.9C712.533 101.633 711.733 102 710.8 102ZM787.1 101.4C785.167 101.4 783.7 101.1 782.7 100.5C781.767 99.9 781.3 98.7667 781.3 97.1C781.3 94.5667 780.867 90.2 780 84L779.5 81.3L766.7 79.3C766.233 81.3 765.5 85.3 764.5 91.3C764.033 95.5667 763.233 98.3667 762.1 99.7C761.5 100.5 760.633 100.9 759.5 100.9C758.5 100.9 757.567 100.6 756.7 100C755.833 99.2667 755.4 98.4333 755.4 97.5L755.6 96.9L755.8 96.4C761.467 74.2667 765.767 52.4667 768.7 31C768.7 30.6 768.733 30.0333 768.8 29.3C768.867 28.4333 768.967 27.2333 769.1 25.7C769.3 22.5 769.533 19.9667 769.8 18.1C770.2 16.1667 770.733 14.7333 771.4 13.8H775.8C777 13.8 778.033 14.1 778.9 14.7C779.767 15.2333 780.2 16 780.2 17C780.2 23.5333 781.1 33.2667 782.9 46.2C784.567 59.4667 785.4 68.7667 785.4 74.1C785.4 74.5667 785.633 75.9 786.1 78.1C786.5 80.0333 786.7 81.3 786.7 81.9C786.7 82.5 787.133 85.1 788 89.7C788.8 93.8333 789.2 96.5 789.2 97.7V97.8C789.2 99.6667 788.5 100.867 787.1 101.4V101.4ZM778.6 76.6C778.333 75.3333 778.2 73.7667 778.2 71.9C778.2 64.1 777.533 54.2 776.2 42.2L774.9 28.8C771.167 49 768.633 64.2667 767.3 74.6C768.567 75.4667 772.333 76.1333 778.6 76.6ZM802.6 102C801.067 101.8 799.733 101.267 798.6 100.4C797.6 99.5333 797 98.4 796.8 97L798.2 94.8C798.733 94.8 799.567 94.9667 800.7 95.3C801.967 95.5667 802.933 95.7 803.6 95.7C805.2 95.7 806.6 95.0333 807.8 93.7C809.067 92.3 810 90.4667 810.6 88.2C811.733 84.0667 812.3 80.3667 812.3 77.1C812.3 71.4333 810.5 65.4667 806.9 59.2L805.4 56.8C803.8 53.9333 802.433 51.4 801.3 49.2C800.167 46.9333 799.233 44.5 798.5 41.9C797.433 38.5667 796.9 35.2333 796.9 31.9C796.9 28.1 797.767 24.1333 799.5 20C800.367 18 801.567 16.4 803.1 15.2C804.767 13.9333 806.567 13.3 808.5 13.3C810.1 13.3 811.533 13.8 812.8 14.8C814.2 15.8 814.9 16.9667 814.9 18.3C814.9 19.1 814.6 19.7 814 20.1C813.333 20.5667 812.6 20.8 811.8 20.8C810.8 20.8 809.9 20.5333 809.1 20C807.167 20.0667 805.633 21.7333 804.5 25C803.567 28 803.1 30.5 803.1 32.5C803.1 35.0333 803.5 37.5667 804.3 40.1C805.033 42.6333 806 44.9333 807.2 47L810.1 52.1L814.6 60.6C815.8 63 816.733 65.8 817.4 69C818.2 72.2 818.6 75.4333 818.6 78.7C818.6 83.9667 817.4 88.9667 815 93.7C813.8 96.1 812.067 98.0333 809.8 99.5C807.667 100.967 805.267 101.7 802.6 101.7V102ZM841.7 99.8L839.4 98.1L839.2 93.1C839.133 91.6333 839.1 90 839.1 88.2L839.2 83.8C838.933 82.8 838.3 73.3667 837.3 55.5C836.3 37.6333 835.7 26.1667 835.5 21.1C830.5 20.9 827.3 20.3667 825.9 19.5C824.967 18.8333 824.5 18.0667 824.5 17.2C824.5 16.5333 824.933 15.9333 825.8 15.4C826.733 14.8 827.7 14.5 828.7 14.5C831.1 14.5 834 14.6667 837.4 15C840.667 15.4667 843.6 15.7 846.2 15.7H847.2H848.3C850.967 15.7 852.3 16.7333 852.3 18.8C852.3 19.8 851.867 20.6333 851 21.3C850.133 21.9 849.133 22.2 848 22.2C847.2 22.2 846.1 22.0667 844.7 21.8L842.1 21.3L841.9 22L841.8 22.6C841.8 30.2667 842.533 42.5 844 59.3C845.4 75.0333 846.1 87.2333 846.1 95.9C846.1 96.9 845.633 97.8 844.7 98.6C843.833 99.4 842.833 99.8 841.7 99.8V99.8ZM871.1 101.8C869.967 101.8 868.933 101.433 868 100.7C867.133 99.9 866.667 98.9333 866.6 97.8V94.5V91.9C866.533 91.1 866.5 90.2 866.5 89.2C866.5 87.4 866.367 84.6333 866.1 80.9L865.8 72.7C865.8 68.5 865.933 62.2 866.2 53.8C866.533 46.3333 866.7 40.0667 866.7 35C866.7 33.8 866.567 32 866.3 29.6C866.033 27.0667 865.9 25.2667 865.9 24.2C865.9 18.0667 867.733 15 871.4 15C874.2 15 877.467 15.5667 881.2 16.7C884.933 17.8333 886.8 19.1667 886.8 20.7C886.8 21.5667 886.433 22.3667 885.7 23.1C884.967 23.8333 884.1 24.4 883.1 24.8C879.5 23.5333 876.233 22.6667 873.3 22.2C873.367 23.5333 873.4 25.4 873.4 27.8C873.4 31.2 873.367 34.3 873.3 37.1C873.033 41.2333 872.9 44.3333 872.9 46.4L873.3 48.4L875.4 48.3C876.067 48.2333 876.9 48.2 877.9 48.2C882.033 48.2 884.1 49.4 884.1 51.8C884.1 52.7333 883.733 53.5333 883 54.2C882.2 54.8 881.2 55.1 880 55.1C878.467 55.1 877.267 55.0333 876.4 54.9H873.2C873.333 57.1 873.4 60.3667 873.4 64.7C873.4 68.9667 873.367 72.8333 873.3 76.3C873.033 81.5667 872.9 85.4667 872.9 88C872.9 92.8 873 95.2 873.2 95.2L877.4 95.1C878.867 95.0333 880.633 95 882.7 95C885.967 95 887.6 96.0333 887.6 98.1C887.6 99.3 887.033 100.233 885.9 100.9C884.9 101.5 883.633 101.8 882.1 101.8H871.1ZM912.3 40.3C911.233 40.3 910.267 39.8333 909.4 38.9C908.533 37.9667 908.1 36.9 908.1 35.7C908.1 34.3667 908.567 33.2 909.5 32.2C910.433 31.1333 911.567 30.6 912.9 30.6C914.1 30.6 915.167 31.1333 916.1 32.2C917.033 33.2 917.5 34.3 917.5 35.5C917.5 36.9 917 38.0667 916 39C915 39.8667 913.767 40.3 912.3 40.3V40.3ZM911.1 89.1C909.967 89.1 908.967 88.6 908.1 87.6C907.233 86.6667 906.8 85.6 906.8 84.4C906.8 83.1333 907.267 81.9667 908.2 80.9C909.133 79.9 910.267 79.4 911.6 79.4C912.8 79.4 913.833 79.9 914.7 80.9C915.633 81.8333 916.1 82.9667 916.1 84.3C916.1 85.6333 915.633 86.8 914.7 87.8C913.7 88.6667 912.5 89.1 911.1 89.1V89.1Z" fill="#325949"/>
</svg>
