<svg width="70" height="29" viewBox="0 0 70 29" fill="none" xmlns="http://www.w3.org/2000/svg">
<path d="M7.17013 28.7593C6.68402 28.7593 6.1979 28.4385 5.71179 27.7967V27.6763C5.63077 26.3126 5.42822 24.8285 5.10415 23.2241C4.69905 21.6196 4.13193 19.6943 3.40276 17.4481C2.83563 15.6833 2.34951 14.1189 1.94442 12.7552V27.4357C1.94442 27.8368 1.90394 28.1577 1.82292 28.3983C1.66088 28.5588 1.3773 28.639 0.972208 28.639C0.648134 28.639 0.405071 28.5588 0.243033 28.3983C0.0809963 28.1577 0 27.8769 0 27.556V27.3154L0.121498 16.3651C0.121498 13.1563 0.121498 9.50622 0.121498 5.41494V0.84232C0.121498 0.521435 0.202532 0.320882 0.364569 0.24066C0.445587 0.0802176 0.68865 0 1.09374 0C1.74189 0 2.34953 0.120326 2.91666 0.36099C3.40277 0.601654 3.84838 0.962652 4.25347 1.44398C4.98264 2.24619 5.46873 3.28907 5.71179 4.57261C5.7928 5.05394 5.83332 5.61549 5.83332 6.25726C5.83332 6.65836 5.7928 7.05947 5.71179 7.46058C5.71179 7.94191 5.71179 8.22269 5.71179 8.30291C5.63077 8.54357 5.50925 8.94468 5.34722 9.50623C5.18518 9.98755 5.06363 10.3084 4.98261 10.4689L4.49651 11.4315L4.13194 12.3942C4.13194 13.2766 4.29397 14.4398 4.61804 15.8838C4.94212 17.2476 5.26618 18.491 5.59025 19.6141C5.83331 20.4163 6.27892 21.7801 6.92706 23.7054L8.02081 27.0747C8.02081 27.4758 7.98033 27.8368 7.89931 28.1577C7.81829 28.5588 7.57523 28.7593 7.17013 28.7593V28.7593ZM1.94442 11.0705C2.26849 10.7497 2.67358 10.2683 3.15969 9.62656L3.76733 6.37759C3.76733 6.29737 3.76733 6.13693 3.76733 5.89627C3.76733 5.17428 3.64582 4.33194 3.40276 3.36929C3.24073 2.96818 3.03818 2.60719 2.79513 2.28631C2.55207 1.96542 2.30901 1.80498 2.06595 1.80498L1.94442 5.53527C1.94442 7.13969 1.94442 8.42323 1.94442 9.38589C1.94442 10.2683 1.94442 10.8299 1.94442 11.0705V11.0705ZM12.7604 28.8797C12.4363 28.8797 12.1528 28.7593 11.9097 28.5187C11.6667 28.278 11.5451 27.9972 11.5451 27.6763V26.7137V25.9917C11.4641 25.751 11.4236 25.5104 11.4236 25.2697C11.4236 24.7082 11.3831 23.9059 11.3021 22.8631V20.4564C11.3021 19.2531 11.3426 17.4481 11.4236 15.0415C11.5046 12.8755 11.5451 11.0304 11.5451 9.50623C11.5451 9.18534 11.5046 8.6639 11.4236 7.94191C11.3426 7.21992 11.3021 6.69847 11.3021 6.37759C11.3021 4.61272 11.8287 3.73029 12.8819 3.73029C13.6921 3.73029 14.6644 3.89073 15.7986 4.21162C16.8519 4.5325 17.3785 4.93361 17.3785 5.41494C17.3785 5.6556 17.257 5.89626 17.0139 6.13693C16.8519 6.29737 16.6088 6.45781 16.2847 6.61826C15.2315 6.21715 14.2997 5.97649 13.4896 5.89627C13.4896 6.21715 13.4896 6.73859 13.4896 7.46058C13.4896 8.42323 13.4896 9.30567 13.4896 10.1079C13.4085 11.3112 13.3681 12.2337 13.3681 12.8755L13.4896 13.4772L14.0972 13.3568C14.2592 13.3568 14.5023 13.3568 14.8264 13.3568C16.0417 13.3568 16.6493 13.7178 16.6493 14.4398C16.6493 14.6805 16.5278 14.9212 16.2847 15.1618C16.0417 15.3223 15.7581 15.4025 15.434 15.4025C14.9479 15.4025 14.5833 15.3624 14.3403 15.2822H13.3681C13.4491 15.9239 13.4896 16.8866 13.4896 18.1701C13.4896 19.3734 13.4896 20.4965 13.4896 21.5394C13.4085 23.0636 13.3681 24.1867 13.3681 24.9087C13.3681 26.2725 13.3681 26.9544 13.3681 26.9544H14.7048C15.1099 26.9544 15.5961 26.9544 16.1632 26.9544C17.1354 26.9544 17.6215 27.2351 17.6215 27.7967C17.6215 28.1176 17.4595 28.3983 17.1354 28.639C16.8113 28.7994 16.4467 28.8797 16.0417 28.8797H12.7604ZM26.7361 28.8797C26.169 28.8797 25.6018 28.7994 25.0347 28.639C24.3866 28.4786 23.9005 28.3181 23.5764 28.1577C21.875 27.0346 21.0243 24.1065 21.0243 19.3734V18.4108V17.2075V16.3651C21.0243 15.3223 21.0648 14.4398 21.1458 13.7178C21.1458 12.9156 21.1864 12.0332 21.2674 11.0705C21.3484 10.1079 21.4699 9.34578 21.6319 8.78423C21.794 8.14246 22.037 7.42047 22.3611 6.61826C22.6852 5.89627 23.0498 5.33471 23.4549 4.93361C23.8599 4.5325 24.4271 4.21161 25.1562 3.97095C25.8044 3.73029 26.5741 3.60996 27.4653 3.60996C27.8704 3.60996 28.1539 3.69018 28.316 3.85062C28.559 4.01106 28.6805 4.21161 28.6805 4.45228C28.6805 4.69294 28.5995 4.9336 28.4375 5.17427C28.2755 5.33471 28.0729 5.45505 27.8299 5.53527H26.1285C25.5614 5.53527 25.1157 5.81604 24.7917 6.37759C24.3866 7.01936 24.103 7.86169 23.941 8.90457C23.6169 10.6694 23.4549 12.1535 23.4549 13.3568V13.4772V17.0871C23.3738 18.13 23.3333 19.3333 23.3333 20.6971C23.3333 21.6598 23.3738 22.4219 23.4549 22.9834C23.5359 23.9461 23.7384 24.7082 24.0625 25.2697C24.3866 25.9115 24.9132 26.3928 25.6423 26.7137C25.9664 26.8741 26.3715 26.9544 26.8576 26.9544C27.1007 26.9544 27.3843 26.834 27.7083 26.5934C28.0324 26.5934 28.2755 26.6736 28.4375 26.834C28.6806 26.9945 28.8021 27.195 28.8021 27.4357C28.8021 28.3983 28.1134 28.8797 26.7361 28.8797V28.8797ZM35.3646 28.8797C34.8785 28.8797 34.5139 28.639 34.2708 28.1577C34.5139 27.5961 34.6354 25.4703 34.6354 21.7801C34.6354 20.8976 34.5949 19.935 34.5139 18.8921L34.3924 17.8091C34.3113 17.1674 34.2708 16.686 34.2708 16.3651V15.2822C34.0278 14.7206 33.5417 13.5975 32.8125 11.9129C32.1644 10.2282 31.6377 8.78423 31.2326 7.58091C30.7465 6.29737 30.5035 5.41494 30.5035 4.93361V4.69295L31.4757 4.09129C31.8808 4.17151 32.3264 4.73305 32.8125 5.77593C33.2176 6.65836 33.6632 7.98202 34.1493 9.74689C34.6354 11.4315 34.8785 12.314 34.8785 12.3942C34.9595 12.1535 35.162 11.231 35.4861 9.62656C35.7292 8.02213 36.0533 6.61826 36.4583 5.41494C36.8634 4.21162 37.309 3.60996 37.7951 3.60996C38.0382 3.60996 38.2407 3.69018 38.4028 3.85062C38.6458 4.01106 38.7674 4.17151 38.7674 4.33195C38.7674 5.61549 38.4028 7.42047 37.6736 9.74689C36.9445 12.2337 36.5798 14.0387 36.5798 15.1618V26.473C36.5798 28.0774 36.1748 28.8797 35.3646 28.8797V28.8797ZM47.882 28.8797C47.3958 28.8797 46.8287 28.7994 46.1806 28.639C45.5324 28.4786 45.0463 28.3181 44.7222 28.1577C43.1019 27.0346 42.2917 24.1065 42.2917 19.3734V18.4108V17.2075V16.3651C42.2917 15.3223 42.2917 14.4398 42.2917 13.7178C42.2917 12.9156 42.3322 12.0332 42.4132 11.0705C42.4942 10.1079 42.6157 9.34578 42.7778 8.78423C42.9398 8.14246 43.1829 7.42047 43.5069 6.61826C43.831 5.89627 44.1956 5.33471 44.6007 4.93361C45.0868 4.5325 45.6539 4.21161 46.3021 3.97095C46.9502 3.73029 47.7604 3.60996 48.7326 3.60996C49.0567 3.60996 49.3403 3.69018 49.5833 3.85062C49.7454 4.01106 49.8264 4.21161 49.8264 4.45228C49.8264 4.69294 49.7454 4.9336 49.5833 5.17427C49.4213 5.33471 49.2188 5.45505 48.9757 5.53527H47.2743C46.7882 5.53527 46.3426 5.81604 45.9375 6.37759C45.5324 7.01936 45.2488 7.86169 45.0868 8.90457C44.7627 10.6694 44.6007 12.1535 44.6007 13.3568V13.4772V17.0871C44.5197 18.13 44.4792 19.3333 44.4792 20.6971C44.4792 21.6598 44.5197 22.4219 44.6007 22.9834C44.7627 23.9461 44.9653 24.7082 45.2083 25.2697C45.5324 25.9115 46.059 26.3928 46.7882 26.7137C47.1933 26.8741 47.5984 26.9544 48.0035 26.9544C48.3276 26.9544 48.6111 26.834 48.8542 26.5934C49.1782 26.5934 49.4618 26.6736 49.7049 26.834C49.8669 26.9945 49.9479 27.195 49.9479 27.4357C49.9479 28.3983 49.2593 28.8797 47.882 28.8797V28.8797ZM59.184 29C58.2928 28.6791 57.1586 28.5187 55.7813 28.5187C55.3762 28.7593 54.9711 28.8797 54.566 28.8797C54.2419 28.8797 53.9583 28.7593 53.7153 28.5187C53.5532 28.278 53.4722 27.9972 53.4722 27.6763C53.4722 25.5906 53.5532 22.823 53.7153 19.3734C53.8773 15.603 53.9583 12.8354 53.9583 11.0705V10.7095C53.7963 9.18534 53.7153 8.02213 53.7153 7.21992C53.7153 4.8935 54.1609 3.73029 55.0521 3.73029C55.2951 3.73029 55.4977 3.81051 55.6597 3.97095C55.9028 4.13139 56.0243 4.37206 56.0243 4.69295C56.0243 4.93361 55.9838 5.37483 55.9028 6.0166C55.8218 6.65837 55.7813 7.13969 55.7813 7.46058C55.7813 9.14522 55.7813 10.6694 55.7813 12.0332C55.7813 13.3167 55.7813 14.8008 55.7813 16.4855C55.7002 16.8064 55.6597 17.3278 55.6597 18.0498V18.5311L55.5382 21.4191C55.5382 22.3015 55.5382 23.3043 55.5382 24.4274C55.5382 26.112 55.9433 26.9544 56.7535 26.9544C56.8345 26.9544 56.9155 26.9544 56.9965 26.9544C57.0776 26.9544 57.2396 26.9544 57.4826 26.9544C57.7257 26.9544 58.0093 26.9544 58.3334 26.9544C59.7107 26.9544 60.3993 27.3153 60.3993 28.0373C60.3993 28.278 60.2778 28.4786 60.0347 28.639C59.7917 28.7994 59.5081 28.9198 59.184 29V29ZM65.2604 28.8797C64.9363 28.8797 64.6123 28.7593 64.2882 28.5187C64.0452 28.278 63.9236 27.9972 63.9236 27.6763V26.7137V25.9917C63.8426 25.751 63.8021 25.5104 63.8021 25.2697C63.8021 24.7082 63.8021 23.9059 63.8021 22.8631L63.6806 20.4564C63.6806 19.2531 63.7211 17.4481 63.8021 15.0415C63.8831 12.8755 63.9236 11.0304 63.9236 9.50623C63.9236 9.18534 63.8831 8.6639 63.8021 7.94191C63.7211 7.21992 63.6806 6.69847 63.6806 6.37759C63.6806 4.61272 64.2072 3.73029 65.2604 3.73029C66.0706 3.73029 67.0428 3.89073 68.1771 4.21162C69.2303 4.5325 69.757 4.93361 69.757 5.41494C69.757 5.6556 69.6759 5.89626 69.5139 6.13693C69.2708 6.29737 68.9873 6.45781 68.6632 6.61826C67.61 6.21715 66.6782 5.97649 65.8681 5.89627C65.8681 6.21715 65.8681 6.73859 65.8681 7.46058C65.8681 8.42323 65.8681 9.30567 65.8681 10.1079C65.787 11.3112 65.7465 12.2337 65.7465 12.8755L65.8681 13.4772L66.4757 13.3568C66.6377 13.3568 66.8808 13.3568 67.2049 13.3568C68.4202 13.3568 69.0278 13.7178 69.0278 14.4398C69.0278 14.6805 68.9063 14.9212 68.6632 15.1618C68.4202 15.3223 68.1366 15.4025 67.8125 15.4025C67.3264 15.4025 66.9618 15.3624 66.7188 15.2822H65.8681C65.8681 15.9239 65.8681 16.8866 65.8681 18.1701C65.8681 19.3734 65.8681 20.4965 65.8681 21.5394C65.787 23.0636 65.7465 24.1867 65.7465 24.9087C65.7465 26.2725 65.787 26.9544 65.8681 26.9544H67.0833C67.4884 26.9544 68.0151 26.9544 68.6632 26.9544C69.5544 26.9544 70 27.2351 70 27.7967C70 28.1176 69.838 28.3983 69.5139 28.639C69.2708 28.7994 68.9063 28.8797 68.4202 28.8797H65.2604Z" fill="#325949"/>
</svg>
