<svg width="88" height="28" viewBox="0 0 88 28" fill="none" xmlns="http://www.w3.org/2000/svg">
<path d="M6.83154 27.7676C6.36838 27.7676 5.90521 27.4578 5.44205 26.8382V26.722C5.36486 25.4052 5.17187 23.9723 4.8631 22.4232C4.47714 20.8741 3.93683 19.0152 3.24209 16.8465C2.70174 15.1425 2.27714 13.6321 1.96836 12.3154V26.4896C1.96836 26.8769 1.89123 27.1867 1.73684 27.4191C1.58246 27.574 1.31227 27.6514 0.926302 27.6514C0.694723 27.6514 0.463101 27.574 0.231522 27.4191C0.0771364 27.1867 0 26.9156 0 26.6058V26.3735L0.115761 15.8008C0.115761 12.7026 0.115761 9.17842 0.115761 5.22822V0.813274C0.115761 0.503454 0.192968 0.309817 0.347354 0.232362C0.50174 0.0774515 0.77193 0 1.15789 0C1.69825 0 2.23855 0.116177 2.7789 0.348542C3.24206 0.580908 3.66667 0.929457 4.05263 1.39419C4.82456 2.16874 5.28766 3.17565 5.44205 4.41493C5.59643 4.87966 5.67364 5.42185 5.67364 6.04149C5.67364 6.42877 5.63507 6.81604 5.55788 7.20332C5.48069 7.66805 5.44205 7.93914 5.44205 8.0166C5.36486 8.24896 5.24908 8.63624 5.09469 9.17843C4.94031 9.64316 4.82453 9.95297 4.74734 10.1079L4.28415 11.0373L3.9368 11.9668C4.01399 12.8188 4.16841 13.9419 4.39999 15.3361C4.70876 16.6528 5.01752 17.8534 5.32629 18.9378C5.55787 19.7123 5.9824 21.0291 6.59994 22.888L7.64208 26.1411C7.64208 26.5283 7.60351 26.8769 7.52632 27.1867C7.44912 27.574 7.2175 27.7676 6.83154 27.7676V27.7676ZM1.8526 10.6888C2.16138 10.379 2.58591 9.91425 3.12626 9.29461L3.58945 6.15767C3.66664 6.08022 3.70521 5.92531 3.70521 5.69295C3.70521 4.99585 3.55086 4.18257 3.24209 3.25311C3.08771 2.86583 2.89472 2.51729 2.66314 2.20747C2.43156 1.89765 2.19994 1.74274 1.96836 1.74274V5.3444C1.89117 6.8935 1.8526 8.13278 1.8526 9.06224C1.8526 9.91424 1.8526 10.4564 1.8526 10.6888V10.6888ZM12.2737 27.8838C11.9649 27.8838 11.6561 27.7676 11.3474 27.5353C11.1158 27.3029 11 27.0318 11 26.722V25.7925V25.0954C10.9228 24.8631 10.8842 24.6307 10.8842 24.3983C10.8842 23.8561 10.8842 23.0816 10.8842 22.0747L10.7684 19.751C10.7684 18.5892 10.807 16.8465 10.8842 14.5228C10.9614 12.4315 11 10.6501 11 9.17843C11 8.86861 10.9614 8.36514 10.8842 7.66805C10.807 6.97095 10.7684 6.46749 10.7684 6.15767C10.7684 4.45366 11.2701 3.60166 12.2737 3.60166C13.0456 3.60166 13.9719 3.75657 15.0526 4.06639C16.0561 4.37621 16.5579 4.76349 16.5579 5.22822C16.5579 5.46058 16.4807 5.69294 16.3263 5.92531C16.0947 6.08022 15.8245 6.23513 15.5157 6.39004C14.5122 6.00277 13.6245 5.7704 12.8526 5.69295C12.8526 6.00277 12.8526 6.50622 12.8526 7.20332C12.8526 8.13278 12.8526 8.98479 12.8526 9.75934C12.7754 10.9212 12.7368 11.8119 12.7368 12.4315L12.8526 13.0124L13.4316 12.8963C13.5859 12.8963 13.8175 12.8963 14.1263 12.8963C15.2842 12.8963 15.8631 13.2448 15.8631 13.9419C15.8631 14.1743 15.7473 14.4066 15.5157 14.639C15.2842 14.7939 15.014 14.8714 14.7052 14.8714C14.242 14.8714 13.8947 14.8326 13.6631 14.7552H12.8526C12.8526 15.3748 12.8526 16.3043 12.8526 17.5436C12.8526 18.7054 12.8526 19.7898 12.8526 20.7967C12.7754 22.2683 12.7368 23.3527 12.7368 24.0498C12.7368 25.3665 12.7754 26.0249 12.8526 26.0249H14.0105C14.3965 26.0249 14.8982 26.0249 15.5157 26.0249C16.3649 26.0249 16.7895 26.296 16.7895 26.8382C16.7895 27.148 16.6351 27.4191 16.3263 27.6514C16.0947 27.8064 15.7473 27.8838 15.2842 27.8838H12.2737ZM21.5368 27.7676C21.228 27.7676 20.8035 27.574 20.2632 27.1867C20.4947 25.1729 20.6491 22.1134 20.7263 18.0083C20.8807 13.7483 20.9579 11.1535 20.9579 10.2241V9.41079C21.1123 7.08714 21.1895 5.46058 21.1895 4.53112C21.1895 4.14385 21.3052 3.87275 21.5368 3.71784C21.8456 3.56293 22.1543 3.48548 22.4631 3.48548C23.3122 3.48548 24.2386 3.5242 25.2421 3.60166C25.8596 3.75657 26.3228 3.91148 26.6316 4.06639C27.0175 4.29876 27.2105 4.56984 27.2105 4.87966C27.2105 5.57676 26.5929 5.92531 25.3579 5.92531C24.9719 5.69294 24.3544 5.57676 23.5052 5.57676H23.1579V6.04149C23.1579 6.97095 23.0807 8.13278 22.9263 9.52697C22.8491 10.9212 22.8105 12.1604 22.8105 13.2448V14.1743H23.0421H23.3894C24.6245 14.1743 25.2421 14.4841 25.2421 15.1037C25.2421 15.4135 25.0877 15.6459 24.7789 15.8008C24.5473 16.0332 24.2386 16.1494 23.8526 16.1494C23.3123 16.1494 22.8491 16.0719 22.4631 15.917V26.1411C22.4631 27.2254 22.1544 27.7676 21.5368 27.7676V27.7676ZM33.4631 28C32.9228 28 32.421 27.8838 31.9579 27.6514C31.4947 27.3416 31.1473 26.9544 30.9157 26.4896C30.2982 25.4827 29.9122 24.3209 29.7578 23.0041C29.6035 21.9198 29.5263 20.603 29.5263 19.0539C29.4491 16.4979 29.4105 13.361 29.4105 9.64315V6.85477C29.3333 6.69986 29.2947 6.42877 29.2947 6.04149C29.2947 5.18948 29.2947 4.6473 29.2947 4.41493C29.4491 3.9502 29.6807 3.71784 29.9894 3.71784C30.2982 3.71784 30.5684 3.91148 30.8 4.29875C31.0316 4.76348 31.1473 5.22822 31.1473 5.69295V15.5685C31.1473 16.4979 31.2245 17.7759 31.3789 19.4025C31.5333 21.3389 31.6105 22.5781 31.6105 23.1203C31.6105 24.9018 32.3824 25.7925 33.9263 25.7925C35.6245 25.7925 36.4737 19.3638 36.4737 6.50622V4.41493V4.06639C36.4737 3.98894 36.4737 3.91147 36.4737 3.83402C36.4737 3.5242 36.5123 3.33056 36.5894 3.25311C36.7438 3.0982 37.014 3.02075 37.4 3.02075C37.7088 3.02075 37.9403 3.0982 38.0947 3.25311C38.3263 3.40802 38.442 3.64039 38.442 3.95021C38.5192 4.02766 38.5579 4.29875 38.5579 4.76348C38.5579 5.15076 38.5192 5.7704 38.442 6.6224C38.2877 7.24204 38.2105 7.82296 38.2105 8.36514C38.2105 8.90733 38.2105 9.41079 38.2105 9.87552L38.0947 11.3859V11.6183C38.0947 11.6957 38.0947 11.8119 38.0947 11.9668C38.0947 22.6556 36.5508 28 33.4631 28V28ZM48.8631 28C48.3999 28 47.9368 27.4191 47.4737 26.2573C47.0105 25.018 46.6246 23.74 46.3158 22.4232L46.0842 21.2614C45.3895 17.7759 44.9649 15.8008 44.8105 15.3361H44.3474C44.3474 16.0332 44.3474 16.6916 44.3474 17.3112V19.2863C44.3474 22.462 44.5789 24.9405 45.0421 26.722L44.5789 27.7676H43.6526L43.1895 27.1867V24.7469C43.1895 22.5781 43.0737 19.325 42.8421 14.9876C42.6877 10.2628 42.6105 6.97096 42.6105 5.11204C42.6105 3.95021 42.9965 3.3693 43.7684 3.3693C45.0807 3.3693 46.1228 3.71784 46.8947 4.41493C47.7439 5.11203 48.1684 6.04149 48.1684 7.20332V9.75934C48.1684 10.0692 48.0912 10.4952 47.9368 11.0373C47.8596 11.5021 47.7438 11.8506 47.5894 12.083L46.8947 13.361L46.3158 14.5228L46.5473 15.3361L47.0105 17.8921C47.3193 19.751 47.628 21.2614 47.9368 22.4232C48.2456 23.5851 48.6315 24.6307 49.0947 25.5602L49.3263 26.0249C49.5579 26.4896 49.6736 26.8769 49.6736 27.1867C49.6736 27.4191 49.5964 27.6127 49.442 27.7676C49.3649 27.9225 49.1719 28 48.8631 28V28ZM44.4631 13.5934C45.0035 13.361 45.4666 12.6252 45.8526 11.3859C46.2386 10.2241 46.4316 9.1397 46.4316 8.13278C46.4316 7.35823 46.3158 6.62241 46.0842 5.92531C46.007 5.53803 45.814 5.26695 45.5052 5.11204C45.2737 4.87967 44.9263 4.76348 44.4631 4.76348V4.99585L44.3474 5.22822L44.4631 9.52697C44.4631 10.7662 44.4631 12.1217 44.4631 13.5934V13.5934ZM54.3052 27.7676C53.7649 27.7676 53.4175 27.5353 53.2632 27.0705C53.186 26.7607 53.1473 26.3734 53.1473 25.9087C53.1473 24.8243 53.186 23.5463 53.2632 22.0747C53.4175 20.603 53.4947 19.325 53.4947 18.2407C53.4947 16.9239 53.5333 14.9875 53.6105 12.4315V6.73858C53.6105 6.58367 53.5719 6.27386 53.4947 5.80913V4.87966V4.76348C53.4947 4.2213 53.5719 3.7953 53.7263 3.48548C53.8807 3.25311 54.1894 3.13693 54.6526 3.13693C55.2701 3.13693 55.9263 3.29184 56.621 3.60166C57.3929 3.98893 57.9333 4.45366 58.2421 4.99585C58.9368 6.15767 59.2842 7.5906 59.2842 9.29461C59.2842 10.6113 59.207 11.7344 59.0526 12.6639C58.8211 13.5159 58.4351 14.2905 57.8947 14.9876C58.5123 15.6072 58.9368 16.4205 59.1684 17.4274C59.4 18.4343 59.5157 19.6349 59.5157 21.029C59.5157 22.5007 59.2842 23.7787 58.821 24.8631C58.2035 26.1024 57.3544 26.9544 56.2737 27.4191C55.5789 27.6515 54.9228 27.7676 54.3052 27.7676V27.7676ZM55.4631 13.9419C56.6982 13.9419 57.3158 12.509 57.3158 9.64315C57.3158 6.54495 56.814 4.91839 55.8105 4.76348C55.5789 5.30567 55.4631 6.58368 55.4631 8.59751V13.9419ZM55.2315 25.9087C56.0035 25.7538 56.5824 25.3278 56.9684 24.6307C57.4315 23.8562 57.6631 23.0041 57.6631 22.0747C57.6631 21.0678 57.5859 20.177 57.4316 19.4025C57.3544 18.7829 57.2386 18.2794 57.0842 17.8921C56.9298 17.5048 56.7368 17.1176 56.5052 16.7303C56.1965 16.4205 55.8491 16.2268 55.4631 16.1494C55.3859 17.4661 55.3474 19.2863 55.3474 21.61C55.3474 21.6874 55.3087 22.1134 55.2315 22.888L55.1158 24.166C55.1158 24.2434 55.1543 24.2822 55.2315 24.2822V25.9087ZM65.3052 27.4191C63.221 27.4191 62.1789 27.0705 62.1789 26.3735C62.1789 25.7538 62.5263 25.444 63.221 25.444H63.6842H64.0316C64.186 25.444 64.3017 25.4053 64.3789 25.3278C64.4561 25.1729 64.4947 24.9405 64.4947 24.6307C64.4947 24.2434 64.4561 23.6238 64.3789 22.7718C64.3017 22.1521 64.2245 21.1065 64.1473 19.6349C63.9157 15.9945 63.8 13.2448 63.8 11.3859C63.8 10.6888 63.8385 10.0692 63.9157 9.52697V7.66805C63.9157 6.8935 63.8772 6.23513 63.8 5.69295C63.414 5.7704 63.1438 5.80913 62.9894 5.80913C62.4491 5.80913 62.1789 5.53803 62.1789 4.99585C62.1789 4.68603 62.3333 4.41494 62.6421 4.18257C63.028 3.95021 63.4912 3.79529 64.0316 3.71784C64.9579 3.56293 65.807 3.48548 66.5789 3.48548C66.8877 3.48548 67.1193 3.56293 67.2737 3.71784C67.5052 3.9502 67.621 4.18257 67.621 4.41493C67.621 4.72475 67.5438 4.95713 67.3894 5.11204C67.235 5.3444 67.042 5.46058 66.8105 5.46058C66.6561 5.46058 66.5403 5.42185 66.4631 5.3444H66.1158C65.8842 5.3444 65.7298 5.42185 65.6526 5.57676C65.4982 5.65421 65.4211 5.84785 65.4211 6.15767C65.4211 8.48132 65.5754 11.9668 65.8842 16.6141C65.9614 17.5436 66.0771 18.8216 66.2315 20.4481C66.3087 21.61 66.3474 22.733 66.3474 23.8174V25.2116C66.5017 25.2116 66.7333 25.2116 67.0421 25.2116C68.0456 25.2116 68.5473 25.6376 68.5473 26.4896V26.722L67.7368 27.3029C67.6596 27.3029 67.5438 27.3029 67.3894 27.3029C67.3122 27.3029 67.0807 27.3029 66.6947 27.3029C65.9228 27.3804 65.4596 27.4191 65.3052 27.4191V27.4191ZM72.2526 28C71.7894 27.9225 71.4035 27.7289 71.0947 27.4191C70.7859 27.1867 70.6316 26.8769 70.6316 26.4896L70.9789 25.9087C71.1333 25.9087 71.3649 25.9474 71.6736 26.0249C72.0596 26.1024 72.3298 26.1411 72.4842 26.1411C72.9473 26.1411 73.3333 25.9474 73.6421 25.5602C74.028 25.1729 74.2982 24.6694 74.4526 24.0498C74.7614 22.888 74.9157 21.8811 74.9157 21.029C74.9157 19.4025 74.414 17.7372 73.4105 16.0332L72.9474 15.3361C72.5614 14.4841 72.214 13.7483 71.9052 13.1286C71.5965 12.509 71.3263 11.8506 71.0947 11.1535C70.7859 10.2241 70.6316 9.2946 70.6316 8.36514C70.6316 7.28077 70.8631 6.15767 71.3263 4.99585C71.5579 4.45366 71.9053 4.02766 72.3684 3.71784C72.8316 3.33056 73.3333 3.13693 73.8737 3.13693C74.3368 3.13693 74.7228 3.29184 75.0316 3.60166C75.4175 3.83402 75.6105 4.14385 75.6105 4.53112C75.6105 4.76349 75.5333 4.95713 75.3789 5.11204C75.2245 5.18949 75.0316 5.22822 74.8 5.22822C74.4912 5.22822 74.221 5.15076 73.9894 4.99585C73.4491 5.0733 73.0245 5.53804 72.7158 6.39004C72.4842 7.24205 72.3684 7.93914 72.3684 8.48132C72.3684 9.17842 72.4842 9.91424 72.7158 10.6888C72.8702 11.3859 73.1404 12.0055 73.5263 12.5477L74.3368 14.0581L75.6105 16.3817C75.9193 17.0788 76.1508 17.8534 76.3052 18.7054C76.5368 19.6349 76.6526 20.5256 76.6526 21.3776C76.6526 22.8492 76.3052 24.2434 75.6105 25.5602C75.3017 26.2573 74.8386 26.7994 74.221 27.1867C73.6035 27.6515 72.9473 27.8838 72.2526 27.8838V28ZM86.7263 27.4191C85.9543 27.4191 85.5684 25.444 85.5684 21.4938V19.4025V17.7759V17.6598V17.3112C85.6456 17.1563 85.6842 16.9239 85.6842 16.6141C85.6842 16.6141 85.6456 16.5754 85.5684 16.4979C85.4912 16.4205 85.4526 16.343 85.4526 16.2656C85.2982 16.2656 85.0666 16.2656 84.7578 16.2656C84.4491 16.2656 84.0631 16.2268 83.5999 16.1494C83.4456 16.1494 83.0596 16.1106 82.442 16.0332V20.0996C82.442 20.7192 82.4807 21.7261 82.5579 23.1203C82.6351 24.4371 82.6736 25.4053 82.6736 26.0249C82.6736 26.4122 82.5964 26.722 82.442 26.9544C82.2105 27.2642 81.9404 27.4191 81.6316 27.4191C81.1684 27.4191 80.8596 26.9544 80.7052 26.0249C80.4736 25.0954 80.3579 23.8949 80.3579 22.4232L80.4737 19.5187C80.4737 18.7441 80.4737 17.8921 80.4737 16.9627V16.3817V15.8008C80.4737 15.4136 80.4737 15.1812 80.4737 15.1037V14.8714L80.5894 12.7801C80.5894 11.9281 80.5509 10.5726 80.4737 8.71369C80.3965 6.93223 80.3579 5.57676 80.3579 4.6473C80.3579 4.41494 80.4736 4.18257 80.7052 3.95021C80.8596 3.71784 81.0912 3.60166 81.4 3.60166C82.1719 3.60166 82.5579 4.33748 82.5579 5.80913L82.442 10.2241C82.3649 11.5408 82.3263 13.0512 82.3263 14.7552C82.7123 14.8326 83.3684 14.8714 84.2947 14.8714H85.6842C85.6842 14.7165 85.6842 14.6003 85.6842 14.5228C85.6842 13.361 85.607 11.657 85.4526 9.41079C85.2982 7.24205 85.221 5.49931 85.221 4.18257C85.221 3.95021 85.3368 3.75657 85.5684 3.60166C85.7228 3.36929 85.9544 3.25311 86.2632 3.25311C86.4175 3.25311 86.6491 3.33057 86.9579 3.48548L87.3052 3.60166C87.3052 7.00968 87.421 11.5795 87.6526 17.3112L88 26.3735C88 26.6833 87.8842 26.9544 87.6526 27.1867C87.421 27.3416 87.1122 27.4191 86.7263 27.4191V27.4191Z" fill="#325949"/>
</svg>
