<svg width="51" height="29" viewBox="0 0 51 29" fill="none" xmlns="http://www.w3.org/2000/svg">
<path d="M7.14729 28.7593C6.66273 28.7593 6.17816 28.4385 5.6936 27.7967V27.6763C5.61284 26.3126 5.41094 24.8285 5.0879 23.2241C4.6841 21.6196 4.11882 19.6943 3.39198 17.4481C2.82666 15.6833 2.34209 14.1189 1.93828 12.7552V27.4357C1.93828 27.8368 1.89786 28.1577 1.8171 28.3983C1.65558 28.5588 1.37298 28.639 0.969179 28.639C0.646139 28.639 0.403815 28.5588 0.242295 28.3983C0.0807748 28.1577 0 27.8769 0 27.556V27.3154L0.121184 16.3651C0.121184 13.1563 0.121184 9.50622 0.121184 5.41494V0.84232C0.121184 0.521435 0.201959 0.320882 0.363479 0.24066C0.444239 0.0802176 0.68649 0 1.09029 0C1.73637 0 2.34207 0.120331 2.90739 0.360995C3.39195 0.601659 3.8361 0.962652 4.2399 1.44398C4.96674 2.24619 5.45132 3.28907 5.6936 4.57261C5.77436 5.05394 5.81478 5.61549 5.81478 6.25726C5.81478 6.65836 5.77436 7.05947 5.6936 7.46058C5.6936 7.94191 5.6936 8.22268 5.6936 8.3029C5.61284 8.54357 5.49171 8.94467 5.33019 9.50622C5.16867 9.98755 5.04755 10.3084 4.96679 10.4689L4.4822 11.4315L4.11879 12.3942C4.11879 13.2766 4.28034 14.4398 4.60338 15.8838C4.92642 17.2476 5.24945 18.491 5.57249 19.6141C5.81477 20.4163 6.25892 21.7801 6.905 23.7054L7.99529 27.0747C7.99529 27.4758 7.95486 27.8368 7.8741 28.1577C7.79334 28.5588 7.55109 28.7593 7.14729 28.7593ZM1.93828 11.0705C2.26133 10.7497 2.66513 10.2683 3.14969 9.62656L3.75539 6.37759C3.75539 6.29737 3.75539 6.13693 3.75539 5.89626C3.75539 5.17427 3.63426 4.33195 3.39198 3.36929C3.23046 2.96819 3.02856 2.60719 2.78628 2.2863C2.544 1.96542 2.30168 1.80498 2.0594 1.80498L1.93828 5.53527C1.93828 7.13969 1.93828 8.42324 1.93828 9.38589C1.93828 10.2683 1.93828 10.8299 1.93828 11.0705ZM12.7197 28.8797C12.3967 28.8797 12.1141 28.7593 11.8718 28.5187C11.6295 28.278 11.5083 27.9972 11.5083 27.6763V26.7137V25.9917C11.4275 25.751 11.3872 25.5104 11.3872 25.2697C11.3872 24.7082 11.3468 23.9059 11.2661 22.8631V20.4564C11.2661 19.2531 11.3064 17.4481 11.3872 15.0415C11.468 12.8755 11.5083 11.0304 11.5083 9.50622C11.5083 9.18534 11.468 8.6639 11.3872 7.94191C11.3064 7.21992 11.2661 6.69848 11.2661 6.37759C11.2661 4.61272 11.791 3.73029 12.8409 3.73029C13.6485 3.73029 14.6176 3.89073 15.7482 4.21162C16.7981 4.5325 17.3231 4.93361 17.3231 5.41494C17.3231 5.6556 17.2019 5.89626 16.9596 6.13693C16.7981 6.29737 16.5558 6.45781 16.2328 6.61826C15.1829 6.21715 14.2542 5.97648 13.4466 5.89626C13.4466 6.21715 13.4466 6.73859 13.4466 7.46058C13.4466 8.42323 13.4466 9.30567 13.4466 10.1079C13.3658 11.3112 13.3254 12.2337 13.3254 12.8755L13.4466 13.4772L14.0523 13.3568C14.2138 13.3568 14.4561 13.3568 14.7791 13.3568C15.9905 13.3568 16.5962 13.7178 16.5962 14.4398C16.5962 14.6805 16.4751 14.9212 16.2328 15.1618C15.9905 15.3223 15.7078 15.4025 15.3848 15.4025C14.9002 15.4025 14.5369 15.3624 14.2946 15.2822H13.3254C13.4062 15.9239 13.4466 16.8866 13.4466 18.1701C13.4466 19.3734 13.4466 20.4965 13.4466 21.5394C13.3658 23.0636 13.3254 24.1867 13.3254 24.9087C13.3254 26.2725 13.3254 26.9544 13.3254 26.9544H14.658C15.0618 26.9544 15.5464 26.9544 16.1117 26.9544C17.0808 26.9544 17.5653 27.2351 17.5653 27.7967C17.5653 28.1176 17.4038 28.3983 17.0808 28.639C16.7577 28.7994 16.3943 28.8797 15.9905 28.8797H12.7197ZM25.6817 29C25.0356 29 24.4703 28.8797 23.9858 28.639C23.582 28.3181 23.2185 27.917 22.8955 27.4357C22.2494 26.3928 21.8456 25.1895 21.6841 23.8257C21.5226 22.7026 21.4418 21.3389 21.4418 19.7344C21.361 17.0871 21.3207 13.8382 21.3207 9.98755V7.09958C21.2399 6.93914 21.1995 6.65836 21.1995 6.25726C21.1995 5.37482 21.1995 4.81328 21.1995 4.57261C21.4418 4.09129 21.6841 3.85062 21.9264 3.85062C22.2494 3.85062 22.5321 4.05117 22.7744 4.45228C23.0167 4.93361 23.1378 5.41494 23.1378 5.89626V16.1245C23.1378 17.0871 23.2186 18.4108 23.3801 20.0954C23.5416 22.101 23.6223 23.3845 23.6223 23.9461C23.6223 25.7912 24.4299 26.7137 26.0451 26.7137C27.8218 26.7137 28.7102 20.0553 28.7102 6.73859V4.57261V4.21162C28.7102 4.1314 28.7102 4.05117 28.7102 3.97095C28.7102 3.65007 28.7506 3.44952 28.8314 3.36929C28.9929 3.20885 29.2755 3.12863 29.6793 3.12863C30.0023 3.12863 30.2447 3.20885 30.4062 3.36929C30.6485 3.52974 30.8099 3.7704 30.8907 4.09128C30.8907 4.17151 30.8907 4.45228 30.8907 4.93361C30.8907 5.33471 30.8504 5.97648 30.7696 6.85892C30.6888 7.58091 30.6485 8.18257 30.6485 8.6639C30.6485 9.22545 30.6081 9.74689 30.5273 10.2282L30.4062 11.7925V12.0332C30.487 12.1134 30.5273 12.2337 30.5273 12.3942C30.5273 23.4647 28.9121 29 25.6817 29V29ZM35.8575 28.8797C35.3729 28.7994 34.9691 28.639 34.6461 28.3983C34.4038 28.1577 34.2423 27.8368 34.1615 27.4357L34.6461 26.834C34.7269 26.834 34.9288 26.8741 35.2518 26.9544C35.6556 27.0346 35.9786 27.0747 36.2209 27.0747C36.6247 27.0747 36.9882 26.8741 37.3112 26.473C37.715 26.0719 37.9976 25.5505 38.1591 24.9087C38.4822 23.7054 38.6437 22.6625 38.6437 21.7801C38.6437 20.0954 38.1188 18.3306 37.0689 16.4855L36.7055 15.8838C36.2209 15.0014 35.8171 14.2393 35.4941 13.5975C35.1711 12.9557 34.8884 12.2739 34.6461 11.5519C34.3231 10.5892 34.1615 9.62655 34.1615 8.6639C34.1615 7.5408 34.4442 6.37759 35.0095 5.17427C35.2518 4.61272 35.5748 4.1715 35.9786 3.85062C36.4632 3.44951 36.9881 3.24896 37.5534 3.24896C38.038 3.24896 38.4822 3.4094 38.886 3.73029C39.209 3.97095 39.3705 4.29184 39.3705 4.69294C39.3705 4.93361 39.2898 5.09405 39.1283 5.17427C38.9668 5.33472 38.7649 5.41494 38.5226 5.41494C38.2803 5.41494 38.038 5.33472 37.7957 5.17427C37.2304 5.17427 36.7862 5.6556 36.4632 6.61826C36.1402 7.50069 35.9786 8.22268 35.9786 8.78423C35.9786 9.50622 36.0997 10.2683 36.342 11.0705C36.5843 11.7925 36.867 12.4343 37.19 12.9958L38.038 14.4398L39.3705 16.9668C39.6936 17.6888 39.9762 18.491 40.2185 19.3734C40.38 20.2559 40.4608 21.1784 40.4608 22.1411C40.4608 23.6653 40.1378 25.1093 39.4917 26.473C39.0879 27.195 38.563 27.7566 37.9169 28.1577C37.3516 28.5588 36.6651 28.7593 35.8575 28.7593V28.8797ZM46.1544 28.8797C45.8314 28.8797 45.5487 28.7593 45.3064 28.5187C45.0641 28.3582 44.9026 28.0775 44.8218 27.6763V26.7137V25.9917C44.8218 25.751 44.8218 25.5104 44.8218 25.2697C44.8218 24.7082 44.7815 23.9059 44.7007 22.8631V20.4564C44.7007 19.2531 44.7411 17.4481 44.8218 15.0415C44.9026 12.8755 44.943 11.0705 44.943 9.62656C44.943 9.22545 44.9026 8.70401 44.8218 8.06224C44.7411 7.34025 44.7007 6.7787 44.7007 6.37759C44.7007 4.61272 45.2256 3.73029 46.2755 3.73029C47.0831 3.73029 48.0118 3.93084 49.0617 4.33195C50.1924 4.65283 50.7577 5.01383 50.7577 5.41494C50.7577 5.6556 50.6366 5.89626 50.3943 6.13693C50.2328 6.29737 49.9905 6.45781 49.6674 6.61826C48.6175 6.21715 47.6888 5.97648 46.8812 5.89626C46.8812 6.21715 46.8812 6.73859 46.8812 7.46058C46.8812 8.50345 46.8812 9.38589 46.8812 10.1079C46.8004 11.3112 46.7601 12.2337 46.7601 12.8755L46.8812 13.4772L47.4869 13.3568C47.6484 13.3568 47.8908 13.3568 48.2138 13.3568C49.4252 13.3568 50.0309 13.7178 50.0309 14.4398C50.0309 14.6805 49.9097 14.9212 49.6674 15.1618C49.4251 15.3223 49.1425 15.4025 48.8195 15.4025C48.3349 15.4025 47.9715 15.3624 47.7292 15.2822H46.7601C46.8409 15.9239 46.8812 16.8866 46.8812 18.1701C46.8812 19.3734 46.8812 20.4965 46.8812 21.5394C46.8004 23.0636 46.7601 24.1867 46.7601 24.9087C46.7601 26.2725 46.7601 26.9544 46.7601 26.9544H47.9715C48.4561 26.9544 48.981 26.9544 49.5463 26.9544C50.5154 26.9544 51 27.2351 51 27.7967C51 28.1176 50.8385 28.3983 50.5154 28.639C50.1924 28.7994 49.829 28.8797 49.4252 28.8797H46.1544Z" fill="#325949"/>
</svg>
