<svg width="95" height="25" viewBox="0 0 95 25" fill="none" xmlns="http://www.w3.org/2000/svg">
<path d="M5.39999 24.9C4.26666 24.9 3.33331 24.5667 2.59998 23.9C1.99998 23.3667 1.46667 22.5 1 21.3C0.666667 20.5667 0.399982 19.4667 0.199982 18C0.0666483 16.8667 0 15.7667 0 14.7C0 14.4333 0 13.9667 0 13.3V12.3V11C0 10.1333 0.0333089 9.10001 0.0999756 7.90001C0.166642 6.83334 0.333309 5.73334 0.599976 4.60001C0.866642 3.53334 1.23332 2.63334 1.69998 1.90001C2.23332 1.10001 2.93332 0.533346 3.79999 0.200012C4.33332 0.0666789 4.83332 0 5.29999 0C6.16665 0 6.59998 0.300009 6.59998 0.900009C6.59998 1.10001 6.49999 1.26668 6.29999 1.40001C6.16665 1.53334 5.96665 1.60001 5.69998 1.60001C5.63332 1.60001 5.49999 1.56667 5.29999 1.5H4.89999C4.49999 1.5 4.13332 1.6 3.79999 1.8C3.53332 2.06667 3.29998 2.43334 3.09998 2.90001C2.56664 3.90001 2.23331 4.96667 2.09998 6.10001C1.83331 7.56667 1.69998 8.83334 1.69998 9.90001C1.69998 10.8333 1.69998 11.8 1.69998 12.8V13.7C1.63332 13.9667 1.59998 14.3333 1.59998 14.8C1.59998 15.8 1.66665 16.8333 1.79999 17.9C1.86665 19.1 2.1 20.1333 2.5 21C2.83333 21.9333 3.36664 22.6 4.09998 23C4.43331 23.2 4.86666 23.3 5.39999 23.3C6.26666 23.3 7.03332 22.8667 7.69998 22C7.63332 21.2667 7.56667 20.5667 7.5 19.9C7.43333 19.2333 7.29998 18.7667 7.09998 18.5C7.09998 18.5 7.06667 18.5 7 18.5C6.93333 18.5 6.83332 18.5333 6.69998 18.6H5.89999C5.23333 18.6 4.89999 18.3 4.89999 17.7C4.89999 17.5 4.99998 17.3333 5.19998 17.2C5.39998 17.0667 5.66667 16.9667 6 16.9C6.6 16.7667 7.13331 16.7 7.59998 16.7C7.99998 16.7 8.3 16.8667 8.5 17.2C8.76667 17.4667 8.89999 17.8333 8.89999 18.3C8.89999 19.0333 8.99998 19.9667 9.19998 21.1C9.39998 22.3 9.5 23.2333 9.5 23.9C9.5 24.1 9.43332 24.3 9.29999 24.5C9.16665 24.6333 8.99999 24.7 8.79999 24.7C8.26665 24.7 7.89998 24.5 7.69998 24.1V24L7 24.4C6.4 24.7333 5.86666 24.9 5.39999 24.9ZM15.6 24.7C15.0666 24.7 14.5666 24.5333 14.1 24.2C13.7 23.8667 13.3333 23.4 13 22.8C12.4 21.5333 12.0333 20.1667 11.9 18.7C11.7 17.3 11.6 15.9333 11.6 14.6C11.6 14.3333 11.6333 14.1333 11.7 14V13.4C11.7 13.3333 11.6666 13.3 11.6 13.3V12.7L11.7 10.6C11.7 9.93334 11.7667 8.86668 11.9 7.40001C12.0333 6.40001 12.2666 5.43333 12.6 4.5C12.7333 4.1 12.9333 3.80001 13.2 3.60001C13.4 3.33334 13.6667 3.20001 14 3.20001C14.8 3.20001 15.5333 3.36668 16.2 3.70001C16.8666 3.96668 17.4333 4.36668 17.9 4.90001C18.3 5.43334 18.6333 6.10001 18.9 6.90001C19.2333 7.63334 19.4333 8.43334 19.5 9.3C19.6333 10.1667 19.7 11.0667 19.7 12V12.3C19.7 12.9 19.7333 13.4667 19.8 14V15.8C19.8 21.7333 18.4 24.7 15.6 24.7ZM15.5 23.4C15.9 23.4 16.2333 23.2667 16.5 23C16.8333 22.6667 17.0666 22.2333 17.2 21.7C17.6 20.6333 17.8667 19.5 18 18.3C18.0667 17.2333 18.1 16.3333 18.1 15.6C18.1 14.6667 18.0333 13.4333 17.9 11.9C17.7667 10.3 17.7 9.13334 17.7 8.40001V7.8C17.7 7 17.4333 6.30001 16.9 5.70001C16.4333 5.16668 15.8333 4.90001 15.1 4.90001C14.4333 4.90001 13.9666 5.30001 13.7 6.10001C13.5 6.70001 13.4 7.53334 13.4 8.60001C13.4 9.00001 13.4333 9.33334 13.5 9.60001V10.4L13.4 11.8C13.3333 12.2667 13.3 12.7333 13.3 13.2C13.3 14.3333 13.3333 15.4667 13.4 16.6C13.5333 18.1333 13.7666 19.6333 14.1 21.1C14.4333 22.6333 14.9 23.4 15.5 23.4ZM31.1 24L30.6 23.6L30.5 22.4C30.5 22.0667 30.5 21.6667 30.5 21.2V20.2C30.5 19.9333 30.3666 17.6667 30.1 13.4C29.8333 9.06668 29.6666 6.30001 29.6 5.10001C28.4666 5.03334 27.7333 4.90001 27.4 4.70001C27.1333 4.56668 27 4.40001 27 4.20001C27 4.00001 27.1 3.83335 27.3 3.70001C27.5667 3.56668 27.8 3.5 28 3.5C28.6 3.5 29.3 3.53334 30.1 3.60001C30.9 3.73334 31.6 3.8 32.2 3.8H32.5H32.7C33.3666 3.8 33.7 4.03333 33.7 4.5C33.7 4.76667 33.6 5.00001 33.4 5.20001C33.2 5.33335 32.9666 5.40001 32.7 5.40001C32.5 5.40001 32.2 5.36667 31.8 5.3L31.2 5.20001V5.3V5.5C31.2 7.3 31.3666 10.2333 31.7 14.3C32.0333 18.0333 32.2 20.9667 32.2 23.1C32.2 23.3 32.0667 23.5 31.8 23.7C31.6 23.9 31.3666 24 31.1 24ZM40.4 24.7C39.8667 24.7 39.3667 24.5333 38.9 24.2C38.4333 23.8667 38.0667 23.4 37.8 22.8C37.2 21.5333 36.8333 20.1667 36.7 18.7C36.5 17.3 36.4 15.9333 36.4 14.6C36.4 14.3333 36.4 14.1333 36.4 14V13.4C36.4 13.3333 36.4 13.3 36.4 13.3V12.7V10.6C36.4667 9.93334 36.5666 8.86668 36.7 7.40001C36.7666 6.40001 37 5.43333 37.4 4.5C37.5333 4.1 37.7333 3.80001 38 3.60001C38.2 3.33334 38.4333 3.20001 38.7 3.20001C39.5666 3.20001 40.3333 3.36668 41 3.70001C41.6667 3.96668 42.2 4.36668 42.6 4.90001C43.0666 5.43334 43.4333 6.10001 43.7 6.90001C43.9666 7.63334 44.1667 8.43334 44.3 9.3C44.4333 10.1667 44.5 11.0667 44.5 12V12.3C44.5 12.9 44.5 13.4667 44.5 14L44.6 15.8C44.6 21.7333 43.2 24.7 40.4 24.7ZM40.3 23.4C40.6333 23.4 40.9667 23.2667 41.3 23C41.6333 22.6667 41.8667 22.2333 42 21.7C42.4 20.6333 42.6333 19.5 42.7 18.3C42.8333 17.2333 42.9 16.3333 42.9 15.6C42.9 14.6667 42.8333 13.4333 42.7 11.9C42.5666 10.3 42.5 9.13334 42.5 8.40001V7.8C42.4333 7 42.1666 6.30001 41.7 5.70001C41.2333 5.16668 40.6333 4.90001 39.9 4.90001C39.2333 4.90001 38.7667 5.30001 38.5 6.10001C38.3 6.70001 38.2 7.53334 38.2 8.60001C38.2 9.00001 38.2 9.33334 38.2 9.60001V10.4V11.8C38.1333 12.2667 38.1 12.7333 38.1 13.2C38.1 14.3333 38.1333 15.4667 38.2 16.6C38.2666 18.1333 38.4667 19.6333 38.8 21.1C39.1333 22.6333 39.6333 23.4 40.3 23.4ZM55.9 24L55.3 23.6V22.4C55.3 22.0667 55.3 21.6667 55.3 21.2V20.2C55.2333 19.9333 55.1 17.6667 54.9 13.4C54.6333 9.06668 54.4667 6.30001 54.4 5.10001C53.2 5.03334 52.4333 4.90001 52.1 4.70001C51.9 4.56668 51.8 4.40001 51.8 4.20001C51.8 4.00001 51.9 3.83335 52.1 3.70001C52.3 3.56668 52.5333 3.5 52.8 3.5C53.3333 3.5 54.0333 3.53334 54.9 3.60001C55.7 3.73334 56.4 3.8 57 3.8H57.2H57.5C58.1 3.8 58.4 4.03333 58.4 4.5C58.4 4.76667 58.3 5.00001 58.1 5.20001C57.9 5.33335 57.6667 5.40001 57.4 5.40001C57.2 5.40001 56.9333 5.36667 56.6 5.3L56 5.20001V5.3L55.9 5.5C55.9 7.3 56.1 10.2333 56.5 14.3C56.8333 18.0333 57 20.9667 57 23.1C57 23.3 56.8666 23.5 56.6 23.7C56.4 23.9 56.1667 24 55.9 24ZM65.2 24.7C64.6666 24.7 64.1666 24.5333 63.7 24.2C63.2333 23.8667 62.8666 23.4 62.6 22.8C62 21.5333 61.6333 20.1667 61.5 18.7C61.3 17.3 61.2 15.9333 61.2 14.6C61.2 14.3333 61.2 14.1333 61.2 14V13.4C61.2 13.3333 61.2 13.3 61.2 13.3V12.7V10.6C61.2 9.93334 61.3 8.86668 61.5 7.40001C61.5667 6.40001 61.8 5.43333 62.2 4.5C62.3333 4.1 62.5 3.80001 62.7 3.60001C62.9666 3.33334 63.2333 3.20001 63.5 3.20001C64.3 3.20001 65.0333 3.36668 65.7 3.70001C66.3666 3.96668 66.9333 4.36668 67.4 4.90001C67.8 5.43334 68.1667 6.10001 68.5 6.90001C68.7667 7.63334 68.9666 8.43334 69.1 9.3C69.2333 10.1667 69.3 11.0667 69.3 12V12.3C69.3 12.9 69.3 13.4667 69.3 14V15.8C69.3 21.7333 67.9333 24.7 65.2 24.7ZM65.1 23.4C65.4333 23.4 65.7666 23.2667 66.1 23C66.3666 22.6667 66.6 22.2333 66.8 21.7C67.2 20.6333 67.4333 19.5 67.5 18.3C67.6333 17.2333 67.7 16.3333 67.7 15.6C67.7 14.6667 67.6 13.4333 67.4 11.9C67.3333 10.3 67.3 9.13334 67.3 8.40001V7.8C67.2333 7 66.9333 6.30001 66.4 5.70001C65.9333 5.16668 65.3666 4.90001 64.7 4.90001C63.9666 4.90001 63.5 5.30001 63.3 6.10001C63.1 6.70001 63 7.53334 63 8.60001C63 9.00001 63 9.33334 63 9.60001V10.4L62.9 11.8C62.9 12.2667 62.9 12.7333 62.9 13.2C62.9 14.3333 62.9333 15.4667 63 16.6C63.0667 18.1333 63.2666 19.6333 63.6 21.1C63.9333 22.6333 64.4333 23.4 65.1 23.4ZM74 24.7L73.4 24.3C73.1333 23.2333 73 21.7333 73 19.8V17C73.0667 16.2 73.1 15.2667 73.1 14.2C72.9666 13.9333 72.9 13.7 72.9 13.5V13.4C73.1 13 73.2 12.1 73.2 10.7L73.3 9.3C73.3 8.83334 73.3 8.33334 73.3 7.8C73.3 6.53334 73.2 5.56668 73 4.90001C73.0667 4.56668 73.2 4.30001 73.4 4.10001C73.5333 3.90001 73.7 3.8 73.9 3.8H75.2C75.8 3.8 76.3333 3.93335 76.8 4.20001C77.2 4.46668 77.5333 4.83334 77.8 5.3C78.2 6.16667 78.4 7.16667 78.4 8.3C78.4 9.1 78.3667 9.73335 78.3 10.2C78.3 10.8 78.2 11.3667 78 11.9C77.9333 12.1667 77.8667 12.4 77.8 12.6C77.6667 12.7333 77.5 12.9333 77.3 13.2C77.0333 13.5333 76.5667 13.8667 75.9 14.2C75.6333 14.3333 75.2667 14.4667 74.8 14.6V17.9L74.9 19.9V20.8C75.0333 22 75.1 23 75.1 23.8C75.1 24.0667 75 24.2667 74.8 24.4C74.5333 24.6 74.2667 24.7 74 24.7ZM74.8 13.3C76.0667 13.1 76.7 11.3667 76.7 8.10001C76.7 7.50001 76.6666 7.03335 76.6 6.70001C76.5333 6.43335 76.4333 6.23334 76.3 6.10001C76.2333 5.90001 76.1 5.76668 75.9 5.70001C75.6333 5.56668 75.3666 5.5 75.1 5.5C75.1 5.5 75 5.5 74.8 5.5V7.20001C74.8 8.46668 74.8 9.56667 74.8 10.5C74.8 11.5667 74.8 12.2667 74.8 12.6V13.2V13.3ZM94 18.9C93.6 18.9 93.3 18.5333 93.1 17.8C93.0333 17.4667 92.9333 17.1333 92.8 16.8C92.7333 16.4667 92.7 16.2333 92.7 16.1L92.6 15.6C92.1333 13.7333 91.6 10.7667 91 6.70001C90.9333 7.03335 90.8667 7.46667 90.8 8C90.7333 8.53333 90.6666 8.93335 90.6 9.20001L90.5 9.90001L90.3 11.8C90.0333 13.1333 89.6 15.4 89 18.6L88.4 18.8C88.2 18.7333 88.0667 18.6667 88 18.6C87.8667 18.4667 87.8 18.3333 87.8 18.2C87.8 17.8 87.9667 16.9333 88.3 15.6C88.3 15.4 88.4333 14.5 88.7 12.9C88.9 11.6333 89.0333 10.8 89.1 10.4C89.1666 10 89.3 9.33334 89.5 8.40001L89.9 6.70001L90 6C90 5.33333 90.1 4.66667 90.3 4C90.3667 3.6 90.5 3.30001 90.7 3.10001C90.9666 2.90001 91.2333 2.8 91.5 2.8L92 3.20001C92 3.86668 92.0333 4.66667 92.1 5.60001C92.1666 6.33334 92.2667 7.13333 92.4 8L92.8 10.3C92.9333 11.1667 93.2667 12.7667 93.8 15.1L94.1 16L94.4 17.4C94.5333 17.8667 94.6 18.1667 94.6 18.3C94.6 18.4333 94.5333 18.5667 94.4 18.7C94.2667 18.8333 94.1333 18.9 94 18.9ZM91.3 6.40001V4.60001L90.9 5.5L91.3 6.40001Z" fill="white"/>
</svg>
