<svg width="1360" height="106" viewBox="0 0 1360 106" fill="none" xmlns="http://www.w3.org/2000/svg">
<path d="M10.9441 102.096C7.54893 102.096 4.65939 101.562 2.27551 100.495C0.758504 99.6941 0 98.7932 0 97.7923C0 96.7246 0.288954 95.8905 0.866862 95.2899C1.44477 94.6226 2.2394 94.289 3.25074 94.289C4.18984 94.289 5.52625 94.6226 7.25998 95.2899C9.21042 95.9572 10.4385 96.2908 10.9441 96.2908C12.6779 96.2908 14.2671 95.6235 15.7119 94.289C17.1567 92.8209 18.3125 90.9191 19.1794 88.5836C20.8408 84.2462 21.6716 80.3758 21.6716 76.9726C21.6716 73.2358 21.0214 69.3654 19.7211 65.3617C18.4931 61.2244 16.8316 57.2207 14.7367 53.3503L12.4612 49.1464C10.1495 44.8757 8.34356 41.5058 7.04326 39.0368C5.81521 36.5011 4.73163 33.7652 3.79253 30.8291C2.41999 26.6918 1.73372 22.6881 1.73372 18.8178C1.73372 15.7482 2.27551 12.8455 3.35909 10.1095C4.58715 7.3069 6.357 4.97136 8.66863 3.10293C11.0525 1.03431 13.9421 0 17.3373 0C18.9988 0 20.6241 0.467109 22.2134 1.40132C23.8026 2.26881 24.9223 3.40321 25.5725 4.80453L23.1886 7.50708C20.8047 7.50708 18.9988 7.07334 17.7707 6.20586C16.1092 6.33932 14.6283 7.10671 13.328 8.50803C12.1 9.77589 11.1609 11.2773 10.5107 13.0123C9.93281 14.6805 9.64386 16.3154 9.64386 17.9169C9.64386 21.1867 10.1134 24.5565 11.0525 28.0264C12.0638 31.3629 13.3641 34.5326 14.9534 37.5354L24.814 55.6525C26.4032 58.7221 27.6313 62.192 28.4981 66.0623C29.4372 69.9994 29.9068 73.9031 29.9068 77.7734C29.9068 83.4454 28.4259 88.7838 25.4641 93.7885C23.8749 96.3242 21.8161 98.3595 19.2877 99.8943C16.7594 101.362 13.9782 102.096 10.9441 102.096V102.096ZM62.4142 101.796C59.958 101.796 57.7186 101.095 55.696 99.6941C53.601 98.226 51.9034 96.2909 50.6031 93.8886C47.9303 88.6169 46.2688 82.8782 45.6187 76.6723C44.7518 70.8669 44.3184 65.2282 44.3184 59.7564C44.3184 58.7554 44.3906 57.888 44.5351 57.1539V54.8518C44.5351 54.4514 44.4629 54.2512 44.3184 54.2512V51.949L44.5351 42.8404C44.6073 40.1045 44.9685 35.7337 45.6187 29.728C46.0521 25.5908 47.1357 21.587 48.8694 17.7167C49.5196 15.9817 50.3503 14.6805 51.3616 13.813C52.373 12.8788 53.5288 12.4117 54.8291 12.4117C58.5855 12.4117 61.9446 13.0456 64.9064 14.3135C67.8682 15.5146 70.3965 17.2496 72.4914 19.5184C74.2974 21.6538 75.8505 24.3229 77.1508 27.526C78.4511 30.5955 79.3902 33.8986 79.9681 37.4353C80.546 41.0387 80.835 44.8757 80.835 48.9462V49.9471C80.835 52.6163 80.8711 55.0186 80.9434 57.1539L81.0517 64.5609C81.0517 89.3843 74.8392 101.796 62.4142 101.796V101.796ZM61.764 96.2908C63.4977 96.2908 65.0509 95.6903 66.4234 94.4891C67.7959 93.2213 68.8795 91.5197 69.6741 89.3843C71.4079 84.9802 72.4553 80.2424 72.8165 75.1709C73.3222 70.7668 73.575 66.9632 73.575 63.7602C73.575 59.8898 73.2499 54.8184 72.5998 48.5458C72.0219 41.9396 71.7329 37.0016 71.7329 33.7318V31.3296C71.5162 28.0598 70.3243 25.2238 68.1571 22.8215C65.99 20.4193 63.3171 19.2181 60.1386 19.2181C56.9601 19.2181 54.8652 20.9197 53.8539 24.3229C52.9148 26.9254 52.4452 30.362 52.4452 34.6327C52.4452 36.2342 52.4813 37.6021 52.5536 38.7365V42.2399L52.3369 48.1454C52.1202 49.9471 52.0118 51.9157 52.0118 54.051C52.0118 58.7221 52.1563 63.3598 52.4452 67.9641C52.8064 74.3702 53.7455 80.6427 55.2625 86.7819C56.7073 93.1212 58.8745 96.2908 61.764 96.2908ZM146.5 99.2937C143.321 99.2937 141.732 92.187 141.732 77.9736L141.949 70.6667L142.057 64.661V64.2606V63.0595C142.129 62.3255 142.166 61.4914 142.166 60.5571C142.166 60.3569 142.021 60.1568 141.732 59.9566C141.443 59.6896 141.299 59.4561 141.299 59.2559V59.1558C140.865 59.2893 140.035 59.356 138.806 59.356C137.578 59.356 136.098 59.1892 134.364 58.8555C133.786 58.7888 132.305 58.5886 129.921 58.255V73.0689C129.921 75.3377 130.066 78.8744 130.355 83.679C130.571 88.4168 130.68 91.9534 130.68 94.289C130.68 95.5568 130.318 96.6579 129.596 97.5921C128.874 98.5263 127.898 98.9934 126.67 98.9934C124.937 98.9934 123.672 97.4252 122.878 94.289C122.155 91.0192 121.794 86.7485 121.794 81.4769L122.011 70.967C122.155 68.0976 122.228 65.028 122.228 61.7583V59.5562V57.7545C122.228 56.3532 122.155 55.4523 122.011 55.0519V54.3513L122.444 46.8442C122.444 43.5744 122.3 38.7032 122.011 32.2304C121.794 25.8244 121.686 20.9865 121.686 17.7167C121.686 16.649 122.047 15.7482 122.77 15.0142C123.492 14.2134 124.431 13.813 125.587 13.813C128.549 13.813 130.029 16.3821 130.029 21.5203L129.704 37.5354C129.56 42.4067 129.488 47.8118 129.488 53.7507C130.86 54.1511 133.352 54.3513 136.964 54.3513H142.166C142.382 53.8174 142.491 53.317 142.491 52.8499C142.491 48.7126 142.202 42.5735 141.624 34.4325C140.974 26.892 140.649 20.7529 140.649 16.0151C140.649 15.0809 141.01 14.3135 141.732 13.7129C142.599 12.9789 143.574 12.6119 144.658 12.6119C145.308 12.6119 146.247 12.8455 147.475 13.3126L148.775 13.813C148.775 26.0246 149.245 42.3399 150.184 62.7592L151.376 95.39C151.376 96.5911 150.87 97.5587 149.859 98.2927C148.92 98.96 147.8 99.2937 146.5 99.2937V99.2937ZM174.673 100.995C173.445 100.995 172.325 100.595 171.314 99.7942C170.375 99.0601 169.833 98.1259 169.688 96.9915V93.5883V90.9858C169.616 90.2518 169.58 89.351 169.58 88.2833C169.58 86.4816 169.436 83.7457 169.147 80.0756L168.93 71.7677C168.93 67.5637 169.038 61.2912 169.255 52.95C169.688 45.4762 169.905 39.2037 169.905 34.1322C169.905 32.8643 169.761 31.0293 169.472 28.627C169.183 26.158 169.038 24.3563 169.038 23.2219C169.038 17.1495 170.989 14.1133 174.89 14.1133C177.996 14.1133 181.536 14.6472 185.509 15.7148C189.626 16.8492 191.685 18.1838 191.685 19.7186C191.685 20.5861 191.252 21.4202 190.385 22.221C189.662 22.8883 188.723 23.4555 187.568 23.9226C183.667 22.588 180.127 21.7205 176.948 21.3201C177.093 22.588 177.165 24.423 177.165 26.8253C177.165 30.2952 177.093 33.3982 176.948 36.1341C176.732 40.2713 176.623 43.3743 176.623 45.4429L176.948 47.5449L179.224 47.3447C179.946 47.2779 180.885 47.2446 182.041 47.2446C186.52 47.2446 188.759 48.4457 188.759 50.848C188.759 51.7822 188.326 52.6163 187.459 53.3503C186.665 53.9509 185.617 54.2512 184.317 54.2512C182.583 54.2512 181.247 54.1511 180.308 53.9509H176.84C177.057 56.2197 177.165 59.4895 177.165 63.7602C177.165 68.0976 177.093 71.9679 176.948 75.3711C176.732 80.6428 176.623 84.5798 176.623 87.1823C176.623 91.9868 176.696 94.3891 176.84 94.3891L181.499 94.289C183.089 94.1555 185.003 94.0888 187.242 94.0888C190.782 94.0888 192.552 95.1231 192.552 97.1917C192.552 98.3928 191.938 99.3604 190.71 100.094C189.554 100.695 188.145 100.995 186.484 100.995H174.673ZM232.428 101.496C230.405 101.496 228.527 99.4271 226.793 95.2899C224.843 90.819 223.398 86.2147 222.459 81.4769L221.484 77.0727C218.811 64.7945 217.113 57.7879 216.391 56.0529H214.657C214.657 58.5219 214.621 60.7907 214.549 62.8593V69.966C214.549 81.5102 215.416 90.5187 217.149 96.9915L215.632 100.495H211.731L209.889 98.4929L210.106 89.8848C210.106 82.1442 209.673 70.3998 208.806 54.6516C208.083 37.8357 207.722 26.0579 207.722 19.3182C207.722 15.2477 209.239 13.2125 212.273 13.2125C217.33 13.2125 221.447 14.4136 224.626 16.8159C227.877 19.2181 229.502 22.5546 229.502 26.8253V35.9339C229.502 37.2018 229.249 38.7032 228.744 40.4382C228.31 42.0397 227.804 43.3743 227.227 44.4419L224.626 49.0463L222.35 52.95L223.001 56.0529L225.059 65.1615C226.36 71.8344 227.588 77.2395 228.744 81.3768C229.972 85.514 231.489 89.2509 233.295 92.5874L234.053 94.0888C234.992 95.8237 235.462 97.2251 235.462 98.2927C235.462 99.1602 235.209 99.9276 234.703 100.595C234.125 101.195 233.367 101.496 232.428 101.496V101.496ZM215.199 49.7469C217.294 48.746 219.027 46.1435 220.4 41.9396C221.917 37.6689 222.675 33.7318 222.675 30.1284C222.675 27.3258 222.278 24.7233 221.484 22.3211C221.05 20.9865 220.256 19.9522 219.1 19.2181C218.088 18.4841 216.788 18.1171 215.199 18.1171L214.982 18.7177L214.657 19.9188L214.982 35.1331C215.127 39.604 215.199 44.4753 215.199 49.7469V49.7469ZM255.616 100.995C254.388 100.995 253.269 100.595 252.257 99.7942C251.318 99.0601 250.812 98.1259 250.74 96.9915V93.5883V90.9858C250.668 90.2518 250.632 89.351 250.632 88.2833C250.632 86.4816 250.487 83.7457 250.198 80.0756L249.873 71.7677C249.873 67.5637 250.018 61.2912 250.307 52.95C250.668 45.4762 250.849 39.2037 250.849 34.1322C250.849 32.8643 250.704 31.0293 250.415 28.627C250.126 26.158 249.982 24.3563 249.982 23.2219C249.982 17.1495 251.968 14.1133 255.941 14.1133C258.975 14.1133 262.515 14.6472 266.56 15.7148C270.606 16.8492 272.628 18.1838 272.628 19.7186C272.628 20.5861 272.231 21.4202 271.437 22.221C270.714 22.8883 269.775 23.4555 268.619 23.9226C264.718 22.588 261.179 21.7205 258 21.3201C258.072 22.588 258.109 24.423 258.109 26.8253C258.109 30.2952 258.072 33.3982 258 36.1341C257.711 40.2713 257.567 43.3743 257.567 45.4429L258 47.5449L260.276 47.3447C260.998 47.2779 261.901 47.2446 262.985 47.2446C267.463 47.2446 269.703 48.4457 269.703 50.848C269.703 51.7822 269.306 52.6163 268.511 53.3503C267.644 53.9509 266.56 54.2512 265.26 54.2512C263.599 54.2512 262.298 54.1511 261.359 53.9509H257.892C258.036 56.2197 258.109 59.4895 258.109 63.7602C258.109 68.0976 258.072 71.9679 258 75.3711C257.711 80.6428 257.567 84.5798 257.567 87.1823C257.567 91.9868 257.675 94.3891 257.892 94.3891L262.443 94.289C264.032 94.1555 265.946 94.0888 268.186 94.0888C271.726 94.0888 273.495 95.1231 273.495 97.1917C273.495 98.3928 272.881 99.3604 271.653 100.094C270.57 100.695 269.197 100.995 267.536 100.995H255.616ZM341.978 100.495C339.81 100.495 338.221 100.195 337.21 99.594C336.198 98.9934 335.693 97.859 335.693 96.1907C335.693 93.5883 335.223 89.1841 334.284 82.9783L333.742 80.2757L319.873 78.3739C319.295 80.3758 318.5 84.3796 317.489 90.3853C316.911 94.5892 316.044 97.3919 314.888 98.7932C314.238 99.5272 313.299 99.8943 312.071 99.8943C310.915 99.8943 309.867 99.594 308.928 98.9934C308.062 98.3261 307.628 97.5253 307.628 96.5911L307.845 95.8905L307.953 95.39C314.166 73.3025 318.825 51.4819 321.931 29.9282C321.931 29.5946 322.004 29.0608 322.148 28.3267C322.22 27.4592 322.293 26.2247 322.365 24.6232C322.654 21.4869 322.943 18.9512 323.232 17.0161C323.593 15.1476 324.171 13.7463 324.965 12.8121H329.625C330.925 12.8121 332.045 13.1124 332.984 13.7129C333.923 14.18 334.393 14.9474 334.393 16.0151C334.393 22.5546 335.368 32.2638 337.318 45.1426C339.196 58.4218 340.135 67.7306 340.135 73.0689C340.135 73.6028 340.388 74.9374 340.894 77.0727C341.327 79.0746 341.544 80.3758 341.544 80.9764C341.544 81.577 342.014 84.1461 342.953 88.6837C343.82 92.8209 344.253 95.4901 344.253 96.6912V96.7913C344.253 98.7265 343.495 99.961 341.978 100.495V100.495ZM332.767 75.6714C332.478 74.4035 332.334 72.802 332.334 70.8669C332.334 63.1262 331.575 53.2502 330.058 41.2389L328.65 27.7262C324.676 47.9452 321.931 63.2263 320.414 73.5694C321.859 74.4369 325.977 75.1376 332.767 75.6714V75.6714ZM380.661 101.496C378.639 101.496 376.797 99.4271 375.135 95.2899C373.185 90.819 371.74 86.2147 370.801 81.4769L369.826 77.0727C367.08 64.7945 365.347 57.7879 364.624 56.0529H362.891C362.891 58.5219 362.854 60.7907 362.782 62.8593V69.966C362.782 81.5102 363.685 90.5187 365.491 96.9915L363.866 100.495H359.965L358.231 98.4929L358.34 89.8848C358.34 82.1442 357.906 70.3998 357.039 54.6516C356.317 37.8357 355.956 26.0579 355.956 19.3182C355.956 15.2477 357.509 13.2125 360.615 13.2125C365.6 13.2125 369.681 14.4136 372.86 16.8159C376.11 19.2181 377.736 22.5546 377.736 26.8253V35.9339C377.736 37.2018 377.519 38.7032 377.086 40.4382C376.58 42.0397 376.074 43.3743 375.569 44.4419L372.86 49.0463L370.584 52.95L371.343 56.0529L373.293 65.1615C374.593 71.8344 375.857 77.2395 377.086 81.3768C378.241 85.514 379.722 89.2509 381.528 92.5874L382.395 94.0888C383.334 95.8237 383.804 97.2251 383.804 98.2927C383.804 99.1602 383.515 99.9276 382.937 100.595C382.359 101.195 381.6 101.496 380.661 101.496V101.496ZM363.541 49.7469C365.563 48.746 367.261 46.1435 368.634 41.9396C370.151 37.6689 370.909 33.7318 370.909 30.1284C370.909 27.3258 370.548 24.7233 369.826 22.3211C369.32 20.9865 368.525 19.9522 367.442 19.2181C366.43 18.4841 365.13 18.1171 363.541 18.1171L363.216 18.7177L362.891 19.9188L363.216 35.1331C363.432 39.604 363.541 44.4753 363.541 49.7469ZM403.85 100.995C402.694 100.995 401.574 100.595 400.491 99.7942C399.624 99.0601 399.118 98.1259 398.974 96.9915V93.5883V90.9858C398.902 90.2518 398.865 89.351 398.865 88.2833C398.865 86.4816 398.721 83.7457 398.432 80.0756L398.215 71.7677C398.215 67.5637 398.324 61.2912 398.54 52.95C398.974 45.4762 399.191 39.2037 399.191 34.1322C399.191 32.8643 399.046 31.0293 398.757 28.627C398.468 26.158 398.324 24.3563 398.324 23.2219C398.324 17.1495 400.274 14.1133 404.175 14.1133C407.281 14.1133 410.821 14.6472 414.794 15.7148C418.912 16.8492 420.97 18.1838 420.97 19.7186C420.97 20.5861 420.537 21.4202 419.67 22.221C418.948 22.8883 418.009 23.4555 416.853 23.9226C412.952 22.588 409.412 21.7205 406.234 21.3201C406.378 22.588 406.451 24.423 406.451 26.8253C406.451 30.2952 406.378 33.3982 406.234 36.1341C405.945 40.2713 405.8 43.3743 405.8 45.4429L406.234 47.5449L408.509 47.3447C409.232 47.2779 410.171 47.2446 411.327 47.2446C415.805 47.2446 418.045 48.4457 418.045 50.848C418.045 51.7822 417.611 52.6163 416.745 53.3503C415.878 53.9509 414.794 54.2512 413.494 54.2512C411.832 54.2512 410.532 54.1511 409.593 53.9509H406.125C406.342 56.2197 406.451 59.4895 406.451 63.7602C406.451 68.0976 406.378 71.9679 406.234 75.3711C405.945 80.6428 405.8 84.5798 405.8 87.1823C405.8 91.9868 405.909 94.3891 406.125 94.3891L410.785 94.289C412.374 94.1555 414.288 94.0888 416.528 94.0888C420.067 94.0888 421.837 95.1231 421.837 97.1917C421.837 98.3928 421.223 99.3604 419.995 100.094C418.839 100.695 417.431 100.995 415.769 100.995H403.85ZM465.18 101.095C463.519 100.828 462.074 100.261 460.846 99.3938C459.763 98.5263 459.112 97.4253 458.896 96.0907L460.521 93.8886C461.027 93.8886 461.894 94.0554 463.122 94.3891C464.494 94.656 465.578 94.7894 466.372 94.7894C468.034 94.7894 469.515 94.0888 470.815 92.6875C472.188 91.3529 473.199 89.5512 473.849 87.2823C475.077 83.1451 475.691 79.4416 475.691 76.1719C475.691 70.4999 473.741 64.5275 469.84 58.255L468.323 55.7526C466.517 52.95 465 50.4142 463.772 48.1454C462.616 45.9433 461.605 43.5411 460.738 40.9386C459.654 37.6021 459.112 34.2323 459.112 30.8291C459.112 27.0922 460.015 23.1552 461.821 19.0179C462.761 17.0161 464.097 15.4145 465.831 14.2134C467.564 12.9455 469.515 12.3116 471.682 12.3116C473.343 12.3116 474.86 12.8121 476.233 13.813C477.75 14.7472 478.509 15.915 478.509 17.3163C478.509 18.0504 478.183 18.6509 477.533 19.118C476.883 19.5184 476.089 19.7186 475.149 19.7186C474.138 19.7186 473.163 19.4851 472.224 19.0179C470.129 19.0847 468.503 20.7529 467.348 24.0227C466.336 27.0255 465.831 29.5279 465.831 31.5298C465.831 33.9987 466.228 36.5345 467.023 39.1369C467.889 41.6059 468.973 43.8747 470.273 45.9433L473.307 51.1483L478.183 59.6563C479.484 62.0586 480.531 64.8612 481.326 68.0642C482.12 71.2672 482.518 74.5036 482.518 77.7734C482.518 82.9783 481.217 87.9497 478.617 92.6875C477.317 95.0897 475.474 97.0249 473.091 98.4929C470.707 99.961 468.07 100.695 465.18 100.695V101.095ZM513.616 101.796C511.16 101.796 508.921 101.095 506.898 99.6941C504.803 98.226 503.106 96.2909 501.805 93.8886C499.133 88.6169 497.471 82.8782 496.821 76.6723C495.954 70.8669 495.521 65.2282 495.521 59.7564C495.521 58.7554 495.593 57.9213 495.737 57.254V54.8518C495.737 54.4514 495.665 54.2512 495.521 54.2512V51.949L495.737 42.8404C495.81 40.1045 496.171 35.7337 496.821 29.728C497.254 25.5908 498.338 21.587 500.072 17.7167C500.722 15.9817 501.553 14.6805 502.564 13.813C503.575 12.8788 504.731 12.4117 506.031 12.4117C509.788 12.4117 513.147 13.0456 516.109 14.3135C519.07 15.5146 521.599 17.2496 523.694 19.5184C525.5 21.6538 527.053 24.3229 528.353 27.526C529.726 30.5955 530.665 33.8986 531.17 37.4353C531.748 41.0387 532.037 44.8757 532.037 48.9462V49.9471C532.037 52.6163 532.073 55.0519 532.146 57.254L532.362 64.5609C532.362 89.3843 526.114 101.796 513.616 101.796V101.796ZM513.075 96.2908C514.736 96.2908 516.253 95.6903 517.626 94.4891C518.998 93.2213 520.082 91.5197 520.876 89.3843C522.61 84.9802 523.658 80.2424 524.019 75.1709C524.524 70.7668 524.777 66.9632 524.777 63.7602C524.777 59.8898 524.452 54.8184 523.802 48.5458C523.224 41.9396 522.935 37.0016 522.935 33.7318V31.4297C522.791 28.1599 521.599 25.2905 519.359 22.8215C517.192 20.4193 514.519 19.2181 511.341 19.2181C508.162 19.2181 506.068 20.9197 505.056 24.3229C504.117 26.9921 503.648 30.4287 503.648 34.6327C503.648 36.2342 503.684 37.6021 503.756 38.7365V42.2399L503.539 48.1454C503.322 49.9471 503.214 51.949 503.214 54.1511C503.214 58.7554 503.359 63.3598 503.648 67.9641C504.009 74.3702 504.948 80.6427 506.465 86.7819C507.982 93.1212 510.185 96.2908 513.075 96.2908V96.2908ZM603.879 106C600.989 106 599.544 103.331 599.544 97.9924V89.7847V81.4769C599.544 77.2062 599.219 71.5675 598.569 64.5609C597.847 56.7535 597.486 51.3818 597.486 48.4457L597.702 40.4382C597.919 38.1026 598.027 35.4668 598.027 32.5307C597.666 33.6651 596.113 39.604 593.368 50.3475C590.695 60.7573 587.914 70.3998 585.024 79.2748C582.207 87.8162 579.931 92.0869 578.198 92.0869C576.392 92.0869 574.947 91.6198 573.863 90.6856C572.852 89.6179 572.346 88.2166 572.346 86.4816C572.346 82.7447 570.649 74.7038 567.254 62.3588C564.003 50.0806 561.041 40.0044 558.368 32.1303L557.501 46.7441C556.707 59.0891 556.201 69.3321 555.984 77.4731C555.768 85.4139 555.659 90.8524 555.659 93.7885C555.659 94.4558 555.695 95.0897 555.768 95.6903V97.492C555.768 98.96 555.443 100.094 554.792 100.895C554.142 101.562 552.95 101.896 551.217 101.896C550.278 101.896 549.375 101.596 548.508 100.995C547.713 100.328 547.316 99.594 547.316 98.7932C547.316 89.9849 548.002 76.8058 549.375 59.2559C550.747 41.706 551.433 28.5269 551.433 19.7186C550.928 18.9846 550.675 18.1838 550.675 17.3163C550.675 16.3154 551.181 15.548 552.192 15.0142C553.275 14.4136 554.576 14.1133 556.093 14.1133C557.321 14.1133 559.56 18.1505 562.811 26.2247C566.062 34.299 569.312 43.4744 572.563 53.7507C575.814 63.9603 577.909 71.3673 578.848 75.9717C579.57 73.6361 580.184 71.4674 580.69 69.4655L581.557 66.3626C584.519 54.3513 587.48 43.4744 590.442 33.7318C592.248 27.7929 593.982 23.1218 595.643 19.7186C597.305 16.1152 598.858 14.3135 600.303 14.3135C601.603 14.3135 602.759 14.6805 603.77 15.4145C604.854 16.0151 605.396 16.8159 605.396 17.8168C605.396 24.0227 605.685 33.3314 606.262 45.7432C606.913 57.2874 607.238 66.2292 607.238 72.5685L607.129 79.3749L606.804 86.2814C606.804 87.2823 606.949 88.8171 607.238 90.8858L607.671 95.39C607.743 96.1908 607.78 96.7913 607.78 97.1917C607.852 97.6588 607.888 97.9257 607.888 97.9924C608.394 99.1269 608.646 99.961 608.646 100.495C608.646 101.963 608.177 103.231 607.238 104.298C606.299 105.433 605.179 106 603.879 106V106ZM632.377 100.995C631.149 100.995 630.029 100.595 629.018 99.7942C628.079 99.0601 627.573 98.1259 627.501 96.9915V93.5883V91.0859C627.428 90.2852 627.392 89.351 627.392 88.2833C627.392 86.4816 627.248 83.7457 626.959 80.0756L626.634 71.7677C626.634 67.5637 626.778 61.2912 627.067 52.95C627.428 45.4762 627.609 39.2037 627.609 34.1322C627.609 32.9311 627.465 31.1294 627.176 28.7271C626.959 26.1914 626.85 24.3563 626.85 23.2219C626.85 17.1495 628.801 14.1133 632.702 14.1133C635.736 14.1133 639.276 14.6805 643.321 15.8149C647.439 16.8826 649.497 18.1838 649.497 19.7186C649.497 20.5861 649.064 21.4202 648.197 22.221C647.475 22.8883 646.535 23.4555 645.38 23.9226C641.479 22.588 637.939 21.7205 634.761 21.3201C634.833 22.588 634.869 24.423 634.869 26.8253C634.869 30.2952 634.833 33.3982 634.761 36.1341C634.472 40.2713 634.327 43.3743 634.327 45.4429L634.761 47.5449L637.036 47.4448C637.759 47.3113 638.698 47.2446 639.853 47.2446C644.26 47.2446 646.463 48.4457 646.463 50.848C646.463 51.8489 646.066 52.683 645.271 53.3503C644.404 53.9509 643.321 54.2512 642.021 54.2512C640.359 54.2512 639.059 54.1511 638.12 53.9509H634.652C634.797 56.2197 634.869 59.4895 634.869 63.7602C634.869 68.0976 634.833 71.9679 634.761 75.3711C634.472 80.6428 634.327 84.5798 634.327 87.1823C634.327 91.9868 634.436 94.3891 634.652 94.3891L639.203 94.289C640.793 94.2222 642.707 94.1889 644.946 94.1889C648.486 94.1889 650.256 95.1898 650.256 97.1917C650.256 98.4596 649.678 99.4271 648.522 100.094C647.366 100.695 645.958 100.995 644.296 100.995H632.377ZM698.15 99.1936C690.059 99.1936 686.014 97.8924 686.014 95.2899C686.014 93.2213 687.459 92.187 690.348 92.187H691.865L693.274 92.2871C694.068 92.2871 694.574 92.0869 694.791 91.6865C695.08 91.2861 695.224 90.5187 695.224 89.3843C695.224 87.9163 695.152 85.6141 695.008 82.4778C694.719 80.4092 694.394 76.7057 694.032 71.3673C693.166 58.2216 692.732 48.3123 692.732 41.6393C692.732 39.1703 692.768 36.9682 692.84 35.0331L693.057 28.4268C693.057 25.5574 692.913 23.1885 692.624 21.3201C691.107 21.6538 690.023 21.8206 689.373 21.8206C687.134 21.8206 686.014 20.7863 686.014 18.7177C686.014 17.7167 686.736 16.8159 688.181 16.0151C689.554 15.2144 691.323 14.6472 693.491 14.3135C697.175 13.6462 700.462 13.3126 703.351 13.3126C704.507 13.3126 705.446 13.7129 706.168 14.5137C707.035 15.181 707.469 15.9817 707.469 16.916C707.469 17.8502 707.144 18.6843 706.494 19.4183C705.916 20.0856 705.157 20.4193 704.218 20.4193C703.64 20.4193 703.171 20.3859 702.809 20.3192H701.726C700.787 20.3192 700.064 20.5194 699.559 20.9197C699.197 21.2534 699.017 21.954 699.017 23.0217C699.017 31.3629 699.595 43.9081 700.751 60.6572C700.895 63.7935 701.256 68.3645 701.834 74.3702C702.268 78.3739 702.484 82.4111 702.484 86.4816V91.3862C703.062 91.3195 704.001 91.2861 705.302 91.2861C709.203 91.2861 711.153 92.7875 711.153 95.7904V96.5911L707.685 98.7932C707.613 98.7932 707.288 98.8266 706.71 98.8933C706.277 98.8933 705.338 98.8933 703.893 98.8933C700.931 99.0935 699.017 99.1936 698.15 99.1936ZM760.998 99.6941C759.842 99.6941 758.975 99.4271 758.397 98.8933C757.891 98.2927 757.494 97.3252 757.205 95.9906L756.338 93.4882V93.288V92.8876C756.338 90.0183 753.124 80.3091 746.694 63.7602C740.337 47.2779 735.353 35.0664 731.741 27.1256V92.0869L732.283 92.9877C732.355 93.1879 732.536 93.4882 732.825 93.8886C733.113 94.289 733.258 94.7227 733.258 95.1898C733.258 96.3242 732.861 97.2584 732.066 97.9924C731.199 98.7932 730.152 99.1936 728.924 99.1936C725.962 99.1936 724.481 96.5578 724.481 91.2861L724.373 69.2653C724.228 62.5924 724.156 55.1854 724.156 47.0444C724.156 44.2417 724.3 40.238 724.589 35.0331C724.878 29.5612 725.023 25.5574 725.023 23.0217C725.023 18.9512 726.72 15.7482 730.116 13.4127V14.2134C730.621 14.0132 730.982 13.9131 731.199 13.9131C733.366 13.9131 736.075 17.3831 739.326 24.3229C741.927 29.7948 744.238 35.6003 746.261 41.7394C748.428 47.8118 751.245 56.4866 754.713 67.7639L756.121 72.4684C758.216 79.4082 759.842 84.3796 760.998 87.3824C762.804 68.8983 763.707 47.0444 763.707 21.8206V20.119C763.634 19.6519 763.598 19.118 763.598 18.5175C763.598 15.915 764.718 14.6138 766.957 14.6138C768.258 14.6138 769.233 15.0809 769.883 16.0151C770.678 16.9493 771.075 18.1505 771.075 19.6185V29.3277C770.858 42.6069 770.28 56.9871 769.341 72.4684C768.402 87.9496 767.282 96.6912 765.982 98.6931C763.309 99.3604 761.648 99.6941 760.998 99.6941V99.6941ZM800.115 98.8933L797.623 97.1917L797.406 92.187C797.334 90.7189 797.297 89.084 797.297 87.2823L797.406 82.8782C797.117 81.944 796.431 72.5351 795.347 54.6516C794.263 36.7013 793.613 25.1904 793.397 20.119C787.979 19.9855 784.511 19.4851 782.994 18.6176C781.983 17.9503 781.477 17.1829 781.477 16.3154C781.477 15.5814 781.947 14.9808 782.886 14.5137C783.897 13.9131 784.945 13.6128 786.028 13.6128C788.629 13.6128 791.771 13.7797 795.455 14.1133C798.995 14.5137 802.174 14.7139 804.991 14.7139H806.074H807.266C810.156 14.7139 811.601 15.7482 811.601 17.8168C811.601 18.8845 811.131 19.752 810.192 20.4193C809.253 21.0198 808.169 21.3201 806.941 21.3201C806.074 21.3201 804.883 21.1867 803.366 20.9197L800.548 20.4193L800.331 21.0198L800.223 21.7205C800.223 29.3944 801.018 41.6059 802.607 58.3551C804.124 74.1032 804.883 86.3481 804.883 95.0897C804.883 96.0907 804.377 96.9915 803.366 97.7923C802.426 98.5263 801.343 98.8933 800.115 98.8933V98.8933ZM831.972 100.995C830.744 100.995 829.624 100.595 828.613 99.7942C827.674 99.0601 827.168 98.1259 827.096 96.9915V93.5883V91.0859C827.024 90.2852 826.988 89.351 826.988 88.2833C826.988 86.4816 826.843 83.7457 826.554 80.0756L826.229 71.7677C826.229 67.5637 826.374 61.2912 826.662 52.95C827.024 45.4762 827.204 39.2037 827.204 34.1322C827.204 32.9311 827.06 31.1294 826.771 28.7271C826.482 26.1914 826.337 24.3563 826.337 23.2219C826.337 17.1495 828.324 14.1133 832.297 14.1133C835.331 14.1133 838.871 14.6805 842.916 15.8149C846.962 16.8826 848.984 18.1838 848.984 19.7186C848.984 20.5861 848.587 21.4202 847.792 22.221C846.998 22.8883 846.059 23.4555 844.975 23.9226C841.074 22.588 837.534 21.7205 834.356 21.3201C834.428 22.588 834.464 24.423 834.464 26.8253C834.464 30.2952 834.428 33.3982 834.356 36.1341C834.067 40.2713 833.922 43.3743 833.922 45.4429L834.356 47.5449L836.631 47.4448C837.354 47.3113 838.257 47.2446 839.34 47.2446C843.819 47.2446 846.059 48.4457 846.059 50.848C846.059 51.8489 845.661 52.683 844.867 53.3503C844 53.9509 842.916 54.2512 841.616 54.2512C839.954 54.2512 838.654 54.1511 837.715 53.9509H834.248C834.392 56.2197 834.464 59.4895 834.464 63.7602C834.464 68.0976 834.428 71.9679 834.356 75.3711C834.067 80.6428 833.922 84.5798 833.922 87.1823C833.922 91.9868 834.031 94.3891 834.248 94.3891L838.799 94.289C840.388 94.2222 842.302 94.1889 844.542 94.1889C848.081 94.1889 849.851 95.1898 849.851 97.1917C849.851 98.4596 849.237 99.4271 848.009 100.094C846.925 100.695 845.553 100.995 843.891 100.995H831.972ZM889.618 101.496C887.596 101.496 885.754 99.4271 884.092 95.2899C882.142 90.819 880.697 86.2147 879.758 81.4769L878.783 77.0727C876.038 64.7945 874.304 57.7879 873.581 56.0529H871.956C871.956 58.5219 871.884 60.7907 871.739 62.8593V69.966C871.739 81.5102 872.642 90.5187 874.448 96.9915L872.931 100.495H868.922L867.188 98.4929L867.297 89.8848C867.297 82.1442 866.863 70.3998 865.996 54.6516C865.274 37.8357 864.913 26.0913 864.913 19.4183C864.913 15.2811 866.466 13.2125 869.572 13.2125C874.557 13.2125 878.638 14.4136 881.817 16.8159C885.067 19.2181 886.693 22.5546 886.693 26.8253V35.9339C886.693 37.2018 886.476 38.7032 886.043 40.4382C885.537 42.0397 885.031 43.3743 884.526 44.4419L881.817 49.0463L879.649 52.95L880.3 56.0529L882.25 65.2616C883.55 71.8678 884.815 77.2395 886.043 81.3768C887.271 85.514 888.752 89.2509 890.485 92.5874L891.352 94.1889C892.291 95.8571 892.761 97.2251 892.761 98.2927C892.761 99.1602 892.472 99.9276 891.894 100.595C891.316 101.195 890.558 101.496 889.618 101.496V101.496ZM872.498 49.7469C874.521 48.8127 876.218 46.2103 877.591 41.9396C879.108 37.6689 879.866 33.7318 879.866 30.1284C879.866 27.3258 879.505 24.7233 878.783 22.3211C878.277 20.9865 877.482 19.9522 876.399 19.2181C875.387 18.4841 874.087 18.1171 872.498 18.1171L872.173 18.7177L871.956 19.9188L872.173 35.1331C872.39 39.604 872.498 44.4753 872.498 49.7469ZM912.915 100.995C911.687 100.995 910.568 100.595 909.556 99.7942C908.617 99.0601 908.075 98.1259 907.931 96.9915V93.5883V91.0859C907.859 90.2852 907.823 89.351 907.823 88.2833C907.823 86.4816 907.678 83.7457 907.389 80.0756L907.172 71.7677C907.172 67.5637 907.317 61.2912 907.606 52.95C907.967 45.4762 908.148 39.2037 908.148 34.1322C908.148 32.9311 908.003 31.1294 907.714 28.7271C907.425 26.1914 907.281 24.3563 907.281 23.2219C907.281 17.1495 909.231 14.1133 913.132 14.1133C916.238 14.1133 919.778 14.6805 923.751 15.8149C927.869 16.8826 929.928 18.1838 929.928 19.7186C929.928 20.5861 929.494 21.4202 928.627 22.221C927.905 22.8883 927.002 23.4555 925.918 23.9226C921.945 22.588 918.369 21.7205 915.191 21.3201C915.335 22.588 915.408 24.423 915.408 26.8253C915.408 30.2952 915.335 33.3982 915.191 36.1341C914.974 40.2713 914.866 43.3743 914.866 45.4429L915.191 47.5449L917.466 47.4448C918.189 47.3113 919.128 47.2446 920.284 47.2446C924.762 47.2446 927.002 48.4457 927.002 50.848C927.002 51.8489 926.568 52.683 925.702 53.3503C924.907 53.9509 923.86 54.2512 922.559 54.2512C920.826 54.2512 919.489 54.1511 918.55 53.9509H915.083C915.299 56.2197 915.408 59.4895 915.408 63.7602C915.408 68.0976 915.335 71.9679 915.191 75.3711C914.974 80.6428 914.866 84.5798 914.866 87.1823C914.866 91.9868 914.938 94.3891 915.083 94.3891L919.742 94.289C921.331 94.2222 923.245 94.1889 925.485 94.1889C929.025 94.1889 930.794 95.1898 930.794 97.1917C930.794 98.4596 930.18 99.4271 928.952 100.094C927.797 100.695 926.388 100.995 924.726 100.995H912.915ZM948.673 101.095C947.012 100.828 945.567 100.261 944.339 99.3938C943.256 98.593 942.605 97.492 942.389 96.0907L944.014 93.8886C944.52 93.8886 945.387 94.0554 946.615 94.3891C947.987 94.656 949.071 94.7894 949.865 94.7894C951.527 94.7894 953.008 94.0888 954.308 92.6875C955.681 91.3529 956.692 89.5512 957.342 87.2823C958.57 83.1451 959.184 79.4416 959.184 76.1719C959.184 70.4999 957.234 64.5275 953.333 58.255L951.816 55.7526C950.01 52.95 948.529 50.4142 947.373 48.1454C946.145 45.9433 945.098 43.5411 944.231 40.9386C943.147 37.6021 942.605 34.2323 942.605 30.8291C942.605 27.0922 943.508 23.1552 945.314 19.0179C946.254 17.0161 947.59 15.4145 949.324 14.2134C951.057 12.9455 953.008 12.3116 955.175 12.3116C956.836 12.3116 958.353 12.8121 959.726 13.813C961.243 14.7472 962.001 15.915 962.001 17.3163C962.001 18.1171 961.676 18.7177 961.026 19.118C960.376 19.5184 959.582 19.7186 958.642 19.7186C957.631 19.7186 956.656 19.4851 955.717 19.0179C953.694 19.0847 952.069 20.7529 950.841 24.0227C949.829 27.0255 949.324 29.5279 949.324 31.5298C949.324 33.9987 949.721 36.5345 950.516 39.1369C951.382 41.6059 952.466 43.8747 953.766 45.9433L956.8 51.1483L961.676 59.6563C962.977 62.0586 964.024 64.8612 964.819 68.0642C965.613 71.2672 966.011 74.5036 966.011 77.7734C966.011 82.9783 964.71 87.9497 962.11 92.6875C960.81 95.0897 958.967 97.0249 956.584 98.4929C954.2 99.961 951.563 100.695 948.673 100.695V101.095ZM991.041 98.8933L988.549 97.2918L988.441 92.187C988.296 90.7189 988.224 89.084 988.224 87.2823L988.441 82.8782C988.152 81.944 987.429 72.5351 986.274 54.6516C985.19 36.768 984.54 25.2572 984.323 20.119C978.978 19.9855 975.546 19.4851 974.029 18.6176C973.018 17.9503 972.512 17.1829 972.512 16.3154C972.512 15.5814 972.982 14.9808 973.921 14.5137C974.932 13.9131 975.944 13.6128 976.955 13.6128C979.555 13.6128 982.734 13.7797 986.49 14.1133C990.03 14.5137 993.172 14.7139 995.917 14.7139H997.109H998.193C1001.08 14.7139 1002.53 15.7482 1002.53 17.8168C1002.53 18.8845 1002.06 19.752 1001.12 20.4193C1000.18 21.0198 999.132 21.3201 997.976 21.3201C997.109 21.3201 995.881 21.1867 994.292 20.9197L991.475 20.4193L991.367 21.1199L991.258 21.7205C991.258 29.3944 992.053 41.6059 993.642 58.3551C995.087 74.1032 995.809 86.3481 995.809 95.0897C995.809 96.0907 995.303 96.9915 994.292 97.7923C993.353 98.5263 992.269 98.8933 991.041 98.8933V98.8933ZM1023.55 99.1936C1015.39 99.1936 1011.3 97.8924 1011.3 95.2899C1011.3 93.2213 1012.75 92.187 1015.64 92.187H1017.26L1018.56 92.3872C1019.36 92.3872 1019.9 92.1536 1020.19 91.6865C1020.41 91.2861 1020.51 90.5187 1020.51 89.3843C1020.51 87.9163 1020.44 85.6475 1020.3 82.5779C1020.01 80.5093 1019.68 76.8058 1019.32 71.4674C1018.46 58.255 1018.02 48.3123 1018.02 41.6393C1018.02 39.237 1018.09 37.0349 1018.24 35.0331L1018.35 28.4268C1018.35 25.5574 1018.2 23.1885 1017.91 21.3201C1016.4 21.6538 1015.31 21.8206 1014.66 21.8206C1012.42 21.8206 1011.3 20.7863 1011.3 18.7177C1011.3 17.7167 1012.03 16.8159 1013.47 16.0151C1014.84 15.2811 1016.61 14.7139 1018.78 14.3135C1022.47 13.6462 1025.75 13.3126 1028.64 13.3126C1029.8 13.3126 1030.74 13.7129 1031.46 14.5137C1032.33 15.181 1032.76 15.9817 1032.76 16.916C1032.76 17.8502 1032.43 18.6843 1031.78 19.4183C1031.21 20.0856 1030.45 20.4193 1029.51 20.4193C1028.93 20.4193 1028.46 20.3859 1028.1 20.3192H1027.02C1026.08 20.3192 1025.35 20.5194 1024.85 20.9197C1024.49 21.2534 1024.31 21.954 1024.31 23.0217C1024.31 31.3629 1024.89 43.9415 1026.04 60.7573C1026.19 63.8269 1026.55 68.3645 1027.12 74.3702C1027.63 78.3739 1027.88 82.4445 1027.88 86.5817V91.4863C1028.39 91.3529 1029.29 91.2861 1030.59 91.2861C1034.57 91.2861 1036.55 92.7875 1036.55 95.7904V96.5911L1032.98 98.7932C1032.9 98.7932 1032.58 98.8266 1032 98.8933C1031.57 98.8933 1030.63 98.8933 1029.18 98.8933C1026.22 99.0935 1024.34 99.1936 1023.55 99.1936V99.1936ZM1086.29 99.6941C1085.13 99.6941 1084.3 99.4271 1083.8 98.8933C1083.22 98.2927 1082.78 97.3252 1082.5 95.9906L1081.63 93.4882V93.288V92.8876C1081.63 90.0183 1078.41 80.3425 1071.98 63.8603C1065.63 47.3113 1060.64 35.0664 1057.03 27.1256V92.0869L1057.57 92.9877C1057.72 93.1879 1057.9 93.4882 1058.11 93.8886C1058.4 94.3557 1058.55 94.7894 1058.55 95.1898C1058.55 96.3242 1058.15 97.2584 1057.36 97.9924C1056.49 98.7932 1055.44 99.1936 1054.21 99.1936C1051.25 99.1936 1049.77 96.5578 1049.77 91.2861L1049.66 69.2653C1049.59 62.5924 1049.55 55.1854 1049.55 47.0444C1049.55 44.3085 1049.66 40.3047 1049.88 35.0331C1050.17 29.628 1050.31 25.6242 1050.31 23.0217C1050.31 18.9512 1052.01 15.7482 1055.41 13.4127V14.2134C1055.91 14.08 1056.27 14.0132 1056.49 14.0132C1058.66 14.0132 1061.37 17.4498 1064.62 24.3229C1067.22 29.7948 1069.53 35.6003 1071.55 41.7394C1073.72 47.8785 1076.54 56.5867 1080 67.864L1081.41 72.4684C1083.51 79.4082 1085.13 84.413 1086.29 87.4825C1088.17 68.9317 1089.11 47.0444 1089.11 21.8206V20.119C1088.96 19.6519 1088.89 19.118 1088.89 18.5175C1088.89 15.915 1090.01 14.6138 1092.25 14.6138C1093.55 14.6138 1094.52 15.0809 1095.17 16.0151C1095.97 16.9493 1096.37 18.1505 1096.37 19.6185V29.3277C1096.15 42.6069 1095.57 56.9871 1094.63 72.4684C1093.69 87.9496 1092.57 96.6912 1091.27 98.6931C1088.6 99.3604 1086.94 99.6941 1086.29 99.6941V99.6941ZM1133.21 100.395C1130.61 100.395 1128.22 99.961 1126.06 99.0935C1123.96 98.0925 1122.15 96.8914 1120.64 95.4901C1119.41 94.289 1118.29 92.5206 1117.28 90.1851C1116.27 87.8496 1115.54 85.6141 1115.11 83.4788C1114.61 81.8105 1114.21 79.4416 1113.92 76.3721C1113.63 73.2358 1113.45 70.5666 1113.38 68.3645V60.8574V55.6525C1113.38 50.6478 1113.49 46.5773 1113.7 43.441C1113.85 39.5707 1114.42 35.4668 1115.44 31.1294C1116.3 27.2591 1117.75 23.8558 1119.77 20.9197C1121.72 17.9836 1124.47 15.9817 1128.01 14.9141C1129.74 14.3135 1131.73 14.0132 1133.97 14.0132C1137.94 14.0132 1139.93 15.0809 1139.93 17.2162C1139.93 18.2172 1139.46 19.0847 1138.52 19.8187C1137.72 20.4193 1136.71 20.7195 1135.48 20.7195C1134.9 20.7195 1134.4 20.6528 1133.97 20.5194C1133.6 20.4526 1133.13 20.4193 1132.56 20.4193C1130.97 20.4193 1129.56 21.1867 1128.33 22.7214C1127.1 24.3229 1126.09 26.4917 1125.3 29.2276C1123.78 34.5659 1122.73 40.3714 1122.15 46.644C1121.79 52.5162 1121.61 56.8536 1121.61 59.6563C1121.61 62.5924 1121.76 66.5962 1122.05 71.6676C1122.41 76.4054 1123.2 80.5427 1124.43 84.0793C1125.08 86.1479 1125.84 87.8162 1126.71 89.084C1127.57 90.2852 1128.73 91.3195 1130.17 92.187C1131.76 93.1879 1133.39 93.6884 1135.05 93.6884C1139.53 93.6884 1141.77 86.7819 1141.77 72.9688V67.0633C1141.12 66.7964 1140.03 66.6629 1138.52 66.6629H1137.32H1135.7C1132.45 66.6629 1130.82 65.662 1130.82 63.6601C1130.82 62.4589 1131.26 61.5581 1132.12 60.9575C1133.06 60.2902 1134.22 59.9566 1135.59 59.9566V60.0567H1137.54C1145.92 60.0567 1150.11 61.3913 1150.11 64.0604C1150.11 64.8612 1149.89 66.4293 1149.46 68.7649C1148.88 70.7668 1148.59 72.3016 1148.59 73.3692C1148.59 74.8373 1148.74 77.1061 1149.03 80.1757L1149.35 87.0822C1149.35 91.2194 1147.76 94.4892 1144.58 96.8914C1141.48 99.227 1137.69 100.395 1133.21 100.395V100.395ZM1191.94 100.495C1190.56 100.495 1188.9 99.8609 1186.95 98.593C1187.67 91.3862 1188.25 80.4092 1188.69 65.662C1189.19 50.2474 1189.52 40.972 1189.66 37.8357V34.7328C1190.09 26.3248 1190.31 20.486 1190.31 17.2162C1190.31 16.0151 1190.82 15.0475 1191.83 14.3135C1192.91 13.6462 1194.18 13.3126 1195.62 13.3126C1198.87 13.3126 1202.34 13.5795 1206.02 14.1133C1208.48 14.447 1210.39 15.0142 1211.77 15.8149C1213.28 16.5489 1214.04 17.4832 1214.04 18.6176C1214.04 21.0198 1211.66 22.221 1206.89 22.221C1205.16 21.3535 1202.74 20.9197 1199.63 20.9197H1197.9V22.5212C1197.9 25.8577 1197.72 30.0951 1197.35 35.2332C1196.92 40.1045 1196.7 44.4753 1196.7 48.3456V51.8489H1197.79H1199.2C1203.75 51.8489 1206.02 52.95 1206.02 55.152C1206.02 56.2864 1205.52 57.1873 1204.51 57.8546C1203.57 58.5219 1202.41 58.8555 1201.04 58.8555C1198.8 58.8555 1196.99 58.6553 1195.62 58.255V94.7894C1195.62 98.593 1194.39 100.495 1191.94 100.495V100.495ZM1251.1 100.495C1248.93 100.495 1247.34 100.195 1246.33 99.594C1245.32 98.9934 1244.82 97.859 1244.82 96.1907C1244.82 93.655 1244.35 89.2842 1243.41 83.0784L1242.87 80.3758L1229 78.3739C1228.42 80.3758 1227.62 84.3796 1226.61 90.3853C1226.03 94.5892 1225.13 97.3919 1223.9 98.7932C1223.25 99.594 1222.35 99.9943 1221.19 99.9943C1220.04 99.9943 1218.99 99.6941 1218.05 99.0935C1217.11 98.3595 1216.64 97.5253 1216.64 96.5911L1216.97 95.9906L1217.08 95.4901C1223.22 73.3359 1227.88 51.5153 1231.05 30.0283C1231.05 29.628 1231.13 29.0608 1231.27 28.3267C1231.34 27.4592 1231.42 26.2581 1231.49 24.7233C1231.78 21.5203 1232.07 18.9846 1232.35 17.1162C1232.72 15.181 1233.26 13.7463 1233.98 12.8121H1238.75C1240.05 12.8121 1241.17 13.1124 1242.11 13.7129C1243.05 14.2468 1243.52 15.0142 1243.52 16.0151C1243.52 22.5546 1244.49 32.2971 1246.44 45.2427C1248.32 58.4552 1249.26 67.7306 1249.26 73.0689C1249.26 73.6028 1249.48 74.9374 1249.91 77.0727C1250.41 79.0746 1250.67 80.3758 1250.67 80.9764C1250.67 81.577 1251.14 84.1461 1252.08 88.6837C1252.87 92.8209 1253.27 95.4901 1253.27 96.6912V96.8914C1253.27 98.7598 1252.55 99.961 1251.1 100.495V100.495ZM1241.89 75.6714C1241.6 74.4035 1241.46 72.802 1241.46 70.8669C1241.46 63.1262 1240.7 53.2502 1239.18 41.2389L1237.77 27.8263C1233.8 48.0453 1231.05 63.3264 1229.54 73.6695C1230.91 74.4703 1235.03 75.1376 1241.89 75.6714V75.6714ZM1284.04 101.095C1282.02 101.095 1279.85 100.862 1277.54 100.395C1275.3 99.7942 1273.57 99.1269 1272.34 98.3928C1266.05 94.7227 1262.91 84.6132 1262.91 68.0642V64.5609V60.5571V57.4542C1262.91 54.051 1262.98 51.0148 1263.13 48.3456C1263.2 45.543 1263.38 42.5735 1263.67 39.4372C1263.96 36.034 1264.36 33.2981 1264.86 31.2295C1265.44 29.0941 1266.38 26.6919 1267.68 24.0227C1268.83 21.5537 1270.21 19.6185 1271.8 18.2172C1273.46 16.8826 1275.59 15.7148 1278.19 14.7139C1280.5 13.7797 1283.39 13.3126 1286.86 13.3126C1288.23 13.3126 1289.31 13.6128 1290.11 14.2134C1290.83 14.814 1291.19 15.5814 1291.19 16.5156C1291.19 17.3831 1290.87 18.1838 1290.22 18.9179C1289.64 19.5851 1288.95 19.9522 1288.16 20.0189H1281.55C1279.67 20.0189 1278.05 21.0866 1276.67 23.2219C1275.23 25.424 1274.25 28.2266 1273.75 31.6298C1272.52 38.0359 1271.91 43.2074 1271.91 47.1445V47.8451L1271.58 60.1568C1271.44 63.8936 1271.36 68.0976 1271.36 72.7687C1271.36 76.0384 1271.51 78.7076 1271.8 80.7762C1272.23 83.8458 1273.02 86.4149 1274.18 88.4835C1275.26 90.819 1277.14 92.4873 1279.82 93.4882C1281.26 94.022 1282.81 94.289 1284.47 94.289C1285.49 94.289 1286.5 93.9553 1287.51 93.288C1288.74 93.288 1289.71 93.5216 1290.43 93.9887C1291.3 94.4558 1291.73 95.1564 1291.73 96.0907C1291.73 99.4271 1289.17 101.095 1284.04 101.095ZM1314.71 98.8933L1312.11 97.2918L1312 92.187C1311.93 90.7189 1311.89 89.084 1311.89 87.2823L1312 82.8782C1311.71 81.944 1311.02 72.5351 1309.94 54.6516C1308.78 36.768 1308.13 25.2572 1307.99 20.119C1302.57 19.9855 1299.1 19.4851 1297.59 18.6176C1296.57 17.9503 1296.07 17.1829 1296.07 16.3154C1296.07 15.5814 1296.54 14.9808 1297.48 14.5137C1298.49 13.9131 1299.5 13.6128 1300.51 13.6128C1303.11 13.6128 1306.29 13.7797 1310.05 14.1133C1313.59 14.5137 1316.77 14.7139 1319.58 14.7139H1320.67H1321.75C1324.64 14.7139 1326.08 15.7482 1326.08 17.8168C1326.08 18.8845 1325.65 19.752 1324.78 20.4193C1323.84 21.0198 1322.76 21.3201 1321.53 21.3201C1320.67 21.3201 1319.44 21.1867 1317.85 20.9197L1315.14 20.4193L1314.92 21.1199L1314.81 21.7205C1314.81 29.3944 1315.61 41.6059 1317.2 58.3551C1318.72 74.1032 1319.47 86.3481 1319.47 95.0897C1319.47 96.0907 1318.93 96.9915 1317.85 97.7923C1316.91 98.5263 1315.86 98.8933 1314.71 98.8933V98.8933ZM1342.66 101.095C1340.93 100.828 1339.48 100.295 1338.33 99.4939C1337.17 98.6264 1336.52 97.492 1336.38 96.0907L1337.9 93.8886C1338.47 93.8886 1339.34 94.0554 1340.5 94.3891C1341.94 94.656 1343.02 94.7894 1343.75 94.7894C1345.41 94.7894 1346.89 94.0888 1348.19 92.6875C1349.63 91.3529 1350.68 89.5512 1351.33 87.2823C1352.49 83.1451 1353.07 79.4416 1353.07 76.1719C1353.07 70.4999 1351.11 64.5275 1347.21 58.255L1345.7 55.8527C1343.96 52.9833 1342.48 50.4142 1341.25 48.1454C1340.03 45.9433 1338.98 43.5411 1338.11 40.9386C1337.03 37.6021 1336.49 34.2657 1336.49 30.9292C1336.49 27.1256 1337.43 23.1552 1339.3 19.0179C1340.24 17.0161 1341.54 15.4145 1343.2 14.2134C1344.94 12.9455 1346.89 12.3116 1349.06 12.3116C1350.72 12.3116 1352.27 12.8121 1353.72 13.813C1355.16 14.7472 1355.88 15.915 1355.88 17.3163C1355.88 18.1171 1355.56 18.7177 1354.91 19.118C1354.26 19.5851 1353.46 19.8187 1352.52 19.8187C1351.51 19.8187 1350.54 19.5518 1349.6 19.0179C1347.58 19.0847 1345.95 20.7529 1344.72 24.0227C1343.71 27.0255 1343.2 29.5279 1343.2 31.5298C1343.2 33.9987 1343.6 36.5345 1344.4 39.1369C1345.26 41.6727 1346.35 43.9415 1347.65 45.9433L1350.68 51.1483L1355.67 59.6563C1356.97 62.0586 1357.98 64.8612 1358.7 68.0642C1359.57 71.2672 1360 74.5036 1360 77.7734C1360 83.045 1358.66 88.0164 1355.99 92.6875C1354.69 95.1565 1352.85 97.125 1350.46 98.593C1348.15 99.9943 1345.55 100.695 1342.66 100.695V101.095Z" fill="#325949"/>
</svg>
