<svg width="78" height="25" viewBox="0 0 78 25" fill="none" xmlns="http://www.w3.org/2000/svg">
<path d="M3.05038 24.8C2.31705 24.8 1.68372 24.6667 1.15039 24.4C0.817057 24.2 0.650391 23.9667 0.650391 23.7C0.650391 23.5 0.6837 23.3 0.750366 23.1C0.8837 22.9667 1.08371 22.9 1.35037 22.9C1.55037 22.9 1.85037 22.9667 2.25037 23.1C2.65037 23.3 2.91705 23.4 3.05038 23.4C3.45038 23.4 3.78372 23.2333 4.05038 22.9C4.38372 22.5667 4.65037 22.1 4.85037 21.5C5.25037 20.5 5.45038 19.5667 5.45038 18.7C5.45038 17.8333 5.28371 16.9 4.95038 15.9C4.68371 14.9667 4.31704 14.0333 3.85037 13.1L3.35037 12.1C2.81704 11.0333 2.41706 10.2 2.15039 9.60001C1.88372 9.00001 1.65038 8.36668 1.45038 7.70001C1.11705 6.70001 0.950378 5.73334 0.950378 4.8C0.950378 4.06667 1.08371 3.36668 1.35037 2.70001C1.61704 2.03335 2.01705 1.46667 2.55038 1C3.08372 0.533333 3.71705 0.300003 4.45038 0.300003C4.85038 0.300003 5.21705 0.400006 5.55038 0.600006C5.88372 0.800006 6.11703 1.06668 6.25037 1.40001L5.75037 2.10001C5.21703 2.10001 4.81705 1.96668 4.55038 1.70001C4.15038 1.76668 3.81705 1.96667 3.55038 2.3C3.28372 2.63334 3.08371 3.00001 2.95038 3.40001C2.81705 3.80001 2.75037 4.20001 2.75037 4.60001C2.75037 5.33334 2.85038 6.13333 3.05038 7C3.25038 7.8 3.55038 8.56667 3.95038 9.3L6.05038 13.6C6.45038 14.3333 6.75038 15.1667 6.95038 16.1C7.15038 17.0333 7.25037 17.9667 7.25037 18.9C7.25037 20.3 6.91703 21.6 6.25037 22.8C5.91703 23.4 5.45037 23.9 4.85037 24.3C4.31704 24.6333 3.71705 24.8 3.05038 24.8V24.8ZM14.8504 25C14.317 25 13.817 24.8 13.3504 24.4C12.8837 24.0667 12.4837 23.5667 12.1504 22.9C11.5504 21.7667 11.117 20.2333 10.8504 18.3C10.5837 16.9667 10.417 15.4333 10.3504 13.7V12V10.3C10.2837 9.76667 10.2504 9.13334 10.2504 8.40001C10.2504 7.13334 10.317 6.03334 10.4504 5.10001C10.517 4.10001 10.7171 3.13335 11.0504 2.20001C11.3837 1.33335 11.8504 0.733342 12.4504 0.400009C12.8504 0.200009 13.2171 0.100006 13.5504 0.100006C14.6837 0.100006 15.5837 0.533342 16.2504 1.40001C16.917 2.40001 17.3504 3.50001 17.5504 4.70001C17.8837 6.10001 18.0837 7.46667 18.1504 8.8C18.2171 10.2667 18.2504 11.6667 18.2504 13V14.7C18.2504 15.1 18.2171 15.7667 18.1504 16.7C18.0837 17.5 18.0504 18.1667 18.0504 18.7V18.8C17.9171 19.4 17.8504 20.0667 17.8504 20.8C17.8504 21.4 17.717 22 17.4504 22.6C17.1837 23.2667 16.817 23.8 16.3504 24.2C15.9504 24.7333 15.4504 25 14.8504 25ZM14.9504 23.3C15.3504 23.3 15.6837 22.9 15.9504 22.1C16.217 21.4333 16.3837 20.6 16.4504 19.6C16.5837 18.6 16.6837 17.5 16.7504 16.3C16.817 15.7667 16.8504 15.0667 16.8504 14.2V11.4C16.7837 10.2667 16.6504 8.86668 16.4504 7.20001C16.317 5.73335 16.0171 4.46668 15.5504 3.40001C15.3504 2.86668 15.0837 2.46668 14.7504 2.20001C14.417 1.86668 14.0837 1.70001 13.7504 1.70001C13.217 1.70001 12.8504 2.13333 12.6504 3C12.3171 3.8 12.0837 4.70001 11.9504 5.70001C11.8837 6.83335 11.817 7.90001 11.7504 8.90001V9.90001C11.7504 10.1667 11.7504 10.5667 11.7504 11.1V11.2C11.7504 12.6 11.8837 14.3 12.1504 16.3C12.4837 19.0333 12.9504 21 13.5504 22.2C14.0171 22.9333 14.4837 23.3 14.9504 23.3V23.3ZM23.2504 24.4C22.9837 24.4 22.717 24.3333 22.4504 24.2C22.2504 24 22.1504 23.7333 22.1504 23.4C22.1504 23.2667 22.1837 23.0667 22.2504 22.8C22.317 22.4667 22.3504 22.2333 22.3504 22.1C22.3504 20.3 22.2504 16.7667 22.0504 11.5C21.8504 7.03333 21.7504 3.50001 21.7504 0.900009C21.7504 0.766676 21.817 0.633333 21.9504 0.5C22.0837 0.366667 22.2504 0.300003 22.4504 0.300003C22.717 0.300003 22.9504 0.400006 23.1504 0.600006C23.3504 0.800006 23.4504 1.00001 23.4504 1.20001C23.4504 2.46668 23.5171 4.33334 23.6504 6.8C23.7171 9.53334 23.7504 11.4 23.7504 12.4V12.8V13.1V13.3V13.5C23.817 15.3 23.8504 18 23.8504 21.6V22.4H26.2504C26.717 22.6667 26.9504 22.9667 26.9504 23.3C26.9504 23.5 26.8504 23.7 26.6504 23.9C26.5171 24.1 26.3504 24.2 26.1504 24.2C26.0837 24.2 25.9837 24.1667 25.8504 24.1H25.6504C25.5837 24.1 25.3837 24.1 25.0504 24.1H24.5504C24.4171 24.1 24.2504 24.1 24.0504 24.1C23.8504 24.3 23.5837 24.4 23.2504 24.4V24.4ZM34.9504 24.7C33.6837 24.7 32.6504 24.1333 31.8504 23C31.0504 21.8667 30.4837 20.4667 30.1504 18.8C29.8171 17.0667 29.5837 15.2 29.4504 13.2C29.3837 11.3333 29.3504 9.33335 29.3504 7.20001V4.70001C29.3504 3.96668 29.3504 3.20001 29.3504 2.40001C29.1504 2.20001 29.0504 1.96668 29.0504 1.70001C29.0504 1.50001 29.1504 1.30001 29.3504 1.10001C29.5504 0.900006 29.7504 0.800003 29.9504 0.800003C30.7504 0.800003 31.1504 1.53333 31.1504 3C31.1504 3.93333 31.1837 5.73334 31.2504 8.40001C31.3837 11.0667 31.4504 12.8667 31.4504 13.8C31.517 14.0667 31.617 14.6 31.7504 15.4C31.817 16.2 31.8504 16.8667 31.8504 17.4C31.8504 17.8667 31.9171 18.4333 32.0504 19.1C32.1837 19.7667 32.3837 20.4333 32.6504 21.1C32.9171 21.8333 33.2837 22.4333 33.7504 22.9C34.1504 23.3667 34.6171 23.6 35.1504 23.6C35.4171 23.6 35.6504 23.5 35.8504 23.3C36.0504 23.1 36.1837 22.8333 36.2504 22.5C36.3837 21.9 36.4504 21.3333 36.4504 20.8V14.7C36.4504 13.9667 36.3504 13 36.1504 11.8C36.0837 10.5333 36.0504 9.56668 36.0504 8.90001V8.70001C36.0504 8.36668 36.017 8.06667 35.9504 7.8V6.90001C35.9504 6.30001 35.917 5.40001 35.8504 4.20001C35.7837 3.13335 35.7504 2.26667 35.7504 1.60001C35.7504 1.33334 35.8504 1.13333 36.0504 1C36.3171 0.8 36.5837 0.700012 36.8504 0.700012L37.6504 1.40001V2C37.6504 2.2 37.6171 2.50001 37.5504 2.90001C37.4837 3.43334 37.4504 3.76668 37.4504 3.90001C37.4504 5.76668 37.5504 8.33334 37.7504 11.6C37.8837 15.0667 37.9504 17.7667 37.9504 19.7C37.9504 20.7667 37.8504 21.7 37.6504 22.5C37.5171 22.9667 37.3504 23.3333 37.1504 23.6C36.9504 23.8667 36.6504 24.1 36.2504 24.3C35.917 24.5667 35.4837 24.7 34.9504 24.7V24.7ZM44.2504 24.3C43.9837 24.3 43.7504 24.1667 43.5504 23.9C43.3504 23.5667 43.2504 23.2 43.2504 22.8C43.2504 22.0667 43.317 21.2333 43.4504 20.3V19.5L43.5504 17.8C43.5504 17.0667 43.4837 15.4667 43.3504 13C43.217 10.4667 43.1504 8.83334 43.1504 8.10001C43.1504 8.03334 43.1504 7.93334 43.1504 7.8C43.1504 7.6 43.1504 7.33333 43.1504 7C43.1504 6.53333 43.1504 6.00001 43.1504 5.40001C43.1504 3.93334 43.0504 3.00001 42.8504 2.60001C42.717 2.60001 42.4504 2.60001 42.0504 2.60001L41.1504 2.70001C40.8837 2.70001 40.6504 2.63333 40.4504 2.5C40.2504 2.3 40.1504 2.10001 40.1504 1.90001C40.1504 1.63334 40.417 1.40001 40.9504 1.20001C41.617 1.00001 42.8171 0.833346 44.5504 0.700012C45.2837 0.633346 45.717 0.600006 45.8504 0.600006C46.117 0.600006 46.3504 0.700009 46.5504 0.900009C46.7504 1.03334 46.8504 1.23333 46.8504 1.5C46.8504 1.76667 46.7504 1.96667 46.5504 2.10001C46.4171 2.23334 46.217 2.3 45.9504 2.3H45.3504C45.217 2.3 45.0504 2.3 44.8504 2.3H44.5504C44.6837 3.7 44.7504 4.96667 44.7504 6.10001L44.6504 8.10001C44.6504 8.70001 44.6504 9.36667 44.6504 10.1C44.6504 11.1 44.6837 12.3 44.7504 13.7C44.8837 15.3667 44.9504 16.5333 44.9504 17.2C44.9504 18 44.9837 18.9333 45.0504 20C45.1171 21.1333 45.1504 22.0667 45.1504 22.8C45.1504 23.8 44.8504 24.3 44.2504 24.3V24.3ZM52.0504 24.1C50.2504 24.1 49.3504 23.7667 49.3504 23.1C49.3504 22.6333 49.6837 22.4 50.3504 22.4H50.6504C50.7171 22.4 50.817 22.4 50.9504 22.4C51.1504 22.4 51.2504 22.3667 51.2504 22.3C51.3837 22.1667 51.4504 21.9667 51.4504 21.7C51.4504 19.9667 51.3504 17.5667 51.1504 14.5C50.9504 11.3667 50.8504 9.00001 50.8504 7.40001C50.8504 6.80001 50.8504 6.26667 50.8504 5.8V4.20001C50.8504 3.53335 50.817 2.96667 50.7504 2.5C50.5504 2.56667 50.3171 2.60001 50.0504 2.60001C49.5837 2.60001 49.3504 2.36668 49.3504 1.90001C49.3504 1.63334 49.517 1.40001 49.8504 1.20001C50.117 1.00001 50.4837 0.86667 50.9504 0.800003C51.817 0.66667 52.5504 0.600006 53.1504 0.600006C53.4171 0.600006 53.6504 0.700009 53.8504 0.900009C53.9837 1.03334 54.0504 1.20001 54.0504 1.40001C54.0504 1.66668 53.9837 1.86667 53.8504 2C53.717 2.2 53.5504 2.3 53.3504 2.3C53.217 2.3 53.1171 2.26668 53.0504 2.20001H52.8504C52.6504 2.20001 52.4837 2.26668 52.3504 2.40001C52.2837 2.46668 52.2504 2.63334 52.2504 2.90001C52.2504 5.10001 52.3837 8.10001 52.6504 11.9C52.8504 15.9667 52.9504 19 52.9504 21V22.2C53.1504 22.2 53.3837 22.2 53.6504 22.2C54.5171 22.2 54.9504 22.5667 54.9504 23.3V23.4L54.1504 24C54.1504 24 54.0837 24 53.9504 24C53.8837 24 53.6837 24 53.3504 24C52.617 24.0667 52.1837 24.1 52.0504 24.1V24.1ZM62.1504 25C61.5504 25 61.0171 24.8 60.5504 24.4C60.1504 24.0667 59.7837 23.5667 59.4504 22.9C58.8504 21.7667 58.3837 20.2333 58.0504 18.3C57.8504 16.9667 57.7171 15.4333 57.6504 13.7L57.5504 12V10.3C57.5504 9.76667 57.5504 9.13334 57.5504 8.40001C57.5504 7.13334 57.617 6.03334 57.7504 5.10001C57.817 4.10001 58.017 3.13335 58.3504 2.20001C58.6837 1.33335 59.1504 0.733342 59.7504 0.400009C60.1504 0.200009 60.517 0.100006 60.8504 0.100006C61.9837 0.100006 62.8504 0.533342 63.4504 1.40001C64.1837 2.40001 64.6504 3.50001 64.8504 4.70001C65.1837 6.10001 65.3837 7.46667 65.4504 8.8C65.517 10.2667 65.5504 11.6667 65.5504 13V14.7C65.5504 15.1 65.4837 15.7667 65.3504 16.7C65.2837 17.5 65.2504 18.1667 65.2504 18.7V18.8C65.117 19.4 65.0504 20.0667 65.0504 20.8C65.0504 21.4 64.9504 22 64.7504 22.6C64.4837 23.2667 64.1171 23.8 63.6504 24.2C63.1837 24.7333 62.6837 25 62.1504 25ZM62.1504 23.3C62.5504 23.3 62.917 22.9 63.2504 22.1C63.517 21.4333 63.6837 20.6 63.7504 19.6C63.8837 18.6 63.9837 17.5 64.0504 16.3C64.1171 15.7667 64.1504 15.0667 64.1504 14.2L64.0504 11.4C64.0504 10.2667 63.9504 8.86668 63.7504 7.20001C63.5504 5.73335 63.217 4.46668 62.7504 3.40001C62.5504 2.86668 62.3171 2.46668 62.0504 2.20001C61.7171 1.86668 61.3837 1.70001 61.0504 1.70001C60.5171 1.70001 60.117 2.13333 59.8504 3C59.5837 3.8 59.3837 4.70001 59.2504 5.70001C59.117 6.83335 59.0504 7.90001 59.0504 8.90001V9.90001C58.9837 10.1667 58.9504 10.5667 58.9504 11.1V11.2C58.9504 12.6 59.117 14.3 59.4504 16.3C59.7837 19.0333 60.2504 21 60.8504 22.2C61.2504 22.9333 61.6837 23.3 62.1504 23.3V23.3ZM76.7504 24.6C76.2837 24.6 75.4171 22.4667 74.1504 18.2C72.7504 13.2 71.517 8.60001 70.4504 4.40001V14.6C70.4504 15.4667 70.5171 16.9333 70.6504 19C70.7837 21.3333 70.8504 22.8 70.8504 23.4C70.8504 23.6 70.7504 23.7667 70.5504 23.9C70.3504 24.0333 70.0837 24.1 69.7504 24.1C69.3504 24.1 69.1504 23.9333 69.1504 23.6V22.7C69.2171 22.0333 69.2504 21.6 69.2504 21.4C69.2504 20.3333 69.1837 18.6 69.0504 16.2C68.9171 13.8 68.8504 12.3333 68.8504 11.8V7.90001C68.8504 7.23334 68.8837 6.26667 68.9504 5C69.017 3.93333 69.0504 3.00001 69.0504 2.20001V2C69.0504 0.933333 69.2837 0.400009 69.7504 0.400009C70.017 0.400009 70.3504 0.86667 70.7504 1.8C71.4837 3.26667 72.3504 5.93334 73.3504 9.8C73.9504 12 74.6837 14.8667 75.5504 18.4C75.4837 18.3333 75.6504 19.0333 76.0504 20.5V20.7C76.0504 18.7 76.0504 16.9 76.0504 15.3L76.1504 9.90001V0.700012C76.2171 0.233346 76.5504 0 77.1504 0C77.6837 0 77.9504 0.400012 77.9504 1.20001V1.3C77.817 1.56667 77.7504 1.86668 77.7504 2.20001C77.7504 3.46668 77.7504 5.36668 77.7504 7.90001C77.6837 10.5 77.6504 12.4333 77.6504 13.7V23.2C77.6504 23.5333 77.5504 23.8333 77.3504 24.1C77.1504 24.4333 76.9504 24.6 76.7504 24.6V24.6Z" fill="white"/>
</svg>
