<svg width="65" height="117" viewBox="0 0 65 117" fill="none" xmlns="http://www.w3.org/2000/svg">
<path fill-rule="evenodd" clip-rule="evenodd" d="M26.7881 104.101C26.8547 104.568 26.8881 105.068 26.8881 105.601C27.8881 108.701 27.9881 112.001 26.5881 115.401C25.8881 116.901 23.3881 116.401 23.3881 114.801C23.4881 101.101 11.5881 95.5014 5.68809 84.7014C1.08809 76.3014 -0.111901 66.4014 1.3881 57.0014C4.9881 33.5014 23.9881 18.0014 40.6881 3.00139C40.7548 2.53472 40.8547 2.10138 40.9881 1.70138C41.3881 0.301384 43.2881 0.00138742 43.7881 1.50139C45.8881 7.00139 46.6881 12.4014 49.4881 17.7014C51.8881 22.3014 54.5881 26.8014 56.8881 31.6014C61.4881 41.4014 64.8881 52.2014 63.9881 63.2014C62.4881 83.4014 45.2881 98.1014 26.7881 104.101V104.101ZM59.7881 55.5014C58.6881 44.2014 53.6881 34.0014 48.1881 24.3014C45.4881 19.4014 41.2881 12.9014 40.5881 6.80138C34.2881 14.6014 26.1881 21.1014 19.8881 29.0014C12.2881 38.5014 6.28809 49.8014 5.68809 62.1014C4.88809 74.8014 9.98808 83.9014 18.4881 93.0014C19.1547 93.7347 19.8214 94.4681 20.4881 95.2014C20.4881 89.8014 21.8881 83.9014 23.1881 78.9014C19.2881 77.5014 16.0881 74.8014 13.8881 71.4014C12.0881 68.7014 9.58807 64.1014 10.9881 60.8014C11.2881 60.2014 12.188 60.2014 12.588 60.7014C13.588 62.0014 13.588 63.5014 14.088 65.0014C14.6214 66.7347 15.3547 68.3347 16.2881 69.8014C18.1881 72.7014 20.6881 75.0014 23.6881 76.9014C23.8881 75.9014 24.0881 74.968 24.2881 74.1014C26.1547 65.968 28.0214 57.8681 29.8881 49.8014C29.7881 49.7014 29.6881 49.7014 29.5881 49.7014C29.1881 49.5014 29.0881 49.4014 28.8881 49.1014C28.8214 49.0347 28.7881 48.9347 28.7881 48.8014C28.3881 48.2014 26.9881 47.3014 26.5881 47.0014C25.7881 46.2014 25.0881 45.3014 24.4881 44.4014C23.3881 42.9014 21.7881 40.5014 22.3881 38.6014C22.5881 37.8014 23.3881 37.5014 23.9881 38.0014C24.8881 38.6014 25.1881 39.7014 25.6881 40.6014C26.1881 41.7014 26.8881 42.7014 27.5881 43.6014C28.2881 44.6014 29.6881 45.6014 30.5881 46.7014C31.4547 42.8347 32.3547 38.968 33.2881 35.1014C33.1881 35.1014 33.1881 35.2014 33.0881 35.1014C31.0881 34.7014 27.7881 32.1014 28.8881 29.6014C29.0881 29.2014 29.5881 29.2014 29.8881 29.4014C30.5881 30.0014 30.7881 31.0014 31.2881 31.7014C31.8881 32.6014 32.6881 33.3014 33.5881 33.8014C34.0547 31.8014 34.5214 29.8014 34.9881 27.8014C35.1881 26.8014 36.7881 27.1014 36.5881 28.1014C36.0547 31.1014 35.5214 34.1014 34.9881 37.1014C35.3881 36.7014 35.8881 36.3014 36.2881 36.0014C37.5881 35.0014 39.7881 33.5014 41.5881 34.2014C41.9881 34.4014 42.0881 34.9014 41.8881 35.3014C41.2881 36.8014 39.0881 37.5014 37.7881 38.3014C36.7881 39.0014 35.5881 40.4014 34.2881 40.6014C33.0881 47.5347 31.8547 54.468 30.5881 61.4014C32.5881 59.7014 34.7881 58.2014 36.5881 56.5014C39.3881 53.6014 41.3881 49.1014 44.6881 47.0014C45.3881 46.5014 46.4881 46.9014 46.4881 47.8014C46.4881 52.1014 42.2881 56.3014 39.4881 59.1014C36.9881 61.5014 33.4881 64.8014 29.7881 65.6014C29.5881 66.7347 29.3881 67.8681 29.1881 69.0014C28.0881 75.1014 26.6881 81.2014 25.9881 87.4014C25.8881 87.9014 25.9881 88.4014 25.8881 89.0014C28.2881 87.7014 30.6881 86.5014 32.8881 85.1014C36.0881 83.1014 39.1881 79.8014 42.7881 78.6014C43.7881 78.3014 44.5881 79.4014 44.1881 80.3014C42.5881 84.0014 37.7881 86.6014 34.3881 88.5014C31.6881 90.1014 28.8881 91.6014 25.8881 92.4014C25.8881 95.5014 26.2881 98.5014 26.5881 101.501C34.1881 96.4014 42.5881 92.6014 49.1881 86.0014C57.3881 77.8014 60.8881 67.1014 59.7881 55.5014V55.5014Z" fill="#32594A"/>
</svg>
