<svg width="172" height="97" viewBox="0 0 172 97" fill="none" xmlns="http://www.w3.org/2000/svg">
<path fill-rule="evenodd" clip-rule="evenodd" d="M152.987 31.101C153.587 30.7677 154.254 30.4344 154.987 30.101C158.687 26.901 163.188 24.801 168.788 24.901C171.188 24.901 171.987 28.601 169.687 29.601C150.887 37.501 149.987 57.201 138.587 71.801C129.687 83.101 116.787 90.501 102.887 94.001C68.2875 102.901 35.6875 85.701 5.08745 71.601C4.42079 71.7344 3.75412 71.8344 3.08745 71.901C0.987452 72.201 -0.512573 69.701 1.18743 68.101C7.58743 62.001 14.5875 57.801 20.2875 50.701C25.2875 44.701 29.8875 38.301 35.0875 32.401C45.8875 20.101 58.8874 9.20103 74.5874 3.80103C103.387 -5.99897 133.787 9.20103 152.987 31.101ZM66.4875 14.201C51.4875 22.401 40.2875 35.301 30.0875 48.601C24.8875 55.301 18.4875 64.901 10.3875 69.401C24.9875 73.501 38.6875 80.901 53.2875 84.901C70.7875 89.901 89.9875 91.401 107.487 85.101C125.487 78.601 134.987 66.301 142.487 49.201C143.087 47.8677 143.754 46.501 144.487 45.101C136.887 48.301 127.988 49.801 120.288 51.101C120.588 57.301 118.887 63.101 115.487 68.301C112.787 72.401 107.787 78.601 102.487 78.401C101.387 78.401 100.887 77.201 101.387 76.301C102.687 74.301 104.687 73.301 106.487 71.701C108.487 70.0344 110.254 68.101 111.788 65.901C114.688 61.601 116.387 56.701 117.187 51.601C115.721 51.801 114.321 52.0344 112.987 52.301C100.721 54.5677 88.4208 56.7677 76.0874 58.901C76.0874 59.101 76.1874 59.201 76.1874 59.401C76.0874 60.101 76.0875 60.201 75.7875 60.701C75.6875 60.801 75.5875 60.901 75.4875 60.901C74.8875 61.901 74.4874 64.401 74.1874 65.101C73.4874 66.601 72.7875 68.201 71.8875 69.601C70.3875 71.901 68.0874 75.601 65.0874 75.901C63.8874 76.101 63.0875 75.101 63.2875 74.001C63.6875 72.401 64.8875 71.301 65.8875 70.101C67.0875 68.801 68.0875 67.201 68.9875 65.701C69.8875 64.101 70.3875 61.601 71.4875 59.701C65.6208 60.7677 59.7542 61.8344 53.8875 62.901L53.9875 63.001C54.4875 66.101 52.8875 72.301 48.7875 72.101C48.1875 72.101 47.7875 71.501 47.9875 70.901C48.3875 69.601 49.5875 68.801 50.3875 67.601C51.1875 66.301 51.6875 64.801 51.8875 63.201C48.8875 63.7344 45.8542 64.2677 42.7875 64.801C41.1875 65.101 40.6875 62.801 42.2875 62.401C46.6875 61.401 51.1208 60.401 55.5875 59.401C54.7875 59.001 53.9875 58.501 53.3875 58.201C51.0875 56.901 47.7874 54.801 47.6874 52.001C47.6874 51.301 48.3875 50.801 49.0875 50.801C51.4875 50.901 53.6874 53.501 55.6874 54.701C57.1874 55.701 59.7875 56.501 60.7875 58.201C71.1209 55.8677 81.4542 53.5344 91.7875 51.201C88.2875 49.401 84.8875 47.101 81.3875 45.701C75.7875 43.501 68.3875 43.401 63.4875 40.101C62.4875 39.401 62.3874 37.601 63.6874 37.101C69.4874 34.601 77.7875 37.901 83.2875 40.201C88.1875 42.201 94.6875 45.101 97.9875 49.701C99.7208 49.301 101.421 48.9344 103.087 48.601C112.187 46.501 121.388 44.801 130.288 42.101C131.088 41.901 131.887 41.601 132.587 41.301C129.487 38.801 126.487 36.201 123.187 33.901C118.487 30.701 112.087 28.401 108.387 24.101C107.387 22.901 108.287 21.101 109.887 21.101C115.887 21.201 122.287 26.301 126.987 29.801C130.787 32.601 134.487 35.701 137.487 39.401C141.687 37.401 145.587 35.101 149.587 32.901C137.987 25.501 127.887 16.201 114.887 10.901C98.6875 4.30103 81.7875 5.90103 66.4875 14.201V14.201Z" fill="#32594A"/>
</svg>
