<svg width="114" height="149" viewBox="0 0 114 149" fill="none" xmlns="http://www.w3.org/2000/svg">
<path fill-rule="evenodd" clip-rule="evenodd" d="M15.988 132.501C15.6546 133.167 15.3213 133.867 14.988 134.601C14.088 139.601 11.888 144.201 7.28796 147.801C5.38796 149.401 2.28797 146.901 3.48797 144.701C13.388 126.001 1.288 109.601 0.887999 90.4007C0.687999 75.5007 6.28797 61.1007 14.988 49.2007C37.088 19.4007 74.488 11.9007 108.288 3.30074C108.755 2.7674 109.221 2.2674 109.688 1.80074C111.288 0.100737 114.088 1.20074 113.788 3.60074C112.588 12.6007 109.788 20.6007 109.788 30.0007C109.688 38.1007 110.188 46.3007 109.888 54.4007C109.188 71.4007 105.888 88.6007 96.788 103.201C80.088 130.001 45.688 137.601 15.988 132.501ZM96.488 89.5007C103.188 73.2007 103.688 55.5007 103.288 38.1007C103.088 29.4007 101.988 17.5007 105.488 8.50074C91.088 14.8007 75.288 17.8007 60.888 24.1007C43.588 31.6007 27.088 42.9007 17.188 59.3007C6.98799 76.3007 7.38797 92.5007 12.488 111.101C12.888 112.634 13.288 114.167 13.688 115.701C17.588 108.201 23.788 101.101 29.188 95.1007C24.888 90.3007 22.388 84.5007 21.788 78.1007C21.288 73.1007 21.1879 64.8007 25.5879 61.5007C26.4879 60.8007 27.688 61.5007 27.788 62.5007C28.188 64.9007 27.188 67.1007 26.788 69.5007C26.2546 72.1674 26.088 74.8674 26.288 77.6007C26.688 83.0007 28.588 88.1007 31.288 92.7007C32.288 91.5007 33.288 90.4007 34.288 89.3007C42.688 79.5007 51.1213 69.7007 59.588 59.9007C59.388 59.8007 59.288 59.7007 59.188 59.6007C58.788 59.0007 58.688 58.9007 58.688 58.2007C58.588 58.1007 58.688 58.0007 58.788 57.9007C58.588 56.7007 57.288 54.5007 57.088 53.7007C56.588 52.0007 56.188 50.3007 55.988 48.6007C55.588 45.7007 55.088 41.3007 57.288 39.0007C58.188 38.1007 59.388 38.4007 59.988 39.5007C60.688 41.0007 60.488 42.6007 60.388 44.2007C60.388 46.1007 60.588 48.0007 60.888 49.8007C61.188 51.7007 62.388 54.1007 62.688 56.3007C66.7547 51.6341 70.788 46.9341 74.788 42.2007C74.788 42.2007 74.688 42.2007 74.588 42.2007C72.188 40.0007 69.488 34.0007 72.788 31.5007C73.288 31.1007 74.088 31.3007 74.288 31.9007C74.788 33.2007 74.388 34.7007 74.588 36.1007C74.688 37.7007 75.288 39.3007 76.188 40.7007C78.2547 38.2341 80.3546 35.8007 82.488 33.4007C83.588 32.1007 85.488 33.7007 84.488 35.0007C81.5546 38.7341 78.6213 42.4341 75.688 46.1007C76.688 45.9007 77.588 45.8007 78.288 45.6007C80.888 45.2007 84.988 44.7007 86.888 47.0007C87.388 47.5007 87.088 48.4007 86.588 48.8007C84.588 50.3007 81.088 49.7007 78.688 49.9007C76.888 50.1007 74.188 51.2007 72.388 50.5007C65.588 59.1007 58.8213 67.7341 52.088 76.4007C55.988 75.5007 60.188 75.2007 63.888 74.0007C69.788 72.1007 75.888 67.3007 81.988 66.8007C83.288 66.7007 84.488 68.1007 83.788 69.3007C80.688 75.2007 71.988 77.9007 65.988 79.7007C60.788 81.2007 53.588 83.2007 47.988 81.6007C46.8546 83.0007 45.7213 84.4341 44.588 85.9007C38.688 93.5007 32.388 100.901 26.888 108.801C26.488 109.601 26.0879 110.301 25.5879 111.001C29.7879 111.001 33.888 111.101 38.088 110.801C43.888 110.301 50.588 107.901 56.388 109.001C57.988 109.301 58.388 111.401 57.088 112.301C52.188 116.201 43.688 116.301 37.688 116.601C32.788 116.801 27.788 116.701 22.988 115.701C20.888 120.001 19.288 124.401 17.488 128.801C31.688 127.201 45.888 128.101 59.788 123.801C77.088 118.501 89.588 106.201 96.488 89.5007Z" fill="#32594A"/>
</svg>
