<svg width="115" height="126" viewBox="0 0 115 126" fill="none" xmlns="http://www.w3.org/2000/svg">
<path fill-rule="evenodd" clip-rule="evenodd" d="M13.7887 -23.6985C13.1221 -24.2318 12.4887 -24.7984 11.8887 -25.3984C6.88871 -28.1984 2.88864 -32.1985 0.688635 -38.2985C-0.311365 -40.8985 3.48871 -43.2985 5.38871 -41.1985C21.4887 -23.9985 43.1887 -30.9985 63.4887 -24.4985C79.2887 -19.3985 92.3887 -8.29845 101.789 5.20155C125.289 39.1016 119.789 81.2015 116.789 119.902C117.189 120.568 117.589 121.235 117.989 121.902C119.089 124.102 116.989 126.702 114.589 125.602C105.389 121.102 97.9886 115.202 88.1886 111.902C79.5886 108.902 70.8887 106.502 62.3887 103.202C44.7887 96.4016 27.7886 86.8015 15.6886 72.0015C-6.51137 44.8015 -2.31127 5.80155 13.7887 -23.6985V-23.6985ZM30.1886 76.6015C44.9886 89.5015 63.4887 96.4015 81.8887 102.102C91.1887 105.002 104.189 108.102 112.289 115.002C110.889 97.6016 113.289 79.9015 111.889 62.5015C110.189 41.5015 104.189 20.2015 90.3887 3.90155C76.0887 -12.9984 58.9887 -18.2984 37.4887 -19.5984C35.7554 -19.7318 34.0221 -19.8984 32.2887 -20.0984C38.6887 -13.1984 43.9887 -4.19845 48.3887 3.60155C54.9887 0.801551 61.9887 0.30155 68.9887 1.90155C74.4887 3.20155 83.1887 6.10155 85.0887 11.9016C85.4887 13.1016 84.3886 14.1016 83.1886 13.9016C80.5886 13.4016 78.5887 11.6015 76.2887 10.3015C73.5887 8.80155 70.7887 7.60155 67.8887 6.90155C62.0887 5.40155 55.9886 5.60155 50.1886 6.80155C50.9886 8.30155 51.8886 9.70155 52.6886 11.1015C60.022 23.4349 67.322 35.8349 74.5887 48.3016C74.7887 48.2016 74.8887 48.0015 75.0887 48.0015C75.8887 47.8015 75.9886 47.7016 76.6886 47.9016C76.8886 47.9016 76.9887 48.0015 77.0887 48.1015C78.2887 48.4015 81.1887 47.8016 82.0887 47.9016C83.9887 47.9016 85.8887 48.1015 87.7887 48.5015C90.9887 49.2015 95.8887 50.3016 97.3887 53.4016C98.0887 54.6016 97.3887 55.8015 95.9887 56.0015C94.1887 56.3015 92.4887 55.4016 90.7887 54.8016C88.8887 54.1016 86.7887 53.6016 84.7887 53.3016C82.6887 52.9016 79.7887 53.3016 77.2887 52.9016C80.8221 58.8349 84.3221 64.7682 87.7887 70.7015C87.8887 70.6015 87.8887 70.6015 87.8887 70.5015C91.0887 68.7015 98.3887 68.0016 99.8887 72.4016C100.089 73.1016 99.4887 73.8015 98.8887 73.8015C97.2887 73.9015 95.8887 72.9015 94.3887 72.6015C92.5887 72.2015 90.6887 72.3015 88.8887 72.7015C90.7554 75.7682 92.5887 78.8349 94.3887 81.9016C95.2887 83.5016 92.9887 84.9016 91.9887 83.4016C89.122 79.0016 86.2221 74.6015 83.2887 70.2015C83.2887 71.3015 83.0887 72.3015 82.9887 73.1015C82.4887 76.0015 81.5887 80.5015 78.4887 81.7015C77.6887 82.0015 76.8886 81.4015 76.6886 80.7015C75.7886 78.1015 77.6887 74.6015 78.2887 72.0015C78.6887 70.0015 78.5887 66.9015 79.9887 65.1015C73.322 54.9015 66.6554 44.7015 59.9887 34.5015C59.3887 38.9015 58.2886 43.5016 58.1886 47.8016C58.0886 54.7016 60.9887 62.8016 59.2887 69.4016C58.8887 70.8016 57.0887 71.6015 55.9887 70.5015C50.9887 65.1015 51.1887 54.9015 51.4887 48.0015C51.6887 41.9015 52.1887 33.7016 55.8887 28.3016C54.822 26.5682 53.722 24.8682 52.5887 23.2015C46.6887 14.2015 41.1886 5.00155 34.6886 -3.59845C34.1886 -4.39845 33.4887 -5.09845 32.8887 -5.79845C31.4887 -1.39845 29.8886 2.90155 28.6886 7.40155C27.0886 13.7016 27.1887 21.6016 23.9887 27.3016C23.0887 28.9016 20.7886 28.6016 20.1886 26.9016C17.8886 20.4016 20.8887 11.4016 22.7887 4.90155C24.2887 -0.29845 26.0887 -5.49845 28.8887 -10.1985C25.0887 -13.9985 21.0887 -17.2985 17.0887 -20.6985C13.6887 -5.19845 7.68864 9.50155 7.18864 25.6015C6.58864 45.7015 15.0886 63.4015 30.1886 76.6015V76.6015Z" fill="#32594A"/>
</svg>
