<svg width="104" height="135" viewBox="0 0 104 135" fill="none" xmlns="http://www.w3.org/2000/svg">
<path fill-rule="evenodd" clip-rule="evenodd" d="M14.3879 120.001C14.1213 120.601 13.8545 121.235 13.5879 121.901C12.7879 126.501 10.6879 130.701 6.58787 133.901C4.78787 135.401 1.98787 133.101 3.08787 131.101C12.1879 114.101 1.08794 99.2013 0.787945 81.8013C0.487945 68.2013 5.58787 55.1013 13.5879 44.3013C33.5879 17.2013 67.6879 10.5013 98.3879 2.60131C98.7879 2.13465 99.1879 1.66799 99.5879 1.20132C101.088 -0.298681 103.588 0.701331 103.288 2.90133C102.288 11.1013 99.6879 18.3013 99.6879 26.9013C99.6879 34.3013 100.088 41.7013 99.7879 49.1013C99.1879 64.5013 96.1879 80.1013 87.8879 93.4013C72.6879 117.701 41.4879 124.601 14.3879 120.001ZM87.5879 81.0013C93.6879 66.1013 94.1879 50.0013 93.7879 34.2013C93.5879 26.3013 92.5879 15.5013 95.7879 7.40133C82.6879 13.0013 68.3879 15.8013 55.2879 21.5013C39.4879 28.3013 24.5879 38.6013 15.5879 53.5013C6.28787 69.0013 6.68794 83.6013 11.2879 100.601C11.6879 101.935 12.0546 103.301 12.3879 104.701C15.8879 97.9013 21.5879 91.5013 26.4879 86.0013C22.4879 81.7013 20.2878 76.4013 19.6878 70.6013C19.2878 66.0013 19.1878 58.5013 23.1878 55.5013C23.9878 54.8013 25.0878 55.5013 25.1878 56.4013C25.5878 58.6013 24.5878 60.6013 24.1878 62.7013C23.7878 65.168 23.6879 67.6346 23.8879 70.1013C24.1879 75.0013 25.8879 79.6013 28.3879 83.8013C29.3213 82.8013 30.2212 81.8013 31.0879 80.8013C38.6879 71.868 46.3545 62.9346 54.0879 54.0013C53.8879 53.9013 53.7878 53.9013 53.6878 53.7013C53.3878 53.2013 53.2878 53.1013 53.1878 52.5013C53.1878 52.368 53.2213 52.268 53.2879 52.2013C53.1879 51.2013 51.9879 49.1013 51.7879 48.4013C51.3879 46.9013 50.9879 45.3013 50.7879 43.8013C50.4879 41.2013 49.9879 37.1013 51.9879 35.1013C52.7879 34.2013 53.8879 34.5013 54.3879 35.5013C55.0879 36.8013 54.8879 38.3013 54.8879 39.8013C54.7879 41.5013 54.9878 43.2013 55.1878 44.9013C55.4878 46.6013 56.5879 48.7013 56.8879 50.7013C60.5546 46.5013 64.2546 42.268 67.9879 38.0013C67.8879 37.9013 67.7879 38.0013 67.7879 37.9013C65.4879 36.0013 63.0879 30.5013 66.0879 28.2013C66.5879 27.8013 67.2879 28.1013 67.4879 28.6013C67.8879 29.8013 67.5879 31.1013 67.6879 32.4013C67.7879 33.9013 68.3879 35.3013 69.1879 36.6013C71.0545 34.4013 72.9546 32.168 74.8879 29.9013C75.8879 28.8013 77.5879 30.2013 76.6879 31.4013C74.0212 34.8013 71.3879 38.168 68.7879 41.5013C69.5879 41.3013 70.3879 41.2013 71.0879 41.1013C73.4879 40.7013 77.1879 40.2013 78.8879 42.3013C79.2879 42.8013 79.0879 43.6013 78.5879 43.9013C76.7879 45.3013 73.5879 44.7013 71.4879 45.0013C69.7879 45.2013 67.3879 46.1013 65.6879 45.5013C59.5545 53.3013 53.3878 61.1346 47.1878 69.0013C50.7878 68.2013 54.5879 67.9013 57.9879 66.8013C63.3879 65.1013 68.8879 60.8013 74.4879 60.3013C75.5879 60.2013 76.6879 61.5013 76.0879 62.6013C73.2879 67.9013 65.2879 70.4013 59.8879 72.0013C55.0879 73.4013 48.6879 75.2013 43.4879 73.8013C42.4879 75.068 41.4879 76.368 40.4879 77.7013C35.0879 84.5013 29.3879 91.3013 24.3879 98.5013C23.9879 99.2013 23.5878 99.8013 23.1878 100.501C26.9878 100.401 30.7879 100.501 34.4879 100.301C39.8879 99.9013 45.8879 97.7013 51.0879 98.7013C52.5879 99.0013 52.9879 100.801 51.8879 101.701C47.3879 105.201 39.6878 105.301 34.1878 105.501C29.6878 105.701 25.1879 105.701 20.8879 104.801C18.9879 108.701 17.4879 112.701 15.7879 116.701C28.6879 115.201 41.6879 116.001 54.2879 112.101C69.9879 107.301 81.3879 96.1013 87.5879 81.0013V81.0013Z" fill="#32594A"/>
</svg>
