<svg width="190" height="110" viewBox="0 0 190 110" fill="none" xmlns="http://www.w3.org/2000/svg">
<path fill-rule="evenodd" clip-rule="evenodd" d="M169.888 74.4015C170.754 74.4682 171.588 74.5349 172.388 74.6015C177.888 73.6015 183.388 74.2015 188.788 77.5015C191.088 78.9015 189.688 83.0015 186.988 82.6015C164.188 79.4015 151.987 97.9015 132.587 105.302C117.487 111.102 100.688 110.702 85.2876 106.102C46.7876 94.6015 25.2875 59.2015 3.98751 27.9015C3.25418 27.7015 2.5542 27.4349 1.88753 27.1015C-0.412466 26.1015 -0.312539 22.8015 2.18746 22.2015C11.8875 20.0015 21.0875 20.0015 30.6875 16.6015C38.9875 13.6015 47.0875 10.1015 55.5875 7.40155C73.0875 1.80155 91.8875 -1.19845 110.187 2.70155C143.687 9.90155 164.188 42.1015 169.888 74.4015V74.4015ZM96.2876 8.10155C77.1876 7.20155 58.8876 13.3015 41.2876 20.2015C32.4876 23.6015 20.7875 29.2015 10.3875 28.9015C21.9875 41.3015 30.9875 56.2015 42.6875 68.6015C56.7875 83.5015 74.3876 96.1015 94.7876 100.102C115.988 104.302 132.288 97.9015 149.388 85.8015C150.788 84.8015 152.221 83.8349 153.687 82.9015C144.587 81.7015 135.088 78.0015 126.888 74.7015C123.588 80.9015 118.588 85.5015 112.288 88.6015C107.388 90.9015 98.9875 94.1015 93.8875 90.8015C92.8875 90.2015 93.0875 88.7015 94.0875 88.1015C96.4875 86.9015 99.0875 87.1015 101.687 86.7015C104.587 86.2015 107.387 85.3015 110.087 84.1015C115.487 81.7015 119.887 77.9015 123.687 73.4015C122.087 72.8015 120.587 72.2015 119.187 71.7015C105.987 66.7015 92.8542 61.7015 79.7876 56.7015C79.6876 56.9015 79.6875 57.1015 79.4875 57.3015C79.0875 57.8015 78.9875 58.0015 78.3875 58.3015C78.1875 58.3015 78.0875 58.3015 77.9875 58.3015C76.8875 58.9015 74.9876 61.0015 74.2876 61.6015C72.7876 62.7015 71.1875 63.7015 69.5875 64.6015C66.7875 66.0015 62.3876 68.1015 59.2876 66.8015C57.9876 66.2015 57.7875 64.8015 58.6875 63.9015C59.9875 62.5015 61.7875 62.2015 63.4875 61.6015C65.3875 61.0015 67.1875 60.1015 68.9875 59.1015C70.7875 58.1015 72.7875 56.0015 74.8875 54.9015C68.6209 52.5015 62.3542 50.1015 56.0875 47.7015C55.9875 47.8015 56.0875 47.8015 56.0875 47.9015C54.7875 51.2015 49.5876 56.2015 45.7876 53.7015C45.1876 53.3015 45.1875 52.5015 45.6875 52.1015C46.8875 51.1015 48.4875 50.9015 49.8875 50.2015C51.4875 49.5015 52.8875 48.3015 53.9875 46.9015C50.7208 45.6349 47.4541 44.4015 44.1875 43.2015C42.4875 42.5015 43.3875 40.0015 45.0875 40.5015C49.9542 42.1015 54.8208 43.7015 59.6875 45.3015C59.0875 44.4015 58.5876 43.6015 58.2876 42.9015C56.7876 40.4015 54.7875 36.4015 56.3875 33.6015C56.7875 32.9015 57.7875 32.9015 58.3875 33.3015C60.5875 34.7015 61.2875 38.6015 62.4875 40.9015C63.3875 42.7015 65.3875 45.0015 65.3875 47.2015C76.7209 50.8682 88.0209 54.5682 99.2876 58.3015C96.9876 54.6015 95.0875 50.4015 92.4875 47.1015C88.3875 41.7015 81.2875 37.3015 78.4875 31.2015C77.9875 30.0015 78.8875 28.3015 80.3875 28.5015C87.4875 29.5015 93.4875 37.4015 97.4875 42.8015C101.088 47.6015 105.687 54.2015 106.187 60.5015C108.054 61.1015 109.921 61.7349 111.788 62.4015C121.688 65.6015 131.588 69.3015 141.788 71.9015C142.688 72.1015 143.488 72.3015 144.388 72.4015C142.888 68.2015 141.387 63.9015 139.587 59.8015C136.987 54.0015 132.087 48.1015 131.087 41.8015C130.787 40.1015 132.687 38.9015 134.187 39.8015C139.987 43.4015 143.187 52.0015 145.587 58.1015C147.687 63.0015 149.488 68.1015 150.288 73.4015C155.388 73.9015 160.487 74.0015 165.687 74.1015C158.787 60.3015 154.388 45.4015 144.888 32.9015C133.088 17.2015 115.888 8.90155 96.2876 8.10155V8.10155Z" fill="#32594A"/>
</svg>
