<svg width="108" height="113" viewBox="0 0 108 113" fill="none" xmlns="http://www.w3.org/2000/svg">
<path fill-rule="evenodd" clip-rule="evenodd" d="M11.888 12.7015C11.3546 12.3682 10.8213 12.0015 10.288 11.6015C6.188 10.1015 2.68797 7.60151 0.387974 3.30151C-0.712026 1.40151 1.88793 -0.798507 3.58793 0.501493C17.6879 11.5015 33.0879 3.70151 49.0879 6.20151C61.5879 8.10151 72.788 14.9015 81.388 23.9015C103.088 46.5015 103.888 78.8015 106.188 108.202C106.588 108.602 106.988 109.035 107.388 109.501C108.488 111.101 107.188 113.302 105.188 112.702C97.8879 110.402 91.588 106.901 83.788 105.501C76.988 104.401 70.1879 103.602 63.4879 102.102C49.3879 99.1015 35.4879 93.9015 24.6879 84.2015C4.7879 66.4015 3.38797 36.7015 11.888 12.7015ZM36.0879 86.0015C48.6879 93.9015 63.488 96.8015 77.988 99.0015C85.288 100.101 95.388 100.801 102.288 105.001C99.188 92.2015 98.888 78.6015 95.788 65.7015C91.988 50.2015 84.9879 34.8015 72.6879 24.3015C59.9879 13.3015 46.4879 11.3015 30.1879 12.9015C28.9212 13.0349 27.5879 13.1348 26.1879 13.2015C31.8879 17.6015 36.8879 23.7015 41.1879 29.1015C45.6879 26.2015 50.988 25.0015 56.388 25.4015C60.588 25.6015 67.4879 26.8015 69.6879 30.9015C70.0879 31.7015 69.388 32.7015 68.488 32.6015C66.388 32.6015 64.788 31.4015 62.888 30.7015C60.688 29.9015 58.4213 29.4015 56.0879 29.2015C51.5879 28.8015 47.088 29.6015 42.888 31.2015C43.688 32.2015 44.4546 33.1682 45.1879 34.1015C52.1879 42.5015 59.1546 50.9348 66.0879 59.4015C66.1879 59.3015 66.288 59.2015 66.488 59.1015C66.988 58.9015 67.0879 58.9015 67.5879 58.9015C67.7213 58.9015 67.8213 58.9682 67.888 59.1015C68.888 59.1015 70.9879 58.4015 71.6879 58.3015C73.0879 58.1015 74.588 58.0015 75.988 58.1015C78.488 58.2015 82.288 58.4015 83.788 60.6015C84.488 61.4015 84.0879 62.4015 83.0879 62.7015C81.6879 63.1015 80.388 62.7015 78.988 62.4015C77.488 62.1015 75.888 62.0015 74.288 62.0015C72.688 62.0015 70.5879 62.6015 68.6879 62.6015C72.0212 66.6015 75.3546 70.6348 78.6879 74.7015V74.6015C80.8879 72.8015 86.288 71.4015 87.888 74.6015C88.088 75.1015 87.788 75.6015 87.288 75.7015C86.188 76.0015 84.988 75.4015 83.788 75.4015C82.388 75.3015 80.988 75.5015 79.788 76.0015C81.4547 78.1348 83.1546 80.2348 84.888 82.3015C85.788 83.4015 84.188 84.8015 83.288 83.8015C80.6213 80.8015 77.9547 77.8349 75.288 74.9015C75.288 75.7015 75.288 76.5015 75.288 77.1015C75.288 79.3015 75.188 82.8015 72.988 84.1015C72.388 84.4015 71.788 84.0015 71.488 83.5015C70.488 81.7015 71.5879 78.8015 71.6879 76.8015C71.7879 75.2015 71.2879 72.9015 72.0879 71.4015C65.8879 64.5349 59.6879 57.6682 53.4879 50.8015C53.5879 54.2015 53.288 57.8015 53.788 61.0015C54.488 66.2015 57.5879 72.0015 57.0879 77.2015C56.9879 78.2015 55.688 79.0015 54.788 78.3015C50.388 74.9015 49.2879 67.2015 48.6879 62.0015C48.1879 57.4015 47.5879 51.1015 49.6879 46.7015C48.6879 45.5682 47.6546 44.4015 46.5879 43.2015C41.1879 37.2015 35.8879 30.9015 29.9879 25.2015C29.4879 24.7015 28.988 24.3015 28.388 23.8015C27.888 27.3015 27.188 30.7015 26.788 34.2015C26.388 39.2015 27.3879 45.1015 25.6879 49.7015C25.1879 51.0015 23.388 51.1015 22.788 49.9015C20.188 45.2015 21.3879 38.1015 22.0879 33.1015C22.5879 29.0015 23.388 24.8015 24.788 21.0015C21.588 18.6015 18.1879 16.6015 14.6879 14.5015C13.9879 26.5015 11.288 38.3015 12.788 50.4015C14.788 65.6015 23.1879 77.8015 36.0879 86.0015V86.0015Z" fill="#32594A"/>
</svg>
