<svg width="146" height="95" viewBox="0 0 146 95" fill="none" xmlns="http://www.w3.org/2000/svg">
<path fill-rule="evenodd" clip-rule="evenodd" d="M16.187 80.0015C15.6537 80.4682 15.1203 80.9349 14.587 81.4016C12.087 85.2016 8.48702 88.3015 3.38702 89.6015C1.18702 90.2015 -0.412983 87.0015 1.38702 85.6015C16.487 73.6015 12.387 55.5015 19.087 39.5015C24.287 27.0015 34.187 17.1015 45.887 10.4015C75.087 -6.39847 108.987 1.10154 140.287 6.30154C140.82 5.96821 141.387 5.70154 141.987 5.50154C143.887 4.70154 145.787 6.60154 144.687 8.50154C140.387 15.6015 135.087 21.2015 131.687 29.0015C128.687 35.8015 126.087 42.7015 122.887 49.4015C116.087 63.2015 107.087 76.4015 94.187 85.2015C70.487 101.302 39.087 95.1015 16.187 80.0015V80.0015ZM98.887 73.7015C110.487 62.6015 117.387 48.0015 123.387 33.4015C126.387 26.1015 129.787 15.7015 135.987 9.60153C121.687 9.50153 107.487 6.30154 93.187 6.20154C75.987 6.10154 58.187 9.50153 43.987 19.6015C29.287 30.0015 23.687 43.6015 21.187 60.9015C20.9203 62.3015 20.6537 63.7349 20.387 65.2015C26.487 60.4015 34.187 56.8015 40.887 53.7015C38.987 48.2015 39.087 42.4015 40.887 36.9015C42.287 32.5015 45.287 25.6015 50.187 24.4015C51.187 24.2015 51.887 25.2015 51.687 26.1015C51.087 28.2015 49.387 29.7015 48.187 31.5015C46.787 33.5682 45.687 35.7682 44.887 38.1015C43.287 42.8015 42.987 47.7015 43.487 52.5015C44.8203 51.9015 46.0537 51.3349 47.187 50.8015C57.787 45.6682 68.387 40.5682 78.987 35.5015C78.887 35.4015 78.787 35.3015 78.787 35.1015C78.687 34.5015 78.687 34.4015 78.887 33.8015C78.887 33.6682 78.9536 33.5682 79.087 33.5015C79.387 32.6015 79.087 30.2015 79.187 29.5015C79.387 27.9015 79.687 26.3015 80.087 24.8015C80.887 22.3015 82.087 18.4015 84.787 17.3015C85.787 16.9015 86.787 17.6015 86.787 18.7015C86.887 20.2015 86.087 21.5015 85.387 22.8015C84.687 24.4015 84.187 26.0015 83.787 27.6015C83.287 29.3015 83.487 31.7015 82.987 33.7015C88.0537 31.2349 93.1203 28.8015 98.187 26.4015C98.087 26.3015 98.087 26.3015 97.987 26.3015C96.787 23.6015 96.687 17.6015 100.487 16.7015C100.987 16.6015 101.487 17.1015 101.487 17.6015C101.387 18.9015 100.587 20.0015 100.187 21.2015C99.687 22.6015 99.687 24.1015 99.887 25.6015C102.487 24.3349 105.12 23.0682 107.787 21.8015C109.087 21.2015 110.087 23.2015 108.787 23.9015C104.987 25.9015 101.22 27.9349 97.487 30.0015C98.287 30.1015 99.187 30.3015 99.787 30.5015C102.187 31.1015 105.687 32.1015 106.487 34.7015C106.687 35.4015 106.087 36.0015 105.587 36.1015C103.387 36.7015 100.687 34.9015 98.587 34.2015C96.987 33.7015 94.387 33.6015 93.087 32.3015C84.287 37.0349 75.487 41.7682 66.687 46.5015C70.287 47.2015 73.987 48.4015 77.487 48.8015C83.087 49.5015 89.887 47.7015 95.187 49.5015C96.187 49.9015 96.687 51.5015 95.787 52.2015C90.987 56.0015 82.787 55.1015 77.187 54.3015C72.187 53.7015 65.487 52.7015 61.387 49.3015C59.987 50.1015 58.5536 50.9015 57.087 51.7015C49.287 55.8015 41.387 59.7015 33.987 64.3015C33.287 64.7015 32.687 65.2015 32.087 65.7015C35.587 67.1015 38.987 68.7015 42.587 70.0015C47.587 71.8015 53.987 72.2015 58.387 75.2015C59.587 76.1015 59.187 77.9015 57.787 78.3015C52.287 79.7015 45.187 76.7015 40.087 74.7015C35.987 73.1015 31.887 71.2015 28.187 68.6015C24.887 71.5015 21.887 74.5015 18.787 77.5015C31.187 81.4015 42.687 87.3015 55.787 88.8015C72.187 90.7015 87.087 85.1015 98.887 73.7015V73.7015Z" fill="#32594A"/>
</svg>
