<svg width="146" height="95" viewBox="0 0 146 95" fill="none" xmlns="http://www.w3.org/2000/svg">
<path fill-rule="evenodd" clip-rule="evenodd" d="M16.3883 80.2008C15.9217 80.6674 15.4217 81.1341 14.8883 81.6008C12.2883 85.5008 8.68827 88.5008 3.68827 89.9008C1.48827 90.4008 -0.211705 87.2008 1.5883 85.8008C16.6883 73.9008 12.5884 55.8008 19.2884 39.7008C24.4884 27.3008 34.3883 17.3008 46.0883 10.6008C75.2883 -6.09923 109.188 1.30077 140.488 6.50077C141.022 6.16743 141.588 5.90078 142.188 5.70078C144.088 4.90078 146.088 6.80078 144.888 8.70078C140.688 15.8008 135.388 21.4008 131.888 29.2008C128.888 36.0008 126.388 42.9008 123.088 49.6008C116.288 63.4008 107.288 76.6008 94.3883 85.4008C70.6883 101.501 39.2883 95.3008 16.3883 80.2008V80.2008ZM99.1883 73.9008C110.688 62.8008 117.588 48.2008 123.588 33.6008C126.588 26.3008 129.988 15.9008 136.188 9.80078C121.888 9.70078 107.688 6.50079 93.3883 6.40079C76.2883 6.40079 58.4883 9.80078 44.1883 19.8008C29.4883 30.3008 23.9883 43.8008 21.3883 61.2008C21.1883 62.6008 20.9549 64.0008 20.6883 65.4008C26.6883 60.6008 34.3883 57.0008 41.0883 53.9008C39.2883 48.4008 39.3883 42.6008 41.1883 37.1008C42.5883 32.7008 45.4883 25.8008 50.3883 24.7008C51.3883 24.4008 52.1883 25.4008 51.8883 26.3008C51.2883 28.5008 49.6883 29.9008 48.3883 31.7008C46.9883 33.7674 45.8883 36.0008 45.0883 38.4008C43.4883 43.0008 43.1884 47.9008 43.7884 52.7008C45.055 52.1008 46.255 51.5341 47.3883 51.0008C57.9883 45.8674 68.5883 40.8008 79.1883 35.8008C79.1883 35.6008 79.0883 35.5008 78.9883 35.3008C78.8883 34.7008 78.8883 34.6008 79.0883 34.1008C79.155 33.9674 79.2217 33.8675 79.2884 33.8008C79.5884 32.8008 79.3883 30.4008 79.3883 29.7008C79.5883 28.1008 79.8883 26.6008 80.3883 25.0008C81.0883 22.5008 82.3883 18.6008 84.9883 17.6008C85.9883 17.1008 86.9883 17.8008 86.9883 18.9008C87.0883 20.4008 86.2883 21.7008 85.6883 23.1008C84.9883 24.6008 84.3883 26.2008 83.9883 27.8008C83.5883 29.5008 83.6883 31.9008 83.1883 33.9008C88.2549 31.5008 93.3217 29.0674 98.3883 26.6008C98.3883 26.6008 98.2884 26.6008 98.2884 26.5008C96.9884 23.8008 96.8883 17.8008 100.688 16.9008C101.188 16.8008 101.788 17.3008 101.688 17.8008C101.688 19.1008 100.788 20.2008 100.388 21.4008C99.9883 22.8008 99.8883 24.4008 100.088 25.8008C102.688 24.6008 105.322 23.3674 107.988 22.1008C109.288 21.4008 110.388 23.4008 108.988 24.1008C105.255 26.1674 101.488 28.2008 97.6883 30.2008C98.5883 30.4008 99.3883 30.6008 100.088 30.7008C102.388 31.3008 105.988 32.4008 106.688 35.0008C106.888 35.6008 106.388 36.2008 105.788 36.4008C103.588 36.9008 100.888 35.1008 98.7884 34.5008C97.1884 34.0008 94.5884 33.9008 93.2884 32.6008C84.555 37.3341 75.7883 42.0341 66.9883 46.7008C70.5883 47.5008 74.1883 48.7008 77.6883 49.1008C83.2883 49.7008 90.0883 47.9008 95.3883 49.7008C96.4883 50.1008 96.9883 51.7008 95.9883 52.5008C91.2883 56.2008 82.9883 55.3008 77.3883 54.6008C72.3883 54.0008 65.7883 53.0008 61.6883 49.6008C60.2216 50.4008 58.755 51.1675 57.2884 51.9008C49.5884 56.1008 41.6883 59.9008 34.1883 64.6008C33.5883 65.0008 32.9883 65.5008 32.3883 65.9008C35.7883 67.4008 39.1884 69.0008 42.7884 70.2008C47.7884 72.0008 54.1883 72.5008 58.5883 75.5008C59.8883 76.3008 59.4883 78.1008 58.0883 78.5008C52.4883 80.0008 45.3883 76.9008 40.3883 74.9008C36.1883 73.3008 32.0883 71.4008 28.3883 68.9008C25.0883 71.7008 22.1883 74.7008 19.0883 77.8008C31.3883 81.6008 42.9883 87.5008 56.0883 89.0008C72.3883 91.0008 87.2883 85.3008 99.1883 73.9008V73.9008Z" fill="#32594A"/>
</svg>
