<svg width="149" height="94" viewBox="0 0 149 94" fill="none" xmlns="http://www.w3.org/2000/svg">
<path fill-rule="evenodd" clip-rule="evenodd" d="M16.4882 77.1014C15.9548 77.5681 15.3882 78.0347 14.7882 78.5014C12.0882 82.2014 8.38815 85.1014 3.28815 86.2014C0.988154 86.7014 -0.511809 83.4014 1.38819 82.1014C16.9882 70.8014 13.6881 52.6014 21.0881 36.8014C26.8881 24.6014 37.2882 15.1014 49.1882 9.00138C79.1882 -6.49862 112.688 2.50138 143.688 9.10138C144.222 8.83472 144.788 8.60138 145.388 8.40138C147.388 7.70138 149.288 9.70138 147.988 11.5014C143.488 18.4014 137.888 23.8014 134.088 31.4014C130.788 38.0014 127.888 44.8014 124.388 51.4014C116.988 64.9014 107.388 77.6014 94.0881 85.8014C69.6881 100.901 38.5882 93.3014 16.4882 77.1014V77.1014ZM99.3882 74.6014C111.388 64.0014 118.888 49.7014 125.588 35.4014C128.888 28.2014 132.788 18.1014 139.288 12.2014C124.988 11.5014 110.888 7.60138 96.6882 6.90138C79.5882 6.10138 61.5882 8.60138 46.8882 18.1014C31.7882 27.8014 25.5882 41.1014 22.2882 58.3014C22.0215 59.7014 21.7215 61.1347 21.3882 62.6014C27.5882 58.0014 35.4882 54.8014 42.2882 52.0014C40.6882 46.4014 41.0881 40.6014 43.0881 35.2014C44.6881 30.9014 47.9882 24.1014 52.8882 23.2014C53.8882 23.0014 54.5882 24.0014 54.2882 24.9014C53.5882 27.0014 51.8881 28.4014 50.5881 30.2014C49.1215 32.2014 47.9215 34.3347 46.9882 36.6014C45.1882 41.2014 44.5882 46.1014 44.9882 50.9014C46.3215 50.368 47.5548 49.868 48.6882 49.4014C59.4882 44.7347 70.3215 40.1347 81.1882 35.6014C81.0882 35.4014 80.9882 35.3014 80.9882 35.1014C80.8882 34.5014 80.8881 34.4014 81.0881 33.9014C81.1548 33.768 81.2549 33.668 81.3882 33.6014C81.6882 32.6014 81.5882 30.2014 81.6882 29.5014C81.8882 28.0014 82.2882 26.4014 82.7882 24.9014C83.6882 22.4014 85.0882 18.6014 87.7882 17.6014C88.7882 17.3014 89.7882 18.0014 89.7882 19.1014C89.7882 20.6014 88.8882 21.8014 88.1882 23.2014C87.3882 24.7014 86.7882 26.3014 86.2882 27.9014C85.7882 29.5014 85.7882 31.9014 85.1882 33.9014C90.3882 31.7014 95.5882 29.5014 100.788 27.3014C100.688 27.3014 100.688 27.2014 100.588 27.2014C99.4881 24.4014 99.6882 18.4014 103.488 17.7014C103.988 17.6014 104.488 18.1014 104.488 18.7014C104.288 20.0014 103.388 21.0014 102.988 22.2014C102.488 23.6014 102.388 25.1014 102.488 26.6014C105.155 25.468 107.822 24.3347 110.488 23.2014C111.888 22.6014 112.888 24.7014 111.488 25.3014C107.622 27.1681 103.755 29.0347 99.8882 30.9014C100.788 31.1014 101.588 31.3014 102.188 31.5014C104.488 32.2014 108.088 33.4014 108.688 36.0014C108.788 36.7014 108.288 37.3014 107.688 37.4014C105.488 37.8014 102.888 35.9014 100.788 35.2014C99.1882 34.6014 96.6882 34.4014 95.3882 33.0014C86.3882 37.3347 77.4215 41.668 68.4882 46.0014C71.9882 46.9014 75.5881 48.2014 79.0881 48.8014C84.5881 49.7014 91.4882 48.2014 96.6882 50.3014C97.7882 50.7014 98.1882 52.3014 97.1882 53.0014C92.2882 56.5014 84.0882 55.2014 78.4882 54.3014C73.5882 53.4014 66.9882 52.2014 62.9882 48.6014C61.5215 49.3347 60.0548 50.0347 58.5881 50.7014C50.5881 54.5014 42.5882 58.0014 34.8882 62.3014C34.1882 62.7014 33.5882 63.1014 32.9882 63.5014C36.3882 65.2014 39.6882 66.9014 43.1882 68.4014C48.1882 70.4014 54.5882 71.1014 58.7882 74.3014C59.9882 75.2014 59.4881 77.0014 58.0881 77.3014C52.4881 78.5014 45.5881 75.1014 40.5881 72.9014C36.4881 71.1014 32.4882 69.1014 28.9882 66.4014C25.4882 69.0014 22.3882 71.9014 19.1882 74.8014C31.3882 79.2014 42.5881 85.6014 55.5881 87.8014C71.8881 90.4014 87.0882 85.4014 99.3882 74.6014V74.6014Z" fill="#32594A"/>
</svg>
