<svg width="87" height="159" viewBox="0 0 87 159" fill="none" xmlns="http://www.w3.org/2000/svg">
<path fill-rule="evenodd" clip-rule="evenodd" d="M51.1879 16.901C51.1879 16.2343 51.1546 15.5676 51.088 14.901C49.788 10.601 49.5879 6.10095 51.6879 1.50095C52.5879 -0.599047 55.988 0.100971 55.988 2.30097C55.788 20.901 71.888 28.701 79.988 43.501C86.188 54.901 87.6879 68.401 85.6879 81.201C80.6879 113.301 54.588 134.301 31.788 154.701C31.7214 155.301 31.588 155.901 31.388 156.501C30.788 158.401 28.188 158.701 27.488 156.701C24.688 149.201 23.688 141.901 19.888 134.601C16.588 128.201 12.888 122.101 9.88801 115.601C3.58801 102.201 -0.911962 87.501 0.288038 72.401C2.38804 44.801 25.9879 25.001 51.1879 16.901V16.901ZM5.98799 82.901C7.38799 98.301 14.288 112.301 21.588 125.601C25.288 132.301 30.988 141.101 31.888 149.501C40.588 138.801 51.588 130.101 60.288 119.401C70.688 106.501 78.888 91.001 79.888 74.201C80.888 56.901 74.088 44.501 62.588 32.101C61.6546 31.101 60.7214 30.0676 59.788 29.001C59.788 36.401 57.788 44.4009 56.088 51.3009C61.388 53.3009 65.688 56.801 68.788 61.501C71.188 65.201 74.588 71.601 72.488 76.001C72.088 76.901 70.888 76.801 70.388 76.101C69.088 74.301 68.988 72.301 68.388 70.201C67.6547 67.9343 66.6547 65.7676 65.388 63.701C62.888 59.701 59.388 56.501 55.388 54.001C55.0547 55.3343 54.7547 56.6009 54.488 57.8009C51.9547 68.8676 49.388 79.9343 46.788 91.001C46.888 91.001 47.0879 91.001 47.1879 91.101C47.6879 91.401 47.8879 91.401 48.1879 91.901C48.1879 92.0343 48.1879 92.1343 48.1879 92.201C48.7879 93.101 50.6879 94.3009 51.1879 94.8009C52.2879 95.9009 53.2879 97.1009 54.1879 98.3009C55.5879 100.401 57.788 103.701 56.988 106.301C56.688 107.301 55.5879 107.701 54.6879 107.001C53.5879 106.201 53.088 104.801 52.388 103.501C51.688 102.001 50.788 100.701 49.888 99.401C48.888 98.001 46.988 96.601 45.788 95.101C44.5214 100.368 43.288 105.634 42.088 110.901C42.088 110.901 42.188 110.901 42.288 110.901C44.988 111.601 49.588 115.101 47.988 118.501C47.788 119.001 47.0879 119.101 46.6879 118.701C45.7879 117.901 45.488 116.601 44.788 115.601C43.988 114.401 42.8879 113.401 41.6879 112.701C41.0213 115.434 40.3546 118.168 39.6879 120.901C39.3879 122.301 37.288 121.901 37.488 120.401C38.288 116.334 39.0547 112.268 39.788 108.201C39.188 108.801 38.488 109.301 37.988 109.701C36.088 111.101 33.188 113.101 30.788 112.101C30.188 111.901 29.988 111.101 30.288 110.601C31.188 108.601 34.188 107.701 35.888 106.501C37.288 105.601 38.8879 103.701 40.6879 103.501C42.4213 94.0343 44.1547 84.5677 45.888 75.101C43.188 77.401 40.0879 79.4009 37.6879 81.8009C33.7879 85.6009 31.088 91.801 26.488 94.701C25.588 95.301 24.088 94.701 24.088 93.501C24.088 87.701 29.7879 82.001 33.6879 78.201C37.1879 74.901 41.888 70.501 46.988 69.401C47.2547 67.8676 47.5547 66.301 47.888 64.701C49.388 56.401 51.288 48.101 52.288 39.701C52.388 39.001 52.388 38.201 52.388 37.501C49.188 39.201 45.888 40.801 42.788 42.701C38.488 45.401 34.288 50.001 29.288 51.501C27.988 51.901 26.788 50.501 27.388 49.201C29.588 44.201 36.188 40.701 40.788 38.101C44.488 35.901 48.388 34.001 52.488 32.801C52.388 28.601 51.888 24.501 51.488 20.401C41.088 27.301 29.6879 32.501 20.6879 41.401C9.38794 52.501 4.58799 67.201 5.98799 82.901Z" fill="#32594A"/>
</svg>
