<svg width="114" height="149" viewBox="0 0 114 149" fill="none" xmlns="http://www.w3.org/2000/svg">
<path fill-rule="evenodd" clip-rule="evenodd" d="M15.1872 132.401C14.8539 133.134 14.5205 133.834 14.1872 134.501C13.2872 139.601 11.0872 144.201 6.48724 147.801C4.58724 149.401 1.48719 146.901 2.68719 144.601C12.5872 125.901 0.487218 109.501 0.0872176 90.4009C-0.112782 75.5009 5.48719 61.1009 14.1872 49.2009C36.2872 19.4009 73.6872 11.9009 107.487 3.30087C107.954 2.76754 108.421 2.23421 108.887 1.70087C110.487 0.100873 113.287 1.10087 112.987 3.60087C111.787 12.6009 108.987 20.6009 108.987 30.0009C108.887 38.1009 109.387 46.2009 109.087 54.4009C108.387 71.4009 105.087 88.6009 95.9872 103.201C79.1872 129.901 44.8872 137.601 15.1872 132.401ZM95.6872 89.5009C102.387 73.2009 102.887 55.4009 102.487 38.1009C102.287 29.4009 101.087 17.5009 104.687 8.50088C90.2872 14.7009 74.4872 17.8009 60.0872 24.0009C42.7872 31.6009 26.2873 42.9009 16.3873 59.3009C6.18727 76.3009 6.58719 92.4009 11.6872 111.101C12.0872 112.568 12.4873 114.101 12.8873 115.701C16.7873 108.201 22.9873 101.101 28.3873 95.1009C24.0873 90.3009 21.5872 84.4009 20.9872 78.0009C20.4872 73.1009 20.3873 64.8009 24.7873 61.4009C25.6873 60.8009 26.8872 61.4009 26.9872 62.5009C27.3872 64.9009 26.3872 67.1009 25.9872 69.4009C25.4539 72.1342 25.2872 74.8675 25.4872 77.6009C25.8872 83.0009 27.7872 88.0009 30.4872 92.7009C31.4872 91.5009 32.4873 90.4009 33.3873 89.3009C41.8539 79.5009 50.3206 69.7009 58.7873 59.9009C58.5873 59.8009 58.4873 59.7009 58.3873 59.5009C57.9873 59.0009 57.8873 58.8009 57.8873 58.2009C57.7873 58.1009 57.8872 57.9009 57.9872 57.8009C57.7872 56.7009 56.4873 54.4009 56.2873 53.7009C55.7873 52.0009 55.3872 50.3009 55.1872 48.6009C54.7872 45.7009 54.2872 41.2009 56.4872 39.0009C57.3872 38.1009 58.5872 38.3009 59.1872 39.4009C59.8872 40.9009 59.6872 42.6009 59.5872 44.2009C59.5872 46.1009 59.7872 47.9009 60.0872 49.8009C60.3872 51.6009 61.5873 54.0009 61.8873 56.2009C65.9539 51.5342 69.9872 46.8675 73.9872 42.2009C73.9872 42.2009 73.8873 42.2009 73.7873 42.1009C71.3873 40.0009 68.6872 34.0009 71.9872 31.4009C72.4872 31.0009 73.2872 31.3009 73.4872 31.9009C73.9872 33.2009 73.5873 34.7009 73.7873 36.0009C73.8873 37.7009 74.4873 39.2009 75.3873 40.6009C77.4539 38.2009 79.5539 35.7675 81.6872 33.3009C82.7872 32.1009 84.6872 33.7009 83.6872 35.0009C80.7539 38.6675 77.8206 42.3675 74.8873 46.1009C75.8873 45.9009 76.7872 45.7009 77.4872 45.6009C80.0872 45.2009 84.1872 44.6009 86.0872 46.9009C86.5872 47.5009 86.2873 48.3009 85.7873 48.7009C83.7873 50.2009 80.2873 49.6009 77.8873 49.9009C76.0873 50.1009 73.3872 51.2009 71.4872 50.4009C64.7539 59.0675 58.0206 67.7009 51.2873 76.3009C55.1873 75.5009 59.3872 75.1009 63.0872 74.0009C68.9872 72.1009 75.0872 67.3009 81.1872 66.8009C82.4872 66.7009 83.6872 68.1009 82.9872 69.3009C79.8872 75.1009 71.1872 77.9009 65.1872 79.6009C59.9872 81.2009 52.7872 83.2009 47.1872 81.6009C46.0539 83.0009 44.9206 84.4342 43.7873 85.9009C37.8873 93.4009 31.5872 100.801 26.0872 108.801C25.6872 109.501 25.2873 110.201 24.7873 111.001C28.9873 110.901 33.0873 111.001 37.2873 110.701C43.0873 110.301 49.7872 107.901 55.5872 109.001C57.1872 109.301 57.5873 111.301 56.2873 112.301C51.3873 116.201 42.8873 116.301 36.8873 116.501C31.9873 116.701 26.9872 116.701 22.1872 115.701C20.0872 120.001 18.4872 124.401 16.6872 128.801C30.8872 127.201 45.0872 128.101 58.9872 123.801C76.2872 118.501 88.7872 106.201 95.6872 89.5009V89.5009Z" fill="#32594A"/>
</svg>
