<svg width="100" height="163" viewBox="0 0 100 163" fill="none" xmlns="http://www.w3.org/2000/svg">
<path fill-rule="evenodd" clip-rule="evenodd" d="M73.8877 18.0007C74.021 17.2674 74.1544 16.5341 74.2877 15.8007C73.9877 10.9007 75.0876 6.10072 78.5876 1.70072C80.0876 -0.199278 83.4877 1.40072 82.8877 3.80072C77.6877 23.6007 92.7877 36.3007 97.2877 54.2007C100.888 68.1007 98.7876 82.9007 93.1876 96.0007C79.0876 128.901 45.5876 144.301 15.6876 159.801C15.421 160.467 15.121 161.067 14.7876 161.601C13.6876 163.501 10.7876 163.101 10.4876 160.801C9.58764 152.101 10.4876 143.901 8.48764 135.101C6.68764 127.401 4.38766 119.901 2.88766 112.201C-0.212339 96.1007 -0.912339 79.2007 4.38766 63.5007C14.1877 34.6007 44.7877 19.8007 73.8877 18.0007V18.0007ZM7.68765 76.2007C4.98765 93.0007 8.48765 109.801 12.6876 126.001C14.8876 134.201 18.5876 145.101 17.2876 154.301C29.3876 145.301 43.4876 138.901 55.6876 129.801C70.2876 118.901 83.1877 104.701 88.8877 87.0007C94.6877 68.8007 90.6877 53.7007 81.8877 37.3007C81.1543 36.0341 80.4209 34.7007 79.6876 33.3007C77.6876 41.2007 73.4876 49.2007 69.6876 56.1007C74.7876 59.6007 78.3876 64.6007 80.4876 70.4007C81.9876 75.0007 83.9876 82.7007 80.5876 86.9007C79.8876 87.7007 78.5876 87.3007 78.1876 86.4007C77.3876 84.2007 77.7876 81.9007 77.6876 79.6007C77.5543 76.9341 77.0877 74.3674 76.2877 71.9007C74.6877 66.9007 71.7877 62.5007 68.2877 58.8007C67.5544 60.1341 66.8543 61.4007 66.1876 62.6007C60.5209 73.7341 54.7876 84.8341 48.9876 95.9007C49.0876 95.9007 49.2876 96.0007 49.4876 96.1007C49.8876 96.6007 49.9876 96.7007 50.1876 97.2007C50.2876 97.4007 50.1876 97.5007 50.1876 97.6007C50.5876 98.6007 52.2876 100.501 52.6876 101.201C53.4876 102.601 54.2877 104.101 54.8877 105.701C55.7877 108.301 57.2876 112.401 55.6876 115.001C55.0876 116.001 53.8876 116.101 53.0876 115.201C52.0876 113.901 51.9876 112.301 51.5876 110.801C51.2876 109.001 50.6876 107.301 49.9876 105.701C49.2876 104.001 47.5876 102.001 46.7876 100.001C44.0543 105.267 41.3209 110.567 38.5876 115.901C38.5876 115.901 38.6876 115.901 38.7876 115.901C41.4876 117.401 45.3876 122.401 42.7876 125.601C42.3876 126.001 41.6877 125.901 41.3877 125.501C40.5877 124.301 40.5876 122.901 40.1876 121.601C39.6876 120.101 38.6876 118.801 37.5876 117.601C36.1876 120.401 34.7543 123.167 33.2876 125.901C32.5876 127.301 30.3876 126.201 31.0876 124.801C33.0209 120.667 34.921 116.534 36.7876 112.401C35.9876 112.801 35.1876 113.201 34.4876 113.401C32.1876 114.401 28.4876 115.801 26.1876 114.101C25.5876 113.701 25.6876 112.801 26.0876 112.301C27.5876 110.501 30.9876 110.301 33.1876 109.501C34.8876 108.901 37.0876 107.301 39.0876 107.601C43.4876 98.0007 47.921 88.3674 52.3877 78.7007C48.8877 80.4007 44.9876 81.7007 41.7876 83.6007C36.5876 86.7007 31.9876 92.5007 26.2876 94.3007C25.1876 94.7007 23.7876 93.7007 24.0876 92.4007C25.6876 86.2007 33.2876 81.7007 38.4876 78.7007C43.0876 76.1007 49.3876 72.7007 55.0876 72.9007C55.8209 71.3007 56.5544 69.7007 57.2877 68.1007C61.1877 59.7007 65.3877 51.4007 68.7877 42.7007C69.0877 41.9007 69.2876 41.1007 69.4876 40.4007C65.5876 41.3007 61.6877 42.1007 57.8877 43.3007C52.4877 45.0007 46.7876 48.7007 41.0876 49.0007C39.4876 49.1007 38.6876 47.3007 39.6876 46.1007C43.3876 41.3007 51.3876 39.4007 56.9876 37.8007C61.4876 36.5007 66.1877 35.5007 70.8877 35.3007C71.9877 30.8007 72.4876 26.3007 73.1876 21.8007C60.2876 26.4007 46.6876 28.8007 34.5876 35.8007C19.4876 44.7007 10.4876 59.0007 7.68765 76.2007Z" fill="#32594A"/>
</svg>
