<svg width="96" height="154" viewBox="0 0 96 154" fill="none" xmlns="http://www.w3.org/2000/svg">
<path fill-rule="evenodd" clip-rule="evenodd" d="M17.9868 16.7014C17.5201 16.1681 17.0867 15.6015 16.6867 15.0015C12.7867 12.2015 9.9868 8.30145 8.8868 3.00145C8.3868 0.801452 11.7867 -0.798551 13.0867 1.20145C24.4867 17.4014 43.2868 14.2015 59.2868 22.0015C71.7868 28.1015 81.3868 38.9015 87.4868 51.2015C102.987 82.2015 93.2867 116.501 86.0867 148.201C86.3534 148.801 86.6201 149.401 86.8868 150.001C87.4868 152.001 85.4867 153.901 83.5867 152.601C76.5867 147.901 71.0868 142.101 63.3868 138.101C56.5868 134.601 49.5868 131.601 42.9868 127.801C29.1868 120.101 16.2868 110.101 7.98677 96.3015C-7.11323 71.0015 1.08677 39.3014 17.9868 16.7014V16.7014ZM19.4868 101.901C30.1868 114.301 44.6868 122.301 59.3868 129.301C66.6868 132.801 77.0868 136.901 82.9868 143.601C83.8868 129.001 88.0868 114.601 88.9868 100.001C90.0868 82.4014 87.6867 64.0015 78.1867 48.8015C68.3867 33.1015 54.7867 26.6014 37.1867 22.9014C35.7867 22.6348 34.3535 22.3014 32.8868 21.9014C37.3868 28.4014 40.6868 36.5014 43.3868 43.6014C49.1868 42.0014 55.0867 42.5014 60.6867 44.6014C65.0867 46.3014 71.9868 49.7015 72.8868 54.8015C73.0868 55.9015 71.9867 56.6015 71.0867 56.3015C68.8867 55.5015 67.4868 53.8015 65.7868 52.4015C63.7202 50.8681 61.5201 49.6014 59.1867 48.6014C54.4867 46.7014 49.4868 46.1015 44.4868 46.3015C45.0201 47.7015 45.5534 49.0015 46.0867 50.2015C50.6867 61.3348 55.2535 72.5014 59.7868 83.7014C59.8868 83.6014 60.0868 83.5014 60.2868 83.5014C60.8868 83.5014 60.9867 83.4014 61.5867 83.7014C61.6867 83.7014 61.7868 83.8015 61.7868 83.9015C62.7868 84.3015 65.2868 84.2015 65.9868 84.3015C67.5868 84.6015 69.1867 85.0014 70.6867 85.5014C73.1867 86.4014 77.1867 87.9014 78.0867 90.7014C78.4867 91.8014 77.6867 92.7014 76.5867 92.7014C74.9867 92.7014 73.7868 91.8014 72.3868 91.1014C70.8868 90.3014 69.2867 89.6014 67.5867 89.1014C65.9867 88.5014 63.3868 88.5015 61.4868 87.9015C63.6201 93.2348 65.7868 98.5681 67.9868 103.901C68.0868 103.901 68.0867 103.801 68.0867 103.801C70.9867 102.601 77.0868 102.901 77.7868 106.801C77.8868 107.401 77.3868 107.901 76.7868 107.801C75.4868 107.701 74.3867 106.701 73.1867 106.301C71.7867 105.701 70.2867 105.601 68.6867 105.701C69.8201 108.435 70.9534 111.201 72.0867 114.001C72.6867 115.401 70.5868 116.401 69.8868 115.001C68.0868 111.001 66.2535 107.001 64.3868 103.001C64.1868 103.901 63.8867 104.701 63.6867 105.301C62.9867 107.701 61.6868 111.301 58.9868 111.901C58.2868 112.101 57.6867 111.501 57.5867 110.901C57.1867 108.601 59.1868 105.901 59.9868 103.901C60.5868 102.201 60.7867 99.6015 62.1867 98.3015C57.8534 89.0348 53.5535 79.7681 49.2868 70.5014C48.2868 74.1014 46.8868 77.8015 46.2868 81.3015C45.2868 87.1015 46.6868 94.1015 44.4868 99.4015C44.0868 100.501 42.3867 100.901 41.6867 99.9015C38.0867 94.8015 39.5867 86.4014 40.5867 80.7014C41.5867 75.7014 42.9867 68.9015 46.6867 64.9015C45.9534 63.3681 45.2201 61.8348 44.4868 60.3015C40.7868 52.1015 37.2868 43.8014 32.9868 35.9014C32.5868 35.2014 32.0867 34.5014 31.6867 33.9014C29.9867 37.3014 28.0867 40.7015 26.5867 44.3015C24.4867 49.3015 23.6868 55.9015 20.2868 60.2015C19.3868 61.4015 17.5868 60.9014 17.2868 59.5014C16.0868 53.7014 19.6868 46.6015 21.9868 41.5015C23.8868 37.4015 26.0868 33.3014 28.8868 29.7014C26.1868 26.1014 23.2868 22.9015 20.3868 19.5015C15.6868 32.0015 8.88675 43.5015 6.58675 56.8015C3.58675 73.4015 8.58677 89.1015 19.4868 101.901V101.901Z" fill="#32594A"/>
</svg>
