<svg width="115" height="117" viewBox="0 0 115 117" fill="none" xmlns="http://www.w3.org/2000/svg">
<path fill-rule="evenodd" clip-rule="evenodd" d="M101.588 -5.09849C101.921 -5.76516 102.288 -6.39849 102.688 -6.99849C103.788 -11.7985 106.188 -16.1985 110.688 -19.3985C112.688 -20.8985 115.488 -18.2985 114.288 -16.1985C103.688 1.30151 114.588 17.8015 113.988 36.2015C113.488 50.6015 107.388 64.2015 98.288 75.2015C75.588 102.902 39.088 108.201 6.08795 114.801C5.62129 115.335 5.15466 115.802 4.68799 116.202C3.08799 117.702 0.387965 116.601 0.787965 114.301C2.38797 105.601 5.48798 98.0015 5.98798 89.0015C6.48798 81.1015 6.38799 73.3015 7.18799 65.4015C8.68799 49.1015 12.688 32.7015 22.188 19.1015C39.688 -5.89849 73.188 -11.4985 101.588 -5.09849V-5.09849ZM21.788 32.3015C14.488 47.7015 13.088 64.7015 12.688 81.5015C12.388 89.9015 12.888 101.502 9.08795 109.902C23.288 104.602 38.588 102.502 52.788 97.2015C69.888 90.8015 86.388 80.7015 96.688 65.4015C107.388 49.5015 107.788 33.9015 103.888 15.7015C103.555 14.2348 103.255 12.7348 102.988 11.2015C98.788 18.2015 92.488 24.7015 86.988 30.3015C90.888 35.1015 92.988 40.9015 93.288 47.1015C93.488 51.9015 93.188 59.9015 88.788 62.9015C87.888 63.5015 86.688 62.8015 86.588 61.8015C86.388 59.4015 87.488 57.4015 87.988 55.1015C88.6546 52.5682 88.9547 49.9682 88.888 47.3015C88.688 42.1015 87.188 37.1015 84.788 32.5015C83.7213 33.5682 82.7213 34.6015 81.788 35.6015C73.188 44.6682 64.5547 53.7015 55.888 62.7015C56.088 62.8015 56.188 62.9015 56.288 63.1015C56.588 63.6015 56.688 63.7015 56.688 64.3015C56.688 64.5015 56.688 64.6015 56.588 64.7015C56.688 65.8015 57.788 68.1015 57.988 68.8015C58.388 70.4015 58.688 72.1015 58.788 73.8015C58.988 76.6015 59.288 80.9015 57.088 82.9015C56.188 83.8015 54.988 83.5015 54.488 82.4015C53.888 80.9015 54.188 79.3015 54.288 77.7015C54.388 76.0015 54.388 74.2015 54.188 72.4015C53.988 70.6015 52.888 68.2015 52.688 66.0015C48.5547 70.3348 44.4213 74.6682 40.288 79.0015C40.388 79.0015 40.388 79.0015 40.488 79.1015C42.788 81.3015 45.088 87.2015 41.688 89.5015C41.188 89.8015 40.488 89.5015 40.288 89.0015C39.888 87.7015 40.288 86.3015 40.288 84.9015C40.188 83.3015 39.688 81.8015 38.888 80.4015C36.7547 82.6682 34.6213 84.9015 32.488 87.1015C31.388 88.3015 29.588 86.7015 30.688 85.5015C33.688 82.0348 36.6546 78.5682 39.588 75.1015C38.688 75.3015 37.788 75.4015 37.088 75.5015C34.588 75.8015 30.588 76.1015 28.888 73.8015C28.488 73.2015 28.788 72.4015 29.288 72.1015C31.288 70.7015 34.688 71.5015 36.888 71.4015C38.788 71.2015 41.288 70.4015 43.088 71.2015C50.088 63.2015 57.0546 55.2015 63.988 47.2015C60.088 47.8015 56.088 48.0015 52.488 48.9015C46.588 50.4015 40.588 54.7015 34.588 54.9015C33.388 54.9015 32.288 53.5015 32.988 52.4015C36.288 46.9015 44.888 44.7015 50.688 43.3015C55.888 42.1015 62.788 40.5015 68.188 42.4015C69.3213 41.0682 70.488 39.7348 71.688 38.4015C77.788 31.4015 84.188 24.6015 89.788 17.2015C90.288 16.5015 90.688 15.8015 91.188 15.2015C87.188 15.0015 83.188 14.7015 79.188 14.7015C73.488 14.9015 66.988 16.8015 61.488 15.5015C59.888 15.1015 59.688 13.2015 60.888 12.3015C65.788 8.80151 73.988 9.10151 79.888 9.20151C84.588 9.20151 89.388 9.50151 93.988 10.7015C96.188 6.70151 97.988 2.50151 99.888 -1.59849C86.188 -0.798492 72.488 -2.29849 58.888 1.00151C41.988 5.30151 29.288 16.5015 21.788 32.3015V32.3015Z" fill="#32594A"/>
</svg>
