<svg width="97" height="134" viewBox="0 0 97 134" fill="none" xmlns="http://www.w3.org/2000/svg">
<path fill-rule="evenodd" clip-rule="evenodd" d="M18.3872 -2.89853C17.9205 -3.43187 17.4538 -3.99854 16.9871 -4.59854C13.1871 -7.49854 10.3872 -11.2985 9.28719 -16.5985C8.78719 -18.8985 12.1871 -20.3985 13.4871 -18.4985C24.8871 -2.19854 43.6871 -5.39854 59.6871 2.40146C72.1871 8.50146 81.7872 19.3015 87.8872 31.6015C103.287 62.6015 93.6871 96.9015 86.4871 128.601C86.7538 129.201 86.9871 129.801 87.1871 130.401C87.8871 132.401 85.8871 134.301 83.9871 133.001C76.8871 128.201 71.4871 122.501 63.6871 118.501C56.9871 115.001 49.9872 111.901 43.3872 108.201C29.5872 100.401 16.6872 90.4015 8.38716 76.7015C-6.71284 51.4015 1.48716 19.6015 18.3872 -2.89853V-2.89853ZM19.8872 82.2015C30.5872 94.7015 45.0871 102.601 59.6871 109.701C67.0871 113.201 77.4872 117.301 83.3872 124.001C84.2872 109.401 88.4872 95.0015 89.3872 80.4015C90.4872 62.8015 88.0871 44.4015 78.5871 29.2015C68.7871 13.5015 55.1871 7.00146 37.5871 3.30146C36.1871 3.0348 34.7539 2.70146 33.2872 2.30146C37.7872 8.80146 41.0872 16.9015 43.7872 23.9015C49.5872 22.4015 55.4871 22.8015 61.0871 25.0015C65.4871 26.7015 72.3872 30.1015 73.2872 35.2015C73.4872 36.2015 72.3871 37.0015 71.4871 36.6015C69.2871 35.9015 67.8871 34.1015 66.0871 32.8015C64.0871 31.2015 61.9204 29.9348 59.5871 29.0015C54.8871 27.0015 49.8872 26.4015 44.8872 26.7015C45.4205 28.1015 45.9538 29.4015 46.4871 30.6015C51.0871 41.7348 55.6538 52.9015 60.1871 64.1015C60.2871 64.0015 60.4871 63.9015 60.5871 63.9015C61.2871 63.9015 61.3872 63.8015 61.8872 64.0015C62.0205 64.0681 62.1204 64.1681 62.1871 64.3015C63.1871 64.7015 65.6872 64.5015 66.3872 64.7015C67.9872 65.0015 69.5871 65.3015 71.0871 65.9015C73.5871 66.8015 77.4871 68.3015 78.4871 71.1015C78.8871 72.2015 78.0871 73.1015 76.9871 73.1015C75.3871 73.1015 74.1872 72.2015 72.7872 71.5015C71.2872 70.6015 69.6871 70.0015 67.9871 69.5015C66.2871 68.9015 63.7872 68.9015 61.8872 68.3015C64.0205 73.6348 66.1872 78.9681 68.3872 84.3015C68.4872 84.2015 68.4871 84.2015 68.4871 84.2015C71.3871 83.0015 77.4871 83.3015 78.1871 87.2015C78.2871 87.8015 77.7871 88.3015 77.1871 88.2015C75.8871 88.1015 74.7871 87.1015 73.5871 86.7015C72.1871 86.1015 70.5871 85.9015 69.0871 86.1015C70.2204 88.8348 71.3538 91.6015 72.4871 94.4015C73.0871 95.8015 70.9872 96.7015 70.2872 95.3015C68.4205 91.3015 66.5872 87.3348 64.7872 83.4015C64.5872 84.2015 64.2871 85.1015 64.0871 85.7015C63.3871 88.1015 61.9872 91.7015 59.3872 92.3015C58.6872 92.4015 58.0871 91.9015 57.9871 91.3015C57.5871 89.0015 59.5872 86.3015 60.2872 84.3015C60.9872 82.6015 61.1871 80.0015 62.5871 78.7015C58.2538 69.4348 53.9538 60.1681 49.6871 50.9015C48.6871 54.5015 47.1871 58.2015 46.5871 61.7015C45.6871 67.4015 47.0872 74.5015 44.8872 79.8015C44.4872 80.9015 42.7871 81.3015 42.0871 80.3015C38.4871 75.2015 39.9871 66.8015 40.9871 61.1015C41.9871 56.0015 43.2871 49.3015 47.0871 45.3015C46.3538 43.7681 45.6205 42.2348 44.8872 40.7015C41.1872 32.5015 37.6872 24.1015 33.3872 16.2015C32.9872 15.5015 32.4871 14.9015 32.0871 14.2015C30.3871 17.7015 28.4871 21.1015 26.9871 24.7015C24.8871 29.7015 24.0871 36.3015 20.6871 40.6015C19.7871 41.8015 17.8871 41.3015 17.5871 39.8015C16.4871 34.1015 19.9872 27.0015 22.3872 21.9015C24.2872 17.8015 26.3872 13.6015 29.2872 10.1015C26.5872 6.50146 23.6872 3.30146 20.7872 -0.0985355C16.0872 12.4015 9.28714 23.8015 6.98714 37.2015C3.98714 53.8015 8.88716 69.4015 19.8872 82.2015V82.2015Z" fill="#32594A"/>
</svg>
