<svg width="65" height="117" viewBox="0 0 65 117" fill="none" xmlns="http://www.w3.org/2000/svg">
<path fill-rule="evenodd" clip-rule="evenodd" d="M26.8877 104.201C26.9544 104.668 26.9877 105.168 26.9877 105.701C27.9877 108.801 28.0877 112.101 26.5877 115.501C25.9877 117.001 23.4877 116.501 23.4877 114.901C23.5877 101.201 11.6877 95.601 5.78775 84.801C1.18775 76.401 -0.0123025 66.501 1.4877 57.101C5.0877 33.601 24.0877 18.101 40.7877 3.10099C40.8544 2.63432 40.9543 2.201 41.0877 1.801C41.4877 0.401002 43.3877 0.10099 43.8877 1.60099C45.9877 7.10099 46.7877 12.501 49.5877 17.801C51.9877 22.501 54.6877 26.901 56.9877 31.701C61.5877 41.501 64.9877 52.301 64.0877 63.301C62.5877 83.601 45.3877 98.201 26.8877 104.201V104.201ZM59.8877 55.601C58.7877 44.401 53.7877 34.101 48.2877 24.401C45.5877 19.501 41.3876 13.101 40.6876 6.90099C34.3876 14.801 26.2877 21.201 19.9877 29.101C12.3877 38.601 6.38775 49.901 5.78775 62.201C4.98775 75.001 10.0877 84.001 18.5877 93.101C19.2543 93.8343 19.921 94.5677 20.5877 95.301C20.5877 89.901 21.9877 84.001 23.2877 79.001C19.3877 77.601 16.1877 75.001 13.9877 71.501C12.1877 68.801 9.68767 64.201 11.0877 60.901C11.3877 60.301 12.2876 60.301 12.6876 60.901C13.6876 62.101 13.6876 63.701 14.1876 65.101C14.721 66.8343 15.4544 68.4343 16.3877 69.901C18.2877 72.801 20.7877 75.201 23.7877 77.001C23.9877 76.001 24.1877 75.0677 24.3877 74.201C26.2544 66.0677 28.121 57.9677 29.9877 49.901C29.8877 49.901 29.7876 49.901 29.6876 49.801C29.2876 49.601 29.1877 49.501 28.9877 49.201C28.921 49.1343 28.8877 49.0677 28.8877 49.001C28.4877 48.401 27.0876 47.401 26.6876 47.101C25.8876 46.301 25.1877 45.401 24.5877 44.501C23.4877 43.001 21.8877 40.601 22.3877 38.701C22.6877 37.901 23.4877 37.701 24.0877 38.101C24.9877 38.801 25.2877 39.801 25.7877 40.701C26.2877 41.801 26.9876 42.801 27.6876 43.701C28.3876 44.701 29.7876 45.701 30.6876 46.901C31.5543 42.9677 32.4544 39.0677 33.3877 35.201C33.2877 35.201 33.2876 35.301 33.1876 35.301C31.1876 34.801 27.8877 32.201 28.9877 29.701C29.1877 29.401 29.6877 29.301 29.9877 29.501C30.6877 30.101 30.8877 31.101 31.3877 31.801C31.9877 32.701 32.7876 33.401 33.6876 34.001C34.1543 31.9343 34.621 29.901 35.0877 27.901C35.2877 26.901 36.8876 27.201 36.6876 28.301C36.1543 31.2343 35.621 34.201 35.0877 37.201C35.4877 36.801 35.9877 36.401 36.3877 36.101C37.6877 35.101 39.8877 33.601 41.5877 34.301C42.0877 34.501 42.1877 35.101 41.9877 35.401C41.3877 36.901 39.1877 37.601 37.8877 38.401C36.8877 39.101 35.6877 40.501 34.3877 40.701C33.1211 47.6343 31.8876 54.5677 30.6876 61.501C32.5876 59.801 34.8876 58.401 36.6876 56.601C39.4876 53.701 41.4877 49.201 44.7877 47.101C45.4877 46.601 46.5877 47.101 46.5877 48.001C46.5877 52.201 42.3877 56.401 39.5877 59.201C37.0877 61.601 33.5877 64.901 29.8877 65.701C29.6877 66.8343 29.4877 67.9677 29.2877 69.101C28.1877 75.201 26.7877 81.301 26.0877 87.501C25.9877 88.001 25.9877 88.501 25.9877 89.101C28.3877 87.801 30.7877 86.601 32.9877 85.201C36.1877 83.201 39.2877 79.901 42.8877 78.801C43.8877 78.401 44.6877 79.501 44.2877 80.401C42.6877 84.101 37.8877 86.701 34.4877 88.601C31.7877 90.201 28.9877 91.701 25.8877 92.601C25.9877 95.601 26.3876 98.601 26.6876 101.701C34.2876 96.501 42.6877 92.701 49.2877 86.201C57.4877 78.001 60.9877 67.201 59.8877 55.601V55.601Z" fill="#32594A"/>
</svg>
