<svg width="97" height="154" viewBox="0 0 97 154" fill="none" xmlns="http://www.w3.org/2000/svg">
<path fill-rule="evenodd" clip-rule="evenodd" d="M18.4874 16.7011C18.0874 16.1677 17.6541 15.6011 17.1874 15.0011C13.3874 12.1011 10.4874 8.30107 9.38743 3.00107C8.98743 0.701068 12.2874 -0.798926 13.6874 1.10107C24.9874 17.4011 43.7874 14.2011 59.7874 22.0011C72.2874 28.1011 81.8874 38.9011 88.0874 51.2011C103.487 82.2011 93.8874 116.501 86.6874 148.201C86.9541 148.801 87.1874 149.401 87.3874 150.001C88.0874 152.001 85.9874 153.901 84.0874 152.601C77.0874 147.801 71.6874 142.101 63.8874 138.101C57.0874 134.601 50.1874 131.501 43.5874 127.801C29.7874 120.101 16.7874 110.001 8.58738 96.3011C-6.51262 71.0011 1.6874 39.2011 18.4874 16.7011V16.7011ZM20.0874 101.801C30.7874 114.301 45.2874 122.301 59.8874 129.301C67.1874 132.801 77.5874 136.901 83.5874 143.601C84.4874 129.001 88.5874 114.601 89.5874 100.001C90.6874 82.4011 88.1874 64.0011 78.7874 48.8011C68.9874 33.1011 55.3874 26.6011 37.7874 22.9011C36.3207 22.6344 34.8541 22.3011 33.3874 21.9011C37.9874 28.4011 41.2874 36.5011 43.9874 43.5011C49.7874 42.0011 55.6874 42.4011 61.2874 44.6011C65.5874 46.3011 72.4874 49.7011 73.4874 54.8011C73.5874 55.8011 72.4874 56.6011 71.5874 56.2011C69.4874 55.5011 68.0874 53.7011 66.2874 52.4011C64.2874 50.8011 62.0874 49.5344 59.6874 48.6011C55.0874 46.6011 50.0874 46.0011 45.0874 46.3011C45.6207 47.7011 46.1207 49.0011 46.5874 50.2011C51.1874 61.3344 55.7541 72.5011 60.2874 83.7011C60.4874 83.6011 60.5874 83.5011 60.7874 83.5011C61.3874 83.5011 61.5874 83.4011 62.0874 83.6011C62.1874 83.7011 62.2874 83.8011 62.3874 83.9011C63.3874 84.3011 65.7874 84.1011 66.5874 84.3011C68.0874 84.6011 69.6874 84.9011 71.2874 85.5011C73.7874 86.4011 77.6874 87.9011 78.6874 90.7011C78.9874 91.8011 78.2874 92.7011 77.1874 92.7011C75.5874 92.7011 74.2874 91.8011 72.9874 91.1011C71.4874 90.2011 69.7874 89.6011 68.1874 89.1011C66.4874 88.5011 63.9874 88.5011 61.9874 87.9011C64.1874 93.2344 66.3874 98.5678 68.5874 103.901C68.5874 103.901 68.5874 103.801 68.6874 103.801C71.4874 102.601 77.6874 102.901 78.3874 106.801C78.4874 107.401 77.8874 107.901 77.3874 107.801C76.0874 107.701 74.9874 106.701 73.7874 106.301C72.3874 105.701 70.7874 105.601 69.2874 105.701C70.4207 108.434 71.5541 111.201 72.6874 114.001C73.1874 115.401 71.0874 116.301 70.4874 114.901C68.6207 110.901 66.7541 106.934 64.8874 103.001C64.6874 103.801 64.4874 104.701 64.2874 105.301C63.4874 107.701 62.1874 111.301 59.4874 111.901C58.8874 112.001 58.1874 111.501 58.0874 110.901C57.6874 108.601 59.6874 105.901 60.4874 103.901C61.0874 102.201 61.3874 99.6011 62.7874 98.3011C58.4541 89.0344 54.1207 79.7677 49.7874 70.5011C48.8874 74.1011 47.3874 77.8011 46.7874 81.3011C45.7874 87.1011 47.2874 94.1011 45.0874 99.4011C44.5874 100.501 42.9874 100.901 42.1874 99.9011C38.6874 94.8011 40.0874 86.4011 41.1874 80.7011C42.0874 75.6011 43.4874 68.9011 47.1874 64.9011C46.5207 63.3678 45.8207 61.8344 45.0874 60.3011C41.2874 52.1011 37.7874 43.7011 33.4874 35.8011C33.0874 35.1011 32.6874 34.5011 32.2874 33.9011C30.5874 37.3011 28.6874 40.7011 27.1874 44.3011C25.0874 49.3011 24.1874 55.9011 20.8874 60.2011C19.9874 61.4011 18.0874 60.9011 17.7874 59.4011C16.6874 53.7011 20.1874 46.6011 22.5874 41.5011C24.4874 37.4011 26.5874 33.2011 29.4874 29.7011C26.7874 26.1011 23.7874 22.9011 20.8874 19.5011C16.1874 32.0011 9.48738 43.4011 7.08738 56.8011C4.18738 73.4011 9.08738 89.0011 20.0874 101.801V101.801Z" fill="#32594A"/>
</svg>
