<svg width="657" height="273" viewBox="0 0 657 273" fill="none" xmlns="http://www.w3.org/2000/svg">
<path d="M5.89996 2.1001L19.9 2C21.8333 2 22.8 2.76672 22.8 4.30005C22.8667 5.50005 21.9333 6.1001 20 6.1001C15.6 6.1001 11.1667 6.1001 6.70001 6.1001L6.5 13.1001L17.7 13C19.5667 13 20.5333 13.7667 20.6 15.3C20.6 16.4334 19.6667 17.0334 17.8 17.1001H6.39996L6.09998 28.1001L18.7 28C20.5667 28 21.5333 28.7334 21.6 30.2001C21.6 31.4001 20.6667 32 18.8 32L4.59998 32.1001C4.46664 32.1001 4.33335 32.1001 4.20001 32.1001C4.06668 32.1001 3.96663 32.1001 3.89996 32.1001C2.69996 32.0334 2.09998 31.3668 2.09998 30.1001L2.79999 3.80005C2.79999 2.66672 3.43335 2.1001 4.70001 2.1001C4.96668 2.1001 5.19996 2.1001 5.39996 2.1001C5.59996 2.1001 5.76663 2.1001 5.89996 2.1001V2.1001ZM28.3 19.2001H38C39.2667 19.2001 39.9 19.7001 39.9 20.7001C39.9 21.7001 39.3333 22.2001 38.2 22.2001H28.2C27.3333 22.2001 26.9 21.7001 26.9 20.7001C26.9 19.7001 27.3667 19.2001 28.3 19.2001ZM58.4 13.5L60.7 27L65.2 13.5C65.8 11.7 66.6 10.8667 67.6 11C69 11.2 69.4333 12.1001 68.9 13.7001L63 29.9C62.4667 31.5 61.6333 32.3 60.5 32.3C59.1 32.3 58.2333 31.5 57.9 29.9L55.8 19.2001L51.9 29.9C51.3 31.5 50.4333 32.3 49.3 32.3C47.9667 32.3 47.1333 31.5 46.8 29.9L43.6 13.7001C43.2666 12.0334 43.7333 11.1333 45 11C46.2 10.8 46.9333 11.6333 47.2 13.5L49.6 27L54.1 13.5C54.6333 11.8333 55.3667 11 56.3 11C57.3667 11 58.0666 11.8333 58.4 13.5V13.5ZM80.4 32.4C74.3333 32.4 71.2667 29.3001 71.2 23.1001C71.2 19.0334 72.6 15.8668 75.4 13.6001C78.6 11.0668 81.9667 10.3334 85.5 11.4C85.9 11.0667 86.5333 11.0001 87.4 11.2001C89 11.5334 89.6333 12.5334 89.3 14.2001C89.0333 15.8667 88.8667 18.6333 88.8 22.5C88.7333 25.6333 89.0667 27.8334 89.8 29.1001C91 31.0334 90.8666 32.1334 89.4 32.4C87.6666 32.7334 86.6666 32.0334 86.4 30.3C83.6 31.7 81.6 32.4 80.4 32.4V32.4ZM82.7 28.5C83.1667 28.3 84 27.7334 85.2 26.8C84.7333 21.2 84.8 17.3667 85.4 15.3C84.1333 14.5 82.7667 14.2668 81.3 14.6001C80.3 14.8668 79.5333 15.2001 79 15.6001C76.6 17.2668 75.3333 19.6334 75.2 22.7001C75.2 26.6334 76.6 28.7 79.4 28.9C80.6 28.9667 81.7 28.8333 82.7 28.5V28.5ZM99.3 28.5C102.3 28.7 104.133 28.3334 104.8 27.4C105.333 26.5334 105.033 25.5334 103.9 24.4C103.167 23.6 101.467 23.0334 98.8 22.7001C96.0667 22.3001 94.4667 21.2668 94 19.6001C93.6667 18.3334 93.8 17.0334 94.4 15.7001C94.9333 14.1667 95.7666 13.0334 96.9 12.3C98.2333 11.3667 99.7667 10.8001 101.5 10.6001C103.5 10.4668 105.233 10.7334 106.7 11.4C108.633 12.3334 109.7 13.4001 109.9 14.6001C110.033 15.3334 109.767 15.9334 109.1 16.4C108.367 17.0667 107.233 16.6667 105.7 15.2001C104.9 14.4667 103.733 14.1334 102.2 14.2001C100.533 14.2667 99.3333 14.7334 98.6 15.6001C97.9333 16.3334 97.7333 17.1 98 17.9C98.2667 18.6334 99.2 19.0667 100.8 19.2001C102.067 19.3334 103.267 19.6667 104.4 20.2001C105.867 20.8001 106.867 21.4667 107.4 22.2001C108.8 23.7334 109.4 25.3333 109.2 27C109 28.6667 108.067 30.0334 106.4 31.1001C105 31.9668 103.2 32.4 101 32.4C99.1333 32.4 97.6 32.2667 96.4 32C95.6666 31.8 94.7667 31.4 93.7 30.8C92.7667 30.2667 92.2667 29.6 92.2 28.8C92.1333 28 92.4333 27.4 93.1 27C93.8333 26.5333 94.6666 26.6001 95.6 27.2001C96.8 28.0001 98.0333 28.4333 99.3 28.5V28.5ZM121.5 0C122.833 0 123.5 0.633358 123.5 1.90002C123.5 5.23336 123.433 8.26667 123.3 11H127.4C129.067 10.9333 129.9 11.5667 129.9 12.9C129.9 14.2334 129.133 14.9 127.6 14.9C126.133 14.9 124.667 14.9 123.2 14.9L122.9 30.1001C122.9 31.5001 122.167 32.1668 120.7 32.1001C119.5 32.1001 118.9 31.4 118.9 30L119.3 14.9C117.7 14.9 116.1 14.9 114.5 14.9C113.367 14.9 112.8 14.2667 112.8 13C112.8 11.6667 113.433 11 114.7 11C116.233 11 117.8 11 119.4 11L119.6 1.80005C119.6 0.600049 120.233 0 121.5 0V0ZM149.8 21L136.2 22.9C136.267 24.3667 136.967 25.6334 138.3 26.7001C139.833 28.0334 141.533 28.6668 143.4 28.6001C146.133 28.6001 147.967 28.1001 148.9 27.1001C149.833 26.1001 150.6 25.5334 151.2 25.4C151.8 25.3334 152.233 25.5333 152.5 26C153.167 27.2 152.867 28.3334 151.6 29.4C149.467 31.2667 146.667 32.1668 143.2 32.1001C140.6 32.1001 138.333 31.3334 136.4 29.8C134 27.9334 132.8 25.3668 132.8 22.1001C132.8 19.4334 133.567 17.0667 135.1 15C136.967 12.4 139.4 11 142.4 10.8C145.533 10.6 147.967 11.3333 149.7 13C151.367 14.5333 152.167 16.3 152.1 18.3C152.033 19.9 151.267 20.8 149.8 21V21ZM136.7 19.7001L148.6 18C148.4 16.8667 147.767 16 146.7 15.4C145.567 14.6667 144.333 14.3 143 14.3C141.133 14.3 139.5 15.1001 138.1 16.7001C137.567 17.3667 137.1 18.3667 136.7 19.7001V19.7001ZM177.7 14.9C175.9 14.9 174.567 15.4668 173.7 16.6001C172.367 18.4001 171.7 20.3667 171.7 22.5C171.7 24.5 172.167 26 173.1 27C174.1 28.0667 175.267 28.6001 176.6 28.6001C178.067 28.6001 179.3 28.0667 180.3 27C181.367 25.9333 181.9 24.1667 181.9 21.7001C181.9 17.1001 180.5 14.8334 177.7 14.9V14.9ZM177.5 10.9C182.967 10.9667 185.7 14.7001 185.7 22.1001C185.633 25.2334 184.9 27.6334 183.5 29.3C181.9 31.3 179.433 32.3 176.1 32.3C173.7 32.2334 171.667 31.2667 170 29.4C168.467 27.6667 167.7 25.2334 167.7 22.1001C167.7 19.1668 168.6 16.5334 170.4 14.2001C172.2 12.0001 174.567 10.9 177.5 10.9V10.9ZM192.9 10C194.233 10 194.9 10.6334 194.9 11.9C194.9 12.1667 194.9 12.4334 194.9 12.7001C196.433 11.5667 197.933 11 199.4 11C201.2 10.9333 202.667 11.2 203.8 11.8C205.867 12.8 206.733 13.8 206.4 14.8C205.8 16.4667 204.7 16.8 203.1 15.8C201.9 15 200.533 14.7668 199 15.1001C197.467 15.3668 196.067 16.1 194.8 17.3L194.5 30.1001C194.433 31.5001 193.7 32.1668 192.3 32.1001C191.033 32.1001 190.433 31.4 190.5 30L191 11.8C191 10.6 191.633 10 192.9 10ZM238.9 21L225.3 22.9C225.367 24.3667 226.067 25.6334 227.4 26.7001C228.867 28.0334 230.567 28.6668 232.5 28.6001C235.233 28.6001 237.067 28.1001 238 27.1001C238.933 26.1001 239.667 25.5334 240.2 25.4C240.867 25.3334 241.333 25.5333 241.6 26C242.2 27.2 241.9 28.3334 240.7 29.4C238.567 31.2667 235.733 32.1668 232.2 32.1001C229.667 32.1001 227.433 31.3334 225.5 29.8C223.1 27.9334 221.9 25.3668 221.9 22.1001C221.9 19.4334 222.633 17.0667 224.1 15C226.033 12.4 228.5 11 231.5 10.8C234.567 10.6 237 11.3333 238.8 13C240.4 14.5333 241.167 16.3 241.1 18.3C241.1 19.9 240.367 20.8 238.9 21V21ZM225.8 19.7001L237.6 18C237.4 16.8667 236.8 16 235.8 15.4C234.6 14.6667 233.333 14.3 232 14.3C230.133 14.3 228.533 15.1001 227.2 16.7001C226.6 17.3667 226.133 18.3667 225.8 19.7001V19.7001ZM248.8 0C250.2 0 250.9 0.633358 250.9 1.90002L250.2 30.1001C250.2 31.5001 249.467 32.1668 248 32.1001C246.8 32.1001 246.233 31.4 246.3 30L247 1.80005C247 0.600049 247.6 0 248.8 0V0ZM272.9 21L259.3 22.9C259.367 24.3667 260.067 25.6334 261.4 26.7001C262.867 28.0334 264.567 28.6668 266.5 28.6001C269.233 28.6001 271.067 28.1001 272 27.1001C272.933 26.1001 273.667 25.5334 274.2 25.4C274.867 25.3334 275.333 25.5333 275.6 26C276.267 27.2 275.967 28.3334 274.7 29.4C272.567 31.2667 269.733 32.1668 266.2 32.1001C263.667 32.1001 261.433 31.3334 259.5 29.8C257.1 27.9334 255.9 25.3668 255.9 22.1001C255.9 19.4334 256.667 17.0667 258.2 15C260.067 12.4 262.5 11 265.5 10.8C268.567 10.6 271 11.3333 272.8 13C274.4 14.5333 275.167 16.3 275.1 18.3C275.1 19.9 274.367 20.8 272.9 21V21ZM259.8 19.7001L271.7 18C271.433 16.8667 270.8 16 269.8 15.4C268.6 14.6667 267.333 14.3 266 14.3C264.133 14.3 262.533 15.1001 261.2 16.7001C260.6 17.3667 260.133 18.3667 259.8 19.7001V19.7001ZM293.2 27.2001C294.333 26.4001 295.3 26.6334 296.1 27.9C296.5 28.6334 296.133 29.4667 295 30.4C293.533 31.6667 291.2 32.2667 288 32.2001C285.533 32.2001 283.467 31.4334 281.8 29.9C279.733 27.9667 278.7 25.5667 278.7 22.7001C278.7 19.5001 279.433 16.8667 280.9 14.8C282.7 12.3334 284.967 11 287.7 10.8C289.3 10.7334 290.767 10.9 292.1 11.3C293.7 11.8334 294.767 12.5 295.3 13.3C296.1 14.5667 296.067 15.5001 295.2 16.1001C294.533 16.5668 293.567 16.3334 292.3 15.4C290.7 14.2667 288.9 14.0001 286.9 14.6001C285.767 14.9334 284.767 15.7333 283.9 17C282.833 18.4 282.3 20.0334 282.3 21.9C282.233 23.6334 282.767 25.2001 283.9 26.6001C284.9 27.9334 286.267 28.6334 288 28.7001C289.867 28.7667 291.6 28.2667 293.2 27.2001V27.2001ZM308 0C309.333 0 310 0.633358 310 1.90002C310 5.23336 309.933 8.26667 309.8 11H313.9C315.567 10.9333 316.4 11.5667 316.4 12.9C316.4 14.2334 315.633 14.9 314.1 14.9C312.633 14.9 311.167 14.9 309.7 14.9L309.4 30.1001C309.4 31.5001 308.667 32.1668 307.2 32.1001C306 32.1001 305.4 31.4 305.4 30L305.8 14.9C304.2 14.9 302.6 14.9 301 14.9C299.867 14.9 299.3 14.2667 299.3 13C299.3 11.6667 299.933 11 301.2 11C302.733 11 304.3 11 305.9 11L306.1 1.80005C306.1 0.600049 306.733 0 308 0V0ZM322.6 10C323.933 10 324.6 10.6334 324.6 11.9C324.6 12.1667 324.6 12.4334 324.6 12.7001C326.133 11.5667 327.633 11 329.1 11C330.9 10.9333 332.367 11.2 333.5 11.8C335.567 12.8 336.433 13.8 336.1 14.8C335.5 16.4667 334.4 16.8 332.8 15.8C331.6 15 330.233 14.7668 328.7 15.1001C327.167 15.3668 325.767 16.1 324.5 17.3L324.2 30.1001C324.133 31.5001 323.4 32.1668 322 32.1001C320.8 32.1001 320.2 31.4 320.2 30L320.7 11.8C320.7 10.6 321.333 10 322.6 10V10ZM349 14.9C347.267 14.9 345.967 15.4668 345.1 16.6001C343.7 18.4001 343 20.3667 343 22.5C343 24.5 343.5 26 344.5 27C345.5 28.0667 346.633 28.6001 347.9 28.6001C349.367 28.6001 350.6 28.0667 351.6 27C352.667 25.9333 353.233 24.1667 353.3 21.7001C353.3 17.1001 351.867 14.8334 349 14.9V14.9ZM348.9 10.9C354.3 10.9667 357 14.7001 357 22.1001C357 25.2334 356.267 27.6334 354.8 29.3C353.2 31.3 350.733 32.3 347.4 32.3C345 32.2334 342.967 31.2667 341.3 29.4C339.833 27.6667 339.1 25.2334 339.1 22.1001C339.1 19.1668 340 16.5334 341.8 14.2001C343.533 12.0001 345.9 10.9 348.9 10.9V10.9ZM364.2 10C365.667 10 366.367 10.6334 366.3 11.9C366.3 12.3 366.3 12.7001 366.3 13.1001C367.767 11.8334 369.633 11.2001 371.9 11.2001C376.967 11.2001 379.467 14.1333 379.4 20L379.2 29.8C379.2 31.3334 378.567 32.1667 377.3 32.3C375.833 32.4334 375.1 31.7001 375.1 30.1001L375.4 20.9C375.467 17.3 374.4 15.4334 372.2 15.3C370.333 15.1667 368.333 16.1334 366.2 18.2001L365.8 30C365.8 31.4 365.067 32.0667 363.6 32C362.4 32 361.833 31.3 361.9 29.9L362.3 11.8C362.367 10.6 363 10 364.2 10V10ZM387.1 2.1001C387.167 2.1001 387.2 2.1001 387.2 2.1001C387.667 2.1001 388.1 2.20002 388.5 2.40002C388.9 2.66669 389.233 3.00002 389.5 3.40002C389.633 3.73336 389.7 4.1 389.7 4.5C389.7 4.56667 389.7 4.63341 389.7 4.70007C389.7 5.16674 389.533 5.6 389.2 6C388.933 6.33333 388.633 6.56674 388.3 6.70007C387.967 6.90007 387.6 7 387.2 7C387.133 7 387.1 7 387.1 7C386.7 6.93333 386.3 6.8001 385.9 6.6001C385.567 6.4001 385.267 6.13338 385 5.80005C384.8 5.40005 384.7 4.96667 384.7 4.5C384.7 4.1 384.8 3.73336 385 3.40002C385.267 3.00002 385.567 2.7 385.9 2.5C386.3 2.23333 386.7 2.1001 387.1 2.1001V2.1001ZM387 10.9C388.267 10.9667 388.9 11.8333 388.9 13.5L388.6 29.6001C388.6 31.4001 387.967 32.3 386.7 32.3C385.233 32.3 384.533 31.4667 384.6 29.8L384.9 13.5C384.967 11.7667 385.667 10.9 387 10.9ZM408.8 27.2001C410 26.4001 410.967 26.6334 411.7 27.9C412.167 28.6334 411.833 29.4667 410.7 30.4C409.233 31.6667 406.9 32.2667 403.7 32.2001C401.167 32.2001 399.1 31.4334 397.5 29.9C395.433 27.9667 394.4 25.5667 394.4 22.7001C394.4 19.5001 395.133 16.8667 396.6 14.8C398.333 12.3334 400.6 11 403.4 10.8C405 10.7334 406.433 10.9 407.7 11.3C409.367 11.8334 410.467 12.5 411 13.3C411.8 14.5667 411.767 15.5001 410.9 16.1001C410.233 16.5668 409.233 16.3334 407.9 15.4C406.367 14.2667 404.6 14.0001 402.6 14.6001C401.467 14.9334 400.467 15.7333 399.6 17C398.533 18.4 398 20.0334 398 21.9C397.933 23.6334 398.433 25.2001 399.5 26.6001C400.5 27.9334 401.9 28.6334 403.7 28.7001C405.5 28.7667 407.2 28.2667 408.8 27.2001V27.2001ZM442.6 13.5L444.9 27L449.4 13.5C450 11.7 450.8 10.8667 451.8 11C453.2 11.2 453.633 12.1001 453.1 13.7001L447.2 29.9C446.667 31.5 445.833 32.3 444.7 32.3C443.3 32.3 442.433 31.5 442.1 29.9L440 19.2001L436.1 29.9C435.5 31.5 434.633 32.3 433.5 32.3C432.167 32.3 431.333 31.5 431 29.9L427.8 13.7001C427.467 12.0334 427.933 11.1333 429.2 11C430.4 10.8 431.133 11.6333 431.4 13.5L433.8 27L438.3 13.5C438.833 11.8333 439.567 11 440.5 11C441.567 11 442.267 11.8333 442.6 13.5V13.5ZM464.6 32.4C458.533 32.4 455.467 29.3001 455.4 23.1001C455.4 19.0334 456.8 15.8668 459.6 13.6001C462.8 11.0668 466.167 10.3334 469.7 11.4C470.1 11.0667 470.733 11.0001 471.6 11.2001C473.2 11.5334 473.833 12.5334 473.5 14.2001C473.233 15.8667 473.067 18.6333 473 22.5C472.933 25.6333 473.267 27.8334 474 29.1001C475.2 31.0334 475.067 32.1334 473.6 32.4C471.867 32.7334 470.867 32.0334 470.6 30.3C467.867 31.7 465.867 32.4 464.6 32.4V32.4ZM466.9 28.5C467.367 28.3 468.2 27.7334 469.4 26.8C468.933 21.2 469 17.3667 469.6 15.3C468.333 14.5 466.967 14.2668 465.5 14.6001C464.5 14.8668 463.733 15.2001 463.2 15.6001C460.8 17.2668 459.533 19.6334 459.4 22.7001C459.4 26.6334 460.8 28.7 463.6 28.9C464.8 28.9667 465.9 28.8333 466.9 28.5V28.5ZM483.5 28.5C486.5 28.7 488.333 28.3334 489 27.4C489.533 26.5334 489.233 25.5334 488.1 24.4C487.367 23.6 485.667 23.0334 483 22.7001C480.267 22.3001 478.667 21.2668 478.2 19.6001C477.867 18.3334 478 17.0334 478.6 15.7001C479.133 14.1667 479.967 13.0334 481.1 12.3C482.433 11.3667 484 10.8001 485.8 10.6001C487.733 10.4668 489.433 10.7334 490.9 11.4C492.833 12.3334 493.9 13.4001 494.1 14.6001C494.233 15.3334 493.967 15.9334 493.3 16.4C492.567 17.0667 491.433 16.6667 489.9 15.2001C489.1 14.4667 487.933 14.1334 486.4 14.2001C484.8 14.2667 483.6 14.7334 482.8 15.6001C482.133 16.3334 481.933 17.1 482.2 17.9C482.467 18.6334 483.4 19.0667 485 19.2001C486.267 19.3334 487.467 19.6667 488.6 20.2001C490.067 20.8001 491.1 21.4667 491.7 22.2001C493.033 23.7334 493.6 25.3333 493.4 27C493.2 28.6667 492.267 30.0334 490.6 31.1001C489.2 31.9668 487.4 32.4 485.2 32.4C483.333 32.4 481.8 32.2667 480.6 32C479.867 31.8 478.967 31.4 477.9 30.8C476.967 30.2667 476.467 29.6 476.4 28.8C476.333 28 476.633 27.4 477.3 27C478.033 26.5333 478.867 26.6001 479.8 27.2001C481 28.0001 482.233 28.4333 483.5 28.5V28.5ZM505.7 0C507.033 0 507.7 0.633358 507.7 1.90002C507.7 5.23336 507.633 8.26667 507.5 11H511.6C513.267 10.9333 514.1 11.5667 514.1 12.9C514.1 14.2334 513.333 14.9 511.8 14.9C510.333 14.9 508.867 14.9 507.4 14.9L507.1 30.1001C507.1 31.5001 506.367 32.1668 504.9 32.1001C503.7 32.1001 503.1 31.4 503.1 30L503.5 14.9C501.9 14.9 500.3 14.9 498.7 14.9C497.567 14.9 497 14.2667 497 13C497 11.6667 497.633 11 498.9 11C500.433 11 502 11 503.6 11L503.8 1.80005C503.8 0.600049 504.433 0 505.7 0V0ZM534 21L520.4 22.9C520.533 24.3667 521.233 25.6334 522.5 26.7001C524.033 28.0334 525.733 28.6668 527.6 28.6001C530.333 28.6001 532.167 28.1001 533.1 27.1001C534.033 26.1001 534.8 25.5334 535.4 25.4C536 25.3334 536.433 25.5333 536.7 26C537.367 27.2 537.067 28.3334 535.8 29.4C533.667 31.2667 530.867 32.1668 527.4 32.1001C524.8 32.1001 522.533 31.3334 520.6 29.8C518.2 27.9334 517 25.3668 517 22.1001C517 19.4334 517.767 17.0667 519.3 15C521.167 12.4 523.6 11 526.6 10.8C529.733 10.6 532.167 11.3333 533.9 13C535.567 14.5333 536.367 16.3 536.3 18.3C536.233 19.9 535.467 20.8 534 21V21ZM520.9 19.7001L532.8 18C532.6 16.8667 531.967 16 530.9 15.4C529.767 14.6667 528.533 14.3 527.2 14.3C525.333 14.3 523.7 15.1001 522.3 16.7001C521.767 17.3667 521.3 18.3667 520.9 19.7001V19.7001ZM3.79999 69C5.19999 69 5.89996 69.6334 5.89996 70.9C5.89996 71.1667 5.89996 71.4334 5.89996 71.7001C7.4333 70.5667 8.9333 70 10.4 70C12.2 69.9333 13.6667 70.2 14.8 70.8C16.8667 71.8 17.7 72.8 17.3 73.8C16.7 75.4667 15.6333 75.8 14.1 74.8C12.9 74 11.5 73.7668 9.89996 74.1001C8.4333 74.3668 7.06665 75.1 5.79999 76.3L5.39996 89.1001C5.39996 90.5001 4.66668 91.1668 3.20001 91.1001C2.00001 91.1001 1.43333 90.4 1.5 89L1.89996 70.8C1.96663 69.6 2.59999 69 3.79999 69V69ZM37.5 80L23.9 81.9C23.9666 83.3667 24.6667 84.6334 26 85.7001C27.4667 87.0334 29.1666 87.6668 31.1 87.6001C33.8333 87.6001 35.6666 87.1001 36.6 86.1001C37.4666 85.1001 38.2 84.5334 38.8 84.4C39.4667 84.3334 39.9333 84.5333 40.2 85C40.8 86.2 40.5 87.3334 39.3 88.4C37.1667 90.2667 34.3333 91.1668 30.8 91.1001C28.2667 91.1001 26.0333 90.3334 24.1 88.8C21.7 86.9334 20.5 84.3668 20.5 81.1001C20.5 78.4334 21.2333 76.0667 22.7 74C24.6333 71.4 27.0667 70 30 69.8C33.1333 69.6 35.5667 70.3333 37.3 72C38.9667 73.5333 39.7667 75.3 39.7 77.3C39.6333 78.9 38.9 79.8 37.5 80V80ZM24.3 78.7001L36.2 77C36 75.8667 35.4 75 34.4 74.4C33.2 73.6667 31.9333 73.3 30.6 73.3C28.7333 73.3 27.1333 74.1001 25.8 75.7001C25.2 76.3667 24.7 77.3667 24.3 78.7001V78.7001ZM45.2 75.5C43.8 75.5 43.1 74.8668 43.1 73.6001C43.1 72.2668 43.9 71.6001 45.5 71.6001H48.6C48.7333 66.6001 49.4333 63.2333 50.7 61.5C51.7667 60.0333 53.7333 59.2667 56.6 59.2001C59.4666 59.1334 60.7667 59.8001 60.5 61.2001C60.3 62.4667 59.4 63.0334 57.8 62.9C55.2667 62.6334 53.7 63.5667 53.1 65.7001C52.7 66.9001 52.5333 68.8668 52.6 71.6001H57.2C59 71.6001 59.9333 72.2 60 73.4C60.0667 74.8 59.2333 75.5 57.5 75.5H52.5L52.3 89.2001C52.2333 90.6667 51.5 91.3667 50.1 91.3C48.8333 91.3 48.2333 90.6001 48.3 89.2001L48.5 75.5H45.2ZM81.2 80L67.6 81.9C67.6666 83.3667 68.3667 84.6334 69.7 85.7001C71.1667 87.0334 72.8667 87.6668 74.8 87.6001C77.5333 87.6001 79.3667 87.1001 80.3 86.1001C81.2333 85.1001 81.9667 84.5334 82.5 84.4C83.1667 84.3334 83.6333 84.5333 83.9 85C84.5 86.2 84.2 87.3334 83 88.4C80.8667 90.2667 78.0333 91.1668 74.5 91.1001C71.9667 91.1001 69.7333 90.3334 67.8 88.8C65.4 86.9334 64.2 84.3668 64.2 81.1001C64.2 78.4334 64.9333 76.0667 66.4 74C68.3333 71.4 70.8 70 73.8 69.8C76.8667 69.6 79.2667 70.3333 81 72C82.6667 73.5333 83.4666 75.3 83.4 77.3C83.4 78.9 82.6667 79.8 81.2 80V80ZM68.1 78.7001L79.9 77C79.7 75.8667 79.1 75 78.1 74.4C76.9 73.6667 75.6333 73.3 74.3 73.3C72.4333 73.3 70.8333 74.1001 69.5 75.7001C68.9 76.3667 68.4333 77.3667 68.1 78.7001V78.7001ZM90.1 69C91.5 69 92.2 69.6334 92.2 70.9C92.2 71.1667 92.2 71.4334 92.2 71.7001C93.6667 70.5667 95.1333 70 96.6 70C98.4 69.9333 99.9 70.2 101.1 70.8C103.1 71.8 103.933 72.8 103.6 73.8C103 75.4667 101.933 75.8 100.4 74.8C99.2 74 97.8 73.7668 96.2 74.1001C94.6667 74.3668 93.2667 75.1 92 76.3L91.7 89.1001C91.6333 90.5001 90.9 91.1668 89.5 91.1001C88.3 91.1001 87.7 90.4 87.7 89L88.2 70.8C88.2 69.6 88.8333 69 90.1 69V69ZM112.9 87.5C115.9 87.7 117.733 87.3334 118.4 86.4C118.933 85.5334 118.633 84.5334 117.5 83.4C116.767 82.6 115.067 82.0334 112.4 81.7001C109.6 81.3001 108 80.2668 107.6 78.6001C107.267 77.3334 107.367 76.0334 107.9 74.7001C108.5 73.1667 109.367 72.0334 110.5 71.3C111.833 70.3667 113.367 69.8001 115.1 69.6001C117.1 69.4668 118.833 69.7334 120.3 70.4C122.233 71.3334 123.3 72.4001 123.5 73.6001C123.633 74.3334 123.367 74.9334 122.7 75.4C121.967 76.0667 120.8 75.6667 119.2 74.2001C118.467 73.4667 117.333 73.1334 115.8 73.2001C114.133 73.2667 112.933 73.7334 112.2 74.6001C111.533 75.3334 111.333 76.1 111.6 76.9C111.8 77.6334 112.733 78.0667 114.4 78.2001C115.667 78.3334 116.833 78.6667 117.9 79.2001C119.433 79.8001 120.467 80.4667 121 81.2001C122.4 82.7334 123 84.3333 122.8 86C122.533 87.6667 121.567 89.0334 119.9 90.1001C118.567 90.9668 116.8 91.4 114.6 91.4C112.667 91.4 111.1 91.2667 109.9 91C109.233 90.8 108.367 90.4 107.3 89.8C106.367 89.2667 105.867 88.6 105.8 87.8C105.733 87 106 86.4 106.6 86C107.4 85.5333 108.267 85.6001 109.2 86.2001C110.4 87.0001 111.633 87.4333 112.9 87.5V87.5ZM147.4 59C148.8 59 149.5 59.6334 149.5 60.9C149.433 64.2334 149.367 67.2667 149.3 70H153.4C155.067 69.9333 155.9 70.5667 155.9 71.9C155.9 73.2334 155.1 73.9 153.5 73.9C152.033 73.9 150.6 73.9 149.2 73.9L148.8 89.1001C148.8 90.5001 148.067 91.1668 146.6 91.1001C145.4 91.1001 144.833 90.4 144.9 89L145.2 73.9C143.6 73.9 142.033 73.9 140.5 73.9C139.3 73.9 138.7 73.2667 138.7 72C138.7 70.6667 139.333 70 140.6 70C142.2 70 143.767 70 145.3 70L145.5 60.8C145.567 59.6 146.2 59 147.4 59V59ZM168.6 73.9C166.8 73.9 165.467 74.4668 164.6 75.6001C163.267 77.4001 162.6 79.3667 162.6 81.5C162.6 83.5 163.067 85 164 86C165 87.0667 166.167 87.6001 167.5 87.6001C168.967 87.6001 170.2 87.0667 171.2 86C172.267 84.9333 172.8 83.1667 172.8 80.7001C172.8 76.1001 171.4 73.8334 168.6 73.9V73.9ZM168.4 69.9C173.867 69.9667 176.6 73.7001 176.6 81.1001C176.533 84.2334 175.8 86.6334 174.4 88.3C172.8 90.3 170.333 91.3 167 91.3C164.6 91.2334 162.567 90.2667 160.9 88.4C159.367 86.6667 158.6 84.2334 158.6 81.1001C158.6 78.1668 159.5 75.5334 161.3 73.2001C163.1 71.0001 165.467 69.9 168.4 69.9V69.9ZM211.3 59C212.7 59 213.4 59.6334 213.4 60.9L212.8 89.1001C212.8 90.5001 212.067 91.1668 210.6 91.1001C209.533 91.1001 208.933 90.5667 208.8 89.5C206.8 90.7 204.667 91.3 202.4 91.3C200.067 91.3 198 90.4334 196.2 88.7001C194.267 86.7667 193.233 84.5333 193.1 82C192.967 78.5333 193.9 75.6334 195.9 73.3C197.767 71.1 200.2 70 203.2 70C204.8 70 206.233 70.3333 207.5 71C208.1 71.3333 208.667 71.6667 209.2 72L209.5 60.8C209.5 59.6 210.1 59 211.3 59V59ZM208.9 85.1001C209.033 82.3668 209.1 79.5 209.1 76.5C206.7 74.1 204.333 73.1667 202 73.7001C200.333 74.1667 199.133 74.8334 198.4 75.7001C197.333 76.9667 196.767 78.7668 196.7 81.1001C196.633 82.5668 197.2 84 198.4 85.4C199.267 86.6 200.6 87.3 202.4 87.5C204.333 87.7 206.5 86.9001 208.9 85.1001ZM221.7 61.1001C221.7 61.1001 221.733 61.1001 221.8 61.1001C222.267 61.1001 222.7 61.2 223.1 61.4C223.5 61.6667 223.8 62 224 62.4C224.2 62.7334 224.3 63.1 224.3 63.5C224.3 63.5667 224.3 63.6334 224.3 63.7001C224.233 64.1667 224.067 64.6 223.8 65C223.533 65.3333 223.233 65.5667 222.9 65.7001C222.567 65.9001 222.2 66 221.8 66C221.733 66 221.667 66 221.6 66C221.2 65.9333 220.833 65.8001 220.5 65.6001C220.1 65.4001 219.8 65.1334 219.6 64.8C219.4 64.4 219.3 63.9667 219.3 63.5C219.3 63.1 219.4 62.7334 219.6 62.4C219.8 62 220.1 61.7 220.5 61.5C220.833 61.2333 221.233 61.1001 221.7 61.1001V61.1001ZM221.6 69.9C222.867 69.9667 223.467 70.8333 223.4 72.5L223.2 88.6001C223.133 90.4001 222.467 91.3 221.2 91.3C219.8 91.3 219.1 90.4667 219.1 88.8L219.5 72.5C219.5 70.7667 220.2 69.9 221.6 69.9V69.9ZM234.9 87.5C237.967 87.7 239.833 87.3334 240.5 86.4C241.033 85.5334 240.733 84.5334 239.6 83.4C238.8 82.6 237.067 82.0334 234.4 81.7001C231.667 81.3001 230.1 80.2668 229.7 78.6001C229.367 77.3334 229.467 76.0334 230 74.7001C230.6 73.1667 231.467 72.0334 232.6 71.3C233.933 70.3667 235.467 69.8001 237.2 69.6001C239.133 69.4668 240.867 69.7334 242.4 70.4C244.333 71.3334 245.367 72.4001 245.5 73.6001C245.633 74.3334 245.4 74.9334 244.8 75.4C244 76.0667 242.833 75.6667 241.3 74.2001C240.5 73.4667 239.333 73.1334 237.8 73.2001C236.2 73.2667 235 73.7334 234.2 74.6001C233.533 75.3334 233.333 76.1 233.6 76.9C233.867 77.6334 234.8 78.0667 236.4 78.2001C237.733 78.3334 238.933 78.6667 240 79.2001C241.467 79.8001 242.5 80.4667 243.1 81.2001C244.433 82.7334 245 84.3333 244.8 86C244.6 87.6667 243.667 89.0334 242 90.1001C240.667 90.9668 238.867 91.4 236.6 91.4C234.733 91.4 233.2 91.2667 232 91C231.267 90.8 230.367 90.4 229.3 89.8C228.367 89.2667 227.9 88.6 227.9 87.8C227.833 87 228.1 86.4 228.7 86C229.433 85.5333 230.3 85.6001 231.3 86.2001C232.5 87.0001 233.7 87.4333 234.9 87.5V87.5ZM263.5 86.2001C264.7 85.4001 265.7 85.6334 266.5 86.9C266.9 87.6334 266.533 88.4667 265.4 89.4C263.933 90.6667 261.6 91.2667 258.4 91.2001C255.867 91.2001 253.8 90.4334 252.2 88.9C250.133 86.9667 249.1 84.5667 249.1 81.7001C249.1 78.5001 249.833 75.8667 251.3 73.8C253.033 71.3334 255.3 70 258.1 69.8C259.7 69.7334 261.133 69.9 262.4 70.3C264.067 70.8334 265.167 71.5 265.7 72.3C266.5 73.5667 266.467 74.5001 265.6 75.1001C264.933 75.5668 263.967 75.3334 262.7 74.4C261.1 73.2667 259.3 73.0001 257.3 73.6001C256.167 73.9334 255.167 74.7333 254.3 76C253.233 77.4 252.7 79.0334 252.7 80.9C252.633 82.6334 253.133 84.2001 254.2 85.6001C255.2 86.9334 256.6 87.6334 258.4 87.7001C260.267 87.7667 261.967 87.2667 263.5 86.2001V86.2001ZM278.6 91.4C272.533 91.4 269.5 88.3001 269.5 82.1001C269.433 78.0334 270.8 74.8668 273.6 72.6001C276.867 70.0668 280.267 69.3334 283.8 70.4C284.2 70.0667 284.8 70.0001 285.6 70.2001C287.2 70.5334 287.867 71.5334 287.6 73.2001C287.267 74.8667 287.067 77.6333 287 81.5C286.933 84.6333 287.3 86.8334 288.1 88.1001C289.233 90.0334 289.067 91.1334 287.6 91.4C285.933 91.7334 284.967 91.0334 284.7 89.3C281.9 90.7 279.867 91.4 278.6 91.4V91.4ZM280.9 87.5C281.433 87.3 282.3 86.7334 283.5 85.8C282.967 80.2 283.033 76.3667 283.7 74.3C282.367 73.5 281 73.2668 279.6 73.6001C278.6 73.8668 277.8 74.2001 277.2 74.6001C274.8 76.2668 273.533 78.6334 273.4 81.7001C273.467 85.6334 274.867 87.7 277.6 87.9C278.8 87.9667 279.9 87.8333 280.9 87.5V87.5ZM294.6 69C296 69 296.7 69.6334 296.7 70.9C296.7 71.1667 296.7 71.4334 296.7 71.7001C298.233 70.5667 299.733 70 301.2 70C303 69.9333 304.467 70.2 305.6 70.8C307.667 71.8 308.5 72.8 308.1 73.8C307.5 75.4667 306.433 75.8 304.9 74.8C303.7 74 302.3 73.7668 300.7 74.1001C299.233 74.3668 297.867 75.1 296.6 76.3L296.2 89.1001C296.2 90.5001 295.467 91.1668 294 91.1001C292.8 91.1001 292.233 90.4 292.3 89L292.7 70.8C292.767 69.6 293.4 69 294.6 69ZM329.7 59C331.1 59 331.8 59.6334 331.8 60.9L331.2 89.1001C331.133 90.5001 330.4 91.1668 329 91.1001C327.867 91.1001 327.267 90.5667 327.2 89.5C325.2 90.7 323.067 91.3 320.8 91.3C318.467 91.3 316.4 90.4334 314.6 88.7001C312.6 86.7667 311.567 84.5333 311.5 82C311.367 78.5333 312.3 75.6334 314.3 73.3C316.167 71.1 318.6 70 321.6 70C323.2 70 324.6 70.3333 325.8 71C326.467 71.3333 327.067 71.6667 327.6 72L327.9 60.8C327.9 59.6 328.5 59 329.7 59V59ZM327.3 85.1001C327.433 82.3668 327.5 79.5 327.5 76.5C325.1 74.1 322.733 73.1667 320.4 73.7001C318.733 74.1667 317.533 74.8334 316.8 75.7001C315.733 76.9667 315.167 78.7668 315.1 81.1001C315.033 82.5668 315.6 84 316.8 85.4C317.667 86.6 319 87.3 320.8 87.5C322.667 87.7 324.833 86.9001 327.3 85.1001V85.1001ZM352.6 80L339 81.9C339.067 83.3667 339.767 84.6334 341.1 85.7001C342.567 87.0334 344.267 87.6668 346.2 87.6001C348.933 87.6001 350.767 87.1001 351.7 86.1001C352.633 85.1001 353.367 84.5334 353.9 84.4C354.567 84.3334 355.033 84.5333 355.3 85C355.967 86.2 355.667 87.3334 354.4 88.4C352.267 90.2667 349.433 91.1668 345.9 91.1001C343.367 91.1001 341.133 90.3334 339.2 88.8C336.8 86.9334 335.6 84.3668 335.6 81.1001C335.6 78.4334 336.367 76.0667 337.9 74C339.767 71.4 342.2 70 345.2 69.8C348.267 69.6 350.7 70.3333 352.5 72C354.1 73.5333 354.867 75.3 354.8 77.3C354.8 78.9 354.067 79.8 352.6 80V80ZM339.5 78.7001L351.4 77C351.133 75.8667 350.5 75 349.5 74.4C348.3 73.6667 347.033 73.3 345.7 73.3C343.833 73.3 342.233 74.1001 340.9 75.7001C340.3 76.3667 339.833 77.3667 339.5 78.7001V78.7001ZM376.7 59C378.1 59 378.8 59.6334 378.8 60.9L378.1 89.1001C378.1 90.5001 377.367 91.1668 375.9 91.1001C374.833 91.1001 374.267 90.5667 374.2 89.5C372.2 90.7 370.067 91.3 367.8 91.3C365.467 91.3 363.4 90.4334 361.6 88.7001C359.6 86.7667 358.567 84.5333 358.5 82C358.367 78.5333 359.3 75.6334 361.3 73.3C363.167 71.1 365.6 70 368.6 70C370.2 70 371.6 70.3333 372.8 71C373.467 71.3333 374.067 71.6667 374.6 72L374.9 60.8C374.9 59.6 375.5 59 376.7 59V59ZM374.2 85.1001C374.4 82.3668 374.5 79.5 374.5 76.5C372.1 74.1 369.733 73.1667 367.4 73.7001C365.733 74.1667 364.5 74.8334 363.7 75.7001C362.633 76.9667 362.1 78.7668 362.1 81.1001C362.033 82.5668 362.567 84 363.7 85.4C364.633 86.6 366 87.3 367.8 87.5C369.667 87.7 371.8 86.9001 374.2 85.1001ZM412 80L398.4 81.9C398.467 83.3667 399.133 84.6334 400.4 85.7001C401.933 87.0334 403.633 87.6668 405.5 87.6001C408.3 87.6001 410.167 87.1001 411.1 86.1001C411.967 85.1001 412.7 84.5334 413.3 84.4C413.967 84.3334 414.433 84.5333 414.7 85C415.3 86.2 415 87.3334 413.8 88.4C411.6 90.2667 408.767 91.1668 405.3 91.1001C402.7 91.1001 400.433 90.3334 398.5 88.8C396.1 86.9334 394.9 84.3668 394.9 81.1001C394.9 78.4334 395.667 76.0667 397.2 74C399.067 71.4 401.5 70 404.5 69.8C407.633 69.6 410.067 70.3333 411.8 72C413.467 73.5333 414.267 75.3 414.2 77.3C414.133 78.9 413.4 79.8 412 80V80ZM398.8 78.7001L410.7 77C410.5 75.8667 409.9 75 408.9 74.4C407.7 73.6667 406.433 73.3 405.1 73.3C403.233 73.3 401.633 74.1001 400.3 75.7001C399.7 76.3667 399.2 77.3667 398.8 78.7001V78.7001ZM421.9 59C423.3 59 423.967 59.6334 423.9 60.9L423.3 89.1001C423.3 90.5001 422.567 91.1668 421.1 91.1001C419.9 91.1001 419.3 90.4 419.3 89L420 60.8C420.067 59.6 420.7 59 421.9 59V59ZM446 80L432.4 81.9C432.467 83.3667 433.167 84.6334 434.5 85.7001C435.967 87.0334 437.633 87.6668 439.5 87.6001C442.3 87.6001 444.167 87.1001 445.1 86.1001C445.967 85.1001 446.7 84.5334 447.3 84.4C447.967 84.3334 448.433 84.5333 448.7 85C449.3 86.2 449 87.3334 447.8 88.4C445.667 90.2667 442.833 91.1668 439.3 91.1001C436.7 91.1001 434.467 90.3334 432.6 88.8C430.2 86.9334 429 84.3668 429 81.1001C429 78.4334 429.733 76.0667 431.2 74C433.067 71.4 435.5 70 438.5 69.8C441.633 69.6 444.067 70.3333 445.8 72C447.467 73.5333 448.267 75.3 448.2 77.3C448.133 78.9 447.4 79.8 446 80V80ZM432.8 78.7001L444.7 77C444.5 75.8667 443.9 75 442.9 74.4C441.7 73.6667 440.433 73.3 439.1 73.3C437.233 73.3 435.633 74.1001 434.3 75.7001C433.7 76.3667 433.2 77.3667 432.8 78.7001V78.7001ZM466.2 86.2001C467.4 85.4001 468.367 85.6334 469.1 86.9C469.567 87.6334 469.233 88.4667 468.1 89.4C466.633 90.6667 464.3 91.2667 461.1 91.2001C458.567 91.2001 456.467 90.4334 454.8 88.9C452.8 86.9667 451.8 84.5667 451.8 81.7001C451.8 78.5001 452.533 75.8667 454 73.8C455.733 71.3334 457.967 70 460.7 69.8C462.367 69.7334 463.833 69.9 465.1 70.3C466.767 70.8334 467.867 71.5 468.4 72.3C469.2 73.5667 469.133 74.5001 468.2 75.1001C467.6 75.5668 466.633 75.3334 465.3 74.4C463.767 73.2667 462 73.0001 460 73.6001C458.867 73.9334 457.833 74.7333 456.9 76C455.9 77.4 455.367 79.0334 455.3 80.9C455.3 82.6334 455.833 84.2001 456.9 85.6001C457.9 86.9334 459.3 87.6334 461.1 87.7001C462.9 87.7667 464.6 87.2667 466.2 86.2001V86.2001ZM481 59C482.4 59 483.1 59.6334 483.1 60.9C483.1 64.2334 483.033 67.2667 482.9 70H487C488.667 69.9333 489.5 70.5667 489.5 71.9C489.5 73.2334 488.7 73.9 487.1 73.9C485.7 73.9 484.267 73.9 482.8 73.9L482.5 89.1001C482.5 90.5001 481.767 91.1668 480.3 91.1001C479.033 91.1001 478.433 90.4 478.5 89L478.9 73.9C477.3 73.9 475.7 73.9 474.1 73.9C472.967 73.9 472.4 73.2667 472.4 72C472.4 70.6667 473.033 70 474.3 70C475.833 70 477.4 70 479 70L479.2 60.8C479.2 59.6 479.8 59 481 59V59ZM495.6 69C497 69 497.7 69.6334 497.7 70.9C497.7 71.1667 497.7 71.4334 497.7 71.7001C499.233 70.5667 500.733 70 502.2 70C504 69.9333 505.467 70.2 506.6 70.8C508.667 71.8 509.5 72.8 509.1 73.8C508.5 75.4667 507.433 75.8 505.9 74.8C504.7 74 503.333 73.7668 501.8 74.1001C500.267 74.3668 498.867 75.1 497.6 76.3L497.2 89.1001C497.2 90.5001 496.467 91.1668 495 91.1001C493.8 91.1001 493.233 90.4 493.3 89L493.7 70.8C493.767 69.6 494.4 69 495.6 69ZM516.8 61.1001C516.8 61.1001 516.833 61.1001 516.9 61.1001C517.367 61.1001 517.767 61.2 518.1 61.4C518.567 61.6667 518.9 62 519.1 62.4C519.3 62.7334 519.4 63.1 519.4 63.5C519.4 63.5667 519.4 63.6334 519.4 63.7001C519.333 64.1667 519.167 64.6 518.9 65C518.633 65.3333 518.333 65.5667 518 65.7001C517.667 65.9001 517.267 66 516.8 66C516.8 66 516.767 66 516.7 66C516.3 65.9333 515.933 65.8001 515.6 65.6001C515.2 65.4001 514.9 65.1334 514.7 64.8C514.433 64.4 514.3 63.9667 514.3 63.5C514.3 63.1 514.433 62.7334 514.7 62.4C514.9 62 515.167 61.7 515.5 61.5C515.9 61.2333 516.333 61.1001 516.8 61.1001V61.1001ZM516.6 69.9C517.933 69.9667 518.567 70.8333 518.5 72.5L518.2 88.6001C518.2 90.4001 517.567 91.3 516.3 91.3C514.833 91.3 514.133 90.4667 514.2 88.8L514.5 72.5C514.567 70.7667 515.267 69.9 516.6 69.9ZM538.5 86.2001C539.633 85.4001 540.6 85.6334 541.4 86.9C541.8 87.6334 541.433 88.4667 540.3 89.4C538.833 90.6667 536.5 91.2667 533.3 91.2001C530.833 91.2001 528.767 90.4334 527.1 88.9C525.033 86.9667 524 84.5667 524 81.7001C524 78.5001 524.733 75.8667 526.2 73.8C528 71.3334 530.267 70 533 69.8C534.6 69.7334 536.067 69.9 537.4 70.3C539 70.8334 540.067 71.5 540.6 72.3C541.467 73.5667 541.433 74.5001 540.5 75.1001C539.833 75.5668 538.867 75.3334 537.6 74.4C536 73.2667 534.2 73.0001 532.2 73.6001C531.067 73.9334 530.067 74.7333 529.2 76C528.2 77.4 527.667 79.0334 527.6 80.9C527.533 82.6334 528.067 84.2001 529.2 85.6001C530.2 86.9334 531.567 87.6334 533.3 87.7001C535.167 87.7667 536.9 87.2667 538.5 86.2001V86.2001ZM553.5 91.4C547.5 91.4 544.467 88.3001 544.4 82.1001C544.333 78.0334 545.733 74.8668 548.6 72.6001C551.8 70.0668 555.167 69.3334 558.7 70.4C559.1 70.0667 559.7 70.0001 560.5 70.2001C562.1 70.5334 562.767 71.5334 562.5 73.2001C562.167 74.8667 561.967 77.6333 561.9 81.5C561.833 84.6333 562.2 86.8334 563 88.1001C564.133 90.0334 563.967 91.1334 562.5 91.4C560.833 91.7334 559.867 91.0334 559.6 89.3C556.8 90.7 554.767 91.4 553.5 91.4V91.4ZM555.9 87.5C556.367 87.3 557.2 86.7334 558.4 85.8C557.933 80.2 558 76.3667 558.6 74.3C557.267 73.5 555.9 73.2668 554.5 73.6001C553.5 73.8668 552.7 74.2001 552.1 74.6001C549.7 76.2668 548.433 78.6334 548.3 81.7001C548.367 85.6334 549.8 87.7 552.6 87.9C553.733 87.9667 554.833 87.8333 555.9 87.5V87.5ZM570.6 59C572 59 572.667 59.6334 572.6 60.9L572 89.1001C572 90.5001 571.267 91.1668 569.8 91.1001C568.6 91.1001 568 90.4 568 89L568.7 60.8C568.767 59.6 569.4 59 570.6 59V59ZM599.8 73.9C598.067 73.9 596.767 74.4668 595.9 75.6001C594.5 77.4001 593.8 79.3667 593.8 81.5C593.8 83.5 594.3 85 595.3 86C596.3 87.0667 597.433 87.6001 598.7 87.6001C600.167 87.6001 601.433 87.0667 602.5 86C603.567 84.9333 604.1 83.1667 604.1 80.7001C604.1 76.1001 602.667 73.8334 599.8 73.9V73.9ZM599.7 69.9C605.1 69.9667 607.8 73.7001 607.8 81.1001C607.8 84.2334 607.067 86.6334 605.6 88.3C604 90.3 601.567 91.3 598.3 91.3C595.9 91.2334 593.833 90.2667 592.1 88.4C590.633 86.6667 589.9 84.2334 589.9 81.1001C589.9 78.1668 590.8 75.5334 592.6 73.2001C594.4 71.0001 596.767 69.9 599.7 69.9V69.9ZM615 69C616.4 69 617.1 69.6334 617.1 70.9C617.1 71.1667 617.1 71.4334 617.1 71.7001C618.633 70.5667 620.133 70 621.6 70C623.4 69.9333 624.867 70.2 626 70.8C628.067 71.8 628.9 72.8 628.5 73.8C627.9 75.4667 626.833 75.8 625.3 74.8C624.1 74 622.7 73.7668 621.1 74.1001C619.633 74.3668 618.267 75.1 617 76.3L616.6 89.1001C616.6 90.5001 615.867 91.1668 614.4 91.1001C613.2 91.1001 612.633 90.4 612.7 89L613.1 70.8C613.167 69.6 613.8 69 615 69ZM17.6 140L4 141.9C4.06667 143.367 4.76664 144.633 6.09998 145.7C7.56664 147.033 9.26668 147.667 11.2 147.6C13.9333 147.6 15.7667 147.1 16.7 146.1C17.6333 145.1 18.3666 144.533 18.9 144.4C19.5666 144.333 20.0333 144.533 20.3 145C20.9667 146.2 20.6666 147.333 19.4 148.4C17.2666 150.267 14.4333 151.167 10.9 151.1C8.36663 151.1 6.13335 150.333 4.20001 148.8C1.80001 146.933 0.599976 144.367 0.599976 141.1C0.599976 138.433 1.33332 136.067 2.79999 134C4.73332 131.4 7.20001 130 10.2 129.8C13.2667 129.6 15.7 130.333 17.5 132C19.1 133.533 19.8667 135.3 19.8 137.3C19.8 138.9 19.0666 139.8 17.6 140V140ZM4.5 138.7L16.3 137C16.1 135.867 15.5 135 14.5 134.4C13.3 133.667 12.0333 133.3 10.7 133.3C8.83335 133.3 7.2333 134.1 5.89996 135.7C5.29996 136.367 4.83333 137.367 4.5 138.7V138.7ZM27.5 119C28.9 119 29.6 119.633 29.6 120.9L28.9 149.1C28.9 150.5 28.1667 151.167 26.7 151.1C25.5 151.1 24.9333 150.4 25 149L25.7 120.8C25.7 119.6 26.3 119 27.5 119V119ZM51.6 140L38 141.9C38.0667 143.367 38.7666 144.633 40.1 145.7C41.5666 147.033 43.2667 147.667 45.2 147.6C47.9333 147.6 49.7667 147.1 50.7 146.1C51.6333 145.1 52.3666 144.533 52.9 144.4C53.5666 144.333 54.0333 144.533 54.3 145C54.9667 146.2 54.6666 147.333 53.4 148.4C51.2666 150.267 48.4333 151.167 44.9 151.1C42.3666 151.1 40.1333 150.333 38.2 148.8C35.8 146.933 34.6 144.367 34.6 141.1C34.6 138.433 35.3666 136.067 36.9 134C38.7666 131.4 41.2 130 44.2 129.8C47.2667 129.6 49.7 130.333 51.5 132C53.1 133.533 53.8667 135.3 53.8 137.3C53.8 138.9 53.0666 139.8 51.6 140V140ZM38.5 138.7L50.4 137C50.1333 135.867 49.5 135 48.5 134.4C47.3 133.667 46.0333 133.3 44.7 133.3C42.8333 133.3 41.2333 134.1 39.9 135.7C39.3 136.367 38.8333 137.367 38.5 138.7V138.7ZM71.9 146.2C73.0333 145.4 74 145.633 74.8 146.9C75.2 147.633 74.8333 148.467 73.7 149.4C72.2333 150.667 69.9 151.267 66.7 151.2C64.2333 151.2 62.1667 150.433 60.5 148.9C58.4333 146.967 57.4 144.567 57.4 141.7C57.4 138.5 58.1333 135.867 59.6 133.8C61.4 131.333 63.6666 130 66.4 129.8C68 129.733 69.4667 129.9 70.8 130.3C72.4 130.833 73.4667 131.5 74 132.3C74.8 133.567 74.7666 134.5 73.9 135.1C73.2333 135.567 72.2667 135.333 71 134.4C69.4 133.267 67.6 133 65.6 133.6C64.4666 133.933 63.4666 134.733 62.6 136C61.5333 137.4 61 139.033 61 140.9C60.9333 142.633 61.4666 144.2 62.6 145.6C63.6 146.933 64.9667 147.633 66.7 147.7C68.5667 147.767 70.3 147.267 71.9 146.2ZM86.7 119C88.0333 119 88.7 119.633 88.7 120.9C88.7 124.233 88.6333 127.267 88.5 130H92.7C94.3 129.933 95.1 130.567 95.1 131.9C95.1 133.233 94.3333 133.9 92.8 133.9C91.3333 133.9 89.8666 133.9 88.4 133.9L88.1 149.1C88.1 150.5 87.3666 151.167 85.9 151.1C84.7 151.1 84.1 150.4 84.1 149L84.5 133.9C82.9 133.9 81.3 133.9 79.7 133.9C78.5667 133.9 78 133.267 78 132C78 130.667 78.6333 130 79.9 130C81.4333 130 83 130 84.6 130L84.8 120.8C84.8 119.6 85.4333 119 86.7 119V119ZM101.3 129C102.633 129 103.3 129.633 103.3 130.9C103.3 131.167 103.3 131.433 103.3 131.7C104.833 130.567 106.333 130 107.8 130C109.6 129.933 111.067 130.2 112.2 130.8C114.267 131.8 115.133 132.8 114.8 133.8C114.2 135.467 113.1 135.8 111.5 134.8C110.3 134 108.933 133.767 107.4 134.1C105.867 134.367 104.467 135.1 103.2 136.3L102.9 149.1C102.833 150.5 102.1 151.167 100.7 151.1C99.5 151.1 98.9 150.4 98.9 149L99.4 130.8C99.4 129.6 100.033 129 101.3 129ZM127.7 133.9C125.967 133.9 124.667 134.467 123.8 135.6C122.4 137.4 121.7 139.367 121.7 141.5C121.7 143.5 122.2 145 123.2 146C124.2 147.067 125.333 147.6 126.6 147.6C128.067 147.6 129.3 147.067 130.3 146C131.367 144.933 131.933 143.167 132 140.7C132 136.1 130.567 133.833 127.7 133.9V133.9ZM127.6 129.9C133 129.967 135.7 133.7 135.7 141.1C135.7 144.233 134.967 146.633 133.5 148.3C131.9 150.3 129.433 151.3 126.1 151.3C123.7 151.233 121.667 150.267 120 148.4C118.533 146.667 117.8 144.233 117.8 141.1C117.8 138.167 118.7 135.533 120.5 133.2C122.233 131 124.6 129.9 127.6 129.9ZM142.9 129C144.367 129 145.067 129.633 145 130.9C145 131.3 145 131.7 145 132.1C146.467 130.833 148.333 130.2 150.6 130.2C155.667 130.2 158.167 133.133 158.1 139L157.9 148.8C157.9 150.333 157.267 151.167 156 151.3C154.533 151.433 153.8 150.7 153.8 149.1L154.1 139.9C154.167 136.3 153.1 134.433 150.9 134.3C149.033 134.167 147.033 135.133 144.9 137.2L144.5 149C144.5 150.4 143.767 151.067 142.3 151C141.1 151 140.533 150.3 140.6 148.9L141 130.8C141.067 129.6 141.7 129 142.9 129V129ZM165.8 121.1C165.867 121.1 165.9 121.1 165.9 121.1C166.367 121.1 166.8 121.2 167.2 121.4C167.6 121.667 167.933 122 168.2 122.4C168.333 122.733 168.4 123.1 168.4 123.5C168.4 123.567 168.4 123.633 168.4 123.7C168.4 124.167 168.233 124.6 167.9 125C167.633 125.333 167.333 125.567 167 125.7C166.667 125.9 166.3 126 165.9 126C165.833 126 165.8 126 165.8 126C165.4 125.933 165 125.8 164.6 125.6C164.267 125.4 163.967 125.133 163.7 124.8C163.5 124.4 163.4 123.967 163.4 123.5C163.4 123.1 163.5 122.733 163.7 122.4C163.967 122 164.267 121.7 164.6 121.5C165 121.233 165.4 121.1 165.8 121.1V121.1ZM165.7 129.9C166.967 129.967 167.6 130.833 167.6 132.5L167.3 148.6C167.3 150.4 166.667 151.3 165.4 151.3C163.933 151.3 163.233 150.467 163.3 148.8L163.6 132.5C163.667 130.767 164.367 129.9 165.7 129.9ZM187.5 146.2C188.7 145.4 189.667 145.633 190.4 146.9C190.867 147.633 190.533 148.467 189.4 149.4C187.933 150.667 185.6 151.267 182.4 151.2C179.867 151.2 177.8 150.433 176.2 148.9C174.133 146.967 173.1 144.567 173.1 141.7C173.1 138.5 173.833 135.867 175.3 133.8C177.033 131.333 179.3 130 182.1 129.8C183.7 129.733 185.133 129.9 186.4 130.3C188.067 130.833 189.167 131.5 189.7 132.3C190.5 133.567 190.467 134.5 189.6 135.1C188.933 135.567 187.933 135.333 186.6 134.4C185.067 133.267 183.3 133 181.3 133.6C180.167 133.933 179.167 134.733 178.3 136C177.233 137.4 176.7 139.033 176.7 140.9C176.633 142.633 177.133 144.2 178.2 145.6C179.2 146.933 180.6 147.633 182.4 147.7C184.2 147.767 185.9 147.267 187.5 146.2V146.2ZM225 119C226.4 119 227.1 119.633 227.1 120.9L226.5 149.1C226.433 150.5 225.7 151.167 224.3 151.1C223.167 151.1 222.567 150.567 222.5 149.5C220.5 150.7 218.367 151.3 216.1 151.3C213.767 151.3 211.7 150.433 209.9 148.7C207.9 146.767 206.867 144.533 206.8 142C206.667 138.533 207.6 135.633 209.6 133.3C211.467 131.1 213.9 130 216.9 130C218.5 130 219.9 130.333 221.1 131C221.767 131.333 222.367 131.667 222.9 132L223.2 120.8C223.2 119.6 223.8 119 225 119V119ZM222.6 145.1C222.733 142.367 222.8 139.5 222.8 136.5C220.4 134.1 218.033 133.167 215.7 133.7C214.033 134.167 212.8 134.833 212 135.7C211 136.967 210.467 138.767 210.4 141.1C210.333 142.567 210.867 144 212 145.4C212.933 146.6 214.3 147.3 216.1 147.5C217.967 147.7 220.133 146.9 222.6 145.1ZM247.9 140L234.3 141.9C234.367 143.367 235.067 144.633 236.4 145.7C237.867 147.033 239.567 147.667 241.5 147.6C244.233 147.6 246.067 147.1 247 146.1C247.933 145.1 248.667 144.533 249.2 144.4C249.867 144.333 250.333 144.533 250.6 145C251.267 146.2 250.967 147.333 249.7 148.4C247.567 150.267 244.733 151.167 241.2 151.1C238.667 151.1 236.433 150.333 234.5 148.8C232.1 146.933 230.9 144.367 230.9 141.1C230.9 138.433 231.633 136.067 233.1 134C235.033 131.4 237.5 130 240.5 129.8C243.567 129.6 246 130.333 247.8 132C249.4 133.533 250.167 135.3 250.1 137.3C250.1 138.9 249.367 139.8 247.9 140V140ZM234.8 138.7L246.6 137C246.4 135.867 245.8 135 244.8 134.4C243.6 133.667 242.333 133.3 241 133.3C239.133 133.3 237.533 134.1 236.2 135.7C235.6 136.367 235.133 137.367 234.8 138.7V138.7ZM254.2 130C255.533 129.4 256.5 129.933 257.1 131.6L262.2 145.2L267.3 131.6C267.9 129.933 268.867 129.4 270.2 130C271.333 130.467 271.6 131.5 271 133.1L264.6 149.1C264.067 150.5 263.267 151.2 262.2 151.2C261.2 151.2 260.4 150.5 259.8 149.1L253.4 133.1C252.733 131.5 253 130.467 254.2 130ZM278.2 121.1C278.2 121.1 278.233 121.1 278.3 121.1C278.767 121.1 279.167 121.2 279.5 121.4C279.967 121.667 280.3 122 280.5 122.4C280.7 122.733 280.8 123.1 280.8 123.5C280.8 123.567 280.8 123.633 280.8 123.7C280.733 124.167 280.567 124.6 280.3 125C280.033 125.333 279.733 125.567 279.4 125.7C279.067 125.9 278.7 126 278.3 126C278.233 126 278.167 126 278.1 126C277.7 125.933 277.333 125.8 277 125.6C276.6 125.4 276.3 125.133 276.1 124.8C275.833 124.4 275.7 123.967 275.7 123.5C275.7 123.1 275.833 122.733 276.1 122.4C276.3 122 276.567 121.7 276.9 121.5C277.3 121.233 277.733 121.1 278.2 121.1V121.1ZM278.1 129.9C279.367 129.967 279.967 130.833 279.9 132.5L279.6 148.6C279.6 150.4 278.967 151.3 277.7 151.3C276.233 151.3 275.533 150.467 275.6 148.8L275.9 132.5C275.967 130.767 276.7 129.9 278.1 129.9ZM299.9 146.2C301.1 145.4 302.067 145.633 302.8 146.9C303.267 147.633 302.9 148.467 301.7 149.4C300.233 150.667 297.9 151.267 294.7 151.2C292.233 151.2 290.167 150.433 288.5 148.9C286.433 146.967 285.4 144.567 285.4 141.7C285.4 138.5 286.133 135.867 287.6 133.8C289.4 131.333 291.667 130 294.4 129.8C296 129.733 297.467 129.9 298.8 130.3C300.4 130.833 301.467 131.5 302 132.3C302.867 133.567 302.833 134.5 301.9 135.1C301.233 135.567 300.267 135.333 299 134.4C297.4 133.267 295.6 133 293.6 133.6C292.533 133.933 291.533 134.733 290.6 136C289.6 137.4 289.067 139.033 289 140.9C288.933 142.633 289.467 144.2 290.6 145.6C291.6 146.933 292.967 147.633 294.7 147.7C296.567 147.767 298.3 147.267 299.9 146.2V146.2ZM323.6 140L310 141.9C310.067 143.367 310.733 144.633 312 145.7C313.533 147.033 315.233 147.667 317.1 147.6C319.9 147.6 321.767 147.1 322.7 146.1C323.567 145.1 324.3 144.533 324.9 144.4C325.567 144.333 326.033 144.533 326.3 145C326.9 146.2 326.6 147.333 325.4 148.4C323.2 150.267 320.367 151.167 316.9 151.1C314.3 151.1 312.033 150.333 310.1 148.8C307.7 146.933 306.5 144.367 306.5 141.1C306.5 138.433 307.267 136.067 308.8 134C310.667 131.4 313.1 130 316.1 129.8C319.233 129.6 321.667 130.333 323.4 132C325.067 133.533 325.867 135.3 325.8 137.3C325.733 138.9 325 139.8 323.6 140V140ZM310.4 138.7L322.3 137C322.1 135.867 321.5 135 320.5 134.4C319.3 133.667 318.033 133.3 316.7 133.3C314.833 133.3 313.233 134.1 311.9 135.7C311.3 136.367 310.8 137.367 310.4 138.7V138.7ZM335.3 147.5C338.367 147.7 340.233 147.333 340.9 146.4C341.433 145.533 341.133 144.533 340 143.4C339.267 142.6 337.567 142.033 334.9 141.7C332.1 141.3 330.5 140.267 330.1 138.6C329.767 137.333 329.867 136.033 330.4 134.7C331 133.167 331.867 132.033 333 131.3C334.333 130.367 335.867 129.8 337.6 129.6C339.6 129.467 341.333 129.733 342.8 130.4C344.733 131.333 345.8 132.4 346 133.6C346.067 134.333 345.8 134.933 345.2 135.4C344.467 136.067 343.3 135.667 341.7 134.2C340.9 133.467 339.767 133.133 338.3 133.2C336.633 133.267 335.4 133.733 334.6 134.6C333.933 135.333 333.767 136.1 334.1 136.9C334.3 137.633 335.233 138.067 336.9 138.2C338.167 138.333 339.333 138.667 340.4 139.2C341.867 139.8 342.9 140.467 343.5 141.2C344.9 142.733 345.467 144.333 345.2 146C345 147.667 344.067 149.033 342.4 150.1C341.067 150.967 339.267 151.4 337 151.4C335.133 151.4 333.6 151.267 332.4 151C331.667 150.8 330.8 150.4 329.8 149.8C328.867 149.267 328.367 148.6 328.3 147.8C328.233 147 328.5 146.4 329.1 146C329.9 145.533 330.767 145.6 331.7 146.2C332.9 147 334.1 147.433 335.3 147.5V147.5ZM371.5 133.9C369.767 133.9 368.467 134.467 367.6 135.6C366.267 137.4 365.6 139.367 365.6 141.5C365.6 143.5 366.067 145 367 146C368 147.067 369.133 147.6 370.4 147.6C371.933 147.6 373.2 147.067 374.2 146C375.267 144.933 375.8 143.167 375.8 140.7C375.8 136.1 374.367 133.833 371.5 133.9V133.9ZM371.4 129.9C376.867 129.967 379.567 133.7 379.5 141.1C379.5 144.233 378.8 146.633 377.4 148.3C375.733 150.3 373.267 151.3 370 151.3C367.6 151.233 365.567 150.267 363.9 148.4C362.367 146.667 361.6 144.233 361.6 141.1C361.6 138.167 362.5 135.533 364.3 133.2C366.1 131 368.467 129.9 371.4 129.9ZM386.8 129C388.133 129 388.8 129.633 388.8 130.9C388.8 131.167 388.8 131.433 388.8 131.7C390.333 130.567 391.833 130 393.3 130C395.1 129.933 396.567 130.2 397.7 130.8C399.767 131.8 400.6 132.8 400.2 133.8C399.6 135.467 398.533 135.8 397 134.8C395.8 134 394.433 133.767 392.9 134.1C391.367 134.367 389.967 135.1 388.7 136.3L388.3 149.1C388.3 150.5 387.6 151.167 386.2 151.1C384.933 151.1 384.333 150.4 384.4 149L384.9 130.8C384.9 129.6 385.533 129 386.8 129V129ZM430.4 146.2C431.533 145.4 432.5 145.633 433.3 146.9C433.7 147.633 433.333 148.467 432.2 149.4C430.733 150.667 428.4 151.267 425.2 151.2C422.733 151.2 420.667 150.433 419 148.9C416.933 146.967 415.9 144.567 415.9 141.7C415.9 138.5 416.633 135.867 418.1 133.8C419.9 131.333 422.167 130 424.9 129.8C426.5 129.733 427.967 129.9 429.3 130.3C430.9 130.833 431.967 131.5 432.5 132.3C433.3 133.567 433.267 134.5 432.4 135.1C431.733 135.567 430.767 135.333 429.5 134.4C427.9 133.267 426.1 133 424.1 133.6C422.967 133.933 421.967 134.733 421.1 136C420.033 137.4 419.5 139.033 419.5 140.9C419.433 142.633 419.967 144.2 421.1 145.6C422.033 146.933 423.4 147.633 425.2 147.7C427.067 147.767 428.8 147.267 430.4 146.2V146.2ZM446.8 133.9C445.067 133.9 443.767 134.467 442.9 135.6C441.5 137.4 440.8 139.367 440.8 141.5C440.8 143.5 441.3 145 442.3 146C443.3 147.067 444.433 147.6 445.7 147.6C447.167 147.6 448.4 147.067 449.4 146C450.467 144.933 451.033 143.167 451.1 140.7C451.1 136.1 449.667 133.833 446.8 133.9V133.9ZM446.7 129.9C452.1 129.967 454.8 133.7 454.8 141.1C454.8 144.233 454.067 146.633 452.6 148.3C451 150.3 448.533 151.3 445.2 151.3C442.8 151.233 440.767 150.267 439.1 148.4C437.633 146.667 436.9 144.233 436.9 141.1C436.9 138.167 437.8 135.533 439.6 133.2C441.4 131 443.767 129.9 446.7 129.9V129.9ZM461.7 129C463.1 129 463.767 129.633 463.7 130.9V131.7C464.9 130.7 466.367 130.2 468.1 130.2C470.9 130.133 472.8 131.067 473.8 133C475.133 131.133 477.2 130.2 480 130.2C485.067 130.2 487.567 133.133 487.5 139L487.3 148.7C487.3 150.3 486.667 151.133 485.4 151.2C483.933 151.333 483.233 150.633 483.3 149.1L483.4 140.1C483.467 136.233 482.433 134.3 480.3 134.3C477.833 134.233 476.133 135.3 475.2 137.5C475.2 137.567 475.2 137.967 475.2 138.7L474.9 148.4C474.9 150 474.267 150.833 473 150.9C471.6 151.033 470.933 150.333 471 148.8L471.2 139.9C471.267 136.167 470.267 134.267 468.2 134.2C465.867 134.133 464.333 135.433 463.6 138.1L463.2 148.9C463.2 150.3 462.5 151 461.1 151C459.833 150.933 459.233 150.233 459.3 148.9L459.8 130.8C459.8 129.6 460.433 129 461.7 129V129ZM493.7 161.4C492.3 161.4 491.6 160.767 491.6 159.5L492.3 131.3C492.3 129.9 493.033 129.2 494.5 129.2C495.167 129.267 495.7 129.667 496.1 130.4C496.767 129.867 498.333 129.6 500.8 129.6C503.2 129.667 505.267 130.6 507 132.4C508.8 134.2 509.7 136.3 509.7 138.7C509.7 142.233 508.9 144.933 507.3 146.8C505.5 148.933 503.3 150.1 500.7 150.3C498.367 150.5 496.767 150.133 495.9 149.2C495.9 149.2 495.867 149.2 495.8 149.2L495.6 159.6C495.533 160.8 494.9 161.4 493.7 161.4V161.4ZM496.2 134.6L496 144.7C497.267 146.1 498.667 146.733 500.2 146.6C502.2 146.467 503.7 145.667 504.7 144.2C505.567 143 506.033 141.5 506.1 139.7C506.1 138.033 505.567 136.567 504.5 135.3C503.633 134.233 502.333 133.6 500.6 133.4C498.8 133.133 497.333 133.533 496.2 134.6V134.6ZM522.9 133.9C521.1 133.9 519.767 134.467 518.9 135.6C517.567 137.4 516.9 139.367 516.9 141.5C516.9 143.5 517.367 145 518.3 146C519.3 147.067 520.467 147.6 521.8 147.6C523.267 147.6 524.5 147.067 525.5 146C526.567 144.933 527.1 143.167 527.1 140.7C527.1 136.1 525.7 133.833 522.9 133.9V133.9ZM522.7 129.9C528.167 129.967 530.9 133.7 530.9 141.1C530.9 144.233 530.167 146.633 528.7 148.3C527.1 150.3 524.633 151.3 521.3 151.3C518.9 151.233 516.867 150.267 515.2 148.4C513.667 146.667 512.9 144.233 512.9 141.1C512.9 138.167 513.8 135.533 515.6 133.2C517.4 131 519.767 129.9 522.7 129.9ZM538.1 129C539.5 129 540.167 129.633 540.1 130.9C540.1 131.3 540.1 131.7 540.1 132.1C541.567 130.833 543.433 130.2 545.7 130.2C550.833 130.2 553.333 133.133 553.2 139L553.1 148.8C553.033 150.333 552.367 151.167 551.1 151.3C549.633 151.433 548.933 150.7 549 149.1L549.2 139.9C549.333 136.3 548.267 134.433 546 134.3C544.133 134.167 542.133 135.133 540 137.2L539.7 149C539.633 150.4 538.9 151.067 537.5 151C536.3 151 535.7 150.3 535.7 148.9L536.2 130.8C536.2 129.6 536.833 129 538.1 129V129ZM573.5 140L559.9 141.9C559.967 143.367 560.667 144.633 562 145.7C563.533 147.033 565.233 147.667 567.1 147.6C569.833 147.6 571.667 147.1 572.6 146.1C573.533 145.1 574.267 144.533 574.8 144.4C575.467 144.333 575.933 144.533 576.2 145C576.867 146.2 576.567 147.333 575.3 148.4C573.167 150.267 570.333 151.167 566.8 151.1C564.267 151.1 562.033 150.333 560.1 148.8C557.7 146.933 556.5 144.367 556.5 141.1C556.5 138.433 557.267 136.067 558.8 134C560.667 131.4 563.1 130 566.1 129.8C569.167 129.6 571.6 130.333 573.4 132C575.067 133.533 575.867 135.3 575.8 137.3C575.733 138.9 574.967 139.8 573.5 140V140ZM560.4 138.7L572.3 137C572.1 135.867 571.467 135 570.4 134.4C569.2 133.667 567.933 133.3 566.6 133.3C564.8 133.3 563.2 134.1 561.8 135.7C561.2 136.367 560.733 137.367 560.4 138.7V138.7ZM582.4 129C583.8 129 584.5 129.633 584.5 130.9C584.5 131.3 584.467 131.7 584.4 132.1C585.933 130.833 587.833 130.2 590.1 130.2C595.167 130.2 597.667 133.133 597.6 139L597.4 148.8C597.4 150.333 596.767 151.167 595.5 151.3C594.033 151.433 593.3 150.7 593.3 149.1L593.6 139.9C593.667 136.3 592.6 134.433 590.4 134.3C588.533 134.167 586.533 135.133 584.4 137.2L584 149C584 150.4 583.267 151.067 581.8 151C580.6 151 580.033 150.3 580.1 148.9L580.5 130.8C580.567 129.6 581.2 129 582.4 129V129ZM609 119C610.333 119 611 119.633 611 120.9C611 124.233 610.967 127.267 610.9 130H615C616.6 129.933 617.4 130.567 617.4 131.9C617.4 133.233 616.633 133.9 615.1 133.9C613.633 133.9 612.2 133.9 610.8 133.9L610.4 149.1C610.4 150.5 609.667 151.167 608.2 151.1C607 151.1 606.4 150.4 606.4 149L606.8 133.9C605.2 133.9 603.6 133.9 602 133.9C600.867 133.9 600.3 133.267 600.3 132C600.3 130.667 600.933 130 602.2 130C603.8 130 605.367 130 606.9 130L607.1 120.8C607.167 119.6 607.8 119 609 119V119ZM626.5 147.5C629.5 147.7 631.333 147.333 632 146.4C632.533 145.533 632.233 144.533 631.1 143.4C630.367 142.6 628.667 142.033 626 141.7C623.2 141.3 621.6 140.267 621.2 138.6C620.867 137.333 620.967 136.033 621.5 134.7C622.1 133.167 622.967 132.033 624.1 131.3C625.433 130.367 626.967 129.8 628.7 129.6C630.7 129.467 632.433 129.733 633.9 130.4C635.833 131.333 636.9 132.4 637.1 133.6C637.233 134.333 636.967 134.933 636.3 135.4C635.567 136.067 634.4 135.667 632.8 134.2C632.067 133.467 630.933 133.133 629.4 133.2C627.733 133.267 626.533 133.733 625.8 134.6C625.133 135.333 624.933 136.1 625.2 136.9C625.4 137.633 626.333 138.067 628 138.2C629.267 138.333 630.433 138.667 631.5 139.2C633.033 139.8 634.067 140.467 634.6 141.2C636 142.733 636.6 144.333 636.4 146C636.133 147.667 635.167 149.033 633.5 150.1C632.167 150.967 630.4 151.4 628.2 151.4C626.267 151.4 624.733 151.267 623.6 151C622.867 150.8 621.967 150.4 620.9 149.8C619.967 149.267 619.467 148.6 619.4 147.8C619.333 147 619.6 146.4 620.2 146C621 145.533 621.867 145.6 622.8 146.2C624 147 625.233 147.433 626.5 147.5V147.5ZM15.3 192.5L17.7 206L22.1 192.5C22.7 190.7 23.5 189.867 24.5 190C25.9 190.2 26.3333 191.1 25.8 192.7L19.9 208.9C19.3666 210.5 18.5333 211.3 17.4 211.3C16 211.3 15.1333 210.5 14.8 208.9L12.7 198.2L8.79999 208.9C8.19999 210.5 7.36665 211.3 6.29999 211.3C4.89999 211.3 4.03335 210.5 3.70001 208.9L0.5 192.7C0.166667 191.033 0.633297 190.133 1.89996 190C3.09996 189.8 3.86668 190.633 4.20001 192.5L6.5 206L11 192.5C11.6 190.833 12.3333 190 13.2 190C14.2667 190 14.9667 190.833 15.3 192.5V192.5ZM32.6 179C34 179 34.7 179.633 34.7 180.9L34.5 192.4C36.1667 190.933 38.4 190.2 41.2 190.2C46.2667 190.2 48.7667 193.133 48.7 199L48.6 208.9C48.6 210.5 47.9667 211.333 46.7 211.4C45.2333 211.533 44.5333 210.8 44.6 209.2V199.9C44.6666 196.5 43.6 194.7 41.4 194.5C38.8666 194.3 36.5667 195.4 34.5 197.8L34 209.1C34 210.5 33.2667 211.167 31.8 211.1C30.6 211.1 30.0333 210.4 30.1 209L30.7 180.8C30.7667 179.6 31.4 179 32.6 179V179ZM57.3 181.1C57.3 181.1 57.3333 181.1 57.4 181.1C57.8666 181.1 58.3 181.2 58.7 181.4C59.1 181.667 59.4 182 59.6 182.4C59.8 182.733 59.9 183.1 59.9 183.5C59.9 183.567 59.9 183.633 59.9 183.7C59.8333 184.167 59.6666 184.6 59.4 185C59.1333 185.333 58.8333 185.567 58.5 185.7C58.1667 185.9 57.8 186 57.4 186C57.3333 186 57.2667 186 57.2 186C56.8 185.933 56.4333 185.8 56.1 185.6C55.7 185.4 55.4 185.133 55.2 184.8C55 184.4 54.9 183.967 54.9 183.5C54.9 183.1 55 182.733 55.2 182.4C55.4 182 55.7 181.7 56.1 181.5C56.4333 181.233 56.8333 181.1 57.3 181.1V181.1ZM57.2 189.9C58.4667 189.967 59.0667 190.833 59 192.5L58.8 208.6C58.7333 210.4 58.0667 211.3 56.8 211.3C55.4 211.3 54.7 210.467 54.7 208.8L55.1 192.5C55.1 190.767 55.8 189.9 57.2 189.9V189.9ZM79 206.2C80.2 205.4 81.1666 205.633 81.9 206.9C82.3666 207.633 82 208.467 80.8 209.4C79.3333 210.667 77.0333 211.267 73.9 211.2C71.3666 211.2 69.2666 210.433 67.6 208.9C65.5333 206.967 64.5 204.567 64.5 201.7C64.5 198.5 65.2333 195.867 66.7 193.8C68.5 191.333 70.7667 190 73.5 189.8C75.1 189.733 76.5666 189.9 77.9 190.3C79.5 190.833 80.6 191.5 81.2 192.3C82 193.567 81.9333 194.5 81 195.1C80.4 195.567 79.4333 195.333 78.1 194.4C76.5 193.267 74.7 193 72.7 193.6C71.6333 193.933 70.6333 194.733 69.7 196C68.7 197.4 68.1666 199.033 68.1 200.9C68.1 202.633 68.6333 204.2 69.7 205.6C70.7 206.933 72.1 207.633 73.9 207.7C75.7 207.767 77.4 207.267 79 206.2ZM89.4 179C90.8 179 91.5 179.633 91.5 180.9L91.3 192.4C92.9667 190.933 95.2 190.2 98 190.2C103.067 190.2 105.567 193.133 105.5 199L105.4 208.9C105.4 210.5 104.767 211.333 103.5 211.4C102.033 211.533 101.3 210.8 101.3 209.2L101.4 199.9C101.4 196.5 100.3 194.7 98.1 194.5C95.6333 194.3 93.3667 195.4 91.3 197.8L90.8 209.1C90.7333 210.5 90 211.167 88.6 211.1C87.4 211.1 86.8 210.4 86.8 209L87.5 180.8C87.5 179.6 88.1333 179 89.4 179V179ZM130.3 211.4C124.233 211.4 121.2 208.3 121.2 202.1C121.133 198.033 122.5 194.867 125.3 192.6C128.567 190.067 131.967 189.333 135.5 190.4C135.9 190.067 136.5 190 137.3 190.2C138.9 190.533 139.567 191.533 139.3 193.2C138.967 194.867 138.767 197.633 138.7 201.5C138.633 204.633 139 206.833 139.8 208.1C140.933 210.033 140.767 211.133 139.3 211.4C137.633 211.733 136.667 211.033 136.4 209.3C133.6 210.7 131.567 211.4 130.3 211.4V211.4ZM132.7 207.5C133.167 207.3 134 206.733 135.2 205.8C134.733 200.2 134.8 196.367 135.4 194.3C134.067 193.5 132.7 193.267 131.3 193.6C130.3 193.867 129.5 194.2 128.9 194.6C126.5 196.267 125.233 198.633 125.1 201.7C125.167 205.633 126.6 207.7 129.4 207.9C130.533 207.967 131.633 207.833 132.7 207.5V207.5ZM146.4 189C147.733 189 148.4 189.633 148.4 190.9C148.4 191.167 148.4 191.433 148.4 191.7C149.933 190.567 151.433 190 152.9 190C154.7 189.933 156.167 190.2 157.3 190.8C159.367 191.8 160.2 192.8 159.8 193.8C159.267 195.467 158.2 195.8 156.6 194.8C155.4 194 154.033 193.767 152.5 194.1C150.967 194.367 149.567 195.1 148.3 196.3L147.9 209.1C147.9 210.5 147.2 211.167 145.8 211.1C144.533 211.1 143.933 210.4 144 209L144.5 190.8C144.5 189.6 145.133 189 146.4 189V189ZM180 200L166.4 201.9C166.467 203.367 167.167 204.633 168.5 205.7C170.033 207.033 171.733 207.667 173.6 207.6C176.333 207.6 178.167 207.1 179.1 206.1C180.033 205.1 180.767 204.533 181.3 204.4C181.967 204.333 182.433 204.533 182.7 205C183.367 206.2 183.067 207.333 181.8 208.4C179.667 210.267 176.833 211.167 173.3 211.1C170.767 211.1 168.533 210.333 166.6 208.8C164.2 206.933 163 204.367 163 201.1C163 198.433 163.767 196.067 165.3 194C167.167 191.4 169.6 190 172.6 189.8C175.667 189.6 178.1 190.333 179.9 192C181.567 193.533 182.367 195.3 182.3 197.3C182.233 198.9 181.467 199.8 180 200V200ZM166.9 198.7L178.8 197C178.6 195.867 177.967 195 176.9 194.4C175.7 193.667 174.433 193.3 173.1 193.3C171.3 193.3 169.7 194.1 168.3 195.7C167.7 196.367 167.233 197.367 166.9 198.7V198.7ZM201.3 189C202.7 189 203.4 189.633 203.4 190.9C203.333 191.3 203.3 191.7 203.3 192.1C204.767 190.833 206.667 190.2 209 190.2C214.067 190.2 216.567 193.133 216.5 199L216.3 208.8C216.3 210.333 215.667 211.167 214.4 211.3C212.867 211.433 212.133 210.7 212.2 209.1L212.5 199.9C212.567 196.3 211.5 194.433 209.3 194.3C207.367 194.167 205.333 195.133 203.2 197.2L202.9 209C202.9 210.4 202.167 211.067 200.7 211C199.5 211 198.9 210.3 198.9 208.9L199.4 190.8C199.4 189.6 200.033 189 201.3 189V189ZM236.7 200L223.1 201.9C223.167 203.367 223.867 204.633 225.2 205.7C226.733 207.033 228.433 207.667 230.3 207.6C233.033 207.6 234.867 207.1 235.8 206.1C236.733 205.1 237.5 204.533 238.1 204.4C238.7 204.333 239.133 204.533 239.4 205C240.067 206.2 239.767 207.333 238.5 208.4C236.367 210.267 233.567 211.167 230.1 211.1C227.5 211.1 225.233 210.333 223.3 208.8C220.9 206.933 219.7 204.367 219.7 201.1C219.7 198.433 220.467 196.067 222 194C223.867 191.4 226.3 190 229.3 189.8C232.433 189.6 234.867 190.333 236.6 192C238.267 193.533 239.067 195.3 239 197.3C238.933 198.9 238.167 199.8 236.7 200V200ZM223.6 198.7L235.5 197C235.3 195.867 234.667 195 233.6 194.4C232.467 193.667 231.233 193.3 229.9 193.3C228.033 193.3 226.4 194.1 225 195.7C224.467 196.367 224 197.367 223.6 198.7V198.7ZM250.8 211.4C244.733 211.4 241.667 208.3 241.6 202.1C241.6 198.033 243 194.867 245.8 192.6C249 190.067 252.367 189.333 255.9 190.4C256.3 190.067 256.933 190 257.8 190.2C259.4 190.533 260.033 191.533 259.7 193.2C259.433 194.867 259.267 197.633 259.2 201.5C259.133 204.633 259.467 206.833 260.2 208.1C261.4 210.033 261.267 211.133 259.8 211.4C258.067 211.733 257.067 211.033 256.8 209.3C254 210.7 252 211.4 250.8 211.4V211.4ZM253.1 207.5C253.567 207.3 254.4 206.733 255.6 205.8C255.133 200.2 255.2 196.367 255.8 194.3C254.533 193.5 253.167 193.267 251.7 193.6C250.7 193.867 249.933 194.2 249.4 194.6C247 196.267 245.733 198.633 245.6 201.7C245.6 205.633 247 207.7 249.8 207.9C251 207.967 252.1 207.833 253.1 207.5V207.5ZM266.8 189C268.2 189 268.9 189.633 268.9 190.9C268.9 191.167 268.9 191.433 268.9 191.7C270.367 190.567 271.833 190 273.3 190C275.1 189.933 276.6 190.2 277.8 190.8C279.8 191.8 280.633 192.8 280.3 193.8C279.7 195.467 278.633 195.8 277.1 194.8C275.9 194 274.5 193.767 272.9 194.1C271.367 194.367 269.967 195.1 268.7 196.3L268.4 209.1C268.333 210.5 267.6 211.167 266.2 211.1C265 211.1 264.433 210.4 264.5 209L264.9 190.8C264.967 189.6 265.6 189 266.8 189V189ZM288 181.1C288.467 181.1 288.9 181.2 289.3 181.4C289.7 181.667 290.033 182 290.3 182.4C290.433 182.733 290.5 183.1 290.5 183.5C290.5 183.567 290.5 183.633 290.5 183.7C290.5 184.167 290.333 184.6 290 185C289.733 185.333 289.433 185.567 289.1 185.7C288.767 185.9 288.4 186 288 186C288 186 287.967 186 287.9 186C287.5 185.933 287.1 185.8 286.7 185.6C286.367 185.4 286.1 185.133 285.9 184.8C285.633 184.4 285.5 183.967 285.5 183.5C285.5 183.1 285.6 182.733 285.8 182.4C286.067 182 286.367 181.7 286.7 181.5C287.1 181.233 287.533 181.1 288 181.1V181.1ZM287.8 189.9C289.067 189.967 289.7 190.833 289.7 192.5L289.4 208.6C289.4 210.4 288.767 211.3 287.5 211.3C286.033 211.3 285.333 210.467 285.4 208.8L285.7 192.5C285.767 190.767 286.467 189.9 287.8 189.9ZM298.3 189C299.7 189 300.4 189.633 300.4 190.9C300.333 191.3 300.3 191.7 300.3 192.1C301.767 190.833 303.667 190.2 306 190.2C311.067 190.2 313.567 193.133 313.5 199L313.3 208.8C313.3 210.333 312.667 211.167 311.4 211.3C309.933 211.433 309.2 210.7 309.2 209.1L309.5 199.9C309.567 196.3 308.5 194.433 306.3 194.3C304.433 194.167 302.4 195.133 300.2 197.2L299.9 209C299.9 210.4 299.167 211.067 297.7 211C296.5 211 295.9 210.3 295.9 208.9L296.4 190.8C296.4 189.6 297.033 189 298.3 189V189ZM331 198.6C331.2 197.4 331.267 196.633 331.2 196.3C331.133 194.633 330.067 193.8 328 193.8C326.267 193.8 324.7 194.233 323.3 195.1C321.633 196.1 320.633 198.1 320.3 201.1C319.967 204.567 321.133 206.4 323.8 206.6C326.733 206.867 328.767 205.8 329.9 203.4C330.167 202.933 330.533 201.333 331 198.6V198.6ZM333.7 192.2C334.9 192.4 335.433 193.267 335.3 194.8L333.7 211.6C333.1 218.533 329.233 221.767 322.1 221.3C319.7 221.1 318.067 220.833 317.2 220.5C316.267 220.033 315.9 219.3 316.1 218.3C316.367 217.167 317.133 216.733 318.4 217C320.933 217.6 323.067 217.767 324.8 217.5C327.8 216.967 329.467 214.967 329.8 211.5L330.2 208.3C329 210.033 326.633 210.767 323.1 210.5C317.167 209.9 315.033 205.8 316.7 198.2C317.833 193.133 321.1 190.333 326.5 189.8C330.167 189.467 332.4 190.233 333.2 192.1C333.333 192.1 333.5 192.133 333.7 192.2V192.2ZM360.8 193.9C359.067 193.9 357.767 194.467 356.9 195.6C355.567 197.4 354.9 199.367 354.9 201.5C354.9 203.5 355.367 205 356.3 206C357.3 207.067 358.467 207.6 359.8 207.6C361.267 207.6 362.5 207.067 363.5 206C364.567 204.933 365.1 203.167 365.1 200.7C365.1 196.1 363.667 193.833 360.8 193.9V193.9ZM360.7 189.9C366.167 189.967 368.9 193.7 368.9 201.1C368.833 204.233 368.1 206.633 366.7 208.3C365.033 210.3 362.567 211.3 359.3 211.3C356.9 211.233 354.867 210.267 353.2 208.4C351.667 206.667 350.9 204.233 350.9 201.1C350.9 198.167 351.8 195.533 353.6 193.2C355.4 191 357.767 189.9 360.7 189.9ZM376.1 189C377.433 189 378.1 189.633 378.1 190.9C378.1 191.167 378.1 191.433 378.1 191.7C379.633 190.567 381.133 190 382.6 190C384.4 189.933 385.867 190.2 387 190.8C389.067 191.8 389.9 192.8 389.5 193.8C388.967 195.467 387.9 195.8 386.3 194.8C385.1 194 383.733 193.767 382.2 194.1C380.667 194.367 379.267 195.1 378 196.3L377.6 209.1C377.6 210.5 376.9 211.167 375.5 211.1C374.233 211.1 373.633 210.4 373.7 209L374.2 190.8C374.2 189.6 374.833 189 376.1 189V189ZM413.5 211.4C407.433 211.4 404.367 208.3 404.3 202.1C404.3 198.033 405.7 194.867 408.5 192.6C411.7 190.067 415.067 189.333 418.6 190.4C419 190.067 419.6 190 420.4 190.2C422.067 190.533 422.733 191.533 422.4 193.2C422.067 194.867 421.867 197.633 421.8 201.5C421.8 204.633 422.167 206.833 422.9 208.1C424.1 210.033 423.933 211.133 422.4 211.4C420.733 211.733 419.767 211.033 419.5 209.3C416.7 210.7 414.7 211.4 413.5 211.4V211.4ZM415.8 207.5C416.267 207.3 417.1 206.733 418.3 205.8C417.833 200.2 417.9 196.367 418.5 194.3C417.233 193.5 415.867 193.267 414.4 193.6C413.4 193.867 412.6 194.2 412 194.6C409.6 196.267 408.367 198.633 408.3 201.7C408.3 205.633 409.7 207.7 412.5 207.9C413.7 207.967 414.8 207.833 415.8 207.5V207.5ZM434.4 179C435.8 179 436.5 179.633 436.5 180.9C436.433 184.233 436.367 187.267 436.3 190H440.4C442.067 189.933 442.9 190.567 442.9 191.9C442.9 193.233 442.1 193.9 440.5 193.9C439.033 193.9 437.6 193.9 436.2 193.9L435.8 209.1C435.8 210.5 435.067 211.167 433.6 211.1C432.4 211.1 431.8 210.4 431.8 209L432.2 193.9C430.6 193.9 429.033 193.9 427.5 193.9C426.3 193.9 425.7 193.267 425.7 192C425.7 190.667 426.333 190 427.6 190C429.2 190 430.767 190 432.3 190L432.5 180.8C432.567 179.6 433.2 179 434.4 179V179ZM466.3 179C467.633 179 468.3 179.633 468.3 180.9C468.3 184.233 468.233 187.267 468.1 190H472.2C473.867 189.933 474.7 190.567 474.7 191.9C474.7 193.233 473.933 193.9 472.4 193.9C470.933 193.9 469.467 193.9 468 193.9L467.7 209.1C467.7 210.5 466.967 211.167 465.5 211.1C464.3 211.1 463.7 210.4 463.7 209L464.1 193.9C462.5 193.9 460.9 193.9 459.3 193.9C458.167 193.9 457.6 193.267 457.6 192C457.6 190.667 458.233 190 459.5 190C461.033 190 462.6 190 464.2 190L464.4 180.8C464.4 179.6 465.033 179 466.3 179V179ZM481.4 179C482.8 179 483.467 179.633 483.4 180.9L483.2 192.4C484.867 190.933 487.1 190.2 489.9 190.2C494.967 190.2 497.467 193.133 497.4 199V208.9C497.333 210.5 496.667 211.333 495.4 211.4C494 211.533 493.3 210.8 493.3 209.2V199.9C493.367 196.5 492.3 194.7 490.1 194.5C487.633 194.3 485.333 195.4 483.2 197.8L482.8 209.1C482.733 210.5 482 211.167 480.6 211.1C479.4 211.1 478.8 210.4 478.8 209L479.5 180.8C479.5 179.6 480.133 179 481.4 179ZM518.5 200L505 201.9C505.067 203.367 505.733 204.633 507 205.7C508.533 207.033 510.233 207.667 512.1 207.6C514.833 207.6 516.7 207.1 517.7 206.1C518.567 205.1 519.3 204.533 519.9 204.4C520.5 204.333 520.967 204.533 521.3 205C521.9 206.2 521.6 207.333 520.4 208.4C518.2 210.267 515.367 211.167 511.9 211.1C509.3 211.1 507.033 210.333 505.1 208.8C502.7 206.933 501.5 204.367 501.5 201.1C501.5 198.433 502.267 196.067 503.8 194C505.667 191.4 508.1 190 511.1 189.8C514.233 189.6 516.667 190.333 518.4 192C520.067 193.533 520.867 195.3 520.8 197.3C520.733 198.9 519.967 199.8 518.5 200V200ZM505.4 198.7L517.3 197C517.1 195.867 516.5 195 515.5 194.4C514.3 193.667 513.033 193.3 511.7 193.3C509.833 193.3 508.233 194.1 506.9 195.7C506.3 196.367 505.8 197.367 505.4 198.7V198.7ZM553.6 200L540 201.9C540.067 203.367 540.767 204.633 542.1 205.7C543.567 207.033 545.267 207.667 547.2 207.6C549.933 207.6 551.767 207.1 552.7 206.1C553.633 205.1 554.367 204.533 554.9 204.4C555.567 204.333 556.033 204.533 556.3 205C556.9 206.2 556.6 207.333 555.4 208.4C553.267 210.267 550.433 211.167 546.9 211.1C544.367 211.1 542.133 210.333 540.2 208.8C537.8 206.933 536.6 204.367 536.6 201.1C536.6 198.433 537.333 196.067 538.8 194C540.733 191.4 543.2 190 546.2 189.8C549.267 189.6 551.667 190.333 553.4 192C555.067 193.533 555.867 195.3 555.8 197.3C555.733 198.9 555 199.8 553.6 200V200ZM540.5 198.7L552.3 197C552.1 195.867 551.5 195 550.5 194.4C549.3 193.667 548.033 193.3 546.7 193.3C544.833 193.3 543.233 194.1 541.9 195.7C541.3 196.367 540.833 197.367 540.5 198.7V198.7ZM562.5 189C563.9 189 564.6 189.633 564.6 190.9C564.533 191.3 564.5 191.7 564.5 192.1C565.967 190.833 567.867 190.2 570.2 190.2C575.267 190.2 577.767 193.133 577.7 199L577.5 208.8C577.5 210.333 576.867 211.167 575.6 211.3C574.133 211.433 573.4 210.7 573.4 209.1L573.7 199.9C573.767 196.3 572.7 194.433 570.5 194.3C568.633 194.167 566.6 195.133 564.4 197.2L564.1 209C564.1 210.4 563.367 211.067 561.9 211C560.7 211 560.1 210.3 560.1 208.9L560.6 190.8C560.6 189.6 561.233 189 562.5 189V189ZM599.4 179C600.8 179 601.467 179.633 601.4 180.9L600.8 209.1C600.8 210.5 600.067 211.167 598.6 211.1C597.533 211.1 596.933 210.567 596.8 209.5C594.8 210.7 592.667 211.3 590.4 211.3C588.133 211.3 586.1 210.433 584.3 208.7C582.3 206.767 581.233 204.533 581.1 202C580.967 198.533 581.9 195.633 583.9 193.3C585.767 191.1 588.2 190 591.2 190C592.867 190 594.3 190.333 595.5 191C596.1 191.333 596.667 191.667 597.2 192L597.5 180.8C597.5 179.6 598.133 179 599.4 179V179ZM596.9 205.1C597.033 202.367 597.1 199.5 597.1 196.5C594.7 194.1 592.367 193.167 590.1 193.7C588.367 194.167 587.133 194.833 586.4 195.7C585.333 196.967 584.767 198.767 584.7 201.1C584.7 202.567 585.267 204 586.4 205.4C587.333 206.6 588.667 207.3 590.4 207.5C592.333 207.7 594.5 206.9 596.9 205.1ZM627.4 193.9C625.6 193.9 624.267 194.467 623.4 195.6C622.067 197.4 621.4 199.367 621.4 201.5C621.4 203.5 621.9 205 622.9 206C623.9 207.067 625.033 207.6 626.3 207.6C627.767 207.6 629 207.067 630 206C631.067 204.933 631.6 203.167 631.6 200.7C631.667 196.1 630.267 193.833 627.4 193.9V193.9ZM627.2 189.9C632.667 189.967 635.4 193.7 635.4 201.1C635.4 204.233 634.667 206.633 633.2 208.3C631.6 210.3 629.133 211.3 625.8 211.3C623.4 211.233 621.367 210.267 619.7 208.4C618.167 206.667 617.4 204.233 617.4 201.1C617.4 198.167 618.333 195.533 620.2 193.2C621.933 191 624.267 189.9 627.2 189.9ZM641.5 195.5C640.033 195.5 639.3 194.867 639.3 193.6C639.3 192.267 640.1 191.6 641.7 191.6H644.9C644.967 186.6 645.633 183.233 646.9 181.5C647.967 180.033 649.967 179.267 652.9 179.2C655.767 179.133 657.067 179.8 656.8 181.2C656.533 182.467 655.6 183.033 654 182.9C651.467 182.633 649.9 183.567 649.3 185.7C648.967 186.9 648.8 188.867 648.8 191.6H653.4C655.2 191.6 656.133 192.2 656.2 193.4C656.333 194.8 655.5 195.5 653.7 195.5H648.7L648.5 209.2C648.5 210.667 647.767 211.367 646.3 211.3C645.033 211.3 644.433 210.6 644.5 209.2L644.8 195.5H641.5ZM8.70001 239C10.1 239 10.8 239.633 10.8 240.9C10.7333 244.233 10.6666 247.267 10.6 250H14.7C16.3667 249.933 17.2 250.567 17.2 251.9C17.2 253.233 16.4 253.9 14.8 253.9C13.4 253.9 11.9667 253.9 10.5 253.9L10.1 269.1C10.1 270.5 9.36663 271.167 7.89996 271.1C6.69996 271.1 6.13335 270.4 6.20001 269L6.5 253.9C4.9 253.9 3.33332 253.9 1.79999 253.9C0.599988 253.9 0 253.267 0 252C0 250.667 0.666667 250 2 250C3.53333 250 5.06664 250 6.59998 250L6.89996 240.8C6.89996 239.6 7.50001 239 8.70001 239V239ZM23.8 239C25.2 239 25.9 239.633 25.9 240.9L25.7 252.4C27.3667 250.933 29.6 250.2 32.4 250.2C37.4666 250.2 39.9666 253.133 39.9 259L39.8 268.9C39.8 270.5 39.1666 271.333 37.9 271.4C36.4333 271.533 35.7 270.8 35.7 269.2L35.8 259.9C35.8 256.5 34.7333 254.7 32.6 254.5C30.0666 254.3 27.7667 255.4 25.7 257.8L25.2 269.1C25.1333 270.5 24.4 271.167 23 271.1C21.8 271.1 21.2 270.4 21.2 269L21.9 240.8C21.9666 239.6 22.6 239 23.8 239ZM61 260L47.4 261.9C47.4666 263.367 48.1667 264.633 49.5 265.7C50.9667 267.033 52.6666 267.667 54.6 267.6C57.3333 267.6 59.1666 267.1 60.1 266.1C61.0333 265.1 61.7667 264.533 62.3 264.4C62.9667 264.333 63.4333 264.533 63.7 265C64.3667 266.2 64.0667 267.333 62.8 268.4C60.6667 270.267 57.8333 271.167 54.3 271.1C51.7667 271.1 49.5333 270.333 47.6 268.8C45.2 266.933 44 264.367 44 261.1C44 258.433 44.7333 256.067 46.2 254C48.1333 251.4 50.6 250 53.6 249.8C56.6666 249.6 59.1 250.333 60.9 252C62.5 253.533 63.2667 255.3 63.2 257.3C63.2 258.9 62.4667 259.8 61 260V260ZM47.9 258.7L59.7 257C59.5 255.867 58.9 255 57.9 254.4C56.7 253.667 55.4333 253.3 54.1 253.3C52.2333 253.3 50.6333 254.1 49.3 255.7C48.7 256.367 48.2333 257.367 47.9 258.7V258.7ZM71.2 241.1C71.6667 241.1 72.1 241.2 72.5 241.4C72.9 241.667 73.2333 242 73.5 242.4C73.6333 242.733 73.7 243.1 73.7 243.5C73.7 243.567 73.7 243.633 73.7 243.7C73.7 244.167 73.5333 244.6 73.2 245C72.9333 245.333 72.6666 245.567 72.4 245.7C72 245.9 71.6 246 71.2 246C71.2 246 71.1666 246 71.1 246C70.7 245.933 70.3 245.8 69.9 245.6C69.5666 245.4 69.3 245.133 69.1 244.8C68.8333 244.4 68.7 243.967 68.7 243.5C68.7 243.1 68.8 242.733 69 242.4C69.2667 242 69.5666 241.7 69.9 241.5C70.3 241.233 70.7333 241.1 71.2 241.1V241.1ZM71 249.9C72.2667 249.967 72.9 250.833 72.9 252.5L72.6 268.6C72.6 270.4 71.9667 271.3 70.7 271.3C69.2333 271.3 68.5333 270.467 68.6 268.8L68.9 252.5C68.9666 250.767 69.6667 249.9 71 249.9ZM81.5 249C82.9 249 83.6 249.633 83.6 250.9C83.6 251.167 83.6 251.433 83.6 251.7C85.0666 250.567 86.5333 250 88 250C89.8 249.933 91.3 250.2 92.5 250.8C94.5 251.8 95.3333 252.8 95 253.8C94.4 255.467 93.3333 255.8 91.8 254.8C90.6 254 89.2 253.767 87.6 254.1C86.0666 254.367 84.6666 255.1 83.4 256.3L83.1 269.1C83.0333 270.5 82.3 271.167 80.9 271.1C79.7 271.1 79.1 270.4 79.1 269L79.6 250.8C79.6 249.6 80.2333 249 81.5 249V249ZM126.1 271.8C124.7 271.8 124 271.167 124 269.9V268.7C122.533 269.967 120.667 270.6 118.4 270.6C113.333 270.6 110.833 267.667 110.9 261.8L111 252.2C111 250.667 111.633 249.833 112.9 249.7C114.367 249.567 115.067 250.3 115 251.9V260.4C114.933 263.533 115.433 265.433 116.5 266.1C117.9 267.033 119.567 267.033 121.5 266.1C123.233 265.233 124.133 263.733 124.2 261.6L124.5 251.8C124.5 250.333 125.233 249.633 126.7 249.7C127.9 249.7 128.467 250.4 128.4 251.8L128 270C127.933 271.2 127.3 271.8 126.1 271.8V271.8ZM138.2 267.5C141.2 267.7 143.033 267.333 143.7 266.4C144.233 265.533 143.933 264.533 142.8 263.4C142.067 262.6 140.367 262.033 137.7 261.7C134.9 261.3 133.3 260.267 132.9 258.6C132.567 257.333 132.667 256.033 133.2 254.7C133.8 253.167 134.667 252.033 135.8 251.3C137.133 250.367 138.667 249.8 140.4 249.6C142.4 249.467 144.133 249.733 145.6 250.4C147.533 251.333 148.6 252.4 148.8 253.6C148.867 254.333 148.6 254.933 148 255.4C147.267 256.067 146.1 255.667 144.5 254.2C143.7 253.467 142.567 253.133 141.1 253.2C139.433 253.267 138.2 253.733 137.4 254.6C136.8 255.333 136.633 256.1 136.9 256.9C137.1 257.633 138.033 258.067 139.7 258.2C140.967 258.333 142.133 258.667 143.2 259.2C144.733 259.8 145.767 260.467 146.3 261.2C147.7 262.733 148.3 264.333 148.1 266C147.833 267.667 146.867 269.033 145.2 270.1C143.867 270.967 142.1 271.4 139.9 271.4C137.967 271.4 136.4 271.267 135.2 271C134.533 270.8 133.667 270.4 132.6 269.8C131.667 269.267 131.167 268.6 131.1 267.8C131.033 267 131.3 266.4 131.9 266C132.7 265.533 133.567 265.6 134.5 266.2C135.7 267 136.933 267.433 138.2 267.5V267.5ZM169.2 260L155.6 261.9C155.667 263.367 156.367 264.633 157.7 265.7C159.167 267.033 160.867 267.667 162.8 267.6C165.533 267.6 167.367 267.1 168.3 266.1C169.233 265.1 169.967 264.533 170.5 264.4C171.167 264.333 171.633 264.533 171.9 265C172.567 266.2 172.267 267.333 171 268.4C168.867 270.267 166.033 271.167 162.5 271.1C159.967 271.1 157.733 270.333 155.8 268.8C153.4 266.933 152.2 264.367 152.2 261.1C152.2 258.433 152.933 256.067 154.4 254C156.333 251.4 158.8 250 161.8 249.8C164.867 249.6 167.3 250.333 169.1 252C170.7 253.533 171.467 255.3 171.4 257.3C171.4 258.9 170.667 259.8 169.2 260V260ZM156.1 258.7L167.9 257C167.7 255.867 167.1 255 166.1 254.4C164.9 253.667 163.633 253.3 162.3 253.3C160.433 253.3 158.833 254.1 157.5 255.7C156.9 256.367 156.433 257.367 156.1 258.7V258.7ZM177 255.5C175.533 255.5 174.8 254.867 174.8 253.6C174.8 252.267 175.6 251.6 177.2 251.6H180.4C180.467 246.6 181.133 243.233 182.4 241.5C183.467 240.033 185.467 239.267 188.4 239.2C191.267 239.133 192.567 239.8 192.3 241.2C192.033 242.467 191.1 243.033 189.5 242.9C186.967 242.633 185.4 243.567 184.8 245.7C184.467 246.9 184.3 248.867 184.3 251.6H188.9C190.7 251.6 191.633 252.2 191.7 253.4C191.833 254.8 191 255.5 189.2 255.5H184.2L184 269.2C184 270.667 183.267 271.367 181.8 271.3C180.533 271.3 179.933 270.6 180 269.2L180.3 255.5H177ZM211.5 271.8C210.1 271.8 209.4 271.167 209.4 269.9V268.7C207.933 269.967 206.067 270.6 203.8 270.6C198.733 270.6 196.233 267.667 196.3 261.8L196.4 252.2C196.4 250.667 197.033 249.833 198.3 249.7C199.7 249.567 200.4 250.3 200.4 251.9V260.4C200.333 263.533 200.833 265.433 201.9 266.1C203.3 267.033 204.967 267.033 206.9 266.1C208.633 265.233 209.533 263.733 209.6 261.6L209.8 251.8C209.867 250.333 210.6 249.633 212 249.7C213.267 249.7 213.867 250.4 213.8 251.8L213.3 270C213.3 271.2 212.7 271.8 211.5 271.8V271.8ZM221.7 239C223.1 239 223.767 239.633 223.7 240.9L223.1 269.1C223.1 270.5 222.367 271.167 220.9 271.1C219.7 271.1 219.1 270.4 219.1 269L219.8 240.8C219.867 239.6 220.5 239 221.7 239V239ZM245.4 239C246.8 239 247.467 239.633 247.4 240.9L246.8 269.1C246.8 270.5 246.067 271.167 244.6 271.1C243.4 271.1 242.8 270.4 242.8 269L243.5 240.8C243.567 239.6 244.2 239 245.4 239V239ZM257 241.1C257.467 241.1 257.9 241.2 258.3 241.4C258.7 241.667 259.033 242 259.3 242.4C259.433 242.733 259.5 243.1 259.5 243.5C259.5 243.567 259.5 243.633 259.5 243.7C259.5 244.167 259.333 244.6 259 245C258.733 245.333 258.467 245.567 258.2 245.7C257.8 245.9 257.4 246 257 246C257 246 256.967 246 256.9 246C256.5 245.933 256.1 245.8 255.7 245.6C255.367 245.4 255.1 245.133 254.9 244.8C254.633 244.4 254.5 243.967 254.5 243.5C254.5 243.1 254.6 242.733 254.8 242.4C255.067 242 255.367 241.7 255.7 241.5C256.1 241.233 256.533 241.1 257 241.1V241.1ZM256.8 249.9C258.067 249.967 258.7 250.833 258.7 252.5L258.4 268.6C258.4 270.4 257.767 271.3 256.5 271.3C255.033 271.3 254.333 270.467 254.4 268.8L254.7 252.5C254.767 250.767 255.467 249.9 256.8 249.9ZM266.2 255.5C264.733 255.5 264 254.867 264 253.6C264 252.267 264.8 251.6 266.4 251.6H269.6C269.667 246.6 270.333 243.233 271.6 241.5C272.667 240.033 274.667 239.267 277.6 239.2C280.467 239.133 281.767 239.8 281.5 241.2C281.233 242.467 280.3 243.033 278.7 242.9C276.167 242.633 274.6 243.567 274 245.7C273.667 246.9 273.5 248.867 273.5 251.6H278.1C279.9 251.6 280.833 252.2 280.9 253.4C281.033 254.8 280.2 255.5 278.4 255.5H273.4L273.2 269.2C273.133 270.667 272.4 271.367 271 271.3C269.733 271.3 269.133 270.6 269.2 269.2L269.5 255.5H266.2ZM302.1 260L288.5 261.9C288.567 263.367 289.267 264.633 290.6 265.7C292.067 267.033 293.767 267.667 295.7 267.6C298.433 267.6 300.267 267.1 301.2 266.1C302.133 265.1 302.867 264.533 303.4 264.4C304.067 264.333 304.533 264.533 304.8 265C305.467 266.2 305.167 267.333 303.9 268.4C301.767 270.267 298.933 271.167 295.4 271.1C292.867 271.1 290.633 270.333 288.7 268.8C286.3 266.933 285.1 264.367 285.1 261.1C285.1 258.433 285.867 256.067 287.4 254C289.267 251.4 291.7 250 294.7 249.8C297.767 249.6 300.2 250.333 302 252C303.6 253.533 304.367 255.3 304.3 257.3C304.3 258.9 303.567 259.8 302.1 260V260ZM289 258.7L300.9 257C300.633 255.867 300 255 299 254.4C297.8 253.667 296.533 253.3 295.2 253.3C293.333 253.3 291.733 254.1 290.4 255.7C289.8 256.367 289.333 257.367 289 258.7V258.7ZM311.3 267.3C311.3 267.3 311.333 267.3 311.4 267.3C311.867 267.3 312.3 267.4 312.7 267.6C313.1 267.8 313.4 268.133 313.6 268.6C313.8 268.933 313.9 269.3 313.9 269.7C313.9 269.767 313.9 269.833 313.9 269.9C313.833 270.367 313.667 270.8 313.4 271.2C313.133 271.533 312.833 271.767 312.5 271.9C312.167 272.033 311.8 272.1 311.4 272.1C311.333 272.1 311.267 272.1 311.2 272.1C310.8 272.1 310.433 272 310.1 271.8C309.7 271.6 309.4 271.3 309.2 270.9C309 270.567 308.9 270.167 308.9 269.7C308.9 269.3 309 268.9 309.2 268.5C309.4 268.167 309.667 267.867 310 267.6C310.4 267.4 310.833 267.3 311.3 267.3V267.3Z" fill="black"/>
</svg>
