<svg width="117" height="64" viewBox="0 0 117 64" fill="none" xmlns="http://www.w3.org/2000/svg">
<path fill-rule="evenodd" clip-rule="evenodd" d="M103.988 38.9015C104.454 38.8348 104.954 38.8014 105.488 38.8014C108.588 37.9014 111.888 37.9014 115.288 39.5014C116.688 40.2014 116.188 42.7015 114.488 42.6015C100.888 42.2015 94.8877 53.8015 83.8877 59.4015C75.3877 63.8015 65.4876 64.6015 56.1876 62.9015C32.6876 58.6015 17.8877 39.0015 3.28773 21.9015C2.88773 21.8348 2.48765 21.7348 2.08765 21.6015C0.687653 21.1015 0.487678 19.2015 1.98768 18.7015C7.48768 16.8015 12.8877 16.2015 18.2877 13.6015C23.0877 11.3015 27.5877 8.80145 32.3877 6.60145C42.3877 2.30145 53.2877 -0.698535 64.2877 0.401465C84.4877 2.60147 98.4877 20.3015 103.988 38.9015ZM56.4877 4.50144C45.1877 5.20144 34.7877 9.90144 24.8877 15.0014C19.8877 17.6014 13.2876 21.6015 7.18763 22.1015C14.7876 28.7015 20.9876 36.9014 28.6876 43.5014C37.8876 51.4014 49.0877 57.7014 61.3877 58.8014C74.0877 59.9014 83.2877 55.1015 92.5877 46.9015C93.321 46.2348 94.0877 45.5681 94.8877 44.9015C89.4877 44.8015 83.6876 43.2014 78.6876 41.8014C77.0876 45.6014 74.3877 48.7014 70.8877 50.8014C68.1877 52.6014 63.3877 54.9014 60.2877 53.3014C59.5877 53.0014 59.6876 52.1015 60.1876 51.7015C61.4876 50.9015 63.0877 50.8015 64.4877 50.4015C66.221 49.9348 67.8544 49.2681 69.3877 48.4015C72.3877 46.6015 74.7876 44.1015 76.6876 41.2015C75.6876 40.9348 74.7544 40.7014 73.8877 40.5014C65.821 38.3681 57.7877 36.2348 49.7877 34.1015C49.6877 34.3015 49.7876 34.4014 49.6876 34.5014C49.4876 34.8014 49.3877 34.9015 49.0877 35.1015C48.9543 35.1681 48.8544 35.2015 48.7877 35.2015C48.1877 35.6015 47.2877 37.0014 46.8877 37.3014C46.0877 38.1014 45.1877 38.8015 44.2877 39.4015C42.6877 40.4015 40.2877 42.0014 38.2877 41.3014C37.5877 41.1014 37.3877 40.3015 37.8877 39.7015C38.4877 38.8015 39.4877 38.5015 40.4877 38.1015C41.5877 37.6015 42.5877 36.9014 43.5877 36.3014C44.5877 35.5014 45.5877 34.2015 46.7877 33.4015C42.9211 32.3348 39.0877 31.3014 35.2877 30.3014C35.1877 30.4014 35.2877 30.4014 35.2877 30.5014C34.6877 32.5014 31.9877 35.7014 29.5877 34.5014C29.1877 34.3014 29.1877 33.8014 29.3877 33.5014C30.0877 32.9014 30.9877 32.7015 31.7877 32.2015C32.6877 31.7015 33.3877 30.9014 33.9877 30.0014C31.9877 29.4681 29.9877 28.9348 27.9877 28.4015C26.9877 28.1015 27.2877 26.6014 28.3877 26.8014C31.321 27.4681 34.2877 28.1015 37.2877 28.7015C36.8877 28.2015 36.4876 27.7015 36.1876 27.4015C35.1876 26.0015 33.7877 23.8014 34.5877 22.0014C34.7877 21.6014 35.2876 21.5015 35.6876 21.7015C37.0876 22.4015 37.7877 24.6015 38.5877 25.9015C39.2877 26.9015 40.5876 28.1015 40.6876 29.4015C47.621 30.8681 54.521 32.3348 61.3877 33.8014C59.7877 31.8014 58.3876 29.5015 56.6876 27.7015C53.8876 24.8015 49.3877 22.6015 47.3877 19.2015C46.9877 18.5015 47.4877 17.5014 48.3877 17.5014C52.5877 17.6014 56.6877 21.9015 59.3877 24.9015C61.7877 27.4015 64.8877 31.0015 65.5877 34.7015C66.721 34.9681 67.8543 35.2348 68.9877 35.5014C75.0877 36.8014 81.0876 38.3015 87.1876 39.2015C87.7876 39.3015 88.2877 39.3014 88.7877 39.3014C87.6877 37.0014 86.4876 34.5015 85.1876 32.2015C83.2876 29.0015 79.9877 25.8015 78.9877 22.2015C78.7877 21.1015 79.7876 20.3014 80.6876 20.8014C84.3876 22.5014 86.7877 27.4014 88.5877 30.8014C90.0877 33.6014 91.4877 36.5014 92.2877 39.5014C95.3877 39.5014 98.3877 39.2014 101.388 39.0014C96.4877 31.3014 92.9877 22.8014 86.5877 16.0014C78.6877 7.50144 67.9877 3.70144 56.4877 4.50144V4.50144Z" fill="#32594A"/>
</svg>
