<svg width="117" height="80" viewBox="0 0 117 80" fill="none" xmlns="http://www.w3.org/2000/svg">
<path fill-rule="evenodd" clip-rule="evenodd" d="M104.388 66.0007C104.921 66.2007 105.454 66.4007 105.988 66.6007C109.788 67.0007 113.388 68.4007 116.388 71.6007C117.688 72.9007 115.988 75.4007 114.288 74.6007C99.6876 68.3007 88.0876 78.4007 73.7876 79.7007C62.5876 80.8007 51.4876 77.5007 42.0876 71.6007C18.3876 56.8007 10.5876 29.2007 2.08759 4.40068C1.68759 4.06735 1.28763 3.73402 0.887635 3.40068C-0.412365 2.40068 0.187611 0.200684 1.98761 0.300684C8.88761 0.600684 14.9876 2.30069 22.0876 1.70069C28.1876 1.30069 34.1876 0.400685 40.3876 0.200685C53.0876 -0.299315 66.1876 1.10069 77.6876 7.10069C98.6876 18.1007 106.488 43.4007 104.388 66.0007V66.0007ZM67.4876 8.10069C54.7876 4.10069 41.4876 4.80069 28.4876 6.10069C21.9876 6.80069 13.0876 8.30068 6.18762 6.20069C11.6876 16.6007 14.9876 28.3007 20.4876 38.7007C27.1876 51.3007 36.5876 62.9007 49.4876 69.3007C62.8876 76.0007 74.8876 74.7007 88.5876 69.8007C89.6543 69.4007 90.7876 69.034 91.9876 68.7007C86.0876 66.2007 80.3876 62.0007 75.5876 58.3007C72.2876 61.8007 67.9876 64.0007 63.2876 64.8007C59.5876 65.5007 53.3876 66.1007 50.5876 63.0007C49.9876 62.3007 50.4876 61.4007 51.2876 61.2007C52.9876 60.8007 54.6876 61.4007 56.4876 61.6007C58.5543 61.8007 60.621 61.7674 62.6876 61.5007C66.6876 60.8007 70.3876 59.1007 73.6876 56.8007C72.7543 56.134 71.8543 55.4674 70.9876 54.8007C63.1209 49.0674 55.2543 43.334 47.3876 37.6007C47.3876 37.7007 47.2876 37.8007 47.1876 37.9007C46.7876 38.2007 46.6876 38.3007 46.1876 38.4007C46.121 38.4007 46.0543 38.3674 45.9876 38.3007C45.0876 38.5007 43.4876 39.6007 42.8876 39.8007C41.6876 40.3007 40.3876 40.7007 39.1876 40.9007C36.9876 41.4007 33.6876 42.0007 31.8876 40.5007C31.1876 39.9007 31.2876 39.0007 32.0876 38.5007C33.1876 37.8007 34.3876 37.9007 35.5876 37.9007C36.9876 37.8007 38.3876 37.5007 39.7876 37.2007C41.1876 36.9007 42.8876 35.8007 44.4876 35.4007C40.7543 32.6673 37.0209 29.934 33.2876 27.2007C33.2876 27.2007 33.2876 27.3007 33.1876 27.3007C31.7876 29.3007 27.3876 31.7007 25.2876 29.3007C24.9876 29.0007 25.1876 28.4007 25.5876 28.2007C26.4876 27.7007 27.6876 27.9007 28.6876 27.7007C29.8876 27.5007 30.9876 27.0007 31.9876 26.3007C30.0543 24.834 28.121 23.4007 26.1876 22.0007C25.1876 21.2007 26.2876 19.7007 27.2876 20.4007C30.2209 22.334 33.1876 24.3007 36.1876 26.3007C35.8876 25.6007 35.7876 24.9007 35.5876 24.4007C35.0876 22.4007 34.4876 19.4007 36.0876 17.9007C36.4876 17.5007 37.1876 17.6007 37.4876 18.0007C38.6876 19.4007 38.4876 22.1007 38.7876 23.8007C39.0876 25.2007 39.9876 27.1007 39.5876 28.6007C46.4543 33.134 53.321 37.6674 60.1876 42.2007C59.2876 39.3007 58.7876 36.2007 57.6876 33.5007C55.9876 29.2007 51.9876 24.9007 51.2876 20.3007C51.1876 19.4007 52.0876 18.4007 53.0876 18.8007C57.5876 20.8007 60.1876 27.2007 61.8876 31.6007C63.3876 35.4007 65.1876 40.7007 64.3876 45.0007C65.521 45.734 66.6543 46.5007 67.7876 47.3007C73.7876 51.3007 79.6876 55.5007 85.9876 59.2007C86.5876 59.5007 87.1876 59.7007 87.6876 60.0007C87.4876 56.9007 87.2876 53.8007 86.7876 50.7007C86.0876 46.3007 83.9876 41.5007 84.3876 37.1007C84.5876 35.9007 86.0876 35.4007 86.8876 36.3007C90.0876 39.8007 90.5876 46.1007 91.1876 50.6007C91.5876 54.3007 91.8876 58.0007 91.3876 61.7007C94.7876 63.0007 98.1876 64.0007 101.588 65.1007C99.4876 54.5007 99.2876 43.8007 95.2876 33.7007C90.2876 21.0007 80.3876 12.3007 67.4876 8.10069V8.10069Z" fill="#32594A"/>
</svg>
