<svg width="71" height="158" viewBox="0 0 71 158" fill="none" xmlns="http://www.w3.org/2000/svg">
<path fill-rule="evenodd" clip-rule="evenodd" d="M51.8876 16.7007C51.821 16.034 51.7877 15.3673 51.7877 14.7007C50.3877 10.4007 50.2877 5.90068 52.2877 1.20068C53.1877 -0.79932 56.5876 -0.0993264 56.5876 2.10067C56.4876 20.7007 72.5876 28.5007 80.5876 43.2007C86.8876 54.7007 88.3877 68.2007 86.2877 81.0007C81.2877 113.101 55.1876 134.101 32.4876 154.501C32.3543 155.101 32.1876 155.701 31.9876 156.301C31.4876 158.201 28.8876 158.501 28.0876 156.501C25.2876 149.001 24.2876 141.701 20.4876 134.401C17.1876 128.001 13.5876 121.901 10.4876 115.401C4.18762 102.001 -0.312352 87.2007 0.887648 72.2007C3.08765 44.6007 26.6876 24.8007 51.8876 16.7007V16.7007ZM6.68757 82.7007C8.08757 98.1007 14.8877 112.101 22.2877 125.401C25.9877 132.101 31.6876 140.901 32.5876 149.301C41.1876 138.601 52.2876 129.801 60.8876 119.101C71.2876 106.301 79.4876 90.8007 80.4876 74.0007C81.5876 56.7007 74.6876 44.3007 63.1876 31.9007C62.2542 30.9007 61.321 29.8674 60.3876 28.8007C60.3876 36.2007 58.4877 44.2007 56.7877 51.1007C61.9877 53.0007 66.2876 56.6007 69.3876 61.3007C71.7876 65.0007 75.1876 71.4007 73.1876 75.8007C72.7876 76.6007 71.4876 76.6007 70.9876 75.9007C69.7876 74.1007 69.6876 72.0007 68.9876 70.0007C68.321 67.734 67.3543 65.5673 66.0876 63.5007C63.5876 59.5007 59.9876 56.3007 56.0876 53.8007C55.7543 55.134 55.4209 56.4007 55.0876 57.6007C52.5543 68.6673 49.9876 79.734 47.3876 90.8007C47.5876 90.8007 47.6876 90.8007 47.8876 90.9007C48.3876 91.2007 48.4877 91.2007 48.7877 91.7007C48.8543 91.7674 48.8876 91.8673 48.8876 92.0007C49.3876 92.8007 51.3876 94.1007 51.8876 94.6007C52.8876 95.7007 53.8877 96.8007 54.7877 98.1007C56.1877 100.201 58.3876 103.401 57.5876 106.101C57.2876 107.101 56.2876 107.401 55.3876 106.801C54.1876 105.901 53.6876 104.601 53.0876 103.301C52.3876 101.801 51.4876 100.401 50.4876 99.1007C49.4876 97.8007 47.5876 96.4007 46.3876 94.9007C45.1876 100.167 43.9542 105.434 42.6876 110.701C42.7876 110.701 42.7876 110.701 42.8876 110.701C45.6876 111.301 50.1876 114.901 48.5876 118.301C48.3876 118.701 47.6877 118.801 47.2877 118.501C46.3877 117.701 46.0876 116.401 45.3876 115.401C44.5876 114.201 43.4877 113.201 42.2877 112.401C41.621 115.201 40.9876 117.967 40.3876 120.701C39.9876 122.101 37.8876 121.601 38.1876 120.201C38.9209 116.134 39.6543 112.067 40.3876 108.001C39.7876 108.601 39.0876 109.101 38.5876 109.501C36.7876 110.901 33.7876 112.901 31.3876 111.901C30.7876 111.701 30.6876 110.901 30.8876 110.401C31.7876 108.401 34.8876 107.501 36.5876 106.301C37.8876 105.401 39.4877 103.501 41.2877 103.301C43.021 93.834 44.7876 84.3674 46.5876 74.9007C43.7876 77.2007 40.6877 79.2007 38.2877 81.6007C34.4877 85.4007 31.6876 91.6007 27.0876 94.5007C26.1876 95.1007 24.6876 94.5007 24.6876 93.3007C24.7876 87.5007 30.4876 81.8007 34.3876 78.0007C37.7876 74.7007 42.5876 70.2007 47.5876 69.2007C47.9209 67.6007 48.221 66.034 48.4876 64.5007C50.0876 56.2007 51.8876 47.9007 52.8876 39.5007C52.9876 38.7007 52.9876 38.0007 53.0876 37.3007C49.7876 39.0007 46.5876 40.6007 43.4876 42.5007C39.0876 45.2007 34.8876 49.8007 29.9876 51.3007C28.5876 51.7007 27.4876 50.3007 27.9876 49.0007C30.2876 44.0007 36.8876 40.5007 41.3876 37.9007C45.1876 35.7007 48.9876 33.7007 53.1876 32.5007C53.0876 28.4007 52.4876 24.3007 52.0876 20.1007C41.7876 27.1007 30.3877 32.2007 21.2877 41.2007C9.98767 52.3007 5.28757 67.0007 6.68757 82.7007V82.7007Z" fill="#32594A"/>
</svg>
