<svg width="121" height="69" viewBox="0 0 121 69" fill="none" xmlns="http://www.w3.org/2000/svg">
<path fill-rule="evenodd" clip-rule="evenodd" d="M108.089 22.0008C108.555 21.8008 109.022 21.5675 109.489 21.3008C112.089 19.1008 115.289 17.6008 119.289 17.6008C120.989 17.6008 121.589 20.3008 119.989 21.0008C106.589 26.6008 105.989 40.5008 97.9888 50.8008C91.6888 58.8008 82.4888 64.0008 72.7888 66.5008C48.2888 72.8008 25.1888 60.6008 3.68882 50.6008C3.22216 50.7341 2.75547 50.8341 2.2888 50.9008C0.688798 51.0008 -0.311165 49.3008 0.888835 48.1008C5.38883 43.8008 10.2888 40.8008 14.3888 35.9008C17.8888 31.6008 21.1888 27.1008 24.7888 22.9008C32.4888 14.2008 41.5888 6.5008 52.6888 2.7008C73.0888 -4.1992 94.5888 6.5008 108.089 22.0008V22.0008ZM46.9888 10.1008C36.3888 15.8008 28.4888 25.0008 21.2888 34.4008C17.6888 39.1008 13.0888 45.9008 7.38883 49.1008C17.6888 52.0008 27.3888 57.2008 37.6888 60.1008C50.0888 63.5008 63.6888 64.6008 75.9888 60.2008C88.6888 55.6008 95.3888 46.9008 100.689 34.8008C101.155 33.8675 101.622 32.9008 102.089 31.9008C96.7888 34.2008 90.4888 35.2008 84.9888 36.1008C85.2888 40.5008 83.9888 44.6008 81.5888 48.3008C79.6888 51.2008 76.1888 55.6008 72.4888 55.5008C71.6888 55.4008 71.2888 54.5008 71.6888 53.9008C72.5888 52.5008 73.9888 51.8008 75.2888 50.7008C76.6888 49.5008 77.9221 48.1341 78.9888 46.6008C81.0888 43.6008 82.2888 40.1008 82.8888 36.5008C81.8222 36.6341 80.8222 36.8008 79.8888 37.0008C71.1555 38.6008 62.4555 40.1675 53.7888 41.7008C53.7888 41.8008 53.8888 41.9008 53.8888 42.0008C53.7888 42.5008 53.7888 42.6008 53.5888 42.9008C53.5221 43.0341 53.4555 43.1008 53.3888 43.1008C52.8888 43.8008 52.6888 45.5008 52.3888 46.0008C51.9888 47.1008 51.4888 48.2008 50.8888 49.2008C49.7888 50.9008 48.0888 53.4008 45.9888 53.7008C45.1888 53.8008 44.5888 53.1008 44.7888 52.3008C45.0888 51.2008 45.8888 50.4008 46.5888 49.6008C47.3888 48.6008 48.0888 47.6008 48.7888 46.5008C49.3888 45.3008 49.7888 43.6008 50.5888 42.2008C46.3888 42.9341 42.2221 43.7008 38.0888 44.5008C38.0888 44.5008 38.1888 44.5008 38.1888 44.6008C38.5888 46.8008 37.3888 51.1008 34.4888 51.0008C34.0888 51.0008 33.7888 50.5008 33.9888 50.2008C34.2888 49.2008 35.0888 48.6008 35.5888 47.8008C36.1888 46.9008 36.5888 45.8008 36.6888 44.7008C34.5555 45.1008 32.4221 45.4675 30.2888 45.8008C29.1888 46.0008 28.7888 44.4008 29.8888 44.1008C33.0222 43.4341 36.1555 42.7341 39.2888 42.0008C38.6888 41.7008 38.1888 41.4008 37.6888 41.2008C36.1888 40.3008 33.7888 38.8008 33.7888 36.8008C33.7888 36.3008 34.2888 35.9008 34.6888 35.9008C36.3888 36.0008 37.9888 37.8008 39.3888 38.7008C40.4888 39.4008 42.2888 40.0008 42.9888 41.2008C50.2555 39.5341 57.5555 37.8675 64.8888 36.2008C62.3888 34.9008 59.9888 33.3008 57.5888 32.4008C53.5888 30.8008 48.3888 30.7008 44.8888 28.3008C44.1888 27.9008 44.0888 26.6008 44.9888 26.2008C49.1888 24.5008 54.9888 26.8008 58.8888 28.4008C62.3888 29.9008 66.9888 31.9008 69.2888 35.2008C70.4888 34.9341 71.6888 34.6675 72.8888 34.4008C79.2888 32.9008 85.7888 31.7008 92.0888 29.8008C92.6888 29.6008 93.1888 29.4008 93.6888 29.2008C91.4888 27.5008 89.3888 25.6008 87.0888 24.0008C83.7888 21.7008 79.1888 20.1008 76.5888 17.1008C75.8888 16.2008 76.5888 15.0008 77.6888 15.0008C81.8888 15.0008 86.4888 18.7008 89.6888 21.1008C92.3888 23.1008 94.9888 25.3008 97.1888 27.9008C100.089 26.5008 102.889 24.9008 105.689 23.3008C97.4888 18.1008 90.3888 11.5008 81.1888 7.7008C69.7888 3.1008 57.7888 4.2008 46.9888 10.1008Z" fill="#32594A"/>
</svg>
