<svg width="64" height="117" viewBox="0 0 64 117" fill="none" xmlns="http://www.w3.org/2000/svg">
<path fill-rule="evenodd" clip-rule="evenodd" d="M26.4873 104.601C26.554 105.068 26.5873 105.535 26.5873 106.001C27.5873 109.201 27.6873 112.501 26.1873 115.901C25.5873 117.301 23.0873 116.901 23.0873 115.201C23.1873 101.601 11.2874 95.9014 5.38736 85.2014C0.787356 76.8014 -0.412693 66.9014 1.08731 57.5014C4.68731 33.9014 23.6874 18.5014 40.3874 3.40144C40.454 3.00144 40.554 2.56809 40.6873 2.10142C41.0873 0.801418 42.9873 0.501412 43.4873 2.00141C45.5873 7.40141 46.3873 12.8014 49.1873 18.2014C51.5873 22.8014 54.2873 27.3014 56.4873 32.0014C61.1873 41.9014 64.5873 52.7014 63.6873 63.7014C62.1873 83.9014 44.9873 98.6014 26.4873 104.601V104.601ZM59.4873 56.0014C58.3873 44.7014 53.3874 34.5014 47.8874 24.7014C45.1874 19.8014 40.9873 13.4014 40.2873 7.30143C33.9873 15.1014 25.8873 21.6014 19.5873 29.5014C11.9873 38.9014 5.98736 50.3014 5.38736 62.6014C4.58736 75.3014 9.68734 84.4014 18.1873 93.4014C18.854 94.1348 19.5207 94.9014 20.1873 95.7014C20.1873 90.3014 21.5874 84.4014 22.8874 79.3014C18.9874 77.9014 15.7873 75.3014 13.5873 71.9014C11.7873 69.2014 9.28734 64.5014 10.6873 61.3014C10.9873 60.6014 11.8873 60.7014 12.2873 61.2014C13.2873 62.5014 13.2873 64.0014 13.7873 65.5014C14.3207 67.1681 15.054 68.7681 15.9873 70.3014C17.7873 73.2014 20.3874 75.5014 23.3874 77.3014C23.5874 76.3681 23.7873 75.4347 23.9873 74.5014C25.854 66.4347 27.7206 58.3348 29.5873 50.2014C29.4873 50.2014 29.3873 50.2014 29.2873 50.1014C28.8873 49.9014 28.7873 49.9014 28.5873 49.6014C28.5206 49.4681 28.4873 49.3681 28.4873 49.3014C28.0873 48.7014 26.6873 47.8014 26.2873 47.4014C25.4873 46.6014 24.7873 45.8014 24.1873 44.9014C23.0873 43.4014 21.4873 41.0014 21.9873 39.0014C22.2873 38.3014 23.0873 38.0014 23.6873 38.5014C24.5873 39.1014 24.8874 40.1014 25.3874 41.1014C25.8874 42.1014 26.5873 43.1014 27.2873 44.1014C27.9873 45.1014 29.3873 46.1014 30.2873 47.2014C31.154 43.3348 32.054 39.4681 32.9873 35.6014C32.8873 35.6014 32.8873 35.6014 32.7873 35.6014C30.7873 35.1014 27.3873 32.5014 28.5873 30.1014C28.7873 29.7014 29.2873 29.6014 29.5873 29.9014C30.2873 30.5014 30.4873 31.4014 30.9873 32.2014C31.5873 33.1014 32.3873 33.8014 33.2873 34.3014C33.754 32.3014 34.2207 30.3014 34.6873 28.3014C34.8873 27.3014 36.4873 27.6014 36.2873 28.6014C35.754 31.6014 35.2207 34.6014 34.6873 37.6014C35.0873 37.1014 35.5873 36.8014 35.9873 36.5014C37.2873 35.5014 39.4873 33.9014 41.1873 34.7014C41.6873 34.9014 41.7873 35.4014 41.5873 35.8014C40.9873 37.2014 38.6873 38.0014 37.4873 38.8014C36.4873 39.5014 35.2873 40.9014 33.9873 41.0014C32.7207 47.9347 31.4873 54.8681 30.2873 61.8014C32.1873 60.2014 34.4873 58.7014 36.2873 56.9014C39.0873 54.1014 41.0874 49.5014 44.3874 47.4014C45.0874 47.0014 46.1873 47.4014 46.1873 48.3014C46.1873 52.6014 41.9873 56.7014 39.1873 59.5014C36.6873 62.0014 33.1873 65.3014 29.4873 66.0014C29.2873 67.2014 29.0874 68.3681 28.8874 69.5014C27.7874 75.6014 26.3873 81.7014 25.6873 87.8014C25.5873 88.4014 25.5873 88.9014 25.5873 89.4014C27.9873 88.2014 30.3873 87.0014 32.5873 85.6014C35.7873 83.6014 38.8873 80.2014 42.4873 79.1014C43.4873 78.8014 44.2874 79.8014 43.8874 80.8014C42.2874 84.5014 37.4873 87.0014 34.0873 89.0014C31.3873 90.6014 28.5873 92.0014 25.4873 92.9014C25.5873 96.0014 25.9873 99.0014 26.2873 102.001C33.8873 96.9014 42.2874 93.1014 48.8874 86.5014C57.0874 78.3014 60.5873 67.5014 59.4873 56.0014V56.0014Z" fill="#32594A"/>
</svg>
