<svg width="104" height="135" viewBox="0 0 104 135" fill="none" xmlns="http://www.w3.org/2000/svg">
<path fill-rule="evenodd" clip-rule="evenodd" d="M14.6882 120.001C14.3549 120.601 14.0549 121.234 13.7882 121.901C12.9882 126.401 10.8882 130.601 6.78819 133.901C4.98819 135.301 2.18819 133.101 3.28819 131.101C12.3882 114.001 1.28821 99.101 0.988207 81.801C0.788207 68.201 5.78819 55.101 13.7882 44.301C33.8882 17.201 67.8882 10.401 98.5882 2.60098C98.9882 2.13431 99.3883 1.66765 99.7883 1.20098C101.288 -0.299016 103.788 0.70099 103.588 2.80099C102.488 11.101 99.8882 18.301 99.8882 26.801C99.8882 34.301 100.288 41.601 99.9882 49.101C99.3882 64.501 96.3882 80.101 88.0882 93.401C72.8882 117.701 41.6882 124.601 14.6882 120.001V120.001ZM87.8882 80.901C93.9882 66.101 94.3882 50.001 93.9882 34.201C93.7882 26.301 92.7882 15.501 95.9882 7.40098C82.8882 13.001 68.5882 15.801 55.4882 21.501C39.6882 28.301 24.7882 38.601 15.7882 53.501C6.48819 69.001 6.88821 83.601 11.4882 100.501C11.8882 101.901 12.2548 103.301 12.5882 104.701C16.1882 97.901 21.7882 91.501 26.6882 86.001C22.7882 81.701 20.4882 76.401 19.9882 70.501C19.4882 66.001 19.3882 58.501 23.3882 55.501C24.1882 54.801 25.2882 55.501 25.4882 56.401C25.7882 58.601 24.8882 60.601 24.4882 62.701C24.0215 65.1677 23.8882 67.6343 24.0882 70.101C24.4882 75.001 26.1882 79.601 28.5882 83.801C29.5215 82.7343 30.4215 81.7343 31.2882 80.801C38.8882 71.8677 46.5549 62.9343 54.2883 54.001C54.1883 53.901 53.9882 53.901 53.8882 53.701C53.5882 53.201 53.4882 53.101 53.4882 52.501C53.4882 52.3677 53.5215 52.2677 53.5882 52.201C53.3882 51.101 52.1882 49.101 51.9882 48.401C51.5882 46.901 51.1882 45.301 50.9882 43.801C50.6882 41.201 50.2882 37.101 52.1882 35.001C52.9882 34.201 54.1882 34.401 54.6882 35.401C55.2882 36.801 55.0882 38.301 55.0882 39.801C54.9882 41.501 55.1882 43.201 55.4882 44.801C55.6882 46.501 56.7882 48.701 57.1882 50.701C60.8548 46.4343 64.5215 42.201 68.1882 38.001C68.0882 37.901 67.9882 37.901 67.9882 37.901C65.6882 35.901 63.2882 30.501 66.3882 28.201C66.7882 27.801 67.4882 28.101 67.6882 28.601C68.0882 29.801 67.7882 31.101 67.8882 32.401C68.0882 33.901 68.5882 35.301 69.3882 36.501C71.3216 34.301 73.2215 32.101 75.0882 29.901C76.0882 28.801 77.7882 30.201 76.8882 31.401C74.2216 34.801 71.5882 38.1677 68.9882 41.501C69.7882 41.301 70.6883 41.201 71.2883 41.101C73.6883 40.601 77.3882 40.201 79.0882 42.301C79.4882 42.801 79.2883 43.501 78.7883 43.901C77.0883 45.301 73.7882 44.701 71.6882 44.901C69.9882 45.101 67.5882 46.101 65.8882 45.401C59.7549 53.2676 53.6215 61.1343 47.4882 69.001C50.9882 68.201 54.8882 67.901 58.1882 66.801C63.5882 65.101 69.0882 60.801 74.6882 60.301C75.7882 60.201 76.8883 61.501 76.2883 62.601C73.4883 67.901 65.5882 70.401 60.0882 72.001C55.3882 73.401 48.8883 75.201 43.7883 73.701C42.7216 75.0343 41.6882 76.3343 40.6882 77.601C35.2882 84.501 29.5882 91.301 24.5882 98.501C24.1882 99.101 23.8882 99.801 23.4882 100.501C27.1882 100.401 30.9882 100.501 34.7882 100.201C40.0882 99.801 46.0882 97.701 51.3882 98.701C52.7882 98.901 53.1882 100.801 52.0882 101.701C47.5882 105.201 39.8882 105.301 34.3882 105.501C29.9882 105.701 25.3882 105.601 21.0882 104.801C19.1882 108.701 17.6882 112.601 16.0882 116.701C28.8882 115.201 41.8882 116.001 54.4882 112.101C70.1882 107.301 81.5882 96.101 87.8882 80.901V80.901Z" fill="#32594A"/>
</svg>
