<svg width="742" height="123" viewBox="0 0 742 123" fill="none" xmlns="http://www.w3.org/2000/svg">
<path d="M16.5781 122.894C14.4662 122.894 12.6008 119.754 10.9817 113.473C9.64416 107.828 8.48259 100.912 7.49706 92.7263C6.65232 84.3287 5.77238 73.8142 4.85724 61.1825C4.29408 52.9261 3.55495 44.105 2.63982 34.7194C1.93587 26.8864 1.05593 21.8761 0 19.6884C0.915137 17.7831 2.42862 16.8305 4.54047 16.8305C7.91944 16.8305 9.60891 20.2883 9.60891 27.204C9.60891 35.4604 10.7001 47.5276 12.8823 63.4054C15.135 79.1421 16.4021 90.5741 16.6836 97.7015L17.5284 92.4089C18.5843 85.2815 19.4642 78.6128 20.1682 72.4028C21.0129 66.0517 21.7169 59.2418 22.28 51.9733C22.984 43.858 23.336 35.8133 23.336 27.8391L27.6653 25.9337C29.0028 25.9337 30.0939 26.3218 30.9387 27.0981C31.8538 27.7332 32.3113 28.6859 32.3113 29.9561V31.2263C34.0008 37.1541 35.3736 43.6463 36.4295 50.7031C37.6262 57.6894 38.647 65.9105 39.4917 75.3666C40.1253 82.7057 40.8644 89.5155 41.7091 95.7961C43.6802 81.6825 44.6657 64.2874 44.6657 43.611C44.6657 40.2943 45.0881 36.2719 45.9328 31.5439C46.7072 26.6747 47.0943 22.7229 47.0943 19.6884C46.7423 18.7005 46.5664 17.7831 46.5664 16.9363C46.5664 14.3959 48.1503 13.1257 51.318 13.1257C52.5851 13.1257 53.5707 13.4432 54.2747 14.0783C55.049 14.7134 55.4362 15.6308 55.4362 16.8305V19.1592C55.4362 20.7823 55.2602 22.1584 54.9082 23.2874V24.0284C53.5707 28.2625 52.9019 33.1317 52.9019 38.636V50.1739C52.9019 56.8778 52.1276 66.8279 50.5789 80.0241C48.8895 92.8675 48.0447 102.465 48.0447 108.816V111.674C48.0447 114.144 47.7631 116.226 47.2 117.919C46.5664 119.966 45.0529 120.989 42.6595 120.989C40.97 120.989 39.6324 120.495 38.6469 119.507C37.8022 118.307 37.3798 116.861 37.3798 115.167C37.3798 106.628 36.4999 95.5491 34.74 81.9295C33.7545 75.7901 32.7337 69.6154 31.6778 63.4054L29.1436 46.6807C28.7212 49.7857 28.51 52.8201 28.51 55.784C28.51 61.7117 28.1229 69.5095 27.3485 79.1774C26.5038 88.9157 25.1662 98.3718 23.336 107.546C21.3649 117.778 19.1123 122.894 16.5781 122.894V122.894ZM100.63 119.613C97.0397 119.613 95.2446 110.898 95.2446 93.4674L95.4558 84.47L95.5614 77.1661V76.6369V75.0491C95.7022 74.2023 95.7726 73.2143 95.7726 72.0852C95.7726 71.8735 95.5966 71.5913 95.2446 71.2385C94.9631 70.9562 94.8222 70.7091 94.8222 70.4974V70.3916C94.2591 70.6033 93.3087 70.7092 91.9712 70.7092C90.5633 70.7092 88.8739 70.4974 86.9028 70.074C86.2692 69.9328 84.5798 69.6507 81.8344 69.2272V87.4337C81.8344 90.1859 81.9752 94.5259 82.2568 100.454C82.6087 106.24 82.7847 110.58 82.7847 113.473C82.7847 115.026 82.3623 116.402 81.5176 117.602C80.6728 118.731 79.5465 119.295 78.1386 119.295C76.1675 119.295 74.7596 117.355 73.9149 113.473C73.0702 109.451 72.6478 104.194 72.6478 97.7015L72.9645 84.8933C73.1053 81.2943 73.1757 77.4837 73.1757 73.4613V70.815V68.5922C73.1757 66.8985 73.1053 65.8046 72.9645 65.3106V64.4639L73.4925 55.2547C73.4925 51.2323 73.3165 45.2694 72.9645 37.3658C72.683 29.4622 72.5422 23.4992 72.5422 19.4768C72.5422 18.2066 72.9646 17.1127 73.8093 16.1953C74.6541 15.2074 75.6748 14.7135 76.8715 14.7135C80.2505 14.7135 81.9399 17.889 81.9399 24.2401L81.6232 43.9286C81.412 49.7857 81.3064 56.3838 81.3064 63.7229C82.9255 64.2168 85.7765 64.4639 89.8594 64.4639H95.7726C95.9838 63.8288 96.0894 63.1936 96.0894 62.5585C96.0894 57.4776 95.7726 49.9975 95.139 40.1179C94.3647 30.803 93.9775 23.2522 93.9775 17.4656C93.9775 16.2659 94.3999 15.3132 95.2446 14.6076C96.2302 13.7607 97.3565 13.3373 98.6236 13.3373C99.3276 13.3373 100.348 13.5843 101.686 14.0783L103.164 14.7135C103.164 29.7444 103.692 49.7504 104.748 74.7315L106.121 114.849C106.121 116.331 105.558 117.496 104.431 118.343C103.375 119.189 102.108 119.613 100.63 119.613V119.613ZM156.277 120.989C153.813 120.989 152.018 120.636 150.892 119.93C149.766 119.225 149.202 117.849 149.202 115.802C149.202 112.627 148.675 107.228 147.619 99.6067L146.985 96.3253L131.252 93.9966C130.618 96.396 129.738 101.3 128.612 108.71C127.978 113.861 126.958 117.284 125.55 118.978C124.846 119.895 123.825 120.354 122.488 120.354C121.22 120.354 120.059 120.001 119.003 119.295C117.947 118.448 117.419 117.46 117.419 116.331L117.736 115.485L117.841 114.849C124.811 87.6808 130.09 60.9002 133.68 34.5077C133.68 34.0843 133.716 33.414 133.786 32.4966C133.927 31.4381 134.032 29.9561 134.103 28.0508C134.455 24.099 134.772 20.994 135.053 18.7358C135.475 16.4071 136.109 14.6429 136.954 13.4432H142.339C143.817 13.4432 145.084 13.8313 146.14 14.6076C147.196 15.2427 147.724 16.1954 147.724 17.4656C147.724 25.4398 148.815 37.3658 150.998 53.2436C153.109 69.4743 154.165 80.8709 154.165 87.4337C154.165 88.0689 154.447 89.7273 155.01 92.4089C155.503 94.8082 155.749 96.3606 155.749 97.0663C155.749 97.8425 156.277 101.018 157.333 106.593C158.319 111.674 158.811 114.955 158.811 116.437V116.649C158.811 118.907 157.967 120.354 156.277 120.989V120.989ZM145.824 90.6093C145.542 89.0568 145.401 87.1162 145.401 84.7874C145.401 75.2608 144.556 63.0878 142.867 48.2685L141.283 31.8614C136.707 56.7014 133.575 75.4372 131.885 88.0688C133.504 89.1273 138.15 89.9742 145.824 90.6093V90.6093ZM184.048 119.189L181.197 117.072L181.092 110.933C180.951 109.098 180.88 107.087 180.88 104.899L181.092 99.5009C180.74 98.3012 179.93 86.728 178.663 64.7814C177.396 42.8347 176.657 28.7212 176.445 22.4406C170.391 22.2289 166.52 21.6291 164.83 20.6411C163.633 19.7943 163.035 18.8416 163.035 17.7831C163.035 16.9363 163.563 16.1954 164.619 15.5603C165.816 14.784 166.977 14.3958 168.104 14.3958C171.06 14.3958 174.65 14.6076 178.874 15.031C182.887 15.5955 186.477 15.8778 189.644 15.8778H190.912H192.179C195.417 15.8778 197.036 17.148 197.036 19.6884C197.036 20.9587 196.508 21.9819 195.452 22.7582C194.396 23.5344 193.199 23.9225 191.862 23.9225C190.876 23.9225 189.504 23.7461 187.744 23.3933L184.576 22.7582L184.365 23.605L184.259 24.346C184.259 33.8021 185.139 48.833 186.899 69.4389C188.589 88.704 189.433 103.7 189.433 114.426C189.433 115.696 188.87 116.79 187.744 117.707C186.688 118.695 185.456 119.189 184.048 119.189ZM249.621 119.507C240.47 119.507 235.894 117.919 235.894 114.744C235.894 112.203 237.548 110.933 240.857 110.933H242.546L244.13 111.039C244.975 111.039 245.573 110.792 245.925 110.298C246.207 109.733 246.348 108.781 246.348 107.44C246.348 105.605 246.242 102.782 246.031 98.9716C245.749 96.4312 245.397 91.9148 244.975 85.4225C243.99 69.2625 243.497 57.0542 243.497 48.7978C243.497 45.8339 243.567 43.1523 243.708 40.753L243.814 32.6024C243.814 29.1446 243.673 26.2513 243.391 23.9225C241.702 24.3459 240.47 24.5577 239.695 24.5577C237.161 24.5577 235.894 23.2874 235.894 20.747C235.894 19.4767 236.704 18.383 238.323 17.4656C239.871 16.4776 241.878 15.772 244.342 15.3485C248.495 14.5017 252.226 14.0783 255.534 14.0783C256.801 14.0783 257.857 14.5723 258.702 15.5603C259.617 16.4071 260.075 17.395 260.075 18.5241C260.075 19.7238 259.723 20.747 259.019 21.5938C258.385 22.3701 257.541 22.7582 256.485 22.7582C255.851 22.7582 255.323 22.7229 254.901 22.6524H253.634C252.578 22.6524 251.768 22.8993 251.205 23.3933C250.783 23.8167 250.572 24.6635 250.572 25.9337C250.572 36.2367 251.205 51.6557 252.472 72.191C252.683 76.0017 253.106 81.6119 253.739 89.0215C254.302 93.8907 254.584 98.8657 254.584 103.947V109.98C255.218 109.839 256.273 109.768 257.752 109.768C262.187 109.768 264.404 111.639 264.404 115.379V116.331L260.392 118.978C260.321 118.978 259.969 119.048 259.336 119.189C258.773 119.189 257.717 119.189 256.168 119.189C252.789 119.401 250.607 119.507 249.621 119.507V119.507ZM280.349 121.836C278.448 121.483 276.794 120.777 275.386 119.719C274.119 118.731 273.38 117.39 273.168 115.696L274.963 112.944C275.597 112.944 276.583 113.156 277.92 113.579C279.539 113.932 280.771 114.109 281.616 114.109C283.516 114.109 285.206 113.262 286.684 111.568C288.233 109.874 289.394 107.651 290.169 104.899C291.506 99.8184 292.175 95.2668 292.175 91.2444C292.175 84.2582 289.958 76.9192 285.523 69.2272L283.833 66.2633C281.792 62.7349 280.102 59.5946 278.765 56.8425C277.357 54.0903 276.195 51.1266 275.28 47.951C274.013 43.8581 273.38 39.7651 273.38 35.6721C273.38 31.0147 274.435 26.1455 276.547 21.0646C277.603 18.6653 279.082 16.7246 280.982 15.2427C282.953 13.6197 285.171 12.8081 287.635 12.8081C289.535 12.8081 291.26 13.4432 292.809 14.7135C294.498 15.9131 295.343 17.3597 295.343 19.0534C295.343 19.9707 294.991 20.7117 294.287 21.2762C293.513 21.7702 292.597 22.0172 291.541 22.0172C290.415 22.0172 289.324 21.6997 288.268 21.0646C285.945 21.2057 284.08 23.2522 282.672 27.204C281.545 30.9441 280.982 34.0138 280.982 36.4131C280.982 39.5181 281.44 42.6584 282.355 45.834C283.34 48.8684 284.572 51.6557 286.051 54.1962L289.535 60.5473L295.026 70.9209C296.504 73.8847 297.666 77.3426 298.511 81.2944C299.426 85.1756 299.883 89.1274 299.883 93.1498C299.883 99.5715 298.44 105.711 295.554 111.568C294.076 114.532 291.964 116.896 289.218 118.66C286.543 120.424 283.587 121.306 280.349 121.306V121.836ZM352.68 121.73C351.342 121.73 350.075 121.236 348.878 120.248C347.822 119.33 347.259 118.201 347.189 116.861V112.732V109.557C347.048 108.569 346.978 107.44 346.978 106.17C346.978 103.982 346.837 100.595 346.555 96.0077L346.239 85.9518C346.239 80.7298 346.379 73.0027 346.661 62.7703C347.083 53.5965 347.294 45.9045 347.294 39.6945C347.294 38.2126 347.154 35.9897 346.872 33.0258C346.52 29.9209 346.344 27.698 346.344 26.3572C346.344 18.877 348.562 15.1368 352.997 15.1368C356.516 15.1368 360.529 15.8072 365.034 17.148C369.68 18.5594 372.003 20.2178 372.003 22.1231C372.003 23.1111 371.51 24.099 370.525 25.0869C369.68 25.9338 368.659 26.6041 367.463 27.0981C363.028 25.5456 359.015 24.4871 355.425 23.9225C355.495 25.5456 355.531 27.8391 355.531 30.8029C355.531 35.037 355.495 38.8477 355.425 42.235C355.073 47.2453 354.897 51.0206 354.897 53.5611L355.425 56.1016L357.959 55.9957C358.804 55.8546 359.86 55.784 361.127 55.784C366.196 55.784 368.73 57.266 368.73 60.2298C368.73 61.4295 368.237 62.4527 367.252 63.2996C366.336 64.0052 365.14 64.3581 363.661 64.3581C361.761 64.3581 360.282 64.2522 359.226 64.0405H355.214C355.425 66.7926 355.531 70.815 355.531 76.1076C355.531 81.4002 355.495 86.1636 355.425 90.3977C355.073 96.8193 354.897 101.618 354.897 104.793C354.897 110.721 355.003 113.685 355.214 113.685L360.494 113.473C362.253 113.403 364.4 113.367 366.935 113.367C370.947 113.367 372.953 114.638 372.953 117.178C372.953 118.66 372.249 119.789 370.842 120.565C369.645 121.342 368.096 121.73 366.196 121.73H352.68ZM398.507 69.0155C397.099 69.0155 395.867 68.5921 394.811 67.7453C393.755 66.7573 393.227 65.6283 393.227 64.3581C393.227 63.0879 394.494 61.9939 397.029 61.0766C400.619 59.6652 406.849 58.7126 415.718 58.2186C419.097 58.0069 421.245 57.901 422.16 57.901C423.568 57.901 424.8 58.3597 425.855 59.2771C426.911 60.1239 427.439 61.1825 427.439 62.4527C427.439 63.7229 426.172 64.852 423.638 65.8399C420.048 67.1807 413.818 68.1334 404.948 68.698C401.569 68.9097 399.422 69.0155 398.507 69.0155ZM461.335 123C459.223 123 457.392 119.824 455.844 113.473C454.436 107.898 453.274 100.983 452.359 92.7263C451.514 84.3993 450.635 73.8848 449.719 61.1825C449.156 52.9261 448.417 44.105 447.502 34.7194C446.728 26.8864 445.812 21.8761 444.756 19.6884C445.742 17.7831 447.291 16.8305 449.403 16.8305C452.711 16.8305 454.366 20.3236 454.366 27.3098C454.366 35.5663 455.492 47.5982 457.744 63.4054C459.927 79.1421 461.194 90.6094 461.546 97.8073L462.285 92.4089C463.341 85.3521 464.256 78.6834 465.03 72.4028C465.875 66.1223 466.544 59.3124 467.037 51.9733C467.811 43.858 468.198 35.8486 468.198 27.945L472.422 26.0396C473.83 26.0396 474.956 26.3924 475.801 27.0981C476.716 27.7332 477.174 28.6859 477.174 29.9561V31.2263C478.863 37.1541 480.236 43.6463 481.292 50.7031C482.418 57.6894 483.403 65.9459 484.248 75.4725C484.882 82.741 485.621 89.5508 486.466 95.9019C488.507 81.7177 489.528 64.2874 489.528 43.611C489.528 40.3649 489.95 36.3425 490.795 31.5439C491.499 26.6747 491.851 22.7229 491.851 19.6884C491.569 18.7711 491.429 17.889 491.429 17.0421C491.429 14.5017 493.012 13.2315 496.18 13.2315C497.447 13.2315 498.433 13.5491 499.137 14.1842C499.911 14.8193 500.298 15.7014 500.298 16.8305V19.2651C500.298 20.8176 500.122 22.1584 499.77 23.2874V24.1342C498.433 28.3683 497.764 33.2375 497.764 38.7418V50.2797C497.764 56.9131 496.954 66.8279 495.335 80.0241C493.646 92.938 492.801 102.571 492.801 108.922V111.78C492.801 114.179 492.555 116.226 492.062 117.919C491.428 120.036 489.88 121.095 487.416 121.095C485.726 121.095 484.424 120.565 483.509 119.507C482.664 118.378 482.242 116.967 482.242 115.273C482.242 106.664 481.327 95.5491 479.496 81.9295C478.581 75.7901 477.596 69.6154 476.54 63.4054L474.006 46.7865C473.583 49.821 473.372 52.8201 473.372 55.784C473.372 61.7117 472.95 69.5448 472.105 79.2832C471.26 89.0216 469.958 98.4776 468.198 107.651C466.157 117.884 463.869 123 461.335 123V123ZM548.765 121.095C546.372 121.095 544.577 120.742 543.38 120.036C542.254 119.26 541.691 117.884 541.691 115.908C541.691 112.732 541.163 107.334 540.107 99.7126L539.473 96.3253L523.845 93.9966C523.212 96.396 522.297 101.3 521.1 108.71C520.466 113.932 519.481 117.39 518.143 119.084C517.369 120.001 516.313 120.46 514.976 120.46C513.709 120.46 512.547 120.107 511.491 119.401C510.435 118.554 509.907 117.531 509.907 116.331L510.224 115.59L510.33 114.955C517.299 87.7866 522.578 61.0061 526.169 34.6136C526.169 34.1902 526.204 33.4845 526.274 32.4966C526.415 31.4381 526.52 29.9561 526.591 28.0508C526.943 24.1695 527.26 21.0646 527.541 18.7358C527.964 16.4071 528.597 14.6781 529.442 13.549H534.827C536.305 13.549 537.572 13.9019 538.628 14.6076C539.684 15.2427 540.212 16.1954 540.212 17.4656C540.212 25.5103 541.339 37.4364 543.591 53.2436C545.703 69.5448 546.759 80.9767 546.759 87.5396C546.759 88.1747 547.005 89.7978 547.498 92.4089C548.061 94.8082 548.343 96.396 548.343 97.1722C548.343 97.8779 548.871 101.053 549.927 106.699C550.842 111.78 551.3 115.061 551.3 116.543V116.649C551.3 118.978 550.455 120.46 548.765 121.095V121.095ZM538.312 90.7151C538.03 89.0921 537.889 87.1162 537.889 84.7874C537.889 75.3313 537.045 63.1936 535.355 48.3743L533.771 31.8614C529.195 56.7014 526.098 75.4725 524.479 88.1748C526.028 89.2333 530.639 90.08 538.312 90.7151V90.7151ZM567.772 121.836C565.871 121.553 564.217 120.883 562.809 119.824C561.542 118.766 560.803 117.39 560.592 115.696L562.387 113.05C563.02 113.05 564.006 113.262 565.343 113.685C566.963 113.967 568.194 114.109 569.039 114.109C570.94 114.109 572.629 113.262 574.108 111.568C575.656 109.874 576.783 107.651 577.487 104.899C578.894 99.8184 579.598 95.3022 579.598 91.3503C579.598 84.3641 577.381 77.025 572.946 69.3331L571.257 66.2633C569.215 62.8055 567.526 59.7006 566.188 56.9484C564.78 54.1963 563.619 51.2324 562.704 48.0568C561.436 43.9639 560.803 39.8357 560.803 35.6721C560.803 31.0147 561.859 26.1807 563.971 21.1704C565.027 18.7005 566.505 16.7246 568.406 15.2427C570.377 13.6902 572.594 12.914 575.058 12.914C576.888 12.914 578.613 13.5491 580.232 14.8193C581.921 15.9484 582.766 17.3597 582.766 19.0534C582.766 20.0413 582.379 20.7823 581.605 21.2762C580.901 21.8408 580.021 22.1231 578.965 22.1231C577.768 22.1231 576.642 21.8055 575.586 21.1704C573.333 21.241 571.503 23.2874 570.095 27.3098C568.969 30.9793 568.406 34.0491 568.406 36.5189C568.406 39.5534 568.863 42.6584 569.778 45.834C570.764 48.8684 571.996 51.6557 573.474 54.1962L576.853 60.5473L582.449 71.0267C583.928 73.9905 585.089 77.4132 585.934 81.2944C586.849 85.2462 587.307 89.2332 587.307 93.2556C587.307 99.6773 585.828 105.781 582.872 111.568C581.393 114.532 579.282 116.931 576.536 118.766C573.932 120.53 571.01 121.412 567.772 121.412V121.836ZM615.606 119.189L612.755 117.072L612.649 110.933C612.508 109.098 612.438 107.087 612.438 104.899L612.649 99.5009C612.297 98.3012 611.487 86.728 610.22 64.7814C608.953 42.8347 608.214 28.7565 608.003 22.5465C601.949 22.3348 598.077 21.6997 596.388 20.6411C595.191 19.7943 594.593 18.8416 594.593 17.7831C594.593 16.9363 595.121 16.1954 596.176 15.5603C597.373 14.784 598.535 14.3958 599.661 14.3958C602.618 14.3958 606.208 14.6076 610.431 15.031C614.444 15.5955 618.034 15.8778 621.202 15.8778H622.469H623.736C626.974 15.8778 628.593 17.148 628.593 19.6884C628.593 20.9587 628.066 22.0172 627.01 22.864C625.954 23.5697 624.757 23.9225 623.419 23.9225C622.434 23.9225 621.061 23.7461 619.301 23.3933L616.133 22.864L615.922 23.605L615.817 24.346C615.817 33.8021 616.697 48.833 618.456 69.4389C620.146 88.704 620.991 103.7 620.991 114.426C620.991 115.696 620.428 116.79 619.301 117.707C618.245 118.695 617.013 119.189 615.606 119.189V119.189ZM651.613 121.624C650.275 121.624 649.043 121.165 647.917 120.248C646.861 119.33 646.263 118.166 646.122 116.755V112.627V109.451C646.051 108.534 646.016 107.44 646.016 106.17C646.016 103.911 645.84 100.524 645.488 96.0077L645.171 85.846C645.171 80.6945 645.347 73.0027 645.699 62.7703C646.122 53.5259 646.333 45.7987 646.333 39.5887C646.333 38.1068 646.157 35.8838 645.805 32.92C645.523 29.8855 645.383 27.6626 645.383 26.2513C645.383 18.7711 647.565 15.031 651.929 15.031C655.449 15.031 659.462 15.7367 663.967 17.148C668.613 18.4888 670.936 20.1119 670.936 22.0172C670.936 23.0757 670.479 24.0637 669.563 24.9811C668.719 25.8279 667.663 26.5335 666.396 27.0981C661.961 25.475 657.948 24.4165 654.358 23.9225C654.428 25.475 654.464 27.7332 654.464 30.6971C654.464 34.9312 654.428 38.7419 654.358 42.1292C654.006 47.2101 653.83 51.0206 653.83 53.5611L654.358 56.1016L656.892 55.8899C657.737 55.8194 658.793 55.784 660.06 55.784C665.128 55.784 667.663 57.266 667.663 60.2298C667.663 61.3589 667.17 62.3468 666.184 63.1936C665.269 63.9699 664.073 64.3581 662.594 64.3581C660.694 64.3581 659.215 64.2522 658.159 64.0405H654.147C654.358 66.7926 654.464 70.7798 654.464 76.0018C654.464 81.2944 654.428 86.0577 654.358 90.2918C654.006 96.7135 653.83 101.512 653.83 104.688C653.83 110.615 653.936 113.579 654.147 113.579L659.427 113.473C661.186 113.332 663.333 113.262 665.868 113.262C669.88 113.262 671.887 114.532 671.887 117.072C671.887 118.554 671.218 119.719 669.88 120.565C668.613 121.271 667.029 121.624 665.129 121.624H651.613ZM728.59 102.359C726.478 102.359 725.211 101.195 724.788 98.8658C724.788 92.4441 725.246 85.4226 726.161 77.8012C727.217 70.1799 728.695 60.9355 730.596 50.0681L731.441 45.5164C732.849 36.272 733.553 28.5447 733.553 22.3348C733.553 12.5258 732.004 7.62136 728.907 7.62136C726.865 7.62136 725.844 9.9854 725.844 14.7135C725.844 15.9131 726.232 18.7711 727.006 23.2874C727.006 23.358 726.724 23.6756 726.161 24.2401C724.401 25.7926 723.099 26.5688 722.254 26.5688C719.298 26.5688 717.819 23.0404 717.819 15.9836V14.3958C717.819 11.6437 718.066 9.31498 718.558 7.40964C719.192 5.43374 720.318 3.70479 721.937 2.22287C723.697 0.740938 725.915 0 728.59 0C730.913 0 732.884 0.423421 734.503 1.27024C736.192 2.11705 737.565 3.28141 738.621 4.76334C740.311 7.30379 741.366 11.0439 741.789 15.9836C741.93 17.1833 742 19.2651 742 22.2289C742 31.4733 740.416 41.5998 737.248 52.6084C735.84 57.1248 734.679 62.8761 733.764 69.8623C732.778 76.7074 732.285 83.8347 732.285 91.2444C732.285 97.031 732.356 100.559 732.497 101.83C730.596 101.83 729.54 101.935 729.329 102.147C729.118 102.288 728.871 102.359 728.59 102.359V102.359ZM728.59 120.248C726.971 120.248 725.704 119.613 724.788 118.343C723.592 117.284 722.993 115.979 722.993 114.426C722.993 112.944 723.627 111.568 724.894 110.298C726.161 108.886 727.604 108.181 729.223 108.181C730.49 108.181 731.722 108.886 732.919 110.298C734.186 111.639 734.82 112.944 734.82 114.214C734.82 118.237 732.743 120.248 728.59 120.248V120.248Z" fill="#325949"/>
</svg>
