<svg width="103" height="135" viewBox="0 0 103 135" fill="none" xmlns="http://www.w3.org/2000/svg">
<path fill-rule="evenodd" clip-rule="evenodd" d="M13.8879 120.201C13.6213 120.868 13.3545 121.501 13.0879 122.101C12.2879 126.701 10.1879 130.901 6.08787 134.201C4.28787 135.601 1.48787 133.301 2.58787 131.301C11.6879 114.301 0.587945 99.401 0.287945 82.001C-0.0120551 68.501 5.08787 55.401 13.0879 44.601C33.0879 17.501 67.1879 10.701 97.8879 2.90103C98.2879 2.3677 98.6879 1.8677 99.0879 1.40103C100.588 0.00103188 103.088 0.901014 102.788 3.10101C101.788 11.301 99.1879 18.601 99.1879 27.101C99.1879 34.501 99.5879 41.901 99.2879 49.301C98.6879 64.701 95.6879 80.401 87.3879 93.601C72.1879 117.901 40.9879 124.901 13.8879 120.201V120.201ZM87.0879 81.201C93.1879 66.401 93.6879 50.301 93.2879 34.501C93.0879 26.601 92.0879 15.701 95.2879 7.60101C82.1879 13.301 67.8879 16.001 54.7879 21.701C38.9879 28.601 24.0879 38.801 15.0879 53.801C5.78787 69.201 6.18794 83.901 10.7879 100.801C11.1879 102.134 11.5546 103.534 11.8879 105.001C15.4879 98.201 21.0879 91.701 25.9879 86.301C22.0879 81.901 19.7878 76.601 19.1878 70.801C18.7878 66.301 18.6878 58.801 22.6878 55.701C23.4878 55.101 24.5878 55.701 24.6878 56.601C25.0878 58.801 24.1879 60.801 23.7879 63.001C23.3213 65.401 23.1879 67.8677 23.3879 70.401C23.6879 75.301 25.3879 79.901 27.8879 84.101C28.8213 83.0343 29.7212 82.001 30.5879 81.001C38.1879 72.0677 45.8545 63.1677 53.5879 54.301C53.3879 54.201 53.2878 54.101 53.1878 54.001C52.8878 53.401 52.7878 53.301 52.6878 52.801C52.6878 52.6677 52.7213 52.5344 52.7879 52.401C52.6879 51.401 51.4879 49.301 51.2879 48.601C50.8879 47.101 50.4879 45.601 50.2879 44.001C49.9879 41.401 49.4879 37.301 51.4879 35.301C52.2879 34.501 53.4879 34.701 53.8879 35.701C54.5879 37.101 54.3879 38.601 54.3879 40.001C54.2879 41.701 54.4879 43.401 54.7879 45.101C54.9879 46.801 56.0879 49.001 56.3879 51.001C60.0546 46.7343 63.7546 42.4677 67.4879 38.201C67.3879 38.201 67.2879 38.201 67.2879 38.101C64.9879 36.201 62.5879 30.701 65.5879 28.401C66.0879 28.101 66.7879 28.301 66.9879 28.801C67.3879 30.001 67.0879 31.401 67.1879 32.601C67.3879 34.101 67.8879 35.501 68.6879 36.801C70.5545 34.601 72.4546 32.401 74.3879 30.201C75.3879 29.001 77.0879 30.501 76.1879 31.601C73.5212 35.001 70.8879 38.401 68.2879 41.801C69.0879 41.601 69.9879 41.401 70.5879 41.301C72.9879 40.901 76.6879 40.401 78.3879 42.501C78.7879 43.001 78.5879 43.801 78.0879 44.201C76.2879 45.501 73.0879 45.001 70.9879 45.201C69.2879 45.401 66.8879 46.401 65.1879 45.701C59.0545 53.5677 52.9213 61.4344 46.7879 69.301C50.2879 68.501 54.0879 68.101 57.4879 67.101C62.8879 65.401 68.3879 61.001 73.9879 60.601C75.0879 60.501 76.1879 61.701 75.5879 62.801C72.7879 68.101 64.7879 70.601 59.3879 72.201C54.6879 73.701 48.1879 75.401 42.9879 74.001C41.9879 75.2677 40.9879 76.5677 39.9879 77.901C34.5879 84.801 28.8879 91.501 23.8879 98.801C23.4879 99.401 23.0878 100.101 22.6878 100.701C26.4878 100.701 30.2879 100.801 34.0879 100.501C39.3879 100.101 45.3878 97.901 50.6878 98.901C52.0878 99.201 52.4879 101.001 51.3879 101.901C46.8879 105.501 39.1878 105.501 33.6878 105.801C29.2878 105.901 24.6879 105.901 20.3879 105.001C18.4879 108.901 16.9879 112.901 15.2879 116.901C28.1879 115.501 41.1879 116.201 53.7879 112.401C69.4879 107.601 80.8879 96.401 87.0879 81.201V81.201Z" fill="#32594A"/>
</svg>
