<svg width="672" height="214" viewBox="0 0 672 214" fill="none" xmlns="http://www.w3.org/2000/svg">
<path d="M2.70526 2.1001H24.2053C25.9386 2.1001 26.8053 2.73333 26.8053 4C26.8053 5.13333 25.9386 5.70007 24.2053 5.70007L15.8053 5.80005L15.2053 29.8C15.2053 31.1334 14.4719 31.8 13.0053 31.8C11.8719 31.7334 11.3053 31.0667 11.3053 29.8L11.9053 5.80005C8.77192 5.80005 5.6386 5.80005 2.50526 5.80005C0.838596 5.80005 0.00526318 5.13338 0.00526318 3.80005C0.00526318 2.66672 0.90526 2.1001 2.70526 2.1001V2.1001ZM30.8053 0C32.2053 0 32.8719 0.633358 32.8053 1.90002L32.6053 13.2001C34.2719 11.7334 36.5053 11 39.3053 11C44.2386 11 46.6719 13.9001 46.6053 19.7001L46.5053 29.4C46.5053 30.9334 45.8719 31.7667 44.6053 31.9C43.2053 32.0334 42.5053 31.3334 42.5053 29.8L42.6053 20.6001C42.6053 17.2001 41.5386 15.4334 39.4053 15.3C36.9386 15.1 34.6719 16.1667 32.6053 18.5L32.2053 29.6001C32.1386 31.0001 31.4053 31.6668 30.0053 31.6001C28.8053 31.6001 28.2386 30.9 28.3053 29.5L28.9053 1.80005C28.9719 0.600049 29.6053 0 30.8053 0V0ZM67.4053 20.7001L54.0053 22.5C54.0719 23.9667 54.7386 25.2334 56.0053 26.3C57.5386 27.5667 59.2386 28.2001 61.1053 28.2001C63.7719 28.1334 65.5719 27.6334 66.5053 26.7001C67.3719 25.7001 68.1053 25.1333 68.7053 25C69.3053 24.9333 69.7386 25.1334 70.0053 25.6001C70.6719 26.8001 70.4053 27.9 69.2053 28.9C67.0719 30.7667 64.2719 31.6668 60.8053 31.6001C58.2719 31.6001 56.0719 30.8334 54.2053 29.3C51.8053 27.4334 50.6053 24.9334 50.6053 21.8C50.6053 19.1334 51.3719 16.7667 52.9053 14.7001C54.7053 12.1667 57.1053 10.8001 60.1053 10.6001C63.1053 10.4668 65.4719 11.2 67.2053 12.8C68.8719 14.3334 69.6719 16.0667 69.6053 18C69.5386 19.6 68.8053 20.5001 67.4053 20.7001V20.7001ZM54.5053 19.4L66.1053 17.7001C65.9053 16.6334 65.3053 15.7668 64.3053 15.1001C63.1719 14.3668 61.9386 14.0334 60.6053 14.1001C58.8053 14.1001 57.2386 14.8667 55.9053 16.4C55.3053 17.1334 54.8386 18.1334 54.5053 19.4ZM79.0053 28C81.9386 28.2 83.7386 27.8334 84.4053 26.9C84.9386 26.1 84.6386 25.1333 83.5053 24C82.7719 23.2667 81.1053 22.7 78.5053 22.3C75.7719 21.9667 74.2053 20.9667 73.8053 19.3C73.4719 18.0334 73.5719 16.7334 74.1053 15.4C74.7053 13.9334 75.5386 12.8334 76.6053 12.1001C77.9386 11.1668 79.4719 10.6333 81.2053 10.5C83.1386 10.3 84.8386 10.5667 86.3053 11.3C88.1719 12.1667 89.2053 13.1667 89.4053 14.3C89.5386 15.1 89.3053 15.7334 88.7053 16.2001C87.9053 16.8001 86.7386 16.3667 85.2053 14.9C84.4719 14.2334 83.3386 13.9333 81.8053 14C80.2053 14.0667 79.0386 14.5334 78.3053 15.4C77.6386 16.1334 77.4386 16.8668 77.7053 17.6001C77.9053 18.3334 78.8053 18.7667 80.4053 18.9C81.6719 19.0334 82.8386 19.3334 83.9053 19.8C85.3719 20.4667 86.4053 21.1334 87.0053 21.8C88.3386 23.3334 88.9053 24.9334 88.7053 26.6001C88.5053 28.2001 87.5719 29.5334 85.9053 30.6001C84.5719 31.4668 82.8053 31.9 80.6053 31.9C78.7386 31.9 77.2386 31.7667 76.1053 31.5C75.3719 31.3 74.5053 30.9 73.5053 30.3C72.5719 29.7667 72.0719 29.1334 72.0053 28.4C71.9386 27.5334 72.2053 26.9334 72.8053 26.6001C73.5386 26.0668 74.4053 26.1334 75.4053 26.8C76.5386 27.5334 77.7386 27.9333 79.0053 28V28ZM109.505 20.7001L96.1053 22.5C96.1719 23.9667 96.8719 25.2334 98.2053 26.3C99.6719 27.5667 101.339 28.2001 103.205 28.2001C105.872 28.1334 107.672 27.6334 108.605 26.7001C109.472 25.7001 110.205 25.1333 110.805 25C111.405 24.9333 111.839 25.1334 112.105 25.6001C112.772 26.8001 112.505 27.9 111.305 28.9C109.172 30.7667 106.372 31.6668 102.905 31.6001C100.372 31.6001 98.1719 30.8334 96.3053 29.3C93.9053 27.4334 92.7053 24.9334 92.7053 21.8C92.7053 19.1334 93.4719 16.7667 95.0053 14.7001C96.8719 12.1667 99.2719 10.8001 102.205 10.6001C105.272 10.4668 107.639 11.2 109.305 12.8C110.972 14.3334 111.772 16.0667 111.705 18C111.639 19.6 110.905 20.5001 109.505 20.7001V20.7001ZM96.6053 19.4L108.205 17.7001C108.005 16.6334 107.405 15.7668 106.405 15.1001C105.272 14.3668 104.039 14.0334 102.705 14.1001C100.905 14.1001 99.3386 14.8667 98.0053 16.4C97.4053 17.1334 96.9386 18.1334 96.6053 19.4ZM130.005 9.90002C131.405 9.90002 132.105 10.5334 132.105 11.8V12.6001C133.239 11.5334 134.672 11 136.405 11C139.139 11 140.972 11.9334 141.905 13.8C143.305 11.9334 145.339 11 148.005 11C153.072 11 155.539 13.9001 155.405 19.7001L155.305 29.2001C155.239 30.7334 154.605 31.5667 153.405 31.7001C151.939 31.8334 151.239 31.1334 151.305 29.6001L151.405 20.8C151.472 17 150.439 15.0667 148.305 15C145.905 14.9333 144.272 16.0001 143.405 18.2001C143.339 18.2667 143.305 18.6667 143.305 19.4L143.105 29C143.039 30.5333 142.405 31.3334 141.205 31.4C139.805 31.5334 139.139 30.8334 139.205 29.3L139.405 20.5C139.472 16.9 138.472 15.0667 136.405 15C134.139 14.9333 132.639 16.2 131.905 18.8L131.605 29.4C131.539 30.8 130.805 31.5 129.405 31.5C128.272 31.4333 127.705 30.7334 127.705 29.4L128.205 11.7001C128.205 10.5001 128.805 9.90002 130.005 9.90002V9.90002ZM167.105 31.9C161.105 31.9 158.105 28.8334 158.105 22.7001C158.039 18.7001 159.405 15.6 162.205 13.4C165.339 10.9334 168.672 10.2334 172.205 11.3C172.539 10.9667 173.105 10.8667 173.905 11C175.505 11.4 176.172 12.4 175.905 14C175.572 15.6 175.372 18.3334 175.305 22.2001C175.239 25.2001 175.605 27.3667 176.405 28.7001C177.539 30.5667 177.372 31.6334 175.905 31.9C174.239 32.2334 173.272 31.5334 173.005 29.8C170.272 31.2 168.305 31.9 167.105 31.9V31.9ZM169.405 28C169.872 27.8667 170.705 27.3334 171.905 26.4C171.372 20.9334 171.439 17.1668 172.105 15.1001C170.772 14.3001 169.405 14.0667 168.005 14.4C167.005 14.6 166.239 14.9334 165.705 15.4C163.305 17 162.072 19.3 162.005 22.3C162.005 26.2334 163.372 28.2667 166.105 28.4C167.305 28.5334 168.405 28.4 169.405 28ZM197.005 11.1001C198.272 11.6334 198.539 12.6667 197.805 14.2001L186.505 39.3C185.572 41.3667 184.539 42.1667 183.405 41.7001C182.005 41.1667 181.772 39.9 182.705 37.9L186.605 29.1001L178.405 14.3C177.539 12.8334 177.672 11.8001 178.805 11.2001C180.072 10.5334 181.105 10.9667 181.905 12.5L188.605 24.7001L194.005 12.6001C194.672 11.1334 195.672 10.6334 197.005 11.1001V11.1001ZM217.405 2.1001C217.472 2.1001 217.505 2.1001 217.505 2.1001C217.972 2.1001 218.405 2.20002 218.805 2.40002C219.205 2.66669 219.505 3.00002 219.705 3.40002C219.905 3.73336 220.005 4.1 220.005 4.5C220.005 4.56667 220.005 4.63341 220.005 4.70007C219.939 5.16674 219.772 5.56669 219.505 5.90002C219.239 6.23336 218.939 6.46676 218.605 6.6001C218.272 6.8001 217.905 6.90002 217.505 6.90002C217.439 6.90002 217.405 6.90002 217.405 6.90002C216.939 6.83336 216.539 6.7 216.205 6.5C215.872 6.3 215.605 6.03341 215.405 5.70007C215.139 5.30007 215.005 4.9 215.005 4.5C215.005 4.1 215.105 3.70005 215.305 3.30005C215.572 2.96672 215.872 2.66669 216.205 2.40002C216.539 2.20002 216.939 2.1001 217.405 2.1001V2.1001ZM217.305 10.8C218.572 10.8 219.172 11.6334 219.105 13.3L218.905 29.2001C218.839 30.9334 218.172 31.8 216.905 31.8C215.505 31.7334 214.839 30.9 214.905 29.3L215.205 13.3C215.272 11.5667 215.972 10.7334 217.305 10.8V10.8ZM227.605 9.90002C229.005 9.90002 229.672 10.5334 229.605 11.8C229.605 12.1334 229.605 12.5 229.605 12.9C231.005 11.6334 232.839 11 235.105 11C240.105 11 242.572 13.9001 242.505 19.7001L242.305 29.3C242.305 30.8334 241.672 31.6667 240.405 31.8C239.005 31.8667 238.305 31.1334 238.305 29.6001L238.605 20.6001C238.672 17.0668 237.605 15.2334 235.405 15.1001C233.605 14.9668 231.639 15.9 229.505 17.9L229.205 29.5C229.139 30.9 228.405 31.5667 227.005 31.5C225.805 31.5 225.239 30.8 225.305 29.4L225.705 11.7001C225.772 10.5001 226.405 9.90002 227.605 9.90002V9.90002ZM260.005 26.8C261.205 26 262.172 26.2 262.905 27.4C263.372 28.1334 263.039 28.9667 261.905 29.9C260.439 31.1 258.139 31.7001 255.005 31.7001C252.539 31.7001 250.505 30.9334 248.905 29.4C246.839 27.5334 245.805 25.1667 245.805 22.3C245.805 19.1667 246.539 16.6001 248.005 14.6001C249.739 12.2001 251.972 10.9001 254.705 10.7001C256.239 10.5667 257.672 10.7001 259.005 11.1001C260.605 11.6334 261.672 12.3001 262.205 13.1001C263.005 14.3001 262.939 15.2334 262.005 15.9C261.405 16.3 260.472 16.0334 259.205 15.1001C257.605 14.0334 255.839 13.8 253.905 14.4C252.839 14.7334 251.839 15.5001 250.905 16.7001C249.905 18.1001 249.405 19.7 249.405 21.5C249.339 23.2333 249.839 24.8001 250.905 26.2001C251.905 27.4667 253.272 28.1334 255.005 28.2001C256.805 28.2667 258.472 27.8 260.005 26.8V26.8ZM270.805 0C272.205 0 272.872 0.633358 272.805 1.90002L272.205 29.6001C272.205 31.0001 271.472 31.6668 270.005 31.6001C268.872 31.6001 268.305 30.9 268.305 29.5L269.005 1.80005C269.005 0.666716 269.605 0.0666667 270.805 0V0ZM293.105 32.3C291.705 32.3 291.005 31.6667 291.005 30.4L291.105 29.2001C289.639 30.4667 287.772 31.1001 285.505 31.1001C280.505 31.1001 278.039 28.2 278.105 22.4L278.205 13C278.205 11.4667 278.839 10.6333 280.105 10.5C281.505 10.4333 282.205 11.1667 282.205 12.7001L282.105 21C282.105 24.1333 282.605 26.0334 283.605 26.7001C285.005 27.5667 286.639 27.5334 288.505 26.6001C290.239 25.8001 291.139 24.3334 291.205 22.2001L291.505 12.6001C291.505 11.2001 292.205 10.5 293.605 10.5C294.805 10.5 295.405 11.2001 295.405 12.6001L294.905 30.5C294.905 31.7 294.305 32.3 293.105 32.3ZM317.105 0C318.439 0 319.105 0.633358 319.105 1.90002L318.505 29.6001C318.439 31.0001 317.705 31.6668 316.305 31.6001C315.239 31.6001 314.672 31.0667 314.605 30C312.605 31.2 310.505 31.8 308.305 31.8C306.039 31.7334 304.005 30.8667 302.205 29.2001C300.272 27.3334 299.239 25.1334 299.105 22.6001C298.972 19.2001 299.905 16.3668 301.905 14.1001C303.705 11.9001 306.105 10.8 309.105 10.8C310.705 10.8 312.072 11.1334 313.205 11.8C313.872 12.1334 314.472 12.4667 315.005 12.8L315.205 1.80005C315.272 0.666716 315.905 0.0666667 317.105 0V0ZM314.605 25.7001C314.805 23.0334 314.905 20.2001 314.905 17.2001C312.505 14.8667 310.172 13.9667 307.905 14.5C306.239 14.9 305.039 15.5334 304.305 16.4C303.239 17.6667 302.672 19.4334 302.605 21.7001C302.605 23.1667 303.172 24.6 304.305 26C305.239 27.1333 306.572 27.8 308.305 28C310.172 28.2 312.272 27.4334 314.605 25.7001ZM339.605 20.7001L326.205 22.5C326.272 23.9667 326.939 25.2334 328.205 26.3C329.739 27.5667 331.405 28.2001 333.205 28.2001C335.939 28.1334 337.772 27.6334 338.705 26.7001C339.572 25.7001 340.305 25.1333 340.905 25C341.505 24.9333 341.939 25.1334 342.205 25.6001C342.805 26.8001 342.505 27.9 341.305 28.9C339.239 30.7667 336.472 31.6668 333.005 31.6001C330.472 31.6001 328.272 30.8334 326.405 29.3C324.005 27.4334 322.805 24.9334 322.805 21.8C322.805 19.1334 323.539 16.7667 325.005 14.7001C326.872 12.1667 329.272 10.8001 332.205 10.6001C335.272 10.4668 337.672 11.2 339.405 12.8C341.072 14.3334 341.872 16.0667 341.805 18C341.739 19.6 341.005 20.5001 339.605 20.7001V20.7001ZM326.605 19.4L338.305 17.7001C338.105 16.6334 337.505 15.7668 336.505 15.1001C335.372 14.3668 334.139 14.0334 332.805 14.1001C331.005 14.1001 329.439 14.8667 328.105 16.4C327.505 17.1334 327.005 18.1334 326.605 19.4ZM375.405 0C376.805 0 377.472 0.633358 377.405 1.90002L376.805 29.6001C376.805 31.0001 376.105 31.6668 374.705 31.6001C373.639 31.6001 373.039 31.0667 372.905 30C370.972 31.2 368.905 31.8 366.705 31.8C364.372 31.7334 362.339 30.8667 360.605 29.2001C358.605 27.3334 357.572 25.1334 357.505 22.6001C357.372 19.2001 358.272 16.3668 360.205 14.1001C362.072 11.9001 364.472 10.8 367.405 10.8C369.005 10.8 370.405 11.1334 371.605 11.8C372.205 12.1334 372.772 12.4667 373.305 12.8L373.605 1.80005C373.605 0.666716 374.205 0.0666667 375.405 0V0ZM373.005 25.7001C373.139 23.0334 373.205 20.2001 373.205 17.2001C370.872 14.8667 368.572 13.9667 366.305 14.5C364.639 14.9 363.439 15.5334 362.705 16.4C361.639 17.6667 361.072 19.4334 361.005 21.7001C361.005 23.1667 361.572 24.6 362.705 26C363.572 27.1333 364.905 27.8 366.705 28C368.505 28.2 370.605 27.4334 373.005 25.7001ZM397.905 20.7001L384.605 22.5C384.672 23.9667 385.339 25.2334 386.605 26.3C388.072 27.5667 389.739 28.2001 391.605 28.2001C394.272 28.1334 396.072 27.6334 397.005 26.7001C397.939 25.7001 398.672 25.1333 399.205 25C399.872 24.9333 400.339 25.1334 400.605 25.6001C401.205 26.8001 400.905 27.9 399.705 28.9C397.572 30.7667 394.805 31.6668 391.405 31.6001C388.872 31.6001 386.639 30.8334 384.705 29.3C382.372 27.4334 381.205 24.9334 381.205 21.8C381.205 19.1334 381.939 16.7667 383.405 14.7001C385.272 12.1667 387.672 10.8001 390.605 10.6001C393.672 10.4668 396.072 11.2 397.805 12.8C399.405 14.3334 400.172 16.0667 400.105 18C400.039 19.6 399.305 20.5001 397.905 20.7001V20.7001ZM385.005 19.4L396.705 17.7001C396.505 16.6334 395.905 15.7668 394.905 15.1001C393.705 14.3668 392.472 14.0334 391.205 14.1001C389.339 14.1001 387.739 14.8667 386.405 16.4C385.872 17.1334 385.405 18.1334 385.005 19.4V19.4ZM404.105 10.8C405.372 10.2667 406.339 10.8 407.005 12.4L412.005 25.8L417.005 12.4C417.605 10.8 418.572 10.2667 419.905 10.8C421.039 11.2667 421.272 12.3 420.605 13.9L414.305 29.6001C413.772 31.0001 413.005 31.7001 412.005 31.7001C411.005 31.7001 410.205 31.0001 409.605 29.6001L403.305 13.9C402.705 12.3 402.972 11.2667 404.105 10.8V10.8ZM427.705 2.1001C427.705 2.1001 427.739 2.1001 427.805 2.1001C428.272 2.1001 428.672 2.20002 429.005 2.40002C429.405 2.66669 429.739 3.00002 430.005 3.40002C430.139 3.73336 430.205 4.1 430.205 4.5C430.205 4.56667 430.205 4.63341 430.205 4.70007C430.205 5.16674 430.039 5.56669 429.705 5.90002C429.505 6.23336 429.239 6.46676 428.905 6.6001C428.572 6.8001 428.205 6.90002 427.805 6.90002C427.739 6.90002 427.672 6.90002 427.605 6.90002C427.205 6.83336 426.839 6.7 426.505 6.5C426.172 6.3 425.872 6.03341 425.605 5.70007C425.405 5.30007 425.305 4.9 425.305 4.5C425.305 4.1 425.405 3.70005 425.605 3.30005C425.872 2.96672 426.172 2.66669 426.505 2.40002C426.839 2.20002 427.239 2.1001 427.705 2.1001V2.1001ZM427.605 10.8C428.872 10.8 429.472 11.6334 429.405 13.3L429.105 29.2001C429.105 30.9334 428.472 31.8 427.205 31.8C425.805 31.7334 425.139 30.9 425.205 29.3L425.505 13.3C425.572 11.5667 426.272 10.7334 427.605 10.8ZM449.005 26.8C450.205 26 451.172 26.2 451.905 27.4C452.305 28.1334 451.972 28.9667 450.905 29.9C449.439 31.1 447.139 31.7001 444.005 31.7001C441.539 31.7001 439.472 30.9334 437.805 29.4C435.805 27.5334 434.805 25.1667 434.805 22.3C434.805 19.1667 435.539 16.6001 437.005 14.6001C438.739 12.2001 440.939 10.9001 443.605 10.7001C445.205 10.5667 446.672 10.7001 448.005 11.1001C449.605 11.6334 450.672 12.3001 451.205 13.1001C452.005 14.3001 451.939 15.2334 451.005 15.9C450.405 16.3 449.439 16.0334 448.105 15.1001C446.572 14.0334 444.839 13.8 442.905 14.4C441.772 14.7334 440.772 15.5001 439.905 16.7001C438.905 18.1001 438.372 19.7 438.305 21.5C438.305 23.2333 438.839 24.8001 439.905 26.2001C440.905 27.4667 442.272 28.1334 444.005 28.2001C445.805 28.2667 447.472 27.8 449.005 26.8V26.8ZM472.305 20.7001L459.005 22.5C459.072 23.9667 459.739 25.2334 461.005 26.3C462.472 27.5667 464.139 28.2001 466.005 28.2001C468.672 28.1334 470.472 27.6334 471.405 26.7001C472.339 25.7001 473.072 25.1333 473.605 25C474.272 24.9333 474.739 25.1334 475.005 25.6001C475.605 26.8001 475.305 27.9 474.105 28.9C471.972 30.7667 469.205 31.6668 465.805 31.6001C463.272 31.6001 461.039 30.8334 459.105 29.3C456.772 27.4334 455.605 24.9334 455.605 21.8C455.605 19.1334 456.339 16.7667 457.805 14.7001C459.672 12.1667 462.072 10.8001 465.005 10.6001C468.072 10.4668 470.472 11.2 472.205 12.8C473.805 14.3334 474.572 16.0667 474.505 18C474.439 19.6 473.705 20.5001 472.305 20.7001V20.7001ZM459.405 19.4L471.105 17.7001C470.905 16.6334 470.305 15.7668 469.305 15.1001C468.105 14.3668 466.872 14.0334 465.605 14.1001C463.739 14.1001 462.139 14.8667 460.805 16.4C460.272 17.1334 459.805 18.1334 459.405 19.4V19.4ZM483.905 28C486.839 28.2 488.639 27.8334 489.305 26.9C489.839 26.1 489.572 25.1333 488.505 24C487.772 23.2667 486.072 22.7 483.405 22.3C480.672 21.9667 479.105 20.9667 478.705 19.3C478.439 18.0334 478.572 16.7334 479.105 15.4C479.639 13.9334 480.472 12.8334 481.605 12.1001C482.872 11.1668 484.372 10.6333 486.105 10.5C488.039 10.3 489.739 10.5667 491.205 11.3C493.139 12.1667 494.172 13.1667 494.305 14.3C494.439 15.1 494.205 15.7334 493.605 16.2001C492.872 16.8001 491.739 16.3667 490.205 14.9C489.405 14.2334 488.272 13.9333 486.805 14C485.205 14.0667 484.005 14.5334 483.205 15.4C482.539 16.1334 482.339 16.8668 482.605 17.6001C482.872 18.3334 483.805 18.7667 485.405 18.9C486.672 19.0334 487.839 19.3334 488.905 19.8C490.372 20.4667 491.372 21.1334 491.905 21.8C493.239 23.3334 493.805 24.9334 493.605 26.6001C493.405 28.2001 492.505 29.5334 490.905 30.6001C489.572 31.4668 487.805 31.9 485.605 31.9C483.739 31.9 482.205 31.7667 481.005 31.5C480.339 31.3 479.472 30.9 478.405 30.3C477.472 29.7667 476.972 29.1334 476.905 28.4C476.905 27.5334 477.205 26.9334 477.805 26.6001C478.539 26.0668 479.372 26.1334 480.305 26.8C481.505 27.5334 482.705 27.9333 483.905 28V28ZM514.005 0C515.405 0 516.105 0.633358 516.105 1.90002L515.505 29.6001C515.439 31.0001 514.705 31.6668 513.305 31.6001C512.105 31.6001 511.505 30.9 511.505 29.5L512.205 1.80005C512.272 0.666716 512.872 0.0666667 514.005 0V0ZM525.405 2.1001C525.472 2.1001 525.505 2.1001 525.505 2.1001C525.972 2.1001 526.405 2.20002 526.805 2.40002C527.205 2.66669 527.505 3.00002 527.705 3.40002C527.905 3.73336 528.005 4.1 528.005 4.5C528.005 4.56667 528.005 4.63341 528.005 4.70007C527.939 5.16674 527.772 5.56669 527.505 5.90002C527.239 6.23336 526.939 6.46676 526.605 6.6001C526.272 6.8001 525.905 6.90002 525.505 6.90002C525.439 6.90002 525.405 6.90002 525.405 6.90002C525.005 6.83336 524.605 6.7 524.205 6.5C523.872 6.3 523.605 6.03341 523.405 5.70007C523.139 5.30007 523.005 4.9 523.005 4.5C523.005 4.1 523.105 3.70005 523.305 3.30005C523.572 2.96672 523.872 2.66669 524.205 2.40002C524.605 2.20002 525.005 2.1001 525.405 2.1001V2.1001ZM525.305 10.8C526.572 10.8 527.172 11.6334 527.105 13.3L526.905 29.2001C526.839 30.9334 526.205 31.8 525.005 31.8C523.539 31.7334 522.839 30.9 522.905 29.3L523.205 13.3C523.272 11.5667 523.972 10.7334 525.305 10.8V10.8ZM536.405 0C537.805 0 538.505 0.633358 538.505 1.90002L538.105 18.8L547.205 10.8C548.605 9.53338 549.739 9.36672 550.605 10.3C551.472 11.3 551.372 12.2667 550.305 13.2001L544.305 18.4L551.105 27.5C552.172 28.9667 552.305 30.0667 551.505 30.8C550.305 32 549.172 31.8667 548.105 30.4L541.305 21L537.905 23.9L537.805 29.6001C537.805 31.0001 537.072 31.6668 535.605 31.6001C534.472 31.6001 533.905 30.9 533.905 29.5L534.605 1.80005C534.605 0.666716 535.205 0.0666667 536.405 0V0ZM571.105 20.7001L557.805 22.5C557.872 23.9667 558.539 25.2334 559.805 26.3C561.272 27.5667 562.939 28.2001 564.805 28.2001C567.472 28.1334 569.272 27.6334 570.205 26.7001C571.139 25.7001 571.872 25.1333 572.405 25C573.072 24.9333 573.539 25.1334 573.805 25.6001C574.405 26.8001 574.105 27.9 572.905 28.9C570.772 30.7667 568.005 31.6668 564.605 31.6001C562.072 31.6001 559.839 30.8334 557.905 29.3C555.572 27.4334 554.405 24.9334 554.405 21.8C554.405 19.1334 555.139 16.7667 556.605 14.7001C558.472 12.1667 560.872 10.8001 563.805 10.6001C566.872 10.4668 569.272 11.2 571.005 12.8C572.605 14.3334 573.372 16.0667 573.305 18C573.239 19.6 572.505 20.5001 571.105 20.7001V20.7001ZM558.205 19.4L569.905 17.7001C569.705 16.6334 569.105 15.7668 568.105 15.1001C566.905 14.3668 565.672 14.0334 564.405 14.1001C562.539 14.1001 560.939 14.8667 559.605 16.4C559.072 17.1334 558.605 18.1334 558.205 19.4V19.4ZM598.505 14.6001C596.772 14.6668 595.472 15.2667 594.605 16.4C593.272 18.1334 592.605 20.0334 592.605 22.1001C592.605 24.1001 593.072 25.6001 594.005 26.6001C595.005 27.6001 596.139 28.1001 597.405 28.1001C598.872 28.1001 600.105 27.6001 601.105 26.6001C602.105 25.5334 602.639 23.8 602.705 21.4C602.705 16.8667 601.305 14.6001 598.505 14.6001ZM598.305 10.7001C603.705 10.7667 606.372 14.4667 606.305 21.8C606.305 24.8667 605.605 27.2 604.205 28.8C602.605 30.8 600.172 31.7667 596.905 31.7001C594.572 31.7001 592.572 30.7667 590.905 28.9C589.439 27.2334 588.705 24.8667 588.705 21.8C588.705 18.8667 589.605 16.2667 591.405 14C593.139 11.8 595.439 10.7001 598.305 10.7001V10.7001ZM614.405 0C615.805 0 616.505 0.633358 616.505 1.90002L615.805 29.6001C615.805 31.0001 615.105 31.6668 613.705 31.6001C612.505 31.6001 611.905 30.9 611.905 29.5L612.605 1.80005C612.605 0.666716 613.205 0.0666667 614.405 0V0ZM639.505 0C640.905 0 641.605 0.633358 641.605 1.90002L640.905 29.6001C640.905 31.0001 640.205 31.6668 638.805 31.6001C637.739 31.6001 637.139 31.0667 637.005 30C635.072 31.2 633.005 31.8 630.805 31.8C628.472 31.7334 626.439 30.8667 624.705 29.2001C622.705 27.3334 621.672 25.1334 621.605 22.6001C621.472 19.2001 622.372 16.3668 624.305 14.1001C626.172 11.9001 628.572 10.8 631.505 10.8C633.105 10.8 634.505 11.1334 635.705 11.8C636.372 12.1334 636.939 12.4667 637.405 12.8L637.705 1.80005C637.705 0.666716 638.305 0.0666667 639.505 0V0ZM637.105 25.7001C637.239 23.0334 637.305 20.2001 637.305 17.2001C634.972 14.8667 632.672 13.9667 630.405 14.5C628.739 14.9 627.539 15.5334 626.805 16.4C625.739 17.6667 625.172 19.4334 625.105 21.7001C625.105 23.1667 625.672 24.6 626.805 26C627.672 27.1333 629.005 27.8 630.805 28C632.672 28.2 634.772 27.4334 637.105 25.7001ZM3.10526 59C4.50526 59 5.20526 59.6334 5.20526 60.9L5.00526 72.2001C6.67193 70.7334 8.87192 70 11.6053 70C16.5386 70 19.0053 72.9001 19.0053 78.7001L18.9053 88.4C18.9053 89.9334 18.2719 90.7667 17.0053 90.9C15.5386 91.0334 14.8386 90.3334 14.9053 88.8V79.6001C14.9719 76.2001 13.9053 74.4334 11.7053 74.3C9.30526 74.1 7.07193 75.1667 5.00526 77.5L4.50526 88.6001C4.50526 90.0001 3.77193 90.6668 2.30526 90.6001C1.17193 90.6001 0.605262 89.9 0.605262 88.5L1.30526 60.8C1.30526 59.6 1.90526 59 3.10526 59V59ZM32.6053 73.6001C30.8719 73.6668 29.5719 74.2667 28.7053 75.4C27.3719 77.1334 26.7053 79.0334 26.7053 81.1001C26.7053 83.1001 27.2053 84.6001 28.2053 85.6001C29.1386 86.6001 30.2386 87.1001 31.5053 87.1001C32.9719 87.1001 34.2053 86.6001 35.2053 85.6001C36.2719 84.5334 36.8053 82.8 36.8053 80.4C36.8053 75.8667 35.4053 73.6001 32.6053 73.6001ZM32.5053 69.7001C37.8386 69.7667 40.5053 73.4667 40.5053 80.8C40.5053 83.8667 39.7719 86.2 38.3053 87.8C36.7719 89.8 34.3719 90.7667 31.1053 90.7001C28.7053 90.7001 26.7053 89.7667 25.1053 87.9C23.5719 86.2334 22.8053 83.8667 22.8053 80.8C22.8053 77.8667 23.7053 75.2667 25.5053 73C27.2386 70.8 29.5719 69.7001 32.5053 69.7001V69.7001ZM59.7053 91.3C58.3053 91.3 57.6386 90.6667 57.7053 89.4V88.2001C56.2386 89.4667 54.3719 90.1001 52.1053 90.1001C47.1719 90.1001 44.7386 87.2 44.8053 81.4V72C44.8719 70.4667 45.5053 69.6333 46.7053 69.5C48.1053 69.4333 48.8053 70.1667 48.8053 71.7001V80C48.7386 83.1333 49.2053 85.0334 50.2053 85.7001C51.6053 86.5667 53.2719 86.5334 55.2053 85.6001C56.9386 84.8001 57.8386 83.3334 57.9053 81.2001L58.1053 71.6001C58.1053 70.2001 58.8386 69.5 60.3053 69.5C61.4386 69.5 62.0053 70.2001 62.0053 71.6001L61.5053 89.5C61.5053 90.7 60.9053 91.3 59.7053 91.3V91.3ZM71.6053 87C74.5386 87.2 76.3386 86.8334 77.0053 85.9C77.5386 85.1 77.2386 84.1333 76.1053 83C75.3719 82.2667 73.7053 81.7 71.1053 81.3C68.3719 80.9667 66.8053 79.9667 66.4053 78.3C66.0719 77.0334 66.1719 75.7334 66.7053 74.4C67.3053 72.9334 68.1386 71.8334 69.2053 71.1001C70.5386 70.1668 72.0719 69.6333 73.8053 69.5C75.7386 69.3 77.4386 69.5667 78.9053 70.3C80.7719 71.1667 81.8053 72.1667 82.0053 73.3C82.1386 74.1 81.9053 74.7334 81.3053 75.2001C80.5053 75.8001 79.3386 75.3667 77.8053 73.9C77.0719 73.2334 75.9386 72.9333 74.4053 73C72.8053 73.0667 71.6386 73.5334 70.9053 74.4C70.2386 75.1334 70.0386 75.8668 70.3053 76.6001C70.5053 77.3334 71.4386 77.7667 73.1053 77.9C74.3053 78.0334 75.4719 78.3334 76.6053 78.8C78.0053 79.4667 79.0053 80.1334 79.6053 80.8C80.9386 82.3334 81.5053 83.9334 81.3053 85.6001C81.1053 87.2001 80.1719 88.5334 78.5053 89.6001C77.1719 90.4668 75.4053 90.9 73.2053 90.9C71.3386 90.9 69.8386 90.7667 68.7053 90.5C67.9719 90.3 67.1053 89.9 66.1053 89.3C65.1719 88.7667 64.6719 88.1334 64.6053 87.4C64.5386 86.5334 64.8053 85.9334 65.4053 85.6001C66.2053 85.0668 67.0719 85.1334 68.0053 85.8C69.1386 86.5334 70.3386 86.9333 71.6053 87ZM102.105 79.7001L88.7053 81.5C88.7719 82.9667 89.4719 84.2334 90.8053 85.3C92.2719 86.5667 93.9386 87.2001 95.8053 87.2001C98.4719 87.1334 100.272 86.6334 101.205 85.7001C102.072 84.7001 102.805 84.1333 103.405 84C104.072 83.9333 104.505 84.1334 104.705 84.6001C105.372 85.8001 105.105 86.9 103.905 87.9C101.772 89.7667 98.9719 90.6668 95.5053 90.6001C92.9719 90.6001 90.7719 89.8334 88.9053 88.3C86.5719 86.4334 85.4053 83.9334 85.4053 80.8C85.4053 78.1334 86.1386 75.7667 87.6053 73.7001C89.4719 71.1667 91.8719 69.8001 94.8053 69.6001C97.8719 69.4668 100.239 70.2 101.905 71.8C103.572 73.3334 104.372 75.0667 104.305 77C104.239 78.6 103.505 79.5001 102.105 79.7001V79.7001ZM89.2053 78.4L100.905 76.7001C100.705 75.6334 100.072 74.7668 99.0053 74.1001C97.8719 73.3668 96.6386 73.0334 95.3053 73.1001C93.5053 73.1001 91.9386 73.8667 90.6053 75.4C90.0053 76.1334 89.5386 77.1334 89.2053 78.4ZM111.305 59C112.705 59 113.405 59.6334 113.405 60.9L113.205 72.2001C114.805 70.7334 117.005 70 119.805 70C124.739 70 127.172 72.9001 127.105 78.7001V88.4C127.039 89.9334 126.405 90.7667 125.205 90.9C123.739 91.0334 123.039 90.3334 123.105 88.8V79.6001C123.105 76.2001 122.039 74.4334 119.905 74.3C117.505 74.1 115.272 75.1667 113.205 77.5L112.705 88.6001C112.639 90.0001 111.905 90.6668 110.505 90.6001C109.372 90.6001 108.805 89.9 108.805 88.5L109.505 60.8C109.505 59.6 110.105 59 111.305 59V59ZM140.805 73.6001C139.072 73.6668 137.772 74.2667 136.905 75.4C135.572 77.1334 134.905 79.0334 134.905 81.1001C134.905 83.1001 135.372 84.6001 136.305 85.6001C137.305 86.6001 138.439 87.1001 139.705 87.1001C141.172 87.1001 142.405 86.6001 143.405 85.6001C144.405 84.5334 144.939 82.8 145.005 80.4C145.005 75.8667 143.605 73.6001 140.805 73.6001ZM140.605 69.7001C146.005 69.7667 148.705 73.4667 148.705 80.8C148.639 83.8667 147.905 86.2 146.505 87.8C144.905 89.8 142.472 90.7667 139.205 90.7001C136.872 90.7001 134.872 89.7667 133.205 87.9C131.739 86.2334 131.005 83.8667 131.005 80.8C131.005 77.8667 131.905 75.2667 133.705 73C135.439 70.8 137.739 69.7001 140.605 69.7001V69.7001ZM156.805 59C158.139 59 158.805 59.6334 158.805 60.9L158.205 88.6001C158.139 90.0001 157.405 90.6668 156.005 90.6001C154.805 90.6001 154.205 89.9 154.205 88.5L154.905 60.8C154.972 59.6667 155.605 59.0667 156.805 59V59ZM181.905 59C183.239 59 183.905 59.6334 183.905 60.9L183.305 88.6001C183.239 90.0001 182.505 90.6668 181.105 90.6001C180.039 90.6001 179.472 90.0667 179.405 89C177.405 90.2 175.305 90.8 173.105 90.8C170.772 90.7334 168.739 89.8667 167.005 88.2001C165.072 86.3334 164.039 84.1334 163.905 81.6001C163.772 78.2001 164.672 75.3668 166.605 73.1001C168.472 70.9001 170.905 69.8 173.905 69.8C175.439 69.8 176.805 70.1334 178.005 70.8C178.672 71.1334 179.239 71.4667 179.705 71.8L180.005 60.8C180.072 59.6667 180.705 59.0667 181.905 59V59ZM179.405 84.7001C179.539 82.0334 179.605 79.2001 179.605 76.2001C177.272 73.8667 174.972 72.9667 172.705 73.5C171.039 73.9 169.839 74.5334 169.105 75.4C168.039 76.6667 167.472 78.4334 167.405 80.7001C167.405 82.1667 167.972 83.6 169.105 85C169.972 86.1333 171.305 86.8 173.105 87C174.972 87.2 177.072 86.4334 179.405 84.7001ZM216.505 79.7001L203.205 81.5C203.272 82.9667 203.939 84.2334 205.205 85.3C206.672 86.5667 208.339 87.2001 210.205 87.2001C212.872 87.1334 214.672 86.6334 215.605 85.7001C216.539 84.7001 217.272 84.1333 217.805 84C218.472 83.9333 218.939 84.1334 219.205 84.6001C219.805 85.8001 219.505 86.9 218.305 87.9C216.172 89.7667 213.372 90.6668 209.905 90.6001C207.439 90.6001 205.239 89.8334 203.305 88.3C200.972 86.4334 199.805 83.9334 199.805 80.8C199.805 78.1334 200.539 75.7667 202.005 73.7001C203.872 71.1667 206.272 69.8001 209.205 69.6001C212.272 69.4668 214.672 70.2 216.405 71.8C218.005 73.3334 218.772 75.0667 218.705 77C218.639 78.6 217.905 79.5001 216.505 79.7001V79.7001ZM203.605 78.4L215.305 76.7001C215.105 75.6334 214.505 74.7668 213.505 74.1001C212.305 73.3668 211.039 73.0334 209.705 73.1001C207.905 73.1001 206.339 73.8667 205.005 75.4C204.405 76.1334 203.939 77.1334 203.605 78.4ZM236.405 100.7C235.005 100.7 234.339 100.067 234.405 98.8L234.505 90.2001C233.972 90.4667 232.772 90.6001 230.905 90.6001C228.372 90.6001 226.239 89.7668 224.505 88.1001C222.572 86.2334 221.605 83.9667 221.605 81.3C221.605 77.8334 222.505 75.1001 224.305 73.1001C226.239 70.9001 228.639 69.8 231.505 69.8C233.105 69.8 234.272 70.0333 235.005 70.5C235.272 69.5667 236.005 69.1001 237.205 69.1001C238.339 69.1001 238.905 69.8001 238.905 71.2001L238.205 98.9C238.205 100.1 237.605 100.7 236.405 100.7ZM234.605 85.7001L234.905 74.6001C234.105 73.7334 232.805 73.3667 231.005 73.5C229.339 73.5667 228.005 74.2668 227.005 75.6001C225.872 77.0668 225.305 78.6001 225.305 80.2001C225.239 82.0667 225.705 83.5667 226.705 84.7001C227.839 85.9667 229.339 86.6667 231.205 86.8C232.672 86.8667 233.805 86.5001 234.605 85.7001ZM258.605 91.3C257.205 91.3 256.505 90.6667 256.505 89.4V88.2001C255.105 89.4667 253.272 90.1001 251.005 90.1001C246.005 90.1001 243.539 87.2 243.605 81.4L243.705 72C243.705 70.4667 244.339 69.6333 245.605 69.5C247.005 69.4333 247.705 70.1667 247.705 71.7001L247.605 80C247.605 83.1333 248.105 85.0334 249.105 85.7001C250.505 86.5667 252.139 86.5334 254.005 85.6001C255.739 84.8001 256.639 83.3334 256.705 81.2001L256.905 71.6001C256.972 70.2001 257.705 69.5 259.105 69.5C260.305 69.5 260.905 70.2001 260.905 71.6001L260.405 89.5C260.339 90.7 259.739 91.3 258.605 91.3V91.3ZM268.805 61.1001C268.872 61.1001 268.905 61.1001 268.905 61.1001C269.372 61.1001 269.805 61.2 270.205 61.4C270.605 61.6667 270.905 62 271.105 62.4C271.305 62.7334 271.405 63.1 271.405 63.5C271.405 63.5667 271.405 63.6334 271.405 63.7001C271.339 64.1667 271.172 64.5667 270.905 64.9C270.639 65.2334 270.339 65.4668 270.005 65.6001C269.672 65.8001 269.305 65.9 268.905 65.9C268.839 65.9 268.805 65.9 268.805 65.9C268.405 65.8334 268.005 65.7 267.605 65.5C267.272 65.3 267.005 65.0334 266.805 64.7001C266.539 64.3001 266.405 63.9 266.405 63.5C266.405 63.1 266.505 62.7 266.705 62.3C266.972 61.9667 267.272 61.6667 267.605 61.4C268.005 61.2 268.405 61.1001 268.805 61.1001V61.1001ZM268.705 69.8C269.972 69.8 270.572 70.6334 270.505 72.3L270.305 88.2001C270.239 89.9334 269.605 90.8 268.405 90.8C266.939 90.7334 266.239 89.9 266.305 88.3L266.605 72.3C266.672 70.5667 267.372 69.7334 268.705 69.8V69.8ZM278.505 100.7C277.172 100.7 276.505 100.067 276.505 98.8L277.105 71.1001C277.172 69.7668 277.905 69.1001 279.305 69.1001C279.972 69.1001 280.472 69.4667 280.805 70.2001C281.472 69.7334 283.039 69.5 285.505 69.5C287.839 69.5 289.872 70.4001 291.605 72.2001C293.339 74.0001 294.205 76.0667 294.205 78.4C294.205 81.8667 293.439 84.5334 291.905 86.4C290.172 88.4667 288.005 89.6 285.405 89.8C283.139 89.9334 281.572 89.6 280.705 88.8C280.705 88.7334 280.672 88.7001 280.605 88.7001L280.405 98.9C280.339 100.1 279.705 100.7 278.505 100.7V100.7ZM281.005 74.3L280.705 84.3C282.039 85.6334 283.439 86.2667 284.905 86.2001C286.839 86.0667 288.305 85.2667 289.305 83.8C290.172 82.6 290.639 81.1334 290.705 79.4C290.705 77.7334 290.205 76.3001 289.205 75.1001C288.339 74.0334 287.039 73.4001 285.305 73.2001C283.505 72.9334 282.072 73.3 281.005 74.3V74.3ZM300.405 68.9C301.805 68.9 302.472 69.5334 302.405 70.8V71.6001C303.605 70.5334 305.039 70 306.705 70C309.505 70 311.372 70.9334 312.305 72.8C313.639 70.9334 315.672 70 318.405 70C323.405 70 325.872 72.9001 325.805 78.7001L325.605 88.2001C325.605 89.7334 324.972 90.5667 323.705 90.7001C322.305 90.8334 321.605 90.1334 321.605 88.6001L321.705 79.8C321.772 76 320.772 74.0667 318.705 74C316.239 73.9333 314.572 75.0001 313.705 77.2001C313.705 77.2667 313.705 77.6667 313.705 78.4L313.405 88C313.405 89.5333 312.772 90.3334 311.505 90.4C310.172 90.5334 309.505 89.8334 309.505 88.3L309.705 79.5C309.772 75.9 308.805 74.0667 306.805 74C304.472 73.9333 302.972 75.2 302.305 77.8L301.905 88.4C301.905 89.8 301.205 90.5 299.805 90.5C298.605 90.4333 298.039 89.7334 298.105 88.4L298.505 70.7001C298.572 69.5001 299.205 68.9 300.405 68.9V68.9ZM345.905 79.7001L332.605 81.5C332.672 82.9667 333.339 84.2334 334.605 85.3C336.072 86.5667 337.739 87.2001 339.605 87.2001C342.272 87.1334 344.072 86.6334 345.005 85.7001C345.939 84.7001 346.672 84.1333 347.205 84C347.872 83.9333 348.339 84.1334 348.605 84.6001C349.205 85.8001 348.905 86.9 347.705 87.9C345.572 89.7667 342.805 90.6668 339.405 90.6001C336.872 90.6001 334.639 89.8334 332.705 88.3C330.372 86.4334 329.205 83.9334 329.205 80.8C329.205 78.1334 329.939 75.7667 331.405 73.7001C333.272 71.1667 335.672 69.8001 338.605 69.6001C341.672 69.4668 344.072 70.2 345.805 71.8C347.405 73.3334 348.172 75.0667 348.105 77C348.039 78.6 347.305 79.5001 345.905 79.7001V79.7001ZM333.005 78.4L344.705 76.7001C344.505 75.6334 343.905 74.7668 342.905 74.1001C341.705 73.3668 340.472 73.0334 339.205 73.1001C337.339 73.1001 335.739 73.8667 334.405 75.4C333.872 76.1334 333.405 77.1334 333.005 78.4ZM354.705 68.9C356.105 68.9 356.772 69.5334 356.705 70.8C356.705 71.1334 356.705 71.5 356.705 71.9C358.105 70.6334 359.939 70 362.205 70C367.205 70 369.672 72.9001 369.605 78.7001L369.405 88.3C369.405 89.8334 368.772 90.6667 367.505 90.8C366.039 90.8667 365.339 90.1334 365.405 88.6001L365.605 79.6001C365.739 76.0668 364.705 74.2334 362.505 74.1001C360.639 73.9668 358.672 74.9 356.605 76.9L356.305 88.5C356.239 89.9 355.505 90.5667 354.105 90.5C352.905 90.5 352.305 89.8 352.305 88.4L352.805 70.7001C352.805 69.5001 353.439 68.9 354.705 68.9V68.9ZM380.805 59C382.139 59 382.805 59.6334 382.805 60.9C382.805 64.1667 382.739 67.1334 382.605 69.8H386.705C388.305 69.8 389.105 70.4334 389.105 71.7001C389.105 73.0334 388.339 73.7001 386.805 73.7001C385.405 73.7001 383.972 73.7001 382.505 73.7001L382.205 88.6001C382.205 90.0001 381.472 90.6668 380.005 90.6001C378.805 90.6001 378.239 89.9 378.305 88.5L378.605 73.7001C377.072 73.7001 375.539 73.7001 374.005 73.7001C372.872 73.7001 372.305 73.0667 372.305 71.8C372.305 70.5334 372.905 69.9 374.105 69.9C375.639 69.9 377.172 69.8667 378.705 69.8L379.005 60.8C379.005 59.6 379.605 59 380.805 59V59ZM398.005 87C400.939 87.2 402.739 86.8334 403.405 85.9C403.939 85.1 403.639 84.1333 402.505 83C401.772 82.2667 400.105 81.7 397.505 81.3C394.772 80.9667 393.205 79.9667 392.805 78.3C392.472 77.0334 392.572 75.7334 393.105 74.4C393.705 72.9334 394.539 71.8334 395.605 71.1001C396.939 70.1668 398.472 69.6333 400.205 69.5C402.139 69.3 403.839 69.5667 405.305 70.3C407.172 71.1667 408.205 72.1667 408.405 73.3C408.539 74.1 408.305 74.7334 407.705 75.2001C406.905 75.8001 405.739 75.3667 404.205 73.9C403.472 73.2334 402.339 72.9333 400.805 73C399.205 73.0667 398.039 73.5334 397.305 74.4C396.639 75.1334 396.439 75.8668 396.705 76.6001C396.972 77.3334 397.905 77.7667 399.505 77.9C400.772 78.0334 401.939 78.3334 403.005 78.8C404.405 79.4667 405.405 80.1334 406.005 80.8C407.339 82.3334 407.905 83.9334 407.705 85.6001C407.505 87.2001 406.572 88.5334 404.905 89.6001C403.572 90.4668 401.805 90.9 399.605 90.9C397.805 90.9 396.305 90.7667 395.105 90.5C394.372 90.3 393.505 89.9 392.505 89.3C391.572 88.7667 391.072 88.1334 391.005 87.4C390.939 86.5334 391.239 85.9334 391.905 85.6001C392.639 85.0668 393.472 85.1334 394.405 85.8C395.539 86.5334 396.739 86.9333 398.005 87ZM429.905 87C432.905 87.2 434.739 86.8334 435.405 85.9C435.939 85.1 435.639 84.1333 434.505 83C433.772 82.2667 432.105 81.7 429.505 81.3C426.772 80.9667 425.205 79.9667 424.805 78.3C424.472 77.0334 424.572 75.7334 425.105 74.4C425.705 72.9334 426.539 71.8334 427.605 71.1001C428.939 70.1668 430.472 69.6333 432.205 69.5C434.139 69.3 435.839 69.5667 437.305 70.3C439.172 71.1667 440.205 72.1667 440.405 73.3C440.539 74.1 440.272 74.7334 439.605 75.2001C438.872 75.8001 437.739 75.3667 436.205 73.9C435.472 73.2334 434.339 72.9333 432.805 73C431.205 73.0667 430.039 73.5334 429.305 74.4C428.639 75.1334 428.439 75.8668 428.705 76.6001C428.905 77.3334 429.805 77.7667 431.405 77.9C432.672 78.0334 433.839 78.3334 434.905 78.8C436.372 79.4667 437.405 80.1334 438.005 80.8C439.339 82.3334 439.905 83.9334 439.705 85.6001C439.505 87.2001 438.572 88.5334 436.905 89.6001C435.572 90.4668 433.805 90.9 431.605 90.9C429.739 90.9 428.239 90.7667 427.105 90.5C426.372 90.3 425.505 89.9 424.505 89.3C423.572 88.7667 423.072 88.1334 423.005 87.4C422.939 86.5334 423.205 85.9334 423.805 85.6001C424.539 85.0668 425.405 85.1334 426.405 85.8C427.539 86.5334 428.705 86.9333 429.905 87V87ZM459.105 91.3C457.705 91.3 457.005 90.6667 457.005 89.4L457.105 88.2001C455.639 89.4667 453.772 90.1001 451.505 90.1001C446.505 90.1001 444.039 87.2 444.105 81.4L444.205 72C444.205 70.4667 444.839 69.6333 446.105 69.5C447.505 69.4333 448.205 70.1667 448.205 71.7001L448.105 80C448.105 83.1333 448.605 85.0334 449.605 85.7001C451.005 86.5667 452.639 86.5334 454.505 85.6001C456.239 84.8001 457.139 83.3334 457.205 81.2001L457.405 71.6001C457.472 70.2001 458.205 69.5 459.605 69.5C460.805 69.5 461.405 70.2001 461.405 71.6001L460.905 89.5C460.839 90.7 460.239 91.3 459.105 91.3V91.3ZM479.205 85.8C480.405 85 481.372 85.2 482.105 86.4C482.572 87.1334 482.239 87.9667 481.105 88.9C479.639 90.1 477.339 90.7001 474.205 90.7001C471.739 90.7001 469.705 89.9334 468.105 88.4C466.039 86.5334 465.005 84.1667 465.005 81.3C465.005 78.1667 465.739 75.6001 467.205 73.6001C468.939 71.2001 471.172 69.9001 473.905 69.7001C475.439 69.5667 476.872 69.7001 478.205 70.1001C479.805 70.6334 480.872 71.3001 481.405 72.1001C482.205 73.3001 482.139 74.2334 481.205 74.9C480.605 75.3 479.672 75.0334 478.405 74.1001C476.805 73.0334 475.039 72.8 473.105 73.4C472.039 73.7334 471.039 74.5001 470.105 75.7001C469.105 77.1001 468.605 78.7 468.605 80.5C468.539 82.2333 469.039 83.8001 470.105 85.2001C471.105 86.4667 472.472 87.1334 474.205 87.2001C476.005 87.2667 477.672 86.8 479.205 85.8V85.8ZM489.505 59C490.839 59 491.505 59.6334 491.505 60.9L491.305 72.2001C492.972 70.7334 495.172 70 497.905 70C502.905 70 505.372 72.9001 505.305 78.7001L505.205 88.4C505.205 89.9334 504.572 90.7667 503.305 90.9C501.905 91.0334 501.205 90.3334 501.205 88.8L501.305 79.6001C501.305 76.2001 500.239 74.4334 498.105 74.3C495.639 74.1 493.372 75.1667 491.305 77.5L490.905 88.6001C490.839 90.0001 490.105 90.6668 488.705 90.6001C487.505 90.6001 486.939 89.9 487.005 88.5L487.605 60.8C487.672 59.6 488.305 59 489.505 59V59ZM529.705 90.9C523.772 90.9 520.772 87.8334 520.705 81.7001C520.705 77.7001 522.072 74.6 524.805 72.4C528.005 69.9334 531.339 69.2334 534.805 70.3C535.205 69.9667 535.805 69.8667 536.605 70C538.205 70.4 538.839 71.4 538.505 73C538.239 74.6 538.072 77.3334 538.005 81.2001C537.939 84.2001 538.272 86.3667 539.005 87.7001C540.139 89.5667 540.005 90.6334 538.605 90.9C536.939 91.2334 535.972 90.5334 535.705 88.8C532.972 90.2 530.972 90.9 529.705 90.9V90.9ZM532.005 87C532.472 86.8667 533.305 86.3334 534.505 85.4C534.039 79.9334 534.105 76.1668 534.705 74.1001C533.439 73.3001 532.105 73.0667 530.705 73.4C529.705 73.6 528.905 73.9334 528.305 74.4C525.972 76 524.739 78.3 524.605 81.3C524.672 85.2334 526.072 87.2667 528.805 87.4C529.939 87.5334 531.005 87.4 532.005 87V87ZM548.305 87C551.305 87.2 553.139 86.8334 553.805 85.9C554.339 85.1 554.039 84.1333 552.905 83C552.172 82.2667 550.472 81.7 547.805 81.3C545.139 80.9667 543.605 79.9667 543.205 78.3C542.872 77.0334 542.972 75.7334 543.505 74.4C544.039 72.9334 544.872 71.8334 546.005 71.1001C547.339 70.1668 548.839 69.6333 550.505 69.5C552.439 69.3 554.139 69.5667 555.605 70.3C557.539 71.1667 558.605 72.1667 558.805 73.3C558.872 74.1 558.605 74.7334 558.005 75.2001C557.272 75.8001 556.139 75.3667 554.605 73.9C553.805 73.2334 552.672 72.9333 551.205 73C549.605 73.0667 548.405 73.5334 547.605 74.4C547.005 75.1334 546.839 75.8668 547.105 76.6001C547.305 77.3334 548.205 77.7667 549.805 77.9C551.072 78.0334 552.239 78.3334 553.305 78.8C554.772 79.4667 555.805 80.1334 556.405 80.8C557.739 82.3334 558.305 83.9334 558.105 85.6001C557.839 87.2001 556.905 88.5334 555.305 89.6001C553.972 90.4668 552.205 90.9 550.005 90.9C548.139 90.9 546.639 90.7667 545.505 90.5C544.772 90.3 543.872 89.9 542.805 89.3C541.872 88.7667 541.405 88.1334 541.405 87.4C541.339 86.5334 541.605 85.9334 542.205 85.6001C542.939 85.0668 543.772 85.1334 544.705 85.8C545.905 86.5334 547.105 86.9333 548.305 87V87ZM2.30526 127.9C3.70526 127.9 4.37193 128.533 4.30526 129.8V130.6C5.50526 129.533 6.93859 129 8.60525 129C11.4053 129 13.2719 129.933 14.2053 131.8C15.5386 129.933 17.5719 129 20.3053 129C25.3053 129 27.7719 131.9 27.7053 137.7L27.5053 147.2C27.5053 148.733 26.8719 149.567 25.6053 149.7C24.2053 149.833 23.5053 149.133 23.5053 147.6L23.7053 138.8C23.7053 135 22.6719 133.067 20.6053 133C18.2053 132.933 16.5386 134 15.6053 136.2C15.6053 136.267 15.6053 136.667 15.6053 137.4L15.3053 147C15.3053 148.533 14.6719 149.333 13.4053 149.4C12.0719 149.533 11.4053 148.833 11.4053 147.3L11.6053 138.5C11.6719 134.9 10.7053 133.067 8.70526 133C6.43859 132.933 4.93859 134.2 4.20526 136.8L3.80526 147.4C3.80526 148.8 3.10526 149.5 1.70526 149.5C0.50526 149.433 -0.0614035 148.733 0.00526318 147.4L0.405257 129.7C0.471924 128.5 1.10526 127.9 2.30526 127.9V127.9ZM35.5053 120.1C35.5719 120.1 35.6053 120.1 35.6053 120.1C36.0719 120.1 36.4719 120.2 36.8053 120.4C37.2719 120.667 37.6053 121 37.8053 121.4C38.0053 121.733 38.1053 122.1 38.1053 122.5C38.1053 122.567 38.1053 122.633 38.1053 122.7C38.0386 123.167 37.8719 123.567 37.6053 123.9C37.3386 124.233 37.0386 124.467 36.7053 124.6C36.3719 124.8 36.0053 124.9 35.6053 124.9C35.5386 124.9 35.5053 124.9 35.5053 124.9C35.0386 124.833 34.6386 124.7 34.3053 124.5C33.9719 124.3 33.6719 124.033 33.4053 123.7C33.2053 123.3 33.1053 122.9 33.1053 122.5C33.1053 122.1 33.2053 121.7 33.4053 121.3C33.6719 120.967 33.9719 120.667 34.3053 120.4C34.6386 120.2 35.0386 120.1 35.5053 120.1V120.1ZM35.4053 128.8C36.6719 128.8 37.2719 129.633 37.2053 131.3L36.9053 147.2C36.9053 148.933 36.2719 149.8 35.0053 149.8C33.6053 149.733 32.9386 148.9 33.0053 147.3L33.3053 131.3C33.3719 129.567 34.0719 128.733 35.4053 128.8ZM56.8053 144.8C58.0053 144 58.9719 144.2 59.7053 145.4C60.1719 146.133 59.8386 146.967 58.7053 147.9C57.2386 149.1 54.9386 149.7 51.8053 149.7C49.3386 149.7 47.3053 148.933 45.7053 147.4C43.6386 145.533 42.6053 143.167 42.6053 140.3C42.6053 137.167 43.3386 134.6 44.8053 132.6C46.5386 130.2 48.7719 128.9 51.5053 128.7C53.0386 128.567 54.4719 128.7 55.8053 129.1C57.4053 129.633 58.4719 130.3 59.0053 131.1C59.8053 132.3 59.7386 133.233 58.8053 133.9C58.2053 134.3 57.2719 134.033 56.0053 133.1C54.4053 132.033 52.6386 131.8 50.7053 132.4C49.5719 132.733 48.5719 133.5 47.7053 134.7C46.7053 136.1 46.1719 137.7 46.1053 139.5C46.1053 141.233 46.6386 142.8 47.7053 144.2C48.7053 145.467 50.0719 146.133 51.8053 146.2C53.6053 146.267 55.2719 145.8 56.8053 144.8V144.8ZM66.6053 127.9C67.9386 127.9 68.6053 128.533 68.6053 129.8C68.6053 130 68.6053 130.233 68.6053 130.5C70.0719 129.433 71.5386 128.867 73.0053 128.8C74.8053 128.8 76.2719 129.067 77.4053 129.6C79.4053 130.6 80.2053 131.6 79.8053 132.6C79.2719 134.267 78.2386 134.6 76.7053 133.6C75.5053 132.8 74.1386 132.533 72.6053 132.8C71.1386 133.133 69.7719 133.867 68.5053 135L68.1053 147.6C68.1053 149 67.4053 149.667 66.0053 149.6C64.8053 149.6 64.2386 148.9 64.3053 147.5L64.7053 129.7C64.7719 128.5 65.4053 127.9 66.6053 127.9V127.9ZM92.6053 132.6C90.8719 132.667 89.5719 133.267 88.7053 134.4C87.3719 136.133 86.7053 138.033 86.7053 140.1C86.7053 142.1 87.1719 143.6 88.1053 144.6C89.1053 145.6 90.2386 146.1 91.5053 146.1C92.9719 146.1 94.2053 145.6 95.2053 144.6C96.2053 143.533 96.7386 141.8 96.8053 139.4C96.8053 134.867 95.4053 132.6 92.6053 132.6ZM92.4053 128.7C97.8053 128.767 100.505 132.467 100.505 139.8C100.439 142.867 99.7053 145.2 98.3053 146.8C96.7053 148.8 94.2719 149.767 91.0053 149.7C88.6719 149.7 86.6719 148.767 85.0053 146.9C83.5386 145.233 82.8053 142.867 82.8053 139.8C82.8053 136.867 83.7053 134.267 85.5053 132C87.2386 129.8 89.5386 128.7 92.4053 128.7V128.7ZM118.805 131.3L121.105 144.6L125.605 131.3C126.139 129.5 126.905 128.667 127.905 128.8C129.305 129 129.705 129.9 129.105 131.5L123.405 147.4C122.872 149 122.039 149.8 120.905 149.8C119.505 149.8 118.672 149 118.405 147.4L116.305 136.9L112.405 147.4C111.872 149 111.039 149.8 109.905 149.8C108.572 149.8 107.739 149 107.405 147.4L104.305 131.5C103.972 129.9 104.405 129 105.605 128.8C106.805 128.6 107.572 129.433 107.905 131.3L110.205 144.6L114.605 131.3C115.139 129.633 115.872 128.8 116.805 128.8C117.872 128.8 118.539 129.633 118.805 131.3V131.3ZM140.405 149.9C134.472 149.9 131.505 146.833 131.505 140.7C131.439 136.7 132.772 133.6 135.505 131.4C138.705 128.933 142.039 128.233 145.505 129.3C145.905 128.967 146.505 128.867 147.305 129C148.905 129.4 149.539 130.4 149.205 132C148.939 133.6 148.772 136.333 148.705 140.2C148.639 143.2 149.005 145.367 149.805 146.7C150.872 148.567 150.705 149.633 149.305 149.9C147.639 150.233 146.672 149.533 146.405 147.8C143.672 149.2 141.672 149.9 140.405 149.9V149.9ZM142.705 146C143.239 145.867 144.072 145.333 145.205 144.4C144.739 138.933 144.805 135.167 145.405 133.1C144.139 132.3 142.805 132.067 141.405 132.4C140.405 132.6 139.605 132.933 139.005 133.4C136.672 135 135.439 137.3 135.305 140.3C135.372 144.233 136.772 146.267 139.505 146.4C140.639 146.533 141.705 146.4 142.705 146ZM153.605 128.8C154.939 128.267 155.905 128.8 156.505 130.4L161.505 143.8L166.505 130.4C167.105 128.8 168.072 128.267 169.405 128.8C170.539 129.267 170.772 130.3 170.105 131.9L163.905 147.6C163.372 149 162.572 149.7 161.505 149.7C160.505 149.7 159.705 149 159.105 147.6L152.905 131.9C152.239 130.3 152.472 129.267 153.605 128.8ZM189.505 138.7L176.205 140.5C176.272 141.967 176.939 143.233 178.205 144.3C179.672 145.567 181.339 146.2 183.205 146.2C185.939 146.133 187.772 145.633 188.705 144.7C189.572 143.7 190.305 143.133 190.905 143C191.505 142.933 191.939 143.133 192.205 143.6C192.805 144.8 192.505 145.9 191.305 146.9C189.172 148.767 186.405 149.667 183.005 149.6C180.472 149.6 178.239 148.833 176.305 147.3C173.972 145.433 172.805 142.933 172.805 139.8C172.805 137.133 173.539 134.767 175.005 132.7C176.872 130.167 179.272 128.8 182.205 128.6C185.272 128.467 187.672 129.2 189.405 130.8C191.005 132.333 191.772 134.067 191.705 136C191.705 137.6 190.972 138.5 189.505 138.7V138.7ZM176.605 137.4L188.305 135.7C188.105 134.633 187.505 133.767 186.505 133.1C185.372 132.367 184.139 132.033 182.805 132.1C180.939 132.1 179.372 132.867 178.105 134.4C177.505 135.133 177.005 136.133 176.605 137.4ZM201.105 146C204.105 146.2 205.939 145.833 206.605 144.9C207.139 144.1 206.839 143.133 205.705 142C204.972 141.267 203.272 140.7 200.605 140.3C197.939 139.967 196.405 138.967 196.005 137.3C195.672 136.033 195.772 134.733 196.305 133.4C196.839 131.933 197.672 130.833 198.805 130.1C200.139 129.167 201.672 128.633 203.405 128.5C205.339 128.3 207.005 128.567 208.405 129.3C210.339 130.167 211.405 131.167 211.605 132.3C211.672 133.1 211.405 133.733 210.805 134.2C210.072 134.8 208.939 134.367 207.405 132.9C206.605 132.233 205.472 131.933 204.005 132C202.405 132.067 201.205 132.533 200.405 133.4C199.805 134.133 199.639 134.867 199.905 135.6C200.105 136.333 201.005 136.767 202.605 136.9C203.872 137.033 205.039 137.333 206.105 137.8C207.572 138.467 208.605 139.133 209.205 139.8C210.539 141.333 211.105 142.933 210.905 144.6C210.639 146.2 209.705 147.533 208.105 148.6C206.772 149.467 205.005 149.9 202.805 149.9C200.939 149.9 199.439 149.767 198.305 149.5C197.572 149.3 196.672 148.9 195.605 148.3C194.739 147.767 194.272 147.133 194.205 146.4C194.139 145.533 194.405 144.933 195.005 144.6C195.739 144.067 196.572 144.133 197.505 144.8C198.705 145.533 199.905 145.933 201.105 146V146ZM222.205 146.4C223.139 146.8 223.372 147.5 222.905 148.5L220.305 153.9C219.772 155.1 219.072 155.533 218.205 155.2C217.272 154.8 217.039 154.033 217.505 152.9L219.805 147.3C220.339 146.1 221.139 145.8 222.205 146.4V146.4ZM255.105 138.7L241.705 140.5C241.772 141.967 242.472 143.233 243.805 144.3C245.272 145.567 246.939 146.2 248.805 146.2C251.472 146.133 253.272 145.633 254.205 144.7C255.072 143.7 255.805 143.133 256.405 143C257.005 142.933 257.439 143.133 257.705 143.6C258.372 144.8 258.105 145.9 256.905 146.9C254.772 148.767 251.972 149.667 248.505 149.6C245.972 149.6 243.772 148.833 241.905 147.3C239.505 145.433 238.305 142.933 238.305 139.8C238.305 137.133 239.072 134.767 240.605 132.7C242.472 130.167 244.872 128.8 247.805 128.6C250.872 128.467 253.239 129.2 254.905 130.8C256.572 132.333 257.372 134.067 257.305 136C257.239 137.6 256.505 138.5 255.105 138.7V138.7ZM242.205 137.4L253.805 135.7C253.605 134.633 253.005 133.767 252.005 133.1C250.872 132.367 249.639 132.033 248.305 132.1C246.505 132.1 244.939 132.867 243.605 134.4C243.005 135.133 242.539 136.133 242.205 137.4V137.4ZM264.805 118C266.205 118 266.905 118.633 266.905 119.9L266.205 147.6C266.205 149 265.505 149.667 264.105 149.6C262.905 149.6 262.305 148.9 262.305 147.5L263.005 119.8C263.005 118.667 263.605 118.067 264.805 118V118ZM288.505 138.7L275.205 140.5C275.272 141.967 275.939 143.233 277.205 144.3C278.672 145.567 280.339 146.2 282.205 146.2C284.939 146.133 286.739 145.633 287.605 144.7C288.539 143.7 289.272 143.133 289.805 143C290.472 142.933 290.939 143.133 291.205 143.6C291.805 144.8 291.505 145.9 290.305 146.9C288.172 148.767 285.405 149.667 282.005 149.6C279.472 149.6 277.239 148.833 275.305 147.3C272.972 145.433 271.805 142.933 271.805 139.8C271.805 137.133 272.539 134.767 274.005 132.7C275.872 130.167 278.272 128.8 281.205 128.6C284.272 128.467 286.672 129.2 288.405 130.8C290.005 132.333 290.772 134.067 290.705 136C290.639 137.6 289.905 138.5 288.505 138.7V138.7ZM275.605 137.4L287.305 135.7C287.105 134.633 286.505 133.767 285.505 133.1C284.305 132.367 283.072 132.033 281.805 132.1C279.939 132.1 278.339 132.867 277.005 134.4C276.472 135.133 276.005 136.133 275.605 137.4ZM308.405 144.8C309.605 144 310.572 144.2 311.305 145.4C311.705 146.133 311.372 146.967 310.305 147.9C308.839 149.1 306.539 149.7 303.405 149.7C300.939 149.7 298.872 148.933 297.205 147.4C295.205 145.533 294.205 143.167 294.205 140.3C294.205 137.167 294.939 134.6 296.405 132.6C298.139 130.2 300.339 128.9 303.005 128.7C304.605 128.567 306.072 128.7 307.405 129.1C309.005 129.633 310.072 130.3 310.605 131.1C311.405 132.3 311.339 133.233 310.405 133.9C309.805 134.3 308.872 134.033 307.605 133.1C306.005 132.033 304.239 131.8 302.305 132.4C301.172 132.733 300.172 133.5 299.305 134.7C298.305 136.1 297.772 137.7 297.705 139.5C297.705 141.233 298.239 142.8 299.305 144.2C300.305 145.467 301.672 146.133 303.405 146.2C305.205 146.267 306.872 145.8 308.405 144.8V144.8ZM323.005 118C324.339 118 325.005 118.633 325.005 119.9C325.005 123.167 324.939 126.133 324.805 128.8H328.905C330.505 128.8 331.305 129.433 331.305 130.7C331.305 132.033 330.539 132.7 329.005 132.7C327.605 132.7 326.172 132.7 324.705 132.7L324.405 147.6C324.405 149 323.672 149.667 322.205 149.6C321.072 149.6 320.505 148.9 320.505 147.5L320.905 132.7C319.305 132.7 317.739 132.7 316.205 132.7C315.072 132.7 314.505 132.067 314.505 130.8C314.505 129.533 315.139 128.9 316.405 128.9C317.872 128.9 319.405 128.867 321.005 128.8L321.205 119.8C321.205 118.6 321.805 118 323.005 118V118ZM337.405 127.9C338.739 127.9 339.405 128.533 339.405 129.8C339.405 130 339.405 130.233 339.405 130.5C340.872 129.433 342.339 128.867 343.805 128.8C345.539 128.8 346.972 129.067 348.105 129.6C350.172 130.6 351.005 131.6 350.605 132.6C350.005 134.267 348.972 134.6 347.505 133.6C346.305 132.8 344.939 132.533 343.405 132.8C341.872 133.133 340.505 133.867 339.305 135L338.905 147.6C338.905 149 338.205 149.667 336.805 149.6C335.605 149.6 335.005 148.9 335.005 147.5L335.505 129.7C335.505 128.5 336.139 127.9 337.405 127.9V127.9ZM358.205 120.1C358.672 120.1 359.105 120.2 359.505 120.4C359.905 120.667 360.205 121 360.405 121.4C360.605 121.733 360.705 122.1 360.705 122.5C360.705 122.567 360.705 122.633 360.705 122.7C360.639 123.167 360.472 123.567 360.205 123.9C359.939 124.233 359.639 124.467 359.305 124.6C358.972 124.8 358.605 124.9 358.205 124.9C358.205 124.9 358.172 124.9 358.105 124.9C357.705 124.833 357.339 124.7 357.005 124.5C356.605 124.3 356.305 124.033 356.105 123.7C355.839 123.3 355.705 122.9 355.705 122.5C355.705 122.1 355.839 121.7 356.105 121.3C356.305 120.967 356.572 120.667 356.905 120.4C357.305 120.2 357.739 120.1 358.205 120.1V120.1ZM358.005 128.8C359.272 128.8 359.905 129.633 359.905 131.3L359.605 147.2C359.539 148.933 358.905 149.8 357.705 149.8C356.239 149.733 355.539 148.9 355.605 147.3L355.905 131.3C355.972 129.567 356.672 128.733 358.005 128.8ZM379.505 144.8C380.639 144 381.572 144.2 382.305 145.4C382.772 146.133 382.439 146.967 381.305 147.9C379.839 149.1 377.539 149.7 374.405 149.7C371.939 149.7 369.905 148.933 368.305 147.4C366.239 145.533 365.205 143.167 365.205 140.3C365.205 137.167 365.939 134.6 367.405 132.6C369.139 130.2 371.372 128.9 374.105 128.7C375.705 128.567 377.139 128.7 378.405 129.1C380.005 129.633 381.072 130.3 381.605 131.1C382.405 132.3 382.372 133.233 381.505 133.9C380.839 134.3 379.872 134.033 378.605 133.1C377.072 132.033 375.305 131.8 373.305 132.4C372.239 132.733 371.272 133.5 370.405 134.7C369.339 136.1 368.805 137.7 368.805 139.5C368.739 141.233 369.239 142.8 370.305 144.2C371.305 145.467 372.672 146.133 374.405 146.2C376.205 146.267 377.905 145.8 379.505 144.8V144.8ZM404.205 146C407.205 146.2 409.039 145.833 409.705 144.9C410.239 144.1 409.939 143.133 408.805 142C408.072 141.267 406.372 140.7 403.705 140.3C401.039 139.967 399.472 138.967 399.005 137.3C398.739 136.033 398.872 134.733 399.405 133.4C399.939 131.933 400.772 130.833 401.905 130.1C403.239 129.167 404.739 128.633 406.405 128.5C408.339 128.3 410.039 128.567 411.505 129.3C413.439 130.167 414.472 131.167 414.605 132.3C414.739 133.1 414.505 133.733 413.905 134.2C413.172 134.8 412.039 134.367 410.505 132.9C409.705 132.233 408.572 131.933 407.105 132C405.505 132.067 404.305 132.533 403.505 133.4C402.839 134.133 402.639 134.867 402.905 135.6C403.172 136.333 404.105 136.767 405.705 136.9C406.972 137.033 408.139 137.333 409.205 137.8C410.672 138.467 411.672 139.133 412.205 139.8C413.539 141.333 414.139 142.933 414.005 144.6C413.739 146.2 412.805 147.533 411.205 148.6C409.872 149.467 408.105 149.9 405.905 149.9C404.039 149.9 402.539 149.767 401.405 149.5C400.672 149.3 399.772 148.9 398.705 148.3C397.772 147.767 397.305 147.133 397.305 146.4C397.239 145.533 397.505 144.933 398.105 144.6C398.839 144.067 399.672 144.133 400.605 144.8C401.805 145.533 403.005 145.933 404.205 146V146ZM421.705 118C423.039 118 423.705 118.633 423.705 119.9L423.505 131.2C425.172 129.733 427.372 129 430.105 129C435.105 129 437.572 131.9 437.505 137.7L437.405 147.4C437.405 148.933 436.772 149.767 435.505 149.9C434.105 150.033 433.405 149.333 433.405 147.8L433.505 138.6C433.505 135.2 432.439 133.433 430.305 133.3C427.839 133.1 425.572 134.167 423.505 136.5L423.105 147.6C423.039 149 422.305 149.667 420.905 149.6C419.705 149.6 419.139 148.9 419.205 147.5L419.805 119.8C419.872 118.6 420.505 118 421.705 118V118ZM449.805 149.9C443.805 149.9 440.805 146.833 440.805 140.7C440.739 136.7 442.105 133.6 444.905 131.4C448.039 128.933 451.339 128.233 454.805 129.3C455.205 128.967 455.805 128.867 456.605 129C458.205 129.4 458.872 130.4 458.605 132C458.272 133.6 458.072 136.333 458.005 140.2C457.939 143.2 458.305 145.367 459.105 146.7C460.239 148.567 460.072 149.633 458.605 149.9C456.939 150.233 455.972 149.533 455.705 147.8C452.972 149.2 451.005 149.9 449.805 149.9V149.9ZM452.105 146C452.572 145.867 453.372 145.333 454.505 144.4C454.039 138.933 454.105 135.167 454.705 133.1C453.439 132.3 452.105 132.067 450.705 132.4C449.705 132.6 448.939 132.933 448.405 133.4C446.005 135 444.772 137.3 444.705 140.3C444.705 144.233 446.072 146.267 448.805 146.4C450.005 146.533 451.105 146.4 452.105 146ZM462.905 128.8C464.239 128.267 465.205 128.8 465.805 130.4L470.805 143.8L475.905 130.4C476.505 128.8 477.439 128.267 478.705 128.8C479.839 129.267 480.105 130.3 479.505 131.9L473.205 147.6C472.672 149 471.905 149.7 470.905 149.7C469.839 149.7 469.039 149 468.505 147.6L462.205 131.9C461.539 130.3 461.772 129.267 462.905 128.8V128.8ZM498.905 138.7L485.505 140.5C485.572 141.967 486.239 143.233 487.505 144.3C489.039 145.567 490.705 146.2 492.505 146.2C495.239 146.133 497.072 145.633 498.005 144.7C498.872 143.7 499.605 143.133 500.205 143C500.805 142.933 501.239 143.133 501.505 143.6C502.172 144.8 501.905 145.9 500.705 146.9C498.572 148.767 495.772 149.667 492.305 149.6C489.772 149.6 487.572 148.833 485.705 147.3C483.305 145.433 482.105 142.933 482.105 139.8C482.105 137.133 482.872 134.767 484.405 132.7C486.205 130.167 488.572 128.8 491.505 128.6C494.572 128.467 496.972 129.2 498.705 130.8C500.372 132.333 501.172 134.067 501.105 136C501.039 137.6 500.305 138.5 498.905 138.7V138.7ZM485.905 137.4L497.605 135.7C497.405 134.633 496.805 133.767 495.805 133.1C494.672 132.367 493.439 132.033 492.105 132.1C490.305 132.1 488.739 132.867 487.405 134.4C486.805 135.133 486.305 136.133 485.905 137.4ZM507.605 127.9C509.005 127.9 509.705 128.533 509.705 129.8C509.705 130 509.705 130.233 509.705 130.5C511.172 129.433 512.605 128.867 514.005 128.8C515.805 128.8 517.272 129.067 518.405 129.6C520.405 130.6 521.239 131.6 520.905 132.6C520.305 134.267 519.239 134.6 517.705 133.6C516.505 132.8 515.139 132.533 513.605 132.8C512.139 133.133 510.772 133.867 509.505 135L509.205 147.6C509.139 149 508.405 149.667 507.005 149.6C505.805 149.6 505.239 148.9 505.305 147.5L505.805 129.7C505.805 128.5 506.405 127.9 507.605 127.9V127.9ZM530.005 146C533.005 146.2 534.805 145.833 535.405 144.9C535.939 144.1 535.672 143.133 534.605 142C533.872 141.267 532.172 140.7 529.505 140.3C526.839 139.967 525.272 138.967 524.805 137.3C524.539 136.033 524.672 134.733 525.205 133.4C525.739 131.933 526.572 130.833 527.705 130.1C528.972 129.167 530.472 128.633 532.205 128.5C534.139 128.3 535.839 128.567 537.305 129.3C539.239 130.167 540.272 131.167 540.405 132.3C540.539 133.1 540.305 133.733 539.705 134.2C538.972 134.8 537.839 134.367 536.305 132.9C535.505 132.233 534.372 131.933 532.905 132C531.305 132.067 530.105 132.533 529.305 133.4C528.639 134.133 528.439 134.867 528.705 135.6C528.972 136.333 529.905 136.767 531.505 136.9C532.772 137.033 533.939 137.333 535.005 137.8C536.472 138.467 537.472 139.133 538.005 139.8C539.339 141.333 539.905 142.933 539.705 144.6C539.505 146.2 538.605 147.533 537.005 148.6C535.672 149.467 533.905 149.9 531.705 149.9C529.839 149.9 528.305 149.767 527.105 149.5C526.439 149.3 525.572 148.9 524.505 148.3C523.572 147.767 523.072 147.133 523.005 146.4C523.005 145.533 523.305 144.933 523.905 144.6C524.639 144.067 525.472 144.133 526.405 144.8C527.605 145.533 528.805 145.933 530.005 146V146ZM551.105 146.4C552.039 146.8 552.272 147.5 551.805 148.5L549.205 153.9C548.605 155.1 547.905 155.533 547.105 155.2C546.172 154.8 545.939 154.033 546.405 152.9L548.705 147.3C549.239 146.1 550.039 145.8 551.105 146.4V146.4ZM569.305 134.2C567.839 134.2 567.139 133.6 567.205 132.4C567.205 131.133 567.972 130.5 569.505 130.5H572.605C572.739 125.567 573.439 122.233 574.705 120.5C575.705 119.1 577.639 118.333 580.505 118.2C583.305 118.133 584.572 118.8 584.305 120.2C584.105 121.467 583.205 122.033 581.605 121.9C579.139 121.633 577.605 122.533 577.005 124.6C576.672 125.8 576.505 127.767 576.505 130.5H581.005C582.805 130.5 583.739 131.067 583.805 132.2C583.872 133.533 583.039 134.2 581.305 134.2H576.405L576.205 147.8C576.205 149.2 575.472 149.867 574.005 149.8C572.805 149.8 572.239 149.1 572.305 147.7L572.505 134.2H569.305ZM603.305 150.3C601.905 150.3 601.205 149.667 601.205 148.4L601.305 147.2C599.839 148.467 597.972 149.1 595.705 149.1C590.705 149.1 588.239 146.2 588.305 140.4L588.405 131C588.405 129.467 589.039 128.633 590.305 128.5C591.705 128.433 592.405 129.167 592.405 130.7L592.305 139C592.305 142.133 592.805 144.033 593.805 144.7C595.205 145.567 596.839 145.533 598.705 144.6C600.439 143.8 601.339 142.333 601.405 140.2L601.705 130.6C601.705 129.2 602.405 128.5 603.805 128.5C605.005 128.5 605.605 129.2 605.605 130.6L605.105 148.5C605.105 149.7 604.505 150.3 603.305 150.3ZM615.105 146C618.105 146.2 619.939 145.833 620.605 144.9C621.139 144.1 620.839 143.133 619.705 142C618.972 141.267 617.305 140.7 614.705 140.3C611.972 139.967 610.405 138.967 610.005 137.3C609.672 136.033 609.772 134.733 610.305 133.4C610.839 131.933 611.672 130.833 612.805 130.1C614.139 129.167 615.672 128.633 617.405 128.5C619.339 128.3 621.005 128.567 622.405 129.3C624.339 130.167 625.405 131.167 625.605 132.3C625.672 133.1 625.405 133.733 624.805 134.2C624.072 134.8 622.939 134.367 621.405 132.9C620.605 132.233 619.472 131.933 618.005 132C616.405 132.067 615.205 132.533 614.405 133.4C613.805 134.133 613.639 134.867 613.905 135.6C614.105 136.333 615.005 136.767 616.605 136.9C617.872 137.033 619.039 137.333 620.105 137.8C621.572 138.467 622.605 139.133 623.205 139.8C624.539 141.333 625.105 142.933 624.905 144.6C624.639 146.2 623.705 147.533 622.105 148.6C620.772 149.467 619.005 149.9 616.805 149.9C614.939 149.9 613.439 149.767 612.305 149.5C611.572 149.3 610.672 148.9 609.605 148.3C608.739 147.767 608.272 147.133 608.205 146.4C608.139 145.533 608.405 144.933 609.005 144.6C609.739 144.067 610.605 144.133 611.605 144.8C612.739 145.533 613.905 145.933 615.105 146V146ZM645.705 138.7L632.305 140.5C632.372 141.967 633.039 143.233 634.305 144.3C635.839 145.567 637.505 146.2 639.305 146.2C642.039 146.133 643.872 145.633 644.805 144.7C645.672 143.7 646.405 143.133 647.005 143C647.605 142.933 648.039 143.133 648.305 143.6C648.905 144.8 648.605 145.9 647.405 146.9C645.339 148.767 642.572 149.667 639.105 149.6C636.572 149.6 634.372 148.833 632.505 147.3C630.105 145.433 628.905 142.933 628.905 139.8C628.905 137.133 629.639 134.767 631.105 132.7C632.972 130.167 635.372 128.8 638.305 128.6C641.372 128.467 643.772 129.2 645.505 130.8C647.172 132.333 647.972 134.067 647.905 136C647.839 137.6 647.105 138.5 645.705 138.7V138.7ZM632.705 137.4L644.405 135.7C644.205 134.633 643.605 133.767 642.605 133.1C641.472 132.367 640.239 132.033 638.905 132.1C637.105 132.1 635.539 132.867 634.205 134.4C633.605 135.133 633.105 136.133 632.705 137.4ZM669.405 118C670.739 118 671.405 118.633 671.405 119.9L670.805 147.6C670.805 149 670.072 149.667 668.605 149.6C667.539 149.6 666.972 149.067 666.905 148C664.905 149.2 662.805 149.8 660.605 149.8C658.339 149.733 656.305 148.867 654.505 147.2C652.572 145.333 651.539 143.133 651.405 140.6C651.272 137.2 652.205 134.367 654.205 132.1C656.005 129.9 658.405 128.8 661.405 128.8C663.005 128.8 664.372 129.133 665.505 129.8C666.172 130.133 666.772 130.467 667.305 130.8L667.505 119.8C667.572 118.667 668.205 118.067 669.405 118V118ZM666.905 143.7C667.105 141.033 667.205 138.2 667.205 135.2C664.805 132.867 662.472 131.967 660.205 132.5C658.539 132.9 657.339 133.533 656.605 134.4C655.539 135.667 655.005 137.433 655.005 139.7C654.939 141.167 655.472 142.6 656.605 144C657.539 145.133 658.872 145.8 660.605 146C662.472 146.2 664.572 145.433 666.905 143.7V143.7ZM3.00526 176C4.40526 176 5.07193 176.633 5.00526 177.9L4.80526 188.4C5.13859 188.2 5.50526 188 5.90526 187.8C7.10526 187.133 8.50525 186.8 10.1053 186.8C12.9719 186.8 15.3719 187.9 17.3053 190.1C19.3053 192.367 20.2053 195.2 20.0053 198.6C19.8719 201.2 18.8386 203.4 16.9053 205.2C15.1053 206.867 13.1053 207.733 10.9053 207.8C8.57192 207.8 6.40526 207.133 4.40526 205.8C4.27192 207.067 3.53859 207.667 2.20526 207.6C1.00526 207.6 0.438597 206.9 0.505263 205.5L1.20526 177.8C1.20526 176.6 1.80526 176 3.00526 176V176ZM10.9053 204C12.6386 203.8 13.9386 203.133 14.8053 202C15.8719 200.667 16.4386 199.233 16.5053 197.7C16.5719 195.5 16.0053 193.8 14.8053 192.6C13.8053 191.533 12.6053 190.833 11.2053 190.5C9.07193 190.033 6.90526 190.833 4.70526 192.9L4.50526 201.6C7.0386 203.467 9.17192 204.267 10.9053 204V204ZM39.0053 208.3C37.6053 208.3 36.9053 207.667 36.9053 206.4L37.0053 205.2C35.5386 206.467 33.6719 207.1 31.4053 207.1C26.4053 207.1 23.9386 204.2 24.0053 198.4L24.1053 189C24.1053 187.467 24.7386 186.633 26.0053 186.5C27.4053 186.433 28.1053 187.167 28.1053 188.7L28.0053 197C28.0053 200.133 28.5053 202.033 29.5053 202.7C30.9053 203.567 32.5386 203.533 34.4053 202.6C36.1386 201.8 37.0386 200.333 37.1053 198.2L37.4053 188.6C37.4053 187.2 38.1053 186.5 39.5053 186.5C40.7053 186.5 41.3053 187.2 41.3053 188.6L40.8053 206.5C40.8053 207.7 40.2053 208.3 39.0053 208.3ZM49.0053 176C50.4053 176 51.0719 176.633 51.0053 177.9L50.4053 205.6C50.4053 207 49.7053 207.667 48.3053 207.6C47.1053 207.6 46.5053 206.9 46.5053 205.5L47.2053 177.8C47.2053 176.667 47.8053 176.067 49.0053 176V176ZM59.4053 176C60.8053 176 61.5053 176.633 61.5053 177.9L61.2053 188.4C61.6053 188.2 62.0053 188 62.4053 187.8C63.6053 187.133 64.9719 186.8 66.5053 186.8C69.3719 186.8 71.7719 187.9 73.7053 190.1C75.7719 192.367 76.7053 195.2 76.5053 198.6C76.3719 201.2 75.3386 203.4 73.4053 205.2C71.6053 206.867 69.5719 207.733 67.3053 207.8C65.0386 207.8 62.8719 207.133 60.8053 205.8C60.7386 207.067 60.0386 207.667 58.7053 207.6C57.5053 207.6 56.9053 206.9 56.9053 205.5L57.6053 177.8C57.6719 176.6 58.2719 176 59.4053 176V176ZM67.3053 204C69.1053 203.8 70.4386 203.133 71.3053 202C72.3719 200.667 72.9386 199.233 73.0053 197.7C73.0053 195.5 72.4053 193.8 71.2053 192.6C70.2719 191.533 69.1053 190.833 67.7053 190.5C65.5053 190.033 63.3053 190.833 61.1053 192.9L61.0053 201.6C63.5386 203.467 65.6386 204.267 67.3053 204V204ZM86.1053 204C89.1053 204.2 90.9386 203.833 91.6053 202.9C92.1386 202.1 91.8386 201.133 90.7053 200C89.9719 199.267 88.3053 198.7 85.7053 198.3C82.9719 197.967 81.4053 196.967 81.0053 195.3C80.6719 194.033 80.7719 192.733 81.3053 191.4C81.8386 189.933 82.6719 188.833 83.8053 188.1C85.1386 187.167 86.6719 186.633 88.4053 186.5C90.3386 186.3 92.0053 186.567 93.4053 187.3C95.3386 188.167 96.4053 189.167 96.6053 190.3C96.6719 191.1 96.4053 191.733 95.8053 192.2C95.0719 192.8 93.9386 192.367 92.4053 190.9C91.6053 190.233 90.4719 189.933 89.0053 190C87.4053 190.067 86.2053 190.533 85.4053 191.4C84.8053 192.133 84.6386 192.867 84.9053 193.6C85.1053 194.333 86.0053 194.767 87.6053 194.9C88.8719 195.033 90.0386 195.333 91.1053 195.8C92.5719 196.467 93.6053 197.133 94.2053 197.8C95.5386 199.333 96.1053 200.933 95.9053 202.6C95.6386 204.2 94.7053 205.533 93.1053 206.6C91.7719 207.467 90.0053 207.9 87.8053 207.9C85.9386 207.9 84.4386 207.767 83.3053 207.5C82.5719 207.3 81.6719 206.9 80.6053 206.3C79.7386 205.767 79.2719 205.133 79.2053 204.4C79.1386 203.533 79.4053 202.933 80.0053 202.6C80.7386 202.067 81.6053 202.133 82.6053 202.8C83.7386 203.533 84.9053 203.933 86.1053 204V204ZM107.305 204.4C108.172 204.8 108.372 205.5 107.905 206.5L105.305 211.9C104.772 213.1 104.072 213.533 103.205 213.2C102.272 212.8 102.039 212.033 102.505 210.9L104.805 205.3C105.339 204.1 106.172 203.8 107.305 204.4V204.4ZM126.805 176C128.205 176 128.905 176.633 128.905 177.9L128.605 188.4C129.005 188.2 129.372 188 129.705 187.8C130.905 187.133 132.305 186.8 133.905 186.8C136.772 186.8 139.172 187.9 141.105 190.1C143.172 192.367 144.105 195.2 143.905 198.6C143.772 201.2 142.739 203.4 140.805 205.2C139.005 206.867 136.972 207.733 134.705 207.8C132.372 207.8 130.205 207.133 128.205 205.8C128.139 207.067 127.439 207.667 126.105 207.6C124.905 207.6 124.305 206.9 124.305 205.5L125.005 177.8C125.005 176.6 125.605 176 126.805 176V176ZM134.705 204C136.505 203.8 137.839 203.133 138.705 202C139.772 200.667 140.305 199.233 140.305 197.7C140.372 195.5 139.805 193.8 138.605 192.6C137.672 191.533 136.505 190.833 135.105 190.5C132.905 190.033 130.705 190.833 128.505 192.9L128.305 201.6C130.905 203.467 133.039 204.267 134.705 204V204ZM150.705 185.9C152.039 185.9 152.705 186.533 152.705 187.8C152.705 188 152.705 188.233 152.705 188.5C154.172 187.433 155.639 186.867 157.105 186.8C158.905 186.8 160.372 187.067 161.505 187.6C163.505 188.6 164.305 189.6 163.905 190.6C163.372 192.267 162.339 192.6 160.805 191.6C159.605 190.8 158.239 190.533 156.705 190.8C155.172 191.133 153.805 191.867 152.605 193L152.205 205.6C152.205 207 151.505 207.667 150.105 207.6C148.905 207.6 148.339 206.9 148.405 205.5L148.805 187.7C148.872 186.5 149.505 185.9 150.705 185.9V185.9ZM176.705 190.6C174.972 190.667 173.672 191.267 172.805 192.4C171.472 194.133 170.805 196.033 170.805 198.1C170.805 200.1 171.272 201.6 172.205 202.6C173.205 203.6 174.339 204.1 175.605 204.1C177.072 204.1 178.305 203.6 179.305 202.6C180.305 201.533 180.839 199.8 180.905 197.4C180.905 192.867 179.505 190.6 176.705 190.6ZM176.505 186.7C181.905 186.767 184.605 190.467 184.605 197.8C184.539 200.867 183.805 203.2 182.405 204.8C180.805 206.8 178.372 207.767 175.105 207.7C172.772 207.7 170.772 206.767 169.105 204.9C167.639 203.233 166.905 200.867 166.905 197.8C166.905 194.867 167.805 192.267 169.605 190C171.339 187.8 173.639 186.7 176.505 186.7V186.7ZM192.505 176C193.839 176 194.505 176.633 194.505 177.9L194.105 194.8L203.205 186.8C204.672 185.533 205.805 185.367 206.605 186.3C207.539 187.3 207.439 188.267 206.305 189.2L200.305 194.4L207.105 203.5C208.239 204.967 208.405 206.067 207.605 206.8C206.339 208 205.172 207.867 204.105 206.4L197.405 197L194.005 199.9L193.905 205.6C193.839 207 193.105 207.667 191.705 207.6C190.505 207.6 189.939 206.9 190.005 205.5L190.605 177.8C190.672 176.667 191.305 176.067 192.505 176V176ZM227.205 196.7L213.805 198.5C213.872 199.967 214.539 201.233 215.805 202.3C217.339 203.567 219.005 204.2 220.805 204.2C223.539 204.133 225.372 203.633 226.305 202.7C227.172 201.7 227.905 201.133 228.505 201C229.105 200.933 229.539 201.133 229.805 201.6C230.472 202.8 230.172 203.9 228.905 204.9C226.839 206.767 224.072 207.667 220.605 207.6C218.072 207.6 215.872 206.833 214.005 205.3C211.605 203.433 210.405 200.933 210.405 197.8C210.405 195.133 211.172 192.767 212.705 190.7C214.505 188.167 216.872 186.8 219.805 186.6C222.872 186.467 225.272 187.2 227.005 188.8C228.672 190.333 229.472 192.067 229.405 194C229.339 195.6 228.605 196.5 227.205 196.7V196.7ZM214.205 195.4L225.905 193.7C225.705 192.633 225.105 191.767 224.105 191.1C222.972 190.367 221.739 190.033 220.405 190.1C218.605 190.1 217.039 190.867 215.705 192.4C215.105 193.133 214.605 194.133 214.205 195.4ZM235.905 185.9C237.305 185.9 237.972 186.533 237.905 187.8C237.905 188.133 237.905 188.5 237.905 188.9C239.372 187.633 241.239 187 243.505 187C248.505 187 250.939 189.9 250.805 195.7L250.705 205.3C250.639 206.833 250.005 207.667 248.805 207.8C247.339 207.867 246.639 207.133 246.705 205.6L246.905 196.6C246.972 193.067 245.905 191.233 243.705 191.1C241.905 190.967 239.939 191.9 237.805 193.9L237.505 205.5C237.505 206.9 236.772 207.567 235.305 207.5C234.105 207.5 233.539 206.8 233.605 205.4L234.105 187.7C234.105 186.5 234.705 185.9 235.905 185.9V185.9ZM269.005 185.9C270.405 185.9 271.105 186.533 271.105 187.8L271.005 188.6C272.205 187.533 273.639 187 275.305 187C278.105 187 279.972 187.933 280.905 189.8C282.305 187.933 284.339 187 287.005 187C292.072 187 294.539 189.9 294.405 195.7L294.305 205.2C294.239 206.733 293.605 207.567 292.405 207.7C290.939 207.833 290.205 207.133 290.205 205.6L290.405 196.8C290.405 193 289.372 191.067 287.305 191C284.905 190.933 283.272 192 282.405 194.2C282.339 194.267 282.305 194.667 282.305 195.4L282.005 205C282.005 206.533 281.372 207.333 280.105 207.4C278.772 207.533 278.105 206.833 278.105 205.3L278.305 196.5C278.439 192.9 277.472 191.067 275.405 191C273.139 190.933 271.639 192.2 270.905 194.8L270.605 205.4C270.539 206.8 269.805 207.5 268.405 207.5C267.205 207.433 266.639 206.733 266.705 205.4L267.205 187.7C267.205 186.5 267.805 185.9 269.005 185.9V185.9ZM307.405 190.6C305.672 190.667 304.372 191.267 303.505 192.4C302.239 194.133 301.605 196.033 301.605 198.1C301.605 200.1 302.072 201.6 303.005 202.6C304.005 203.6 305.139 204.1 306.405 204.1C307.805 204.1 309.005 203.6 310.005 202.6C311.072 201.533 311.605 199.8 311.605 197.4C311.605 192.867 310.205 190.6 307.405 190.6V190.6ZM307.305 186.7C312.639 186.767 315.305 190.467 315.305 197.8C315.305 200.867 314.605 203.2 313.205 204.8C311.605 206.8 309.172 207.767 305.905 207.7C303.572 207.7 301.572 206.767 299.905 204.9C298.439 203.233 297.705 200.867 297.705 197.8C297.705 194.867 298.572 192.267 300.305 190C302.039 187.8 304.372 186.7 307.305 186.7V186.7ZM322.405 185.9C323.805 185.9 324.472 186.533 324.405 187.8C324.405 188.133 324.405 188.5 324.405 188.9C325.872 187.633 327.705 187 329.905 187C334.905 187 337.372 189.9 337.305 195.7L337.105 205.3C337.105 206.833 336.472 207.667 335.205 207.8C333.805 207.867 333.105 207.133 333.105 205.6L333.405 196.6C333.472 193.067 332.405 191.233 330.205 191.1C328.405 190.967 326.439 191.9 324.305 193.9L324.005 205.5C323.939 206.9 323.205 207.567 321.805 207.5C320.605 207.5 320.039 206.8 320.105 205.4L320.505 187.7C320.572 186.5 321.205 185.9 322.405 185.9V185.9ZM344.905 178.1C344.972 178.1 345.005 178.1 345.005 178.1C345.472 178.1 345.905 178.2 346.305 178.4C346.705 178.667 347.005 179 347.205 179.4C347.405 179.733 347.505 180.1 347.505 180.5C347.505 180.567 347.505 180.633 347.505 180.7C347.439 181.167 347.272 181.567 347.005 181.9C346.739 182.233 346.439 182.467 346.105 182.6C345.772 182.8 345.405 182.9 345.005 182.9C344.939 182.9 344.905 182.9 344.905 182.9C344.505 182.833 344.105 182.7 343.705 182.5C343.372 182.3 343.105 182.033 342.905 181.7C342.639 181.3 342.505 180.9 342.505 180.5C342.505 180.1 342.605 179.7 342.805 179.3C343.072 178.967 343.372 178.667 343.705 178.4C344.105 178.2 344.505 178.1 344.905 178.1V178.1ZM344.805 186.8C346.072 186.8 346.672 187.633 346.605 189.3L346.405 205.2C346.339 206.933 345.705 207.8 344.505 207.8C343.039 207.733 342.339 206.9 342.405 205.3L342.705 189.3C342.772 187.567 343.472 186.733 344.805 186.8V186.8ZM359.905 176C361.239 176 361.905 176.633 361.905 177.9C361.905 181.167 361.872 184.133 361.805 186.8H365.805C367.405 186.8 368.205 187.433 368.205 188.7C368.205 190.033 367.439 190.7 365.905 190.7C364.505 190.7 363.105 190.7 361.705 190.7L361.305 205.6C361.305 207 360.605 207.667 359.205 207.6C358.005 207.6 357.405 206.9 357.405 205.5L357.805 190.7C356.205 190.7 354.639 190.7 353.105 190.7C351.972 190.7 351.405 190.067 351.405 188.8C351.405 187.533 352.039 186.9 353.305 186.9C354.839 186.9 356.372 186.867 357.905 186.8L358.105 177.8C358.105 176.6 358.705 176 359.905 176V176ZM380.705 190.6C378.972 190.667 377.672 191.267 376.805 192.4C375.472 194.133 374.805 196.033 374.805 198.1C374.805 200.1 375.305 201.6 376.305 202.6C377.239 203.6 378.372 204.1 379.705 204.1C381.105 204.1 382.305 203.6 383.305 202.6C384.372 201.533 384.905 199.8 384.905 197.4C384.905 192.867 383.505 190.6 380.705 190.6V190.6ZM380.605 186.7C385.939 186.767 388.605 190.467 388.605 197.8C388.605 200.867 387.872 203.2 386.405 204.8C384.872 206.8 382.472 207.767 379.205 207.7C376.805 207.7 374.805 206.767 373.205 204.9C371.672 203.233 370.905 200.867 370.905 197.8C370.905 194.867 371.805 192.267 373.605 190C375.339 187.8 377.672 186.7 380.605 186.7V186.7ZM395.705 185.9C397.039 185.9 397.705 186.533 397.705 187.8C397.705 188 397.705 188.233 397.705 188.5C399.172 187.433 400.639 186.867 402.105 186.8C403.839 186.8 405.305 187.067 406.505 187.6C408.505 188.6 409.305 189.6 408.905 190.6C408.372 192.267 407.339 192.6 405.805 191.6C404.605 190.8 403.239 190.533 401.705 190.8C400.172 191.133 398.805 191.867 397.605 193L397.205 205.6C397.205 207 396.505 207.667 395.105 207.6C393.905 207.6 393.339 206.9 393.405 205.5L393.805 187.7C393.872 186.5 394.505 185.9 395.705 185.9V185.9ZM418.105 204C421.039 204.2 422.839 203.833 423.505 202.9C424.039 202.1 423.739 201.133 422.605 200C421.872 199.267 420.205 198.7 417.605 198.3C414.872 197.967 413.305 196.967 412.905 195.3C412.572 194.033 412.672 192.733 413.205 191.4C413.805 189.933 414.639 188.833 415.705 188.1C417.039 187.167 418.572 186.633 420.305 186.5C422.239 186.3 423.939 186.567 425.405 187.3C427.272 188.167 428.305 189.167 428.505 190.3C428.639 191.1 428.405 191.733 427.805 192.2C427.005 192.8 425.839 192.367 424.305 190.9C423.572 190.233 422.439 189.933 420.905 190C419.305 190.067 418.139 190.533 417.405 191.4C416.739 192.133 416.539 192.867 416.805 193.6C417.005 194.333 417.939 194.767 419.605 194.9C420.805 195.033 421.972 195.333 423.105 195.8C424.505 196.467 425.505 197.133 426.105 197.8C427.439 199.333 428.005 200.933 427.805 202.6C427.605 204.2 426.672 205.533 425.005 206.6C423.672 207.467 421.905 207.9 419.705 207.9C417.905 207.9 416.405 207.767 415.205 207.5C414.472 207.3 413.605 206.9 412.605 206.3C411.672 205.767 411.172 205.133 411.105 204.4C411.039 203.533 411.305 202.933 411.905 202.6C412.705 202.067 413.572 202.133 414.505 202.8C415.639 203.533 416.839 203.933 418.105 204ZM460.705 196.7L447.405 198.5C447.472 199.967 448.139 201.233 449.405 202.3C450.872 203.567 452.539 204.2 454.405 204.2C457.139 204.133 458.972 203.633 459.905 202.7C460.772 201.7 461.505 201.133 462.105 201C462.705 200.933 463.139 201.133 463.405 201.6C464.005 202.8 463.705 203.9 462.505 204.9C460.439 206.767 457.672 207.667 454.205 207.6C451.672 207.6 449.472 206.833 447.605 205.3C445.205 203.433 444.005 200.933 444.005 197.8C444.005 195.133 444.739 192.767 446.205 190.7C448.072 188.167 450.472 186.8 453.405 186.6C456.472 186.467 458.872 187.2 460.605 188.8C462.272 190.333 463.072 192.067 463.005 194C462.939 195.6 462.172 196.5 460.705 196.7V196.7ZM447.805 195.4L459.505 193.7C459.305 192.633 458.705 191.767 457.705 191.1C456.572 190.367 455.339 190.033 454.005 190.1C452.139 190.1 450.572 190.867 449.305 192.4C448.705 193.133 448.205 194.133 447.805 195.4ZM474.305 176C475.639 176 476.305 176.633 476.305 177.9C476.305 181.167 476.272 184.133 476.205 186.8H480.205C481.805 186.8 482.605 187.433 482.605 188.7C482.605 190.033 481.839 190.7 480.305 190.7C478.905 190.7 477.505 190.7 476.105 190.7L475.705 205.6C475.705 207 475.005 207.667 473.605 207.6C472.405 207.6 471.805 206.9 471.805 205.5L472.205 190.7C470.605 190.7 469.039 190.7 467.505 190.7C466.372 190.7 465.805 190.067 465.805 188.8C465.805 187.533 466.439 186.9 467.705 186.9C469.239 186.9 470.772 186.867 472.305 186.8L472.505 177.8C472.505 176.6 473.105 176 474.305 176V176ZM499.805 202.8C501.005 202 501.972 202.2 502.705 203.4C503.172 204.133 502.839 204.967 501.705 205.9C500.239 207.1 497.939 207.7 494.805 207.7C492.339 207.7 490.272 206.933 488.605 205.4C486.605 203.533 485.605 201.167 485.605 198.3C485.605 195.167 486.339 192.6 487.805 190.6C489.539 188.2 491.739 186.9 494.405 186.7C496.005 186.567 497.472 186.7 498.805 187.1C500.405 187.633 501.472 188.3 502.005 189.1C502.805 190.3 502.739 191.233 501.805 191.9C501.205 192.3 500.272 192.033 499.005 191.1C497.405 190.033 495.639 189.8 493.705 190.4C492.572 190.733 491.572 191.5 490.705 192.7C489.705 194.1 489.172 195.7 489.105 197.5C489.105 199.233 489.639 200.8 490.705 202.2C491.705 203.467 493.072 204.133 494.805 204.2C496.605 204.267 498.272 203.8 499.805 202.8V202.8ZM509.905 203.8C510.372 203.8 510.805 203.9 511.205 204.1C511.605 204.367 511.905 204.7 512.105 205.1C512.305 205.433 512.405 205.8 512.405 206.2C512.405 206.267 512.405 206.333 512.405 206.4C512.405 206.867 512.239 207.267 511.905 207.6C511.639 207.933 511.339 208.167 511.005 208.3C510.672 208.5 510.305 208.6 509.905 208.6C509.905 208.6 509.872 208.6 509.805 208.6C509.405 208.6 509.039 208.5 508.705 208.3C508.305 208.033 508.005 207.733 507.805 207.4C507.605 207.067 507.505 206.667 507.505 206.2C507.505 205.8 507.605 205.433 507.805 205.1C508.005 204.7 508.272 204.4 508.605 204.2C509.005 203.933 509.439 203.8 509.905 203.8V203.8Z" fill="black"/>
</svg>
