<svg width="96" height="110" viewBox="0 0 96 110" fill="none" xmlns="http://www.w3.org/2000/svg">
<path fill-rule="evenodd" clip-rule="evenodd" d="M10.7875 97.9012C10.5208 98.4345 10.2208 98.9678 9.88749 99.5012C8.98749 103.401 6.88744 106.901 3.08744 109.501C1.48744 110.601 -0.812546 108.401 0.287454 106.701C9.18745 92.6012 0.587467 79.0012 1.48747 63.9012C2.18747 52.2012 7.38744 41.2012 15.0874 32.3012C34.1874 10.2012 64.0875 6.50118 91.1875 1.80118C91.5208 1.33452 91.8875 0.934515 92.2875 0.601182C93.6875 -0.598818 95.7875 0.401183 95.4875 2.30118C93.9875 9.30118 91.2875 15.5012 90.6875 22.8012C90.1875 29.2012 90.0875 35.7012 89.3875 42.1012C87.7875 55.4012 84.1875 68.7012 76.1875 79.6012C61.3875 99.7012 33.8875 103.701 10.7875 97.9012V97.9012ZM76.7875 68.9012C82.9875 56.4012 84.3875 42.5012 85.1875 28.8012C85.4875 22.0012 85.2874 12.5012 88.5874 5.70118C76.8874 9.70118 64.2874 11.2012 52.5874 15.3012C38.4874 20.1012 24.8875 28.1012 16.1875 40.4012C7.08748 53.2012 6.48749 65.9012 9.38749 80.9012C9.58749 82.1012 9.78747 83.3345 9.98747 84.6012C13.5875 78.9012 18.8875 73.7012 23.4875 69.3012C20.3875 65.3012 18.7874 60.5012 18.5874 55.4012C18.4874 51.5012 18.9874 45.0012 22.5874 42.6012C23.3874 42.1012 24.2875 42.7012 24.2875 43.5012C24.4875 45.5012 23.5874 47.1012 23.0874 48.9012C22.4874 51.0345 22.1875 53.1678 22.1875 55.3012C22.2875 59.6012 23.3875 63.7012 25.2875 67.5012C26.1541 66.6345 26.9875 65.8012 27.7875 65.0012C34.9875 57.8012 42.2208 50.6012 49.4875 43.4012C49.3875 43.3012 49.1875 43.2012 49.1875 43.1012C48.8875 42.6012 48.7875 42.5012 48.7875 42.0012C48.7875 41.8678 48.8208 41.7678 48.8875 41.7012C48.8875 40.8012 47.9875 39.0012 47.8875 38.3012C47.5875 37.0012 47.3875 35.6012 47.2875 34.3012C47.1875 32.0012 47.0875 28.5012 48.8875 26.8012C49.6875 26.2012 50.5875 26.4012 50.9875 27.3012C51.4875 28.6012 51.1874 29.8012 51.0874 31.1012C50.8874 32.6012 50.9874 34.0012 51.0874 35.5012C51.1874 37.0012 51.9874 39.0012 52.0874 40.7012C55.5541 37.2345 59.0208 33.8012 62.4875 30.4012C62.4875 30.3012 62.3875 30.3012 62.3875 30.3012C60.5875 28.5012 58.7874 23.6012 61.5874 21.8012C61.9874 21.5012 62.5875 21.8012 62.6875 22.2012C62.9875 23.3012 62.5875 24.4012 62.6875 25.5012C62.6875 26.8012 63.0875 28.1012 63.6875 29.2012C65.4875 27.4012 67.2874 25.6345 69.0874 23.9012C69.9874 22.9012 71.3875 24.3012 70.4875 25.3012C68.0208 28.0345 65.5208 30.7678 62.9875 33.5012C63.6875 33.4012 64.4874 33.3012 65.0874 33.3012C67.0874 33.1012 70.3875 32.9012 71.6875 34.8012C72.0875 35.3012 71.7875 35.9012 71.3875 36.2012C69.6875 37.3012 66.9874 36.6012 65.0874 36.7012C63.5874 36.7012 61.4874 37.4012 60.0874 36.7012C54.2208 43.1012 48.3874 49.5012 42.5874 55.9012C45.6874 55.5012 48.9875 55.4012 51.9875 54.7012C56.7875 53.6012 61.8875 50.2012 66.6875 50.2012C67.6875 50.2012 68.5875 51.3012 67.9875 52.2012C65.1875 56.6012 58.0875 58.3012 53.3875 59.3012C49.0875 60.2012 43.3875 61.3012 38.9875 59.8012C38.0541 60.8012 37.0874 61.8345 36.0874 62.9012C30.9874 68.5012 25.5875 74.0012 20.8875 79.9012C20.4875 80.5012 20.0875 81.0012 19.6875 81.6012C22.9875 81.8012 26.2875 82.1012 29.4875 82.1012C34.1875 82.1012 39.4875 80.6012 43.9875 81.8012C45.2875 82.2012 45.4875 83.8012 44.3875 84.5012C40.2875 87.3012 33.5875 86.8012 28.8875 86.6012C24.9875 86.5012 21.0875 86.2012 17.3875 85.1012C15.4875 88.4012 13.8875 91.7012 12.2875 95.1012C23.4875 94.7012 34.6875 96.2012 45.7875 93.7012C59.7875 90.5012 70.3875 81.6012 76.7875 68.9012V68.9012Z" fill="#32594A"/>
</svg>
